M48
; DRILL file {KiCad 8.0.6} date 2024-11-27T15:15:32-0800
; FORMAT={-:-/ absolute / metric / decimal}
; #@! TF.CreationDate,2024-11-27T15:15:32-08:00
; #@! TF.GenerationSoftware,Kicad,Pcbnew,8.0.6
; #@! TF.FileFunction,Plated,1,4,PTH
FMAT,2
METRIC
; #@! TA.AperFunction,Plated,PTH,ViaDrill
T1C0.330
; #@! TA.AperFunction,Plated,PTH,ComponentDrill
T2C1.000
; #@! TA.AperFunction,Plated,PTH,ComponentDrill
T3C1.330
%
G90
G05
T1
X103.0Y-35.5
X103.0Y-47.5
X103.0Y-51.5
X103.0Y-62.5
X103.0Y-78.0
X103.0Y-80.5
X103.5Y-37.0
X103.5Y-63.5
X103.5Y-64.5
X103.5Y-66.0
X103.5Y-67.0
X103.5Y-68.0
X103.5Y-70.5
X105.5Y-53.5
X105.5Y-72.0
X105.675Y-73.325
X106.5Y-61.5
X106.5Y-77.5
X107.0Y-57.5
X107.0Y-64.0
X107.0Y-65.0
X107.0Y-67.0
X107.0Y-69.0
X107.5Y-35.5
X107.5Y-60.5
X107.5Y-62.0
X108.5Y-55.5
X109.0Y-53.5
X109.0Y-71.0
X109.5Y-44.0
X110.0Y-73.0
X110.0Y-79.5
X110.5Y-66.0
X110.5Y-67.625
X110.5Y-69.5
X110.5Y-71.0
X111.0Y-58.0
X111.5Y-44.0
X111.5Y-72.5
X113.0Y-42.5
X113.5Y-64.0
X113.5Y-65.162
X113.5Y-67.625
X113.575Y-68.925
X114.0Y-60.5
X114.0Y-70.5
X114.0Y-75.5
X114.5Y-50.0
X114.5Y-51.5
X115.0Y-48.5
X116.5Y-48.5
X116.5Y-51.0
X116.5Y-53.0
X116.5Y-61.5
X116.5Y-64.0
X116.5Y-66.0
X116.5Y-68.5
X116.525Y-66.955
X116.75Y-45.25
X117.0Y-42.5
X117.0Y-72.0
X117.5Y-41.5
X118.0Y-45.5
X118.5Y-47.5
X118.5Y-55.0
X119.0Y-60.5
X119.0Y-78.5
X119.5Y-41.5
X119.5Y-46.5
X119.5Y-69.0
X119.5Y-71.5
X120.5Y-54.5
X121.0Y-41.0
X122.0Y-36.0
X122.0Y-78.0
X122.5Y-40.0
X122.5Y-79.0
X123.0Y-65.0
X124.0Y-54.5
X124.0Y-71.5
X125.0Y-36.0
X125.0Y-40.0
X125.0Y-56.5
X125.5Y-45.5
X125.5Y-64.5
X125.5Y-77.0
X126.0Y-51.5
X126.0Y-59.5
X126.0Y-68.5
X127.0Y-42.5
X127.5Y-65.0
X128.0Y-62.5
X128.0Y-72.0
X128.5Y-40.5
X128.5Y-58.0
X129.25Y-67.75
X129.5Y-44.5
X130.0Y-58.5
X130.0Y-67.0
X131.0Y-52.5
X131.0Y-78.0
X131.5Y-42.5
X131.5Y-67.0
X131.5Y-72.0
X131.95Y-48.0
X132.0Y-46.5
X132.0Y-53.5
X132.25Y-45.25
X132.25Y-67.75
X132.5Y-80.5
X133.0Y-42.0
X133.0Y-52.5
X133.5Y-48.0
X133.5Y-58.0
X133.5Y-63.5
X133.5Y-64.5
X133.5Y-77.0
X134.0Y-49.0
X134.0Y-67.0
X134.5Y-44.5
X134.5Y-51.5
X134.5Y-61.5
X134.903Y-68.5
X135.0Y-50.5
X135.0Y-75.5
X135.5Y-36.0
X136.0Y-53.0
X136.0Y-80.5
X136.5Y-41.0
X136.5Y-68.5
X137.0Y-44.0
X137.0Y-55.0
X137.0Y-60.5
X137.5Y-46.5
X137.5Y-70.0
X138.0Y-48.5
X138.0Y-51.0
X138.0Y-72.0
X138.5Y-55.5
T2
X100.5Y-33.5
X100.5Y-36.5
X100.5Y-39.5
X100.5Y-42.5
X100.5Y-45.5
X100.5Y-48.5
X100.5Y-51.5
X100.5Y-54.5
X100.5Y-57.5
X100.5Y-60.5
X100.5Y-64.0
X100.5Y-67.0
X100.5Y-70.0
X100.5Y-73.0
X100.5Y-76.0
X100.5Y-79.0
X100.5Y-82.5
X104.0Y-33.5
X104.0Y-82.5
X104.6Y-41.9
X104.6Y-48.4
X107.0Y-33.5
X107.0Y-82.5
X109.1Y-41.9
X109.1Y-48.4
X110.0Y-33.5
X110.0Y-82.5
X113.0Y-33.5
X116.0Y-33.5
X119.0Y-33.5
X122.0Y-33.5
X125.0Y-33.5
X128.0Y-33.5
X130.25Y-39.65
X130.25Y-46.15
X131.0Y-33.5
X134.0Y-33.5
X134.0Y-82.5
X134.75Y-39.65
X134.75Y-46.15
X137.0Y-33.5
X137.0Y-82.5
X140.5Y-33.5
X140.5Y-36.5
X140.5Y-39.5
X140.5Y-42.5
X140.5Y-45.5
X140.5Y-48.5
X140.5Y-51.5
X140.5Y-55.0
X140.5Y-58.0
X140.5Y-61.0
X140.5Y-64.0
X140.5Y-67.0
X140.5Y-70.0
X140.5Y-73.0
X140.5Y-76.0
X140.5Y-79.0
X140.5Y-82.5
T3
X117.425Y-80.08
X117.425Y-83.53
X124.575Y-80.08
X124.575Y-83.53
M30
