%TF.GenerationSoftware,KiCad,Pcbnew,8.0.6*%
%TF.CreationDate,2024-11-27T15:15:38-08:00*%
%TF.ProjectId,DeskCleanerRobot,4465736b-436c-4656-916e-6572526f626f,rev?*%
%TF.SameCoordinates,Original*%
%TF.FileFunction,Copper,L4,Bot*%
%TF.FilePolarity,Positive*%
%FSLAX46Y46*%
G04 Gerber Fmt 4.6, Leading zero omitted, Abs format (unit mm)*
G04 Created by KiCad (PCBNEW 8.0.6) date 2024-11-27 15:15:38*
%MOMM*%
%LPD*%
G01*
G04 APERTURE LIST*
%TA.AperFunction,ComponentPad*%
%ADD10C,1.995000*%
%TD*%
%TA.AperFunction,ComponentPad*%
%ADD11C,1.500000*%
%TD*%
%TA.AperFunction,ComponentPad*%
%ADD12C,2.000000*%
%TD*%
%TA.AperFunction,ViaPad*%
%ADD13C,0.685800*%
%TD*%
%TA.AperFunction,Conductor*%
%ADD14C,0.508000*%
%TD*%
%TA.AperFunction,Conductor*%
%ADD15C,0.254000*%
%TD*%
%TA.AperFunction,Conductor*%
%ADD16C,0.200000*%
%TD*%
G04 APERTURE END LIST*
D10*
%TO.P,USB1,MH1,MH1*%
%TO.N,unconnected-(USB1-PadMH1)*%
X117425000Y-80080000D03*
%TO.P,USB1,MH2,MH2*%
%TO.N,unconnected-(USB1-PadMH2)*%
X124575000Y-80080000D03*
%TO.P,USB1,MH3,MH3*%
%TO.N,unconnected-(USB1-PadMH3)*%
X124575000Y-83530000D03*
%TO.P,USB1,MH4,MH4*%
%TO.N,unconnected-(USB1-PadMH4)*%
X117425000Y-83530000D03*
%TD*%
D11*
%TO.P,RESET1,1,1*%
%TO.N,Net-(IC8-EN)*%
X130250000Y-46150000D03*
%TO.P,RESET1,2,2*%
%TO.N,unconnected-(RESET1-Pad2)*%
X130250000Y-39650000D03*
%TO.P,RESET1,3,3*%
%TO.N,GND*%
X134750000Y-46150000D03*
%TO.P,RESET1,4,4*%
%TO.N,unconnected-(RESET1-Pad4)*%
X134750000Y-39650000D03*
%TD*%
%TO.P,BOOT1,1,1*%
%TO.N,unconnected-(BOOT1-Pad1)*%
X109100000Y-41900000D03*
%TO.P,BOOT1,2,2*%
%TO.N,Net-(IC8-IO0)*%
X109100000Y-48400000D03*
%TO.P,BOOT1,3,3*%
%TO.N,unconnected-(BOOT1-Pad3)*%
X104600000Y-41900000D03*
%TO.P,BOOT1,4,4*%
%TO.N,GND*%
X104600000Y-48400000D03*
%TD*%
D12*
%TO.P,SC7,1,1*%
%TO.N,SC7*%
X116000000Y-33500000D03*
%TD*%
%TO.P,INT7,1,1*%
%TO.N,INT7*%
X113000000Y-33500000D03*
%TD*%
%TO.P,GN5,1,1*%
%TO.N,GND*%
X140500000Y-73000000D03*
%TD*%
%TO.P,3V1,1,1*%
%TO.N,+3.3V*%
X100500000Y-51500000D03*
%TD*%
%TO.P,-E1,1,1*%
%TO.N,GND*%
X107000000Y-33500000D03*
%TD*%
%TO.P,SD5,1,1*%
%TO.N,SD5*%
X140500000Y-67000000D03*
%TD*%
%TO.P,SIG1,1,1*%
%TO.N,ESCsignal*%
X110000000Y-33500000D03*
%TD*%
%TO.P,SC3,1,1*%
%TO.N,SC3*%
X107000000Y-82500000D03*
%TD*%
%TO.P,GN0,1,1*%
%TO.N,GND*%
X100500000Y-33500000D03*
%TD*%
%TO.P,SD1,1,1*%
%TO.N,SD1*%
X100500000Y-54500000D03*
%TD*%
%TO.P,3V3,1,1*%
%TO.N,+3.3V*%
X100500000Y-82500000D03*
%TD*%
%TO.P,GN4,1,1*%
%TO.N,GND*%
X134000000Y-82500000D03*
%TD*%
%TO.P,SD6,1,1*%
%TO.N,SD6*%
X140500000Y-39500000D03*
%TD*%
%TO.P,AO1,1,1*%
%TO.N,AOUT1*%
X128000000Y-33500000D03*
%TD*%
%TO.P,+E1,1,1*%
%TO.N,ESC+*%
X104000000Y-33500000D03*
%TD*%
%TO.P,BO2,1,1*%
%TO.N,BOUT2*%
X137000000Y-33500000D03*
%TD*%
%TO.P,INT1,1,1*%
%TO.N,INT1*%
X100500000Y-60500000D03*
%TD*%
%TO.P,SW1,1,1*%
%TO.N,GND*%
X140500000Y-55000000D03*
%TD*%
%TO.P,3V4,1,1*%
%TO.N,+3.3V*%
X137000000Y-82500000D03*
%TD*%
%TO.P,3V7,1,1*%
%TO.N,+3.3V*%
X122000000Y-33500000D03*
%TD*%
%TO.P,SC4,1,1*%
%TO.N,SC4*%
X140500000Y-79000000D03*
%TD*%
%TO.P,SW2,1,1*%
%TO.N,Net-(BM1-G)*%
X140500000Y-58000000D03*
%TD*%
%TO.P,INT6,1,1*%
%TO.N,INT6*%
X140500000Y-33500000D03*
%TD*%
%TO.P,SD4,1,1*%
%TO.N,SD4*%
X140500000Y-82500000D03*
%TD*%
%TO.P,3V6,1,1*%
%TO.N,+3.3V*%
X140500000Y-42500000D03*
%TD*%
%TO.P,-BAT1,1,1*%
%TO.N,GND*%
X140500000Y-48500000D03*
%TD*%
%TO.P,3V5,1,1*%
%TO.N,+3.3V*%
X140500000Y-70000000D03*
%TD*%
%TO.P,INT4,1,1*%
%TO.N,INT4*%
X140500000Y-76000000D03*
%TD*%
%TO.P,BO1,1,1*%
%TO.N,BOUT1*%
X134000000Y-33500000D03*
%TD*%
%TO.P,SC6,1,1*%
%TO.N,SC6*%
X140500000Y-36500000D03*
%TD*%
%TO.P,INT5,1,1*%
%TO.N,INT5*%
X140500000Y-61000000D03*
%TD*%
%TO.P,+BAT1,1,1*%
%TO.N,+BATT*%
X140500000Y-51500000D03*
%TD*%
%TO.P,INT2,1,1*%
%TO.N,INT2*%
X100500000Y-76000000D03*
%TD*%
%TO.P,INT3,1,1*%
%TO.N,INT3*%
X110000000Y-82500000D03*
%TD*%
%TO.P,GN3,1,1*%
%TO.N,GND*%
X100500000Y-79000000D03*
%TD*%
%TO.P,AO2,1,1*%
%TO.N,AOUT2*%
X131000000Y-33500000D03*
%TD*%
%TO.P,INT0,1,1*%
%TO.N,INT0*%
X100500000Y-45500000D03*
%TD*%
%TO.P,SC5,1,1*%
%TO.N,SC5*%
X140500000Y-64000000D03*
%TD*%
%TO.P,SD3,1,1*%
%TO.N,SD3*%
X104000000Y-82500000D03*
%TD*%
%TO.P,SD2,1,1*%
%TO.N,SD2*%
X100500000Y-70000000D03*
%TD*%
%TO.P,3V0,1,1*%
%TO.N,+3.3V*%
X100500000Y-36500000D03*
%TD*%
%TO.P,SD0,1,1*%
%TO.N,SD0*%
X100500000Y-39500000D03*
%TD*%
%TO.P,SC1,1,1*%
%TO.N,SC1*%
X100500000Y-57500000D03*
%TD*%
%TO.P,SC0,1,1*%
%TO.N,SC0*%
X100500000Y-42500000D03*
%TD*%
%TO.P,SC2,1,1*%
%TO.N,SC2*%
X100500000Y-73000000D03*
%TD*%
%TO.P,GN6,1,1*%
%TO.N,GND*%
X140500000Y-45500000D03*
%TD*%
%TO.P,3V2,1,1*%
%TO.N,+3.3V*%
X100500000Y-67000000D03*
%TD*%
%TO.P,GN1,1,1*%
%TO.N,GND*%
X100500000Y-48500000D03*
%TD*%
%TO.P,GN2,1,1*%
%TO.N,GND*%
X100500000Y-64000000D03*
%TD*%
%TO.P,GN7,1,1*%
%TO.N,GND*%
X125000000Y-33500000D03*
%TD*%
%TO.P,SD7,1,1*%
%TO.N,SD7*%
X119000000Y-33500000D03*
%TD*%
D13*
%TO.N,+5V*%
X119000000Y-78500000D03*
X122000000Y-78000000D03*
%TO.N,+BATT*%
X133500000Y-58000000D03*
X136500000Y-68500000D03*
X137000000Y-55000000D03*
X137000000Y-60500000D03*
%TO.N,ESC+*%
X132000000Y-53500000D03*
X126000000Y-51500000D03*
X118000000Y-45500000D03*
X117500000Y-41500000D03*
%TO.N,+3.3V*%
X125500000Y-64500000D03*
X131000000Y-52500000D03*
X116500000Y-61500000D03*
X119500000Y-69000000D03*
X126000000Y-68500000D03*
X134903100Y-68500000D03*
X107500000Y-60500000D03*
X137500000Y-70000000D03*
X119500000Y-71500000D03*
X103000000Y-80500000D03*
X129250000Y-67750000D03*
X105500000Y-72000000D03*
X103000000Y-51500000D03*
X137500000Y-46500000D03*
X130000000Y-67000000D03*
X103500000Y-64500000D03*
X119000000Y-60500000D03*
X103500000Y-37000000D03*
X103500000Y-66000000D03*
X114000000Y-60500000D03*
X133000000Y-52500000D03*
X103500000Y-70500000D03*
X132250000Y-67750000D03*
X131500000Y-67000000D03*
X136000000Y-80500000D03*
X122000000Y-36000000D03*
%TO.N,3V3PowMux*%
X116750000Y-45250000D03*
X103000000Y-62500000D03*
X117000000Y-42500000D03*
X105675000Y-73325000D03*
%TO.N,SC2*%
X110500000Y-67625000D03*
X103500000Y-68000000D03*
%TO.N,SD0*%
X106500000Y-61500000D03*
%TO.N,SD5*%
X134000000Y-67000000D03*
X116500000Y-68500000D03*
%TO.N,SD4*%
X114000000Y-70500000D03*
%TO.N,SD3*%
X107000000Y-69000000D03*
%TO.N,SD2*%
X103500000Y-67000000D03*
X107000000Y-67000000D03*
%TO.N,SD1*%
X107000000Y-65000000D03*
%TO.N,SC0*%
X109500000Y-44000000D03*
X107000000Y-64000000D03*
%TO.N,SD7*%
X113500000Y-65162500D03*
X125000000Y-40000000D03*
%TO.N,SC3*%
X110500000Y-69500000D03*
%TO.N,SC5*%
X134500000Y-61500000D03*
X113500000Y-67625000D03*
%TO.N,SC1*%
X110500000Y-66000000D03*
%TO.N,SC6*%
X116500000Y-66000000D03*
X137000000Y-44000000D03*
%TO.N,SD6*%
X116525000Y-66955100D03*
X136000000Y-53000000D03*
%TO.N,SC7*%
X116500000Y-64000000D03*
X122500000Y-40000000D03*
%TO.N,SC4*%
X113575000Y-68925000D03*
%TO.N,AOUT2*%
X131500000Y-42500000D03*
X135000000Y-50500000D03*
X132000000Y-46500000D03*
%TO.N,BOUT1*%
X133000000Y-42000000D03*
X133500000Y-48000000D03*
X132250000Y-45250000D03*
%TO.N,BOUT2*%
X134000000Y-49000000D03*
%TO.N,AOUT1*%
X129500000Y-44500000D03*
X134500000Y-51500000D03*
X128500000Y-40500000D03*
%TO.N,INT0*%
X111500000Y-44000000D03*
X115000000Y-48500000D03*
%TO.N,INT4*%
X125000000Y-56500000D03*
%TO.N,ESCsignal*%
X119500000Y-46500000D03*
X119500000Y-41500000D03*
%TO.N,INT7*%
X120500000Y-54500000D03*
X121000000Y-41000000D03*
%TO.N,INT2*%
X114500000Y-50000000D03*
X109000000Y-71000000D03*
%TO.N,INT5*%
X126000000Y-59500000D03*
%TO.N,INT6*%
X136500000Y-41000000D03*
X124000000Y-54500000D03*
%TO.N,INT1*%
X107000000Y-57500000D03*
X108500000Y-55500000D03*
%TO.N,INT3*%
X114500000Y-51500000D03*
%TO.N,GND*%
X117000000Y-72000000D03*
X138500000Y-55500000D03*
X105500000Y-53500000D03*
X131500000Y-72000000D03*
X133500000Y-77000000D03*
X122500000Y-79000000D03*
X113500000Y-64000000D03*
X138000000Y-51000000D03*
X135500000Y-36000000D03*
X110000000Y-73000000D03*
X103500000Y-63500000D03*
X125500000Y-45500000D03*
X127500000Y-65000000D03*
X118500000Y-55000000D03*
X110000000Y-79500000D03*
X106500000Y-77500000D03*
X107500000Y-62000000D03*
X124000000Y-71500000D03*
X131000000Y-78000000D03*
X114000000Y-75500000D03*
X116500000Y-53000000D03*
X103000000Y-78000000D03*
X128000000Y-62500000D03*
X113000000Y-42500000D03*
X138000000Y-72000000D03*
X123000000Y-65000000D03*
X135000000Y-75500000D03*
X109000000Y-53500000D03*
X125000000Y-36000000D03*
X138000000Y-48500000D03*
X107500000Y-35500000D03*
X103000000Y-35500000D03*
X132500000Y-80500000D03*
X128000000Y-72000000D03*
X128500000Y-58000000D03*
X110500000Y-71000000D03*
X131950000Y-48000000D03*
X116500000Y-48500000D03*
X130000000Y-58500000D03*
X111500000Y-72500000D03*
X116500000Y-51000000D03*
X133500000Y-64500000D03*
X125500000Y-77000000D03*
X127000000Y-42500000D03*
X111000000Y-58000000D03*
X134500000Y-44500000D03*
X133500000Y-63500000D03*
X118500000Y-47500000D03*
X103000000Y-47500000D03*
%TD*%
D14*
%TO.N,+5V*%
X119000000Y-78500000D02*
X121500000Y-78500000D01*
X121500000Y-78500000D02*
X122000000Y-78000000D01*
%TO.N,+BATT*%
X137000000Y-55000000D02*
X137000000Y-56000000D01*
X137500000Y-66000000D02*
X137500000Y-61000000D01*
X137000000Y-66500000D02*
X137500000Y-66000000D01*
X136500000Y-68500000D02*
X137000000Y-68000000D01*
X137500000Y-61000000D02*
X137000000Y-60500000D01*
X135000000Y-58000000D02*
X133500000Y-58000000D01*
X137000000Y-56000000D02*
X135000000Y-58000000D01*
X137000000Y-68000000D02*
X137000000Y-66500000D01*
%TO.N,ESC+*%
X118000000Y-42000000D02*
X117500000Y-41500000D01*
X126000000Y-51500000D02*
X127500000Y-53000000D01*
X130000000Y-53000000D02*
X130500000Y-53500000D01*
X127500000Y-53000000D02*
X130000000Y-53000000D01*
X118000000Y-45500000D02*
X118000000Y-42000000D01*
X130500000Y-53500000D02*
X132000000Y-53500000D01*
%TO.N,+3.3V*%
X101000000Y-37000000D02*
X103500000Y-37000000D01*
X100500000Y-36500000D02*
X101000000Y-37000000D01*
X137500000Y-45500000D02*
X140500000Y-42500000D01*
X136000000Y-81500000D02*
X136000000Y-80500000D01*
X103000000Y-51500000D02*
X100500000Y-51500000D01*
X102500000Y-80500000D02*
X103000000Y-80500000D01*
X137500000Y-46500000D02*
X137500000Y-45500000D01*
X122000000Y-36000000D02*
X122000000Y-33500000D01*
X137500000Y-70000000D02*
X140500000Y-70000000D01*
X137000000Y-82500000D02*
X136000000Y-81500000D01*
X100500000Y-82500000D02*
X102500000Y-80500000D01*
%TO.N,3V3PowMux*%
X102500000Y-72000000D02*
X103825000Y-73325000D01*
X103000000Y-62500000D02*
X102500000Y-63000000D01*
D15*
X116750000Y-45250000D02*
X117000000Y-45000000D01*
D14*
X103825000Y-73325000D02*
X105675000Y-73325000D01*
D15*
X117000000Y-45000000D02*
X117000000Y-42500000D01*
D14*
X102500000Y-63000000D02*
X102500000Y-72000000D01*
D15*
%TO.N,SC2*%
X110125000Y-68000000D02*
X110500000Y-67625000D01*
X103500000Y-68000000D02*
X110125000Y-68000000D01*
%TO.N,SD0*%
X110000000Y-58500000D02*
X109000000Y-59500000D01*
X107000000Y-59500000D02*
X106500000Y-60000000D01*
X110500000Y-57000000D02*
X110000000Y-57500000D01*
X105500000Y-39500000D02*
X107500000Y-41500000D01*
X106500000Y-60000000D02*
X106500000Y-61500000D01*
X100500000Y-39500000D02*
X105500000Y-39500000D01*
X108500000Y-54500000D02*
X110000000Y-54500000D01*
X110000000Y-57500000D02*
X110000000Y-58500000D01*
X110000000Y-54500000D02*
X110500000Y-55000000D01*
X107500000Y-41500000D02*
X107500000Y-53500000D01*
X110500000Y-55000000D02*
X110500000Y-57000000D01*
X107500000Y-53500000D02*
X108500000Y-54500000D01*
X109000000Y-59500000D02*
X107000000Y-59500000D01*
%TO.N,SD5*%
X134000000Y-67000000D02*
X133000000Y-66000000D01*
X119000000Y-68000000D02*
X118500000Y-68500000D01*
X118500000Y-68500000D02*
X116500000Y-68500000D01*
X133000000Y-66000000D02*
X122500000Y-66000000D01*
X122500000Y-66000000D02*
X120500000Y-68000000D01*
X120500000Y-68000000D02*
X119000000Y-68000000D01*
%TO.N,SD4*%
X133000000Y-75000000D02*
X140500000Y-82500000D01*
X114000000Y-70500000D02*
X118500000Y-75000000D01*
X118500000Y-75000000D02*
X133000000Y-75000000D01*
%TO.N,SD3*%
X107000000Y-69000000D02*
X106500000Y-69500000D01*
X106500000Y-69500000D02*
X106500000Y-74500000D01*
X106500000Y-74500000D02*
X104000000Y-77000000D01*
X104000000Y-77000000D02*
X104000000Y-82600000D01*
%TO.N,SD2*%
X107000000Y-67000000D02*
X103500000Y-67000000D01*
%TO.N,SD1*%
X102500000Y-54500000D02*
X100550000Y-54500000D01*
X106500000Y-65000000D02*
X105500000Y-64000000D01*
X107000000Y-65000000D02*
X106500000Y-65000000D01*
X105500000Y-64000000D02*
X105500000Y-57500000D01*
X105500000Y-57500000D02*
X102500000Y-54500000D01*
X100550000Y-54500000D02*
X100500000Y-54550000D01*
%TO.N,SC0*%
X112000000Y-58000000D02*
X108500000Y-61500000D01*
X109500000Y-44000000D02*
X112000000Y-46500000D01*
X108500000Y-62500000D02*
X107000000Y-64000000D01*
X112000000Y-46500000D02*
X112000000Y-58000000D01*
X108500000Y-61500000D02*
X108500000Y-62500000D01*
%TO.N,SD7*%
X122000000Y-60000000D02*
X122000000Y-55500000D01*
X116000000Y-65000000D02*
X117000000Y-65000000D01*
X122000000Y-55500000D02*
X123500000Y-54000000D01*
X117000000Y-65000000D02*
X122000000Y-60000000D01*
X125000000Y-44000000D02*
X125000000Y-40000000D01*
X123500000Y-45500000D02*
X125000000Y-44000000D01*
X115837500Y-65162500D02*
X116000000Y-65000000D01*
X123500000Y-54000000D02*
X123500000Y-45500000D01*
X113500000Y-65162500D02*
X115837500Y-65162500D01*
%TO.N,SC3*%
X108500000Y-69500000D02*
X108000000Y-70000000D01*
X108000000Y-70000000D02*
X108000000Y-81550000D01*
X110500000Y-69500000D02*
X108500000Y-69500000D01*
X108000000Y-81550000D02*
X107000000Y-82550000D01*
%TO.N,SC5*%
X124500000Y-61500000D02*
X118448000Y-67552000D01*
X134500000Y-61500000D02*
X124500000Y-61500000D01*
X118448000Y-67552000D02*
X113573000Y-67552000D01*
X113573000Y-67552000D02*
X113500000Y-67625000D01*
%TO.N,SC1*%
X106000000Y-66000000D02*
X104500000Y-64500000D01*
X104500000Y-64500000D02*
X104500000Y-58500000D01*
X104500000Y-58500000D02*
X103500000Y-57500000D01*
X110500000Y-66000000D02*
X106000000Y-66000000D01*
X103500000Y-57500000D02*
X100700000Y-57500000D01*
X100700000Y-57500000D02*
X100550000Y-57650000D01*
%TO.N,SC6*%
X137000000Y-44000000D02*
X136500000Y-44500000D01*
D16*
X117000000Y-66000000D02*
X123000000Y-60000000D01*
X116500000Y-66000000D02*
X117000000Y-66000000D01*
D15*
X123000000Y-56750000D02*
X123000000Y-60000000D01*
X134500000Y-53000000D02*
X134500000Y-54000000D01*
X124750000Y-55000000D02*
X123000000Y-56750000D01*
X133500000Y-55000000D02*
X124750000Y-55000000D01*
X136500000Y-51000000D02*
X134500000Y-53000000D01*
X134500000Y-54000000D02*
X133500000Y-55000000D01*
X136500000Y-44500000D02*
X136500000Y-51000000D01*
%TO.N,SD6*%
X117500000Y-67000000D02*
X116569900Y-67000000D01*
X125000000Y-55500000D02*
X124000000Y-56500000D01*
X136000000Y-54500000D02*
X134000000Y-56500000D01*
X134000000Y-56500000D02*
X126500000Y-56500000D01*
X124000000Y-60500000D02*
X117500000Y-67000000D01*
X116569900Y-67000000D02*
X116525000Y-66955100D01*
X125500000Y-55500000D02*
X125000000Y-55500000D01*
X136000000Y-53000000D02*
X136000000Y-54500000D01*
X124000000Y-56500000D02*
X124000000Y-60500000D01*
X126500000Y-56500000D02*
X125500000Y-55500000D01*
%TO.N,SC7*%
X121000000Y-60000000D02*
X121000000Y-55500000D01*
X121000000Y-55500000D02*
X122500000Y-54000000D01*
X122500000Y-54000000D02*
X122500000Y-40000000D01*
X117000000Y-64000000D02*
X121000000Y-60000000D01*
X116500000Y-64000000D02*
X117000000Y-64000000D01*
%TO.N,SC4*%
X114150000Y-69500000D02*
X115000000Y-69500000D01*
X115000000Y-69500000D02*
X115500000Y-70000000D01*
X131500000Y-70000000D02*
X140500000Y-79000000D01*
X113575000Y-68925000D02*
X114150000Y-69500000D01*
X115500000Y-70000000D02*
X131500000Y-70000000D01*
%TO.N,AOUT2*%
X132000000Y-47000000D02*
X132000000Y-46500000D01*
X132000000Y-34450000D02*
X131050000Y-33500000D01*
X135000000Y-50500000D02*
X132500000Y-50500000D01*
X132500000Y-50500000D02*
X131000000Y-49000000D01*
X132000000Y-42000000D02*
X132000000Y-34450000D01*
X131000000Y-49000000D02*
X131000000Y-48000000D01*
X131500000Y-42500000D02*
X132000000Y-42000000D01*
X131000000Y-48000000D02*
X132000000Y-47000000D01*
%TO.N,BOUT1*%
X133000000Y-37000000D02*
X134000000Y-36000000D01*
X133500000Y-46500000D02*
X133500000Y-48000000D01*
X134000000Y-36000000D02*
X134000000Y-33600000D01*
X132250000Y-45250000D02*
X133500000Y-46500000D01*
X133000000Y-42000000D02*
X133000000Y-37000000D01*
X134000000Y-33600000D02*
X134100000Y-33500000D01*
%TO.N,BOUT2*%
X134000000Y-49000000D02*
X135500000Y-47500000D01*
X135500000Y-47500000D02*
X135500000Y-47000000D01*
X136000000Y-46500000D02*
X136000000Y-43000000D01*
X136000000Y-43000000D02*
X137500000Y-41500000D01*
X137500000Y-33850000D02*
X137150000Y-33500000D01*
X135500000Y-47000000D02*
X136000000Y-46500000D01*
X137500000Y-41500000D02*
X137500000Y-33850000D01*
%TO.N,AOUT1*%
X129500000Y-44500000D02*
X128500000Y-45500000D01*
X134000000Y-51000000D02*
X134500000Y-51500000D01*
X128500000Y-49000000D02*
X130500000Y-51000000D01*
X128500000Y-45500000D02*
X128500000Y-49000000D01*
X130500000Y-51000000D02*
X134000000Y-51000000D01*
X128000000Y-40000000D02*
X128000000Y-33500000D01*
X128500000Y-40500000D02*
X128000000Y-40000000D01*
%TO.N,INT0*%
X111500000Y-44000000D02*
X115000000Y-47500000D01*
X115000000Y-47500000D02*
X115000000Y-48500000D01*
%TO.N,INT4*%
X125000000Y-60000000D02*
X125000000Y-56500000D01*
X135500000Y-71000000D02*
X135500000Y-61000000D01*
X135000000Y-60500000D02*
X125500000Y-60500000D01*
X140500000Y-76000000D02*
X135500000Y-71000000D01*
X125500000Y-60500000D02*
X125000000Y-60000000D01*
X135500000Y-61000000D02*
X135000000Y-60500000D01*
%TO.N,ESCsignal*%
X119500000Y-41500000D02*
X119500000Y-46500000D01*
%TO.N,INT7*%
X121500000Y-47000000D02*
X121500000Y-53500000D01*
X121000000Y-41000000D02*
X121000000Y-46500000D01*
X121000000Y-46500000D02*
X121500000Y-47000000D01*
X121500000Y-53500000D02*
X120500000Y-54500000D01*
%TO.N,INT2*%
X113000000Y-58500000D02*
X113000000Y-51500000D01*
X110500000Y-72000000D02*
X111500000Y-71000000D01*
X110000000Y-72000000D02*
X110500000Y-72000000D01*
X109000000Y-71000000D02*
X110000000Y-72000000D01*
X113000000Y-51500000D02*
X114500000Y-50000000D01*
X111500000Y-60000000D02*
X113000000Y-58500000D01*
X111500000Y-71000000D02*
X111500000Y-60000000D01*
%TO.N,INT5*%
X140500000Y-61000000D02*
X139000000Y-59500000D01*
X139000000Y-59500000D02*
X126000000Y-59500000D01*
%TO.N,INT6*%
X134000000Y-43500000D02*
X136500000Y-41000000D01*
X124500000Y-48000000D02*
X129000000Y-43500000D01*
X124000000Y-54500000D02*
X124500000Y-54000000D01*
X129000000Y-43500000D02*
X134000000Y-43500000D01*
X124500000Y-54000000D02*
X124500000Y-48000000D01*
%TO.N,INT1*%
X108500000Y-56000000D02*
X107000000Y-57500000D01*
X108500000Y-55500000D02*
X108500000Y-56000000D01*
%TO.N,INT3*%
X112500000Y-63500000D02*
X112500000Y-80000000D01*
X112500000Y-80000000D02*
X110000000Y-82500000D01*
X113000000Y-63000000D02*
X112500000Y-63500000D01*
X114500000Y-58000000D02*
X113000000Y-59500000D01*
X113000000Y-59500000D02*
X113000000Y-63000000D01*
X114500000Y-51500000D02*
X114500000Y-58000000D01*
%TD*%
M02*
