%TF.GenerationSoftware,KiCad,Pcbnew,8.0.6*%
%TF.CreationDate,2024-11-27T15:15:38-08:00*%
%TF.ProjectId,DeskCleanerRobot,4465736b-436c-4656-916e-6572526f626f,rev?*%
%TF.SameCoordinates,Original*%
%TF.FileFunction,Legend,Top*%
%TF.FilePolarity,Positive*%
%FSLAX46Y46*%
G04 Gerber Fmt 4.6, Leading zero omitted, Abs format (unit mm)*
G04 Created by KiCad (PCBNEW 8.0.6) date 2024-11-27 15:15:38*
%MOMM*%
%LPD*%
G01*
G04 APERTURE LIST*
%ADD10C,0.254000*%
%ADD11C,0.150000*%
%ADD12C,0.100000*%
%ADD13C,0.125000*%
%ADD14C,0.200000*%
%ADD15C,0.120000*%
%ADD16C,0.250000*%
G04 APERTURE END LIST*
D10*
X129336905Y-60704318D02*
X129760238Y-61974318D01*
X129760238Y-61974318D02*
X130183572Y-60704318D01*
X131332619Y-61974318D02*
X130909285Y-61369556D01*
X130606904Y-61974318D02*
X130606904Y-60704318D01*
X130606904Y-60704318D02*
X131090714Y-60704318D01*
X131090714Y-60704318D02*
X131211666Y-60764794D01*
X131211666Y-60764794D02*
X131272143Y-60825270D01*
X131272143Y-60825270D02*
X131332619Y-60946222D01*
X131332619Y-60946222D02*
X131332619Y-61127651D01*
X131332619Y-61127651D02*
X131272143Y-61248603D01*
X131272143Y-61248603D02*
X131211666Y-61309080D01*
X131211666Y-61309080D02*
X131090714Y-61369556D01*
X131090714Y-61369556D02*
X130606904Y-61369556D01*
X132542143Y-61974318D02*
X131816428Y-61974318D01*
X132179285Y-61974318D02*
X132179285Y-60704318D01*
X132179285Y-60704318D02*
X132058333Y-60885746D01*
X132058333Y-60885746D02*
X131937381Y-61006699D01*
X131937381Y-61006699D02*
X131816428Y-61067175D01*
X118792618Y-81995318D02*
X118792618Y-83023413D01*
X118792618Y-83023413D02*
X118853095Y-83144365D01*
X118853095Y-83144365D02*
X118913571Y-83204842D01*
X118913571Y-83204842D02*
X119034523Y-83265318D01*
X119034523Y-83265318D02*
X119276428Y-83265318D01*
X119276428Y-83265318D02*
X119397380Y-83204842D01*
X119397380Y-83204842D02*
X119457857Y-83144365D01*
X119457857Y-83144365D02*
X119518333Y-83023413D01*
X119518333Y-83023413D02*
X119518333Y-81995318D01*
X120062618Y-83204842D02*
X120244047Y-83265318D01*
X120244047Y-83265318D02*
X120546428Y-83265318D01*
X120546428Y-83265318D02*
X120667380Y-83204842D01*
X120667380Y-83204842D02*
X120727856Y-83144365D01*
X120727856Y-83144365D02*
X120788333Y-83023413D01*
X120788333Y-83023413D02*
X120788333Y-82902461D01*
X120788333Y-82902461D02*
X120727856Y-82781508D01*
X120727856Y-82781508D02*
X120667380Y-82721032D01*
X120667380Y-82721032D02*
X120546428Y-82660556D01*
X120546428Y-82660556D02*
X120304523Y-82600080D01*
X120304523Y-82600080D02*
X120183571Y-82539603D01*
X120183571Y-82539603D02*
X120123094Y-82479127D01*
X120123094Y-82479127D02*
X120062618Y-82358175D01*
X120062618Y-82358175D02*
X120062618Y-82237222D01*
X120062618Y-82237222D02*
X120123094Y-82116270D01*
X120123094Y-82116270D02*
X120183571Y-82055794D01*
X120183571Y-82055794D02*
X120304523Y-81995318D01*
X120304523Y-81995318D02*
X120606904Y-81995318D01*
X120606904Y-81995318D02*
X120788333Y-82055794D01*
X121755952Y-82600080D02*
X121937380Y-82660556D01*
X121937380Y-82660556D02*
X121997857Y-82721032D01*
X121997857Y-82721032D02*
X122058333Y-82841984D01*
X122058333Y-82841984D02*
X122058333Y-83023413D01*
X122058333Y-83023413D02*
X121997857Y-83144365D01*
X121997857Y-83144365D02*
X121937380Y-83204842D01*
X121937380Y-83204842D02*
X121816428Y-83265318D01*
X121816428Y-83265318D02*
X121332618Y-83265318D01*
X121332618Y-83265318D02*
X121332618Y-81995318D01*
X121332618Y-81995318D02*
X121755952Y-81995318D01*
X121755952Y-81995318D02*
X121876904Y-82055794D01*
X121876904Y-82055794D02*
X121937380Y-82116270D01*
X121937380Y-82116270D02*
X121997857Y-82237222D01*
X121997857Y-82237222D02*
X121997857Y-82358175D01*
X121997857Y-82358175D02*
X121937380Y-82479127D01*
X121937380Y-82479127D02*
X121876904Y-82539603D01*
X121876904Y-82539603D02*
X121755952Y-82600080D01*
X121755952Y-82600080D02*
X121332618Y-82600080D01*
X123267857Y-83265318D02*
X122542142Y-83265318D01*
X122904999Y-83265318D02*
X122904999Y-81995318D01*
X122904999Y-81995318D02*
X122784047Y-82176746D01*
X122784047Y-82176746D02*
X122663095Y-82297699D01*
X122663095Y-82297699D02*
X122542142Y-82358175D01*
X137074318Y-45449285D02*
X136469556Y-45872619D01*
X137074318Y-46175000D02*
X135804318Y-46175000D01*
X135804318Y-46175000D02*
X135804318Y-45691190D01*
X135804318Y-45691190D02*
X135864794Y-45570238D01*
X135864794Y-45570238D02*
X135925270Y-45509761D01*
X135925270Y-45509761D02*
X136046222Y-45449285D01*
X136046222Y-45449285D02*
X136227651Y-45449285D01*
X136227651Y-45449285D02*
X136348603Y-45509761D01*
X136348603Y-45509761D02*
X136409080Y-45570238D01*
X136409080Y-45570238D02*
X136469556Y-45691190D01*
X136469556Y-45691190D02*
X136469556Y-46175000D01*
X136409080Y-44905000D02*
X136409080Y-44481666D01*
X137074318Y-44300238D02*
X137074318Y-44905000D01*
X137074318Y-44905000D02*
X135804318Y-44905000D01*
X135804318Y-44905000D02*
X135804318Y-44300238D01*
X137013842Y-43816428D02*
X137074318Y-43634999D01*
X137074318Y-43634999D02*
X137074318Y-43332618D01*
X137074318Y-43332618D02*
X137013842Y-43211666D01*
X137013842Y-43211666D02*
X136953365Y-43151190D01*
X136953365Y-43151190D02*
X136832413Y-43090713D01*
X136832413Y-43090713D02*
X136711461Y-43090713D01*
X136711461Y-43090713D02*
X136590508Y-43151190D01*
X136590508Y-43151190D02*
X136530032Y-43211666D01*
X136530032Y-43211666D02*
X136469556Y-43332618D01*
X136469556Y-43332618D02*
X136409080Y-43574523D01*
X136409080Y-43574523D02*
X136348603Y-43695475D01*
X136348603Y-43695475D02*
X136288127Y-43755952D01*
X136288127Y-43755952D02*
X136167175Y-43816428D01*
X136167175Y-43816428D02*
X136046222Y-43816428D01*
X136046222Y-43816428D02*
X135925270Y-43755952D01*
X135925270Y-43755952D02*
X135864794Y-43695475D01*
X135864794Y-43695475D02*
X135804318Y-43574523D01*
X135804318Y-43574523D02*
X135804318Y-43272142D01*
X135804318Y-43272142D02*
X135864794Y-43090713D01*
X136409080Y-42546428D02*
X136409080Y-42123094D01*
X137074318Y-41941666D02*
X137074318Y-42546428D01*
X137074318Y-42546428D02*
X135804318Y-42546428D01*
X135804318Y-42546428D02*
X135804318Y-41941666D01*
X135804318Y-41578808D02*
X135804318Y-40853094D01*
X137074318Y-41215951D02*
X135804318Y-41215951D01*
X137074318Y-39764522D02*
X137074318Y-40490237D01*
X137074318Y-40127380D02*
X135804318Y-40127380D01*
X135804318Y-40127380D02*
X135985746Y-40248332D01*
X135985746Y-40248332D02*
X136106699Y-40369284D01*
X136106699Y-40369284D02*
X136167175Y-40490237D01*
D11*
X115257142Y-73284819D02*
X114923809Y-72808628D01*
X114685714Y-73284819D02*
X114685714Y-72284819D01*
X114685714Y-72284819D02*
X115066666Y-72284819D01*
X115066666Y-72284819D02*
X115161904Y-72332438D01*
X115161904Y-72332438D02*
X115209523Y-72380057D01*
X115209523Y-72380057D02*
X115257142Y-72475295D01*
X115257142Y-72475295D02*
X115257142Y-72618152D01*
X115257142Y-72618152D02*
X115209523Y-72713390D01*
X115209523Y-72713390D02*
X115161904Y-72761009D01*
X115161904Y-72761009D02*
X115066666Y-72808628D01*
X115066666Y-72808628D02*
X114685714Y-72808628D01*
X115638095Y-72380057D02*
X115685714Y-72332438D01*
X115685714Y-72332438D02*
X115780952Y-72284819D01*
X115780952Y-72284819D02*
X116019047Y-72284819D01*
X116019047Y-72284819D02*
X116114285Y-72332438D01*
X116114285Y-72332438D02*
X116161904Y-72380057D01*
X116161904Y-72380057D02*
X116209523Y-72475295D01*
X116209523Y-72475295D02*
X116209523Y-72570533D01*
X116209523Y-72570533D02*
X116161904Y-72713390D01*
X116161904Y-72713390D02*
X115590476Y-73284819D01*
X115590476Y-73284819D02*
X116209523Y-73284819D01*
X116780952Y-72713390D02*
X116685714Y-72665771D01*
X116685714Y-72665771D02*
X116638095Y-72618152D01*
X116638095Y-72618152D02*
X116590476Y-72522914D01*
X116590476Y-72522914D02*
X116590476Y-72475295D01*
X116590476Y-72475295D02*
X116638095Y-72380057D01*
X116638095Y-72380057D02*
X116685714Y-72332438D01*
X116685714Y-72332438D02*
X116780952Y-72284819D01*
X116780952Y-72284819D02*
X116971428Y-72284819D01*
X116971428Y-72284819D02*
X117066666Y-72332438D01*
X117066666Y-72332438D02*
X117114285Y-72380057D01*
X117114285Y-72380057D02*
X117161904Y-72475295D01*
X117161904Y-72475295D02*
X117161904Y-72522914D01*
X117161904Y-72522914D02*
X117114285Y-72618152D01*
X117114285Y-72618152D02*
X117066666Y-72665771D01*
X117066666Y-72665771D02*
X116971428Y-72713390D01*
X116971428Y-72713390D02*
X116780952Y-72713390D01*
X116780952Y-72713390D02*
X116685714Y-72761009D01*
X116685714Y-72761009D02*
X116638095Y-72808628D01*
X116638095Y-72808628D02*
X116590476Y-72903866D01*
X116590476Y-72903866D02*
X116590476Y-73094342D01*
X116590476Y-73094342D02*
X116638095Y-73189580D01*
X116638095Y-73189580D02*
X116685714Y-73237200D01*
X116685714Y-73237200D02*
X116780952Y-73284819D01*
X116780952Y-73284819D02*
X116971428Y-73284819D01*
X116971428Y-73284819D02*
X117066666Y-73237200D01*
X117066666Y-73237200D02*
X117114285Y-73189580D01*
X117114285Y-73189580D02*
X117161904Y-73094342D01*
X117161904Y-73094342D02*
X117161904Y-72903866D01*
X117161904Y-72903866D02*
X117114285Y-72808628D01*
X117114285Y-72808628D02*
X117066666Y-72761009D01*
X117066666Y-72761009D02*
X116971428Y-72713390D01*
D10*
X108957856Y-73574318D02*
X108957856Y-72304318D01*
X108957856Y-72304318D02*
X109441666Y-72304318D01*
X109441666Y-72304318D02*
X109562618Y-72364794D01*
X109562618Y-72364794D02*
X109623095Y-72425270D01*
X109623095Y-72425270D02*
X109683571Y-72546222D01*
X109683571Y-72546222D02*
X109683571Y-72727651D01*
X109683571Y-72727651D02*
X109623095Y-72848603D01*
X109623095Y-72848603D02*
X109562618Y-72909080D01*
X109562618Y-72909080D02*
X109441666Y-72969556D01*
X109441666Y-72969556D02*
X108957856Y-72969556D01*
X110167380Y-73513842D02*
X110348809Y-73574318D01*
X110348809Y-73574318D02*
X110651190Y-73574318D01*
X110651190Y-73574318D02*
X110772142Y-73513842D01*
X110772142Y-73513842D02*
X110832618Y-73453365D01*
X110832618Y-73453365D02*
X110893095Y-73332413D01*
X110893095Y-73332413D02*
X110893095Y-73211461D01*
X110893095Y-73211461D02*
X110832618Y-73090508D01*
X110832618Y-73090508D02*
X110772142Y-73030032D01*
X110772142Y-73030032D02*
X110651190Y-72969556D01*
X110651190Y-72969556D02*
X110409285Y-72909080D01*
X110409285Y-72909080D02*
X110288333Y-72848603D01*
X110288333Y-72848603D02*
X110227856Y-72788127D01*
X110227856Y-72788127D02*
X110167380Y-72667175D01*
X110167380Y-72667175D02*
X110167380Y-72546222D01*
X110167380Y-72546222D02*
X110227856Y-72425270D01*
X110227856Y-72425270D02*
X110288333Y-72364794D01*
X110288333Y-72364794D02*
X110409285Y-72304318D01*
X110409285Y-72304318D02*
X110711666Y-72304318D01*
X110711666Y-72304318D02*
X110893095Y-72364794D01*
X112102619Y-73574318D02*
X111376904Y-73574318D01*
X111739761Y-73574318D02*
X111739761Y-72304318D01*
X111739761Y-72304318D02*
X111618809Y-72485746D01*
X111618809Y-72485746D02*
X111497857Y-72606699D01*
X111497857Y-72606699D02*
X111376904Y-72667175D01*
X135874318Y-51663095D02*
X134604318Y-51663095D01*
X134604318Y-51663095D02*
X135511461Y-51239761D01*
X135511461Y-51239761D02*
X134604318Y-50816428D01*
X134604318Y-50816428D02*
X135874318Y-50816428D01*
X135874318Y-50211666D02*
X134604318Y-50211666D01*
X134604318Y-50211666D02*
X134604318Y-49909285D01*
X134604318Y-49909285D02*
X134664794Y-49727856D01*
X134664794Y-49727856D02*
X134785746Y-49606904D01*
X134785746Y-49606904D02*
X134906699Y-49546427D01*
X134906699Y-49546427D02*
X135148603Y-49485951D01*
X135148603Y-49485951D02*
X135330032Y-49485951D01*
X135330032Y-49485951D02*
X135571937Y-49546427D01*
X135571937Y-49546427D02*
X135692889Y-49606904D01*
X135692889Y-49606904D02*
X135813842Y-49727856D01*
X135813842Y-49727856D02*
X135874318Y-49909285D01*
X135874318Y-49909285D02*
X135874318Y-50211666D01*
X135874318Y-48276427D02*
X135874318Y-49002142D01*
X135874318Y-48639285D02*
X134604318Y-48639285D01*
X134604318Y-48639285D02*
X134785746Y-48760237D01*
X134785746Y-48760237D02*
X134906699Y-48881189D01*
X134906699Y-48881189D02*
X134967175Y-49002142D01*
X137774318Y-79921190D02*
X137774318Y-80525952D01*
X137774318Y-80525952D02*
X136504318Y-80525952D01*
X137109080Y-79497857D02*
X137109080Y-79074523D01*
X137774318Y-78893095D02*
X137774318Y-79497857D01*
X137774318Y-79497857D02*
X136504318Y-79497857D01*
X136504318Y-79497857D02*
X136504318Y-78893095D01*
X137774318Y-78348809D02*
X136504318Y-78348809D01*
X136504318Y-78348809D02*
X136504318Y-78046428D01*
X136504318Y-78046428D02*
X136564794Y-77864999D01*
X136564794Y-77864999D02*
X136685746Y-77744047D01*
X136685746Y-77744047D02*
X136806699Y-77683570D01*
X136806699Y-77683570D02*
X137048603Y-77623094D01*
X137048603Y-77623094D02*
X137230032Y-77623094D01*
X137230032Y-77623094D02*
X137471937Y-77683570D01*
X137471937Y-77683570D02*
X137592889Y-77744047D01*
X137592889Y-77744047D02*
X137713842Y-77864999D01*
X137713842Y-77864999D02*
X137774318Y-78046428D01*
X137774318Y-78046428D02*
X137774318Y-78348809D01*
X137774318Y-76413570D02*
X137774318Y-77139285D01*
X137774318Y-76776428D02*
X136504318Y-76776428D01*
X136504318Y-76776428D02*
X136685746Y-76897380D01*
X136685746Y-76897380D02*
X136806699Y-77018332D01*
X136806699Y-77018332D02*
X136867175Y-77139285D01*
X111088095Y-81074318D02*
X110483333Y-81074318D01*
X110483333Y-81074318D02*
X110483333Y-79804318D01*
X111511428Y-81074318D02*
X111511428Y-79804318D01*
X111511428Y-79804318D02*
X111813809Y-79804318D01*
X111813809Y-79804318D02*
X111995238Y-79864794D01*
X111995238Y-79864794D02*
X112116190Y-79985746D01*
X112116190Y-79985746D02*
X112176667Y-80106699D01*
X112176667Y-80106699D02*
X112237143Y-80348603D01*
X112237143Y-80348603D02*
X112237143Y-80530032D01*
X112237143Y-80530032D02*
X112176667Y-80771937D01*
X112176667Y-80771937D02*
X112116190Y-80892889D01*
X112116190Y-80892889D02*
X111995238Y-81013842D01*
X111995238Y-81013842D02*
X111813809Y-81074318D01*
X111813809Y-81074318D02*
X111511428Y-81074318D01*
X113023333Y-79804318D02*
X113265238Y-79804318D01*
X113265238Y-79804318D02*
X113386190Y-79864794D01*
X113386190Y-79864794D02*
X113507143Y-79985746D01*
X113507143Y-79985746D02*
X113567619Y-80227651D01*
X113567619Y-80227651D02*
X113567619Y-80650984D01*
X113567619Y-80650984D02*
X113507143Y-80892889D01*
X113507143Y-80892889D02*
X113386190Y-81013842D01*
X113386190Y-81013842D02*
X113265238Y-81074318D01*
X113265238Y-81074318D02*
X113023333Y-81074318D01*
X113023333Y-81074318D02*
X112902381Y-81013842D01*
X112902381Y-81013842D02*
X112781428Y-80892889D01*
X112781428Y-80892889D02*
X112720952Y-80650984D01*
X112720952Y-80650984D02*
X112720952Y-80227651D01*
X112720952Y-80227651D02*
X112781428Y-79985746D01*
X112781428Y-79985746D02*
X112902381Y-79864794D01*
X112902381Y-79864794D02*
X113023333Y-79804318D01*
X114777143Y-81074318D02*
X114051428Y-81074318D01*
X114414285Y-81074318D02*
X114414285Y-79804318D01*
X114414285Y-79804318D02*
X114293333Y-79985746D01*
X114293333Y-79985746D02*
X114172381Y-80106699D01*
X114172381Y-80106699D02*
X114051428Y-80167175D01*
X118760237Y-49024318D02*
X118760237Y-47754318D01*
X120090714Y-48903365D02*
X120030238Y-48963842D01*
X120030238Y-48963842D02*
X119848809Y-49024318D01*
X119848809Y-49024318D02*
X119727857Y-49024318D01*
X119727857Y-49024318D02*
X119546428Y-48963842D01*
X119546428Y-48963842D02*
X119425476Y-48842889D01*
X119425476Y-48842889D02*
X119364999Y-48721937D01*
X119364999Y-48721937D02*
X119304523Y-48480032D01*
X119304523Y-48480032D02*
X119304523Y-48298603D01*
X119304523Y-48298603D02*
X119364999Y-48056699D01*
X119364999Y-48056699D02*
X119425476Y-47935746D01*
X119425476Y-47935746D02*
X119546428Y-47814794D01*
X119546428Y-47814794D02*
X119727857Y-47754318D01*
X119727857Y-47754318D02*
X119848809Y-47754318D01*
X119848809Y-47754318D02*
X120030238Y-47814794D01*
X120030238Y-47814794D02*
X120090714Y-47875270D01*
X120816428Y-48298603D02*
X120695476Y-48238127D01*
X120695476Y-48238127D02*
X120634999Y-48177651D01*
X120634999Y-48177651D02*
X120574523Y-48056699D01*
X120574523Y-48056699D02*
X120574523Y-47996222D01*
X120574523Y-47996222D02*
X120634999Y-47875270D01*
X120634999Y-47875270D02*
X120695476Y-47814794D01*
X120695476Y-47814794D02*
X120816428Y-47754318D01*
X120816428Y-47754318D02*
X121058333Y-47754318D01*
X121058333Y-47754318D02*
X121179285Y-47814794D01*
X121179285Y-47814794D02*
X121239761Y-47875270D01*
X121239761Y-47875270D02*
X121300238Y-47996222D01*
X121300238Y-47996222D02*
X121300238Y-48056699D01*
X121300238Y-48056699D02*
X121239761Y-48177651D01*
X121239761Y-48177651D02*
X121179285Y-48238127D01*
X121179285Y-48238127D02*
X121058333Y-48298603D01*
X121058333Y-48298603D02*
X120816428Y-48298603D01*
X120816428Y-48298603D02*
X120695476Y-48359080D01*
X120695476Y-48359080D02*
X120634999Y-48419556D01*
X120634999Y-48419556D02*
X120574523Y-48540508D01*
X120574523Y-48540508D02*
X120574523Y-48782413D01*
X120574523Y-48782413D02*
X120634999Y-48903365D01*
X120634999Y-48903365D02*
X120695476Y-48963842D01*
X120695476Y-48963842D02*
X120816428Y-49024318D01*
X120816428Y-49024318D02*
X121058333Y-49024318D01*
X121058333Y-49024318D02*
X121179285Y-48963842D01*
X121179285Y-48963842D02*
X121239761Y-48903365D01*
X121239761Y-48903365D02*
X121300238Y-48782413D01*
X121300238Y-48782413D02*
X121300238Y-48540508D01*
X121300238Y-48540508D02*
X121239761Y-48419556D01*
X121239761Y-48419556D02*
X121179285Y-48359080D01*
X121179285Y-48359080D02*
X121058333Y-48298603D01*
X112774318Y-68388809D02*
X111504318Y-68388809D01*
X111625270Y-67844523D02*
X111564794Y-67784047D01*
X111564794Y-67784047D02*
X111504318Y-67663094D01*
X111504318Y-67663094D02*
X111504318Y-67360713D01*
X111504318Y-67360713D02*
X111564794Y-67239761D01*
X111564794Y-67239761D02*
X111625270Y-67179285D01*
X111625270Y-67179285D02*
X111746222Y-67118808D01*
X111746222Y-67118808D02*
X111867175Y-67118808D01*
X111867175Y-67118808D02*
X112048603Y-67179285D01*
X112048603Y-67179285D02*
X112774318Y-67904999D01*
X112774318Y-67904999D02*
X112774318Y-67118808D01*
X112653365Y-65848808D02*
X112713842Y-65909284D01*
X112713842Y-65909284D02*
X112774318Y-66090713D01*
X112774318Y-66090713D02*
X112774318Y-66211665D01*
X112774318Y-66211665D02*
X112713842Y-66393094D01*
X112713842Y-66393094D02*
X112592889Y-66514046D01*
X112592889Y-66514046D02*
X112471937Y-66574523D01*
X112471937Y-66574523D02*
X112230032Y-66634999D01*
X112230032Y-66634999D02*
X112048603Y-66634999D01*
X112048603Y-66634999D02*
X111806699Y-66574523D01*
X111806699Y-66574523D02*
X111685746Y-66514046D01*
X111685746Y-66514046D02*
X111564794Y-66393094D01*
X111564794Y-66393094D02*
X111504318Y-66211665D01*
X111504318Y-66211665D02*
X111504318Y-66090713D01*
X111504318Y-66090713D02*
X111564794Y-65909284D01*
X111564794Y-65909284D02*
X111625270Y-65848808D01*
X112713842Y-64820713D02*
X112774318Y-64941665D01*
X112774318Y-64941665D02*
X112774318Y-65183570D01*
X112774318Y-65183570D02*
X112713842Y-65304523D01*
X112713842Y-65304523D02*
X112592889Y-65364999D01*
X112592889Y-65364999D02*
X112109080Y-65364999D01*
X112109080Y-65364999D02*
X111988127Y-65304523D01*
X111988127Y-65304523D02*
X111927651Y-65183570D01*
X111927651Y-65183570D02*
X111927651Y-64941665D01*
X111927651Y-64941665D02*
X111988127Y-64820713D01*
X111988127Y-64820713D02*
X112109080Y-64760237D01*
X112109080Y-64760237D02*
X112230032Y-64760237D01*
X112230032Y-64760237D02*
X112350984Y-65364999D01*
X112774318Y-63550713D02*
X112774318Y-64276428D01*
X112774318Y-63913571D02*
X111504318Y-63913571D01*
X111504318Y-63913571D02*
X111685746Y-64034523D01*
X111685746Y-64034523D02*
X111806699Y-64155475D01*
X111806699Y-64155475D02*
X111867175Y-64276428D01*
X119283332Y-77509080D02*
X119706666Y-77509080D01*
X119888094Y-78174318D02*
X119283332Y-78174318D01*
X119283332Y-78174318D02*
X119283332Y-76904318D01*
X119283332Y-76904318D02*
X119888094Y-76904318D01*
X120371904Y-78113842D02*
X120553333Y-78174318D01*
X120553333Y-78174318D02*
X120855714Y-78174318D01*
X120855714Y-78174318D02*
X120976666Y-78113842D01*
X120976666Y-78113842D02*
X121037142Y-78053365D01*
X121037142Y-78053365D02*
X121097619Y-77932413D01*
X121097619Y-77932413D02*
X121097619Y-77811461D01*
X121097619Y-77811461D02*
X121037142Y-77690508D01*
X121037142Y-77690508D02*
X120976666Y-77630032D01*
X120976666Y-77630032D02*
X120855714Y-77569556D01*
X120855714Y-77569556D02*
X120613809Y-77509080D01*
X120613809Y-77509080D02*
X120492857Y-77448603D01*
X120492857Y-77448603D02*
X120432380Y-77388127D01*
X120432380Y-77388127D02*
X120371904Y-77267175D01*
X120371904Y-77267175D02*
X120371904Y-77146222D01*
X120371904Y-77146222D02*
X120432380Y-77025270D01*
X120432380Y-77025270D02*
X120492857Y-76964794D01*
X120492857Y-76964794D02*
X120613809Y-76904318D01*
X120613809Y-76904318D02*
X120916190Y-76904318D01*
X120916190Y-76904318D02*
X121097619Y-76964794D01*
X121641904Y-78174318D02*
X121641904Y-76904318D01*
X121641904Y-76904318D02*
X121944285Y-76904318D01*
X121944285Y-76904318D02*
X122125714Y-76964794D01*
X122125714Y-76964794D02*
X122246666Y-77085746D01*
X122246666Y-77085746D02*
X122307143Y-77206699D01*
X122307143Y-77206699D02*
X122367619Y-77448603D01*
X122367619Y-77448603D02*
X122367619Y-77630032D01*
X122367619Y-77630032D02*
X122307143Y-77871937D01*
X122307143Y-77871937D02*
X122246666Y-77992889D01*
X122246666Y-77992889D02*
X122125714Y-78113842D01*
X122125714Y-78113842D02*
X121944285Y-78174318D01*
X121944285Y-78174318D02*
X121641904Y-78174318D01*
X123577143Y-78174318D02*
X122851428Y-78174318D01*
X123214285Y-78174318D02*
X123214285Y-76904318D01*
X123214285Y-76904318D02*
X123093333Y-77085746D01*
X123093333Y-77085746D02*
X122972381Y-77206699D01*
X122972381Y-77206699D02*
X122851428Y-77267175D01*
X104971667Y-39209080D02*
X105153095Y-39269556D01*
X105153095Y-39269556D02*
X105213572Y-39330032D01*
X105213572Y-39330032D02*
X105274048Y-39450984D01*
X105274048Y-39450984D02*
X105274048Y-39632413D01*
X105274048Y-39632413D02*
X105213572Y-39753365D01*
X105213572Y-39753365D02*
X105153095Y-39813842D01*
X105153095Y-39813842D02*
X105032143Y-39874318D01*
X105032143Y-39874318D02*
X104548333Y-39874318D01*
X104548333Y-39874318D02*
X104548333Y-38604318D01*
X104548333Y-38604318D02*
X104971667Y-38604318D01*
X104971667Y-38604318D02*
X105092619Y-38664794D01*
X105092619Y-38664794D02*
X105153095Y-38725270D01*
X105153095Y-38725270D02*
X105213572Y-38846222D01*
X105213572Y-38846222D02*
X105213572Y-38967175D01*
X105213572Y-38967175D02*
X105153095Y-39088127D01*
X105153095Y-39088127D02*
X105092619Y-39148603D01*
X105092619Y-39148603D02*
X104971667Y-39209080D01*
X104971667Y-39209080D02*
X104548333Y-39209080D01*
X106060238Y-38604318D02*
X106302143Y-38604318D01*
X106302143Y-38604318D02*
X106423095Y-38664794D01*
X106423095Y-38664794D02*
X106544048Y-38785746D01*
X106544048Y-38785746D02*
X106604524Y-39027651D01*
X106604524Y-39027651D02*
X106604524Y-39450984D01*
X106604524Y-39450984D02*
X106544048Y-39692889D01*
X106544048Y-39692889D02*
X106423095Y-39813842D01*
X106423095Y-39813842D02*
X106302143Y-39874318D01*
X106302143Y-39874318D02*
X106060238Y-39874318D01*
X106060238Y-39874318D02*
X105939286Y-39813842D01*
X105939286Y-39813842D02*
X105818333Y-39692889D01*
X105818333Y-39692889D02*
X105757857Y-39450984D01*
X105757857Y-39450984D02*
X105757857Y-39027651D01*
X105757857Y-39027651D02*
X105818333Y-38785746D01*
X105818333Y-38785746D02*
X105939286Y-38664794D01*
X105939286Y-38664794D02*
X106060238Y-38604318D01*
X107390714Y-38604318D02*
X107632619Y-38604318D01*
X107632619Y-38604318D02*
X107753571Y-38664794D01*
X107753571Y-38664794D02*
X107874524Y-38785746D01*
X107874524Y-38785746D02*
X107935000Y-39027651D01*
X107935000Y-39027651D02*
X107935000Y-39450984D01*
X107935000Y-39450984D02*
X107874524Y-39692889D01*
X107874524Y-39692889D02*
X107753571Y-39813842D01*
X107753571Y-39813842D02*
X107632619Y-39874318D01*
X107632619Y-39874318D02*
X107390714Y-39874318D01*
X107390714Y-39874318D02*
X107269762Y-39813842D01*
X107269762Y-39813842D02*
X107148809Y-39692889D01*
X107148809Y-39692889D02*
X107088333Y-39450984D01*
X107088333Y-39450984D02*
X107088333Y-39027651D01*
X107088333Y-39027651D02*
X107148809Y-38785746D01*
X107148809Y-38785746D02*
X107269762Y-38664794D01*
X107269762Y-38664794D02*
X107390714Y-38604318D01*
X108297857Y-38604318D02*
X109023571Y-38604318D01*
X108660714Y-39874318D02*
X108660714Y-38604318D01*
X110112143Y-39874318D02*
X109386428Y-39874318D01*
X109749285Y-39874318D02*
X109749285Y-38604318D01*
X109749285Y-38604318D02*
X109628333Y-38785746D01*
X109628333Y-38785746D02*
X109507381Y-38906699D01*
X109507381Y-38906699D02*
X109386428Y-38967175D01*
X133310238Y-55909080D02*
X133491666Y-55969556D01*
X133491666Y-55969556D02*
X133552143Y-56030032D01*
X133552143Y-56030032D02*
X133612619Y-56150984D01*
X133612619Y-56150984D02*
X133612619Y-56332413D01*
X133612619Y-56332413D02*
X133552143Y-56453365D01*
X133552143Y-56453365D02*
X133491666Y-56513842D01*
X133491666Y-56513842D02*
X133370714Y-56574318D01*
X133370714Y-56574318D02*
X132886904Y-56574318D01*
X132886904Y-56574318D02*
X132886904Y-55304318D01*
X132886904Y-55304318D02*
X133310238Y-55304318D01*
X133310238Y-55304318D02*
X133431190Y-55364794D01*
X133431190Y-55364794D02*
X133491666Y-55425270D01*
X133491666Y-55425270D02*
X133552143Y-55546222D01*
X133552143Y-55546222D02*
X133552143Y-55667175D01*
X133552143Y-55667175D02*
X133491666Y-55788127D01*
X133491666Y-55788127D02*
X133431190Y-55848603D01*
X133431190Y-55848603D02*
X133310238Y-55909080D01*
X133310238Y-55909080D02*
X132886904Y-55909080D01*
X134156904Y-56574318D02*
X134156904Y-55304318D01*
X134156904Y-55304318D02*
X134580238Y-56211461D01*
X134580238Y-56211461D02*
X135003571Y-55304318D01*
X135003571Y-55304318D02*
X135003571Y-56574318D01*
X136273572Y-56574318D02*
X135547857Y-56574318D01*
X135910714Y-56574318D02*
X135910714Y-55304318D01*
X135910714Y-55304318D02*
X135789762Y-55485746D01*
X135789762Y-55485746D02*
X135668810Y-55606699D01*
X135668810Y-55606699D02*
X135547857Y-55667175D01*
X131250952Y-77109080D02*
X131432380Y-77169556D01*
X131432380Y-77169556D02*
X131492857Y-77230032D01*
X131492857Y-77230032D02*
X131553333Y-77350984D01*
X131553333Y-77350984D02*
X131553333Y-77532413D01*
X131553333Y-77532413D02*
X131492857Y-77653365D01*
X131492857Y-77653365D02*
X131432380Y-77713842D01*
X131432380Y-77713842D02*
X131311428Y-77774318D01*
X131311428Y-77774318D02*
X130827618Y-77774318D01*
X130827618Y-77774318D02*
X130827618Y-76504318D01*
X130827618Y-76504318D02*
X131250952Y-76504318D01*
X131250952Y-76504318D02*
X131371904Y-76564794D01*
X131371904Y-76564794D02*
X131432380Y-76625270D01*
X131432380Y-76625270D02*
X131492857Y-76746222D01*
X131492857Y-76746222D02*
X131492857Y-76867175D01*
X131492857Y-76867175D02*
X131432380Y-76988127D01*
X131432380Y-76988127D02*
X131371904Y-77048603D01*
X131371904Y-77048603D02*
X131250952Y-77109080D01*
X131250952Y-77109080D02*
X130827618Y-77109080D01*
X132823333Y-77653365D02*
X132762857Y-77713842D01*
X132762857Y-77713842D02*
X132581428Y-77774318D01*
X132581428Y-77774318D02*
X132460476Y-77774318D01*
X132460476Y-77774318D02*
X132279047Y-77713842D01*
X132279047Y-77713842D02*
X132158095Y-77592889D01*
X132158095Y-77592889D02*
X132097618Y-77471937D01*
X132097618Y-77471937D02*
X132037142Y-77230032D01*
X132037142Y-77230032D02*
X132037142Y-77048603D01*
X132037142Y-77048603D02*
X132097618Y-76806699D01*
X132097618Y-76806699D02*
X132158095Y-76685746D01*
X132158095Y-76685746D02*
X132279047Y-76564794D01*
X132279047Y-76564794D02*
X132460476Y-76504318D01*
X132460476Y-76504318D02*
X132581428Y-76504318D01*
X132581428Y-76504318D02*
X132762857Y-76564794D01*
X132762857Y-76564794D02*
X132823333Y-76625270D01*
X134032857Y-77774318D02*
X133307142Y-77774318D01*
X133669999Y-77774318D02*
X133669999Y-76504318D01*
X133669999Y-76504318D02*
X133549047Y-76685746D01*
X133549047Y-76685746D02*
X133428095Y-76806699D01*
X133428095Y-76806699D02*
X133307142Y-76867175D01*
D12*
X117261904Y-35090200D02*
X117119047Y-35042580D01*
X117119047Y-35042580D02*
X116880952Y-35042580D01*
X116880952Y-35042580D02*
X116785714Y-35090200D01*
X116785714Y-35090200D02*
X116738095Y-35137819D01*
X116738095Y-35137819D02*
X116690476Y-35233057D01*
X116690476Y-35233057D02*
X116690476Y-35328295D01*
X116690476Y-35328295D02*
X116738095Y-35423533D01*
X116738095Y-35423533D02*
X116785714Y-35471152D01*
X116785714Y-35471152D02*
X116880952Y-35518771D01*
X116880952Y-35518771D02*
X117071428Y-35566390D01*
X117071428Y-35566390D02*
X117166666Y-35614009D01*
X117166666Y-35614009D02*
X117214285Y-35661628D01*
X117214285Y-35661628D02*
X117261904Y-35756866D01*
X117261904Y-35756866D02*
X117261904Y-35852104D01*
X117261904Y-35852104D02*
X117214285Y-35947342D01*
X117214285Y-35947342D02*
X117166666Y-35994961D01*
X117166666Y-35994961D02*
X117071428Y-36042580D01*
X117071428Y-36042580D02*
X116833333Y-36042580D01*
X116833333Y-36042580D02*
X116690476Y-35994961D01*
X115690476Y-35137819D02*
X115738095Y-35090200D01*
X115738095Y-35090200D02*
X115880952Y-35042580D01*
X115880952Y-35042580D02*
X115976190Y-35042580D01*
X115976190Y-35042580D02*
X116119047Y-35090200D01*
X116119047Y-35090200D02*
X116214285Y-35185438D01*
X116214285Y-35185438D02*
X116261904Y-35280676D01*
X116261904Y-35280676D02*
X116309523Y-35471152D01*
X116309523Y-35471152D02*
X116309523Y-35614009D01*
X116309523Y-35614009D02*
X116261904Y-35804485D01*
X116261904Y-35804485D02*
X116214285Y-35899723D01*
X116214285Y-35899723D02*
X116119047Y-35994961D01*
X116119047Y-35994961D02*
X115976190Y-36042580D01*
X115976190Y-36042580D02*
X115880952Y-36042580D01*
X115880952Y-36042580D02*
X115738095Y-35994961D01*
X115738095Y-35994961D02*
X115690476Y-35947342D01*
X115357142Y-36042580D02*
X114690476Y-36042580D01*
X114690476Y-36042580D02*
X115119047Y-35042580D01*
X114380951Y-31042580D02*
X114380951Y-32042580D01*
X113904761Y-31042580D02*
X113904761Y-32042580D01*
X113904761Y-32042580D02*
X113333333Y-31042580D01*
X113333333Y-31042580D02*
X113333333Y-32042580D01*
X112999999Y-32042580D02*
X112428571Y-32042580D01*
X112714285Y-31042580D02*
X112714285Y-32042580D01*
X112190475Y-32042580D02*
X111523809Y-32042580D01*
X111523809Y-32042580D02*
X111952380Y-31042580D01*
X138505038Y-73738095D02*
X138457419Y-73833333D01*
X138457419Y-73833333D02*
X138457419Y-73976190D01*
X138457419Y-73976190D02*
X138505038Y-74119047D01*
X138505038Y-74119047D02*
X138600276Y-74214285D01*
X138600276Y-74214285D02*
X138695514Y-74261904D01*
X138695514Y-74261904D02*
X138885990Y-74309523D01*
X138885990Y-74309523D02*
X139028847Y-74309523D01*
X139028847Y-74309523D02*
X139219323Y-74261904D01*
X139219323Y-74261904D02*
X139314561Y-74214285D01*
X139314561Y-74214285D02*
X139409800Y-74119047D01*
X139409800Y-74119047D02*
X139457419Y-73976190D01*
X139457419Y-73976190D02*
X139457419Y-73880952D01*
X139457419Y-73880952D02*
X139409800Y-73738095D01*
X139409800Y-73738095D02*
X139362180Y-73690476D01*
X139362180Y-73690476D02*
X139028847Y-73690476D01*
X139028847Y-73690476D02*
X139028847Y-73880952D01*
X139457419Y-73261904D02*
X138457419Y-73261904D01*
X138457419Y-73261904D02*
X139457419Y-72690476D01*
X139457419Y-72690476D02*
X138457419Y-72690476D01*
X138457419Y-71738095D02*
X138457419Y-72214285D01*
X138457419Y-72214285D02*
X138933609Y-72261904D01*
X138933609Y-72261904D02*
X138885990Y-72214285D01*
X138885990Y-72214285D02*
X138838371Y-72119047D01*
X138838371Y-72119047D02*
X138838371Y-71880952D01*
X138838371Y-71880952D02*
X138885990Y-71785714D01*
X138885990Y-71785714D02*
X138933609Y-71738095D01*
X138933609Y-71738095D02*
X139028847Y-71690476D01*
X139028847Y-71690476D02*
X139266942Y-71690476D01*
X139266942Y-71690476D02*
X139362180Y-71738095D01*
X139362180Y-71738095D02*
X139409800Y-71785714D01*
X139409800Y-71785714D02*
X139457419Y-71880952D01*
X139457419Y-71880952D02*
X139457419Y-72119047D01*
X139457419Y-72119047D02*
X139409800Y-72214285D01*
X139409800Y-72214285D02*
X139362180Y-72261904D01*
D11*
X134657142Y-60154819D02*
X134323809Y-59678628D01*
X134085714Y-60154819D02*
X134085714Y-59154819D01*
X134085714Y-59154819D02*
X134466666Y-59154819D01*
X134466666Y-59154819D02*
X134561904Y-59202438D01*
X134561904Y-59202438D02*
X134609523Y-59250057D01*
X134609523Y-59250057D02*
X134657142Y-59345295D01*
X134657142Y-59345295D02*
X134657142Y-59488152D01*
X134657142Y-59488152D02*
X134609523Y-59583390D01*
X134609523Y-59583390D02*
X134561904Y-59631009D01*
X134561904Y-59631009D02*
X134466666Y-59678628D01*
X134466666Y-59678628D02*
X134085714Y-59678628D01*
X135038095Y-59250057D02*
X135085714Y-59202438D01*
X135085714Y-59202438D02*
X135180952Y-59154819D01*
X135180952Y-59154819D02*
X135419047Y-59154819D01*
X135419047Y-59154819D02*
X135514285Y-59202438D01*
X135514285Y-59202438D02*
X135561904Y-59250057D01*
X135561904Y-59250057D02*
X135609523Y-59345295D01*
X135609523Y-59345295D02*
X135609523Y-59440533D01*
X135609523Y-59440533D02*
X135561904Y-59583390D01*
X135561904Y-59583390D02*
X134990476Y-60154819D01*
X134990476Y-60154819D02*
X135609523Y-60154819D01*
X136466666Y-59154819D02*
X136276190Y-59154819D01*
X136276190Y-59154819D02*
X136180952Y-59202438D01*
X136180952Y-59202438D02*
X136133333Y-59250057D01*
X136133333Y-59250057D02*
X136038095Y-59392914D01*
X136038095Y-59392914D02*
X135990476Y-59583390D01*
X135990476Y-59583390D02*
X135990476Y-59964342D01*
X135990476Y-59964342D02*
X136038095Y-60059580D01*
X136038095Y-60059580D02*
X136085714Y-60107200D01*
X136085714Y-60107200D02*
X136180952Y-60154819D01*
X136180952Y-60154819D02*
X136371428Y-60154819D01*
X136371428Y-60154819D02*
X136466666Y-60107200D01*
X136466666Y-60107200D02*
X136514285Y-60059580D01*
X136514285Y-60059580D02*
X136561904Y-59964342D01*
X136561904Y-59964342D02*
X136561904Y-59726247D01*
X136561904Y-59726247D02*
X136514285Y-59631009D01*
X136514285Y-59631009D02*
X136466666Y-59583390D01*
X136466666Y-59583390D02*
X136371428Y-59535771D01*
X136371428Y-59535771D02*
X136180952Y-59535771D01*
X136180952Y-59535771D02*
X136085714Y-59583390D01*
X136085714Y-59583390D02*
X136038095Y-59631009D01*
X136038095Y-59631009D02*
X135990476Y-59726247D01*
X114933333Y-60854819D02*
X114600000Y-60378628D01*
X114361905Y-60854819D02*
X114361905Y-59854819D01*
X114361905Y-59854819D02*
X114742857Y-59854819D01*
X114742857Y-59854819D02*
X114838095Y-59902438D01*
X114838095Y-59902438D02*
X114885714Y-59950057D01*
X114885714Y-59950057D02*
X114933333Y-60045295D01*
X114933333Y-60045295D02*
X114933333Y-60188152D01*
X114933333Y-60188152D02*
X114885714Y-60283390D01*
X114885714Y-60283390D02*
X114838095Y-60331009D01*
X114838095Y-60331009D02*
X114742857Y-60378628D01*
X114742857Y-60378628D02*
X114361905Y-60378628D01*
X115790476Y-59854819D02*
X115600000Y-59854819D01*
X115600000Y-59854819D02*
X115504762Y-59902438D01*
X115504762Y-59902438D02*
X115457143Y-59950057D01*
X115457143Y-59950057D02*
X115361905Y-60092914D01*
X115361905Y-60092914D02*
X115314286Y-60283390D01*
X115314286Y-60283390D02*
X115314286Y-60664342D01*
X115314286Y-60664342D02*
X115361905Y-60759580D01*
X115361905Y-60759580D02*
X115409524Y-60807200D01*
X115409524Y-60807200D02*
X115504762Y-60854819D01*
X115504762Y-60854819D02*
X115695238Y-60854819D01*
X115695238Y-60854819D02*
X115790476Y-60807200D01*
X115790476Y-60807200D02*
X115838095Y-60759580D01*
X115838095Y-60759580D02*
X115885714Y-60664342D01*
X115885714Y-60664342D02*
X115885714Y-60426247D01*
X115885714Y-60426247D02*
X115838095Y-60331009D01*
X115838095Y-60331009D02*
X115790476Y-60283390D01*
X115790476Y-60283390D02*
X115695238Y-60235771D01*
X115695238Y-60235771D02*
X115504762Y-60235771D01*
X115504762Y-60235771D02*
X115409524Y-60283390D01*
X115409524Y-60283390D02*
X115361905Y-60331009D01*
X115361905Y-60331009D02*
X115314286Y-60426247D01*
X135633333Y-62454819D02*
X135157143Y-62454819D01*
X135157143Y-62454819D02*
X135157143Y-61454819D01*
X136490476Y-62454819D02*
X135919048Y-62454819D01*
X136204762Y-62454819D02*
X136204762Y-61454819D01*
X136204762Y-61454819D02*
X136109524Y-61597676D01*
X136109524Y-61597676D02*
X136014286Y-61692914D01*
X136014286Y-61692914D02*
X135919048Y-61740533D01*
X111239580Y-51917857D02*
X111287200Y-51965476D01*
X111287200Y-51965476D02*
X111334819Y-52108333D01*
X111334819Y-52108333D02*
X111334819Y-52203571D01*
X111334819Y-52203571D02*
X111287200Y-52346428D01*
X111287200Y-52346428D02*
X111191961Y-52441666D01*
X111191961Y-52441666D02*
X111096723Y-52489285D01*
X111096723Y-52489285D02*
X110906247Y-52536904D01*
X110906247Y-52536904D02*
X110763390Y-52536904D01*
X110763390Y-52536904D02*
X110572914Y-52489285D01*
X110572914Y-52489285D02*
X110477676Y-52441666D01*
X110477676Y-52441666D02*
X110382438Y-52346428D01*
X110382438Y-52346428D02*
X110334819Y-52203571D01*
X110334819Y-52203571D02*
X110334819Y-52108333D01*
X110334819Y-52108333D02*
X110382438Y-51965476D01*
X110382438Y-51965476D02*
X110430057Y-51917857D01*
X111334819Y-50965476D02*
X111334819Y-51536904D01*
X111334819Y-51251190D02*
X110334819Y-51251190D01*
X110334819Y-51251190D02*
X110477676Y-51346428D01*
X110477676Y-51346428D02*
X110572914Y-51441666D01*
X110572914Y-51441666D02*
X110620533Y-51536904D01*
X110430057Y-50584523D02*
X110382438Y-50536904D01*
X110382438Y-50536904D02*
X110334819Y-50441666D01*
X110334819Y-50441666D02*
X110334819Y-50203571D01*
X110334819Y-50203571D02*
X110382438Y-50108333D01*
X110382438Y-50108333D02*
X110430057Y-50060714D01*
X110430057Y-50060714D02*
X110525295Y-50013095D01*
X110525295Y-50013095D02*
X110620533Y-50013095D01*
X110620533Y-50013095D02*
X110763390Y-50060714D01*
X110763390Y-50060714D02*
X111334819Y-50632142D01*
X111334819Y-50632142D02*
X111334819Y-50013095D01*
X124954819Y-76642857D02*
X124478628Y-76976190D01*
X124954819Y-77214285D02*
X123954819Y-77214285D01*
X123954819Y-77214285D02*
X123954819Y-76833333D01*
X123954819Y-76833333D02*
X124002438Y-76738095D01*
X124002438Y-76738095D02*
X124050057Y-76690476D01*
X124050057Y-76690476D02*
X124145295Y-76642857D01*
X124145295Y-76642857D02*
X124288152Y-76642857D01*
X124288152Y-76642857D02*
X124383390Y-76690476D01*
X124383390Y-76690476D02*
X124431009Y-76738095D01*
X124431009Y-76738095D02*
X124478628Y-76833333D01*
X124478628Y-76833333D02*
X124478628Y-77214285D01*
X124050057Y-76261904D02*
X124002438Y-76214285D01*
X124002438Y-76214285D02*
X123954819Y-76119047D01*
X123954819Y-76119047D02*
X123954819Y-75880952D01*
X123954819Y-75880952D02*
X124002438Y-75785714D01*
X124002438Y-75785714D02*
X124050057Y-75738095D01*
X124050057Y-75738095D02*
X124145295Y-75690476D01*
X124145295Y-75690476D02*
X124240533Y-75690476D01*
X124240533Y-75690476D02*
X124383390Y-75738095D01*
X124383390Y-75738095D02*
X124954819Y-76309523D01*
X124954819Y-76309523D02*
X124954819Y-75690476D01*
X124050057Y-75309523D02*
X124002438Y-75261904D01*
X124002438Y-75261904D02*
X123954819Y-75166666D01*
X123954819Y-75166666D02*
X123954819Y-74928571D01*
X123954819Y-74928571D02*
X124002438Y-74833333D01*
X124002438Y-74833333D02*
X124050057Y-74785714D01*
X124050057Y-74785714D02*
X124145295Y-74738095D01*
X124145295Y-74738095D02*
X124240533Y-74738095D01*
X124240533Y-74738095D02*
X124383390Y-74785714D01*
X124383390Y-74785714D02*
X124954819Y-75357142D01*
X124954819Y-75357142D02*
X124954819Y-74738095D01*
D12*
X103042580Y-50261905D02*
X103042580Y-50880952D01*
X103042580Y-50880952D02*
X102661628Y-50547619D01*
X102661628Y-50547619D02*
X102661628Y-50690476D01*
X102661628Y-50690476D02*
X102614009Y-50785714D01*
X102614009Y-50785714D02*
X102566390Y-50833333D01*
X102566390Y-50833333D02*
X102471152Y-50880952D01*
X102471152Y-50880952D02*
X102233057Y-50880952D01*
X102233057Y-50880952D02*
X102137819Y-50833333D01*
X102137819Y-50833333D02*
X102090200Y-50785714D01*
X102090200Y-50785714D02*
X102042580Y-50690476D01*
X102042580Y-50690476D02*
X102042580Y-50404762D01*
X102042580Y-50404762D02*
X102090200Y-50309524D01*
X102090200Y-50309524D02*
X102137819Y-50261905D01*
X103042580Y-51166667D02*
X102042580Y-51500000D01*
X102042580Y-51500000D02*
X103042580Y-51833333D01*
X102042580Y-52690476D02*
X102042580Y-52119048D01*
X102042580Y-52404762D02*
X103042580Y-52404762D01*
X103042580Y-52404762D02*
X102899723Y-52309524D01*
X102899723Y-52309524D02*
X102804485Y-52214286D01*
X102804485Y-52214286D02*
X102756866Y-52119048D01*
D11*
X136624819Y-74652857D02*
X136148628Y-74986190D01*
X136624819Y-75224285D02*
X135624819Y-75224285D01*
X135624819Y-75224285D02*
X135624819Y-74843333D01*
X135624819Y-74843333D02*
X135672438Y-74748095D01*
X135672438Y-74748095D02*
X135720057Y-74700476D01*
X135720057Y-74700476D02*
X135815295Y-74652857D01*
X135815295Y-74652857D02*
X135958152Y-74652857D01*
X135958152Y-74652857D02*
X136053390Y-74700476D01*
X136053390Y-74700476D02*
X136101009Y-74748095D01*
X136101009Y-74748095D02*
X136148628Y-74843333D01*
X136148628Y-74843333D02*
X136148628Y-75224285D01*
X135720057Y-74271904D02*
X135672438Y-74224285D01*
X135672438Y-74224285D02*
X135624819Y-74129047D01*
X135624819Y-74129047D02*
X135624819Y-73890952D01*
X135624819Y-73890952D02*
X135672438Y-73795714D01*
X135672438Y-73795714D02*
X135720057Y-73748095D01*
X135720057Y-73748095D02*
X135815295Y-73700476D01*
X135815295Y-73700476D02*
X135910533Y-73700476D01*
X135910533Y-73700476D02*
X136053390Y-73748095D01*
X136053390Y-73748095D02*
X136624819Y-74319523D01*
X136624819Y-74319523D02*
X136624819Y-73700476D01*
X135624819Y-72795714D02*
X135624819Y-73271904D01*
X135624819Y-73271904D02*
X136101009Y-73319523D01*
X136101009Y-73319523D02*
X136053390Y-73271904D01*
X136053390Y-73271904D02*
X136005771Y-73176666D01*
X136005771Y-73176666D02*
X136005771Y-72938571D01*
X136005771Y-72938571D02*
X136053390Y-72843333D01*
X136053390Y-72843333D02*
X136101009Y-72795714D01*
X136101009Y-72795714D02*
X136196247Y-72748095D01*
X136196247Y-72748095D02*
X136434342Y-72748095D01*
X136434342Y-72748095D02*
X136529580Y-72795714D01*
X136529580Y-72795714D02*
X136577200Y-72843333D01*
X136577200Y-72843333D02*
X136624819Y-72938571D01*
X136624819Y-72938571D02*
X136624819Y-73176666D01*
X136624819Y-73176666D02*
X136577200Y-73271904D01*
X136577200Y-73271904D02*
X136529580Y-73319523D01*
D12*
X108309523Y-31423533D02*
X107547619Y-31423533D01*
X107071428Y-31566390D02*
X106738095Y-31566390D01*
X106595238Y-31042580D02*
X107071428Y-31042580D01*
X107071428Y-31042580D02*
X107071428Y-32042580D01*
X107071428Y-32042580D02*
X106595238Y-32042580D01*
X105642857Y-31042580D02*
X106214285Y-31042580D01*
X105928571Y-31042580D02*
X105928571Y-32042580D01*
X105928571Y-32042580D02*
X106023809Y-31899723D01*
X106023809Y-31899723D02*
X106119047Y-31804485D01*
X106119047Y-31804485D02*
X106214285Y-31756866D01*
X138909800Y-68261904D02*
X138957419Y-68119047D01*
X138957419Y-68119047D02*
X138957419Y-67880952D01*
X138957419Y-67880952D02*
X138909800Y-67785714D01*
X138909800Y-67785714D02*
X138862180Y-67738095D01*
X138862180Y-67738095D02*
X138766942Y-67690476D01*
X138766942Y-67690476D02*
X138671704Y-67690476D01*
X138671704Y-67690476D02*
X138576466Y-67738095D01*
X138576466Y-67738095D02*
X138528847Y-67785714D01*
X138528847Y-67785714D02*
X138481228Y-67880952D01*
X138481228Y-67880952D02*
X138433609Y-68071428D01*
X138433609Y-68071428D02*
X138385990Y-68166666D01*
X138385990Y-68166666D02*
X138338371Y-68214285D01*
X138338371Y-68214285D02*
X138243133Y-68261904D01*
X138243133Y-68261904D02*
X138147895Y-68261904D01*
X138147895Y-68261904D02*
X138052657Y-68214285D01*
X138052657Y-68214285D02*
X138005038Y-68166666D01*
X138005038Y-68166666D02*
X137957419Y-68071428D01*
X137957419Y-68071428D02*
X137957419Y-67833333D01*
X137957419Y-67833333D02*
X138005038Y-67690476D01*
X138957419Y-67261904D02*
X137957419Y-67261904D01*
X137957419Y-67261904D02*
X137957419Y-67023809D01*
X137957419Y-67023809D02*
X138005038Y-66880952D01*
X138005038Y-66880952D02*
X138100276Y-66785714D01*
X138100276Y-66785714D02*
X138195514Y-66738095D01*
X138195514Y-66738095D02*
X138385990Y-66690476D01*
X138385990Y-66690476D02*
X138528847Y-66690476D01*
X138528847Y-66690476D02*
X138719323Y-66738095D01*
X138719323Y-66738095D02*
X138814561Y-66785714D01*
X138814561Y-66785714D02*
X138909800Y-66880952D01*
X138909800Y-66880952D02*
X138957419Y-67023809D01*
X138957419Y-67023809D02*
X138957419Y-67261904D01*
X137957419Y-65785714D02*
X137957419Y-66261904D01*
X137957419Y-66261904D02*
X138433609Y-66309523D01*
X138433609Y-66309523D02*
X138385990Y-66261904D01*
X138385990Y-66261904D02*
X138338371Y-66166666D01*
X138338371Y-66166666D02*
X138338371Y-65928571D01*
X138338371Y-65928571D02*
X138385990Y-65833333D01*
X138385990Y-65833333D02*
X138433609Y-65785714D01*
X138433609Y-65785714D02*
X138528847Y-65738095D01*
X138528847Y-65738095D02*
X138766942Y-65738095D01*
X138766942Y-65738095D02*
X138862180Y-65785714D01*
X138862180Y-65785714D02*
X138909800Y-65833333D01*
X138909800Y-65833333D02*
X138957419Y-65928571D01*
X138957419Y-65928571D02*
X138957419Y-66166666D01*
X138957419Y-66166666D02*
X138909800Y-66261904D01*
X138909800Y-66261904D02*
X138862180Y-66309523D01*
X111499999Y-35090200D02*
X111357142Y-35042580D01*
X111357142Y-35042580D02*
X111119047Y-35042580D01*
X111119047Y-35042580D02*
X111023809Y-35090200D01*
X111023809Y-35090200D02*
X110976190Y-35137819D01*
X110976190Y-35137819D02*
X110928571Y-35233057D01*
X110928571Y-35233057D02*
X110928571Y-35328295D01*
X110928571Y-35328295D02*
X110976190Y-35423533D01*
X110976190Y-35423533D02*
X111023809Y-35471152D01*
X111023809Y-35471152D02*
X111119047Y-35518771D01*
X111119047Y-35518771D02*
X111309523Y-35566390D01*
X111309523Y-35566390D02*
X111404761Y-35614009D01*
X111404761Y-35614009D02*
X111452380Y-35661628D01*
X111452380Y-35661628D02*
X111499999Y-35756866D01*
X111499999Y-35756866D02*
X111499999Y-35852104D01*
X111499999Y-35852104D02*
X111452380Y-35947342D01*
X111452380Y-35947342D02*
X111404761Y-35994961D01*
X111404761Y-35994961D02*
X111309523Y-36042580D01*
X111309523Y-36042580D02*
X111071428Y-36042580D01*
X111071428Y-36042580D02*
X110928571Y-35994961D01*
X110499999Y-35042580D02*
X110499999Y-36042580D01*
X109500000Y-35994961D02*
X109595238Y-36042580D01*
X109595238Y-36042580D02*
X109738095Y-36042580D01*
X109738095Y-36042580D02*
X109880952Y-35994961D01*
X109880952Y-35994961D02*
X109976190Y-35899723D01*
X109976190Y-35899723D02*
X110023809Y-35804485D01*
X110023809Y-35804485D02*
X110071428Y-35614009D01*
X110071428Y-35614009D02*
X110071428Y-35471152D01*
X110071428Y-35471152D02*
X110023809Y-35280676D01*
X110023809Y-35280676D02*
X109976190Y-35185438D01*
X109976190Y-35185438D02*
X109880952Y-35090200D01*
X109880952Y-35090200D02*
X109738095Y-35042580D01*
X109738095Y-35042580D02*
X109642857Y-35042580D01*
X109642857Y-35042580D02*
X109500000Y-35090200D01*
X109500000Y-35090200D02*
X109452381Y-35137819D01*
X109452381Y-35137819D02*
X109452381Y-35471152D01*
X109452381Y-35471152D02*
X109642857Y-35471152D01*
X108500000Y-35042580D02*
X109071428Y-35042580D01*
X108785714Y-35042580D02*
X108785714Y-36042580D01*
X108785714Y-36042580D02*
X108880952Y-35899723D01*
X108880952Y-35899723D02*
X108976190Y-35804485D01*
X108976190Y-35804485D02*
X109071428Y-35756866D01*
X105738095Y-84909800D02*
X105880952Y-84957419D01*
X105880952Y-84957419D02*
X106119047Y-84957419D01*
X106119047Y-84957419D02*
X106214285Y-84909800D01*
X106214285Y-84909800D02*
X106261904Y-84862180D01*
X106261904Y-84862180D02*
X106309523Y-84766942D01*
X106309523Y-84766942D02*
X106309523Y-84671704D01*
X106309523Y-84671704D02*
X106261904Y-84576466D01*
X106261904Y-84576466D02*
X106214285Y-84528847D01*
X106214285Y-84528847D02*
X106119047Y-84481228D01*
X106119047Y-84481228D02*
X105928571Y-84433609D01*
X105928571Y-84433609D02*
X105833333Y-84385990D01*
X105833333Y-84385990D02*
X105785714Y-84338371D01*
X105785714Y-84338371D02*
X105738095Y-84243133D01*
X105738095Y-84243133D02*
X105738095Y-84147895D01*
X105738095Y-84147895D02*
X105785714Y-84052657D01*
X105785714Y-84052657D02*
X105833333Y-84005038D01*
X105833333Y-84005038D02*
X105928571Y-83957419D01*
X105928571Y-83957419D02*
X106166666Y-83957419D01*
X106166666Y-83957419D02*
X106309523Y-84005038D01*
X107309523Y-84862180D02*
X107261904Y-84909800D01*
X107261904Y-84909800D02*
X107119047Y-84957419D01*
X107119047Y-84957419D02*
X107023809Y-84957419D01*
X107023809Y-84957419D02*
X106880952Y-84909800D01*
X106880952Y-84909800D02*
X106785714Y-84814561D01*
X106785714Y-84814561D02*
X106738095Y-84719323D01*
X106738095Y-84719323D02*
X106690476Y-84528847D01*
X106690476Y-84528847D02*
X106690476Y-84385990D01*
X106690476Y-84385990D02*
X106738095Y-84195514D01*
X106738095Y-84195514D02*
X106785714Y-84100276D01*
X106785714Y-84100276D02*
X106880952Y-84005038D01*
X106880952Y-84005038D02*
X107023809Y-83957419D01*
X107023809Y-83957419D02*
X107119047Y-83957419D01*
X107119047Y-83957419D02*
X107261904Y-84005038D01*
X107261904Y-84005038D02*
X107309523Y-84052657D01*
X107642857Y-83957419D02*
X108261904Y-83957419D01*
X108261904Y-83957419D02*
X107928571Y-84338371D01*
X107928571Y-84338371D02*
X108071428Y-84338371D01*
X108071428Y-84338371D02*
X108166666Y-84385990D01*
X108166666Y-84385990D02*
X108214285Y-84433609D01*
X108214285Y-84433609D02*
X108261904Y-84528847D01*
X108261904Y-84528847D02*
X108261904Y-84766942D01*
X108261904Y-84766942D02*
X108214285Y-84862180D01*
X108214285Y-84862180D02*
X108166666Y-84909800D01*
X108166666Y-84909800D02*
X108071428Y-84957419D01*
X108071428Y-84957419D02*
X107785714Y-84957419D01*
X107785714Y-84957419D02*
X107690476Y-84909800D01*
X107690476Y-84909800D02*
X107642857Y-84862180D01*
X101238095Y-31994961D02*
X101333333Y-32042580D01*
X101333333Y-32042580D02*
X101476190Y-32042580D01*
X101476190Y-32042580D02*
X101619047Y-31994961D01*
X101619047Y-31994961D02*
X101714285Y-31899723D01*
X101714285Y-31899723D02*
X101761904Y-31804485D01*
X101761904Y-31804485D02*
X101809523Y-31614009D01*
X101809523Y-31614009D02*
X101809523Y-31471152D01*
X101809523Y-31471152D02*
X101761904Y-31280676D01*
X101761904Y-31280676D02*
X101714285Y-31185438D01*
X101714285Y-31185438D02*
X101619047Y-31090200D01*
X101619047Y-31090200D02*
X101476190Y-31042580D01*
X101476190Y-31042580D02*
X101380952Y-31042580D01*
X101380952Y-31042580D02*
X101238095Y-31090200D01*
X101238095Y-31090200D02*
X101190476Y-31137819D01*
X101190476Y-31137819D02*
X101190476Y-31471152D01*
X101190476Y-31471152D02*
X101380952Y-31471152D01*
X100761904Y-31042580D02*
X100761904Y-32042580D01*
X100761904Y-32042580D02*
X100190476Y-31042580D01*
X100190476Y-31042580D02*
X100190476Y-32042580D01*
X99523809Y-32042580D02*
X99428571Y-32042580D01*
X99428571Y-32042580D02*
X99333333Y-31994961D01*
X99333333Y-31994961D02*
X99285714Y-31947342D01*
X99285714Y-31947342D02*
X99238095Y-31852104D01*
X99238095Y-31852104D02*
X99190476Y-31661628D01*
X99190476Y-31661628D02*
X99190476Y-31423533D01*
X99190476Y-31423533D02*
X99238095Y-31233057D01*
X99238095Y-31233057D02*
X99285714Y-31137819D01*
X99285714Y-31137819D02*
X99333333Y-31090200D01*
X99333333Y-31090200D02*
X99428571Y-31042580D01*
X99428571Y-31042580D02*
X99523809Y-31042580D01*
X99523809Y-31042580D02*
X99619047Y-31090200D01*
X99619047Y-31090200D02*
X99666666Y-31137819D01*
X99666666Y-31137819D02*
X99714285Y-31233057D01*
X99714285Y-31233057D02*
X99761904Y-31423533D01*
X99761904Y-31423533D02*
X99761904Y-31661628D01*
X99761904Y-31661628D02*
X99714285Y-31852104D01*
X99714285Y-31852104D02*
X99666666Y-31947342D01*
X99666666Y-31947342D02*
X99619047Y-31994961D01*
X99619047Y-31994961D02*
X99523809Y-32042580D01*
X98090200Y-53238095D02*
X98042580Y-53380952D01*
X98042580Y-53380952D02*
X98042580Y-53619047D01*
X98042580Y-53619047D02*
X98090200Y-53714285D01*
X98090200Y-53714285D02*
X98137819Y-53761904D01*
X98137819Y-53761904D02*
X98233057Y-53809523D01*
X98233057Y-53809523D02*
X98328295Y-53809523D01*
X98328295Y-53809523D02*
X98423533Y-53761904D01*
X98423533Y-53761904D02*
X98471152Y-53714285D01*
X98471152Y-53714285D02*
X98518771Y-53619047D01*
X98518771Y-53619047D02*
X98566390Y-53428571D01*
X98566390Y-53428571D02*
X98614009Y-53333333D01*
X98614009Y-53333333D02*
X98661628Y-53285714D01*
X98661628Y-53285714D02*
X98756866Y-53238095D01*
X98756866Y-53238095D02*
X98852104Y-53238095D01*
X98852104Y-53238095D02*
X98947342Y-53285714D01*
X98947342Y-53285714D02*
X98994961Y-53333333D01*
X98994961Y-53333333D02*
X99042580Y-53428571D01*
X99042580Y-53428571D02*
X99042580Y-53666666D01*
X99042580Y-53666666D02*
X98994961Y-53809523D01*
X98042580Y-54238095D02*
X99042580Y-54238095D01*
X99042580Y-54238095D02*
X99042580Y-54476190D01*
X99042580Y-54476190D02*
X98994961Y-54619047D01*
X98994961Y-54619047D02*
X98899723Y-54714285D01*
X98899723Y-54714285D02*
X98804485Y-54761904D01*
X98804485Y-54761904D02*
X98614009Y-54809523D01*
X98614009Y-54809523D02*
X98471152Y-54809523D01*
X98471152Y-54809523D02*
X98280676Y-54761904D01*
X98280676Y-54761904D02*
X98185438Y-54714285D01*
X98185438Y-54714285D02*
X98090200Y-54619047D01*
X98090200Y-54619047D02*
X98042580Y-54476190D01*
X98042580Y-54476190D02*
X98042580Y-54238095D01*
X98042580Y-55761904D02*
X98042580Y-55190476D01*
X98042580Y-55476190D02*
X99042580Y-55476190D01*
X99042580Y-55476190D02*
X98899723Y-55380952D01*
X98899723Y-55380952D02*
X98804485Y-55285714D01*
X98804485Y-55285714D02*
X98756866Y-55190476D01*
D11*
X134750057Y-71042856D02*
X134702438Y-70995237D01*
X134702438Y-70995237D02*
X134654819Y-70899999D01*
X134654819Y-70899999D02*
X134654819Y-70661904D01*
X134654819Y-70661904D02*
X134702438Y-70566666D01*
X134702438Y-70566666D02*
X134750057Y-70519047D01*
X134750057Y-70519047D02*
X134845295Y-70471428D01*
X134845295Y-70471428D02*
X134940533Y-70471428D01*
X134940533Y-70471428D02*
X135083390Y-70519047D01*
X135083390Y-70519047D02*
X135654819Y-71090475D01*
X135654819Y-71090475D02*
X135654819Y-70471428D01*
X134750057Y-70090475D02*
X134702438Y-70042856D01*
X134702438Y-70042856D02*
X134654819Y-69947618D01*
X134654819Y-69947618D02*
X134654819Y-69709523D01*
X134654819Y-69709523D02*
X134702438Y-69614285D01*
X134702438Y-69614285D02*
X134750057Y-69566666D01*
X134750057Y-69566666D02*
X134845295Y-69519047D01*
X134845295Y-69519047D02*
X134940533Y-69519047D01*
X134940533Y-69519047D02*
X135083390Y-69566666D01*
X135083390Y-69566666D02*
X135654819Y-70138094D01*
X135654819Y-70138094D02*
X135654819Y-69519047D01*
X134988152Y-68661904D02*
X135654819Y-68661904D01*
X134988152Y-69090475D02*
X135511961Y-69090475D01*
X135511961Y-69090475D02*
X135607200Y-69042856D01*
X135607200Y-69042856D02*
X135654819Y-68947618D01*
X135654819Y-68947618D02*
X135654819Y-68804761D01*
X135654819Y-68804761D02*
X135607200Y-68709523D01*
X135607200Y-68709523D02*
X135559580Y-68661904D01*
X135131009Y-67852380D02*
X135131009Y-68185713D01*
X135654819Y-68185713D02*
X134654819Y-68185713D01*
X134654819Y-68185713D02*
X134654819Y-67709523D01*
D12*
X99261905Y-83957419D02*
X99880952Y-83957419D01*
X99880952Y-83957419D02*
X99547619Y-84338371D01*
X99547619Y-84338371D02*
X99690476Y-84338371D01*
X99690476Y-84338371D02*
X99785714Y-84385990D01*
X99785714Y-84385990D02*
X99833333Y-84433609D01*
X99833333Y-84433609D02*
X99880952Y-84528847D01*
X99880952Y-84528847D02*
X99880952Y-84766942D01*
X99880952Y-84766942D02*
X99833333Y-84862180D01*
X99833333Y-84862180D02*
X99785714Y-84909800D01*
X99785714Y-84909800D02*
X99690476Y-84957419D01*
X99690476Y-84957419D02*
X99404762Y-84957419D01*
X99404762Y-84957419D02*
X99309524Y-84909800D01*
X99309524Y-84909800D02*
X99261905Y-84862180D01*
X100166667Y-83957419D02*
X100500000Y-84957419D01*
X100500000Y-84957419D02*
X100833333Y-83957419D01*
X101071429Y-83957419D02*
X101690476Y-83957419D01*
X101690476Y-83957419D02*
X101357143Y-84338371D01*
X101357143Y-84338371D02*
X101500000Y-84338371D01*
X101500000Y-84338371D02*
X101595238Y-84385990D01*
X101595238Y-84385990D02*
X101642857Y-84433609D01*
X101642857Y-84433609D02*
X101690476Y-84528847D01*
X101690476Y-84528847D02*
X101690476Y-84766942D01*
X101690476Y-84766942D02*
X101642857Y-84862180D01*
X101642857Y-84862180D02*
X101595238Y-84909800D01*
X101595238Y-84909800D02*
X101500000Y-84957419D01*
X101500000Y-84957419D02*
X101214286Y-84957419D01*
X101214286Y-84957419D02*
X101119048Y-84909800D01*
X101119048Y-84909800D02*
X101071429Y-84862180D01*
X132261904Y-84005038D02*
X132166666Y-83957419D01*
X132166666Y-83957419D02*
X132023809Y-83957419D01*
X132023809Y-83957419D02*
X131880952Y-84005038D01*
X131880952Y-84005038D02*
X131785714Y-84100276D01*
X131785714Y-84100276D02*
X131738095Y-84195514D01*
X131738095Y-84195514D02*
X131690476Y-84385990D01*
X131690476Y-84385990D02*
X131690476Y-84528847D01*
X131690476Y-84528847D02*
X131738095Y-84719323D01*
X131738095Y-84719323D02*
X131785714Y-84814561D01*
X131785714Y-84814561D02*
X131880952Y-84909800D01*
X131880952Y-84909800D02*
X132023809Y-84957419D01*
X132023809Y-84957419D02*
X132119047Y-84957419D01*
X132119047Y-84957419D02*
X132261904Y-84909800D01*
X132261904Y-84909800D02*
X132309523Y-84862180D01*
X132309523Y-84862180D02*
X132309523Y-84528847D01*
X132309523Y-84528847D02*
X132119047Y-84528847D01*
X132738095Y-84957419D02*
X132738095Y-83957419D01*
X132738095Y-83957419D02*
X133309523Y-84957419D01*
X133309523Y-84957419D02*
X133309523Y-83957419D01*
X134214285Y-84290752D02*
X134214285Y-84957419D01*
X133976190Y-83909800D02*
X133738095Y-84624085D01*
X133738095Y-84624085D02*
X134357142Y-84624085D01*
X142909800Y-40761904D02*
X142957419Y-40619047D01*
X142957419Y-40619047D02*
X142957419Y-40380952D01*
X142957419Y-40380952D02*
X142909800Y-40285714D01*
X142909800Y-40285714D02*
X142862180Y-40238095D01*
X142862180Y-40238095D02*
X142766942Y-40190476D01*
X142766942Y-40190476D02*
X142671704Y-40190476D01*
X142671704Y-40190476D02*
X142576466Y-40238095D01*
X142576466Y-40238095D02*
X142528847Y-40285714D01*
X142528847Y-40285714D02*
X142481228Y-40380952D01*
X142481228Y-40380952D02*
X142433609Y-40571428D01*
X142433609Y-40571428D02*
X142385990Y-40666666D01*
X142385990Y-40666666D02*
X142338371Y-40714285D01*
X142338371Y-40714285D02*
X142243133Y-40761904D01*
X142243133Y-40761904D02*
X142147895Y-40761904D01*
X142147895Y-40761904D02*
X142052657Y-40714285D01*
X142052657Y-40714285D02*
X142005038Y-40666666D01*
X142005038Y-40666666D02*
X141957419Y-40571428D01*
X141957419Y-40571428D02*
X141957419Y-40333333D01*
X141957419Y-40333333D02*
X142005038Y-40190476D01*
X142957419Y-39761904D02*
X141957419Y-39761904D01*
X141957419Y-39761904D02*
X141957419Y-39523809D01*
X141957419Y-39523809D02*
X142005038Y-39380952D01*
X142005038Y-39380952D02*
X142100276Y-39285714D01*
X142100276Y-39285714D02*
X142195514Y-39238095D01*
X142195514Y-39238095D02*
X142385990Y-39190476D01*
X142385990Y-39190476D02*
X142528847Y-39190476D01*
X142528847Y-39190476D02*
X142719323Y-39238095D01*
X142719323Y-39238095D02*
X142814561Y-39285714D01*
X142814561Y-39285714D02*
X142909800Y-39380952D01*
X142909800Y-39380952D02*
X142957419Y-39523809D01*
X142957419Y-39523809D02*
X142957419Y-39761904D01*
X141957419Y-38333333D02*
X141957419Y-38523809D01*
X141957419Y-38523809D02*
X142005038Y-38619047D01*
X142005038Y-38619047D02*
X142052657Y-38666666D01*
X142052657Y-38666666D02*
X142195514Y-38761904D01*
X142195514Y-38761904D02*
X142385990Y-38809523D01*
X142385990Y-38809523D02*
X142766942Y-38809523D01*
X142766942Y-38809523D02*
X142862180Y-38761904D01*
X142862180Y-38761904D02*
X142909800Y-38714285D01*
X142909800Y-38714285D02*
X142957419Y-38619047D01*
X142957419Y-38619047D02*
X142957419Y-38428571D01*
X142957419Y-38428571D02*
X142909800Y-38333333D01*
X142909800Y-38333333D02*
X142862180Y-38285714D01*
X142862180Y-38285714D02*
X142766942Y-38238095D01*
X142766942Y-38238095D02*
X142528847Y-38238095D01*
X142528847Y-38238095D02*
X142433609Y-38285714D01*
X142433609Y-38285714D02*
X142385990Y-38333333D01*
X142385990Y-38333333D02*
X142338371Y-38428571D01*
X142338371Y-38428571D02*
X142338371Y-38619047D01*
X142338371Y-38619047D02*
X142385990Y-38714285D01*
X142385990Y-38714285D02*
X142433609Y-38761904D01*
X142433609Y-38761904D02*
X142528847Y-38809523D01*
X129238094Y-35328295D02*
X128761904Y-35328295D01*
X129333332Y-35042580D02*
X128999999Y-36042580D01*
X128999999Y-36042580D02*
X128666666Y-35042580D01*
X128142856Y-36042580D02*
X127952380Y-36042580D01*
X127952380Y-36042580D02*
X127857142Y-35994961D01*
X127857142Y-35994961D02*
X127761904Y-35899723D01*
X127761904Y-35899723D02*
X127714285Y-35709247D01*
X127714285Y-35709247D02*
X127714285Y-35375914D01*
X127714285Y-35375914D02*
X127761904Y-35185438D01*
X127761904Y-35185438D02*
X127857142Y-35090200D01*
X127857142Y-35090200D02*
X127952380Y-35042580D01*
X127952380Y-35042580D02*
X128142856Y-35042580D01*
X128142856Y-35042580D02*
X128238094Y-35090200D01*
X128238094Y-35090200D02*
X128333332Y-35185438D01*
X128333332Y-35185438D02*
X128380951Y-35375914D01*
X128380951Y-35375914D02*
X128380951Y-35709247D01*
X128380951Y-35709247D02*
X128333332Y-35899723D01*
X128333332Y-35899723D02*
X128238094Y-35994961D01*
X128238094Y-35994961D02*
X128142856Y-36042580D01*
X126761904Y-35042580D02*
X127333332Y-35042580D01*
X127047618Y-35042580D02*
X127047618Y-36042580D01*
X127047618Y-36042580D02*
X127142856Y-35899723D01*
X127142856Y-35899723D02*
X127238094Y-35804485D01*
X127238094Y-35804485D02*
X127333332Y-35756866D01*
D11*
X128957143Y-66950057D02*
X129004762Y-66902438D01*
X129004762Y-66902438D02*
X129100000Y-66854819D01*
X129100000Y-66854819D02*
X129338095Y-66854819D01*
X129338095Y-66854819D02*
X129433333Y-66902438D01*
X129433333Y-66902438D02*
X129480952Y-66950057D01*
X129480952Y-66950057D02*
X129528571Y-67045295D01*
X129528571Y-67045295D02*
X129528571Y-67140533D01*
X129528571Y-67140533D02*
X129480952Y-67283390D01*
X129480952Y-67283390D02*
X128909524Y-67854819D01*
X128909524Y-67854819D02*
X129528571Y-67854819D01*
X129909524Y-66950057D02*
X129957143Y-66902438D01*
X129957143Y-66902438D02*
X130052381Y-66854819D01*
X130052381Y-66854819D02*
X130290476Y-66854819D01*
X130290476Y-66854819D02*
X130385714Y-66902438D01*
X130385714Y-66902438D02*
X130433333Y-66950057D01*
X130433333Y-66950057D02*
X130480952Y-67045295D01*
X130480952Y-67045295D02*
X130480952Y-67140533D01*
X130480952Y-67140533D02*
X130433333Y-67283390D01*
X130433333Y-67283390D02*
X129861905Y-67854819D01*
X129861905Y-67854819D02*
X130480952Y-67854819D01*
X131338095Y-67188152D02*
X131338095Y-67854819D01*
X130909524Y-67188152D02*
X130909524Y-67711961D01*
X130909524Y-67711961D02*
X130957143Y-67807200D01*
X130957143Y-67807200D02*
X131052381Y-67854819D01*
X131052381Y-67854819D02*
X131195238Y-67854819D01*
X131195238Y-67854819D02*
X131290476Y-67807200D01*
X131290476Y-67807200D02*
X131338095Y-67759580D01*
X132147619Y-67331009D02*
X131814286Y-67331009D01*
X131814286Y-67854819D02*
X131814286Y-66854819D01*
X131814286Y-66854819D02*
X132290476Y-66854819D01*
X119357142Y-73859580D02*
X119309523Y-73907200D01*
X119309523Y-73907200D02*
X119166666Y-73954819D01*
X119166666Y-73954819D02*
X119071428Y-73954819D01*
X119071428Y-73954819D02*
X118928571Y-73907200D01*
X118928571Y-73907200D02*
X118833333Y-73811961D01*
X118833333Y-73811961D02*
X118785714Y-73716723D01*
X118785714Y-73716723D02*
X118738095Y-73526247D01*
X118738095Y-73526247D02*
X118738095Y-73383390D01*
X118738095Y-73383390D02*
X118785714Y-73192914D01*
X118785714Y-73192914D02*
X118833333Y-73097676D01*
X118833333Y-73097676D02*
X118928571Y-73002438D01*
X118928571Y-73002438D02*
X119071428Y-72954819D01*
X119071428Y-72954819D02*
X119166666Y-72954819D01*
X119166666Y-72954819D02*
X119309523Y-73002438D01*
X119309523Y-73002438D02*
X119357142Y-73050057D01*
X120309523Y-73954819D02*
X119738095Y-73954819D01*
X120023809Y-73954819D02*
X120023809Y-72954819D01*
X120023809Y-72954819D02*
X119928571Y-73097676D01*
X119928571Y-73097676D02*
X119833333Y-73192914D01*
X119833333Y-73192914D02*
X119738095Y-73240533D01*
X120642857Y-72954819D02*
X121261904Y-72954819D01*
X121261904Y-72954819D02*
X120928571Y-73335771D01*
X120928571Y-73335771D02*
X121071428Y-73335771D01*
X121071428Y-73335771D02*
X121166666Y-73383390D01*
X121166666Y-73383390D02*
X121214285Y-73431009D01*
X121214285Y-73431009D02*
X121261904Y-73526247D01*
X121261904Y-73526247D02*
X121261904Y-73764342D01*
X121261904Y-73764342D02*
X121214285Y-73859580D01*
X121214285Y-73859580D02*
X121166666Y-73907200D01*
X121166666Y-73907200D02*
X121071428Y-73954819D01*
X121071428Y-73954819D02*
X120785714Y-73954819D01*
X120785714Y-73954819D02*
X120690476Y-73907200D01*
X120690476Y-73907200D02*
X120642857Y-73859580D01*
X104656666Y-62284819D02*
X104085238Y-62284819D01*
X104370952Y-62284819D02*
X104370952Y-61284819D01*
X104370952Y-61284819D02*
X104275714Y-61427676D01*
X104275714Y-61427676D02*
X104180476Y-61522914D01*
X104180476Y-61522914D02*
X104085238Y-61570533D01*
X105085238Y-62189580D02*
X105132857Y-62237200D01*
X105132857Y-62237200D02*
X105085238Y-62284819D01*
X105085238Y-62284819D02*
X105037619Y-62237200D01*
X105037619Y-62237200D02*
X105085238Y-62189580D01*
X105085238Y-62189580D02*
X105085238Y-62284819D01*
X106037618Y-61284819D02*
X105561428Y-61284819D01*
X105561428Y-61284819D02*
X105513809Y-61761009D01*
X105513809Y-61761009D02*
X105561428Y-61713390D01*
X105561428Y-61713390D02*
X105656666Y-61665771D01*
X105656666Y-61665771D02*
X105894761Y-61665771D01*
X105894761Y-61665771D02*
X105989999Y-61713390D01*
X105989999Y-61713390D02*
X106037618Y-61761009D01*
X106037618Y-61761009D02*
X106085237Y-61856247D01*
X106085237Y-61856247D02*
X106085237Y-62094342D01*
X106085237Y-62094342D02*
X106037618Y-62189580D01*
X106037618Y-62189580D02*
X105989999Y-62237200D01*
X105989999Y-62237200D02*
X105894761Y-62284819D01*
X105894761Y-62284819D02*
X105656666Y-62284819D01*
X105656666Y-62284819D02*
X105561428Y-62237200D01*
X105561428Y-62237200D02*
X105513809Y-62189580D01*
X106513809Y-62284819D02*
X106513809Y-61284819D01*
X106609047Y-61903866D02*
X106894761Y-62284819D01*
X106894761Y-61618152D02*
X106513809Y-61999104D01*
D12*
X105309523Y-35423533D02*
X104547619Y-35423533D01*
X104928571Y-35042580D02*
X104928571Y-35804485D01*
X104071428Y-35566390D02*
X103738095Y-35566390D01*
X103595238Y-35042580D02*
X104071428Y-35042580D01*
X104071428Y-35042580D02*
X104071428Y-36042580D01*
X104071428Y-36042580D02*
X103595238Y-36042580D01*
X102642857Y-35042580D02*
X103214285Y-35042580D01*
X102928571Y-35042580D02*
X102928571Y-36042580D01*
X102928571Y-36042580D02*
X103023809Y-35899723D01*
X103023809Y-35899723D02*
X103119047Y-35804485D01*
X103119047Y-35804485D02*
X103214285Y-35756866D01*
X137928571Y-31566390D02*
X137785714Y-31518771D01*
X137785714Y-31518771D02*
X137738095Y-31471152D01*
X137738095Y-31471152D02*
X137690476Y-31375914D01*
X137690476Y-31375914D02*
X137690476Y-31233057D01*
X137690476Y-31233057D02*
X137738095Y-31137819D01*
X137738095Y-31137819D02*
X137785714Y-31090200D01*
X137785714Y-31090200D02*
X137880952Y-31042580D01*
X137880952Y-31042580D02*
X138261904Y-31042580D01*
X138261904Y-31042580D02*
X138261904Y-32042580D01*
X138261904Y-32042580D02*
X137928571Y-32042580D01*
X137928571Y-32042580D02*
X137833333Y-31994961D01*
X137833333Y-31994961D02*
X137785714Y-31947342D01*
X137785714Y-31947342D02*
X137738095Y-31852104D01*
X137738095Y-31852104D02*
X137738095Y-31756866D01*
X137738095Y-31756866D02*
X137785714Y-31661628D01*
X137785714Y-31661628D02*
X137833333Y-31614009D01*
X137833333Y-31614009D02*
X137928571Y-31566390D01*
X137928571Y-31566390D02*
X138261904Y-31566390D01*
X137071428Y-32042580D02*
X136880952Y-32042580D01*
X136880952Y-32042580D02*
X136785714Y-31994961D01*
X136785714Y-31994961D02*
X136690476Y-31899723D01*
X136690476Y-31899723D02*
X136642857Y-31709247D01*
X136642857Y-31709247D02*
X136642857Y-31375914D01*
X136642857Y-31375914D02*
X136690476Y-31185438D01*
X136690476Y-31185438D02*
X136785714Y-31090200D01*
X136785714Y-31090200D02*
X136880952Y-31042580D01*
X136880952Y-31042580D02*
X137071428Y-31042580D01*
X137071428Y-31042580D02*
X137166666Y-31090200D01*
X137166666Y-31090200D02*
X137261904Y-31185438D01*
X137261904Y-31185438D02*
X137309523Y-31375914D01*
X137309523Y-31375914D02*
X137309523Y-31709247D01*
X137309523Y-31709247D02*
X137261904Y-31899723D01*
X137261904Y-31899723D02*
X137166666Y-31994961D01*
X137166666Y-31994961D02*
X137071428Y-32042580D01*
X136261904Y-31947342D02*
X136214285Y-31994961D01*
X136214285Y-31994961D02*
X136119047Y-32042580D01*
X136119047Y-32042580D02*
X135880952Y-32042580D01*
X135880952Y-32042580D02*
X135785714Y-31994961D01*
X135785714Y-31994961D02*
X135738095Y-31947342D01*
X135738095Y-31947342D02*
X135690476Y-31852104D01*
X135690476Y-31852104D02*
X135690476Y-31756866D01*
X135690476Y-31756866D02*
X135738095Y-31614009D01*
X135738095Y-31614009D02*
X136309523Y-31042580D01*
X136309523Y-31042580D02*
X135690476Y-31042580D01*
D11*
X105333333Y-58559580D02*
X105285714Y-58607200D01*
X105285714Y-58607200D02*
X105142857Y-58654819D01*
X105142857Y-58654819D02*
X105047619Y-58654819D01*
X105047619Y-58654819D02*
X104904762Y-58607200D01*
X104904762Y-58607200D02*
X104809524Y-58511961D01*
X104809524Y-58511961D02*
X104761905Y-58416723D01*
X104761905Y-58416723D02*
X104714286Y-58226247D01*
X104714286Y-58226247D02*
X104714286Y-58083390D01*
X104714286Y-58083390D02*
X104761905Y-57892914D01*
X104761905Y-57892914D02*
X104809524Y-57797676D01*
X104809524Y-57797676D02*
X104904762Y-57702438D01*
X104904762Y-57702438D02*
X105047619Y-57654819D01*
X105047619Y-57654819D02*
X105142857Y-57654819D01*
X105142857Y-57654819D02*
X105285714Y-57702438D01*
X105285714Y-57702438D02*
X105333333Y-57750057D01*
X105809524Y-58654819D02*
X106000000Y-58654819D01*
X106000000Y-58654819D02*
X106095238Y-58607200D01*
X106095238Y-58607200D02*
X106142857Y-58559580D01*
X106142857Y-58559580D02*
X106238095Y-58416723D01*
X106238095Y-58416723D02*
X106285714Y-58226247D01*
X106285714Y-58226247D02*
X106285714Y-57845295D01*
X106285714Y-57845295D02*
X106238095Y-57750057D01*
X106238095Y-57750057D02*
X106190476Y-57702438D01*
X106190476Y-57702438D02*
X106095238Y-57654819D01*
X106095238Y-57654819D02*
X105904762Y-57654819D01*
X105904762Y-57654819D02*
X105809524Y-57702438D01*
X105809524Y-57702438D02*
X105761905Y-57750057D01*
X105761905Y-57750057D02*
X105714286Y-57845295D01*
X105714286Y-57845295D02*
X105714286Y-58083390D01*
X105714286Y-58083390D02*
X105761905Y-58178628D01*
X105761905Y-58178628D02*
X105809524Y-58226247D01*
X105809524Y-58226247D02*
X105904762Y-58273866D01*
X105904762Y-58273866D02*
X106095238Y-58273866D01*
X106095238Y-58273866D02*
X106190476Y-58226247D01*
X106190476Y-58226247D02*
X106238095Y-58178628D01*
X106238095Y-58178628D02*
X106285714Y-58083390D01*
D12*
X98042580Y-59119048D02*
X99042580Y-59119048D01*
X98042580Y-59595238D02*
X99042580Y-59595238D01*
X99042580Y-59595238D02*
X98042580Y-60166666D01*
X98042580Y-60166666D02*
X99042580Y-60166666D01*
X99042580Y-60500000D02*
X99042580Y-61071428D01*
X98042580Y-60785714D02*
X99042580Y-60785714D01*
X98042580Y-61928571D02*
X98042580Y-61357143D01*
X98042580Y-61642857D02*
X99042580Y-61642857D01*
X99042580Y-61642857D02*
X98899723Y-61547619D01*
X98899723Y-61547619D02*
X98804485Y-61452381D01*
X98804485Y-61452381D02*
X98756866Y-61357143D01*
X138909800Y-56333332D02*
X138957419Y-56190475D01*
X138957419Y-56190475D02*
X138957419Y-55952380D01*
X138957419Y-55952380D02*
X138909800Y-55857142D01*
X138909800Y-55857142D02*
X138862180Y-55809523D01*
X138862180Y-55809523D02*
X138766942Y-55761904D01*
X138766942Y-55761904D02*
X138671704Y-55761904D01*
X138671704Y-55761904D02*
X138576466Y-55809523D01*
X138576466Y-55809523D02*
X138528847Y-55857142D01*
X138528847Y-55857142D02*
X138481228Y-55952380D01*
X138481228Y-55952380D02*
X138433609Y-56142856D01*
X138433609Y-56142856D02*
X138385990Y-56238094D01*
X138385990Y-56238094D02*
X138338371Y-56285713D01*
X138338371Y-56285713D02*
X138243133Y-56333332D01*
X138243133Y-56333332D02*
X138147895Y-56333332D01*
X138147895Y-56333332D02*
X138052657Y-56285713D01*
X138052657Y-56285713D02*
X138005038Y-56238094D01*
X138005038Y-56238094D02*
X137957419Y-56142856D01*
X137957419Y-56142856D02*
X137957419Y-55904761D01*
X137957419Y-55904761D02*
X138005038Y-55761904D01*
X137957419Y-55428570D02*
X138957419Y-55190475D01*
X138957419Y-55190475D02*
X138243133Y-54999999D01*
X138243133Y-54999999D02*
X138957419Y-54809523D01*
X138957419Y-54809523D02*
X137957419Y-54571428D01*
X138957419Y-53666666D02*
X138957419Y-54238094D01*
X138957419Y-53952380D02*
X137957419Y-53952380D01*
X137957419Y-53952380D02*
X138100276Y-54047618D01*
X138100276Y-54047618D02*
X138195514Y-54142856D01*
X138195514Y-54142856D02*
X138243133Y-54238094D01*
D11*
X124833333Y-71789580D02*
X124785714Y-71837200D01*
X124785714Y-71837200D02*
X124642857Y-71884819D01*
X124642857Y-71884819D02*
X124547619Y-71884819D01*
X124547619Y-71884819D02*
X124404762Y-71837200D01*
X124404762Y-71837200D02*
X124309524Y-71741961D01*
X124309524Y-71741961D02*
X124261905Y-71646723D01*
X124261905Y-71646723D02*
X124214286Y-71456247D01*
X124214286Y-71456247D02*
X124214286Y-71313390D01*
X124214286Y-71313390D02*
X124261905Y-71122914D01*
X124261905Y-71122914D02*
X124309524Y-71027676D01*
X124309524Y-71027676D02*
X124404762Y-70932438D01*
X124404762Y-70932438D02*
X124547619Y-70884819D01*
X124547619Y-70884819D02*
X124642857Y-70884819D01*
X124642857Y-70884819D02*
X124785714Y-70932438D01*
X124785714Y-70932438D02*
X124833333Y-70980057D01*
X125166667Y-70884819D02*
X125833333Y-70884819D01*
X125833333Y-70884819D02*
X125404762Y-71884819D01*
D12*
X135761905Y-83957419D02*
X136380952Y-83957419D01*
X136380952Y-83957419D02*
X136047619Y-84338371D01*
X136047619Y-84338371D02*
X136190476Y-84338371D01*
X136190476Y-84338371D02*
X136285714Y-84385990D01*
X136285714Y-84385990D02*
X136333333Y-84433609D01*
X136333333Y-84433609D02*
X136380952Y-84528847D01*
X136380952Y-84528847D02*
X136380952Y-84766942D01*
X136380952Y-84766942D02*
X136333333Y-84862180D01*
X136333333Y-84862180D02*
X136285714Y-84909800D01*
X136285714Y-84909800D02*
X136190476Y-84957419D01*
X136190476Y-84957419D02*
X135904762Y-84957419D01*
X135904762Y-84957419D02*
X135809524Y-84909800D01*
X135809524Y-84909800D02*
X135761905Y-84862180D01*
X136666667Y-83957419D02*
X137000000Y-84957419D01*
X137000000Y-84957419D02*
X137333333Y-83957419D01*
X138095238Y-84290752D02*
X138095238Y-84957419D01*
X137857143Y-83909800D02*
X137619048Y-84624085D01*
X137619048Y-84624085D02*
X138238095Y-84624085D01*
X123238094Y-36042580D02*
X122619047Y-36042580D01*
X122619047Y-36042580D02*
X122952380Y-35661628D01*
X122952380Y-35661628D02*
X122809523Y-35661628D01*
X122809523Y-35661628D02*
X122714285Y-35614009D01*
X122714285Y-35614009D02*
X122666666Y-35566390D01*
X122666666Y-35566390D02*
X122619047Y-35471152D01*
X122619047Y-35471152D02*
X122619047Y-35233057D01*
X122619047Y-35233057D02*
X122666666Y-35137819D01*
X122666666Y-35137819D02*
X122714285Y-35090200D01*
X122714285Y-35090200D02*
X122809523Y-35042580D01*
X122809523Y-35042580D02*
X123095237Y-35042580D01*
X123095237Y-35042580D02*
X123190475Y-35090200D01*
X123190475Y-35090200D02*
X123238094Y-35137819D01*
X122333332Y-36042580D02*
X121999999Y-35042580D01*
X121999999Y-35042580D02*
X121666666Y-36042580D01*
X121428570Y-36042580D02*
X120761904Y-36042580D01*
X120761904Y-36042580D02*
X121190475Y-35042580D01*
X139309800Y-80261904D02*
X139357419Y-80119047D01*
X139357419Y-80119047D02*
X139357419Y-79880952D01*
X139357419Y-79880952D02*
X139309800Y-79785714D01*
X139309800Y-79785714D02*
X139262180Y-79738095D01*
X139262180Y-79738095D02*
X139166942Y-79690476D01*
X139166942Y-79690476D02*
X139071704Y-79690476D01*
X139071704Y-79690476D02*
X138976466Y-79738095D01*
X138976466Y-79738095D02*
X138928847Y-79785714D01*
X138928847Y-79785714D02*
X138881228Y-79880952D01*
X138881228Y-79880952D02*
X138833609Y-80071428D01*
X138833609Y-80071428D02*
X138785990Y-80166666D01*
X138785990Y-80166666D02*
X138738371Y-80214285D01*
X138738371Y-80214285D02*
X138643133Y-80261904D01*
X138643133Y-80261904D02*
X138547895Y-80261904D01*
X138547895Y-80261904D02*
X138452657Y-80214285D01*
X138452657Y-80214285D02*
X138405038Y-80166666D01*
X138405038Y-80166666D02*
X138357419Y-80071428D01*
X138357419Y-80071428D02*
X138357419Y-79833333D01*
X138357419Y-79833333D02*
X138405038Y-79690476D01*
X139262180Y-78690476D02*
X139309800Y-78738095D01*
X139309800Y-78738095D02*
X139357419Y-78880952D01*
X139357419Y-78880952D02*
X139357419Y-78976190D01*
X139357419Y-78976190D02*
X139309800Y-79119047D01*
X139309800Y-79119047D02*
X139214561Y-79214285D01*
X139214561Y-79214285D02*
X139119323Y-79261904D01*
X139119323Y-79261904D02*
X138928847Y-79309523D01*
X138928847Y-79309523D02*
X138785990Y-79309523D01*
X138785990Y-79309523D02*
X138595514Y-79261904D01*
X138595514Y-79261904D02*
X138500276Y-79214285D01*
X138500276Y-79214285D02*
X138405038Y-79119047D01*
X138405038Y-79119047D02*
X138357419Y-78976190D01*
X138357419Y-78976190D02*
X138357419Y-78880952D01*
X138357419Y-78880952D02*
X138405038Y-78738095D01*
X138405038Y-78738095D02*
X138452657Y-78690476D01*
X138690752Y-77833333D02*
X139357419Y-77833333D01*
X138309800Y-78071428D02*
X139024085Y-78309523D01*
X139024085Y-78309523D02*
X139024085Y-77690476D01*
D11*
X130857142Y-72954819D02*
X130523809Y-72478628D01*
X130285714Y-72954819D02*
X130285714Y-71954819D01*
X130285714Y-71954819D02*
X130666666Y-71954819D01*
X130666666Y-71954819D02*
X130761904Y-72002438D01*
X130761904Y-72002438D02*
X130809523Y-72050057D01*
X130809523Y-72050057D02*
X130857142Y-72145295D01*
X130857142Y-72145295D02*
X130857142Y-72288152D01*
X130857142Y-72288152D02*
X130809523Y-72383390D01*
X130809523Y-72383390D02*
X130761904Y-72431009D01*
X130761904Y-72431009D02*
X130666666Y-72478628D01*
X130666666Y-72478628D02*
X130285714Y-72478628D01*
X131238095Y-72050057D02*
X131285714Y-72002438D01*
X131285714Y-72002438D02*
X131380952Y-71954819D01*
X131380952Y-71954819D02*
X131619047Y-71954819D01*
X131619047Y-71954819D02*
X131714285Y-72002438D01*
X131714285Y-72002438D02*
X131761904Y-72050057D01*
X131761904Y-72050057D02*
X131809523Y-72145295D01*
X131809523Y-72145295D02*
X131809523Y-72240533D01*
X131809523Y-72240533D02*
X131761904Y-72383390D01*
X131761904Y-72383390D02*
X131190476Y-72954819D01*
X131190476Y-72954819D02*
X131809523Y-72954819D01*
X132666666Y-72288152D02*
X132666666Y-72954819D01*
X132428571Y-71907200D02*
X132190476Y-72621485D01*
X132190476Y-72621485D02*
X132809523Y-72621485D01*
D12*
X142909800Y-59333332D02*
X142957419Y-59190475D01*
X142957419Y-59190475D02*
X142957419Y-58952380D01*
X142957419Y-58952380D02*
X142909800Y-58857142D01*
X142909800Y-58857142D02*
X142862180Y-58809523D01*
X142862180Y-58809523D02*
X142766942Y-58761904D01*
X142766942Y-58761904D02*
X142671704Y-58761904D01*
X142671704Y-58761904D02*
X142576466Y-58809523D01*
X142576466Y-58809523D02*
X142528847Y-58857142D01*
X142528847Y-58857142D02*
X142481228Y-58952380D01*
X142481228Y-58952380D02*
X142433609Y-59142856D01*
X142433609Y-59142856D02*
X142385990Y-59238094D01*
X142385990Y-59238094D02*
X142338371Y-59285713D01*
X142338371Y-59285713D02*
X142243133Y-59333332D01*
X142243133Y-59333332D02*
X142147895Y-59333332D01*
X142147895Y-59333332D02*
X142052657Y-59285713D01*
X142052657Y-59285713D02*
X142005038Y-59238094D01*
X142005038Y-59238094D02*
X141957419Y-59142856D01*
X141957419Y-59142856D02*
X141957419Y-58904761D01*
X141957419Y-58904761D02*
X142005038Y-58761904D01*
X141957419Y-58428570D02*
X142957419Y-58190475D01*
X142957419Y-58190475D02*
X142243133Y-57999999D01*
X142243133Y-57999999D02*
X142957419Y-57809523D01*
X142957419Y-57809523D02*
X141957419Y-57571428D01*
X142052657Y-57238094D02*
X142005038Y-57190475D01*
X142005038Y-57190475D02*
X141957419Y-57095237D01*
X141957419Y-57095237D02*
X141957419Y-56857142D01*
X141957419Y-56857142D02*
X142005038Y-56761904D01*
X142005038Y-56761904D02*
X142052657Y-56714285D01*
X142052657Y-56714285D02*
X142147895Y-56666666D01*
X142147895Y-56666666D02*
X142243133Y-56666666D01*
X142243133Y-56666666D02*
X142385990Y-56714285D01*
X142385990Y-56714285D02*
X142957419Y-57285713D01*
X142957419Y-57285713D02*
X142957419Y-56666666D01*
X142957419Y-34880951D02*
X141957419Y-34880951D01*
X142957419Y-34404761D02*
X141957419Y-34404761D01*
X141957419Y-34404761D02*
X142957419Y-33833333D01*
X142957419Y-33833333D02*
X141957419Y-33833333D01*
X141957419Y-33499999D02*
X141957419Y-32928571D01*
X142957419Y-33214285D02*
X141957419Y-33214285D01*
X141957419Y-32166666D02*
X141957419Y-32357142D01*
X141957419Y-32357142D02*
X142005038Y-32452380D01*
X142005038Y-32452380D02*
X142052657Y-32499999D01*
X142052657Y-32499999D02*
X142195514Y-32595237D01*
X142195514Y-32595237D02*
X142385990Y-32642856D01*
X142385990Y-32642856D02*
X142766942Y-32642856D01*
X142766942Y-32642856D02*
X142862180Y-32595237D01*
X142862180Y-32595237D02*
X142909800Y-32547618D01*
X142909800Y-32547618D02*
X142957419Y-32452380D01*
X142957419Y-32452380D02*
X142957419Y-32261904D01*
X142957419Y-32261904D02*
X142909800Y-32166666D01*
X142909800Y-32166666D02*
X142862180Y-32119047D01*
X142862180Y-32119047D02*
X142766942Y-32071428D01*
X142766942Y-32071428D02*
X142528847Y-32071428D01*
X142528847Y-32071428D02*
X142433609Y-32119047D01*
X142433609Y-32119047D02*
X142385990Y-32166666D01*
X142385990Y-32166666D02*
X142338371Y-32261904D01*
X142338371Y-32261904D02*
X142338371Y-32452380D01*
X142338371Y-32452380D02*
X142385990Y-32547618D01*
X142385990Y-32547618D02*
X142433609Y-32595237D01*
X142433609Y-32595237D02*
X142528847Y-32642856D01*
X139238095Y-84909800D02*
X139380952Y-84957419D01*
X139380952Y-84957419D02*
X139619047Y-84957419D01*
X139619047Y-84957419D02*
X139714285Y-84909800D01*
X139714285Y-84909800D02*
X139761904Y-84862180D01*
X139761904Y-84862180D02*
X139809523Y-84766942D01*
X139809523Y-84766942D02*
X139809523Y-84671704D01*
X139809523Y-84671704D02*
X139761904Y-84576466D01*
X139761904Y-84576466D02*
X139714285Y-84528847D01*
X139714285Y-84528847D02*
X139619047Y-84481228D01*
X139619047Y-84481228D02*
X139428571Y-84433609D01*
X139428571Y-84433609D02*
X139333333Y-84385990D01*
X139333333Y-84385990D02*
X139285714Y-84338371D01*
X139285714Y-84338371D02*
X139238095Y-84243133D01*
X139238095Y-84243133D02*
X139238095Y-84147895D01*
X139238095Y-84147895D02*
X139285714Y-84052657D01*
X139285714Y-84052657D02*
X139333333Y-84005038D01*
X139333333Y-84005038D02*
X139428571Y-83957419D01*
X139428571Y-83957419D02*
X139666666Y-83957419D01*
X139666666Y-83957419D02*
X139809523Y-84005038D01*
X140238095Y-84957419D02*
X140238095Y-83957419D01*
X140238095Y-83957419D02*
X140476190Y-83957419D01*
X140476190Y-83957419D02*
X140619047Y-84005038D01*
X140619047Y-84005038D02*
X140714285Y-84100276D01*
X140714285Y-84100276D02*
X140761904Y-84195514D01*
X140761904Y-84195514D02*
X140809523Y-84385990D01*
X140809523Y-84385990D02*
X140809523Y-84528847D01*
X140809523Y-84528847D02*
X140761904Y-84719323D01*
X140761904Y-84719323D02*
X140714285Y-84814561D01*
X140714285Y-84814561D02*
X140619047Y-84909800D01*
X140619047Y-84909800D02*
X140476190Y-84957419D01*
X140476190Y-84957419D02*
X140238095Y-84957419D01*
X141666666Y-84290752D02*
X141666666Y-84957419D01*
X141428571Y-83909800D02*
X141190476Y-84624085D01*
X141190476Y-84624085D02*
X141809523Y-84624085D01*
X137957419Y-43738094D02*
X137957419Y-43119047D01*
X137957419Y-43119047D02*
X138338371Y-43452380D01*
X138338371Y-43452380D02*
X138338371Y-43309523D01*
X138338371Y-43309523D02*
X138385990Y-43214285D01*
X138385990Y-43214285D02*
X138433609Y-43166666D01*
X138433609Y-43166666D02*
X138528847Y-43119047D01*
X138528847Y-43119047D02*
X138766942Y-43119047D01*
X138766942Y-43119047D02*
X138862180Y-43166666D01*
X138862180Y-43166666D02*
X138909800Y-43214285D01*
X138909800Y-43214285D02*
X138957419Y-43309523D01*
X138957419Y-43309523D02*
X138957419Y-43595237D01*
X138957419Y-43595237D02*
X138909800Y-43690475D01*
X138909800Y-43690475D02*
X138862180Y-43738094D01*
X137957419Y-42833332D02*
X138957419Y-42499999D01*
X138957419Y-42499999D02*
X137957419Y-42166666D01*
X137957419Y-41404761D02*
X137957419Y-41595237D01*
X137957419Y-41595237D02*
X138005038Y-41690475D01*
X138005038Y-41690475D02*
X138052657Y-41738094D01*
X138052657Y-41738094D02*
X138195514Y-41833332D01*
X138195514Y-41833332D02*
X138385990Y-41880951D01*
X138385990Y-41880951D02*
X138766942Y-41880951D01*
X138766942Y-41880951D02*
X138862180Y-41833332D01*
X138862180Y-41833332D02*
X138909800Y-41785713D01*
X138909800Y-41785713D02*
X138957419Y-41690475D01*
X138957419Y-41690475D02*
X138957419Y-41499999D01*
X138957419Y-41499999D02*
X138909800Y-41404761D01*
X138909800Y-41404761D02*
X138862180Y-41357142D01*
X138862180Y-41357142D02*
X138766942Y-41309523D01*
X138766942Y-41309523D02*
X138528847Y-41309523D01*
X138528847Y-41309523D02*
X138433609Y-41357142D01*
X138433609Y-41357142D02*
X138385990Y-41404761D01*
X138385990Y-41404761D02*
X138338371Y-41499999D01*
X138338371Y-41499999D02*
X138338371Y-41690475D01*
X138338371Y-41690475D02*
X138385990Y-41785713D01*
X138385990Y-41785713D02*
X138433609Y-41833332D01*
X138433609Y-41833332D02*
X138528847Y-41880951D01*
X138576466Y-50666666D02*
X138576466Y-49904762D01*
X138433609Y-49095238D02*
X138481228Y-48952381D01*
X138481228Y-48952381D02*
X138528847Y-48904762D01*
X138528847Y-48904762D02*
X138624085Y-48857143D01*
X138624085Y-48857143D02*
X138766942Y-48857143D01*
X138766942Y-48857143D02*
X138862180Y-48904762D01*
X138862180Y-48904762D02*
X138909800Y-48952381D01*
X138909800Y-48952381D02*
X138957419Y-49047619D01*
X138957419Y-49047619D02*
X138957419Y-49428571D01*
X138957419Y-49428571D02*
X137957419Y-49428571D01*
X137957419Y-49428571D02*
X137957419Y-49095238D01*
X137957419Y-49095238D02*
X138005038Y-49000000D01*
X138005038Y-49000000D02*
X138052657Y-48952381D01*
X138052657Y-48952381D02*
X138147895Y-48904762D01*
X138147895Y-48904762D02*
X138243133Y-48904762D01*
X138243133Y-48904762D02*
X138338371Y-48952381D01*
X138338371Y-48952381D02*
X138385990Y-49000000D01*
X138385990Y-49000000D02*
X138433609Y-49095238D01*
X138433609Y-49095238D02*
X138433609Y-49428571D01*
X138671704Y-48476190D02*
X138671704Y-48000000D01*
X138957419Y-48571428D02*
X137957419Y-48238095D01*
X137957419Y-48238095D02*
X138957419Y-47904762D01*
X137957419Y-47714285D02*
X137957419Y-47142857D01*
X138957419Y-47428571D02*
X137957419Y-47428571D01*
X138957419Y-46285714D02*
X138957419Y-46857142D01*
X138957419Y-46571428D02*
X137957419Y-46571428D01*
X137957419Y-46571428D02*
X138100276Y-46666666D01*
X138100276Y-46666666D02*
X138195514Y-46761904D01*
X138195514Y-46761904D02*
X138243133Y-46857142D01*
D11*
X107239580Y-51867857D02*
X107287200Y-51915476D01*
X107287200Y-51915476D02*
X107334819Y-52058333D01*
X107334819Y-52058333D02*
X107334819Y-52153571D01*
X107334819Y-52153571D02*
X107287200Y-52296428D01*
X107287200Y-52296428D02*
X107191961Y-52391666D01*
X107191961Y-52391666D02*
X107096723Y-52439285D01*
X107096723Y-52439285D02*
X106906247Y-52486904D01*
X106906247Y-52486904D02*
X106763390Y-52486904D01*
X106763390Y-52486904D02*
X106572914Y-52439285D01*
X106572914Y-52439285D02*
X106477676Y-52391666D01*
X106477676Y-52391666D02*
X106382438Y-52296428D01*
X106382438Y-52296428D02*
X106334819Y-52153571D01*
X106334819Y-52153571D02*
X106334819Y-52058333D01*
X106334819Y-52058333D02*
X106382438Y-51915476D01*
X106382438Y-51915476D02*
X106430057Y-51867857D01*
X107334819Y-50915476D02*
X107334819Y-51486904D01*
X107334819Y-51201190D02*
X106334819Y-51201190D01*
X106334819Y-51201190D02*
X106477676Y-51296428D01*
X106477676Y-51296428D02*
X106572914Y-51391666D01*
X106572914Y-51391666D02*
X106620533Y-51486904D01*
X106334819Y-50296428D02*
X106334819Y-50201190D01*
X106334819Y-50201190D02*
X106382438Y-50105952D01*
X106382438Y-50105952D02*
X106430057Y-50058333D01*
X106430057Y-50058333D02*
X106525295Y-50010714D01*
X106525295Y-50010714D02*
X106715771Y-49963095D01*
X106715771Y-49963095D02*
X106953866Y-49963095D01*
X106953866Y-49963095D02*
X107144342Y-50010714D01*
X107144342Y-50010714D02*
X107239580Y-50058333D01*
X107239580Y-50058333D02*
X107287200Y-50105952D01*
X107287200Y-50105952D02*
X107334819Y-50201190D01*
X107334819Y-50201190D02*
X107334819Y-50296428D01*
X107334819Y-50296428D02*
X107287200Y-50391666D01*
X107287200Y-50391666D02*
X107239580Y-50439285D01*
X107239580Y-50439285D02*
X107144342Y-50486904D01*
X107144342Y-50486904D02*
X106953866Y-50534523D01*
X106953866Y-50534523D02*
X106715771Y-50534523D01*
X106715771Y-50534523D02*
X106525295Y-50486904D01*
X106525295Y-50486904D02*
X106430057Y-50439285D01*
X106430057Y-50439285D02*
X106382438Y-50391666D01*
X106382438Y-50391666D02*
X106334819Y-50296428D01*
D12*
X141957419Y-71238094D02*
X141957419Y-70619047D01*
X141957419Y-70619047D02*
X142338371Y-70952380D01*
X142338371Y-70952380D02*
X142338371Y-70809523D01*
X142338371Y-70809523D02*
X142385990Y-70714285D01*
X142385990Y-70714285D02*
X142433609Y-70666666D01*
X142433609Y-70666666D02*
X142528847Y-70619047D01*
X142528847Y-70619047D02*
X142766942Y-70619047D01*
X142766942Y-70619047D02*
X142862180Y-70666666D01*
X142862180Y-70666666D02*
X142909800Y-70714285D01*
X142909800Y-70714285D02*
X142957419Y-70809523D01*
X142957419Y-70809523D02*
X142957419Y-71095237D01*
X142957419Y-71095237D02*
X142909800Y-71190475D01*
X142909800Y-71190475D02*
X142862180Y-71238094D01*
X141957419Y-70333332D02*
X142957419Y-69999999D01*
X142957419Y-69999999D02*
X141957419Y-69666666D01*
X141957419Y-68857142D02*
X141957419Y-69333332D01*
X141957419Y-69333332D02*
X142433609Y-69380951D01*
X142433609Y-69380951D02*
X142385990Y-69333332D01*
X142385990Y-69333332D02*
X142338371Y-69238094D01*
X142338371Y-69238094D02*
X142338371Y-68999999D01*
X142338371Y-68999999D02*
X142385990Y-68904761D01*
X142385990Y-68904761D02*
X142433609Y-68857142D01*
X142433609Y-68857142D02*
X142528847Y-68809523D01*
X142528847Y-68809523D02*
X142766942Y-68809523D01*
X142766942Y-68809523D02*
X142862180Y-68857142D01*
X142862180Y-68857142D02*
X142909800Y-68904761D01*
X142909800Y-68904761D02*
X142957419Y-68999999D01*
X142957419Y-68999999D02*
X142957419Y-69238094D01*
X142957419Y-69238094D02*
X142909800Y-69333332D01*
X142909800Y-69333332D02*
X142862180Y-69380951D01*
D11*
X123333333Y-67024819D02*
X123000000Y-66548628D01*
X122761905Y-67024819D02*
X122761905Y-66024819D01*
X122761905Y-66024819D02*
X123142857Y-66024819D01*
X123142857Y-66024819D02*
X123238095Y-66072438D01*
X123238095Y-66072438D02*
X123285714Y-66120057D01*
X123285714Y-66120057D02*
X123333333Y-66215295D01*
X123333333Y-66215295D02*
X123333333Y-66358152D01*
X123333333Y-66358152D02*
X123285714Y-66453390D01*
X123285714Y-66453390D02*
X123238095Y-66501009D01*
X123238095Y-66501009D02*
X123142857Y-66548628D01*
X123142857Y-66548628D02*
X122761905Y-66548628D01*
X124285714Y-67024819D02*
X123714286Y-67024819D01*
X124000000Y-67024819D02*
X124000000Y-66024819D01*
X124000000Y-66024819D02*
X123904762Y-66167676D01*
X123904762Y-66167676D02*
X123809524Y-66262914D01*
X123809524Y-66262914D02*
X123714286Y-66310533D01*
D12*
X142957419Y-77380951D02*
X141957419Y-77380951D01*
X142957419Y-76904761D02*
X141957419Y-76904761D01*
X141957419Y-76904761D02*
X142957419Y-76333333D01*
X142957419Y-76333333D02*
X141957419Y-76333333D01*
X141957419Y-75999999D02*
X141957419Y-75428571D01*
X142957419Y-75714285D02*
X141957419Y-75714285D01*
X142290752Y-74666666D02*
X142957419Y-74666666D01*
X141909800Y-74904761D02*
X142624085Y-75142856D01*
X142624085Y-75142856D02*
X142624085Y-74523809D01*
X134928571Y-35566390D02*
X134785714Y-35518771D01*
X134785714Y-35518771D02*
X134738095Y-35471152D01*
X134738095Y-35471152D02*
X134690476Y-35375914D01*
X134690476Y-35375914D02*
X134690476Y-35233057D01*
X134690476Y-35233057D02*
X134738095Y-35137819D01*
X134738095Y-35137819D02*
X134785714Y-35090200D01*
X134785714Y-35090200D02*
X134880952Y-35042580D01*
X134880952Y-35042580D02*
X135261904Y-35042580D01*
X135261904Y-35042580D02*
X135261904Y-36042580D01*
X135261904Y-36042580D02*
X134928571Y-36042580D01*
X134928571Y-36042580D02*
X134833333Y-35994961D01*
X134833333Y-35994961D02*
X134785714Y-35947342D01*
X134785714Y-35947342D02*
X134738095Y-35852104D01*
X134738095Y-35852104D02*
X134738095Y-35756866D01*
X134738095Y-35756866D02*
X134785714Y-35661628D01*
X134785714Y-35661628D02*
X134833333Y-35614009D01*
X134833333Y-35614009D02*
X134928571Y-35566390D01*
X134928571Y-35566390D02*
X135261904Y-35566390D01*
X134071428Y-36042580D02*
X133880952Y-36042580D01*
X133880952Y-36042580D02*
X133785714Y-35994961D01*
X133785714Y-35994961D02*
X133690476Y-35899723D01*
X133690476Y-35899723D02*
X133642857Y-35709247D01*
X133642857Y-35709247D02*
X133642857Y-35375914D01*
X133642857Y-35375914D02*
X133690476Y-35185438D01*
X133690476Y-35185438D02*
X133785714Y-35090200D01*
X133785714Y-35090200D02*
X133880952Y-35042580D01*
X133880952Y-35042580D02*
X134071428Y-35042580D01*
X134071428Y-35042580D02*
X134166666Y-35090200D01*
X134166666Y-35090200D02*
X134261904Y-35185438D01*
X134261904Y-35185438D02*
X134309523Y-35375914D01*
X134309523Y-35375914D02*
X134309523Y-35709247D01*
X134309523Y-35709247D02*
X134261904Y-35899723D01*
X134261904Y-35899723D02*
X134166666Y-35994961D01*
X134166666Y-35994961D02*
X134071428Y-36042580D01*
X132690476Y-35042580D02*
X133261904Y-35042580D01*
X132976190Y-35042580D02*
X132976190Y-36042580D01*
X132976190Y-36042580D02*
X133071428Y-35899723D01*
X133071428Y-35899723D02*
X133166666Y-35804485D01*
X133166666Y-35804485D02*
X133261904Y-35756866D01*
X138909800Y-37761904D02*
X138957419Y-37619047D01*
X138957419Y-37619047D02*
X138957419Y-37380952D01*
X138957419Y-37380952D02*
X138909800Y-37285714D01*
X138909800Y-37285714D02*
X138862180Y-37238095D01*
X138862180Y-37238095D02*
X138766942Y-37190476D01*
X138766942Y-37190476D02*
X138671704Y-37190476D01*
X138671704Y-37190476D02*
X138576466Y-37238095D01*
X138576466Y-37238095D02*
X138528847Y-37285714D01*
X138528847Y-37285714D02*
X138481228Y-37380952D01*
X138481228Y-37380952D02*
X138433609Y-37571428D01*
X138433609Y-37571428D02*
X138385990Y-37666666D01*
X138385990Y-37666666D02*
X138338371Y-37714285D01*
X138338371Y-37714285D02*
X138243133Y-37761904D01*
X138243133Y-37761904D02*
X138147895Y-37761904D01*
X138147895Y-37761904D02*
X138052657Y-37714285D01*
X138052657Y-37714285D02*
X138005038Y-37666666D01*
X138005038Y-37666666D02*
X137957419Y-37571428D01*
X137957419Y-37571428D02*
X137957419Y-37333333D01*
X137957419Y-37333333D02*
X138005038Y-37190476D01*
X138862180Y-36190476D02*
X138909800Y-36238095D01*
X138909800Y-36238095D02*
X138957419Y-36380952D01*
X138957419Y-36380952D02*
X138957419Y-36476190D01*
X138957419Y-36476190D02*
X138909800Y-36619047D01*
X138909800Y-36619047D02*
X138814561Y-36714285D01*
X138814561Y-36714285D02*
X138719323Y-36761904D01*
X138719323Y-36761904D02*
X138528847Y-36809523D01*
X138528847Y-36809523D02*
X138385990Y-36809523D01*
X138385990Y-36809523D02*
X138195514Y-36761904D01*
X138195514Y-36761904D02*
X138100276Y-36714285D01*
X138100276Y-36714285D02*
X138005038Y-36619047D01*
X138005038Y-36619047D02*
X137957419Y-36476190D01*
X137957419Y-36476190D02*
X137957419Y-36380952D01*
X137957419Y-36380952D02*
X138005038Y-36238095D01*
X138005038Y-36238095D02*
X138052657Y-36190476D01*
X137957419Y-35333333D02*
X137957419Y-35523809D01*
X137957419Y-35523809D02*
X138005038Y-35619047D01*
X138005038Y-35619047D02*
X138052657Y-35666666D01*
X138052657Y-35666666D02*
X138195514Y-35761904D01*
X138195514Y-35761904D02*
X138385990Y-35809523D01*
X138385990Y-35809523D02*
X138766942Y-35809523D01*
X138766942Y-35809523D02*
X138862180Y-35761904D01*
X138862180Y-35761904D02*
X138909800Y-35714285D01*
X138909800Y-35714285D02*
X138957419Y-35619047D01*
X138957419Y-35619047D02*
X138957419Y-35428571D01*
X138957419Y-35428571D02*
X138909800Y-35333333D01*
X138909800Y-35333333D02*
X138862180Y-35285714D01*
X138862180Y-35285714D02*
X138766942Y-35238095D01*
X138766942Y-35238095D02*
X138528847Y-35238095D01*
X138528847Y-35238095D02*
X138433609Y-35285714D01*
X138433609Y-35285714D02*
X138385990Y-35333333D01*
X138385990Y-35333333D02*
X138338371Y-35428571D01*
X138338371Y-35428571D02*
X138338371Y-35619047D01*
X138338371Y-35619047D02*
X138385990Y-35714285D01*
X138385990Y-35714285D02*
X138433609Y-35761904D01*
X138433609Y-35761904D02*
X138528847Y-35809523D01*
X138957419Y-62380951D02*
X137957419Y-62380951D01*
X138957419Y-61904761D02*
X137957419Y-61904761D01*
X137957419Y-61904761D02*
X138957419Y-61333333D01*
X138957419Y-61333333D02*
X137957419Y-61333333D01*
X137957419Y-60999999D02*
X137957419Y-60428571D01*
X138957419Y-60714285D02*
X137957419Y-60714285D01*
X137957419Y-59619047D02*
X137957419Y-60095237D01*
X137957419Y-60095237D02*
X138433609Y-60142856D01*
X138433609Y-60142856D02*
X138385990Y-60095237D01*
X138385990Y-60095237D02*
X138338371Y-59999999D01*
X138338371Y-59999999D02*
X138338371Y-59761904D01*
X138338371Y-59761904D02*
X138385990Y-59666666D01*
X138385990Y-59666666D02*
X138433609Y-59619047D01*
X138433609Y-59619047D02*
X138528847Y-59571428D01*
X138528847Y-59571428D02*
X138766942Y-59571428D01*
X138766942Y-59571428D02*
X138862180Y-59619047D01*
X138862180Y-59619047D02*
X138909800Y-59666666D01*
X138909800Y-59666666D02*
X138957419Y-59761904D01*
X138957419Y-59761904D02*
X138957419Y-59999999D01*
X138957419Y-59999999D02*
X138909800Y-60095237D01*
X138909800Y-60095237D02*
X138862180Y-60142856D01*
X142576466Y-53666666D02*
X142576466Y-52904762D01*
X142957419Y-53285714D02*
X142195514Y-53285714D01*
X142433609Y-52095238D02*
X142481228Y-51952381D01*
X142481228Y-51952381D02*
X142528847Y-51904762D01*
X142528847Y-51904762D02*
X142624085Y-51857143D01*
X142624085Y-51857143D02*
X142766942Y-51857143D01*
X142766942Y-51857143D02*
X142862180Y-51904762D01*
X142862180Y-51904762D02*
X142909800Y-51952381D01*
X142909800Y-51952381D02*
X142957419Y-52047619D01*
X142957419Y-52047619D02*
X142957419Y-52428571D01*
X142957419Y-52428571D02*
X141957419Y-52428571D01*
X141957419Y-52428571D02*
X141957419Y-52095238D01*
X141957419Y-52095238D02*
X142005038Y-52000000D01*
X142005038Y-52000000D02*
X142052657Y-51952381D01*
X142052657Y-51952381D02*
X142147895Y-51904762D01*
X142147895Y-51904762D02*
X142243133Y-51904762D01*
X142243133Y-51904762D02*
X142338371Y-51952381D01*
X142338371Y-51952381D02*
X142385990Y-52000000D01*
X142385990Y-52000000D02*
X142433609Y-52095238D01*
X142433609Y-52095238D02*
X142433609Y-52428571D01*
X142671704Y-51476190D02*
X142671704Y-51000000D01*
X142957419Y-51571428D02*
X141957419Y-51238095D01*
X141957419Y-51238095D02*
X142957419Y-50904762D01*
X141957419Y-50714285D02*
X141957419Y-50142857D01*
X142957419Y-50428571D02*
X141957419Y-50428571D01*
X142957419Y-49285714D02*
X142957419Y-49857142D01*
X142957419Y-49571428D02*
X141957419Y-49571428D01*
X141957419Y-49571428D02*
X142100276Y-49666666D01*
X142100276Y-49666666D02*
X142195514Y-49761904D01*
X142195514Y-49761904D02*
X142243133Y-49857142D01*
X102042580Y-74619048D02*
X103042580Y-74619048D01*
X102042580Y-75095238D02*
X103042580Y-75095238D01*
X103042580Y-75095238D02*
X102042580Y-75666666D01*
X102042580Y-75666666D02*
X103042580Y-75666666D01*
X103042580Y-76000000D02*
X103042580Y-76571428D01*
X102042580Y-76285714D02*
X103042580Y-76285714D01*
X102947342Y-76857143D02*
X102994961Y-76904762D01*
X102994961Y-76904762D02*
X103042580Y-77000000D01*
X103042580Y-77000000D02*
X103042580Y-77238095D01*
X103042580Y-77238095D02*
X102994961Y-77333333D01*
X102994961Y-77333333D02*
X102947342Y-77380952D01*
X102947342Y-77380952D02*
X102852104Y-77428571D01*
X102852104Y-77428571D02*
X102756866Y-77428571D01*
X102756866Y-77428571D02*
X102614009Y-77380952D01*
X102614009Y-77380952D02*
X102042580Y-76809524D01*
X102042580Y-76809524D02*
X102042580Y-77428571D01*
D11*
X115357142Y-75929580D02*
X115309523Y-75977200D01*
X115309523Y-75977200D02*
X115166666Y-76024819D01*
X115166666Y-76024819D02*
X115071428Y-76024819D01*
X115071428Y-76024819D02*
X114928571Y-75977200D01*
X114928571Y-75977200D02*
X114833333Y-75881961D01*
X114833333Y-75881961D02*
X114785714Y-75786723D01*
X114785714Y-75786723D02*
X114738095Y-75596247D01*
X114738095Y-75596247D02*
X114738095Y-75453390D01*
X114738095Y-75453390D02*
X114785714Y-75262914D01*
X114785714Y-75262914D02*
X114833333Y-75167676D01*
X114833333Y-75167676D02*
X114928571Y-75072438D01*
X114928571Y-75072438D02*
X115071428Y-75024819D01*
X115071428Y-75024819D02*
X115166666Y-75024819D01*
X115166666Y-75024819D02*
X115309523Y-75072438D01*
X115309523Y-75072438D02*
X115357142Y-75120057D01*
X116309523Y-76024819D02*
X115738095Y-76024819D01*
X116023809Y-76024819D02*
X116023809Y-75024819D01*
X116023809Y-75024819D02*
X115928571Y-75167676D01*
X115928571Y-75167676D02*
X115833333Y-75262914D01*
X115833333Y-75262914D02*
X115738095Y-75310533D01*
X117166666Y-75358152D02*
X117166666Y-76024819D01*
X116928571Y-74977200D02*
X116690476Y-75691485D01*
X116690476Y-75691485D02*
X117309523Y-75691485D01*
X126833333Y-68054819D02*
X126500000Y-67578628D01*
X126261905Y-68054819D02*
X126261905Y-67054819D01*
X126261905Y-67054819D02*
X126642857Y-67054819D01*
X126642857Y-67054819D02*
X126738095Y-67102438D01*
X126738095Y-67102438D02*
X126785714Y-67150057D01*
X126785714Y-67150057D02*
X126833333Y-67245295D01*
X126833333Y-67245295D02*
X126833333Y-67388152D01*
X126833333Y-67388152D02*
X126785714Y-67483390D01*
X126785714Y-67483390D02*
X126738095Y-67531009D01*
X126738095Y-67531009D02*
X126642857Y-67578628D01*
X126642857Y-67578628D02*
X126261905Y-67578628D01*
X127690476Y-67388152D02*
X127690476Y-68054819D01*
X127452381Y-67007200D02*
X127214286Y-67721485D01*
X127214286Y-67721485D02*
X127833333Y-67721485D01*
D12*
X109619048Y-84957419D02*
X109619048Y-83957419D01*
X110095238Y-84957419D02*
X110095238Y-83957419D01*
X110095238Y-83957419D02*
X110666666Y-84957419D01*
X110666666Y-84957419D02*
X110666666Y-83957419D01*
X111000000Y-83957419D02*
X111571428Y-83957419D01*
X111285714Y-84957419D02*
X111285714Y-83957419D01*
X111809524Y-83957419D02*
X112428571Y-83957419D01*
X112428571Y-83957419D02*
X112095238Y-84338371D01*
X112095238Y-84338371D02*
X112238095Y-84338371D01*
X112238095Y-84338371D02*
X112333333Y-84385990D01*
X112333333Y-84385990D02*
X112380952Y-84433609D01*
X112380952Y-84433609D02*
X112428571Y-84528847D01*
X112428571Y-84528847D02*
X112428571Y-84766942D01*
X112428571Y-84766942D02*
X112380952Y-84862180D01*
X112380952Y-84862180D02*
X112333333Y-84909800D01*
X112333333Y-84909800D02*
X112238095Y-84957419D01*
X112238095Y-84957419D02*
X111952381Y-84957419D01*
X111952381Y-84957419D02*
X111857143Y-84909800D01*
X111857143Y-84909800D02*
X111809524Y-84862180D01*
X98994961Y-78261904D02*
X99042580Y-78166666D01*
X99042580Y-78166666D02*
X99042580Y-78023809D01*
X99042580Y-78023809D02*
X98994961Y-77880952D01*
X98994961Y-77880952D02*
X98899723Y-77785714D01*
X98899723Y-77785714D02*
X98804485Y-77738095D01*
X98804485Y-77738095D02*
X98614009Y-77690476D01*
X98614009Y-77690476D02*
X98471152Y-77690476D01*
X98471152Y-77690476D02*
X98280676Y-77738095D01*
X98280676Y-77738095D02*
X98185438Y-77785714D01*
X98185438Y-77785714D02*
X98090200Y-77880952D01*
X98090200Y-77880952D02*
X98042580Y-78023809D01*
X98042580Y-78023809D02*
X98042580Y-78119047D01*
X98042580Y-78119047D02*
X98090200Y-78261904D01*
X98090200Y-78261904D02*
X98137819Y-78309523D01*
X98137819Y-78309523D02*
X98471152Y-78309523D01*
X98471152Y-78309523D02*
X98471152Y-78119047D01*
X98042580Y-78738095D02*
X99042580Y-78738095D01*
X99042580Y-78738095D02*
X98042580Y-79309523D01*
X98042580Y-79309523D02*
X99042580Y-79309523D01*
X99042580Y-79690476D02*
X99042580Y-80309523D01*
X99042580Y-80309523D02*
X98661628Y-79976190D01*
X98661628Y-79976190D02*
X98661628Y-80119047D01*
X98661628Y-80119047D02*
X98614009Y-80214285D01*
X98614009Y-80214285D02*
X98566390Y-80261904D01*
X98566390Y-80261904D02*
X98471152Y-80309523D01*
X98471152Y-80309523D02*
X98233057Y-80309523D01*
X98233057Y-80309523D02*
X98137819Y-80261904D01*
X98137819Y-80261904D02*
X98090200Y-80214285D01*
X98090200Y-80214285D02*
X98042580Y-80119047D01*
X98042580Y-80119047D02*
X98042580Y-79833333D01*
X98042580Y-79833333D02*
X98090200Y-79738095D01*
X98090200Y-79738095D02*
X98137819Y-79690476D01*
D11*
X107854819Y-67233333D02*
X107854819Y-67804761D01*
X107854819Y-67519047D02*
X106854819Y-67519047D01*
X106854819Y-67519047D02*
X106997676Y-67614285D01*
X106997676Y-67614285D02*
X107092914Y-67709523D01*
X107092914Y-67709523D02*
X107140533Y-67804761D01*
X107759580Y-66804761D02*
X107807200Y-66757142D01*
X107807200Y-66757142D02*
X107854819Y-66804761D01*
X107854819Y-66804761D02*
X107807200Y-66852380D01*
X107807200Y-66852380D02*
X107759580Y-66804761D01*
X107759580Y-66804761D02*
X107854819Y-66804761D01*
X106854819Y-65852381D02*
X106854819Y-66328571D01*
X106854819Y-66328571D02*
X107331009Y-66376190D01*
X107331009Y-66376190D02*
X107283390Y-66328571D01*
X107283390Y-66328571D02*
X107235771Y-66233333D01*
X107235771Y-66233333D02*
X107235771Y-65995238D01*
X107235771Y-65995238D02*
X107283390Y-65900000D01*
X107283390Y-65900000D02*
X107331009Y-65852381D01*
X107331009Y-65852381D02*
X107426247Y-65804762D01*
X107426247Y-65804762D02*
X107664342Y-65804762D01*
X107664342Y-65804762D02*
X107759580Y-65852381D01*
X107759580Y-65852381D02*
X107807200Y-65900000D01*
X107807200Y-65900000D02*
X107854819Y-65995238D01*
X107854819Y-65995238D02*
X107854819Y-66233333D01*
X107854819Y-66233333D02*
X107807200Y-66328571D01*
X107807200Y-66328571D02*
X107759580Y-66376190D01*
X107854819Y-65376190D02*
X106854819Y-65376190D01*
X107473866Y-65280952D02*
X107854819Y-64995238D01*
X107188152Y-64995238D02*
X107569104Y-65376190D01*
D12*
X132238094Y-31328295D02*
X131761904Y-31328295D01*
X132333332Y-31042580D02*
X131999999Y-32042580D01*
X131999999Y-32042580D02*
X131666666Y-31042580D01*
X131142856Y-32042580D02*
X130952380Y-32042580D01*
X130952380Y-32042580D02*
X130857142Y-31994961D01*
X130857142Y-31994961D02*
X130761904Y-31899723D01*
X130761904Y-31899723D02*
X130714285Y-31709247D01*
X130714285Y-31709247D02*
X130714285Y-31375914D01*
X130714285Y-31375914D02*
X130761904Y-31185438D01*
X130761904Y-31185438D02*
X130857142Y-31090200D01*
X130857142Y-31090200D02*
X130952380Y-31042580D01*
X130952380Y-31042580D02*
X131142856Y-31042580D01*
X131142856Y-31042580D02*
X131238094Y-31090200D01*
X131238094Y-31090200D02*
X131333332Y-31185438D01*
X131333332Y-31185438D02*
X131380951Y-31375914D01*
X131380951Y-31375914D02*
X131380951Y-31709247D01*
X131380951Y-31709247D02*
X131333332Y-31899723D01*
X131333332Y-31899723D02*
X131238094Y-31994961D01*
X131238094Y-31994961D02*
X131142856Y-32042580D01*
X130333332Y-31947342D02*
X130285713Y-31994961D01*
X130285713Y-31994961D02*
X130190475Y-32042580D01*
X130190475Y-32042580D02*
X129952380Y-32042580D01*
X129952380Y-32042580D02*
X129857142Y-31994961D01*
X129857142Y-31994961D02*
X129809523Y-31947342D01*
X129809523Y-31947342D02*
X129761904Y-31852104D01*
X129761904Y-31852104D02*
X129761904Y-31756866D01*
X129761904Y-31756866D02*
X129809523Y-31614009D01*
X129809523Y-31614009D02*
X130380951Y-31042580D01*
X130380951Y-31042580D02*
X129761904Y-31042580D01*
X102042580Y-44119048D02*
X103042580Y-44119048D01*
X102042580Y-44595238D02*
X103042580Y-44595238D01*
X103042580Y-44595238D02*
X102042580Y-45166666D01*
X102042580Y-45166666D02*
X103042580Y-45166666D01*
X103042580Y-45500000D02*
X103042580Y-46071428D01*
X102042580Y-45785714D02*
X103042580Y-45785714D01*
X103042580Y-46595238D02*
X103042580Y-46690476D01*
X103042580Y-46690476D02*
X102994961Y-46785714D01*
X102994961Y-46785714D02*
X102947342Y-46833333D01*
X102947342Y-46833333D02*
X102852104Y-46880952D01*
X102852104Y-46880952D02*
X102661628Y-46928571D01*
X102661628Y-46928571D02*
X102423533Y-46928571D01*
X102423533Y-46928571D02*
X102233057Y-46880952D01*
X102233057Y-46880952D02*
X102137819Y-46833333D01*
X102137819Y-46833333D02*
X102090200Y-46785714D01*
X102090200Y-46785714D02*
X102042580Y-46690476D01*
X102042580Y-46690476D02*
X102042580Y-46595238D01*
X102042580Y-46595238D02*
X102090200Y-46500000D01*
X102090200Y-46500000D02*
X102137819Y-46452381D01*
X102137819Y-46452381D02*
X102233057Y-46404762D01*
X102233057Y-46404762D02*
X102423533Y-46357143D01*
X102423533Y-46357143D02*
X102661628Y-46357143D01*
X102661628Y-46357143D02*
X102852104Y-46404762D01*
X102852104Y-46404762D02*
X102947342Y-46452381D01*
X102947342Y-46452381D02*
X102994961Y-46500000D01*
X102994961Y-46500000D02*
X103042580Y-46595238D01*
X142909800Y-65261904D02*
X142957419Y-65119047D01*
X142957419Y-65119047D02*
X142957419Y-64880952D01*
X142957419Y-64880952D02*
X142909800Y-64785714D01*
X142909800Y-64785714D02*
X142862180Y-64738095D01*
X142862180Y-64738095D02*
X142766942Y-64690476D01*
X142766942Y-64690476D02*
X142671704Y-64690476D01*
X142671704Y-64690476D02*
X142576466Y-64738095D01*
X142576466Y-64738095D02*
X142528847Y-64785714D01*
X142528847Y-64785714D02*
X142481228Y-64880952D01*
X142481228Y-64880952D02*
X142433609Y-65071428D01*
X142433609Y-65071428D02*
X142385990Y-65166666D01*
X142385990Y-65166666D02*
X142338371Y-65214285D01*
X142338371Y-65214285D02*
X142243133Y-65261904D01*
X142243133Y-65261904D02*
X142147895Y-65261904D01*
X142147895Y-65261904D02*
X142052657Y-65214285D01*
X142052657Y-65214285D02*
X142005038Y-65166666D01*
X142005038Y-65166666D02*
X141957419Y-65071428D01*
X141957419Y-65071428D02*
X141957419Y-64833333D01*
X141957419Y-64833333D02*
X142005038Y-64690476D01*
X142862180Y-63690476D02*
X142909800Y-63738095D01*
X142909800Y-63738095D02*
X142957419Y-63880952D01*
X142957419Y-63880952D02*
X142957419Y-63976190D01*
X142957419Y-63976190D02*
X142909800Y-64119047D01*
X142909800Y-64119047D02*
X142814561Y-64214285D01*
X142814561Y-64214285D02*
X142719323Y-64261904D01*
X142719323Y-64261904D02*
X142528847Y-64309523D01*
X142528847Y-64309523D02*
X142385990Y-64309523D01*
X142385990Y-64309523D02*
X142195514Y-64261904D01*
X142195514Y-64261904D02*
X142100276Y-64214285D01*
X142100276Y-64214285D02*
X142005038Y-64119047D01*
X142005038Y-64119047D02*
X141957419Y-63976190D01*
X141957419Y-63976190D02*
X141957419Y-63880952D01*
X141957419Y-63880952D02*
X142005038Y-63738095D01*
X142005038Y-63738095D02*
X142052657Y-63690476D01*
X141957419Y-62785714D02*
X141957419Y-63261904D01*
X141957419Y-63261904D02*
X142433609Y-63309523D01*
X142433609Y-63309523D02*
X142385990Y-63261904D01*
X142385990Y-63261904D02*
X142338371Y-63166666D01*
X142338371Y-63166666D02*
X142338371Y-62928571D01*
X142338371Y-62928571D02*
X142385990Y-62833333D01*
X142385990Y-62833333D02*
X142433609Y-62785714D01*
X142433609Y-62785714D02*
X142528847Y-62738095D01*
X142528847Y-62738095D02*
X142766942Y-62738095D01*
X142766942Y-62738095D02*
X142862180Y-62785714D01*
X142862180Y-62785714D02*
X142909800Y-62833333D01*
X142909800Y-62833333D02*
X142957419Y-62928571D01*
X142957419Y-62928571D02*
X142957419Y-63166666D01*
X142957419Y-63166666D02*
X142909800Y-63261904D01*
X142909800Y-63261904D02*
X142862180Y-63309523D01*
D11*
X120254819Y-66933333D02*
X120254819Y-67504761D01*
X120254819Y-67219047D02*
X119254819Y-67219047D01*
X119254819Y-67219047D02*
X119397676Y-67314285D01*
X119397676Y-67314285D02*
X119492914Y-67409523D01*
X119492914Y-67409523D02*
X119540533Y-67504761D01*
X120159580Y-66504761D02*
X120207200Y-66457142D01*
X120207200Y-66457142D02*
X120254819Y-66504761D01*
X120254819Y-66504761D02*
X120207200Y-66552380D01*
X120207200Y-66552380D02*
X120159580Y-66504761D01*
X120159580Y-66504761D02*
X120254819Y-66504761D01*
X119254819Y-65552381D02*
X119254819Y-66028571D01*
X119254819Y-66028571D02*
X119731009Y-66076190D01*
X119731009Y-66076190D02*
X119683390Y-66028571D01*
X119683390Y-66028571D02*
X119635771Y-65933333D01*
X119635771Y-65933333D02*
X119635771Y-65695238D01*
X119635771Y-65695238D02*
X119683390Y-65600000D01*
X119683390Y-65600000D02*
X119731009Y-65552381D01*
X119731009Y-65552381D02*
X119826247Y-65504762D01*
X119826247Y-65504762D02*
X120064342Y-65504762D01*
X120064342Y-65504762D02*
X120159580Y-65552381D01*
X120159580Y-65552381D02*
X120207200Y-65600000D01*
X120207200Y-65600000D02*
X120254819Y-65695238D01*
X120254819Y-65695238D02*
X120254819Y-65933333D01*
X120254819Y-65933333D02*
X120207200Y-66028571D01*
X120207200Y-66028571D02*
X120159580Y-66076190D01*
X120254819Y-65076190D02*
X119254819Y-65076190D01*
X119873866Y-64980952D02*
X120254819Y-64695238D01*
X119588152Y-64695238D02*
X119969104Y-65076190D01*
D12*
X102738095Y-80909800D02*
X102880952Y-80957419D01*
X102880952Y-80957419D02*
X103119047Y-80957419D01*
X103119047Y-80957419D02*
X103214285Y-80909800D01*
X103214285Y-80909800D02*
X103261904Y-80862180D01*
X103261904Y-80862180D02*
X103309523Y-80766942D01*
X103309523Y-80766942D02*
X103309523Y-80671704D01*
X103309523Y-80671704D02*
X103261904Y-80576466D01*
X103261904Y-80576466D02*
X103214285Y-80528847D01*
X103214285Y-80528847D02*
X103119047Y-80481228D01*
X103119047Y-80481228D02*
X102928571Y-80433609D01*
X102928571Y-80433609D02*
X102833333Y-80385990D01*
X102833333Y-80385990D02*
X102785714Y-80338371D01*
X102785714Y-80338371D02*
X102738095Y-80243133D01*
X102738095Y-80243133D02*
X102738095Y-80147895D01*
X102738095Y-80147895D02*
X102785714Y-80052657D01*
X102785714Y-80052657D02*
X102833333Y-80005038D01*
X102833333Y-80005038D02*
X102928571Y-79957419D01*
X102928571Y-79957419D02*
X103166666Y-79957419D01*
X103166666Y-79957419D02*
X103309523Y-80005038D01*
X103738095Y-80957419D02*
X103738095Y-79957419D01*
X103738095Y-79957419D02*
X103976190Y-79957419D01*
X103976190Y-79957419D02*
X104119047Y-80005038D01*
X104119047Y-80005038D02*
X104214285Y-80100276D01*
X104214285Y-80100276D02*
X104261904Y-80195514D01*
X104261904Y-80195514D02*
X104309523Y-80385990D01*
X104309523Y-80385990D02*
X104309523Y-80528847D01*
X104309523Y-80528847D02*
X104261904Y-80719323D01*
X104261904Y-80719323D02*
X104214285Y-80814561D01*
X104214285Y-80814561D02*
X104119047Y-80909800D01*
X104119047Y-80909800D02*
X103976190Y-80957419D01*
X103976190Y-80957419D02*
X103738095Y-80957419D01*
X104642857Y-79957419D02*
X105261904Y-79957419D01*
X105261904Y-79957419D02*
X104928571Y-80338371D01*
X104928571Y-80338371D02*
X105071428Y-80338371D01*
X105071428Y-80338371D02*
X105166666Y-80385990D01*
X105166666Y-80385990D02*
X105214285Y-80433609D01*
X105214285Y-80433609D02*
X105261904Y-80528847D01*
X105261904Y-80528847D02*
X105261904Y-80766942D01*
X105261904Y-80766942D02*
X105214285Y-80862180D01*
X105214285Y-80862180D02*
X105166666Y-80909800D01*
X105166666Y-80909800D02*
X105071428Y-80957419D01*
X105071428Y-80957419D02*
X104785714Y-80957419D01*
X104785714Y-80957419D02*
X104690476Y-80909800D01*
X104690476Y-80909800D02*
X104642857Y-80862180D01*
D11*
X107454819Y-76967857D02*
X106978628Y-77301190D01*
X107454819Y-77539285D02*
X106454819Y-77539285D01*
X106454819Y-77539285D02*
X106454819Y-77158333D01*
X106454819Y-77158333D02*
X106502438Y-77063095D01*
X106502438Y-77063095D02*
X106550057Y-77015476D01*
X106550057Y-77015476D02*
X106645295Y-76967857D01*
X106645295Y-76967857D02*
X106788152Y-76967857D01*
X106788152Y-76967857D02*
X106883390Y-77015476D01*
X106883390Y-77015476D02*
X106931009Y-77063095D01*
X106931009Y-77063095D02*
X106978628Y-77158333D01*
X106978628Y-77158333D02*
X106978628Y-77539285D01*
X106550057Y-76586904D02*
X106502438Y-76539285D01*
X106502438Y-76539285D02*
X106454819Y-76444047D01*
X106454819Y-76444047D02*
X106454819Y-76205952D01*
X106454819Y-76205952D02*
X106502438Y-76110714D01*
X106502438Y-76110714D02*
X106550057Y-76063095D01*
X106550057Y-76063095D02*
X106645295Y-76015476D01*
X106645295Y-76015476D02*
X106740533Y-76015476D01*
X106740533Y-76015476D02*
X106883390Y-76063095D01*
X106883390Y-76063095D02*
X107454819Y-76634523D01*
X107454819Y-76634523D02*
X107454819Y-76015476D01*
X106454819Y-75396428D02*
X106454819Y-75301190D01*
X106454819Y-75301190D02*
X106502438Y-75205952D01*
X106502438Y-75205952D02*
X106550057Y-75158333D01*
X106550057Y-75158333D02*
X106645295Y-75110714D01*
X106645295Y-75110714D02*
X106835771Y-75063095D01*
X106835771Y-75063095D02*
X107073866Y-75063095D01*
X107073866Y-75063095D02*
X107264342Y-75110714D01*
X107264342Y-75110714D02*
X107359580Y-75158333D01*
X107359580Y-75158333D02*
X107407200Y-75205952D01*
X107407200Y-75205952D02*
X107454819Y-75301190D01*
X107454819Y-75301190D02*
X107454819Y-75396428D01*
X107454819Y-75396428D02*
X107407200Y-75491666D01*
X107407200Y-75491666D02*
X107359580Y-75539285D01*
X107359580Y-75539285D02*
X107264342Y-75586904D01*
X107264342Y-75586904D02*
X107073866Y-75634523D01*
X107073866Y-75634523D02*
X106835771Y-75634523D01*
X106835771Y-75634523D02*
X106645295Y-75586904D01*
X106645295Y-75586904D02*
X106550057Y-75539285D01*
X106550057Y-75539285D02*
X106502438Y-75491666D01*
X106502438Y-75491666D02*
X106454819Y-75396428D01*
X131033333Y-58839580D02*
X130985714Y-58887200D01*
X130985714Y-58887200D02*
X130842857Y-58934819D01*
X130842857Y-58934819D02*
X130747619Y-58934819D01*
X130747619Y-58934819D02*
X130604762Y-58887200D01*
X130604762Y-58887200D02*
X130509524Y-58791961D01*
X130509524Y-58791961D02*
X130461905Y-58696723D01*
X130461905Y-58696723D02*
X130414286Y-58506247D01*
X130414286Y-58506247D02*
X130414286Y-58363390D01*
X130414286Y-58363390D02*
X130461905Y-58172914D01*
X130461905Y-58172914D02*
X130509524Y-58077676D01*
X130509524Y-58077676D02*
X130604762Y-57982438D01*
X130604762Y-57982438D02*
X130747619Y-57934819D01*
X130747619Y-57934819D02*
X130842857Y-57934819D01*
X130842857Y-57934819D02*
X130985714Y-57982438D01*
X130985714Y-57982438D02*
X131033333Y-58030057D01*
X131890476Y-57934819D02*
X131700000Y-57934819D01*
X131700000Y-57934819D02*
X131604762Y-57982438D01*
X131604762Y-57982438D02*
X131557143Y-58030057D01*
X131557143Y-58030057D02*
X131461905Y-58172914D01*
X131461905Y-58172914D02*
X131414286Y-58363390D01*
X131414286Y-58363390D02*
X131414286Y-58744342D01*
X131414286Y-58744342D02*
X131461905Y-58839580D01*
X131461905Y-58839580D02*
X131509524Y-58887200D01*
X131509524Y-58887200D02*
X131604762Y-58934819D01*
X131604762Y-58934819D02*
X131795238Y-58934819D01*
X131795238Y-58934819D02*
X131890476Y-58887200D01*
X131890476Y-58887200D02*
X131938095Y-58839580D01*
X131938095Y-58839580D02*
X131985714Y-58744342D01*
X131985714Y-58744342D02*
X131985714Y-58506247D01*
X131985714Y-58506247D02*
X131938095Y-58411009D01*
X131938095Y-58411009D02*
X131890476Y-58363390D01*
X131890476Y-58363390D02*
X131795238Y-58315771D01*
X131795238Y-58315771D02*
X131604762Y-58315771D01*
X131604762Y-58315771D02*
X131509524Y-58363390D01*
X131509524Y-58363390D02*
X131461905Y-58411009D01*
X131461905Y-58411009D02*
X131414286Y-58506247D01*
X123633333Y-61959580D02*
X123585714Y-62007200D01*
X123585714Y-62007200D02*
X123442857Y-62054819D01*
X123442857Y-62054819D02*
X123347619Y-62054819D01*
X123347619Y-62054819D02*
X123204762Y-62007200D01*
X123204762Y-62007200D02*
X123109524Y-61911961D01*
X123109524Y-61911961D02*
X123061905Y-61816723D01*
X123061905Y-61816723D02*
X123014286Y-61626247D01*
X123014286Y-61626247D02*
X123014286Y-61483390D01*
X123014286Y-61483390D02*
X123061905Y-61292914D01*
X123061905Y-61292914D02*
X123109524Y-61197676D01*
X123109524Y-61197676D02*
X123204762Y-61102438D01*
X123204762Y-61102438D02*
X123347619Y-61054819D01*
X123347619Y-61054819D02*
X123442857Y-61054819D01*
X123442857Y-61054819D02*
X123585714Y-61102438D01*
X123585714Y-61102438D02*
X123633333Y-61150057D01*
X124585714Y-62054819D02*
X124014286Y-62054819D01*
X124300000Y-62054819D02*
X124300000Y-61054819D01*
X124300000Y-61054819D02*
X124204762Y-61197676D01*
X124204762Y-61197676D02*
X124109524Y-61292914D01*
X124109524Y-61292914D02*
X124014286Y-61340533D01*
X130354819Y-37942857D02*
X129878628Y-38276190D01*
X130354819Y-38514285D02*
X129354819Y-38514285D01*
X129354819Y-38514285D02*
X129354819Y-38133333D01*
X129354819Y-38133333D02*
X129402438Y-38038095D01*
X129402438Y-38038095D02*
X129450057Y-37990476D01*
X129450057Y-37990476D02*
X129545295Y-37942857D01*
X129545295Y-37942857D02*
X129688152Y-37942857D01*
X129688152Y-37942857D02*
X129783390Y-37990476D01*
X129783390Y-37990476D02*
X129831009Y-38038095D01*
X129831009Y-38038095D02*
X129878628Y-38133333D01*
X129878628Y-38133333D02*
X129878628Y-38514285D01*
X129450057Y-37561904D02*
X129402438Y-37514285D01*
X129402438Y-37514285D02*
X129354819Y-37419047D01*
X129354819Y-37419047D02*
X129354819Y-37180952D01*
X129354819Y-37180952D02*
X129402438Y-37085714D01*
X129402438Y-37085714D02*
X129450057Y-37038095D01*
X129450057Y-37038095D02*
X129545295Y-36990476D01*
X129545295Y-36990476D02*
X129640533Y-36990476D01*
X129640533Y-36990476D02*
X129783390Y-37038095D01*
X129783390Y-37038095D02*
X130354819Y-37609523D01*
X130354819Y-37609523D02*
X130354819Y-36990476D01*
X130354819Y-36038095D02*
X130354819Y-36609523D01*
X130354819Y-36323809D02*
X129354819Y-36323809D01*
X129354819Y-36323809D02*
X129497676Y-36419047D01*
X129497676Y-36419047D02*
X129592914Y-36514285D01*
X129592914Y-36514285D02*
X129640533Y-36609523D01*
D12*
X102090200Y-68738095D02*
X102042580Y-68880952D01*
X102042580Y-68880952D02*
X102042580Y-69119047D01*
X102042580Y-69119047D02*
X102090200Y-69214285D01*
X102090200Y-69214285D02*
X102137819Y-69261904D01*
X102137819Y-69261904D02*
X102233057Y-69309523D01*
X102233057Y-69309523D02*
X102328295Y-69309523D01*
X102328295Y-69309523D02*
X102423533Y-69261904D01*
X102423533Y-69261904D02*
X102471152Y-69214285D01*
X102471152Y-69214285D02*
X102518771Y-69119047D01*
X102518771Y-69119047D02*
X102566390Y-68928571D01*
X102566390Y-68928571D02*
X102614009Y-68833333D01*
X102614009Y-68833333D02*
X102661628Y-68785714D01*
X102661628Y-68785714D02*
X102756866Y-68738095D01*
X102756866Y-68738095D02*
X102852104Y-68738095D01*
X102852104Y-68738095D02*
X102947342Y-68785714D01*
X102947342Y-68785714D02*
X102994961Y-68833333D01*
X102994961Y-68833333D02*
X103042580Y-68928571D01*
X103042580Y-68928571D02*
X103042580Y-69166666D01*
X103042580Y-69166666D02*
X102994961Y-69309523D01*
X102042580Y-69738095D02*
X103042580Y-69738095D01*
X103042580Y-69738095D02*
X103042580Y-69976190D01*
X103042580Y-69976190D02*
X102994961Y-70119047D01*
X102994961Y-70119047D02*
X102899723Y-70214285D01*
X102899723Y-70214285D02*
X102804485Y-70261904D01*
X102804485Y-70261904D02*
X102614009Y-70309523D01*
X102614009Y-70309523D02*
X102471152Y-70309523D01*
X102471152Y-70309523D02*
X102280676Y-70261904D01*
X102280676Y-70261904D02*
X102185438Y-70214285D01*
X102185438Y-70214285D02*
X102090200Y-70119047D01*
X102090200Y-70119047D02*
X102042580Y-69976190D01*
X102042580Y-69976190D02*
X102042580Y-69738095D01*
X102947342Y-70690476D02*
X102994961Y-70738095D01*
X102994961Y-70738095D02*
X103042580Y-70833333D01*
X103042580Y-70833333D02*
X103042580Y-71071428D01*
X103042580Y-71071428D02*
X102994961Y-71166666D01*
X102994961Y-71166666D02*
X102947342Y-71214285D01*
X102947342Y-71214285D02*
X102852104Y-71261904D01*
X102852104Y-71261904D02*
X102756866Y-71261904D01*
X102756866Y-71261904D02*
X102614009Y-71214285D01*
X102614009Y-71214285D02*
X102042580Y-70642857D01*
X102042580Y-70642857D02*
X102042580Y-71261904D01*
X99042580Y-35261905D02*
X99042580Y-35880952D01*
X99042580Y-35880952D02*
X98661628Y-35547619D01*
X98661628Y-35547619D02*
X98661628Y-35690476D01*
X98661628Y-35690476D02*
X98614009Y-35785714D01*
X98614009Y-35785714D02*
X98566390Y-35833333D01*
X98566390Y-35833333D02*
X98471152Y-35880952D01*
X98471152Y-35880952D02*
X98233057Y-35880952D01*
X98233057Y-35880952D02*
X98137819Y-35833333D01*
X98137819Y-35833333D02*
X98090200Y-35785714D01*
X98090200Y-35785714D02*
X98042580Y-35690476D01*
X98042580Y-35690476D02*
X98042580Y-35404762D01*
X98042580Y-35404762D02*
X98090200Y-35309524D01*
X98090200Y-35309524D02*
X98137819Y-35261905D01*
X99042580Y-36166667D02*
X98042580Y-36500000D01*
X98042580Y-36500000D02*
X99042580Y-36833333D01*
X99042580Y-37357143D02*
X99042580Y-37452381D01*
X99042580Y-37452381D02*
X98994961Y-37547619D01*
X98994961Y-37547619D02*
X98947342Y-37595238D01*
X98947342Y-37595238D02*
X98852104Y-37642857D01*
X98852104Y-37642857D02*
X98661628Y-37690476D01*
X98661628Y-37690476D02*
X98423533Y-37690476D01*
X98423533Y-37690476D02*
X98233057Y-37642857D01*
X98233057Y-37642857D02*
X98137819Y-37595238D01*
X98137819Y-37595238D02*
X98090200Y-37547619D01*
X98090200Y-37547619D02*
X98042580Y-37452381D01*
X98042580Y-37452381D02*
X98042580Y-37357143D01*
X98042580Y-37357143D02*
X98090200Y-37261905D01*
X98090200Y-37261905D02*
X98137819Y-37214286D01*
X98137819Y-37214286D02*
X98233057Y-37166667D01*
X98233057Y-37166667D02*
X98423533Y-37119048D01*
X98423533Y-37119048D02*
X98661628Y-37119048D01*
X98661628Y-37119048D02*
X98852104Y-37166667D01*
X98852104Y-37166667D02*
X98947342Y-37214286D01*
X98947342Y-37214286D02*
X98994961Y-37261905D01*
X98994961Y-37261905D02*
X99042580Y-37357143D01*
D11*
X136759580Y-38442857D02*
X136807200Y-38490476D01*
X136807200Y-38490476D02*
X136854819Y-38633333D01*
X136854819Y-38633333D02*
X136854819Y-38728571D01*
X136854819Y-38728571D02*
X136807200Y-38871428D01*
X136807200Y-38871428D02*
X136711961Y-38966666D01*
X136711961Y-38966666D02*
X136616723Y-39014285D01*
X136616723Y-39014285D02*
X136426247Y-39061904D01*
X136426247Y-39061904D02*
X136283390Y-39061904D01*
X136283390Y-39061904D02*
X136092914Y-39014285D01*
X136092914Y-39014285D02*
X135997676Y-38966666D01*
X135997676Y-38966666D02*
X135902438Y-38871428D01*
X135902438Y-38871428D02*
X135854819Y-38728571D01*
X135854819Y-38728571D02*
X135854819Y-38633333D01*
X135854819Y-38633333D02*
X135902438Y-38490476D01*
X135902438Y-38490476D02*
X135950057Y-38442857D01*
X136854819Y-37490476D02*
X136854819Y-38061904D01*
X136854819Y-37776190D02*
X135854819Y-37776190D01*
X135854819Y-37776190D02*
X135997676Y-37871428D01*
X135997676Y-37871428D02*
X136092914Y-37966666D01*
X136092914Y-37966666D02*
X136140533Y-38061904D01*
X136854819Y-36538095D02*
X136854819Y-37109523D01*
X136854819Y-36823809D02*
X135854819Y-36823809D01*
X135854819Y-36823809D02*
X135997676Y-36919047D01*
X135997676Y-36919047D02*
X136092914Y-37014285D01*
X136092914Y-37014285D02*
X136140533Y-37109523D01*
X121654819Y-70466666D02*
X121178628Y-70799999D01*
X121654819Y-71038094D02*
X120654819Y-71038094D01*
X120654819Y-71038094D02*
X120654819Y-70657142D01*
X120654819Y-70657142D02*
X120702438Y-70561904D01*
X120702438Y-70561904D02*
X120750057Y-70514285D01*
X120750057Y-70514285D02*
X120845295Y-70466666D01*
X120845295Y-70466666D02*
X120988152Y-70466666D01*
X120988152Y-70466666D02*
X121083390Y-70514285D01*
X121083390Y-70514285D02*
X121131009Y-70561904D01*
X121131009Y-70561904D02*
X121178628Y-70657142D01*
X121178628Y-70657142D02*
X121178628Y-71038094D01*
X120750057Y-70085713D02*
X120702438Y-70038094D01*
X120702438Y-70038094D02*
X120654819Y-69942856D01*
X120654819Y-69942856D02*
X120654819Y-69704761D01*
X120654819Y-69704761D02*
X120702438Y-69609523D01*
X120702438Y-69609523D02*
X120750057Y-69561904D01*
X120750057Y-69561904D02*
X120845295Y-69514285D01*
X120845295Y-69514285D02*
X120940533Y-69514285D01*
X120940533Y-69514285D02*
X121083390Y-69561904D01*
X121083390Y-69561904D02*
X121654819Y-70133332D01*
X121654819Y-70133332D02*
X121654819Y-69514285D01*
X109008333Y-59854819D02*
X108675000Y-59378628D01*
X108436905Y-59854819D02*
X108436905Y-58854819D01*
X108436905Y-58854819D02*
X108817857Y-58854819D01*
X108817857Y-58854819D02*
X108913095Y-58902438D01*
X108913095Y-58902438D02*
X108960714Y-58950057D01*
X108960714Y-58950057D02*
X109008333Y-59045295D01*
X109008333Y-59045295D02*
X109008333Y-59188152D01*
X109008333Y-59188152D02*
X108960714Y-59283390D01*
X108960714Y-59283390D02*
X108913095Y-59331009D01*
X108913095Y-59331009D02*
X108817857Y-59378628D01*
X108817857Y-59378628D02*
X108436905Y-59378628D01*
X109913095Y-58854819D02*
X109436905Y-58854819D01*
X109436905Y-58854819D02*
X109389286Y-59331009D01*
X109389286Y-59331009D02*
X109436905Y-59283390D01*
X109436905Y-59283390D02*
X109532143Y-59235771D01*
X109532143Y-59235771D02*
X109770238Y-59235771D01*
X109770238Y-59235771D02*
X109865476Y-59283390D01*
X109865476Y-59283390D02*
X109913095Y-59331009D01*
X109913095Y-59331009D02*
X109960714Y-59426247D01*
X109960714Y-59426247D02*
X109960714Y-59664342D01*
X109960714Y-59664342D02*
X109913095Y-59759580D01*
X109913095Y-59759580D02*
X109865476Y-59807200D01*
X109865476Y-59807200D02*
X109770238Y-59854819D01*
X109770238Y-59854819D02*
X109532143Y-59854819D01*
X109532143Y-59854819D02*
X109436905Y-59807200D01*
X109436905Y-59807200D02*
X109389286Y-59759580D01*
D12*
X102090200Y-38238095D02*
X102042580Y-38380952D01*
X102042580Y-38380952D02*
X102042580Y-38619047D01*
X102042580Y-38619047D02*
X102090200Y-38714285D01*
X102090200Y-38714285D02*
X102137819Y-38761904D01*
X102137819Y-38761904D02*
X102233057Y-38809523D01*
X102233057Y-38809523D02*
X102328295Y-38809523D01*
X102328295Y-38809523D02*
X102423533Y-38761904D01*
X102423533Y-38761904D02*
X102471152Y-38714285D01*
X102471152Y-38714285D02*
X102518771Y-38619047D01*
X102518771Y-38619047D02*
X102566390Y-38428571D01*
X102566390Y-38428571D02*
X102614009Y-38333333D01*
X102614009Y-38333333D02*
X102661628Y-38285714D01*
X102661628Y-38285714D02*
X102756866Y-38238095D01*
X102756866Y-38238095D02*
X102852104Y-38238095D01*
X102852104Y-38238095D02*
X102947342Y-38285714D01*
X102947342Y-38285714D02*
X102994961Y-38333333D01*
X102994961Y-38333333D02*
X103042580Y-38428571D01*
X103042580Y-38428571D02*
X103042580Y-38666666D01*
X103042580Y-38666666D02*
X102994961Y-38809523D01*
X102042580Y-39238095D02*
X103042580Y-39238095D01*
X103042580Y-39238095D02*
X103042580Y-39476190D01*
X103042580Y-39476190D02*
X102994961Y-39619047D01*
X102994961Y-39619047D02*
X102899723Y-39714285D01*
X102899723Y-39714285D02*
X102804485Y-39761904D01*
X102804485Y-39761904D02*
X102614009Y-39809523D01*
X102614009Y-39809523D02*
X102471152Y-39809523D01*
X102471152Y-39809523D02*
X102280676Y-39761904D01*
X102280676Y-39761904D02*
X102185438Y-39714285D01*
X102185438Y-39714285D02*
X102090200Y-39619047D01*
X102090200Y-39619047D02*
X102042580Y-39476190D01*
X102042580Y-39476190D02*
X102042580Y-39238095D01*
X103042580Y-40428571D02*
X103042580Y-40523809D01*
X103042580Y-40523809D02*
X102994961Y-40619047D01*
X102994961Y-40619047D02*
X102947342Y-40666666D01*
X102947342Y-40666666D02*
X102852104Y-40714285D01*
X102852104Y-40714285D02*
X102661628Y-40761904D01*
X102661628Y-40761904D02*
X102423533Y-40761904D01*
X102423533Y-40761904D02*
X102233057Y-40714285D01*
X102233057Y-40714285D02*
X102137819Y-40666666D01*
X102137819Y-40666666D02*
X102090200Y-40619047D01*
X102090200Y-40619047D02*
X102042580Y-40523809D01*
X102042580Y-40523809D02*
X102042580Y-40428571D01*
X102042580Y-40428571D02*
X102090200Y-40333333D01*
X102090200Y-40333333D02*
X102137819Y-40285714D01*
X102137819Y-40285714D02*
X102233057Y-40238095D01*
X102233057Y-40238095D02*
X102423533Y-40190476D01*
X102423533Y-40190476D02*
X102661628Y-40190476D01*
X102661628Y-40190476D02*
X102852104Y-40238095D01*
X102852104Y-40238095D02*
X102947342Y-40285714D01*
X102947342Y-40285714D02*
X102994961Y-40333333D01*
X102994961Y-40333333D02*
X103042580Y-40428571D01*
X102090200Y-56238095D02*
X102042580Y-56380952D01*
X102042580Y-56380952D02*
X102042580Y-56619047D01*
X102042580Y-56619047D02*
X102090200Y-56714285D01*
X102090200Y-56714285D02*
X102137819Y-56761904D01*
X102137819Y-56761904D02*
X102233057Y-56809523D01*
X102233057Y-56809523D02*
X102328295Y-56809523D01*
X102328295Y-56809523D02*
X102423533Y-56761904D01*
X102423533Y-56761904D02*
X102471152Y-56714285D01*
X102471152Y-56714285D02*
X102518771Y-56619047D01*
X102518771Y-56619047D02*
X102566390Y-56428571D01*
X102566390Y-56428571D02*
X102614009Y-56333333D01*
X102614009Y-56333333D02*
X102661628Y-56285714D01*
X102661628Y-56285714D02*
X102756866Y-56238095D01*
X102756866Y-56238095D02*
X102852104Y-56238095D01*
X102852104Y-56238095D02*
X102947342Y-56285714D01*
X102947342Y-56285714D02*
X102994961Y-56333333D01*
X102994961Y-56333333D02*
X103042580Y-56428571D01*
X103042580Y-56428571D02*
X103042580Y-56666666D01*
X103042580Y-56666666D02*
X102994961Y-56809523D01*
X102137819Y-57809523D02*
X102090200Y-57761904D01*
X102090200Y-57761904D02*
X102042580Y-57619047D01*
X102042580Y-57619047D02*
X102042580Y-57523809D01*
X102042580Y-57523809D02*
X102090200Y-57380952D01*
X102090200Y-57380952D02*
X102185438Y-57285714D01*
X102185438Y-57285714D02*
X102280676Y-57238095D01*
X102280676Y-57238095D02*
X102471152Y-57190476D01*
X102471152Y-57190476D02*
X102614009Y-57190476D01*
X102614009Y-57190476D02*
X102804485Y-57238095D01*
X102804485Y-57238095D02*
X102899723Y-57285714D01*
X102899723Y-57285714D02*
X102994961Y-57380952D01*
X102994961Y-57380952D02*
X103042580Y-57523809D01*
X103042580Y-57523809D02*
X103042580Y-57619047D01*
X103042580Y-57619047D02*
X102994961Y-57761904D01*
X102994961Y-57761904D02*
X102947342Y-57809523D01*
X102042580Y-58761904D02*
X102042580Y-58190476D01*
X102042580Y-58476190D02*
X103042580Y-58476190D01*
X103042580Y-58476190D02*
X102899723Y-58380952D01*
X102899723Y-58380952D02*
X102804485Y-58285714D01*
X102804485Y-58285714D02*
X102756866Y-58190476D01*
X98090200Y-41238095D02*
X98042580Y-41380952D01*
X98042580Y-41380952D02*
X98042580Y-41619047D01*
X98042580Y-41619047D02*
X98090200Y-41714285D01*
X98090200Y-41714285D02*
X98137819Y-41761904D01*
X98137819Y-41761904D02*
X98233057Y-41809523D01*
X98233057Y-41809523D02*
X98328295Y-41809523D01*
X98328295Y-41809523D02*
X98423533Y-41761904D01*
X98423533Y-41761904D02*
X98471152Y-41714285D01*
X98471152Y-41714285D02*
X98518771Y-41619047D01*
X98518771Y-41619047D02*
X98566390Y-41428571D01*
X98566390Y-41428571D02*
X98614009Y-41333333D01*
X98614009Y-41333333D02*
X98661628Y-41285714D01*
X98661628Y-41285714D02*
X98756866Y-41238095D01*
X98756866Y-41238095D02*
X98852104Y-41238095D01*
X98852104Y-41238095D02*
X98947342Y-41285714D01*
X98947342Y-41285714D02*
X98994961Y-41333333D01*
X98994961Y-41333333D02*
X99042580Y-41428571D01*
X99042580Y-41428571D02*
X99042580Y-41666666D01*
X99042580Y-41666666D02*
X98994961Y-41809523D01*
X98137819Y-42809523D02*
X98090200Y-42761904D01*
X98090200Y-42761904D02*
X98042580Y-42619047D01*
X98042580Y-42619047D02*
X98042580Y-42523809D01*
X98042580Y-42523809D02*
X98090200Y-42380952D01*
X98090200Y-42380952D02*
X98185438Y-42285714D01*
X98185438Y-42285714D02*
X98280676Y-42238095D01*
X98280676Y-42238095D02*
X98471152Y-42190476D01*
X98471152Y-42190476D02*
X98614009Y-42190476D01*
X98614009Y-42190476D02*
X98804485Y-42238095D01*
X98804485Y-42238095D02*
X98899723Y-42285714D01*
X98899723Y-42285714D02*
X98994961Y-42380952D01*
X98994961Y-42380952D02*
X99042580Y-42523809D01*
X99042580Y-42523809D02*
X99042580Y-42619047D01*
X99042580Y-42619047D02*
X98994961Y-42761904D01*
X98994961Y-42761904D02*
X98947342Y-42809523D01*
X99042580Y-43428571D02*
X99042580Y-43523809D01*
X99042580Y-43523809D02*
X98994961Y-43619047D01*
X98994961Y-43619047D02*
X98947342Y-43666666D01*
X98947342Y-43666666D02*
X98852104Y-43714285D01*
X98852104Y-43714285D02*
X98661628Y-43761904D01*
X98661628Y-43761904D02*
X98423533Y-43761904D01*
X98423533Y-43761904D02*
X98233057Y-43714285D01*
X98233057Y-43714285D02*
X98137819Y-43666666D01*
X98137819Y-43666666D02*
X98090200Y-43619047D01*
X98090200Y-43619047D02*
X98042580Y-43523809D01*
X98042580Y-43523809D02*
X98042580Y-43428571D01*
X98042580Y-43428571D02*
X98090200Y-43333333D01*
X98090200Y-43333333D02*
X98137819Y-43285714D01*
X98137819Y-43285714D02*
X98233057Y-43238095D01*
X98233057Y-43238095D02*
X98423533Y-43190476D01*
X98423533Y-43190476D02*
X98661628Y-43190476D01*
X98661628Y-43190476D02*
X98852104Y-43238095D01*
X98852104Y-43238095D02*
X98947342Y-43285714D01*
X98947342Y-43285714D02*
X98994961Y-43333333D01*
X98994961Y-43333333D02*
X99042580Y-43428571D01*
X98090200Y-71738095D02*
X98042580Y-71880952D01*
X98042580Y-71880952D02*
X98042580Y-72119047D01*
X98042580Y-72119047D02*
X98090200Y-72214285D01*
X98090200Y-72214285D02*
X98137819Y-72261904D01*
X98137819Y-72261904D02*
X98233057Y-72309523D01*
X98233057Y-72309523D02*
X98328295Y-72309523D01*
X98328295Y-72309523D02*
X98423533Y-72261904D01*
X98423533Y-72261904D02*
X98471152Y-72214285D01*
X98471152Y-72214285D02*
X98518771Y-72119047D01*
X98518771Y-72119047D02*
X98566390Y-71928571D01*
X98566390Y-71928571D02*
X98614009Y-71833333D01*
X98614009Y-71833333D02*
X98661628Y-71785714D01*
X98661628Y-71785714D02*
X98756866Y-71738095D01*
X98756866Y-71738095D02*
X98852104Y-71738095D01*
X98852104Y-71738095D02*
X98947342Y-71785714D01*
X98947342Y-71785714D02*
X98994961Y-71833333D01*
X98994961Y-71833333D02*
X99042580Y-71928571D01*
X99042580Y-71928571D02*
X99042580Y-72166666D01*
X99042580Y-72166666D02*
X98994961Y-72309523D01*
X98137819Y-73309523D02*
X98090200Y-73261904D01*
X98090200Y-73261904D02*
X98042580Y-73119047D01*
X98042580Y-73119047D02*
X98042580Y-73023809D01*
X98042580Y-73023809D02*
X98090200Y-72880952D01*
X98090200Y-72880952D02*
X98185438Y-72785714D01*
X98185438Y-72785714D02*
X98280676Y-72738095D01*
X98280676Y-72738095D02*
X98471152Y-72690476D01*
X98471152Y-72690476D02*
X98614009Y-72690476D01*
X98614009Y-72690476D02*
X98804485Y-72738095D01*
X98804485Y-72738095D02*
X98899723Y-72785714D01*
X98899723Y-72785714D02*
X98994961Y-72880952D01*
X98994961Y-72880952D02*
X99042580Y-73023809D01*
X99042580Y-73023809D02*
X99042580Y-73119047D01*
X99042580Y-73119047D02*
X98994961Y-73261904D01*
X98994961Y-73261904D02*
X98947342Y-73309523D01*
X98947342Y-73690476D02*
X98994961Y-73738095D01*
X98994961Y-73738095D02*
X99042580Y-73833333D01*
X99042580Y-73833333D02*
X99042580Y-74071428D01*
X99042580Y-74071428D02*
X98994961Y-74166666D01*
X98994961Y-74166666D02*
X98947342Y-74214285D01*
X98947342Y-74214285D02*
X98852104Y-74261904D01*
X98852104Y-74261904D02*
X98756866Y-74261904D01*
X98756866Y-74261904D02*
X98614009Y-74214285D01*
X98614009Y-74214285D02*
X98042580Y-73642857D01*
X98042580Y-73642857D02*
X98042580Y-74261904D01*
D11*
X126333333Y-60854819D02*
X126000000Y-60378628D01*
X125761905Y-60854819D02*
X125761905Y-59854819D01*
X125761905Y-59854819D02*
X126142857Y-59854819D01*
X126142857Y-59854819D02*
X126238095Y-59902438D01*
X126238095Y-59902438D02*
X126285714Y-59950057D01*
X126285714Y-59950057D02*
X126333333Y-60045295D01*
X126333333Y-60045295D02*
X126333333Y-60188152D01*
X126333333Y-60188152D02*
X126285714Y-60283390D01*
X126285714Y-60283390D02*
X126238095Y-60331009D01*
X126238095Y-60331009D02*
X126142857Y-60378628D01*
X126142857Y-60378628D02*
X125761905Y-60378628D01*
X126666667Y-59854819D02*
X127285714Y-59854819D01*
X127285714Y-59854819D02*
X126952381Y-60235771D01*
X126952381Y-60235771D02*
X127095238Y-60235771D01*
X127095238Y-60235771D02*
X127190476Y-60283390D01*
X127190476Y-60283390D02*
X127238095Y-60331009D01*
X127238095Y-60331009D02*
X127285714Y-60426247D01*
X127285714Y-60426247D02*
X127285714Y-60664342D01*
X127285714Y-60664342D02*
X127238095Y-60759580D01*
X127238095Y-60759580D02*
X127190476Y-60807200D01*
X127190476Y-60807200D02*
X127095238Y-60854819D01*
X127095238Y-60854819D02*
X126809524Y-60854819D01*
X126809524Y-60854819D02*
X126714286Y-60807200D01*
X126714286Y-60807200D02*
X126666667Y-60759580D01*
D12*
X142005038Y-46238095D02*
X141957419Y-46333333D01*
X141957419Y-46333333D02*
X141957419Y-46476190D01*
X141957419Y-46476190D02*
X142005038Y-46619047D01*
X142005038Y-46619047D02*
X142100276Y-46714285D01*
X142100276Y-46714285D02*
X142195514Y-46761904D01*
X142195514Y-46761904D02*
X142385990Y-46809523D01*
X142385990Y-46809523D02*
X142528847Y-46809523D01*
X142528847Y-46809523D02*
X142719323Y-46761904D01*
X142719323Y-46761904D02*
X142814561Y-46714285D01*
X142814561Y-46714285D02*
X142909800Y-46619047D01*
X142909800Y-46619047D02*
X142957419Y-46476190D01*
X142957419Y-46476190D02*
X142957419Y-46380952D01*
X142957419Y-46380952D02*
X142909800Y-46238095D01*
X142909800Y-46238095D02*
X142862180Y-46190476D01*
X142862180Y-46190476D02*
X142528847Y-46190476D01*
X142528847Y-46190476D02*
X142528847Y-46380952D01*
X142957419Y-45761904D02*
X141957419Y-45761904D01*
X141957419Y-45761904D02*
X142957419Y-45190476D01*
X142957419Y-45190476D02*
X141957419Y-45190476D01*
X141957419Y-44285714D02*
X141957419Y-44476190D01*
X141957419Y-44476190D02*
X142005038Y-44571428D01*
X142005038Y-44571428D02*
X142052657Y-44619047D01*
X142052657Y-44619047D02*
X142195514Y-44714285D01*
X142195514Y-44714285D02*
X142385990Y-44761904D01*
X142385990Y-44761904D02*
X142766942Y-44761904D01*
X142766942Y-44761904D02*
X142862180Y-44714285D01*
X142862180Y-44714285D02*
X142909800Y-44666666D01*
X142909800Y-44666666D02*
X142957419Y-44571428D01*
X142957419Y-44571428D02*
X142957419Y-44380952D01*
X142957419Y-44380952D02*
X142909800Y-44285714D01*
X142909800Y-44285714D02*
X142862180Y-44238095D01*
X142862180Y-44238095D02*
X142766942Y-44190476D01*
X142766942Y-44190476D02*
X142528847Y-44190476D01*
X142528847Y-44190476D02*
X142433609Y-44238095D01*
X142433609Y-44238095D02*
X142385990Y-44285714D01*
X142385990Y-44285714D02*
X142338371Y-44380952D01*
X142338371Y-44380952D02*
X142338371Y-44571428D01*
X142338371Y-44571428D02*
X142385990Y-44666666D01*
X142385990Y-44666666D02*
X142433609Y-44714285D01*
X142433609Y-44714285D02*
X142528847Y-44761904D01*
X99042580Y-65761905D02*
X99042580Y-66380952D01*
X99042580Y-66380952D02*
X98661628Y-66047619D01*
X98661628Y-66047619D02*
X98661628Y-66190476D01*
X98661628Y-66190476D02*
X98614009Y-66285714D01*
X98614009Y-66285714D02*
X98566390Y-66333333D01*
X98566390Y-66333333D02*
X98471152Y-66380952D01*
X98471152Y-66380952D02*
X98233057Y-66380952D01*
X98233057Y-66380952D02*
X98137819Y-66333333D01*
X98137819Y-66333333D02*
X98090200Y-66285714D01*
X98090200Y-66285714D02*
X98042580Y-66190476D01*
X98042580Y-66190476D02*
X98042580Y-65904762D01*
X98042580Y-65904762D02*
X98090200Y-65809524D01*
X98090200Y-65809524D02*
X98137819Y-65761905D01*
X99042580Y-66666667D02*
X98042580Y-67000000D01*
X98042580Y-67000000D02*
X99042580Y-67333333D01*
X98947342Y-67619048D02*
X98994961Y-67666667D01*
X98994961Y-67666667D02*
X99042580Y-67761905D01*
X99042580Y-67761905D02*
X99042580Y-68000000D01*
X99042580Y-68000000D02*
X98994961Y-68095238D01*
X98994961Y-68095238D02*
X98947342Y-68142857D01*
X98947342Y-68142857D02*
X98852104Y-68190476D01*
X98852104Y-68190476D02*
X98756866Y-68190476D01*
X98756866Y-68190476D02*
X98614009Y-68142857D01*
X98614009Y-68142857D02*
X98042580Y-67571429D01*
X98042580Y-67571429D02*
X98042580Y-68190476D01*
D11*
X130733333Y-54059580D02*
X130685714Y-54107200D01*
X130685714Y-54107200D02*
X130542857Y-54154819D01*
X130542857Y-54154819D02*
X130447619Y-54154819D01*
X130447619Y-54154819D02*
X130304762Y-54107200D01*
X130304762Y-54107200D02*
X130209524Y-54011961D01*
X130209524Y-54011961D02*
X130161905Y-53916723D01*
X130161905Y-53916723D02*
X130114286Y-53726247D01*
X130114286Y-53726247D02*
X130114286Y-53583390D01*
X130114286Y-53583390D02*
X130161905Y-53392914D01*
X130161905Y-53392914D02*
X130209524Y-53297676D01*
X130209524Y-53297676D02*
X130304762Y-53202438D01*
X130304762Y-53202438D02*
X130447619Y-53154819D01*
X130447619Y-53154819D02*
X130542857Y-53154819D01*
X130542857Y-53154819D02*
X130685714Y-53202438D01*
X130685714Y-53202438D02*
X130733333Y-53250057D01*
X131638095Y-53154819D02*
X131161905Y-53154819D01*
X131161905Y-53154819D02*
X131114286Y-53631009D01*
X131114286Y-53631009D02*
X131161905Y-53583390D01*
X131161905Y-53583390D02*
X131257143Y-53535771D01*
X131257143Y-53535771D02*
X131495238Y-53535771D01*
X131495238Y-53535771D02*
X131590476Y-53583390D01*
X131590476Y-53583390D02*
X131638095Y-53631009D01*
X131638095Y-53631009D02*
X131685714Y-53726247D01*
X131685714Y-53726247D02*
X131685714Y-53964342D01*
X131685714Y-53964342D02*
X131638095Y-54059580D01*
X131638095Y-54059580D02*
X131590476Y-54107200D01*
X131590476Y-54107200D02*
X131495238Y-54154819D01*
X131495238Y-54154819D02*
X131257143Y-54154819D01*
X131257143Y-54154819D02*
X131161905Y-54107200D01*
X131161905Y-54107200D02*
X131114286Y-54059580D01*
D12*
X98994961Y-47761904D02*
X99042580Y-47666666D01*
X99042580Y-47666666D02*
X99042580Y-47523809D01*
X99042580Y-47523809D02*
X98994961Y-47380952D01*
X98994961Y-47380952D02*
X98899723Y-47285714D01*
X98899723Y-47285714D02*
X98804485Y-47238095D01*
X98804485Y-47238095D02*
X98614009Y-47190476D01*
X98614009Y-47190476D02*
X98471152Y-47190476D01*
X98471152Y-47190476D02*
X98280676Y-47238095D01*
X98280676Y-47238095D02*
X98185438Y-47285714D01*
X98185438Y-47285714D02*
X98090200Y-47380952D01*
X98090200Y-47380952D02*
X98042580Y-47523809D01*
X98042580Y-47523809D02*
X98042580Y-47619047D01*
X98042580Y-47619047D02*
X98090200Y-47761904D01*
X98090200Y-47761904D02*
X98137819Y-47809523D01*
X98137819Y-47809523D02*
X98471152Y-47809523D01*
X98471152Y-47809523D02*
X98471152Y-47619047D01*
X98042580Y-48238095D02*
X99042580Y-48238095D01*
X99042580Y-48238095D02*
X98042580Y-48809523D01*
X98042580Y-48809523D02*
X99042580Y-48809523D01*
X98042580Y-49809523D02*
X98042580Y-49238095D01*
X98042580Y-49523809D02*
X99042580Y-49523809D01*
X99042580Y-49523809D02*
X98899723Y-49428571D01*
X98899723Y-49428571D02*
X98804485Y-49333333D01*
X98804485Y-49333333D02*
X98756866Y-49238095D01*
X102994961Y-63261904D02*
X103042580Y-63166666D01*
X103042580Y-63166666D02*
X103042580Y-63023809D01*
X103042580Y-63023809D02*
X102994961Y-62880952D01*
X102994961Y-62880952D02*
X102899723Y-62785714D01*
X102899723Y-62785714D02*
X102804485Y-62738095D01*
X102804485Y-62738095D02*
X102614009Y-62690476D01*
X102614009Y-62690476D02*
X102471152Y-62690476D01*
X102471152Y-62690476D02*
X102280676Y-62738095D01*
X102280676Y-62738095D02*
X102185438Y-62785714D01*
X102185438Y-62785714D02*
X102090200Y-62880952D01*
X102090200Y-62880952D02*
X102042580Y-63023809D01*
X102042580Y-63023809D02*
X102042580Y-63119047D01*
X102042580Y-63119047D02*
X102090200Y-63261904D01*
X102090200Y-63261904D02*
X102137819Y-63309523D01*
X102137819Y-63309523D02*
X102471152Y-63309523D01*
X102471152Y-63309523D02*
X102471152Y-63119047D01*
X102042580Y-63738095D02*
X103042580Y-63738095D01*
X103042580Y-63738095D02*
X102042580Y-64309523D01*
X102042580Y-64309523D02*
X103042580Y-64309523D01*
X102947342Y-64738095D02*
X102994961Y-64785714D01*
X102994961Y-64785714D02*
X103042580Y-64880952D01*
X103042580Y-64880952D02*
X103042580Y-65119047D01*
X103042580Y-65119047D02*
X102994961Y-65214285D01*
X102994961Y-65214285D02*
X102947342Y-65261904D01*
X102947342Y-65261904D02*
X102852104Y-65309523D01*
X102852104Y-65309523D02*
X102756866Y-65309523D01*
X102756866Y-65309523D02*
X102614009Y-65261904D01*
X102614009Y-65261904D02*
X102042580Y-64690476D01*
X102042580Y-64690476D02*
X102042580Y-65309523D01*
X125738095Y-31994961D02*
X125833333Y-32042580D01*
X125833333Y-32042580D02*
X125976190Y-32042580D01*
X125976190Y-32042580D02*
X126119047Y-31994961D01*
X126119047Y-31994961D02*
X126214285Y-31899723D01*
X126214285Y-31899723D02*
X126261904Y-31804485D01*
X126261904Y-31804485D02*
X126309523Y-31614009D01*
X126309523Y-31614009D02*
X126309523Y-31471152D01*
X126309523Y-31471152D02*
X126261904Y-31280676D01*
X126261904Y-31280676D02*
X126214285Y-31185438D01*
X126214285Y-31185438D02*
X126119047Y-31090200D01*
X126119047Y-31090200D02*
X125976190Y-31042580D01*
X125976190Y-31042580D02*
X125880952Y-31042580D01*
X125880952Y-31042580D02*
X125738095Y-31090200D01*
X125738095Y-31090200D02*
X125690476Y-31137819D01*
X125690476Y-31137819D02*
X125690476Y-31471152D01*
X125690476Y-31471152D02*
X125880952Y-31471152D01*
X125261904Y-31042580D02*
X125261904Y-32042580D01*
X125261904Y-32042580D02*
X124690476Y-31042580D01*
X124690476Y-31042580D02*
X124690476Y-32042580D01*
X124309523Y-32042580D02*
X123642857Y-32042580D01*
X123642857Y-32042580D02*
X124071428Y-31042580D01*
X120261904Y-31090200D02*
X120119047Y-31042580D01*
X120119047Y-31042580D02*
X119880952Y-31042580D01*
X119880952Y-31042580D02*
X119785714Y-31090200D01*
X119785714Y-31090200D02*
X119738095Y-31137819D01*
X119738095Y-31137819D02*
X119690476Y-31233057D01*
X119690476Y-31233057D02*
X119690476Y-31328295D01*
X119690476Y-31328295D02*
X119738095Y-31423533D01*
X119738095Y-31423533D02*
X119785714Y-31471152D01*
X119785714Y-31471152D02*
X119880952Y-31518771D01*
X119880952Y-31518771D02*
X120071428Y-31566390D01*
X120071428Y-31566390D02*
X120166666Y-31614009D01*
X120166666Y-31614009D02*
X120214285Y-31661628D01*
X120214285Y-31661628D02*
X120261904Y-31756866D01*
X120261904Y-31756866D02*
X120261904Y-31852104D01*
X120261904Y-31852104D02*
X120214285Y-31947342D01*
X120214285Y-31947342D02*
X120166666Y-31994961D01*
X120166666Y-31994961D02*
X120071428Y-32042580D01*
X120071428Y-32042580D02*
X119833333Y-32042580D01*
X119833333Y-32042580D02*
X119690476Y-31994961D01*
X119261904Y-31042580D02*
X119261904Y-32042580D01*
X119261904Y-32042580D02*
X119023809Y-32042580D01*
X119023809Y-32042580D02*
X118880952Y-31994961D01*
X118880952Y-31994961D02*
X118785714Y-31899723D01*
X118785714Y-31899723D02*
X118738095Y-31804485D01*
X118738095Y-31804485D02*
X118690476Y-31614009D01*
X118690476Y-31614009D02*
X118690476Y-31471152D01*
X118690476Y-31471152D02*
X118738095Y-31280676D01*
X118738095Y-31280676D02*
X118785714Y-31185438D01*
X118785714Y-31185438D02*
X118880952Y-31090200D01*
X118880952Y-31090200D02*
X119023809Y-31042580D01*
X119023809Y-31042580D02*
X119261904Y-31042580D01*
X118357142Y-32042580D02*
X117690476Y-32042580D01*
X117690476Y-32042580D02*
X118119047Y-31042580D01*
D11*
X106857142Y-80884819D02*
X106523809Y-80408628D01*
X106285714Y-80884819D02*
X106285714Y-79884819D01*
X106285714Y-79884819D02*
X106666666Y-79884819D01*
X106666666Y-79884819D02*
X106761904Y-79932438D01*
X106761904Y-79932438D02*
X106809523Y-79980057D01*
X106809523Y-79980057D02*
X106857142Y-80075295D01*
X106857142Y-80075295D02*
X106857142Y-80218152D01*
X106857142Y-80218152D02*
X106809523Y-80313390D01*
X106809523Y-80313390D02*
X106761904Y-80361009D01*
X106761904Y-80361009D02*
X106666666Y-80408628D01*
X106666666Y-80408628D02*
X106285714Y-80408628D01*
X107238095Y-79980057D02*
X107285714Y-79932438D01*
X107285714Y-79932438D02*
X107380952Y-79884819D01*
X107380952Y-79884819D02*
X107619047Y-79884819D01*
X107619047Y-79884819D02*
X107714285Y-79932438D01*
X107714285Y-79932438D02*
X107761904Y-79980057D01*
X107761904Y-79980057D02*
X107809523Y-80075295D01*
X107809523Y-80075295D02*
X107809523Y-80170533D01*
X107809523Y-80170533D02*
X107761904Y-80313390D01*
X107761904Y-80313390D02*
X107190476Y-80884819D01*
X107190476Y-80884819D02*
X107809523Y-80884819D01*
X108142857Y-79884819D02*
X108809523Y-79884819D01*
X108809523Y-79884819D02*
X108380952Y-80884819D01*
X113859580Y-76642857D02*
X113907200Y-76690476D01*
X113907200Y-76690476D02*
X113954819Y-76833333D01*
X113954819Y-76833333D02*
X113954819Y-76928571D01*
X113954819Y-76928571D02*
X113907200Y-77071428D01*
X113907200Y-77071428D02*
X113811961Y-77166666D01*
X113811961Y-77166666D02*
X113716723Y-77214285D01*
X113716723Y-77214285D02*
X113526247Y-77261904D01*
X113526247Y-77261904D02*
X113383390Y-77261904D01*
X113383390Y-77261904D02*
X113192914Y-77214285D01*
X113192914Y-77214285D02*
X113097676Y-77166666D01*
X113097676Y-77166666D02*
X113002438Y-77071428D01*
X113002438Y-77071428D02*
X112954819Y-76928571D01*
X112954819Y-76928571D02*
X112954819Y-76833333D01*
X112954819Y-76833333D02*
X113002438Y-76690476D01*
X113002438Y-76690476D02*
X113050057Y-76642857D01*
X113954819Y-75690476D02*
X113954819Y-76261904D01*
X113954819Y-75976190D02*
X112954819Y-75976190D01*
X112954819Y-75976190D02*
X113097676Y-76071428D01*
X113097676Y-76071428D02*
X113192914Y-76166666D01*
X113192914Y-76166666D02*
X113240533Y-76261904D01*
X112954819Y-74785714D02*
X112954819Y-75261904D01*
X112954819Y-75261904D02*
X113431009Y-75309523D01*
X113431009Y-75309523D02*
X113383390Y-75261904D01*
X113383390Y-75261904D02*
X113335771Y-75166666D01*
X113335771Y-75166666D02*
X113335771Y-74928571D01*
X113335771Y-74928571D02*
X113383390Y-74833333D01*
X113383390Y-74833333D02*
X113431009Y-74785714D01*
X113431009Y-74785714D02*
X113526247Y-74738095D01*
X113526247Y-74738095D02*
X113764342Y-74738095D01*
X113764342Y-74738095D02*
X113859580Y-74785714D01*
X113859580Y-74785714D02*
X113907200Y-74833333D01*
X113907200Y-74833333D02*
X113954819Y-74928571D01*
X113954819Y-74928571D02*
X113954819Y-75166666D01*
X113954819Y-75166666D02*
X113907200Y-75261904D01*
X113907200Y-75261904D02*
X113859580Y-75309523D01*
D13*
X127857142Y-79956119D02*
X127523809Y-79479928D01*
X127285714Y-79956119D02*
X127285714Y-78956119D01*
X127285714Y-78956119D02*
X127666666Y-78956119D01*
X127666666Y-78956119D02*
X127761904Y-79003738D01*
X127761904Y-79003738D02*
X127809523Y-79051357D01*
X127809523Y-79051357D02*
X127857142Y-79146595D01*
X127857142Y-79146595D02*
X127857142Y-79289452D01*
X127857142Y-79289452D02*
X127809523Y-79384690D01*
X127809523Y-79384690D02*
X127761904Y-79432309D01*
X127761904Y-79432309D02*
X127666666Y-79479928D01*
X127666666Y-79479928D02*
X127285714Y-79479928D01*
X128238095Y-79051357D02*
X128285714Y-79003738D01*
X128285714Y-79003738D02*
X128380952Y-78956119D01*
X128380952Y-78956119D02*
X128619047Y-78956119D01*
X128619047Y-78956119D02*
X128714285Y-79003738D01*
X128714285Y-79003738D02*
X128761904Y-79051357D01*
X128761904Y-79051357D02*
X128809523Y-79146595D01*
X128809523Y-79146595D02*
X128809523Y-79241833D01*
X128809523Y-79241833D02*
X128761904Y-79384690D01*
X128761904Y-79384690D02*
X128190476Y-79956119D01*
X128190476Y-79956119D02*
X128809523Y-79956119D01*
X129142857Y-78956119D02*
X129761904Y-78956119D01*
X129761904Y-78956119D02*
X129428571Y-79337071D01*
X129428571Y-79337071D02*
X129571428Y-79337071D01*
X129571428Y-79337071D02*
X129666666Y-79384690D01*
X129666666Y-79384690D02*
X129714285Y-79432309D01*
X129714285Y-79432309D02*
X129761904Y-79527547D01*
X129761904Y-79527547D02*
X129761904Y-79765642D01*
X129761904Y-79765642D02*
X129714285Y-79860880D01*
X129714285Y-79860880D02*
X129666666Y-79908500D01*
X129666666Y-79908500D02*
X129571428Y-79956119D01*
X129571428Y-79956119D02*
X129285714Y-79956119D01*
X129285714Y-79956119D02*
X129190476Y-79908500D01*
X129190476Y-79908500D02*
X129142857Y-79860880D01*
D12*
%TO.C,VR1*%
X128887000Y-66210000D02*
X128887000Y-66210000D01*
X128987000Y-66210000D02*
X128987000Y-66210000D01*
X128987000Y-66210000D02*
G75*
G02*
X128887000Y-66210000I-50000J0D01*
G01*
X128887000Y-66210000D02*
G75*
G02*
X128987000Y-66210000I50000J0D01*
G01*
D14*
%TO.C,USB1*%
X117000000Y-84800000D02*
X117000000Y-86300000D01*
X117000000Y-86300000D02*
X125000000Y-86300000D01*
X125000000Y-86300000D02*
X125000000Y-84800000D01*
X125000000Y-82200000D02*
X125000000Y-81400000D01*
X122800000Y-79700000D02*
X123400000Y-79700000D01*
X118600000Y-79700000D02*
X119200000Y-79700000D01*
X117000000Y-81400000D02*
X117000000Y-82200000D01*
D12*
X119700000Y-78900000D02*
X119700000Y-78900000D01*
X119700000Y-78800000D02*
X119700000Y-78800000D01*
X119700000Y-78800000D02*
G75*
G02*
X119700000Y-78900000I0J-50000D01*
G01*
X119700000Y-78900000D02*
G75*
G02*
X119700000Y-78800000I0J50000D01*
G01*
D14*
%TO.C,RESET1*%
X131228000Y-45900000D02*
X133777000Y-45900000D01*
X131228000Y-39900000D02*
X133777000Y-39900000D01*
X129500000Y-45577000D02*
X129500000Y-40168000D01*
X135500000Y-45577000D02*
X135500000Y-40168000D01*
X130330480Y-47305000D02*
G75*
G02*
X130229520Y-47305000I-50480J0D01*
G01*
X130229520Y-47305000D02*
G75*
G02*
X130330480Y-47305000I50480J0D01*
G01*
D15*
%TO.C,R28*%
X115746359Y-73620000D02*
X116053641Y-73620000D01*
X115746359Y-74380000D02*
X116053641Y-74380000D01*
D14*
%TO.C,PS1*%
X112350000Y-74500000D02*
X108650000Y-74500000D01*
X108650000Y-74500000D02*
X108650000Y-71500000D01*
X108650000Y-71500000D02*
X112350000Y-71500000D01*
X112350000Y-71500000D02*
X112350000Y-74500000D01*
X114175000Y-74550000D02*
X112700000Y-74550000D01*
%TO.C,MD1*%
X133950000Y-51500000D02*
X133950000Y-51500000D01*
X134050000Y-51500000D02*
X134050000Y-51500000D01*
X133950000Y-51500000D02*
X133950000Y-51500000D01*
X134050000Y-51500000D02*
G75*
G02*
X133950000Y-51500000I-50000J0D01*
G01*
X133950000Y-51500000D02*
G75*
G02*
X134050000Y-51500000I50000J0D01*
G01*
X134050000Y-51500000D02*
G75*
G02*
X133950000Y-51500000I-50000J0D01*
G01*
%TO.C,LED1*%
X134675000Y-77500000D02*
X134675000Y-79800000D01*
X134675000Y-79800000D02*
X136325000Y-79800000D01*
X136325000Y-79800000D02*
X136325000Y-77500000D01*
D16*
%TO.C,LDO1*%
X111225000Y-77025000D02*
G75*
G02*
X110975000Y-77025000I-125000J0D01*
G01*
X110975000Y-77025000D02*
G75*
G02*
X111225000Y-77025000I125000J0D01*
G01*
D12*
%TO.C,IC8*%
X111700000Y-45050000D02*
X111700000Y-45050000D01*
X111800000Y-45050000D02*
X111800000Y-45050000D01*
D14*
X112300000Y-38200000D02*
X127700000Y-38200000D01*
X112300000Y-58700000D02*
X112300000Y-38200000D01*
X127700000Y-38200000D02*
X127700000Y-58700000D01*
X127700000Y-58700000D02*
X112300000Y-58700000D01*
D12*
X111700000Y-45050000D02*
G75*
G02*
X111800000Y-45050000I50000J0D01*
G01*
X111800000Y-45050000D02*
G75*
G02*
X111700000Y-45050000I-50000J0D01*
G01*
D14*
%TO.C,I2Ce1*%
X110350000Y-62100000D02*
X114050000Y-62100000D01*
X114050000Y-62100000D02*
X114050000Y-69900000D01*
X114050000Y-69900000D02*
X110350000Y-69900000D01*
X110350000Y-69900000D02*
X110350000Y-62100000D01*
X108525000Y-61850000D02*
X110000000Y-61850000D01*
D12*
%TO.C,ESD1*%
X120500000Y-77388000D02*
X120500000Y-77388000D01*
X120500000Y-77288000D02*
X120500000Y-77288000D01*
X120500000Y-77288000D02*
G75*
G02*
X120500000Y-77388000I0J-50000D01*
G01*
X120500000Y-77388000D02*
G75*
G02*
X120500000Y-77288000I0J50000D01*
G01*
D14*
%TO.C,BOOT1*%
X108122000Y-42150000D02*
X105573000Y-42150000D01*
X108122000Y-48150000D02*
X105573000Y-48150000D01*
X109850000Y-42473000D02*
X109850000Y-47882000D01*
X103850000Y-42473000D02*
X103850000Y-47882000D01*
X109120480Y-40745000D02*
G75*
G02*
X109019520Y-40745000I-50480J0D01*
G01*
X109019520Y-40745000D02*
G75*
G02*
X109120480Y-40745000I50480J0D01*
G01*
%TO.C,BM1*%
X134600000Y-57460000D02*
X134500000Y-57460000D01*
X134500000Y-57460000D02*
X134500000Y-54540000D01*
X134500000Y-54540000D02*
X134600000Y-54540000D01*
X134600000Y-54540000D02*
X134600000Y-57460000D01*
X136250000Y-57500000D02*
X134950000Y-57500000D01*
%TO.C,BC1*%
X127400000Y-73500000D02*
X128800000Y-73500000D01*
D15*
%TO.C,C2*%
X130240000Y-69359420D02*
X130240000Y-69640580D01*
X131260000Y-69359420D02*
X131260000Y-69640580D01*
%TO.C,R19*%
X105653641Y-69620000D02*
X105346359Y-69620000D01*
X105653641Y-70380000D02*
X105346359Y-70380000D01*
%TO.C,R12*%
X118328641Y-65120000D02*
X118021359Y-65120000D01*
X118328641Y-65880000D02*
X118021359Y-65880000D01*
%TO.C,R26*%
X134846359Y-58170000D02*
X135153641Y-58170000D01*
X134846359Y-58930000D02*
X135153641Y-58930000D01*
%TO.C,R6*%
X112653641Y-60120000D02*
X112346359Y-60120000D01*
X112653641Y-60880000D02*
X112346359Y-60880000D01*
%TO.C,L1*%
X135277500Y-64375279D02*
X135277500Y-64049721D01*
X136297500Y-64375279D02*
X136297500Y-64049721D01*
%TO.C,C12*%
X108940000Y-51134420D02*
X108940000Y-51415580D01*
X109960000Y-51134420D02*
X109960000Y-51415580D01*
%TO.C,R22*%
X125120000Y-75346359D02*
X125120000Y-75653641D01*
X125880000Y-75346359D02*
X125880000Y-75653641D01*
%TO.C,R25*%
X134620000Y-73856359D02*
X134620000Y-74163641D01*
X135380000Y-73856359D02*
X135380000Y-74163641D01*
%TO.C,R18*%
X105653641Y-68620000D02*
X105346359Y-68620000D01*
X105653641Y-69380000D02*
X105346359Y-69380000D01*
%TO.C,C8*%
X133240000Y-69359420D02*
X133240000Y-69640580D01*
X134260000Y-69359420D02*
X134260000Y-69640580D01*
%TO.C,C3*%
X128740000Y-69359420D02*
X128740000Y-69640580D01*
X129760000Y-69359420D02*
X129760000Y-69640580D01*
%TO.C,C13*%
X122859420Y-72990000D02*
X123140580Y-72990000D01*
X122859420Y-74010000D02*
X123140580Y-74010000D01*
%TO.C,R10*%
X105643641Y-62620000D02*
X105336359Y-62620000D01*
X105643641Y-63380000D02*
X105336359Y-63380000D01*
%TO.C,C9*%
X104940000Y-56140580D02*
X104940000Y-55859420D01*
X105960000Y-56140580D02*
X105960000Y-55859420D01*
%TO.C,C7*%
X125140580Y-69490000D02*
X124859420Y-69490000D01*
X125140580Y-70510000D02*
X124859420Y-70510000D01*
%TO.C,R9*%
X118328641Y-63120000D02*
X118021359Y-63120000D01*
X118328641Y-63880000D02*
X118021359Y-63880000D01*
%TO.C,R29*%
X118328641Y-67120000D02*
X118021359Y-67120000D01*
X118328641Y-67880000D02*
X118021359Y-67880000D01*
%TO.C,R24*%
X133846359Y-72120000D02*
X134153641Y-72120000D01*
X133846359Y-72880000D02*
X134153641Y-72880000D01*
%TO.C,R31*%
X118328641Y-69120000D02*
X118021359Y-69120000D01*
X118328641Y-69880000D02*
X118021359Y-69880000D01*
%TO.C,C4*%
X131740000Y-69359420D02*
X131740000Y-69640580D01*
X132760000Y-69359420D02*
X132760000Y-69640580D01*
%TO.C,R30*%
X118328641Y-68120000D02*
X118021359Y-68120000D01*
X118328641Y-68880000D02*
X118021359Y-68880000D01*
%TO.C,R17*%
X105653641Y-67620000D02*
X105346359Y-67620000D01*
X105653641Y-68380000D02*
X105346359Y-68380000D01*
%TO.C,C10*%
X104940000Y-51084420D02*
X104940000Y-51365580D01*
X105960000Y-51084420D02*
X105960000Y-51365580D01*
%TO.C,R1*%
X123262742Y-67477500D02*
X123737258Y-67477500D01*
X123262742Y-68522500D02*
X123737258Y-68522500D01*
%TO.C,R32*%
X118328641Y-70120000D02*
X118021359Y-70120000D01*
X118328641Y-70880000D02*
X118021359Y-70880000D01*
%TO.C,R14*%
X105643641Y-64620000D02*
X105336359Y-64620000D01*
X105643641Y-65380000D02*
X105336359Y-65380000D01*
%TO.C,C14*%
X115859420Y-76490000D02*
X116140580Y-76490000D01*
X115859420Y-77510000D02*
X116140580Y-77510000D01*
%TO.C,R11*%
X105653641Y-63620000D02*
X105346359Y-63620000D01*
X105653641Y-64380000D02*
X105346359Y-64380000D01*
%TO.C,R4*%
X126977500Y-69262742D02*
X126977500Y-69737258D01*
X128022500Y-69262742D02*
X128022500Y-69737258D01*
%TO.C,R15*%
X105653641Y-65620000D02*
X105346359Y-65620000D01*
X105653641Y-66380000D02*
X105346359Y-66380000D01*
%TO.C,R8*%
X118328641Y-64120000D02*
X118021359Y-64120000D01*
X118328641Y-64880000D02*
X118021359Y-64880000D01*
%TO.C,R20*%
X107977500Y-76087742D02*
X107977500Y-76562258D01*
X109022500Y-76087742D02*
X109022500Y-76562258D01*
%TO.C,C6*%
X131140580Y-56540000D02*
X130859420Y-56540000D01*
X131140580Y-57560000D02*
X130859420Y-57560000D01*
%TO.C,C1*%
X123865580Y-62490000D02*
X123584420Y-62490000D01*
X123865580Y-63510000D02*
X123584420Y-63510000D01*
%TO.C,R21*%
X131346359Y-37120000D02*
X131653641Y-37120000D01*
X131346359Y-37880000D02*
X131653641Y-37880000D01*
%TO.C,R7*%
X118653641Y-62120000D02*
X118346359Y-62120000D01*
X118653641Y-62880000D02*
X118346359Y-62880000D01*
%TO.C,R13*%
X118328641Y-66120000D02*
X118021359Y-66120000D01*
X118328641Y-66880000D02*
X118021359Y-66880000D01*
%TO.C,C11*%
X134084420Y-36990000D02*
X134365580Y-36990000D01*
X134084420Y-38010000D02*
X134365580Y-38010000D01*
%TO.C,R2*%
X121977500Y-70087742D02*
X121977500Y-70562258D01*
X123022500Y-70087742D02*
X123022500Y-70562258D01*
%TO.C,R5*%
X109328641Y-60120000D02*
X109021359Y-60120000D01*
X109328641Y-60880000D02*
X109021359Y-60880000D01*
%TO.C,R3*%
X125977500Y-62262742D02*
X125977500Y-62737258D01*
X127022500Y-62262742D02*
X127022500Y-62737258D01*
%TO.C,C5*%
X131140580Y-54540000D02*
X130859420Y-54540000D01*
X131140580Y-55560000D02*
X130859420Y-55560000D01*
%TO.C,R27*%
X107737258Y-78477500D02*
X107262742Y-78477500D01*
X107737258Y-79522500D02*
X107262742Y-79522500D01*
%TO.C,C15*%
X111359420Y-75490000D02*
X111640580Y-75490000D01*
X111359420Y-76510000D02*
X111640580Y-76510000D01*
%TO.C,R23*%
X128262742Y-78522500D02*
X128737258Y-78522500D01*
X128262742Y-77477500D02*
X128737258Y-77477500D01*
%TO.C,R16*%
X105653641Y-66620000D02*
X105346359Y-66620000D01*
X105653641Y-67380000D02*
X105346359Y-67380000D01*
%TD*%
M02*
