%TF.GenerationSoftware,KiCad,Pcbnew,8.0.6*%
%TF.CreationDate,2024-12-03T19:32:54-08:00*%
%TF.ProjectId,VCNL4040Breakout,56434e4c-3430-4343-9042-7265616b6f75,rev?*%
%TF.SameCoordinates,Original*%
%TF.FileFunction,Legend,Top*%
%TF.FilePolarity,Positive*%
%FSLAX46Y46*%
G04 Gerber Fmt 4.6, Leading zero omitted, Abs format (unit mm)*
G04 Created by KiCad (PCBNEW 8.0.6) date 2024-12-03 19:32:54*
%MOMM*%
%LPD*%
G01*
G04 APERTURE LIST*
%ADD10C,0.150000*%
%ADD11C,0.254000*%
%ADD12C,0.100000*%
%ADD13C,0.120000*%
%ADD14C,0.200000*%
G04 APERTURE END LIST*
D10*
X133854819Y-103609523D02*
X132854819Y-103609523D01*
X132854819Y-103609523D02*
X133569104Y-103276190D01*
X133569104Y-103276190D02*
X132854819Y-102942857D01*
X132854819Y-102942857D02*
X133854819Y-102942857D01*
X132950057Y-102514285D02*
X132902438Y-102466666D01*
X132902438Y-102466666D02*
X132854819Y-102371428D01*
X132854819Y-102371428D02*
X132854819Y-102133333D01*
X132854819Y-102133333D02*
X132902438Y-102038095D01*
X132902438Y-102038095D02*
X132950057Y-101990476D01*
X132950057Y-101990476D02*
X133045295Y-101942857D01*
X133045295Y-101942857D02*
X133140533Y-101942857D01*
X133140533Y-101942857D02*
X133283390Y-101990476D01*
X133283390Y-101990476D02*
X133854819Y-102561904D01*
X133854819Y-102561904D02*
X133854819Y-101942857D01*
X133854819Y-92409523D02*
X132854819Y-92409523D01*
X132854819Y-92409523D02*
X133569104Y-92076190D01*
X133569104Y-92076190D02*
X132854819Y-91742857D01*
X132854819Y-91742857D02*
X133854819Y-91742857D01*
X132950057Y-91314285D02*
X132902438Y-91266666D01*
X132902438Y-91266666D02*
X132854819Y-91171428D01*
X132854819Y-91171428D02*
X132854819Y-90933333D01*
X132854819Y-90933333D02*
X132902438Y-90838095D01*
X132902438Y-90838095D02*
X132950057Y-90790476D01*
X132950057Y-90790476D02*
X133045295Y-90742857D01*
X133045295Y-90742857D02*
X133140533Y-90742857D01*
X133140533Y-90742857D02*
X133283390Y-90790476D01*
X133283390Y-90790476D02*
X133854819Y-91361904D01*
X133854819Y-91361904D02*
X133854819Y-90742857D01*
X125833333Y-101554819D02*
X125500000Y-101078628D01*
X125261905Y-101554819D02*
X125261905Y-100554819D01*
X125261905Y-100554819D02*
X125642857Y-100554819D01*
X125642857Y-100554819D02*
X125738095Y-100602438D01*
X125738095Y-100602438D02*
X125785714Y-100650057D01*
X125785714Y-100650057D02*
X125833333Y-100745295D01*
X125833333Y-100745295D02*
X125833333Y-100888152D01*
X125833333Y-100888152D02*
X125785714Y-100983390D01*
X125785714Y-100983390D02*
X125738095Y-101031009D01*
X125738095Y-101031009D02*
X125642857Y-101078628D01*
X125642857Y-101078628D02*
X125261905Y-101078628D01*
X126214286Y-100650057D02*
X126261905Y-100602438D01*
X126261905Y-100602438D02*
X126357143Y-100554819D01*
X126357143Y-100554819D02*
X126595238Y-100554819D01*
X126595238Y-100554819D02*
X126690476Y-100602438D01*
X126690476Y-100602438D02*
X126738095Y-100650057D01*
X126738095Y-100650057D02*
X126785714Y-100745295D01*
X126785714Y-100745295D02*
X126785714Y-100840533D01*
X126785714Y-100840533D02*
X126738095Y-100983390D01*
X126738095Y-100983390D02*
X126166667Y-101554819D01*
X126166667Y-101554819D02*
X126785714Y-101554819D01*
D11*
X130260237Y-94574318D02*
X130260237Y-93304318D01*
X131590714Y-94453365D02*
X131530238Y-94513842D01*
X131530238Y-94513842D02*
X131348809Y-94574318D01*
X131348809Y-94574318D02*
X131227857Y-94574318D01*
X131227857Y-94574318D02*
X131046428Y-94513842D01*
X131046428Y-94513842D02*
X130925476Y-94392889D01*
X130925476Y-94392889D02*
X130864999Y-94271937D01*
X130864999Y-94271937D02*
X130804523Y-94030032D01*
X130804523Y-94030032D02*
X130804523Y-93848603D01*
X130804523Y-93848603D02*
X130864999Y-93606699D01*
X130864999Y-93606699D02*
X130925476Y-93485746D01*
X130925476Y-93485746D02*
X131046428Y-93364794D01*
X131046428Y-93364794D02*
X131227857Y-93304318D01*
X131227857Y-93304318D02*
X131348809Y-93304318D01*
X131348809Y-93304318D02*
X131530238Y-93364794D01*
X131530238Y-93364794D02*
X131590714Y-93425270D01*
X132800238Y-94574318D02*
X132074523Y-94574318D01*
X132437380Y-94574318D02*
X132437380Y-93304318D01*
X132437380Y-93304318D02*
X132316428Y-93485746D01*
X132316428Y-93485746D02*
X132195476Y-93606699D01*
X132195476Y-93606699D02*
X132074523Y-93667175D01*
D12*
X123590200Y-99309524D02*
X123542580Y-99452381D01*
X123542580Y-99452381D02*
X123542580Y-99690476D01*
X123542580Y-99690476D02*
X123590200Y-99785714D01*
X123590200Y-99785714D02*
X123637819Y-99833333D01*
X123637819Y-99833333D02*
X123733057Y-99880952D01*
X123733057Y-99880952D02*
X123828295Y-99880952D01*
X123828295Y-99880952D02*
X123923533Y-99833333D01*
X123923533Y-99833333D02*
X123971152Y-99785714D01*
X123971152Y-99785714D02*
X124018771Y-99690476D01*
X124018771Y-99690476D02*
X124066390Y-99500000D01*
X124066390Y-99500000D02*
X124114009Y-99404762D01*
X124114009Y-99404762D02*
X124161628Y-99357143D01*
X124161628Y-99357143D02*
X124256866Y-99309524D01*
X124256866Y-99309524D02*
X124352104Y-99309524D01*
X124352104Y-99309524D02*
X124447342Y-99357143D01*
X124447342Y-99357143D02*
X124494961Y-99404762D01*
X124494961Y-99404762D02*
X124542580Y-99500000D01*
X124542580Y-99500000D02*
X124542580Y-99738095D01*
X124542580Y-99738095D02*
X124494961Y-99880952D01*
X123637819Y-100880952D02*
X123590200Y-100833333D01*
X123590200Y-100833333D02*
X123542580Y-100690476D01*
X123542580Y-100690476D02*
X123542580Y-100595238D01*
X123542580Y-100595238D02*
X123590200Y-100452381D01*
X123590200Y-100452381D02*
X123685438Y-100357143D01*
X123685438Y-100357143D02*
X123780676Y-100309524D01*
X123780676Y-100309524D02*
X123971152Y-100261905D01*
X123971152Y-100261905D02*
X124114009Y-100261905D01*
X124114009Y-100261905D02*
X124304485Y-100309524D01*
X124304485Y-100309524D02*
X124399723Y-100357143D01*
X124399723Y-100357143D02*
X124494961Y-100452381D01*
X124494961Y-100452381D02*
X124542580Y-100595238D01*
X124542580Y-100595238D02*
X124542580Y-100690476D01*
X124542580Y-100690476D02*
X124494961Y-100833333D01*
X124494961Y-100833333D02*
X124447342Y-100880952D01*
X123542580Y-101785714D02*
X123542580Y-101309524D01*
X123542580Y-101309524D02*
X124542580Y-101309524D01*
X123590200Y-102285714D02*
X123542580Y-102428571D01*
X123542580Y-102428571D02*
X123542580Y-102666666D01*
X123542580Y-102666666D02*
X123590200Y-102761904D01*
X123590200Y-102761904D02*
X123637819Y-102809523D01*
X123637819Y-102809523D02*
X123733057Y-102857142D01*
X123733057Y-102857142D02*
X123828295Y-102857142D01*
X123828295Y-102857142D02*
X123923533Y-102809523D01*
X123923533Y-102809523D02*
X123971152Y-102761904D01*
X123971152Y-102761904D02*
X124018771Y-102666666D01*
X124018771Y-102666666D02*
X124066390Y-102476190D01*
X124066390Y-102476190D02*
X124114009Y-102380952D01*
X124114009Y-102380952D02*
X124161628Y-102333333D01*
X124161628Y-102333333D02*
X124256866Y-102285714D01*
X124256866Y-102285714D02*
X124352104Y-102285714D01*
X124352104Y-102285714D02*
X124447342Y-102333333D01*
X124447342Y-102333333D02*
X124494961Y-102380952D01*
X124494961Y-102380952D02*
X124542580Y-102476190D01*
X124542580Y-102476190D02*
X124542580Y-102714285D01*
X124542580Y-102714285D02*
X124494961Y-102857142D01*
X123542580Y-103285714D02*
X124542580Y-103285714D01*
X124542580Y-103285714D02*
X124542580Y-103523809D01*
X124542580Y-103523809D02*
X124494961Y-103666666D01*
X124494961Y-103666666D02*
X124399723Y-103761904D01*
X124399723Y-103761904D02*
X124304485Y-103809523D01*
X124304485Y-103809523D02*
X124114009Y-103857142D01*
X124114009Y-103857142D02*
X123971152Y-103857142D01*
X123971152Y-103857142D02*
X123780676Y-103809523D01*
X123780676Y-103809523D02*
X123685438Y-103761904D01*
X123685438Y-103761904D02*
X123590200Y-103666666D01*
X123590200Y-103666666D02*
X123542580Y-103523809D01*
X123542580Y-103523809D02*
X123542580Y-103285714D01*
X123828295Y-104238095D02*
X123828295Y-104714285D01*
X123542580Y-104142857D02*
X124542580Y-104476190D01*
X124542580Y-104476190D02*
X123542580Y-104809523D01*
X124542580Y-90261905D02*
X124542580Y-90880952D01*
X124542580Y-90880952D02*
X124161628Y-90547619D01*
X124161628Y-90547619D02*
X124161628Y-90690476D01*
X124161628Y-90690476D02*
X124114009Y-90785714D01*
X124114009Y-90785714D02*
X124066390Y-90833333D01*
X124066390Y-90833333D02*
X123971152Y-90880952D01*
X123971152Y-90880952D02*
X123733057Y-90880952D01*
X123733057Y-90880952D02*
X123637819Y-90833333D01*
X123637819Y-90833333D02*
X123590200Y-90785714D01*
X123590200Y-90785714D02*
X123542580Y-90690476D01*
X123542580Y-90690476D02*
X123542580Y-90404762D01*
X123542580Y-90404762D02*
X123590200Y-90309524D01*
X123590200Y-90309524D02*
X123637819Y-90261905D01*
X124542580Y-91166667D02*
X123542580Y-91500000D01*
X123542580Y-91500000D02*
X124542580Y-91833333D01*
X124542580Y-92071429D02*
X124542580Y-92690476D01*
X124542580Y-92690476D02*
X124161628Y-92357143D01*
X124161628Y-92357143D02*
X124161628Y-92500000D01*
X124161628Y-92500000D02*
X124114009Y-92595238D01*
X124114009Y-92595238D02*
X124066390Y-92642857D01*
X124066390Y-92642857D02*
X123971152Y-92690476D01*
X123971152Y-92690476D02*
X123733057Y-92690476D01*
X123733057Y-92690476D02*
X123637819Y-92642857D01*
X123637819Y-92642857D02*
X123590200Y-92595238D01*
X123590200Y-92595238D02*
X123542580Y-92500000D01*
X123542580Y-92500000D02*
X123542580Y-92214286D01*
X123542580Y-92214286D02*
X123590200Y-92119048D01*
X123590200Y-92119048D02*
X123637819Y-92071429D01*
D10*
X128333333Y-101459580D02*
X128285714Y-101507200D01*
X128285714Y-101507200D02*
X128142857Y-101554819D01*
X128142857Y-101554819D02*
X128047619Y-101554819D01*
X128047619Y-101554819D02*
X127904762Y-101507200D01*
X127904762Y-101507200D02*
X127809524Y-101411961D01*
X127809524Y-101411961D02*
X127761905Y-101316723D01*
X127761905Y-101316723D02*
X127714286Y-101126247D01*
X127714286Y-101126247D02*
X127714286Y-100983390D01*
X127714286Y-100983390D02*
X127761905Y-100792914D01*
X127761905Y-100792914D02*
X127809524Y-100697676D01*
X127809524Y-100697676D02*
X127904762Y-100602438D01*
X127904762Y-100602438D02*
X128047619Y-100554819D01*
X128047619Y-100554819D02*
X128142857Y-100554819D01*
X128142857Y-100554819D02*
X128285714Y-100602438D01*
X128285714Y-100602438D02*
X128333333Y-100650057D01*
X129285714Y-101554819D02*
X128714286Y-101554819D01*
X129000000Y-101554819D02*
X129000000Y-100554819D01*
X129000000Y-100554819D02*
X128904762Y-100697676D01*
X128904762Y-100697676D02*
X128809524Y-100792914D01*
X128809524Y-100792914D02*
X128714286Y-100840533D01*
X128333333Y-91359580D02*
X128285714Y-91407200D01*
X128285714Y-91407200D02*
X128142857Y-91454819D01*
X128142857Y-91454819D02*
X128047619Y-91454819D01*
X128047619Y-91454819D02*
X127904762Y-91407200D01*
X127904762Y-91407200D02*
X127809524Y-91311961D01*
X127809524Y-91311961D02*
X127761905Y-91216723D01*
X127761905Y-91216723D02*
X127714286Y-91026247D01*
X127714286Y-91026247D02*
X127714286Y-90883390D01*
X127714286Y-90883390D02*
X127761905Y-90692914D01*
X127761905Y-90692914D02*
X127809524Y-90597676D01*
X127809524Y-90597676D02*
X127904762Y-90502438D01*
X127904762Y-90502438D02*
X128047619Y-90454819D01*
X128047619Y-90454819D02*
X128142857Y-90454819D01*
X128142857Y-90454819D02*
X128285714Y-90502438D01*
X128285714Y-90502438D02*
X128333333Y-90550057D01*
X128714286Y-90550057D02*
X128761905Y-90502438D01*
X128761905Y-90502438D02*
X128857143Y-90454819D01*
X128857143Y-90454819D02*
X129095238Y-90454819D01*
X129095238Y-90454819D02*
X129190476Y-90502438D01*
X129190476Y-90502438D02*
X129238095Y-90550057D01*
X129238095Y-90550057D02*
X129285714Y-90645295D01*
X129285714Y-90645295D02*
X129285714Y-90740533D01*
X129285714Y-90740533D02*
X129238095Y-90883390D01*
X129238095Y-90883390D02*
X128666667Y-91454819D01*
X128666667Y-91454819D02*
X129285714Y-91454819D01*
D12*
X124494961Y-93738095D02*
X124542580Y-93642857D01*
X124542580Y-93642857D02*
X124542580Y-93500000D01*
X124542580Y-93500000D02*
X124494961Y-93357143D01*
X124494961Y-93357143D02*
X124399723Y-93261905D01*
X124399723Y-93261905D02*
X124304485Y-93214286D01*
X124304485Y-93214286D02*
X124114009Y-93166667D01*
X124114009Y-93166667D02*
X123971152Y-93166667D01*
X123971152Y-93166667D02*
X123780676Y-93214286D01*
X123780676Y-93214286D02*
X123685438Y-93261905D01*
X123685438Y-93261905D02*
X123590200Y-93357143D01*
X123590200Y-93357143D02*
X123542580Y-93500000D01*
X123542580Y-93500000D02*
X123542580Y-93595238D01*
X123542580Y-93595238D02*
X123590200Y-93738095D01*
X123590200Y-93738095D02*
X123637819Y-93785714D01*
X123637819Y-93785714D02*
X123971152Y-93785714D01*
X123971152Y-93785714D02*
X123971152Y-93595238D01*
X123542580Y-94214286D02*
X124542580Y-94214286D01*
X124542580Y-94214286D02*
X123542580Y-94785714D01*
X123542580Y-94785714D02*
X124542580Y-94785714D01*
X123542580Y-95261905D02*
X124542580Y-95261905D01*
X124542580Y-95261905D02*
X124542580Y-95500000D01*
X124542580Y-95500000D02*
X124494961Y-95642857D01*
X124494961Y-95642857D02*
X124399723Y-95738095D01*
X124399723Y-95738095D02*
X124304485Y-95785714D01*
X124304485Y-95785714D02*
X124114009Y-95833333D01*
X124114009Y-95833333D02*
X123971152Y-95833333D01*
X123971152Y-95833333D02*
X123780676Y-95785714D01*
X123780676Y-95785714D02*
X123685438Y-95738095D01*
X123685438Y-95738095D02*
X123590200Y-95642857D01*
X123590200Y-95642857D02*
X123542580Y-95500000D01*
X123542580Y-95500000D02*
X123542580Y-95261905D01*
X123542580Y-96595238D02*
X124542580Y-96595238D01*
X123542580Y-97071428D02*
X124542580Y-97071428D01*
X124542580Y-97071428D02*
X123542580Y-97642856D01*
X123542580Y-97642856D02*
X124542580Y-97642856D01*
X124542580Y-97976190D02*
X124542580Y-98547618D01*
X123542580Y-98261904D02*
X124542580Y-98261904D01*
D10*
X126833333Y-95454819D02*
X126500000Y-94978628D01*
X126261905Y-95454819D02*
X126261905Y-94454819D01*
X126261905Y-94454819D02*
X126642857Y-94454819D01*
X126642857Y-94454819D02*
X126738095Y-94502438D01*
X126738095Y-94502438D02*
X126785714Y-94550057D01*
X126785714Y-94550057D02*
X126833333Y-94645295D01*
X126833333Y-94645295D02*
X126833333Y-94788152D01*
X126833333Y-94788152D02*
X126785714Y-94883390D01*
X126785714Y-94883390D02*
X126738095Y-94931009D01*
X126738095Y-94931009D02*
X126642857Y-94978628D01*
X126642857Y-94978628D02*
X126261905Y-94978628D01*
X127785714Y-95454819D02*
X127214286Y-95454819D01*
X127500000Y-95454819D02*
X127500000Y-94454819D01*
X127500000Y-94454819D02*
X127404762Y-94597676D01*
X127404762Y-94597676D02*
X127309524Y-94692914D01*
X127309524Y-94692914D02*
X127214286Y-94740533D01*
D13*
%TO.C,R2*%
X125977500Y-98362742D02*
X125977500Y-98837258D01*
X127022500Y-98362742D02*
X127022500Y-98837258D01*
D14*
%TO.C,IC1*%
X130650000Y-95838000D02*
X130650000Y-95838000D01*
X130650000Y-96038000D02*
X130650000Y-96038000D01*
D12*
X132300000Y-95538000D02*
X132100000Y-95538000D01*
X132300000Y-99538000D02*
X132100000Y-99538000D01*
D14*
X130650000Y-95838000D02*
G75*
G02*
X130650000Y-96038000I0J-100000D01*
G01*
X130650000Y-96038000D02*
G75*
G02*
X130650000Y-95838000I0J100000D01*
G01*
D13*
%TO.C,C1*%
X127490000Y-98459420D02*
X127490000Y-98740580D01*
X128510000Y-98459420D02*
X128510000Y-98740580D01*
%TO.C,C2*%
X125859420Y-91490000D02*
X126140580Y-91490000D01*
X125859420Y-92510000D02*
X126140580Y-92510000D01*
%TO.C,R1*%
X125846359Y-93120000D02*
X126153641Y-93120000D01*
X125846359Y-93880000D02*
X126153641Y-93880000D01*
%TD*%
M02*
