%TF.GenerationSoftware,KiCad,Pcbnew,8.0.6*%
%TF.CreationDate,2024-12-03T19:32:54-08:00*%
%TF.ProjectId,VCNL4040Breakout,56434e4c-3430-4343-9042-7265616b6f75,rev?*%
%TF.SameCoordinates,Original*%
%TF.FileFunction,Copper,L2,Bot*%
%TF.FilePolarity,Positive*%
%FSLAX46Y46*%
G04 Gerber Fmt 4.6, Leading zero omitted, Abs format (unit mm)*
G04 Created by KiCad (PCBNEW 8.0.6) date 2024-12-03 19:32:54*
%MOMM*%
%LPD*%
G01*
G04 APERTURE LIST*
%TA.AperFunction,ComponentPad*%
%ADD10C,2.000000*%
%TD*%
%TA.AperFunction,ViaPad*%
%ADD11C,0.600000*%
%TD*%
%TA.AperFunction,Conductor*%
%ADD12C,0.200000*%
%TD*%
G04 APERTURE END LIST*
D10*
%TO.P,SCL,1,1*%
%TO.N,Net-(IC1-SCLK)*%
X122000000Y-100500000D03*
%TD*%
%TO.P,SDA,1,1*%
%TO.N,Net-(IC1-SDAT)*%
X122000000Y-103500000D03*
%TD*%
%TO.P,3V3,1,1*%
%TO.N,Net-(IC1-A)*%
X122000000Y-91500000D03*
%TD*%
%TO.P,GND,1,1*%
%TO.N,GND*%
X122000000Y-94500000D03*
%TD*%
%TO.P,INT,1,1*%
%TO.N,Net-(IC1-INT)*%
X122000000Y-97500000D03*
%TD*%
D11*
%TO.N,Net-(IC1-A)*%
X125375735Y-95000000D03*
X125500000Y-99600000D03*
%TO.N,Net-(IC1-K(LED))*%
X129200000Y-95600000D03*
X132800000Y-100400000D03*
%TO.N,Net-(IC1-SDAT)*%
X133500000Y-94000000D03*
%TO.N,Net-(IC1-INT)*%
X131600000Y-100600000D03*
X127600000Y-94000000D03*
%TO.N,GND*%
X129400000Y-99800000D03*
X128500000Y-92000000D03*
X129800000Y-94800000D03*
%TD*%
D12*
%TO.N,Net-(IC1-A)*%
X125500000Y-95124265D02*
X125375735Y-95000000D01*
X125500000Y-99600000D02*
X125500000Y-95124265D01*
%TO.N,Net-(IC1-K(LED))*%
X129200000Y-95600000D02*
X130100000Y-95600000D01*
X130100000Y-95600000D02*
X132800000Y-98300000D01*
X132800000Y-98300000D02*
X132800000Y-100400000D01*
%TO.N,Net-(IC1-SDAT)*%
X133500000Y-94000000D02*
X133600000Y-94100000D01*
X126000000Y-101600000D02*
X124100000Y-103500000D01*
X124100000Y-103500000D02*
X122000000Y-103500000D01*
X132600000Y-101600000D02*
X126000000Y-101600000D01*
X133600000Y-100600000D02*
X132600000Y-101600000D01*
X133600000Y-94100000D02*
X133600000Y-100600000D01*
%TO.N,Net-(IC1-INT)*%
X131600000Y-99000000D02*
X128400000Y-95800000D01*
X128400000Y-95800000D02*
X128400000Y-94800000D01*
X128400000Y-94800000D02*
X127600000Y-94000000D01*
X131600000Y-100600000D02*
X131600000Y-99000000D01*
%TD*%
%TA.AperFunction,Conductor*%
%TO.N,GND*%
G36*
X130176406Y-90320185D02*
G01*
X130222161Y-90372989D01*
X130232105Y-90442147D01*
X130203080Y-90505703D01*
X130182252Y-90524819D01*
X130120207Y-90569896D01*
X129969890Y-90720213D01*
X129844951Y-90892179D01*
X129748444Y-91081585D01*
X129682753Y-91283760D01*
X129649500Y-91493713D01*
X129649500Y-91706286D01*
X129682753Y-91916239D01*
X129748444Y-92118414D01*
X129844951Y-92307820D01*
X129969890Y-92479786D01*
X130120213Y-92630109D01*
X130292179Y-92755048D01*
X130292181Y-92755049D01*
X130292184Y-92755051D01*
X130481588Y-92851557D01*
X130683757Y-92917246D01*
X130893713Y-92950500D01*
X130893714Y-92950500D01*
X131106286Y-92950500D01*
X131106287Y-92950500D01*
X131316243Y-92917246D01*
X131518412Y-92851557D01*
X131707816Y-92755051D01*
X131729789Y-92739086D01*
X131879786Y-92630109D01*
X131879788Y-92630106D01*
X131879792Y-92630104D01*
X132030104Y-92479792D01*
X132030106Y-92479788D01*
X132030109Y-92479786D01*
X132155048Y-92307820D01*
X132155047Y-92307820D01*
X132155051Y-92307816D01*
X132251557Y-92118412D01*
X132317246Y-91916243D01*
X132350500Y-91706287D01*
X132350500Y-91493713D01*
X132317246Y-91283757D01*
X132251557Y-91081588D01*
X132155051Y-90892184D01*
X132155049Y-90892181D01*
X132155048Y-90892179D01*
X132030109Y-90720213D01*
X131879792Y-90569896D01*
X131817748Y-90524819D01*
X131775082Y-90469489D01*
X131769103Y-90399876D01*
X131801708Y-90338080D01*
X131862547Y-90303723D01*
X131890633Y-90300500D01*
X133775500Y-90300500D01*
X133842539Y-90320185D01*
X133888294Y-90372989D01*
X133899500Y-90424500D01*
X133899500Y-93116936D01*
X133879815Y-93183975D01*
X133827011Y-93229730D01*
X133757853Y-93239674D01*
X133734547Y-93233978D01*
X133679260Y-93214633D01*
X133679249Y-93214630D01*
X133500004Y-93194435D01*
X133499996Y-93194435D01*
X133320750Y-93214630D01*
X133320745Y-93214631D01*
X133150476Y-93274211D01*
X132997737Y-93370184D01*
X132870184Y-93497737D01*
X132774211Y-93650476D01*
X132714631Y-93820745D01*
X132714630Y-93820750D01*
X132694435Y-93999996D01*
X132694435Y-94000003D01*
X132714630Y-94179249D01*
X132714631Y-94179254D01*
X132774211Y-94349523D01*
X132870184Y-94502262D01*
X132963181Y-94595259D01*
X132996666Y-94656582D01*
X132999500Y-94682940D01*
X132999500Y-97350902D01*
X132979815Y-97417941D01*
X132927011Y-97463696D01*
X132857853Y-97473640D01*
X132794297Y-97444615D01*
X132787819Y-97438583D01*
X130587590Y-95238355D01*
X130587588Y-95238352D01*
X130468717Y-95119481D01*
X130468709Y-95119475D01*
X130366936Y-95060717D01*
X130366934Y-95060716D01*
X130331790Y-95040425D01*
X130331789Y-95040424D01*
X130319263Y-95037067D01*
X130179057Y-94999499D01*
X130020943Y-94999499D01*
X130013347Y-94999499D01*
X130013331Y-94999500D01*
X129782412Y-94999500D01*
X129715373Y-94979815D01*
X129705097Y-94972445D01*
X129702263Y-94970185D01*
X129702262Y-94970184D01*
X129645496Y-94934515D01*
X129549523Y-94874211D01*
X129379254Y-94814631D01*
X129379249Y-94814630D01*
X129200004Y-94794435D01*
X129199996Y-94794435D01*
X129131501Y-94802152D01*
X129062679Y-94790097D01*
X129011300Y-94742748D01*
X128997844Y-94711030D01*
X128959577Y-94568215D01*
X128902131Y-94468716D01*
X128880520Y-94431284D01*
X128768716Y-94319480D01*
X128768715Y-94319479D01*
X128764385Y-94315149D01*
X128764374Y-94315139D01*
X128430700Y-93981465D01*
X128397215Y-93920142D01*
X128395163Y-93907686D01*
X128385368Y-93820745D01*
X128325789Y-93650478D01*
X128229816Y-93497738D01*
X128102262Y-93370184D01*
X127999500Y-93305614D01*
X127949523Y-93274211D01*
X127779254Y-93214631D01*
X127779249Y-93214630D01*
X127600004Y-93194435D01*
X127599996Y-93194435D01*
X127420750Y-93214630D01*
X127420745Y-93214631D01*
X127250476Y-93274211D01*
X127097737Y-93370184D01*
X126970184Y-93497737D01*
X126874211Y-93650476D01*
X126814631Y-93820745D01*
X126814630Y-93820750D01*
X126794435Y-93999996D01*
X126794435Y-94000003D01*
X126814630Y-94179249D01*
X126814631Y-94179254D01*
X126874211Y-94349523D01*
X126949106Y-94468717D01*
X126970184Y-94502262D01*
X127097738Y-94629816D01*
X127250478Y-94725789D01*
X127420745Y-94785368D01*
X127507669Y-94795161D01*
X127572080Y-94822226D01*
X127581465Y-94830700D01*
X127763181Y-95012416D01*
X127796666Y-95073739D01*
X127799500Y-95100097D01*
X127799500Y-95713330D01*
X127799499Y-95713348D01*
X127799499Y-95879054D01*
X127799498Y-95879054D01*
X127840422Y-96031784D01*
X127840423Y-96031785D01*
X127842000Y-96034517D01*
X127842004Y-96034531D01*
X127842008Y-96034530D01*
X127919477Y-96168712D01*
X127919481Y-96168717D01*
X128038349Y-96287585D01*
X128038355Y-96287590D01*
X130963181Y-99212416D01*
X130996666Y-99273739D01*
X130999500Y-99300097D01*
X130999500Y-100017587D01*
X130979815Y-100084626D01*
X130972450Y-100094896D01*
X130970186Y-100097734D01*
X130874211Y-100250476D01*
X130814631Y-100420745D01*
X130814630Y-100420750D01*
X130794435Y-100599996D01*
X130794435Y-100600003D01*
X130814630Y-100779249D01*
X130814633Y-100779262D01*
X130833978Y-100834545D01*
X130837540Y-100904324D01*
X130802812Y-100964951D01*
X130740818Y-100997179D01*
X130716937Y-100999500D01*
X126086670Y-100999500D01*
X126086654Y-100999499D01*
X126079058Y-100999499D01*
X125920943Y-100999499D01*
X125844579Y-101019961D01*
X125768214Y-101040423D01*
X125768209Y-101040426D01*
X125631290Y-101119475D01*
X125631282Y-101119481D01*
X123887584Y-102863181D01*
X123826261Y-102896666D01*
X123799903Y-102899500D01*
X123456116Y-102899500D01*
X123389077Y-102879815D01*
X123343322Y-102827011D01*
X123342560Y-102825311D01*
X123324172Y-102783391D01*
X123188166Y-102575217D01*
X123137527Y-102520209D01*
X123019744Y-102392262D01*
X122823509Y-102239526D01*
X122823507Y-102239525D01*
X122823506Y-102239524D01*
X122604811Y-102121172D01*
X122604802Y-102121169D01*
X122593477Y-102117281D01*
X122536462Y-102076896D01*
X122510331Y-102012096D01*
X122523382Y-101943456D01*
X122571471Y-101892768D01*
X122593477Y-101882719D01*
X122597235Y-101881428D01*
X122604810Y-101878828D01*
X122823509Y-101760474D01*
X123019744Y-101607738D01*
X123188164Y-101424785D01*
X123324173Y-101216607D01*
X123424063Y-100988881D01*
X123485108Y-100747821D01*
X123505643Y-100500000D01*
X123499076Y-100420750D01*
X123485109Y-100252187D01*
X123485107Y-100252175D01*
X123424063Y-100011118D01*
X123324173Y-99783393D01*
X123188166Y-99575217D01*
X123115468Y-99496246D01*
X123019744Y-99392262D01*
X122823509Y-99239526D01*
X122823507Y-99239525D01*
X122823506Y-99239524D01*
X122604811Y-99121172D01*
X122604802Y-99121169D01*
X122593477Y-99117281D01*
X122536462Y-99076896D01*
X122510331Y-99012096D01*
X122523382Y-98943456D01*
X122571471Y-98892768D01*
X122593477Y-98882719D01*
X122597235Y-98881428D01*
X122604810Y-98878828D01*
X122823509Y-98760474D01*
X123019744Y-98607738D01*
X123188164Y-98424785D01*
X123324173Y-98216607D01*
X123424063Y-97988881D01*
X123485108Y-97747821D01*
X123505643Y-97500000D01*
X123498843Y-97417941D01*
X123485109Y-97252187D01*
X123485107Y-97252175D01*
X123424063Y-97011118D01*
X123324173Y-96783393D01*
X123188166Y-96575217D01*
X123115468Y-96496246D01*
X123019744Y-96392262D01*
X122823509Y-96239526D01*
X122823507Y-96239525D01*
X122823506Y-96239524D01*
X122604811Y-96121172D01*
X122604802Y-96121169D01*
X122592705Y-96117016D01*
X122535690Y-96076631D01*
X122509559Y-96011831D01*
X122522610Y-95943191D01*
X122570699Y-95892504D01*
X122592707Y-95882453D01*
X122604608Y-95878367D01*
X122604614Y-95878364D01*
X122823228Y-95760057D01*
X122823231Y-95760055D01*
X122870056Y-95723609D01*
X122129409Y-94982962D01*
X122192993Y-94965925D01*
X122307007Y-94900099D01*
X122400099Y-94807007D01*
X122465925Y-94692993D01*
X122482962Y-94629410D01*
X123223434Y-95369882D01*
X123323731Y-95216369D01*
X123418640Y-94999996D01*
X124570170Y-94999996D01*
X124570170Y-95000003D01*
X124590365Y-95179249D01*
X124590366Y-95179254D01*
X124649946Y-95349523D01*
X124745919Y-95502262D01*
X124863181Y-95619524D01*
X124896666Y-95680847D01*
X124899500Y-95707205D01*
X124899500Y-99017587D01*
X124879815Y-99084626D01*
X124872450Y-99094896D01*
X124870186Y-99097734D01*
X124774211Y-99250476D01*
X124714631Y-99420745D01*
X124714630Y-99420750D01*
X124694435Y-99599996D01*
X124694435Y-99600003D01*
X124714630Y-99779249D01*
X124714631Y-99779254D01*
X124774211Y-99949523D01*
X124865556Y-100094896D01*
X124870184Y-100102262D01*
X124997738Y-100229816D01*
X125150478Y-100325789D01*
X125320745Y-100385368D01*
X125320750Y-100385369D01*
X125499996Y-100405565D01*
X125500000Y-100405565D01*
X125500004Y-100405565D01*
X125679249Y-100385369D01*
X125679252Y-100385368D01*
X125679255Y-100385368D01*
X125849522Y-100325789D01*
X126002262Y-100229816D01*
X126129816Y-100102262D01*
X126225789Y-99949522D01*
X126285368Y-99779255D01*
X126305565Y-99600000D01*
X126302772Y-99575215D01*
X126285369Y-99420750D01*
X126285368Y-99420745D01*
X126225788Y-99250476D01*
X126192645Y-99197730D01*
X126129816Y-99097738D01*
X126129814Y-99097736D01*
X126129813Y-99097734D01*
X126127550Y-99094896D01*
X126126659Y-99092715D01*
X126126111Y-99091842D01*
X126126264Y-99091745D01*
X126101144Y-99030209D01*
X126100500Y-99017587D01*
X126100500Y-95373517D01*
X126107459Y-95332562D01*
X126161101Y-95179262D01*
X126161104Y-95179249D01*
X126181300Y-95000003D01*
X126181300Y-94999996D01*
X126161104Y-94820750D01*
X126161103Y-94820745D01*
X126135557Y-94747738D01*
X126101524Y-94650478D01*
X126005551Y-94497738D01*
X125877997Y-94370184D01*
X125845114Y-94349522D01*
X125725258Y-94274211D01*
X125554989Y-94214631D01*
X125554984Y-94214630D01*
X125375739Y-94194435D01*
X125375731Y-94194435D01*
X125196485Y-94214630D01*
X125196480Y-94214631D01*
X125026211Y-94274211D01*
X124873472Y-94370184D01*
X124745919Y-94497737D01*
X124649946Y-94650476D01*
X124590366Y-94820745D01*
X124590365Y-94820750D01*
X124570170Y-94999996D01*
X123418640Y-94999996D01*
X123423587Y-94988717D01*
X123484612Y-94747738D01*
X123484614Y-94747729D01*
X123505141Y-94500005D01*
X123505141Y-94499994D01*
X123484614Y-94252270D01*
X123484612Y-94252261D01*
X123423587Y-94011282D01*
X123323731Y-93783630D01*
X123223434Y-93630116D01*
X122482962Y-94370589D01*
X122465925Y-94307007D01*
X122400099Y-94192993D01*
X122307007Y-94099901D01*
X122192993Y-94034075D01*
X122129410Y-94017037D01*
X122870057Y-93276390D01*
X122870056Y-93276389D01*
X122823229Y-93239943D01*
X122604614Y-93121635D01*
X122604605Y-93121631D01*
X122592701Y-93117544D01*
X122535687Y-93077156D01*
X122509559Y-93012356D01*
X122522612Y-92943716D01*
X122570703Y-92893030D01*
X122592705Y-92882983D01*
X122604810Y-92878828D01*
X122823509Y-92760474D01*
X123019744Y-92607738D01*
X123188164Y-92424785D01*
X123324173Y-92216607D01*
X123424063Y-91988881D01*
X123485108Y-91747821D01*
X123505643Y-91500000D01*
X123505122Y-91493713D01*
X123485109Y-91252187D01*
X123485107Y-91252175D01*
X123424063Y-91011118D01*
X123324173Y-90783393D01*
X123188163Y-90575213D01*
X123126733Y-90508483D01*
X123095810Y-90445829D01*
X123103670Y-90376403D01*
X123147817Y-90322247D01*
X123214234Y-90300556D01*
X123217962Y-90300500D01*
X130109367Y-90300500D01*
X130176406Y-90320185D01*
G37*
%TD.AperFunction*%
%TA.AperFunction,Conductor*%
G36*
X121534075Y-94692993D02*
G01*
X121599901Y-94807007D01*
X121692993Y-94900099D01*
X121807007Y-94965925D01*
X121870590Y-94982962D01*
X121129942Y-95723609D01*
X121176768Y-95760055D01*
X121176770Y-95760056D01*
X121395385Y-95878364D01*
X121395396Y-95878369D01*
X121407294Y-95882454D01*
X121464309Y-95922839D01*
X121490440Y-95987639D01*
X121477389Y-96056279D01*
X121429300Y-96106967D01*
X121407296Y-96117016D01*
X121395191Y-96121171D01*
X121395188Y-96121172D01*
X121176493Y-96239524D01*
X120980255Y-96392262D01*
X120980252Y-96392265D01*
X120915729Y-96462356D01*
X120855842Y-96498347D01*
X120786004Y-96496246D01*
X120728388Y-96456722D01*
X120701287Y-96392322D01*
X120700500Y-96378373D01*
X120700500Y-95497308D01*
X120720185Y-95430269D01*
X120736819Y-95409627D01*
X121517037Y-94629409D01*
X121534075Y-94692993D01*
G37*
%TD.AperFunction*%
%TA.AperFunction,Conductor*%
G36*
X120905703Y-92527913D02*
G01*
X120915721Y-92537634D01*
X120980256Y-92607738D01*
X121176491Y-92760474D01*
X121395190Y-92878828D01*
X121407292Y-92882982D01*
X121464307Y-92923365D01*
X121490439Y-92988164D01*
X121477391Y-93056804D01*
X121429304Y-93107493D01*
X121407300Y-93117543D01*
X121395398Y-93121629D01*
X121395390Y-93121632D01*
X121176761Y-93239949D01*
X121129942Y-93276388D01*
X121129942Y-93276390D01*
X121870590Y-94017037D01*
X121807007Y-94034075D01*
X121692993Y-94099901D01*
X121599901Y-94192993D01*
X121534075Y-94307007D01*
X121517037Y-94370589D01*
X120736819Y-93590371D01*
X120703334Y-93529048D01*
X120700500Y-93502690D01*
X120700500Y-92621626D01*
X120720185Y-92554587D01*
X120772989Y-92508832D01*
X120842147Y-92498888D01*
X120905703Y-92527913D01*
G37*
%TD.AperFunction*%
%TD*%
%TA.AperFunction,NonConductor*%
G36*
X120905703Y-98527913D02*
G01*
X120915721Y-98537634D01*
X120980256Y-98607738D01*
X121176491Y-98760474D01*
X121395190Y-98878828D01*
X121405682Y-98882430D01*
X121406524Y-98882719D01*
X121463539Y-98923106D01*
X121489668Y-98987906D01*
X121476615Y-99056546D01*
X121428526Y-99107233D01*
X121406524Y-99117281D01*
X121395191Y-99121171D01*
X121395188Y-99121172D01*
X121176493Y-99239524D01*
X120980255Y-99392262D01*
X120980252Y-99392265D01*
X120915729Y-99462356D01*
X120855842Y-99498347D01*
X120786004Y-99496246D01*
X120728388Y-99456722D01*
X120701287Y-99392322D01*
X120700500Y-99378373D01*
X120700500Y-98621626D01*
X120720185Y-98554587D01*
X120772989Y-98508832D01*
X120842147Y-98498888D01*
X120905703Y-98527913D01*
G37*
%TD.AperFunction*%
%TA.AperFunction,NonConductor*%
G36*
X120905703Y-101527913D02*
G01*
X120915721Y-101537634D01*
X120980256Y-101607738D01*
X121176491Y-101760474D01*
X121395190Y-101878828D01*
X121405682Y-101882430D01*
X121406524Y-101882719D01*
X121463539Y-101923106D01*
X121489668Y-101987906D01*
X121476615Y-102056546D01*
X121428526Y-102107233D01*
X121406524Y-102117281D01*
X121395191Y-102121171D01*
X121395188Y-102121172D01*
X121176493Y-102239524D01*
X120980255Y-102392262D01*
X120980252Y-102392265D01*
X120915729Y-102462356D01*
X120855842Y-102498347D01*
X120786004Y-102496246D01*
X120728388Y-102456722D01*
X120701287Y-102392322D01*
X120700500Y-102378373D01*
X120700500Y-101621626D01*
X120720185Y-101554587D01*
X120772989Y-101508832D01*
X120842147Y-101498888D01*
X120905703Y-101527913D01*
G37*
%TD.AperFunction*%
%TA.AperFunction,NonConductor*%
G36*
X133818834Y-101332914D02*
G01*
X133874767Y-101374786D01*
X133899184Y-101440250D01*
X133899500Y-101449096D01*
X133899500Y-104575500D01*
X133879815Y-104642539D01*
X133827011Y-104688294D01*
X133775500Y-104699500D01*
X131890633Y-104699500D01*
X131823594Y-104679815D01*
X131777839Y-104627011D01*
X131767895Y-104557853D01*
X131796920Y-104494297D01*
X131817748Y-104475181D01*
X131879792Y-104430104D01*
X132030104Y-104279792D01*
X132030106Y-104279788D01*
X132030109Y-104279786D01*
X132155048Y-104107820D01*
X132155047Y-104107820D01*
X132155051Y-104107816D01*
X132251557Y-103918412D01*
X132317246Y-103716243D01*
X132350500Y-103506287D01*
X132350500Y-103293713D01*
X132317246Y-103083757D01*
X132251557Y-102881588D01*
X132155051Y-102692184D01*
X132155049Y-102692181D01*
X132155048Y-102692179D01*
X132030109Y-102520213D01*
X131922077Y-102412181D01*
X131888592Y-102350858D01*
X131893576Y-102281166D01*
X131935448Y-102225233D01*
X132000912Y-102200816D01*
X132009758Y-102200500D01*
X132513331Y-102200500D01*
X132513347Y-102200501D01*
X132520943Y-102200501D01*
X132679054Y-102200501D01*
X132679057Y-102200501D01*
X132831785Y-102159577D01*
X132898304Y-102121172D01*
X132968716Y-102080520D01*
X133080520Y-101968716D01*
X133080520Y-101968714D01*
X133090724Y-101958511D01*
X133090727Y-101958506D01*
X133687820Y-101361414D01*
X133749142Y-101327930D01*
X133818834Y-101332914D01*
G37*
%TD.AperFunction*%
%TA.AperFunction,NonConductor*%
G36*
X130057281Y-102220185D02*
G01*
X130103036Y-102272989D01*
X130112980Y-102342147D01*
X130083955Y-102405703D01*
X130077923Y-102412181D01*
X129969894Y-102520209D01*
X129969890Y-102520213D01*
X129844951Y-102692179D01*
X129748444Y-102881585D01*
X129682753Y-103083760D01*
X129649500Y-103293713D01*
X129649500Y-103506286D01*
X129682753Y-103716239D01*
X129748444Y-103918414D01*
X129844951Y-104107820D01*
X129969890Y-104279786D01*
X130120207Y-104430103D01*
X130182252Y-104475181D01*
X130224918Y-104530511D01*
X130230897Y-104600124D01*
X130198292Y-104661920D01*
X130137453Y-104696277D01*
X130109367Y-104699500D01*
X123217962Y-104699500D01*
X123150923Y-104679815D01*
X123105168Y-104627011D01*
X123095224Y-104557853D01*
X123124249Y-104494297D01*
X123126733Y-104491517D01*
X123160463Y-104454876D01*
X123188164Y-104424785D01*
X123324173Y-104216607D01*
X123342560Y-104174689D01*
X123387517Y-104121204D01*
X123454253Y-104100514D01*
X123456116Y-104100500D01*
X124013331Y-104100500D01*
X124013347Y-104100501D01*
X124020943Y-104100501D01*
X124179054Y-104100501D01*
X124179057Y-104100501D01*
X124331785Y-104059577D01*
X124381904Y-104030639D01*
X124468716Y-103980520D01*
X124580520Y-103868716D01*
X124580520Y-103868714D01*
X124590728Y-103858507D01*
X124590729Y-103858504D01*
X126212417Y-102236819D01*
X126273740Y-102203334D01*
X126300098Y-102200500D01*
X129990242Y-102200500D01*
X130057281Y-102220185D01*
G37*
%TD.AperFunction*%
M02*
