%TF.GenerationSoftware,KiCad,Pcbnew,8.0.6*%
%TF.CreationDate,2025-01-16T10:56:52-08:00*%
%TF.ProjectId,DeskCleanerRobot2,4465736b-436c-4656-916e-6572526f626f,rev?*%
%TF.SameCoordinates,Original*%
%TF.FileFunction,Soldermask,Top*%
%TF.FilePolarity,Negative*%
%FSLAX46Y46*%
G04 Gerber Fmt 4.6, Leading zero omitted, Abs format (unit mm)*
G04 Created by KiCad (PCBNEW 8.0.6) date 2025-01-16 10:56:52*
%MOMM*%
%LPD*%
G01*
G04 APERTURE LIST*
G04 APERTURE END LIST*
G36*
X131750000Y-86475000D02*
G01*
X130750000Y-86475000D01*
X130750000Y-85675000D01*
X131750000Y-85675000D01*
X131750000Y-86475000D01*
G37*
G36*
X139050000Y-86475000D02*
G01*
X138050000Y-86475000D01*
X138050000Y-85675000D01*
X139050000Y-85675000D01*
X139050000Y-86475000D01*
G37*
G36*
X133586937Y-84565666D02*
G01*
X133694687Y-84634913D01*
X133778564Y-84731712D01*
X133831772Y-84848220D01*
X133850000Y-84975000D01*
X133831772Y-85101780D01*
X133778564Y-85218288D01*
X133694687Y-85315087D01*
X133586937Y-85384334D01*
X133464042Y-85420420D01*
X133335958Y-85420420D01*
X133213063Y-85384334D01*
X133105313Y-85315087D01*
X133021436Y-85218288D01*
X132968228Y-85101780D01*
X132950000Y-84975000D01*
X132968228Y-84848220D01*
X133021436Y-84731712D01*
X133105313Y-84634913D01*
X133213063Y-84565666D01*
X133335958Y-84529580D01*
X133464042Y-84529580D01*
X133586937Y-84565666D01*
G37*
G36*
X136586937Y-84565666D02*
G01*
X136694687Y-84634913D01*
X136778564Y-84731712D01*
X136831772Y-84848220D01*
X136850000Y-84975000D01*
X136831772Y-85101780D01*
X136778564Y-85218288D01*
X136694687Y-85315087D01*
X136586937Y-85384334D01*
X136464042Y-85420420D01*
X136335958Y-85420420D01*
X136213063Y-85384334D01*
X136105313Y-85315087D01*
X136021436Y-85218288D01*
X135968228Y-85101780D01*
X135950000Y-84975000D01*
X135968228Y-84848220D01*
X136021436Y-84731712D01*
X136105313Y-84634913D01*
X136213063Y-84565666D01*
X136335958Y-84529580D01*
X136464042Y-84529580D01*
X136586937Y-84565666D01*
G37*
G36*
X117619603Y-82551667D02*
G01*
X117806727Y-82608430D01*
X117979181Y-82700609D01*
X118130339Y-82824661D01*
X118254391Y-82975819D01*
X118346570Y-83148273D01*
X118403333Y-83335397D01*
X118422500Y-83530000D01*
X118403333Y-83724603D01*
X118346570Y-83911727D01*
X118254391Y-84084181D01*
X118130339Y-84235339D01*
X117979181Y-84359391D01*
X117806727Y-84451570D01*
X117619603Y-84508333D01*
X117425000Y-84527500D01*
X117230397Y-84508333D01*
X117043273Y-84451570D01*
X116870819Y-84359391D01*
X116719661Y-84235339D01*
X116595609Y-84084181D01*
X116503430Y-83911727D01*
X116446667Y-83724603D01*
X116427500Y-83530000D01*
X116446667Y-83335397D01*
X116503430Y-83148273D01*
X116595609Y-82975819D01*
X116719661Y-82824661D01*
X116870819Y-82700609D01*
X117043273Y-82608430D01*
X117230397Y-82551667D01*
X117425000Y-82532500D01*
X117619603Y-82551667D01*
G37*
G36*
X124769603Y-82551667D02*
G01*
X124956727Y-82608430D01*
X125129181Y-82700609D01*
X125280339Y-82824661D01*
X125404391Y-82975819D01*
X125496570Y-83148273D01*
X125553333Y-83335397D01*
X125572500Y-83530000D01*
X125553333Y-83724603D01*
X125496570Y-83911727D01*
X125404391Y-84084181D01*
X125280339Y-84235339D01*
X125129181Y-84359391D01*
X124956727Y-84451570D01*
X124769603Y-84508333D01*
X124575000Y-84527500D01*
X124380397Y-84508333D01*
X124193273Y-84451570D01*
X124020819Y-84359391D01*
X123869661Y-84235339D01*
X123745609Y-84084181D01*
X123653430Y-83911727D01*
X123596667Y-83724603D01*
X123577500Y-83530000D01*
X123596667Y-83335397D01*
X123653430Y-83148273D01*
X123745609Y-82975819D01*
X123869661Y-82824661D01*
X124020819Y-82700609D01*
X124193273Y-82608430D01*
X124380397Y-82551667D01*
X124575000Y-82532500D01*
X124769603Y-82551667D01*
G37*
G36*
X131750000Y-84275000D02*
G01*
X130750000Y-84275000D01*
X130750000Y-83475000D01*
X131750000Y-83475000D01*
X131750000Y-84275000D01*
G37*
G36*
X139050000Y-84275000D02*
G01*
X138050000Y-84275000D01*
X138050000Y-83475000D01*
X139050000Y-83475000D01*
X139050000Y-84275000D01*
G37*
G36*
X142445090Y-82119215D02*
G01*
X142632683Y-82176120D01*
X142805570Y-82268530D01*
X142957107Y-82392893D01*
X143081470Y-82544430D01*
X143173880Y-82717317D01*
X143230785Y-82904910D01*
X143250000Y-83100000D01*
X143230785Y-83295090D01*
X143173880Y-83482683D01*
X143081470Y-83655570D01*
X142957107Y-83807107D01*
X142805570Y-83931470D01*
X142632683Y-84023880D01*
X142445090Y-84080785D01*
X142250000Y-84100000D01*
X142054910Y-84080785D01*
X141867317Y-84023880D01*
X141694430Y-83931470D01*
X141542893Y-83807107D01*
X141418530Y-83655570D01*
X141326120Y-83482683D01*
X141269215Y-83295090D01*
X141250000Y-83100000D01*
X141269215Y-82904910D01*
X141326120Y-82717317D01*
X141418530Y-82544430D01*
X141542893Y-82392893D01*
X141694430Y-82268530D01*
X141867317Y-82176120D01*
X142054910Y-82119215D01*
X142250000Y-82100000D01*
X142445090Y-82119215D01*
G37*
G36*
X133000000Y-83975000D02*
G01*
X132300000Y-83975000D01*
X132300000Y-82475000D01*
X133000000Y-82475000D01*
X133000000Y-83975000D01*
G37*
G36*
X136000000Y-83975000D02*
G01*
X135300000Y-83975000D01*
X135300000Y-82475000D01*
X136000000Y-82475000D01*
X136000000Y-83975000D01*
G37*
G36*
X137500000Y-83975000D02*
G01*
X136800000Y-83975000D01*
X136800000Y-82475000D01*
X137500000Y-82475000D01*
X137500000Y-83975000D01*
G37*
G36*
X100695090Y-81519215D02*
G01*
X100882683Y-81576120D01*
X101055570Y-81668530D01*
X101207107Y-81792893D01*
X101331470Y-81944430D01*
X101423880Y-82117317D01*
X101480785Y-82304910D01*
X101500000Y-82500000D01*
X101480785Y-82695090D01*
X101423880Y-82882683D01*
X101331470Y-83055570D01*
X101207107Y-83207107D01*
X101055570Y-83331470D01*
X100882683Y-83423880D01*
X100695090Y-83480785D01*
X100500000Y-83500000D01*
X100304910Y-83480785D01*
X100117317Y-83423880D01*
X99944430Y-83331470D01*
X99792893Y-83207107D01*
X99668530Y-83055570D01*
X99576120Y-82882683D01*
X99519215Y-82695090D01*
X99500000Y-82500000D01*
X99519215Y-82304910D01*
X99576120Y-82117317D01*
X99668530Y-81944430D01*
X99792893Y-81792893D01*
X99944430Y-81668530D01*
X100117317Y-81576120D01*
X100304910Y-81519215D01*
X100500000Y-81500000D01*
X100695090Y-81519215D01*
G37*
G36*
X104195090Y-81519215D02*
G01*
X104382683Y-81576120D01*
X104555570Y-81668530D01*
X104707107Y-81792893D01*
X104831470Y-81944430D01*
X104923880Y-82117317D01*
X104980785Y-82304910D01*
X105000000Y-82500000D01*
X104980785Y-82695090D01*
X104923880Y-82882683D01*
X104831470Y-83055570D01*
X104707107Y-83207107D01*
X104555570Y-83331470D01*
X104382683Y-83423880D01*
X104195090Y-83480785D01*
X104000000Y-83500000D01*
X103804910Y-83480785D01*
X103617317Y-83423880D01*
X103444430Y-83331470D01*
X103292893Y-83207107D01*
X103168530Y-83055570D01*
X103076120Y-82882683D01*
X103019215Y-82695090D01*
X103000000Y-82500000D01*
X103019215Y-82304910D01*
X103076120Y-82117317D01*
X103168530Y-81944430D01*
X103292893Y-81792893D01*
X103444430Y-81668530D01*
X103617317Y-81576120D01*
X103804910Y-81519215D01*
X104000000Y-81500000D01*
X104195090Y-81519215D01*
G37*
G36*
X107195090Y-81519215D02*
G01*
X107382683Y-81576120D01*
X107555570Y-81668530D01*
X107707107Y-81792893D01*
X107831470Y-81944430D01*
X107923880Y-82117317D01*
X107980785Y-82304910D01*
X108000000Y-82500000D01*
X107980785Y-82695090D01*
X107923880Y-82882683D01*
X107831470Y-83055570D01*
X107707107Y-83207107D01*
X107555570Y-83331470D01*
X107382683Y-83423880D01*
X107195090Y-83480785D01*
X107000000Y-83500000D01*
X106804910Y-83480785D01*
X106617317Y-83423880D01*
X106444430Y-83331470D01*
X106292893Y-83207107D01*
X106168530Y-83055570D01*
X106076120Y-82882683D01*
X106019215Y-82695090D01*
X106000000Y-82500000D01*
X106019215Y-82304910D01*
X106076120Y-82117317D01*
X106168530Y-81944430D01*
X106292893Y-81792893D01*
X106444430Y-81668530D01*
X106617317Y-81576120D01*
X106804910Y-81519215D01*
X107000000Y-81500000D01*
X107195090Y-81519215D01*
G37*
G36*
X119027174Y-81079937D02*
G01*
X119056436Y-81079937D01*
X119078978Y-81088141D01*
X119100237Y-81091509D01*
X119130265Y-81106809D01*
X119162500Y-81118542D01*
X119176735Y-81130487D01*
X119190658Y-81137581D01*
X119219175Y-81166098D01*
X119248964Y-81191094D01*
X119255511Y-81202434D01*
X119262418Y-81209341D01*
X119284345Y-81252375D01*
X119305400Y-81288843D01*
X119306708Y-81296266D01*
X119308490Y-81299762D01*
X119318770Y-81364668D01*
X119325000Y-81400000D01*
X119318769Y-81435335D01*
X119308490Y-81500237D01*
X119306709Y-81503731D01*
X119305400Y-81511157D01*
X119284340Y-81547631D01*
X119262418Y-81590658D01*
X119255512Y-81597563D01*
X119248964Y-81608906D01*
X119219168Y-81633907D01*
X119190658Y-81662418D01*
X119176738Y-81669510D01*
X119162500Y-81681458D01*
X119130258Y-81693193D01*
X119100237Y-81708490D01*
X119078983Y-81711856D01*
X119056436Y-81720063D01*
X119027168Y-81720063D01*
X119000000Y-81724366D01*
X118972832Y-81720063D01*
X118943564Y-81720063D01*
X118921017Y-81711856D01*
X118899762Y-81708490D01*
X118869737Y-81693191D01*
X118837500Y-81681458D01*
X118823262Y-81669511D01*
X118809341Y-81662418D01*
X118780824Y-81633901D01*
X118751036Y-81608906D01*
X118744488Y-81597565D01*
X118737581Y-81590658D01*
X118715650Y-81547617D01*
X118694600Y-81511157D01*
X118693291Y-81503734D01*
X118691509Y-81500237D01*
X118681220Y-81435279D01*
X118675000Y-81400000D01*
X118681220Y-81364723D01*
X118691509Y-81299762D01*
X118693291Y-81296263D01*
X118694600Y-81288843D01*
X118715646Y-81252390D01*
X118737581Y-81209341D01*
X118744489Y-81202432D01*
X118751036Y-81191094D01*
X118780818Y-81166103D01*
X118809341Y-81137581D01*
X118823265Y-81130485D01*
X118837500Y-81118542D01*
X118869731Y-81106810D01*
X118899762Y-81091509D01*
X118921022Y-81088141D01*
X118943564Y-81079937D01*
X118972825Y-81079937D01*
X119000000Y-81075633D01*
X119027174Y-81079937D01*
G37*
G36*
X123027174Y-81079937D02*
G01*
X123056436Y-81079937D01*
X123078978Y-81088141D01*
X123100237Y-81091509D01*
X123130265Y-81106809D01*
X123162500Y-81118542D01*
X123176735Y-81130487D01*
X123190658Y-81137581D01*
X123219175Y-81166098D01*
X123248964Y-81191094D01*
X123255511Y-81202434D01*
X123262418Y-81209341D01*
X123284345Y-81252375D01*
X123305400Y-81288843D01*
X123306708Y-81296266D01*
X123308490Y-81299762D01*
X123318770Y-81364668D01*
X123325000Y-81400000D01*
X123318769Y-81435335D01*
X123308490Y-81500237D01*
X123306709Y-81503731D01*
X123305400Y-81511157D01*
X123284340Y-81547631D01*
X123262418Y-81590658D01*
X123255512Y-81597563D01*
X123248964Y-81608906D01*
X123219168Y-81633907D01*
X123190658Y-81662418D01*
X123176738Y-81669510D01*
X123162500Y-81681458D01*
X123130258Y-81693193D01*
X123100237Y-81708490D01*
X123078983Y-81711856D01*
X123056436Y-81720063D01*
X123027168Y-81720063D01*
X123000000Y-81724366D01*
X122972832Y-81720063D01*
X122943564Y-81720063D01*
X122921017Y-81711856D01*
X122899762Y-81708490D01*
X122869737Y-81693191D01*
X122837500Y-81681458D01*
X122823262Y-81669511D01*
X122809341Y-81662418D01*
X122780824Y-81633901D01*
X122751036Y-81608906D01*
X122744488Y-81597565D01*
X122737581Y-81590658D01*
X122715650Y-81547617D01*
X122694600Y-81511157D01*
X122693291Y-81503734D01*
X122691509Y-81500237D01*
X122681220Y-81435279D01*
X122675000Y-81400000D01*
X122681220Y-81364723D01*
X122691509Y-81299762D01*
X122693291Y-81296263D01*
X122694600Y-81288843D01*
X122715646Y-81252390D01*
X122737581Y-81209341D01*
X122744489Y-81202432D01*
X122751036Y-81191094D01*
X122780818Y-81166103D01*
X122809341Y-81137581D01*
X122823265Y-81130485D01*
X122837500Y-81118542D01*
X122869731Y-81106810D01*
X122899762Y-81091509D01*
X122921022Y-81088141D01*
X122943564Y-81079937D01*
X122972825Y-81079937D01*
X123000000Y-81075633D01*
X123027174Y-81079937D01*
G37*
G36*
X119900000Y-81280000D02*
G01*
X119500000Y-81280000D01*
X119500000Y-79880000D01*
X119900000Y-79880000D01*
X119900000Y-81280000D01*
G37*
G36*
X120550000Y-81280000D02*
G01*
X120150000Y-81280000D01*
X120150000Y-79880000D01*
X120550000Y-79880000D01*
X120550000Y-81280000D01*
G37*
G36*
X121200000Y-81280000D02*
G01*
X120800000Y-81280000D01*
X120800000Y-79880000D01*
X121200000Y-79880000D01*
X121200000Y-81280000D01*
G37*
G36*
X121850000Y-81280000D02*
G01*
X121450000Y-81280000D01*
X121450000Y-79880000D01*
X121850000Y-79880000D01*
X121850000Y-81280000D01*
G37*
G36*
X122500000Y-81280000D02*
G01*
X122100000Y-81280000D01*
X122100000Y-79880000D01*
X122500000Y-79880000D01*
X122500000Y-81280000D01*
G37*
G36*
X142445090Y-79119215D02*
G01*
X142632683Y-79176120D01*
X142805570Y-79268530D01*
X142957107Y-79392893D01*
X143081470Y-79544430D01*
X143173880Y-79717317D01*
X143230785Y-79904910D01*
X143250000Y-80100000D01*
X143230785Y-80295090D01*
X143173880Y-80482683D01*
X143081470Y-80655570D01*
X142957107Y-80807107D01*
X142805570Y-80931470D01*
X142632683Y-81023880D01*
X142445090Y-81080785D01*
X142250000Y-81100000D01*
X142054910Y-81080785D01*
X141867317Y-81023880D01*
X141694430Y-80931470D01*
X141542893Y-80807107D01*
X141418530Y-80655570D01*
X141326120Y-80482683D01*
X141269215Y-80295090D01*
X141250000Y-80100000D01*
X141269215Y-79904910D01*
X141326120Y-79717317D01*
X141418530Y-79544430D01*
X141542893Y-79392893D01*
X141694430Y-79268530D01*
X141867317Y-79176120D01*
X142054910Y-79119215D01*
X142250000Y-79100000D01*
X142445090Y-79119215D01*
G37*
G36*
X117619603Y-79101667D02*
G01*
X117806727Y-79158430D01*
X117979181Y-79250609D01*
X118130339Y-79374661D01*
X118254391Y-79525819D01*
X118346570Y-79698273D01*
X118403333Y-79885397D01*
X118422500Y-80080000D01*
X118403333Y-80274603D01*
X118346570Y-80461727D01*
X118254391Y-80634181D01*
X118130339Y-80785339D01*
X117979181Y-80909391D01*
X117806727Y-81001570D01*
X117619603Y-81058333D01*
X117425000Y-81077500D01*
X117230397Y-81058333D01*
X117043273Y-81001570D01*
X116870819Y-80909391D01*
X116719661Y-80785339D01*
X116595609Y-80634181D01*
X116503430Y-80461727D01*
X116446667Y-80274603D01*
X116427500Y-80080000D01*
X116446667Y-79885397D01*
X116503430Y-79698273D01*
X116595609Y-79525819D01*
X116719661Y-79374661D01*
X116870819Y-79250609D01*
X117043273Y-79158430D01*
X117230397Y-79101667D01*
X117425000Y-79082500D01*
X117619603Y-79101667D01*
G37*
G36*
X124769603Y-79101667D02*
G01*
X124956727Y-79158430D01*
X125129181Y-79250609D01*
X125280339Y-79374661D01*
X125404391Y-79525819D01*
X125496570Y-79698273D01*
X125553333Y-79885397D01*
X125572500Y-80080000D01*
X125553333Y-80274603D01*
X125496570Y-80461727D01*
X125404391Y-80634181D01*
X125280339Y-80785339D01*
X125129181Y-80909391D01*
X124956727Y-81001570D01*
X124769603Y-81058333D01*
X124575000Y-81077500D01*
X124380397Y-81058333D01*
X124193273Y-81001570D01*
X124020819Y-80909391D01*
X123869661Y-80785339D01*
X123745609Y-80634181D01*
X123653430Y-80461727D01*
X123596667Y-80274603D01*
X123577500Y-80080000D01*
X123596667Y-79885397D01*
X123653430Y-79698273D01*
X123745609Y-79525819D01*
X123869661Y-79374661D01*
X124020819Y-79250609D01*
X124193273Y-79158430D01*
X124380397Y-79101667D01*
X124575000Y-79082500D01*
X124769603Y-79101667D01*
G37*
G36*
X132950000Y-80525000D02*
G01*
X132350000Y-80525000D01*
X132350000Y-79225000D01*
X132950000Y-79225000D01*
X132950000Y-80525000D01*
G37*
G36*
X134850000Y-80525000D02*
G01*
X134250000Y-80525000D01*
X134250000Y-79225000D01*
X134850000Y-79225000D01*
X134850000Y-80525000D01*
G37*
G36*
X112586104Y-79392127D02*
G01*
X112659099Y-79440901D01*
X112707873Y-79513896D01*
X112725000Y-79600000D01*
X112725000Y-80100000D01*
X112707873Y-80186104D01*
X112659099Y-80259099D01*
X112586104Y-80307873D01*
X112500000Y-80325000D01*
X112050000Y-80325000D01*
X111963896Y-80307873D01*
X111890901Y-80259099D01*
X111842127Y-80186104D01*
X111825000Y-80100000D01*
X111825000Y-79600000D01*
X111842127Y-79513896D01*
X111890901Y-79440901D01*
X111963896Y-79392127D01*
X112050000Y-79375000D01*
X112500000Y-79375000D01*
X112586104Y-79392127D01*
G37*
G36*
X114136104Y-79392127D02*
G01*
X114209099Y-79440901D01*
X114257873Y-79513896D01*
X114275000Y-79600000D01*
X114275000Y-80100000D01*
X114257873Y-80186104D01*
X114209099Y-80259099D01*
X114136104Y-80307873D01*
X114050000Y-80325000D01*
X113600000Y-80325000D01*
X113513896Y-80307873D01*
X113440901Y-80259099D01*
X113392127Y-80186104D01*
X113375000Y-80100000D01*
X113375000Y-79600000D01*
X113392127Y-79513896D01*
X113440901Y-79440901D01*
X113513896Y-79392127D01*
X113600000Y-79375000D01*
X114050000Y-79375000D01*
X114136104Y-79392127D01*
G37*
G36*
X131286662Y-79525276D02*
G01*
X131330459Y-79554541D01*
X131359724Y-79598338D01*
X131370000Y-79650000D01*
X131370000Y-79920000D01*
X131359724Y-79971662D01*
X131330459Y-80015459D01*
X131286662Y-80044724D01*
X131235000Y-80055000D01*
X130865000Y-80055000D01*
X130813338Y-80044724D01*
X130769541Y-80015459D01*
X130740276Y-79971662D01*
X130730000Y-79920000D01*
X130730000Y-79650000D01*
X130740276Y-79598338D01*
X130769541Y-79554541D01*
X130813338Y-79525276D01*
X130865000Y-79515000D01*
X131235000Y-79515000D01*
X131286662Y-79525276D01*
G37*
G36*
X100695090Y-78019215D02*
G01*
X100882683Y-78076120D01*
X101055570Y-78168530D01*
X101207107Y-78292893D01*
X101331470Y-78444430D01*
X101423880Y-78617317D01*
X101480785Y-78804910D01*
X101500000Y-79000000D01*
X101480785Y-79195090D01*
X101423880Y-79382683D01*
X101331470Y-79555570D01*
X101207107Y-79707107D01*
X101055570Y-79831470D01*
X100882683Y-79923880D01*
X100695090Y-79980785D01*
X100500000Y-80000000D01*
X100304910Y-79980785D01*
X100117317Y-79923880D01*
X99944430Y-79831470D01*
X99792893Y-79707107D01*
X99668530Y-79555570D01*
X99576120Y-79382683D01*
X99519215Y-79195090D01*
X99500000Y-79000000D01*
X99519215Y-78804910D01*
X99576120Y-78617317D01*
X99668530Y-78444430D01*
X99792893Y-78292893D01*
X99944430Y-78168530D01*
X100117317Y-78076120D01*
X100304910Y-78019215D01*
X100500000Y-78000000D01*
X100695090Y-78019215D01*
G37*
G36*
X105876662Y-79140276D02*
G01*
X105920459Y-79169541D01*
X105949724Y-79213338D01*
X105960000Y-79265000D01*
X105960000Y-79635000D01*
X105949724Y-79686662D01*
X105920459Y-79730459D01*
X105876662Y-79759724D01*
X105825000Y-79770000D01*
X105555000Y-79770000D01*
X105503338Y-79759724D01*
X105459541Y-79730459D01*
X105430276Y-79686662D01*
X105420000Y-79635000D01*
X105420000Y-79265000D01*
X105430276Y-79213338D01*
X105459541Y-79169541D01*
X105503338Y-79140276D01*
X105555000Y-79130000D01*
X105825000Y-79130000D01*
X105876662Y-79140276D01*
G37*
G36*
X106896662Y-79140276D02*
G01*
X106940459Y-79169541D01*
X106969724Y-79213338D01*
X106980000Y-79265000D01*
X106980000Y-79635000D01*
X106969724Y-79686662D01*
X106940459Y-79730459D01*
X106896662Y-79759724D01*
X106845000Y-79770000D01*
X106575000Y-79770000D01*
X106523338Y-79759724D01*
X106479541Y-79730459D01*
X106450276Y-79686662D01*
X106440000Y-79635000D01*
X106440000Y-79265000D01*
X106450276Y-79213338D01*
X106479541Y-79169541D01*
X106523338Y-79140276D01*
X106575000Y-79130000D01*
X106845000Y-79130000D01*
X106896662Y-79140276D01*
G37*
G36*
X137886104Y-78667127D02*
G01*
X137959099Y-78715901D01*
X138007873Y-78788896D01*
X138025000Y-78875000D01*
X138025000Y-79375000D01*
X138007873Y-79461104D01*
X137959099Y-79534099D01*
X137886104Y-79582873D01*
X137800000Y-79600000D01*
X137350000Y-79600000D01*
X137263896Y-79582873D01*
X137190901Y-79534099D01*
X137142127Y-79461104D01*
X137125000Y-79375000D01*
X137125000Y-78875000D01*
X137142127Y-78788896D01*
X137190901Y-78715901D01*
X137263896Y-78667127D01*
X137350000Y-78650000D01*
X137800000Y-78650000D01*
X137886104Y-78667127D01*
G37*
G36*
X139436104Y-78667127D02*
G01*
X139509099Y-78715901D01*
X139557873Y-78788896D01*
X139575000Y-78875000D01*
X139575000Y-79375000D01*
X139557873Y-79461104D01*
X139509099Y-79534099D01*
X139436104Y-79582873D01*
X139350000Y-79600000D01*
X138900000Y-79600000D01*
X138813896Y-79582873D01*
X138740901Y-79534099D01*
X138692127Y-79461104D01*
X138675000Y-79375000D01*
X138675000Y-78875000D01*
X138692127Y-78788896D01*
X138740901Y-78715901D01*
X138813896Y-78667127D01*
X138900000Y-78650000D01*
X139350000Y-78650000D01*
X139436104Y-78667127D01*
G37*
G36*
X131286662Y-78505276D02*
G01*
X131330459Y-78534541D01*
X131359724Y-78578338D01*
X131370000Y-78630000D01*
X131370000Y-78900000D01*
X131359724Y-78951662D01*
X131330459Y-78995459D01*
X131286662Y-79024724D01*
X131235000Y-79035000D01*
X130865000Y-79035000D01*
X130813338Y-79024724D01*
X130769541Y-78995459D01*
X130740276Y-78951662D01*
X130730000Y-78900000D01*
X130730000Y-78630000D01*
X130740276Y-78578338D01*
X130769541Y-78534541D01*
X130813338Y-78505276D01*
X130865000Y-78495000D01*
X131235000Y-78495000D01*
X131286662Y-78505276D01*
G37*
G36*
X106486662Y-78200276D02*
G01*
X106530459Y-78229541D01*
X106559724Y-78273338D01*
X106570000Y-78325000D01*
X106570000Y-78595000D01*
X106559724Y-78646662D01*
X106530459Y-78690459D01*
X106486662Y-78719724D01*
X106435000Y-78730000D01*
X106065000Y-78730000D01*
X106013338Y-78719724D01*
X105969541Y-78690459D01*
X105940276Y-78646662D01*
X105930000Y-78595000D01*
X105930000Y-78325000D01*
X105940276Y-78273338D01*
X105969541Y-78229541D01*
X106013338Y-78200276D01*
X106065000Y-78190000D01*
X106435000Y-78190000D01*
X106486662Y-78200276D01*
G37*
G36*
X133900000Y-78425000D02*
G01*
X133300000Y-78425000D01*
X133300000Y-77125000D01*
X133900000Y-77125000D01*
X133900000Y-78425000D01*
G37*
G36*
X109350000Y-78100000D02*
G01*
X107950000Y-78100000D01*
X107950000Y-77800000D01*
X109350000Y-77800000D01*
X109350000Y-78100000D01*
G37*
G36*
X113750000Y-78100000D02*
G01*
X112350000Y-78100000D01*
X112350000Y-77800000D01*
X113750000Y-77800000D01*
X113750000Y-78100000D01*
G37*
G36*
X137886104Y-77167127D02*
G01*
X137959099Y-77215901D01*
X138007873Y-77288896D01*
X138025000Y-77375000D01*
X138025000Y-77875000D01*
X138007873Y-77961104D01*
X137959099Y-78034099D01*
X137886104Y-78082873D01*
X137800000Y-78100000D01*
X137350000Y-78100000D01*
X137263896Y-78082873D01*
X137190901Y-78034099D01*
X137142127Y-77961104D01*
X137125000Y-77875000D01*
X137125000Y-77375000D01*
X137142127Y-77288896D01*
X137190901Y-77215901D01*
X137263896Y-77167127D01*
X137350000Y-77150000D01*
X137800000Y-77150000D01*
X137886104Y-77167127D01*
G37*
G36*
X139436104Y-77167127D02*
G01*
X139509099Y-77215901D01*
X139557873Y-77288896D01*
X139575000Y-77375000D01*
X139575000Y-77875000D01*
X139557873Y-77961104D01*
X139509099Y-78034099D01*
X139436104Y-78082873D01*
X139350000Y-78100000D01*
X138900000Y-78100000D01*
X138813896Y-78082873D01*
X138740901Y-78034099D01*
X138692127Y-77961104D01*
X138675000Y-77875000D01*
X138675000Y-77375000D01*
X138692127Y-77288896D01*
X138740901Y-77215901D01*
X138813896Y-77167127D01*
X138900000Y-77150000D01*
X139350000Y-77150000D01*
X139436104Y-77167127D01*
G37*
G36*
X111635000Y-77890000D02*
G01*
X110065000Y-77890000D01*
X110065000Y-76010000D01*
X111635000Y-76010000D01*
X111635000Y-77890000D01*
G37*
G36*
X106486662Y-77180276D02*
G01*
X106530459Y-77209541D01*
X106559724Y-77253338D01*
X106570000Y-77305000D01*
X106570000Y-77575000D01*
X106559724Y-77626662D01*
X106530459Y-77670459D01*
X106486662Y-77699724D01*
X106435000Y-77710000D01*
X106065000Y-77710000D01*
X106013338Y-77699724D01*
X105969541Y-77670459D01*
X105940276Y-77626662D01*
X105930000Y-77575000D01*
X105930000Y-77305000D01*
X105940276Y-77253338D01*
X105969541Y-77209541D01*
X106013338Y-77180276D01*
X106065000Y-77170000D01*
X106435000Y-77170000D01*
X106486662Y-77180276D01*
G37*
G36*
X109350000Y-77600000D02*
G01*
X107950000Y-77600000D01*
X107950000Y-77300000D01*
X109350000Y-77300000D01*
X109350000Y-77600000D01*
G37*
G36*
X113750000Y-77600000D02*
G01*
X112350000Y-77600000D01*
X112350000Y-77300000D01*
X113750000Y-77300000D01*
X113750000Y-77600000D01*
G37*
G36*
X115886662Y-76700276D02*
G01*
X115930459Y-76729541D01*
X115959724Y-76773338D01*
X115970000Y-76825000D01*
X115970000Y-77095000D01*
X115959724Y-77146662D01*
X115930459Y-77190459D01*
X115886662Y-77219724D01*
X115835000Y-77230000D01*
X115465000Y-77230000D01*
X115413338Y-77219724D01*
X115369541Y-77190459D01*
X115340276Y-77146662D01*
X115330000Y-77095000D01*
X115330000Y-76825000D01*
X115340276Y-76773338D01*
X115369541Y-76729541D01*
X115413338Y-76700276D01*
X115465000Y-76690000D01*
X115835000Y-76690000D01*
X115886662Y-76700276D01*
G37*
G36*
X109350000Y-77100000D02*
G01*
X107950000Y-77100000D01*
X107950000Y-76800000D01*
X109350000Y-76800000D01*
X109350000Y-77100000D01*
G37*
G36*
X113750000Y-77100000D02*
G01*
X112350000Y-77100000D01*
X112350000Y-76800000D01*
X113750000Y-76800000D01*
X113750000Y-77100000D01*
G37*
G36*
X104236662Y-76450276D02*
G01*
X104280459Y-76479541D01*
X104309724Y-76523338D01*
X104320000Y-76575000D01*
X104320000Y-76845000D01*
X104309724Y-76896662D01*
X104280459Y-76940459D01*
X104236662Y-76969724D01*
X104185000Y-76980000D01*
X103815000Y-76980000D01*
X103763338Y-76969724D01*
X103719541Y-76940459D01*
X103690276Y-76896662D01*
X103680000Y-76845000D01*
X103680000Y-76575000D01*
X103690276Y-76523338D01*
X103719541Y-76479541D01*
X103763338Y-76450276D01*
X103815000Y-76440000D01*
X104185000Y-76440000D01*
X104236662Y-76450276D01*
G37*
G36*
X109350000Y-76600000D02*
G01*
X107950000Y-76600000D01*
X107950000Y-76300000D01*
X109350000Y-76300000D01*
X109350000Y-76600000D01*
G37*
G36*
X113750000Y-76600000D02*
G01*
X112350000Y-76600000D01*
X112350000Y-76300000D01*
X113750000Y-76300000D01*
X113750000Y-76600000D01*
G37*
G36*
X120350000Y-76595000D02*
G01*
X120050000Y-76595000D01*
X120050000Y-75605000D01*
X120350000Y-75605000D01*
X120350000Y-76595000D01*
G37*
G36*
X120850000Y-76595000D02*
G01*
X120550000Y-76595000D01*
X120550000Y-75605000D01*
X120850000Y-75605000D01*
X120850000Y-76595000D01*
G37*
G36*
X121350000Y-76595000D02*
G01*
X121050000Y-76595000D01*
X121050000Y-75605000D01*
X121350000Y-75605000D01*
X121350000Y-76595000D01*
G37*
G36*
X115886662Y-75680276D02*
G01*
X115930459Y-75709541D01*
X115959724Y-75753338D01*
X115970000Y-75805000D01*
X115970000Y-76075000D01*
X115959724Y-76126662D01*
X115930459Y-76170459D01*
X115886662Y-76199724D01*
X115835000Y-76210000D01*
X115465000Y-76210000D01*
X115413338Y-76199724D01*
X115369541Y-76170459D01*
X115340276Y-76126662D01*
X115330000Y-76075000D01*
X115330000Y-75805000D01*
X115340276Y-75753338D01*
X115369541Y-75709541D01*
X115413338Y-75680276D01*
X115465000Y-75670000D01*
X115835000Y-75670000D01*
X115886662Y-75680276D01*
G37*
G36*
X109350000Y-76100000D02*
G01*
X107950000Y-76100000D01*
X107950000Y-75800000D01*
X109350000Y-75800000D01*
X109350000Y-76100000D01*
G37*
G36*
X113750000Y-76100000D02*
G01*
X112350000Y-76100000D01*
X112350000Y-75800000D01*
X113750000Y-75800000D01*
X113750000Y-76100000D01*
G37*
G36*
X104236662Y-75430276D02*
G01*
X104280459Y-75459541D01*
X104309724Y-75503338D01*
X104320000Y-75555000D01*
X104320000Y-75825000D01*
X104309724Y-75876662D01*
X104280459Y-75920459D01*
X104236662Y-75949724D01*
X104185000Y-75960000D01*
X103815000Y-75960000D01*
X103763338Y-75949724D01*
X103719541Y-75920459D01*
X103690276Y-75876662D01*
X103680000Y-75825000D01*
X103680000Y-75555000D01*
X103690276Y-75503338D01*
X103719541Y-75459541D01*
X103763338Y-75430276D01*
X103815000Y-75420000D01*
X104185000Y-75420000D01*
X104236662Y-75430276D01*
G37*
G36*
X142045090Y-73419215D02*
G01*
X142232683Y-73476120D01*
X142405570Y-73568530D01*
X142557107Y-73692893D01*
X142681470Y-73844430D01*
X142773880Y-74017317D01*
X142830785Y-74204910D01*
X142850000Y-74400000D01*
X142830785Y-74595090D01*
X142773880Y-74782683D01*
X142681470Y-74955570D01*
X142557107Y-75107107D01*
X142405570Y-75231470D01*
X142232683Y-75323880D01*
X142045090Y-75380785D01*
X141850000Y-75400000D01*
X141654910Y-75380785D01*
X141467317Y-75323880D01*
X141294430Y-75231470D01*
X141142893Y-75107107D01*
X141018530Y-74955570D01*
X140926120Y-74782683D01*
X140869215Y-74595090D01*
X140850000Y-74400000D01*
X140869215Y-74204910D01*
X140926120Y-74017317D01*
X141018530Y-73844430D01*
X141142893Y-73692893D01*
X141294430Y-73568530D01*
X141467317Y-73476120D01*
X141654910Y-73419215D01*
X141850000Y-73400000D01*
X142045090Y-73419215D01*
G37*
G36*
X127600000Y-75200000D02*
G01*
X126000000Y-75200000D01*
X126000000Y-72000000D01*
X127600000Y-72000000D01*
X127600000Y-75200000D01*
G37*
G36*
X136300000Y-75200000D02*
G01*
X134700000Y-75200000D01*
X134700000Y-72000000D01*
X136300000Y-72000000D01*
X136300000Y-75200000D01*
G37*
G36*
X120350000Y-74985000D02*
G01*
X120050000Y-74985000D01*
X120050000Y-73995000D01*
X120350000Y-73995000D01*
X120350000Y-74985000D01*
G37*
G36*
X120850000Y-74985000D02*
G01*
X120550000Y-74985000D01*
X120550000Y-73995000D01*
X120850000Y-73995000D01*
X120850000Y-74985000D01*
G37*
G36*
X121350000Y-74985000D02*
G01*
X121050000Y-74985000D01*
X121050000Y-73995000D01*
X121350000Y-73995000D01*
X121350000Y-74985000D01*
G37*
G36*
X106125000Y-74900000D02*
G01*
X105175000Y-74900000D01*
X105175000Y-74000000D01*
X106125000Y-74000000D01*
X106125000Y-74900000D01*
G37*
G36*
X100695090Y-72019215D02*
G01*
X100882683Y-72076120D01*
X101055570Y-72168530D01*
X101207107Y-72292893D01*
X101331470Y-72444430D01*
X101423880Y-72617317D01*
X101480785Y-72804910D01*
X101500000Y-73000000D01*
X101480785Y-73195090D01*
X101423880Y-73382683D01*
X101331470Y-73555570D01*
X101207107Y-73707107D01*
X101055570Y-73831470D01*
X100882683Y-73923880D01*
X100695090Y-73980785D01*
X100500000Y-74000000D01*
X100304910Y-73980785D01*
X100117317Y-73923880D01*
X99944430Y-73831470D01*
X99792893Y-73707107D01*
X99668530Y-73555570D01*
X99576120Y-73382683D01*
X99519215Y-73195090D01*
X99500000Y-73000000D01*
X99519215Y-72804910D01*
X99576120Y-72617317D01*
X99668530Y-72444430D01*
X99792893Y-72292893D01*
X99944430Y-72168530D01*
X100117317Y-72076120D01*
X100304910Y-72019215D01*
X100500000Y-72000000D01*
X100695090Y-72019215D01*
G37*
G36*
X113736662Y-73350276D02*
G01*
X113780459Y-73379541D01*
X113809724Y-73423338D01*
X113820000Y-73475000D01*
X113820000Y-73745000D01*
X113809724Y-73796662D01*
X113780459Y-73840459D01*
X113736662Y-73869724D01*
X113685000Y-73880000D01*
X113315000Y-73880000D01*
X113263338Y-73869724D01*
X113219541Y-73840459D01*
X113190276Y-73796662D01*
X113180000Y-73745000D01*
X113180000Y-73475000D01*
X113190276Y-73423338D01*
X113219541Y-73379541D01*
X113263338Y-73350276D01*
X113315000Y-73340000D01*
X113685000Y-73340000D01*
X113736662Y-73350276D01*
G37*
G36*
X109650000Y-73825000D02*
G01*
X108750000Y-73825000D01*
X108750000Y-72875000D01*
X109650000Y-72875000D01*
X109650000Y-73825000D01*
G37*
G36*
X111150000Y-73825000D02*
G01*
X110250000Y-73825000D01*
X110250000Y-72875000D01*
X111150000Y-72875000D01*
X111150000Y-73825000D01*
G37*
G36*
X106125000Y-73400000D02*
G01*
X105175000Y-73400000D01*
X105175000Y-72500000D01*
X106125000Y-72500000D01*
X106125000Y-73400000D01*
G37*
G36*
X113736662Y-72330276D02*
G01*
X113780459Y-72359541D01*
X113809724Y-72403338D01*
X113820000Y-72455000D01*
X113820000Y-72725000D01*
X113809724Y-72776662D01*
X113780459Y-72820459D01*
X113736662Y-72849724D01*
X113685000Y-72860000D01*
X113315000Y-72860000D01*
X113263338Y-72849724D01*
X113219541Y-72820459D01*
X113190276Y-72776662D01*
X113180000Y-72725000D01*
X113180000Y-72455000D01*
X113190276Y-72403338D01*
X113219541Y-72359541D01*
X113263338Y-72330276D01*
X113315000Y-72320000D01*
X113685000Y-72320000D01*
X113736662Y-72330276D01*
G37*
G36*
X142045090Y-70419215D02*
G01*
X142232683Y-70476120D01*
X142405570Y-70568530D01*
X142557107Y-70692893D01*
X142681470Y-70844430D01*
X142773880Y-71017317D01*
X142830785Y-71204910D01*
X142850000Y-71400000D01*
X142830785Y-71595090D01*
X142773880Y-71782683D01*
X142681470Y-71955570D01*
X142557107Y-72107107D01*
X142405570Y-72231470D01*
X142232683Y-72323880D01*
X142045090Y-72380785D01*
X141850000Y-72400000D01*
X141654910Y-72380785D01*
X141467317Y-72323880D01*
X141294430Y-72231470D01*
X141142893Y-72107107D01*
X141018530Y-71955570D01*
X140926120Y-71782683D01*
X140869215Y-71595090D01*
X140850000Y-71400000D01*
X140869215Y-71204910D01*
X140926120Y-71017317D01*
X141018530Y-70844430D01*
X141142893Y-70692893D01*
X141294430Y-70568530D01*
X141467317Y-70476120D01*
X141654910Y-70419215D01*
X141850000Y-70400000D01*
X142045090Y-70419215D01*
G37*
G36*
X100695090Y-69019215D02*
G01*
X100882683Y-69076120D01*
X101055570Y-69168530D01*
X101207107Y-69292893D01*
X101331470Y-69444430D01*
X101423880Y-69617317D01*
X101480785Y-69804910D01*
X101500000Y-70000000D01*
X101480785Y-70195090D01*
X101423880Y-70382683D01*
X101331470Y-70555570D01*
X101207107Y-70707107D01*
X101055570Y-70831470D01*
X100882683Y-70923880D01*
X100695090Y-70980785D01*
X100500000Y-71000000D01*
X100304910Y-70980785D01*
X100117317Y-70923880D01*
X99944430Y-70831470D01*
X99792893Y-70707107D01*
X99668530Y-70555570D01*
X99576120Y-70382683D01*
X99519215Y-70195090D01*
X99500000Y-70000000D01*
X99519215Y-69804910D01*
X99576120Y-69617317D01*
X99668530Y-69444430D01*
X99792893Y-69292893D01*
X99944430Y-69168530D01*
X100117317Y-69076120D01*
X100304910Y-69019215D01*
X100500000Y-69000000D01*
X100695090Y-69019215D01*
G37*
G36*
X105176662Y-69690276D02*
G01*
X105220459Y-69719541D01*
X105249724Y-69763338D01*
X105260000Y-69815000D01*
X105260000Y-70185000D01*
X105249724Y-70236662D01*
X105220459Y-70280459D01*
X105176662Y-70309724D01*
X105125000Y-70320000D01*
X104855000Y-70320000D01*
X104803338Y-70309724D01*
X104759541Y-70280459D01*
X104730276Y-70236662D01*
X104720000Y-70185000D01*
X104720000Y-69815000D01*
X104730276Y-69763338D01*
X104759541Y-69719541D01*
X104803338Y-69690276D01*
X104855000Y-69680000D01*
X105125000Y-69680000D01*
X105176662Y-69690276D01*
G37*
G36*
X106196662Y-69690276D02*
G01*
X106240459Y-69719541D01*
X106269724Y-69763338D01*
X106280000Y-69815000D01*
X106280000Y-70185000D01*
X106269724Y-70236662D01*
X106240459Y-70280459D01*
X106196662Y-70309724D01*
X106145000Y-70320000D01*
X105875000Y-70320000D01*
X105823338Y-70309724D01*
X105779541Y-70280459D01*
X105750276Y-70236662D01*
X105740000Y-70185000D01*
X105740000Y-69815000D01*
X105750276Y-69763338D01*
X105779541Y-69719541D01*
X105823338Y-69690276D01*
X105875000Y-69680000D01*
X106145000Y-69680000D01*
X106196662Y-69690276D01*
G37*
G36*
X127600000Y-70200000D02*
G01*
X126000000Y-70200000D01*
X126000000Y-67000000D01*
X127600000Y-67000000D01*
X127600000Y-70200000D01*
G37*
G36*
X136300000Y-70200000D02*
G01*
X134700000Y-70200000D01*
X134700000Y-67000000D01*
X136300000Y-67000000D01*
X136300000Y-70200000D01*
G37*
G36*
X118600000Y-69900000D02*
G01*
X117600000Y-69900000D01*
X117600000Y-68900000D01*
X118600000Y-68900000D01*
X118600000Y-69900000D01*
G37*
G36*
X109761500Y-69800000D02*
G01*
X108286500Y-69800000D01*
X108286500Y-69350000D01*
X109761500Y-69350000D01*
X109761500Y-69800000D01*
G37*
G36*
X115637500Y-69800000D02*
G01*
X114162500Y-69800000D01*
X114162500Y-69350000D01*
X115637500Y-69350000D01*
X115637500Y-69800000D01*
G37*
G36*
X142045090Y-67419215D02*
G01*
X142232683Y-67476120D01*
X142405570Y-67568530D01*
X142557107Y-67692893D01*
X142681470Y-67844430D01*
X142773880Y-68017317D01*
X142830785Y-68204910D01*
X142850000Y-68400000D01*
X142830785Y-68595090D01*
X142773880Y-68782683D01*
X142681470Y-68955570D01*
X142557107Y-69107107D01*
X142405570Y-69231470D01*
X142232683Y-69323880D01*
X142045090Y-69380785D01*
X141850000Y-69400000D01*
X141654910Y-69380785D01*
X141467317Y-69323880D01*
X141294430Y-69231470D01*
X141142893Y-69107107D01*
X141018530Y-68955570D01*
X140926120Y-68782683D01*
X140869215Y-68595090D01*
X140850000Y-68400000D01*
X140869215Y-68204910D01*
X140926120Y-68017317D01*
X141018530Y-67844430D01*
X141142893Y-67692893D01*
X141294430Y-67568530D01*
X141467317Y-67476120D01*
X141654910Y-67419215D01*
X141850000Y-67400000D01*
X142045090Y-67419215D01*
G37*
G36*
X105176662Y-68690276D02*
G01*
X105220459Y-68719541D01*
X105249724Y-68763338D01*
X105260000Y-68815000D01*
X105260000Y-69185000D01*
X105249724Y-69236662D01*
X105220459Y-69280459D01*
X105176662Y-69309724D01*
X105125000Y-69320000D01*
X104855000Y-69320000D01*
X104803338Y-69309724D01*
X104759541Y-69280459D01*
X104730276Y-69236662D01*
X104720000Y-69185000D01*
X104720000Y-68815000D01*
X104730276Y-68763338D01*
X104759541Y-68719541D01*
X104803338Y-68690276D01*
X104855000Y-68680000D01*
X105125000Y-68680000D01*
X105176662Y-68690276D01*
G37*
G36*
X106196662Y-68690276D02*
G01*
X106240459Y-68719541D01*
X106269724Y-68763338D01*
X106280000Y-68815000D01*
X106280000Y-69185000D01*
X106269724Y-69236662D01*
X106240459Y-69280459D01*
X106196662Y-69309724D01*
X106145000Y-69320000D01*
X105875000Y-69320000D01*
X105823338Y-69309724D01*
X105779541Y-69280459D01*
X105750276Y-69236662D01*
X105740000Y-69185000D01*
X105740000Y-68815000D01*
X105750276Y-68763338D01*
X105779541Y-68719541D01*
X105823338Y-68690276D01*
X105875000Y-68680000D01*
X106145000Y-68680000D01*
X106196662Y-68690276D01*
G37*
G36*
X109761500Y-69150000D02*
G01*
X108286500Y-69150000D01*
X108286500Y-68700000D01*
X109761500Y-68700000D01*
X109761500Y-69150000D01*
G37*
G36*
X115637500Y-69150000D02*
G01*
X114162500Y-69150000D01*
X114162500Y-68700000D01*
X115637500Y-68700000D01*
X115637500Y-69150000D01*
G37*
G36*
X109761500Y-68500000D02*
G01*
X108286500Y-68500000D01*
X108286500Y-68050000D01*
X109761500Y-68050000D01*
X109761500Y-68500000D01*
G37*
G36*
X115637500Y-68500000D02*
G01*
X114162500Y-68500000D01*
X114162500Y-68050000D01*
X115637500Y-68050000D01*
X115637500Y-68500000D01*
G37*
G36*
X105176662Y-67690276D02*
G01*
X105220459Y-67719541D01*
X105249724Y-67763338D01*
X105260000Y-67815000D01*
X105260000Y-68185000D01*
X105249724Y-68236662D01*
X105220459Y-68280459D01*
X105176662Y-68309724D01*
X105125000Y-68320000D01*
X104855000Y-68320000D01*
X104803338Y-68309724D01*
X104759541Y-68280459D01*
X104730276Y-68236662D01*
X104720000Y-68185000D01*
X104720000Y-67815000D01*
X104730276Y-67763338D01*
X104759541Y-67719541D01*
X104803338Y-67690276D01*
X104855000Y-67680000D01*
X105125000Y-67680000D01*
X105176662Y-67690276D01*
G37*
G36*
X106196662Y-67690276D02*
G01*
X106240459Y-67719541D01*
X106269724Y-67763338D01*
X106280000Y-67815000D01*
X106280000Y-68185000D01*
X106269724Y-68236662D01*
X106240459Y-68280459D01*
X106196662Y-68309724D01*
X106145000Y-68320000D01*
X105875000Y-68320000D01*
X105823338Y-68309724D01*
X105779541Y-68280459D01*
X105750276Y-68236662D01*
X105740000Y-68185000D01*
X105740000Y-67815000D01*
X105750276Y-67763338D01*
X105779541Y-67719541D01*
X105823338Y-67690276D01*
X105875000Y-67680000D01*
X106145000Y-67680000D01*
X106196662Y-67690276D01*
G37*
G36*
X100695090Y-66019215D02*
G01*
X100882683Y-66076120D01*
X101055570Y-66168530D01*
X101207107Y-66292893D01*
X101331470Y-66444430D01*
X101423880Y-66617317D01*
X101480785Y-66804910D01*
X101500000Y-67000000D01*
X101480785Y-67195090D01*
X101423880Y-67382683D01*
X101331470Y-67555570D01*
X101207107Y-67707107D01*
X101055570Y-67831470D01*
X100882683Y-67923880D01*
X100695090Y-67980785D01*
X100500000Y-68000000D01*
X100304910Y-67980785D01*
X100117317Y-67923880D01*
X99944430Y-67831470D01*
X99792893Y-67707107D01*
X99668530Y-67555570D01*
X99576120Y-67382683D01*
X99519215Y-67195090D01*
X99500000Y-67000000D01*
X99519215Y-66804910D01*
X99576120Y-66617317D01*
X99668530Y-66444430D01*
X99792893Y-66292893D01*
X99944430Y-66168530D01*
X100117317Y-66076120D01*
X100304910Y-66019215D01*
X100500000Y-66000000D01*
X100695090Y-66019215D01*
G37*
G36*
X118600000Y-67900000D02*
G01*
X117600000Y-67900000D01*
X117600000Y-66900000D01*
X118600000Y-66900000D01*
X118600000Y-67900000D01*
G37*
G36*
X109761500Y-67850000D02*
G01*
X108286500Y-67850000D01*
X108286500Y-67400000D01*
X109761500Y-67400000D01*
X109761500Y-67850000D01*
G37*
G36*
X115637500Y-67850000D02*
G01*
X114162500Y-67850000D01*
X114162500Y-67400000D01*
X115637500Y-67400000D01*
X115637500Y-67850000D01*
G37*
G36*
X105176662Y-66690276D02*
G01*
X105220459Y-66719541D01*
X105249724Y-66763338D01*
X105260000Y-66815000D01*
X105260000Y-67185000D01*
X105249724Y-67236662D01*
X105220459Y-67280459D01*
X105176662Y-67309724D01*
X105125000Y-67320000D01*
X104855000Y-67320000D01*
X104803338Y-67309724D01*
X104759541Y-67280459D01*
X104730276Y-67236662D01*
X104720000Y-67185000D01*
X104720000Y-66815000D01*
X104730276Y-66763338D01*
X104759541Y-66719541D01*
X104803338Y-66690276D01*
X104855000Y-66680000D01*
X105125000Y-66680000D01*
X105176662Y-66690276D01*
G37*
G36*
X106196662Y-66690276D02*
G01*
X106240459Y-66719541D01*
X106269724Y-66763338D01*
X106280000Y-66815000D01*
X106280000Y-67185000D01*
X106269724Y-67236662D01*
X106240459Y-67280459D01*
X106196662Y-67309724D01*
X106145000Y-67320000D01*
X105875000Y-67320000D01*
X105823338Y-67309724D01*
X105779541Y-67280459D01*
X105750276Y-67236662D01*
X105740000Y-67185000D01*
X105740000Y-66815000D01*
X105750276Y-66763338D01*
X105779541Y-66719541D01*
X105823338Y-66690276D01*
X105875000Y-66680000D01*
X106145000Y-66680000D01*
X106196662Y-66690276D01*
G37*
G36*
X109761500Y-67200000D02*
G01*
X108286500Y-67200000D01*
X108286500Y-66750000D01*
X109761500Y-66750000D01*
X109761500Y-67200000D01*
G37*
G36*
X115637500Y-67200000D02*
G01*
X114162500Y-67200000D01*
X114162500Y-66750000D01*
X115637500Y-66750000D01*
X115637500Y-67200000D01*
G37*
G36*
X109761500Y-66550000D02*
G01*
X108286500Y-66550000D01*
X108286500Y-66100000D01*
X109761500Y-66100000D01*
X109761500Y-66550000D01*
G37*
G36*
X115637500Y-66550000D02*
G01*
X114162500Y-66550000D01*
X114162500Y-66100000D01*
X115637500Y-66100000D01*
X115637500Y-66550000D01*
G37*
G36*
X105176662Y-65690276D02*
G01*
X105220459Y-65719541D01*
X105249724Y-65763338D01*
X105260000Y-65815000D01*
X105260000Y-66185000D01*
X105249724Y-66236662D01*
X105220459Y-66280459D01*
X105176662Y-66309724D01*
X105125000Y-66320000D01*
X104855000Y-66320000D01*
X104803338Y-66309724D01*
X104759541Y-66280459D01*
X104730276Y-66236662D01*
X104720000Y-66185000D01*
X104720000Y-65815000D01*
X104730276Y-65763338D01*
X104759541Y-65719541D01*
X104803338Y-65690276D01*
X104855000Y-65680000D01*
X105125000Y-65680000D01*
X105176662Y-65690276D01*
G37*
G36*
X106196662Y-65690276D02*
G01*
X106240459Y-65719541D01*
X106269724Y-65763338D01*
X106280000Y-65815000D01*
X106280000Y-66185000D01*
X106269724Y-66236662D01*
X106240459Y-66280459D01*
X106196662Y-66309724D01*
X106145000Y-66320000D01*
X105875000Y-66320000D01*
X105823338Y-66309724D01*
X105779541Y-66280459D01*
X105750276Y-66236662D01*
X105740000Y-66185000D01*
X105740000Y-65815000D01*
X105750276Y-65763338D01*
X105779541Y-65719541D01*
X105823338Y-65690276D01*
X105875000Y-65680000D01*
X106145000Y-65680000D01*
X106196662Y-65690276D01*
G37*
G36*
X109761500Y-65900000D02*
G01*
X108286500Y-65900000D01*
X108286500Y-65450000D01*
X109761500Y-65450000D01*
X109761500Y-65900000D01*
G37*
G36*
X115637500Y-65900000D02*
G01*
X114162500Y-65900000D01*
X114162500Y-65450000D01*
X115637500Y-65450000D01*
X115637500Y-65900000D01*
G37*
G36*
X137201537Y-64955224D02*
G01*
X137266421Y-64998579D01*
X137309776Y-65063463D01*
X137325000Y-65140000D01*
X137325000Y-65540000D01*
X137309776Y-65616537D01*
X137266421Y-65681421D01*
X137201537Y-65724776D01*
X137125000Y-65740000D01*
X136575000Y-65740000D01*
X136498463Y-65724776D01*
X136433579Y-65681421D01*
X136390224Y-65616537D01*
X136375000Y-65540000D01*
X136375000Y-65140000D01*
X136390224Y-65063463D01*
X136433579Y-64998579D01*
X136498463Y-64955224D01*
X136575000Y-64940000D01*
X137125000Y-64940000D01*
X137201537Y-64955224D01*
G37*
G36*
X117851662Y-64990276D02*
G01*
X117895459Y-65019541D01*
X117924724Y-65063338D01*
X117935000Y-65115000D01*
X117935000Y-65485000D01*
X117924724Y-65536662D01*
X117895459Y-65580459D01*
X117851662Y-65609724D01*
X117800000Y-65620000D01*
X117530000Y-65620000D01*
X117478338Y-65609724D01*
X117434541Y-65580459D01*
X117405276Y-65536662D01*
X117395000Y-65485000D01*
X117395000Y-65115000D01*
X117405276Y-65063338D01*
X117434541Y-65019541D01*
X117478338Y-64990276D01*
X117530000Y-64980000D01*
X117800000Y-64980000D01*
X117851662Y-64990276D01*
G37*
G36*
X118871662Y-64990276D02*
G01*
X118915459Y-65019541D01*
X118944724Y-65063338D01*
X118955000Y-65115000D01*
X118955000Y-65485000D01*
X118944724Y-65536662D01*
X118915459Y-65580459D01*
X118871662Y-65609724D01*
X118820000Y-65620000D01*
X118550000Y-65620000D01*
X118498338Y-65609724D01*
X118454541Y-65580459D01*
X118425276Y-65536662D01*
X118415000Y-65485000D01*
X118415000Y-65115000D01*
X118425276Y-65063338D01*
X118454541Y-65019541D01*
X118498338Y-64990276D01*
X118550000Y-64980000D01*
X118820000Y-64980000D01*
X118871662Y-64990276D01*
G37*
G36*
X105166662Y-64690276D02*
G01*
X105210459Y-64719541D01*
X105239724Y-64763338D01*
X105250000Y-64815000D01*
X105250000Y-65185000D01*
X105239724Y-65236662D01*
X105210459Y-65280459D01*
X105166662Y-65309724D01*
X105115000Y-65320000D01*
X104845000Y-65320000D01*
X104793338Y-65309724D01*
X104749541Y-65280459D01*
X104720276Y-65236662D01*
X104710000Y-65185000D01*
X104710000Y-64815000D01*
X104720276Y-64763338D01*
X104749541Y-64719541D01*
X104793338Y-64690276D01*
X104845000Y-64680000D01*
X105115000Y-64680000D01*
X105166662Y-64690276D01*
G37*
G36*
X106186662Y-64690276D02*
G01*
X106230459Y-64719541D01*
X106259724Y-64763338D01*
X106270000Y-64815000D01*
X106270000Y-65185000D01*
X106259724Y-65236662D01*
X106230459Y-65280459D01*
X106186662Y-65309724D01*
X106135000Y-65320000D01*
X105865000Y-65320000D01*
X105813338Y-65309724D01*
X105769541Y-65280459D01*
X105740276Y-65236662D01*
X105730000Y-65185000D01*
X105730000Y-64815000D01*
X105740276Y-64763338D01*
X105769541Y-64719541D01*
X105813338Y-64690276D01*
X105865000Y-64680000D01*
X106135000Y-64680000D01*
X106186662Y-64690276D01*
G37*
G36*
X109761500Y-65250000D02*
G01*
X108286500Y-65250000D01*
X108286500Y-64800000D01*
X109761500Y-64800000D01*
X109761500Y-65250000D01*
G37*
G36*
X115637500Y-65250000D02*
G01*
X114162500Y-65250000D01*
X114162500Y-64800000D01*
X115637500Y-64800000D01*
X115637500Y-65250000D01*
G37*
G36*
X100695090Y-63019215D02*
G01*
X100882683Y-63076120D01*
X101055570Y-63168530D01*
X101207107Y-63292893D01*
X101331470Y-63444430D01*
X101423880Y-63617317D01*
X101480785Y-63804910D01*
X101500000Y-64000000D01*
X101480785Y-64195090D01*
X101423880Y-64382683D01*
X101331470Y-64555570D01*
X101207107Y-64707107D01*
X101055570Y-64831470D01*
X100882683Y-64923880D01*
X100695090Y-64980785D01*
X100500000Y-65000000D01*
X100304910Y-64980785D01*
X100117317Y-64923880D01*
X99944430Y-64831470D01*
X99792893Y-64707107D01*
X99668530Y-64555570D01*
X99576120Y-64382683D01*
X99519215Y-64195090D01*
X99500000Y-64000000D01*
X99519215Y-63804910D01*
X99576120Y-63617317D01*
X99668530Y-63444430D01*
X99792893Y-63292893D01*
X99944430Y-63168530D01*
X100117317Y-63076120D01*
X100304910Y-63019215D01*
X100500000Y-63000000D01*
X100695090Y-63019215D01*
G37*
G36*
X131429668Y-64125224D02*
G01*
X131462776Y-64158332D01*
X131480694Y-64201589D01*
X131483000Y-64225000D01*
X131483000Y-64585000D01*
X131480694Y-64608411D01*
X131462776Y-64651668D01*
X131429668Y-64684776D01*
X131386411Y-64702694D01*
X131339589Y-64702694D01*
X131296332Y-64684776D01*
X131263224Y-64651668D01*
X131245306Y-64608411D01*
X131243000Y-64585000D01*
X131243000Y-64225000D01*
X131245306Y-64201589D01*
X131263224Y-64158332D01*
X131296332Y-64125224D01*
X131339589Y-64107306D01*
X131386411Y-64107306D01*
X131429668Y-64125224D01*
G37*
G36*
X131929668Y-64125224D02*
G01*
X131962776Y-64158332D01*
X131980694Y-64201589D01*
X131983000Y-64225000D01*
X131983000Y-64585000D01*
X131980694Y-64608411D01*
X131962776Y-64651668D01*
X131929668Y-64684776D01*
X131886411Y-64702694D01*
X131839589Y-64702694D01*
X131796332Y-64684776D01*
X131763224Y-64651668D01*
X131745306Y-64608411D01*
X131743000Y-64585000D01*
X131743000Y-64225000D01*
X131745306Y-64201589D01*
X131763224Y-64158332D01*
X131796332Y-64125224D01*
X131839589Y-64107306D01*
X131886411Y-64107306D01*
X131929668Y-64125224D01*
G37*
G36*
X132429668Y-64125224D02*
G01*
X132462776Y-64158332D01*
X132480694Y-64201589D01*
X132483000Y-64225000D01*
X132483000Y-64585000D01*
X132480694Y-64608411D01*
X132462776Y-64651668D01*
X132429668Y-64684776D01*
X132386411Y-64702694D01*
X132339589Y-64702694D01*
X132296332Y-64684776D01*
X132263224Y-64651668D01*
X132245306Y-64608411D01*
X132243000Y-64585000D01*
X132243000Y-64225000D01*
X132245306Y-64201589D01*
X132263224Y-64158332D01*
X132296332Y-64125224D01*
X132339589Y-64107306D01*
X132386411Y-64107306D01*
X132429668Y-64125224D01*
G37*
G36*
X132929668Y-64125224D02*
G01*
X132962776Y-64158332D01*
X132980694Y-64201589D01*
X132983000Y-64225000D01*
X132983000Y-64585000D01*
X132980694Y-64608411D01*
X132962776Y-64651668D01*
X132929668Y-64684776D01*
X132886411Y-64702694D01*
X132839589Y-64702694D01*
X132796332Y-64684776D01*
X132763224Y-64651668D01*
X132745306Y-64608411D01*
X132743000Y-64585000D01*
X132743000Y-64225000D01*
X132745306Y-64201589D01*
X132763224Y-64158332D01*
X132796332Y-64125224D01*
X132839589Y-64107306D01*
X132886411Y-64107306D01*
X132929668Y-64125224D01*
G37*
G36*
X133429668Y-64125224D02*
G01*
X133462776Y-64158332D01*
X133480694Y-64201589D01*
X133483000Y-64225000D01*
X133483000Y-64585000D01*
X133480694Y-64608411D01*
X133462776Y-64651668D01*
X133429668Y-64684776D01*
X133386411Y-64702694D01*
X133339589Y-64702694D01*
X133296332Y-64684776D01*
X133263224Y-64651668D01*
X133245306Y-64608411D01*
X133243000Y-64585000D01*
X133243000Y-64225000D01*
X133245306Y-64201589D01*
X133263224Y-64158332D01*
X133296332Y-64125224D01*
X133339589Y-64107306D01*
X133386411Y-64107306D01*
X133429668Y-64125224D01*
G37*
G36*
X133929668Y-64125224D02*
G01*
X133962776Y-64158332D01*
X133980694Y-64201589D01*
X133983000Y-64225000D01*
X133983000Y-64585000D01*
X133980694Y-64608411D01*
X133962776Y-64651668D01*
X133929668Y-64684776D01*
X133886411Y-64702694D01*
X133839589Y-64702694D01*
X133796332Y-64684776D01*
X133763224Y-64651668D01*
X133745306Y-64608411D01*
X133743000Y-64585000D01*
X133743000Y-64225000D01*
X133745306Y-64201589D01*
X133763224Y-64158332D01*
X133796332Y-64125224D01*
X133839589Y-64107306D01*
X133886411Y-64107306D01*
X133929668Y-64125224D01*
G37*
G36*
X134429668Y-64125224D02*
G01*
X134462776Y-64158332D01*
X134480694Y-64201589D01*
X134483000Y-64225000D01*
X134483000Y-64585000D01*
X134480694Y-64608411D01*
X134462776Y-64651668D01*
X134429668Y-64684776D01*
X134386411Y-64702694D01*
X134339589Y-64702694D01*
X134296332Y-64684776D01*
X134263224Y-64651668D01*
X134245306Y-64608411D01*
X134243000Y-64585000D01*
X134243000Y-64225000D01*
X134245306Y-64201589D01*
X134263224Y-64158332D01*
X134296332Y-64125224D01*
X134339589Y-64107306D01*
X134386411Y-64107306D01*
X134429668Y-64125224D01*
G37*
G36*
X109761500Y-64600000D02*
G01*
X108286500Y-64600000D01*
X108286500Y-64150000D01*
X109761500Y-64150000D01*
X109761500Y-64600000D01*
G37*
G36*
X115637500Y-64600000D02*
G01*
X114162500Y-64600000D01*
X114162500Y-64150000D01*
X115637500Y-64150000D01*
X115637500Y-64600000D01*
G37*
G36*
X128250000Y-64490000D02*
G01*
X124850000Y-64490000D01*
X124850000Y-63510000D01*
X128250000Y-63510000D01*
X128250000Y-64490000D01*
G37*
G36*
X139161104Y-63557127D02*
G01*
X139234099Y-63605901D01*
X139282873Y-63678896D01*
X139300000Y-63765000D01*
X139300000Y-64265000D01*
X139282873Y-64351104D01*
X139234099Y-64424099D01*
X139161104Y-64472873D01*
X139075000Y-64490000D01*
X138625000Y-64490000D01*
X138538896Y-64472873D01*
X138465901Y-64424099D01*
X138417127Y-64351104D01*
X138400000Y-64265000D01*
X138400000Y-63765000D01*
X138417127Y-63678896D01*
X138465901Y-63605901D01*
X138538896Y-63557127D01*
X138625000Y-63540000D01*
X139075000Y-63540000D01*
X139161104Y-63557127D01*
G37*
G36*
X140711104Y-63557127D02*
G01*
X140784099Y-63605901D01*
X140832873Y-63678896D01*
X140850000Y-63765000D01*
X140850000Y-64265000D01*
X140832873Y-64351104D01*
X140784099Y-64424099D01*
X140711104Y-64472873D01*
X140625000Y-64490000D01*
X140175000Y-64490000D01*
X140088896Y-64472873D01*
X140015901Y-64424099D01*
X139967127Y-64351104D01*
X139950000Y-64265000D01*
X139950000Y-63765000D01*
X139967127Y-63678896D01*
X140015901Y-63605901D01*
X140088896Y-63557127D01*
X140175000Y-63540000D01*
X140625000Y-63540000D01*
X140711104Y-63557127D01*
G37*
G36*
X105176662Y-63690276D02*
G01*
X105220459Y-63719541D01*
X105249724Y-63763338D01*
X105260000Y-63815000D01*
X105260000Y-64185000D01*
X105249724Y-64236662D01*
X105220459Y-64280459D01*
X105176662Y-64309724D01*
X105125000Y-64320000D01*
X104855000Y-64320000D01*
X104803338Y-64309724D01*
X104759541Y-64280459D01*
X104730276Y-64236662D01*
X104720000Y-64185000D01*
X104720000Y-63815000D01*
X104730276Y-63763338D01*
X104759541Y-63719541D01*
X104803338Y-63690276D01*
X104855000Y-63680000D01*
X105125000Y-63680000D01*
X105176662Y-63690276D01*
G37*
G36*
X106196662Y-63690276D02*
G01*
X106240459Y-63719541D01*
X106269724Y-63763338D01*
X106280000Y-63815000D01*
X106280000Y-64185000D01*
X106269724Y-64236662D01*
X106240459Y-64280459D01*
X106196662Y-64309724D01*
X106145000Y-64320000D01*
X105875000Y-64320000D01*
X105823338Y-64309724D01*
X105779541Y-64280459D01*
X105750276Y-64236662D01*
X105740000Y-64185000D01*
X105740000Y-63815000D01*
X105750276Y-63763338D01*
X105779541Y-63719541D01*
X105823338Y-63690276D01*
X105875000Y-63680000D01*
X106145000Y-63680000D01*
X106196662Y-63690276D01*
G37*
G36*
X117976662Y-63690276D02*
G01*
X118020459Y-63719541D01*
X118049724Y-63763338D01*
X118060000Y-63815000D01*
X118060000Y-64185000D01*
X118049724Y-64236662D01*
X118020459Y-64280459D01*
X117976662Y-64309724D01*
X117925000Y-64320000D01*
X117655000Y-64320000D01*
X117603338Y-64309724D01*
X117559541Y-64280459D01*
X117530276Y-64236662D01*
X117520000Y-64185000D01*
X117520000Y-63815000D01*
X117530276Y-63763338D01*
X117559541Y-63719541D01*
X117603338Y-63690276D01*
X117655000Y-63680000D01*
X117925000Y-63680000D01*
X117976662Y-63690276D01*
G37*
G36*
X118996662Y-63690276D02*
G01*
X119040459Y-63719541D01*
X119069724Y-63763338D01*
X119080000Y-63815000D01*
X119080000Y-64185000D01*
X119069724Y-64236662D01*
X119040459Y-64280459D01*
X118996662Y-64309724D01*
X118945000Y-64320000D01*
X118675000Y-64320000D01*
X118623338Y-64309724D01*
X118579541Y-64280459D01*
X118550276Y-64236662D01*
X118540000Y-64185000D01*
X118540000Y-63815000D01*
X118550276Y-63763338D01*
X118579541Y-63719541D01*
X118623338Y-63690276D01*
X118675000Y-63680000D01*
X118945000Y-63680000D01*
X118996662Y-63690276D01*
G37*
G36*
X137201537Y-63305224D02*
G01*
X137266421Y-63348579D01*
X137309776Y-63413463D01*
X137325000Y-63490000D01*
X137325000Y-63890000D01*
X137309776Y-63966537D01*
X137266421Y-64031421D01*
X137201537Y-64074776D01*
X137125000Y-64090000D01*
X136575000Y-64090000D01*
X136498463Y-64074776D01*
X136433579Y-64031421D01*
X136390224Y-63966537D01*
X136375000Y-63890000D01*
X136375000Y-63490000D01*
X136390224Y-63413463D01*
X136433579Y-63348579D01*
X136498463Y-63305224D01*
X136575000Y-63290000D01*
X137125000Y-63290000D01*
X137201537Y-63305224D01*
G37*
G36*
X109761500Y-63950000D02*
G01*
X108286500Y-63950000D01*
X108286500Y-63500000D01*
X109761500Y-63500000D01*
X109761500Y-63950000D01*
G37*
G36*
X115637500Y-63950000D02*
G01*
X114162500Y-63950000D01*
X114162500Y-63500000D01*
X115637500Y-63500000D01*
X115637500Y-63950000D01*
G37*
G36*
X131437500Y-62215049D02*
G01*
X131438000Y-62215050D01*
X131438000Y-62215000D01*
X134288000Y-62215000D01*
X134288000Y-62215049D01*
X134288500Y-62215050D01*
X134288500Y-62215000D01*
X135063500Y-62215000D01*
X135063500Y-62415000D01*
X134317755Y-62415000D01*
X134288000Y-62444755D01*
X134288000Y-62645244D01*
X134317756Y-62675000D01*
X135063500Y-62675000D01*
X135063500Y-62875000D01*
X134317755Y-62875000D01*
X134288000Y-62904755D01*
X134288000Y-63105244D01*
X134317756Y-63135000D01*
X135063500Y-63135000D01*
X135063500Y-63335000D01*
X134317755Y-63335000D01*
X134288000Y-63364755D01*
X134288000Y-63565244D01*
X134317756Y-63595000D01*
X135063500Y-63595000D01*
X135063500Y-63795000D01*
X134288500Y-63795000D01*
X134288500Y-63794949D01*
X134288000Y-63794949D01*
X134288000Y-63795000D01*
X131438000Y-63795000D01*
X131438000Y-63794949D01*
X131437500Y-63794949D01*
X131437500Y-63795000D01*
X130662500Y-63795000D01*
X130662500Y-63595000D01*
X131408243Y-63595000D01*
X131438000Y-63565243D01*
X131438000Y-63364756D01*
X131408244Y-63335000D01*
X130662500Y-63335000D01*
X130662500Y-63135000D01*
X131408243Y-63135000D01*
X131438000Y-63105243D01*
X131438000Y-62904756D01*
X131408244Y-62875000D01*
X130662500Y-62875000D01*
X130662500Y-62675000D01*
X131408243Y-62675000D01*
X131438000Y-62645243D01*
X131438000Y-62444756D01*
X131408244Y-62415000D01*
X130662500Y-62415000D01*
X130662500Y-62215000D01*
X131437500Y-62215000D01*
X131437500Y-62215049D01*
G37*
G36*
X105166662Y-62690276D02*
G01*
X105210459Y-62719541D01*
X105239724Y-62763338D01*
X105250000Y-62815000D01*
X105250000Y-63185000D01*
X105239724Y-63236662D01*
X105210459Y-63280459D01*
X105166662Y-63309724D01*
X105115000Y-63320000D01*
X104845000Y-63320000D01*
X104793338Y-63309724D01*
X104749541Y-63280459D01*
X104720276Y-63236662D01*
X104710000Y-63185000D01*
X104710000Y-62815000D01*
X104720276Y-62763338D01*
X104749541Y-62719541D01*
X104793338Y-62690276D01*
X104845000Y-62680000D01*
X105115000Y-62680000D01*
X105166662Y-62690276D01*
G37*
G36*
X106186662Y-62690276D02*
G01*
X106230459Y-62719541D01*
X106259724Y-62763338D01*
X106270000Y-62815000D01*
X106270000Y-63185000D01*
X106259724Y-63236662D01*
X106230459Y-63280459D01*
X106186662Y-63309724D01*
X106135000Y-63320000D01*
X105865000Y-63320000D01*
X105813338Y-63309724D01*
X105769541Y-63280459D01*
X105740276Y-63236662D01*
X105730000Y-63185000D01*
X105730000Y-62815000D01*
X105740276Y-62763338D01*
X105769541Y-62719541D01*
X105813338Y-62690276D01*
X105865000Y-62680000D01*
X106135000Y-62680000D01*
X106186662Y-62690276D01*
G37*
G36*
X109761500Y-63300000D02*
G01*
X108286500Y-63300000D01*
X108286500Y-62850000D01*
X109761500Y-62850000D01*
X109761500Y-63300000D01*
G37*
G36*
X115637500Y-63300000D02*
G01*
X114162500Y-63300000D01*
X114162500Y-62850000D01*
X115637500Y-62850000D01*
X115637500Y-63300000D01*
G37*
G36*
X118176662Y-62190276D02*
G01*
X118220459Y-62219541D01*
X118249724Y-62263338D01*
X118260000Y-62315000D01*
X118260000Y-62685000D01*
X118249724Y-62736662D01*
X118220459Y-62780459D01*
X118176662Y-62809724D01*
X118125000Y-62820000D01*
X117855000Y-62820000D01*
X117803338Y-62809724D01*
X117759541Y-62780459D01*
X117730276Y-62736662D01*
X117720000Y-62685000D01*
X117720000Y-62315000D01*
X117730276Y-62263338D01*
X117759541Y-62219541D01*
X117803338Y-62190276D01*
X117855000Y-62180000D01*
X118125000Y-62180000D01*
X118176662Y-62190276D01*
G37*
G36*
X119196662Y-62190276D02*
G01*
X119240459Y-62219541D01*
X119269724Y-62263338D01*
X119280000Y-62315000D01*
X119280000Y-62685000D01*
X119269724Y-62736662D01*
X119240459Y-62780459D01*
X119196662Y-62809724D01*
X119145000Y-62820000D01*
X118875000Y-62820000D01*
X118823338Y-62809724D01*
X118779541Y-62780459D01*
X118750276Y-62736662D01*
X118740000Y-62685000D01*
X118740000Y-62315000D01*
X118750276Y-62263338D01*
X118779541Y-62219541D01*
X118823338Y-62190276D01*
X118875000Y-62180000D01*
X119145000Y-62180000D01*
X119196662Y-62190276D01*
G37*
G36*
X109761500Y-62650000D02*
G01*
X108286500Y-62650000D01*
X108286500Y-62200000D01*
X109761500Y-62200000D01*
X109761500Y-62650000D01*
G37*
G36*
X115637500Y-62650000D02*
G01*
X114162500Y-62650000D01*
X114162500Y-62200000D01*
X115637500Y-62200000D01*
X115637500Y-62650000D01*
G37*
G36*
X128250000Y-62120000D02*
G01*
X124850000Y-62120000D01*
X124850000Y-61140000D01*
X128250000Y-61140000D01*
X128250000Y-62120000D01*
G37*
G36*
X131429668Y-61325224D02*
G01*
X131462776Y-61358332D01*
X131480694Y-61401589D01*
X131483000Y-61425000D01*
X131483000Y-61785000D01*
X131480694Y-61808411D01*
X131462776Y-61851668D01*
X131429668Y-61884776D01*
X131386411Y-61902694D01*
X131339589Y-61902694D01*
X131296332Y-61884776D01*
X131263224Y-61851668D01*
X131245306Y-61808411D01*
X131243000Y-61785000D01*
X131243000Y-61425000D01*
X131245306Y-61401589D01*
X131263224Y-61358332D01*
X131296332Y-61325224D01*
X131339589Y-61307306D01*
X131386411Y-61307306D01*
X131429668Y-61325224D01*
G37*
G36*
X131929668Y-61325224D02*
G01*
X131962776Y-61358332D01*
X131980694Y-61401589D01*
X131983000Y-61425000D01*
X131983000Y-61785000D01*
X131980694Y-61808411D01*
X131962776Y-61851668D01*
X131929668Y-61884776D01*
X131886411Y-61902694D01*
X131839589Y-61902694D01*
X131796332Y-61884776D01*
X131763224Y-61851668D01*
X131745306Y-61808411D01*
X131743000Y-61785000D01*
X131743000Y-61425000D01*
X131745306Y-61401589D01*
X131763224Y-61358332D01*
X131796332Y-61325224D01*
X131839589Y-61307306D01*
X131886411Y-61307306D01*
X131929668Y-61325224D01*
G37*
G36*
X132429668Y-61325224D02*
G01*
X132462776Y-61358332D01*
X132480694Y-61401589D01*
X132483000Y-61425000D01*
X132483000Y-61785000D01*
X132480694Y-61808411D01*
X132462776Y-61851668D01*
X132429668Y-61884776D01*
X132386411Y-61902694D01*
X132339589Y-61902694D01*
X132296332Y-61884776D01*
X132263224Y-61851668D01*
X132245306Y-61808411D01*
X132243000Y-61785000D01*
X132243000Y-61425000D01*
X132245306Y-61401589D01*
X132263224Y-61358332D01*
X132296332Y-61325224D01*
X132339589Y-61307306D01*
X132386411Y-61307306D01*
X132429668Y-61325224D01*
G37*
G36*
X132929668Y-61325224D02*
G01*
X132962776Y-61358332D01*
X132980694Y-61401589D01*
X132983000Y-61425000D01*
X132983000Y-61785000D01*
X132980694Y-61808411D01*
X132962776Y-61851668D01*
X132929668Y-61884776D01*
X132886411Y-61902694D01*
X132839589Y-61902694D01*
X132796332Y-61884776D01*
X132763224Y-61851668D01*
X132745306Y-61808411D01*
X132743000Y-61785000D01*
X132743000Y-61425000D01*
X132745306Y-61401589D01*
X132763224Y-61358332D01*
X132796332Y-61325224D01*
X132839589Y-61307306D01*
X132886411Y-61307306D01*
X132929668Y-61325224D01*
G37*
G36*
X133429668Y-61325224D02*
G01*
X133462776Y-61358332D01*
X133480694Y-61401589D01*
X133483000Y-61425000D01*
X133483000Y-61785000D01*
X133480694Y-61808411D01*
X133462776Y-61851668D01*
X133429668Y-61884776D01*
X133386411Y-61902694D01*
X133339589Y-61902694D01*
X133296332Y-61884776D01*
X133263224Y-61851668D01*
X133245306Y-61808411D01*
X133243000Y-61785000D01*
X133243000Y-61425000D01*
X133245306Y-61401589D01*
X133263224Y-61358332D01*
X133296332Y-61325224D01*
X133339589Y-61307306D01*
X133386411Y-61307306D01*
X133429668Y-61325224D01*
G37*
G36*
X133929668Y-61325224D02*
G01*
X133962776Y-61358332D01*
X133980694Y-61401589D01*
X133983000Y-61425000D01*
X133983000Y-61785000D01*
X133980694Y-61808411D01*
X133962776Y-61851668D01*
X133929668Y-61884776D01*
X133886411Y-61902694D01*
X133839589Y-61902694D01*
X133796332Y-61884776D01*
X133763224Y-61851668D01*
X133745306Y-61808411D01*
X133743000Y-61785000D01*
X133743000Y-61425000D01*
X133745306Y-61401589D01*
X133763224Y-61358332D01*
X133796332Y-61325224D01*
X133839589Y-61307306D01*
X133886411Y-61307306D01*
X133929668Y-61325224D01*
G37*
G36*
X134429668Y-61325224D02*
G01*
X134462776Y-61358332D01*
X134480694Y-61401589D01*
X134483000Y-61425000D01*
X134483000Y-61785000D01*
X134480694Y-61808411D01*
X134462776Y-61851668D01*
X134429668Y-61884776D01*
X134386411Y-61902694D01*
X134339589Y-61902694D01*
X134296332Y-61884776D01*
X134263224Y-61851668D01*
X134245306Y-61808411D01*
X134243000Y-61785000D01*
X134243000Y-61425000D01*
X134245306Y-61401589D01*
X134263224Y-61358332D01*
X134296332Y-61325224D01*
X134339589Y-61307306D01*
X134386411Y-61307306D01*
X134429668Y-61325224D01*
G37*
G36*
X123000000Y-61300000D02*
G01*
X122000000Y-61300000D01*
X122000000Y-60300000D01*
X123000000Y-60300000D01*
X123000000Y-61300000D01*
G37*
G36*
X112876662Y-60590276D02*
G01*
X112920459Y-60619541D01*
X112949724Y-60663338D01*
X112960000Y-60715000D01*
X112960000Y-61085000D01*
X112949724Y-61136662D01*
X112920459Y-61180459D01*
X112876662Y-61209724D01*
X112825000Y-61220000D01*
X112555000Y-61220000D01*
X112503338Y-61209724D01*
X112459541Y-61180459D01*
X112430276Y-61136662D01*
X112420000Y-61085000D01*
X112420000Y-60715000D01*
X112430276Y-60663338D01*
X112459541Y-60619541D01*
X112503338Y-60590276D01*
X112555000Y-60580000D01*
X112825000Y-60580000D01*
X112876662Y-60590276D01*
G37*
G36*
X113896662Y-60590276D02*
G01*
X113940459Y-60619541D01*
X113969724Y-60663338D01*
X113980000Y-60715000D01*
X113980000Y-61085000D01*
X113969724Y-61136662D01*
X113940459Y-61180459D01*
X113896662Y-61209724D01*
X113845000Y-61220000D01*
X113575000Y-61220000D01*
X113523338Y-61209724D01*
X113479541Y-61180459D01*
X113450276Y-61136662D01*
X113440000Y-61085000D01*
X113440000Y-60715000D01*
X113450276Y-60663338D01*
X113479541Y-60619541D01*
X113523338Y-60590276D01*
X113575000Y-60580000D01*
X113845000Y-60580000D01*
X113896662Y-60590276D01*
G37*
G36*
X110176662Y-60290276D02*
G01*
X110220459Y-60319541D01*
X110249724Y-60363338D01*
X110260000Y-60415000D01*
X110260000Y-60785000D01*
X110249724Y-60836662D01*
X110220459Y-60880459D01*
X110176662Y-60909724D01*
X110125000Y-60920000D01*
X109855000Y-60920000D01*
X109803338Y-60909724D01*
X109759541Y-60880459D01*
X109730276Y-60836662D01*
X109720000Y-60785000D01*
X109720000Y-60415000D01*
X109730276Y-60363338D01*
X109759541Y-60319541D01*
X109803338Y-60290276D01*
X109855000Y-60280000D01*
X110125000Y-60280000D01*
X110176662Y-60290276D01*
G37*
G36*
X111196662Y-60290276D02*
G01*
X111240459Y-60319541D01*
X111269724Y-60363338D01*
X111280000Y-60415000D01*
X111280000Y-60785000D01*
X111269724Y-60836662D01*
X111240459Y-60880459D01*
X111196662Y-60909724D01*
X111145000Y-60920000D01*
X110875000Y-60920000D01*
X110823338Y-60909724D01*
X110779541Y-60880459D01*
X110750276Y-60836662D01*
X110740000Y-60785000D01*
X110740000Y-60415000D01*
X110750276Y-60363338D01*
X110779541Y-60319541D01*
X110823338Y-60290276D01*
X110875000Y-60280000D01*
X111145000Y-60280000D01*
X111196662Y-60290276D01*
G37*
G36*
X139301537Y-58555224D02*
G01*
X139366421Y-58598579D01*
X139409776Y-58663463D01*
X139425000Y-58740000D01*
X139425000Y-59290000D01*
X139409776Y-59366537D01*
X139366421Y-59431421D01*
X139301537Y-59474776D01*
X139225000Y-59490000D01*
X138825000Y-59490000D01*
X138748463Y-59474776D01*
X138683579Y-59431421D01*
X138640224Y-59366537D01*
X138625000Y-59290000D01*
X138625000Y-58740000D01*
X138640224Y-58663463D01*
X138683579Y-58598579D01*
X138748463Y-58555224D01*
X138825000Y-58540000D01*
X139225000Y-58540000D01*
X139301537Y-58555224D01*
G37*
G36*
X140951537Y-58555224D02*
G01*
X141016421Y-58598579D01*
X141059776Y-58663463D01*
X141075000Y-58740000D01*
X141075000Y-59290000D01*
X141059776Y-59366537D01*
X141016421Y-59431421D01*
X140951537Y-59474776D01*
X140875000Y-59490000D01*
X140475000Y-59490000D01*
X140398463Y-59474776D01*
X140333579Y-59431421D01*
X140290224Y-59366537D01*
X140275000Y-59290000D01*
X140275000Y-58740000D01*
X140290224Y-58663463D01*
X140333579Y-58598579D01*
X140398463Y-58555224D01*
X140475000Y-58540000D01*
X140875000Y-58540000D01*
X140951537Y-58555224D01*
G37*
G36*
X129936104Y-57857127D02*
G01*
X130009099Y-57905901D01*
X130057873Y-57978896D01*
X130075000Y-58065000D01*
X130075000Y-58515000D01*
X130057873Y-58601104D01*
X130009099Y-58674099D01*
X129936104Y-58722873D01*
X129850000Y-58740000D01*
X129350000Y-58740000D01*
X129263896Y-58722873D01*
X129190901Y-58674099D01*
X129142127Y-58601104D01*
X129125000Y-58515000D01*
X129125000Y-58065000D01*
X129142127Y-57978896D01*
X129190901Y-57905901D01*
X129263896Y-57857127D01*
X129350000Y-57840000D01*
X129850000Y-57840000D01*
X129936104Y-57857127D01*
G37*
G36*
X131436104Y-57857127D02*
G01*
X131509099Y-57905901D01*
X131557873Y-57978896D01*
X131575000Y-58065000D01*
X131575000Y-58515000D01*
X131557873Y-58601104D01*
X131509099Y-58674099D01*
X131436104Y-58722873D01*
X131350000Y-58740000D01*
X130850000Y-58740000D01*
X130763896Y-58722873D01*
X130690901Y-58674099D01*
X130642127Y-58601104D01*
X130625000Y-58515000D01*
X130625000Y-58065000D01*
X130642127Y-57978896D01*
X130690901Y-57905901D01*
X130763896Y-57857127D01*
X130850000Y-57840000D01*
X131350000Y-57840000D01*
X131436104Y-57857127D01*
G37*
G36*
X132936104Y-57857127D02*
G01*
X133009099Y-57905901D01*
X133057873Y-57978896D01*
X133075000Y-58065000D01*
X133075000Y-58515000D01*
X133057873Y-58601104D01*
X133009099Y-58674099D01*
X132936104Y-58722873D01*
X132850000Y-58740000D01*
X132350000Y-58740000D01*
X132263896Y-58722873D01*
X132190901Y-58674099D01*
X132142127Y-58601104D01*
X132125000Y-58515000D01*
X132125000Y-58065000D01*
X132142127Y-57978896D01*
X132190901Y-57905901D01*
X132263896Y-57857127D01*
X132350000Y-57840000D01*
X132850000Y-57840000D01*
X132936104Y-57857127D01*
G37*
G36*
X134436104Y-57857127D02*
G01*
X134509099Y-57905901D01*
X134557873Y-57978896D01*
X134575000Y-58065000D01*
X134575000Y-58515000D01*
X134557873Y-58601104D01*
X134509099Y-58674099D01*
X134436104Y-58722873D01*
X134350000Y-58740000D01*
X133850000Y-58740000D01*
X133763896Y-58722873D01*
X133690901Y-58674099D01*
X133642127Y-58601104D01*
X133625000Y-58515000D01*
X133625000Y-58065000D01*
X133642127Y-57978896D01*
X133690901Y-57905901D01*
X133763896Y-57857127D01*
X133850000Y-57840000D01*
X134350000Y-57840000D01*
X134436104Y-57857127D01*
G37*
G36*
X136201537Y-57955224D02*
G01*
X136266421Y-57998579D01*
X136309776Y-58063463D01*
X136325000Y-58140000D01*
X136325000Y-58540000D01*
X136309776Y-58616537D01*
X136266421Y-58681421D01*
X136201537Y-58724776D01*
X136125000Y-58740000D01*
X135575000Y-58740000D01*
X135498463Y-58724776D01*
X135433579Y-58681421D01*
X135390224Y-58616537D01*
X135375000Y-58540000D01*
X135375000Y-58140000D01*
X135390224Y-58063463D01*
X135433579Y-57998579D01*
X135498463Y-57955224D01*
X135575000Y-57940000D01*
X136125000Y-57940000D01*
X136201537Y-57955224D01*
G37*
G36*
X110275000Y-58400000D02*
G01*
X109325000Y-58400000D01*
X109325000Y-57500000D01*
X110275000Y-57500000D01*
X110275000Y-58400000D01*
G37*
G36*
X113400000Y-58400000D02*
G01*
X112600000Y-58400000D01*
X112600000Y-57600000D01*
X113400000Y-57600000D01*
X113400000Y-58400000D01*
G37*
G36*
X114250000Y-58400000D02*
G01*
X113850000Y-58400000D01*
X113850000Y-57600000D01*
X114250000Y-57600000D01*
X114250000Y-58400000D01*
G37*
G36*
X115100000Y-58400000D02*
G01*
X114700000Y-58400000D01*
X114700000Y-57600000D01*
X115100000Y-57600000D01*
X115100000Y-58400000D01*
G37*
G36*
X115950000Y-58400000D02*
G01*
X115550000Y-58400000D01*
X115550000Y-57600000D01*
X115950000Y-57600000D01*
X115950000Y-58400000D01*
G37*
G36*
X116800000Y-58400000D02*
G01*
X116400000Y-58400000D01*
X116400000Y-57600000D01*
X116800000Y-57600000D01*
X116800000Y-58400000D01*
G37*
G36*
X117650000Y-58400000D02*
G01*
X117250000Y-58400000D01*
X117250000Y-57600000D01*
X117650000Y-57600000D01*
X117650000Y-58400000D01*
G37*
G36*
X118500000Y-58400000D02*
G01*
X118100000Y-58400000D01*
X118100000Y-57600000D01*
X118500000Y-57600000D01*
X118500000Y-58400000D01*
G37*
G36*
X119350000Y-58400000D02*
G01*
X118950000Y-58400000D01*
X118950000Y-57600000D01*
X119350000Y-57600000D01*
X119350000Y-58400000D01*
G37*
G36*
X120200000Y-58400000D02*
G01*
X119800000Y-58400000D01*
X119800000Y-57600000D01*
X120200000Y-57600000D01*
X120200000Y-58400000D01*
G37*
G36*
X121050000Y-58400000D02*
G01*
X120650000Y-58400000D01*
X120650000Y-57600000D01*
X121050000Y-57600000D01*
X121050000Y-58400000D01*
G37*
G36*
X121900000Y-58400000D02*
G01*
X121500000Y-58400000D01*
X121500000Y-57600000D01*
X121900000Y-57600000D01*
X121900000Y-58400000D01*
G37*
G36*
X122750000Y-58400000D02*
G01*
X122350000Y-58400000D01*
X122350000Y-57600000D01*
X122750000Y-57600000D01*
X122750000Y-58400000D01*
G37*
G36*
X123600000Y-58400000D02*
G01*
X123200000Y-58400000D01*
X123200000Y-57600000D01*
X123600000Y-57600000D01*
X123600000Y-58400000D01*
G37*
G36*
X124450000Y-58400000D02*
G01*
X124050000Y-58400000D01*
X124050000Y-57600000D01*
X124450000Y-57600000D01*
X124450000Y-58400000D01*
G37*
G36*
X125300000Y-58400000D02*
G01*
X124900000Y-58400000D01*
X124900000Y-57600000D01*
X125300000Y-57600000D01*
X125300000Y-58400000D01*
G37*
G36*
X126150000Y-58400000D02*
G01*
X125750000Y-58400000D01*
X125750000Y-57600000D01*
X126150000Y-57600000D01*
X126150000Y-58400000D01*
G37*
G36*
X127400000Y-58400000D02*
G01*
X126600000Y-58400000D01*
X126600000Y-57600000D01*
X127400000Y-57600000D01*
X127400000Y-58400000D01*
G37*
G36*
X141201537Y-57130224D02*
G01*
X141266421Y-57173579D01*
X141309776Y-57238463D01*
X141325000Y-57315000D01*
X141325000Y-57715000D01*
X141309776Y-57791537D01*
X141266421Y-57856421D01*
X141201537Y-57899776D01*
X141125000Y-57915000D01*
X140575000Y-57915000D01*
X140498463Y-57899776D01*
X140433579Y-57856421D01*
X140390224Y-57791537D01*
X140375000Y-57715000D01*
X140375000Y-57315000D01*
X140390224Y-57238463D01*
X140433579Y-57173579D01*
X140498463Y-57130224D01*
X140575000Y-57115000D01*
X141125000Y-57115000D01*
X141201537Y-57130224D01*
G37*
G36*
X137886104Y-56557127D02*
G01*
X137959099Y-56605901D01*
X138007873Y-56678896D01*
X138025000Y-56765000D01*
X138025000Y-57265000D01*
X138007873Y-57351104D01*
X137959099Y-57424099D01*
X137886104Y-57472873D01*
X137800000Y-57490000D01*
X137350000Y-57490000D01*
X137263896Y-57472873D01*
X137190901Y-57424099D01*
X137142127Y-57351104D01*
X137125000Y-57265000D01*
X137125000Y-56765000D01*
X137142127Y-56678896D01*
X137190901Y-56605901D01*
X137263896Y-56557127D01*
X137350000Y-56540000D01*
X137800000Y-56540000D01*
X137886104Y-56557127D01*
G37*
G36*
X139436104Y-56557127D02*
G01*
X139509099Y-56605901D01*
X139557873Y-56678896D01*
X139575000Y-56765000D01*
X139575000Y-57265000D01*
X139557873Y-57351104D01*
X139509099Y-57424099D01*
X139436104Y-57472873D01*
X139350000Y-57490000D01*
X138900000Y-57490000D01*
X138813896Y-57472873D01*
X138740901Y-57424099D01*
X138692127Y-57351104D01*
X138675000Y-57265000D01*
X138675000Y-56765000D01*
X138692127Y-56678896D01*
X138740901Y-56605901D01*
X138813896Y-56557127D01*
X138900000Y-56540000D01*
X139350000Y-56540000D01*
X139436104Y-56557127D01*
G37*
G36*
X105786104Y-56342127D02*
G01*
X105859099Y-56390901D01*
X105907873Y-56463896D01*
X105925000Y-56550000D01*
X105925000Y-57000000D01*
X105907873Y-57086104D01*
X105859099Y-57159099D01*
X105786104Y-57207873D01*
X105700000Y-57225000D01*
X105200000Y-57225000D01*
X105113896Y-57207873D01*
X105040901Y-57159099D01*
X104992127Y-57086104D01*
X104975000Y-57000000D01*
X104975000Y-56550000D01*
X104992127Y-56463896D01*
X105040901Y-56390901D01*
X105113896Y-56342127D01*
X105200000Y-56325000D01*
X105700000Y-56325000D01*
X105786104Y-56342127D01*
G37*
G36*
X129936104Y-56307127D02*
G01*
X130009099Y-56355901D01*
X130057873Y-56428896D01*
X130075000Y-56515000D01*
X130075000Y-56965000D01*
X130057873Y-57051104D01*
X130009099Y-57124099D01*
X129936104Y-57172873D01*
X129850000Y-57190000D01*
X129350000Y-57190000D01*
X129263896Y-57172873D01*
X129190901Y-57124099D01*
X129142127Y-57051104D01*
X129125000Y-56965000D01*
X129125000Y-56515000D01*
X129142127Y-56428896D01*
X129190901Y-56355901D01*
X129263896Y-56307127D01*
X129350000Y-56290000D01*
X129850000Y-56290000D01*
X129936104Y-56307127D01*
G37*
G36*
X131436104Y-56307127D02*
G01*
X131509099Y-56355901D01*
X131557873Y-56428896D01*
X131575000Y-56515000D01*
X131575000Y-56965000D01*
X131557873Y-57051104D01*
X131509099Y-57124099D01*
X131436104Y-57172873D01*
X131350000Y-57190000D01*
X130850000Y-57190000D01*
X130763896Y-57172873D01*
X130690901Y-57124099D01*
X130642127Y-57051104D01*
X130625000Y-56965000D01*
X130625000Y-56515000D01*
X130642127Y-56428896D01*
X130690901Y-56355901D01*
X130763896Y-56307127D01*
X130850000Y-56290000D01*
X131350000Y-56290000D01*
X131436104Y-56307127D01*
G37*
G36*
X132936104Y-56307127D02*
G01*
X133009099Y-56355901D01*
X133057873Y-56428896D01*
X133075000Y-56515000D01*
X133075000Y-56965000D01*
X133057873Y-57051104D01*
X133009099Y-57124099D01*
X132936104Y-57172873D01*
X132850000Y-57190000D01*
X132350000Y-57190000D01*
X132263896Y-57172873D01*
X132190901Y-57124099D01*
X132142127Y-57051104D01*
X132125000Y-56965000D01*
X132125000Y-56515000D01*
X132142127Y-56428896D01*
X132190901Y-56355901D01*
X132263896Y-56307127D01*
X132350000Y-56290000D01*
X132850000Y-56290000D01*
X132936104Y-56307127D01*
G37*
G36*
X134436104Y-56307127D02*
G01*
X134509099Y-56355901D01*
X134557873Y-56428896D01*
X134575000Y-56515000D01*
X134575000Y-56965000D01*
X134557873Y-57051104D01*
X134509099Y-57124099D01*
X134436104Y-57172873D01*
X134350000Y-57190000D01*
X133850000Y-57190000D01*
X133763896Y-57172873D01*
X133690901Y-57124099D01*
X133642127Y-57051104D01*
X133625000Y-56965000D01*
X133625000Y-56515000D01*
X133642127Y-56428896D01*
X133690901Y-56355901D01*
X133763896Y-56307127D01*
X133850000Y-56290000D01*
X134350000Y-56290000D01*
X134436104Y-56307127D01*
G37*
G36*
X113400000Y-57150000D02*
G01*
X112600000Y-57150000D01*
X112600000Y-56750000D01*
X113400000Y-56750000D01*
X113400000Y-57150000D01*
G37*
G36*
X127400000Y-57150000D02*
G01*
X126600000Y-57150000D01*
X126600000Y-56750000D01*
X127400000Y-56750000D01*
X127400000Y-57150000D01*
G37*
G36*
X136201537Y-56305224D02*
G01*
X136266421Y-56348579D01*
X136309776Y-56413463D01*
X136325000Y-56490000D01*
X136325000Y-56890000D01*
X136309776Y-56966537D01*
X136266421Y-57031421D01*
X136201537Y-57074776D01*
X136125000Y-57090000D01*
X135575000Y-57090000D01*
X135498463Y-57074776D01*
X135433579Y-57031421D01*
X135390224Y-56966537D01*
X135375000Y-56890000D01*
X135375000Y-56490000D01*
X135390224Y-56413463D01*
X135433579Y-56348579D01*
X135498463Y-56305224D01*
X135575000Y-56290000D01*
X136125000Y-56290000D01*
X136201537Y-56305224D01*
G37*
G36*
X110275000Y-56900000D02*
G01*
X109325000Y-56900000D01*
X109325000Y-56000000D01*
X110275000Y-56000000D01*
X110275000Y-56900000D01*
G37*
G36*
X113400000Y-56300000D02*
G01*
X112600000Y-56300000D01*
X112600000Y-55900000D01*
X113400000Y-55900000D01*
X113400000Y-56300000D01*
G37*
G36*
X127400000Y-56300000D02*
G01*
X126600000Y-56300000D01*
X126600000Y-55900000D01*
X127400000Y-55900000D01*
X127400000Y-56300000D01*
G37*
G36*
X141201537Y-55480224D02*
G01*
X141266421Y-55523579D01*
X141309776Y-55588463D01*
X141325000Y-55665000D01*
X141325000Y-56065000D01*
X141309776Y-56141537D01*
X141266421Y-56206421D01*
X141201537Y-56249776D01*
X141125000Y-56265000D01*
X140575000Y-56265000D01*
X140498463Y-56249776D01*
X140433579Y-56206421D01*
X140390224Y-56141537D01*
X140375000Y-56065000D01*
X140375000Y-55665000D01*
X140390224Y-55588463D01*
X140433579Y-55523579D01*
X140498463Y-55480224D01*
X140575000Y-55465000D01*
X141125000Y-55465000D01*
X141201537Y-55480224D01*
G37*
G36*
X105786104Y-54792127D02*
G01*
X105859099Y-54840901D01*
X105907873Y-54913896D01*
X105925000Y-55000000D01*
X105925000Y-55450000D01*
X105907873Y-55536104D01*
X105859099Y-55609099D01*
X105786104Y-55657873D01*
X105700000Y-55675000D01*
X105200000Y-55675000D01*
X105113896Y-55657873D01*
X105040901Y-55609099D01*
X104992127Y-55536104D01*
X104975000Y-55450000D01*
X104975000Y-55000000D01*
X104992127Y-54913896D01*
X105040901Y-54840901D01*
X105113896Y-54792127D01*
X105200000Y-54775000D01*
X105700000Y-54775000D01*
X105786104Y-54792127D01*
G37*
G36*
X113400000Y-55450000D02*
G01*
X112600000Y-55450000D01*
X112600000Y-55050000D01*
X113400000Y-55050000D01*
X113400000Y-55450000D01*
G37*
G36*
X127400000Y-55450000D02*
G01*
X126600000Y-55450000D01*
X126600000Y-55050000D01*
X127400000Y-55050000D01*
X127400000Y-55450000D01*
G37*
G36*
X111036662Y-54850276D02*
G01*
X111080459Y-54879541D01*
X111109724Y-54923338D01*
X111120000Y-54975000D01*
X111120000Y-55245000D01*
X111109724Y-55296662D01*
X111080459Y-55340459D01*
X111036662Y-55369724D01*
X110985000Y-55380000D01*
X110615000Y-55380000D01*
X110563338Y-55369724D01*
X110519541Y-55340459D01*
X110490276Y-55296662D01*
X110480000Y-55245000D01*
X110480000Y-54975000D01*
X110490276Y-54923338D01*
X110519541Y-54879541D01*
X110563338Y-54850276D01*
X110615000Y-54840000D01*
X110985000Y-54840000D01*
X111036662Y-54850276D01*
G37*
G36*
X134300000Y-54900000D02*
G01*
X133300000Y-54900000D01*
X133300000Y-53900000D01*
X134300000Y-53900000D01*
X134300000Y-54900000D01*
G37*
G36*
X113400000Y-54600000D02*
G01*
X112600000Y-54600000D01*
X112600000Y-54200000D01*
X113400000Y-54200000D01*
X113400000Y-54600000D01*
G37*
G36*
X127400000Y-54600000D02*
G01*
X126600000Y-54600000D01*
X126600000Y-54200000D01*
X127400000Y-54200000D01*
X127400000Y-54600000D01*
G37*
G36*
X111036662Y-53830276D02*
G01*
X111080459Y-53859541D01*
X111109724Y-53903338D01*
X111120000Y-53955000D01*
X111120000Y-54225000D01*
X111109724Y-54276662D01*
X111080459Y-54320459D01*
X111036662Y-54349724D01*
X110985000Y-54360000D01*
X110615000Y-54360000D01*
X110563338Y-54349724D01*
X110519541Y-54320459D01*
X110490276Y-54276662D01*
X110480000Y-54225000D01*
X110480000Y-53955000D01*
X110490276Y-53903338D01*
X110519541Y-53859541D01*
X110563338Y-53830276D01*
X110615000Y-53820000D01*
X110985000Y-53820000D01*
X111036662Y-53830276D01*
G37*
G36*
X131300000Y-54300000D02*
G01*
X130300000Y-54300000D01*
X130300000Y-53300000D01*
X131300000Y-53300000D01*
X131300000Y-54300000D01*
G37*
G36*
X113400000Y-53750000D02*
G01*
X112600000Y-53750000D01*
X112600000Y-53350000D01*
X113400000Y-53350000D01*
X113400000Y-53750000D01*
G37*
G36*
X127400000Y-53750000D02*
G01*
X126600000Y-53750000D01*
X126600000Y-53350000D01*
X127400000Y-53350000D01*
X127400000Y-53750000D01*
G37*
G36*
X141995090Y-51519215D02*
G01*
X142182683Y-51576120D01*
X142355570Y-51668530D01*
X142507107Y-51792893D01*
X142631470Y-51944430D01*
X142723880Y-52117317D01*
X142780785Y-52304910D01*
X142800000Y-52500000D01*
X142780785Y-52695090D01*
X142723880Y-52882683D01*
X142631470Y-53055570D01*
X142507107Y-53207107D01*
X142355570Y-53331470D01*
X142182683Y-53423880D01*
X141995090Y-53480785D01*
X141800000Y-53500000D01*
X141604910Y-53480785D01*
X141417317Y-53423880D01*
X141244430Y-53331470D01*
X141092893Y-53207107D01*
X140968530Y-53055570D01*
X140876120Y-52882683D01*
X140819215Y-52695090D01*
X140800000Y-52500000D01*
X140819215Y-52304910D01*
X140876120Y-52117317D01*
X140968530Y-51944430D01*
X141092893Y-51792893D01*
X141244430Y-51668530D01*
X141417317Y-51576120D01*
X141604910Y-51519215D01*
X141800000Y-51500000D01*
X141995090Y-51519215D01*
G37*
G36*
X118950000Y-53250000D02*
G01*
X117750000Y-53250000D01*
X117750000Y-52050000D01*
X118950000Y-52050000D01*
X118950000Y-53250000D01*
G37*
G36*
X120600000Y-53250000D02*
G01*
X119400000Y-53250000D01*
X119400000Y-52050000D01*
X120600000Y-52050000D01*
X120600000Y-53250000D01*
G37*
G36*
X122250000Y-53250000D02*
G01*
X121050000Y-53250000D01*
X121050000Y-52050000D01*
X122250000Y-52050000D01*
X122250000Y-53250000D01*
G37*
G36*
X113400000Y-52900000D02*
G01*
X112600000Y-52900000D01*
X112600000Y-52500000D01*
X113400000Y-52500000D01*
X113400000Y-52900000D01*
G37*
G36*
X127400000Y-52900000D02*
G01*
X126600000Y-52900000D01*
X126600000Y-52500000D01*
X127400000Y-52500000D01*
X127400000Y-52900000D01*
G37*
G36*
X109786104Y-51617127D02*
G01*
X109859099Y-51665901D01*
X109907873Y-51738896D01*
X109925000Y-51825000D01*
X109925000Y-52275000D01*
X109907873Y-52361104D01*
X109859099Y-52434099D01*
X109786104Y-52482873D01*
X109700000Y-52500000D01*
X109200000Y-52500000D01*
X109113896Y-52482873D01*
X109040901Y-52434099D01*
X108992127Y-52361104D01*
X108975000Y-52275000D01*
X108975000Y-51825000D01*
X108992127Y-51738896D01*
X109040901Y-51665901D01*
X109113896Y-51617127D01*
X109200000Y-51600000D01*
X109700000Y-51600000D01*
X109786104Y-51617127D01*
G37*
G36*
X105786104Y-51567127D02*
G01*
X105859099Y-51615901D01*
X105907873Y-51688896D01*
X105925000Y-51775000D01*
X105925000Y-52225000D01*
X105907873Y-52311104D01*
X105859099Y-52384099D01*
X105786104Y-52432873D01*
X105700000Y-52450000D01*
X105200000Y-52450000D01*
X105113896Y-52432873D01*
X105040901Y-52384099D01*
X104992127Y-52311104D01*
X104975000Y-52225000D01*
X104975000Y-51775000D01*
X104992127Y-51688896D01*
X105040901Y-51615901D01*
X105113896Y-51567127D01*
X105200000Y-51550000D01*
X105700000Y-51550000D01*
X105786104Y-51567127D01*
G37*
G36*
X113400000Y-52050000D02*
G01*
X112600000Y-52050000D01*
X112600000Y-51650000D01*
X113400000Y-51650000D01*
X113400000Y-52050000D01*
G37*
G36*
X127400000Y-52050000D02*
G01*
X126600000Y-52050000D01*
X126600000Y-51650000D01*
X127400000Y-51650000D01*
X127400000Y-52050000D01*
G37*
G36*
X131250000Y-51625000D02*
G01*
X130750000Y-51625000D01*
X130750000Y-51375000D01*
X131250000Y-51375000D01*
X131250000Y-51625000D01*
G37*
G36*
X133150000Y-51625000D02*
G01*
X132650000Y-51625000D01*
X132650000Y-51375000D01*
X133150000Y-51375000D01*
X133150000Y-51625000D01*
G37*
G36*
X118950000Y-51600000D02*
G01*
X117750000Y-51600000D01*
X117750000Y-50400000D01*
X118950000Y-50400000D01*
X118950000Y-51600000D01*
G37*
G36*
X120600000Y-51600000D02*
G01*
X119400000Y-51600000D01*
X119400000Y-50400000D01*
X120600000Y-50400000D01*
X120600000Y-51600000D01*
G37*
G36*
X122250000Y-51600000D02*
G01*
X121050000Y-51600000D01*
X121050000Y-50400000D01*
X122250000Y-50400000D01*
X122250000Y-51600000D01*
G37*
G36*
X132400000Y-51250000D02*
G01*
X131500000Y-51250000D01*
X131500000Y-49250000D01*
X132400000Y-49250000D01*
X132400000Y-51250000D01*
G37*
G36*
X113400000Y-51200000D02*
G01*
X112600000Y-51200000D01*
X112600000Y-50800000D01*
X113400000Y-50800000D01*
X113400000Y-51200000D01*
G37*
G36*
X127400000Y-51200000D02*
G01*
X126600000Y-51200000D01*
X126600000Y-50800000D01*
X127400000Y-50800000D01*
X127400000Y-51200000D01*
G37*
G36*
X131250000Y-51125000D02*
G01*
X130750000Y-51125000D01*
X130750000Y-50875000D01*
X131250000Y-50875000D01*
X131250000Y-51125000D01*
G37*
G36*
X133150000Y-51125000D02*
G01*
X132650000Y-51125000D01*
X132650000Y-50875000D01*
X133150000Y-50875000D01*
X133150000Y-51125000D01*
G37*
G36*
X109786104Y-50067127D02*
G01*
X109859099Y-50115901D01*
X109907873Y-50188896D01*
X109925000Y-50275000D01*
X109925000Y-50725000D01*
X109907873Y-50811104D01*
X109859099Y-50884099D01*
X109786104Y-50932873D01*
X109700000Y-50950000D01*
X109200000Y-50950000D01*
X109113896Y-50932873D01*
X109040901Y-50884099D01*
X108992127Y-50811104D01*
X108975000Y-50725000D01*
X108975000Y-50275000D01*
X108992127Y-50188896D01*
X109040901Y-50115901D01*
X109113896Y-50067127D01*
X109200000Y-50050000D01*
X109700000Y-50050000D01*
X109786104Y-50067127D01*
G37*
G36*
X105786104Y-50017127D02*
G01*
X105859099Y-50065901D01*
X105907873Y-50138896D01*
X105925000Y-50225000D01*
X105925000Y-50675000D01*
X105907873Y-50761104D01*
X105859099Y-50834099D01*
X105786104Y-50882873D01*
X105700000Y-50900000D01*
X105200000Y-50900000D01*
X105113896Y-50882873D01*
X105040901Y-50834099D01*
X104992127Y-50761104D01*
X104975000Y-50675000D01*
X104975000Y-50225000D01*
X104992127Y-50138896D01*
X105040901Y-50065901D01*
X105113896Y-50017127D01*
X105200000Y-50000000D01*
X105700000Y-50000000D01*
X105786104Y-50017127D01*
G37*
G36*
X131250000Y-50625000D02*
G01*
X130750000Y-50625000D01*
X130750000Y-50375000D01*
X131250000Y-50375000D01*
X131250000Y-50625000D01*
G37*
G36*
X133150000Y-50625000D02*
G01*
X132650000Y-50625000D01*
X132650000Y-50375000D01*
X133150000Y-50375000D01*
X133150000Y-50625000D01*
G37*
G36*
X141995090Y-48519215D02*
G01*
X142182683Y-48576120D01*
X142355570Y-48668530D01*
X142507107Y-48792893D01*
X142631470Y-48944430D01*
X142723880Y-49117317D01*
X142780785Y-49304910D01*
X142800000Y-49500000D01*
X142780785Y-49695090D01*
X142723880Y-49882683D01*
X142631470Y-50055570D01*
X142507107Y-50207107D01*
X142355570Y-50331470D01*
X142182683Y-50423880D01*
X141995090Y-50480785D01*
X141800000Y-50500000D01*
X141604910Y-50480785D01*
X141417317Y-50423880D01*
X141244430Y-50331470D01*
X141092893Y-50207107D01*
X140968530Y-50055570D01*
X140876120Y-49882683D01*
X140819215Y-49695090D01*
X140800000Y-49500000D01*
X140819215Y-49304910D01*
X140876120Y-49117317D01*
X140968530Y-48944430D01*
X141092893Y-48792893D01*
X141244430Y-48668530D01*
X141417317Y-48576120D01*
X141604910Y-48519215D01*
X141800000Y-48500000D01*
X141995090Y-48519215D01*
G37*
G36*
X113400000Y-50350000D02*
G01*
X112600000Y-50350000D01*
X112600000Y-49950000D01*
X113400000Y-49950000D01*
X113400000Y-50350000D01*
G37*
G36*
X127400000Y-50350000D02*
G01*
X126600000Y-50350000D01*
X126600000Y-49950000D01*
X127400000Y-49950000D01*
X127400000Y-50350000D01*
G37*
G36*
X131250000Y-50125000D02*
G01*
X130750000Y-50125000D01*
X130750000Y-49875000D01*
X131250000Y-49875000D01*
X131250000Y-50125000D01*
G37*
G36*
X133150000Y-50125000D02*
G01*
X132650000Y-50125000D01*
X132650000Y-49875000D01*
X133150000Y-49875000D01*
X133150000Y-50125000D01*
G37*
G36*
X118950000Y-49950000D02*
G01*
X117750000Y-49950000D01*
X117750000Y-48750000D01*
X118950000Y-48750000D01*
X118950000Y-49950000D01*
G37*
G36*
X120600000Y-49950000D02*
G01*
X119400000Y-49950000D01*
X119400000Y-48750000D01*
X120600000Y-48750000D01*
X120600000Y-49950000D01*
G37*
G36*
X122250000Y-49950000D02*
G01*
X121050000Y-49950000D01*
X121050000Y-48750000D01*
X122250000Y-48750000D01*
X122250000Y-49950000D01*
G37*
G36*
X131250000Y-49625000D02*
G01*
X130750000Y-49625000D01*
X130750000Y-49375000D01*
X131250000Y-49375000D01*
X131250000Y-49625000D01*
G37*
G36*
X133150000Y-49625000D02*
G01*
X132650000Y-49625000D01*
X132650000Y-49375000D01*
X133150000Y-49375000D01*
X133150000Y-49625000D01*
G37*
G36*
X100695090Y-47519215D02*
G01*
X100882683Y-47576120D01*
X101055570Y-47668530D01*
X101207107Y-47792893D01*
X101331470Y-47944430D01*
X101423880Y-48117317D01*
X101480785Y-48304910D01*
X101500000Y-48500000D01*
X101480785Y-48695090D01*
X101423880Y-48882683D01*
X101331470Y-49055570D01*
X101207107Y-49207107D01*
X101055570Y-49331470D01*
X100882683Y-49423880D01*
X100695090Y-49480785D01*
X100500000Y-49500000D01*
X100304910Y-49480785D01*
X100117317Y-49423880D01*
X99944430Y-49331470D01*
X99792893Y-49207107D01*
X99668530Y-49055570D01*
X99576120Y-48882683D01*
X99519215Y-48695090D01*
X99500000Y-48500000D01*
X99519215Y-48304910D01*
X99576120Y-48117317D01*
X99668530Y-47944430D01*
X99792893Y-47792893D01*
X99944430Y-47668530D01*
X100117317Y-47576120D01*
X100304910Y-47519215D01*
X100500000Y-47500000D01*
X100695090Y-47519215D01*
G37*
G36*
X113400000Y-49500000D02*
G01*
X112600000Y-49500000D01*
X112600000Y-49100000D01*
X113400000Y-49100000D01*
X113400000Y-49500000D01*
G37*
G36*
X127400000Y-49500000D02*
G01*
X126600000Y-49500000D01*
X126600000Y-49100000D01*
X127400000Y-49100000D01*
X127400000Y-49500000D01*
G37*
G36*
X104766891Y-47668804D02*
G01*
X104925413Y-47724273D01*
X105067617Y-47813626D01*
X105186374Y-47932383D01*
X105275727Y-48074587D01*
X105331196Y-48233109D01*
X105350000Y-48400000D01*
X105331196Y-48566891D01*
X105275727Y-48725413D01*
X105186374Y-48867617D01*
X105067617Y-48986374D01*
X104925413Y-49075727D01*
X104766891Y-49131196D01*
X104600000Y-49150000D01*
X104433109Y-49131196D01*
X104274587Y-49075727D01*
X104132383Y-48986374D01*
X104013626Y-48867617D01*
X103924273Y-48725413D01*
X103868804Y-48566891D01*
X103850000Y-48400000D01*
X103868804Y-48233109D01*
X103924273Y-48074587D01*
X104013626Y-47932383D01*
X104132383Y-47813626D01*
X104274587Y-47724273D01*
X104433109Y-47668804D01*
X104600000Y-47650000D01*
X104766891Y-47668804D01*
G37*
G36*
X109266891Y-47668804D02*
G01*
X109425413Y-47724273D01*
X109567617Y-47813626D01*
X109686374Y-47932383D01*
X109775727Y-48074587D01*
X109831196Y-48233109D01*
X109850000Y-48400000D01*
X109831196Y-48566891D01*
X109775727Y-48725413D01*
X109686374Y-48867617D01*
X109567617Y-48986374D01*
X109425413Y-49075727D01*
X109266891Y-49131196D01*
X109100000Y-49150000D01*
X108933109Y-49131196D01*
X108774587Y-49075727D01*
X108632383Y-48986374D01*
X108513626Y-48867617D01*
X108424273Y-48725413D01*
X108368804Y-48566891D01*
X108350000Y-48400000D01*
X108368804Y-48233109D01*
X108424273Y-48074587D01*
X108513626Y-47932383D01*
X108632383Y-47813626D01*
X108774587Y-47724273D01*
X108933109Y-47668804D01*
X109100000Y-47650000D01*
X109266891Y-47668804D01*
G37*
G36*
X131250000Y-49125000D02*
G01*
X130750000Y-49125000D01*
X130750000Y-48875000D01*
X131250000Y-48875000D01*
X131250000Y-49125000D01*
G37*
G36*
X133150000Y-49125000D02*
G01*
X132650000Y-49125000D01*
X132650000Y-48875000D01*
X133150000Y-48875000D01*
X133150000Y-49125000D01*
G37*
G36*
X113400000Y-48650000D02*
G01*
X112600000Y-48650000D01*
X112600000Y-48250000D01*
X113400000Y-48250000D01*
X113400000Y-48650000D01*
G37*
G36*
X127400000Y-48650000D02*
G01*
X126600000Y-48650000D01*
X126600000Y-48250000D01*
X127400000Y-48250000D01*
X127400000Y-48650000D01*
G37*
G36*
X113400000Y-47800000D02*
G01*
X112600000Y-47800000D01*
X112600000Y-47400000D01*
X113400000Y-47400000D01*
X113400000Y-47800000D01*
G37*
G36*
X127400000Y-47800000D02*
G01*
X126600000Y-47800000D01*
X126600000Y-47400000D01*
X127400000Y-47400000D01*
X127400000Y-47800000D01*
G37*
G36*
X141995090Y-45519215D02*
G01*
X142182683Y-45576120D01*
X142355570Y-45668530D01*
X142507107Y-45792893D01*
X142631470Y-45944430D01*
X142723880Y-46117317D01*
X142780785Y-46304910D01*
X142800000Y-46500000D01*
X142780785Y-46695090D01*
X142723880Y-46882683D01*
X142631470Y-47055570D01*
X142507107Y-47207107D01*
X142355570Y-47331470D01*
X142182683Y-47423880D01*
X141995090Y-47480785D01*
X141800000Y-47500000D01*
X141604910Y-47480785D01*
X141417317Y-47423880D01*
X141244430Y-47331470D01*
X141092893Y-47207107D01*
X140968530Y-47055570D01*
X140876120Y-46882683D01*
X140819215Y-46695090D01*
X140800000Y-46500000D01*
X140819215Y-46304910D01*
X140876120Y-46117317D01*
X140968530Y-45944430D01*
X141092893Y-45792893D01*
X141244430Y-45668530D01*
X141417317Y-45576120D01*
X141604910Y-45519215D01*
X141800000Y-45500000D01*
X141995090Y-45519215D01*
G37*
G36*
X113400000Y-46950000D02*
G01*
X112600000Y-46950000D01*
X112600000Y-46550000D01*
X113400000Y-46550000D01*
X113400000Y-46950000D01*
G37*
G36*
X127400000Y-46950000D02*
G01*
X126600000Y-46950000D01*
X126600000Y-46550000D01*
X127400000Y-46550000D01*
X127400000Y-46950000D01*
G37*
G36*
X130416891Y-45418804D02*
G01*
X130575413Y-45474273D01*
X130717617Y-45563626D01*
X130836374Y-45682383D01*
X130925727Y-45824587D01*
X130981196Y-45983109D01*
X131000000Y-46150000D01*
X130981196Y-46316891D01*
X130925727Y-46475413D01*
X130836374Y-46617617D01*
X130717617Y-46736374D01*
X130575413Y-46825727D01*
X130416891Y-46881196D01*
X130250000Y-46900000D01*
X130083109Y-46881196D01*
X129924587Y-46825727D01*
X129782383Y-46736374D01*
X129663626Y-46617617D01*
X129574273Y-46475413D01*
X129518804Y-46316891D01*
X129500000Y-46150000D01*
X129518804Y-45983109D01*
X129574273Y-45824587D01*
X129663626Y-45682383D01*
X129782383Y-45563626D01*
X129924587Y-45474273D01*
X130083109Y-45418804D01*
X130250000Y-45400000D01*
X130416891Y-45418804D01*
G37*
G36*
X134916891Y-45418804D02*
G01*
X135075413Y-45474273D01*
X135217617Y-45563626D01*
X135336374Y-45682383D01*
X135425727Y-45824587D01*
X135481196Y-45983109D01*
X135500000Y-46150000D01*
X135481196Y-46316891D01*
X135425727Y-46475413D01*
X135336374Y-46617617D01*
X135217617Y-46736374D01*
X135075413Y-46825727D01*
X134916891Y-46881196D01*
X134750000Y-46900000D01*
X134583109Y-46881196D01*
X134424587Y-46825727D01*
X134282383Y-46736374D01*
X134163626Y-46617617D01*
X134074273Y-46475413D01*
X134018804Y-46316891D01*
X134000000Y-46150000D01*
X134018804Y-45983109D01*
X134074273Y-45824587D01*
X134163626Y-45682383D01*
X134282383Y-45563626D01*
X134424587Y-45474273D01*
X134583109Y-45418804D01*
X134750000Y-45400000D01*
X134916891Y-45418804D01*
G37*
G36*
X100695090Y-44519215D02*
G01*
X100882683Y-44576120D01*
X101055570Y-44668530D01*
X101207107Y-44792893D01*
X101331470Y-44944430D01*
X101423880Y-45117317D01*
X101480785Y-45304910D01*
X101500000Y-45500000D01*
X101480785Y-45695090D01*
X101423880Y-45882683D01*
X101331470Y-46055570D01*
X101207107Y-46207107D01*
X101055570Y-46331470D01*
X100882683Y-46423880D01*
X100695090Y-46480785D01*
X100500000Y-46500000D01*
X100304910Y-46480785D01*
X100117317Y-46423880D01*
X99944430Y-46331470D01*
X99792893Y-46207107D01*
X99668530Y-46055570D01*
X99576120Y-45882683D01*
X99519215Y-45695090D01*
X99500000Y-45500000D01*
X99519215Y-45304910D01*
X99576120Y-45117317D01*
X99668530Y-44944430D01*
X99792893Y-44792893D01*
X99944430Y-44668530D01*
X100117317Y-44576120D01*
X100304910Y-44519215D01*
X100500000Y-44500000D01*
X100695090Y-44519215D01*
G37*
G36*
X113400000Y-46100000D02*
G01*
X112600000Y-46100000D01*
X112600000Y-45700000D01*
X113400000Y-45700000D01*
X113400000Y-46100000D01*
G37*
G36*
X127400000Y-46100000D02*
G01*
X126600000Y-46100000D01*
X126600000Y-45700000D01*
X127400000Y-45700000D01*
X127400000Y-46100000D01*
G37*
G36*
X113400000Y-45250000D02*
G01*
X112600000Y-45250000D01*
X112600000Y-44850000D01*
X113400000Y-44850000D01*
X113400000Y-45250000D01*
G37*
G36*
X127400000Y-45250000D02*
G01*
X126600000Y-45250000D01*
X126600000Y-44850000D01*
X127400000Y-44850000D01*
X127400000Y-45250000D01*
G37*
G36*
X141995090Y-42519215D02*
G01*
X142182683Y-42576120D01*
X142355570Y-42668530D01*
X142507107Y-42792893D01*
X142631470Y-42944430D01*
X142723880Y-43117317D01*
X142780785Y-43304910D01*
X142800000Y-43500000D01*
X142780785Y-43695090D01*
X142723880Y-43882683D01*
X142631470Y-44055570D01*
X142507107Y-44207107D01*
X142355570Y-44331470D01*
X142182683Y-44423880D01*
X141995090Y-44480785D01*
X141800000Y-44500000D01*
X141604910Y-44480785D01*
X141417317Y-44423880D01*
X141244430Y-44331470D01*
X141092893Y-44207107D01*
X140968530Y-44055570D01*
X140876120Y-43882683D01*
X140819215Y-43695090D01*
X140800000Y-43500000D01*
X140819215Y-43304910D01*
X140876120Y-43117317D01*
X140968530Y-42944430D01*
X141092893Y-42792893D01*
X141244430Y-42668530D01*
X141417317Y-42576120D01*
X141604910Y-42519215D01*
X141800000Y-42500000D01*
X141995090Y-42519215D01*
G37*
G36*
X113400000Y-44400000D02*
G01*
X112600000Y-44400000D01*
X112600000Y-43600000D01*
X113400000Y-43600000D01*
X113400000Y-44400000D01*
G37*
G36*
X114250000Y-44400000D02*
G01*
X113850000Y-44400000D01*
X113850000Y-43600000D01*
X114250000Y-43600000D01*
X114250000Y-44400000D01*
G37*
G36*
X115100000Y-44400000D02*
G01*
X114700000Y-44400000D01*
X114700000Y-43600000D01*
X115100000Y-43600000D01*
X115100000Y-44400000D01*
G37*
G36*
X115950000Y-44400000D02*
G01*
X115550000Y-44400000D01*
X115550000Y-43600000D01*
X115950000Y-43600000D01*
X115950000Y-44400000D01*
G37*
G36*
X116800000Y-44400000D02*
G01*
X116400000Y-44400000D01*
X116400000Y-43600000D01*
X116800000Y-43600000D01*
X116800000Y-44400000D01*
G37*
G36*
X117650000Y-44400000D02*
G01*
X117250000Y-44400000D01*
X117250000Y-43600000D01*
X117650000Y-43600000D01*
X117650000Y-44400000D01*
G37*
G36*
X118500000Y-44400000D02*
G01*
X118100000Y-44400000D01*
X118100000Y-43600000D01*
X118500000Y-43600000D01*
X118500000Y-44400000D01*
G37*
G36*
X119350000Y-44400000D02*
G01*
X118950000Y-44400000D01*
X118950000Y-43600000D01*
X119350000Y-43600000D01*
X119350000Y-44400000D01*
G37*
G36*
X120200000Y-44400000D02*
G01*
X119800000Y-44400000D01*
X119800000Y-43600000D01*
X120200000Y-43600000D01*
X120200000Y-44400000D01*
G37*
G36*
X121050000Y-44400000D02*
G01*
X120650000Y-44400000D01*
X120650000Y-43600000D01*
X121050000Y-43600000D01*
X121050000Y-44400000D01*
G37*
G36*
X121900000Y-44400000D02*
G01*
X121500000Y-44400000D01*
X121500000Y-43600000D01*
X121900000Y-43600000D01*
X121900000Y-44400000D01*
G37*
G36*
X122750000Y-44400000D02*
G01*
X122350000Y-44400000D01*
X122350000Y-43600000D01*
X122750000Y-43600000D01*
X122750000Y-44400000D01*
G37*
G36*
X123600000Y-44400000D02*
G01*
X123200000Y-44400000D01*
X123200000Y-43600000D01*
X123600000Y-43600000D01*
X123600000Y-44400000D01*
G37*
G36*
X124450000Y-44400000D02*
G01*
X124050000Y-44400000D01*
X124050000Y-43600000D01*
X124450000Y-43600000D01*
X124450000Y-44400000D01*
G37*
G36*
X125300000Y-44400000D02*
G01*
X124900000Y-44400000D01*
X124900000Y-43600000D01*
X125300000Y-43600000D01*
X125300000Y-44400000D01*
G37*
G36*
X126150000Y-44400000D02*
G01*
X125750000Y-44400000D01*
X125750000Y-43600000D01*
X126150000Y-43600000D01*
X126150000Y-44400000D01*
G37*
G36*
X127400000Y-44400000D02*
G01*
X126600000Y-44400000D01*
X126600000Y-43600000D01*
X127400000Y-43600000D01*
X127400000Y-44400000D01*
G37*
G36*
X100695090Y-41519215D02*
G01*
X100882683Y-41576120D01*
X101055570Y-41668530D01*
X101207107Y-41792893D01*
X101331470Y-41944430D01*
X101423880Y-42117317D01*
X101480785Y-42304910D01*
X101500000Y-42500000D01*
X101480785Y-42695090D01*
X101423880Y-42882683D01*
X101331470Y-43055570D01*
X101207107Y-43207107D01*
X101055570Y-43331470D01*
X100882683Y-43423880D01*
X100695090Y-43480785D01*
X100500000Y-43500000D01*
X100304910Y-43480785D01*
X100117317Y-43423880D01*
X99944430Y-43331470D01*
X99792893Y-43207107D01*
X99668530Y-43055570D01*
X99576120Y-42882683D01*
X99519215Y-42695090D01*
X99500000Y-42500000D01*
X99519215Y-42304910D01*
X99576120Y-42117317D01*
X99668530Y-41944430D01*
X99792893Y-41792893D01*
X99944430Y-41668530D01*
X100117317Y-41576120D01*
X100304910Y-41519215D01*
X100500000Y-41500000D01*
X100695090Y-41519215D01*
G37*
G36*
X104766891Y-41168804D02*
G01*
X104925413Y-41224273D01*
X105067617Y-41313626D01*
X105186374Y-41432383D01*
X105275727Y-41574587D01*
X105331196Y-41733109D01*
X105350000Y-41900000D01*
X105331196Y-42066891D01*
X105275727Y-42225413D01*
X105186374Y-42367617D01*
X105067617Y-42486374D01*
X104925413Y-42575727D01*
X104766891Y-42631196D01*
X104600000Y-42650000D01*
X104433109Y-42631196D01*
X104274587Y-42575727D01*
X104132383Y-42486374D01*
X104013626Y-42367617D01*
X103924273Y-42225413D01*
X103868804Y-42066891D01*
X103850000Y-41900000D01*
X103868804Y-41733109D01*
X103924273Y-41574587D01*
X104013626Y-41432383D01*
X104132383Y-41313626D01*
X104274587Y-41224273D01*
X104433109Y-41168804D01*
X104600000Y-41150000D01*
X104766891Y-41168804D01*
G37*
G36*
X109266891Y-41168804D02*
G01*
X109425413Y-41224273D01*
X109567617Y-41313626D01*
X109686374Y-41432383D01*
X109775727Y-41574587D01*
X109831196Y-41733109D01*
X109850000Y-41900000D01*
X109831196Y-42066891D01*
X109775727Y-42225413D01*
X109686374Y-42367617D01*
X109567617Y-42486374D01*
X109425413Y-42575727D01*
X109266891Y-42631196D01*
X109100000Y-42650000D01*
X108933109Y-42631196D01*
X108774587Y-42575727D01*
X108632383Y-42486374D01*
X108513626Y-42367617D01*
X108424273Y-42225413D01*
X108368804Y-42066891D01*
X108350000Y-41900000D01*
X108368804Y-41733109D01*
X108424273Y-41574587D01*
X108513626Y-41432383D01*
X108632383Y-41313626D01*
X108774587Y-41224273D01*
X108933109Y-41168804D01*
X109100000Y-41150000D01*
X109266891Y-41168804D01*
G37*
G36*
X100695090Y-38519215D02*
G01*
X100882683Y-38576120D01*
X101055570Y-38668530D01*
X101207107Y-38792893D01*
X101331470Y-38944430D01*
X101423880Y-39117317D01*
X101480785Y-39304910D01*
X101500000Y-39500000D01*
X101480785Y-39695090D01*
X101423880Y-39882683D01*
X101331470Y-40055570D01*
X101207107Y-40207107D01*
X101055570Y-40331470D01*
X100882683Y-40423880D01*
X100695090Y-40480785D01*
X100500000Y-40500000D01*
X100304910Y-40480785D01*
X100117317Y-40423880D01*
X99944430Y-40331470D01*
X99792893Y-40207107D01*
X99668530Y-40055570D01*
X99576120Y-39882683D01*
X99519215Y-39695090D01*
X99500000Y-39500000D01*
X99519215Y-39304910D01*
X99576120Y-39117317D01*
X99668530Y-38944430D01*
X99792893Y-38792893D01*
X99944430Y-38668530D01*
X100117317Y-38576120D01*
X100304910Y-38519215D01*
X100500000Y-38500000D01*
X100695090Y-38519215D01*
G37*
G36*
X130416891Y-38918804D02*
G01*
X130575413Y-38974273D01*
X130717617Y-39063626D01*
X130836374Y-39182383D01*
X130925727Y-39324587D01*
X130981196Y-39483109D01*
X131000000Y-39650000D01*
X130981196Y-39816891D01*
X130925727Y-39975413D01*
X130836374Y-40117617D01*
X130717617Y-40236374D01*
X130575413Y-40325727D01*
X130416891Y-40381196D01*
X130250000Y-40400000D01*
X130083109Y-40381196D01*
X129924587Y-40325727D01*
X129782383Y-40236374D01*
X129663626Y-40117617D01*
X129574273Y-39975413D01*
X129518804Y-39816891D01*
X129500000Y-39650000D01*
X129518804Y-39483109D01*
X129574273Y-39324587D01*
X129663626Y-39182383D01*
X129782383Y-39063626D01*
X129924587Y-38974273D01*
X130083109Y-38918804D01*
X130250000Y-38900000D01*
X130416891Y-38918804D01*
G37*
G36*
X134916891Y-38918804D02*
G01*
X135075413Y-38974273D01*
X135217617Y-39063626D01*
X135336374Y-39182383D01*
X135425727Y-39324587D01*
X135481196Y-39483109D01*
X135500000Y-39650000D01*
X135481196Y-39816891D01*
X135425727Y-39975413D01*
X135336374Y-40117617D01*
X135217617Y-40236374D01*
X135075413Y-40325727D01*
X134916891Y-40381196D01*
X134750000Y-40400000D01*
X134583109Y-40381196D01*
X134424587Y-40325727D01*
X134282383Y-40236374D01*
X134163626Y-40117617D01*
X134074273Y-39975413D01*
X134018804Y-39816891D01*
X134000000Y-39650000D01*
X134018804Y-39483109D01*
X134074273Y-39324587D01*
X134163626Y-39182383D01*
X134282383Y-39063626D01*
X134424587Y-38974273D01*
X134583109Y-38918804D01*
X134750000Y-38900000D01*
X134916891Y-38918804D01*
G37*
G36*
X133761104Y-37042127D02*
G01*
X133834099Y-37090901D01*
X133882873Y-37163896D01*
X133900000Y-37250000D01*
X133900000Y-37750000D01*
X133882873Y-37836104D01*
X133834099Y-37909099D01*
X133761104Y-37957873D01*
X133675000Y-37975000D01*
X133225000Y-37975000D01*
X133138896Y-37957873D01*
X133065901Y-37909099D01*
X133017127Y-37836104D01*
X133000000Y-37750000D01*
X133000000Y-37250000D01*
X133017127Y-37163896D01*
X133065901Y-37090901D01*
X133138896Y-37042127D01*
X133225000Y-37025000D01*
X133675000Y-37025000D01*
X133761104Y-37042127D01*
G37*
G36*
X135311104Y-37042127D02*
G01*
X135384099Y-37090901D01*
X135432873Y-37163896D01*
X135450000Y-37250000D01*
X135450000Y-37750000D01*
X135432873Y-37836104D01*
X135384099Y-37909099D01*
X135311104Y-37957873D01*
X135225000Y-37975000D01*
X134775000Y-37975000D01*
X134688896Y-37957873D01*
X134615901Y-37909099D01*
X134567127Y-37836104D01*
X134550000Y-37750000D01*
X134550000Y-37250000D01*
X134567127Y-37163896D01*
X134615901Y-37090901D01*
X134688896Y-37042127D01*
X134775000Y-37025000D01*
X135225000Y-37025000D01*
X135311104Y-37042127D01*
G37*
G36*
X131176662Y-37190276D02*
G01*
X131220459Y-37219541D01*
X131249724Y-37263338D01*
X131260000Y-37315000D01*
X131260000Y-37685000D01*
X131249724Y-37736662D01*
X131220459Y-37780459D01*
X131176662Y-37809724D01*
X131125000Y-37820000D01*
X130855000Y-37820000D01*
X130803338Y-37809724D01*
X130759541Y-37780459D01*
X130730276Y-37736662D01*
X130720000Y-37685000D01*
X130720000Y-37315000D01*
X130730276Y-37263338D01*
X130759541Y-37219541D01*
X130803338Y-37190276D01*
X130855000Y-37180000D01*
X131125000Y-37180000D01*
X131176662Y-37190276D01*
G37*
G36*
X132196662Y-37190276D02*
G01*
X132240459Y-37219541D01*
X132269724Y-37263338D01*
X132280000Y-37315000D01*
X132280000Y-37685000D01*
X132269724Y-37736662D01*
X132240459Y-37780459D01*
X132196662Y-37809724D01*
X132145000Y-37820000D01*
X131875000Y-37820000D01*
X131823338Y-37809724D01*
X131779541Y-37780459D01*
X131750276Y-37736662D01*
X131740000Y-37685000D01*
X131740000Y-37315000D01*
X131750276Y-37263338D01*
X131779541Y-37219541D01*
X131823338Y-37190276D01*
X131875000Y-37180000D01*
X132145000Y-37180000D01*
X132196662Y-37190276D01*
G37*
G36*
X100595090Y-32519215D02*
G01*
X100782683Y-32576120D01*
X100955570Y-32668530D01*
X101107107Y-32792893D01*
X101231470Y-32944430D01*
X101323880Y-33117317D01*
X101380785Y-33304910D01*
X101400000Y-33500000D01*
X101380785Y-33695090D01*
X101323880Y-33882683D01*
X101231470Y-34055570D01*
X101107107Y-34207107D01*
X100955570Y-34331470D01*
X100782683Y-34423880D01*
X100595090Y-34480785D01*
X100400000Y-34500000D01*
X100204910Y-34480785D01*
X100017317Y-34423880D01*
X99844430Y-34331470D01*
X99692893Y-34207107D01*
X99568530Y-34055570D01*
X99476120Y-33882683D01*
X99419215Y-33695090D01*
X99400000Y-33500000D01*
X99419215Y-33304910D01*
X99476120Y-33117317D01*
X99568530Y-32944430D01*
X99692893Y-32792893D01*
X99844430Y-32668530D01*
X100017317Y-32576120D01*
X100204910Y-32519215D01*
X100400000Y-32500000D01*
X100595090Y-32519215D01*
G37*
G36*
X103595090Y-32519215D02*
G01*
X103782683Y-32576120D01*
X103955570Y-32668530D01*
X104107107Y-32792893D01*
X104231470Y-32944430D01*
X104323880Y-33117317D01*
X104380785Y-33304910D01*
X104400000Y-33500000D01*
X104380785Y-33695090D01*
X104323880Y-33882683D01*
X104231470Y-34055570D01*
X104107107Y-34207107D01*
X103955570Y-34331470D01*
X103782683Y-34423880D01*
X103595090Y-34480785D01*
X103400000Y-34500000D01*
X103204910Y-34480785D01*
X103017317Y-34423880D01*
X102844430Y-34331470D01*
X102692893Y-34207107D01*
X102568530Y-34055570D01*
X102476120Y-33882683D01*
X102419215Y-33695090D01*
X102400000Y-33500000D01*
X102419215Y-33304910D01*
X102476120Y-33117317D01*
X102568530Y-32944430D01*
X102692893Y-32792893D01*
X102844430Y-32668530D01*
X103017317Y-32576120D01*
X103204910Y-32519215D01*
X103400000Y-32500000D01*
X103595090Y-32519215D01*
G37*
G36*
X106595090Y-32519215D02*
G01*
X106782683Y-32576120D01*
X106955570Y-32668530D01*
X107107107Y-32792893D01*
X107231470Y-32944430D01*
X107323880Y-33117317D01*
X107380785Y-33304910D01*
X107400000Y-33500000D01*
X107380785Y-33695090D01*
X107323880Y-33882683D01*
X107231470Y-34055570D01*
X107107107Y-34207107D01*
X106955570Y-34331470D01*
X106782683Y-34423880D01*
X106595090Y-34480785D01*
X106400000Y-34500000D01*
X106204910Y-34480785D01*
X106017317Y-34423880D01*
X105844430Y-34331470D01*
X105692893Y-34207107D01*
X105568530Y-34055570D01*
X105476120Y-33882683D01*
X105419215Y-33695090D01*
X105400000Y-33500000D01*
X105419215Y-33304910D01*
X105476120Y-33117317D01*
X105568530Y-32944430D01*
X105692893Y-32792893D01*
X105844430Y-32668530D01*
X106017317Y-32576120D01*
X106204910Y-32519215D01*
X106400000Y-32500000D01*
X106595090Y-32519215D01*
G37*
G36*
X109595090Y-32519215D02*
G01*
X109782683Y-32576120D01*
X109955570Y-32668530D01*
X110107107Y-32792893D01*
X110231470Y-32944430D01*
X110323880Y-33117317D01*
X110380785Y-33304910D01*
X110400000Y-33500000D01*
X110380785Y-33695090D01*
X110323880Y-33882683D01*
X110231470Y-34055570D01*
X110107107Y-34207107D01*
X109955570Y-34331470D01*
X109782683Y-34423880D01*
X109595090Y-34480785D01*
X109400000Y-34500000D01*
X109204910Y-34480785D01*
X109017317Y-34423880D01*
X108844430Y-34331470D01*
X108692893Y-34207107D01*
X108568530Y-34055570D01*
X108476120Y-33882683D01*
X108419215Y-33695090D01*
X108400000Y-33500000D01*
X108419215Y-33304910D01*
X108476120Y-33117317D01*
X108568530Y-32944430D01*
X108692893Y-32792893D01*
X108844430Y-32668530D01*
X109017317Y-32576120D01*
X109204910Y-32519215D01*
X109400000Y-32500000D01*
X109595090Y-32519215D01*
G37*
G36*
X116195090Y-32519215D02*
G01*
X116382683Y-32576120D01*
X116555570Y-32668530D01*
X116707107Y-32792893D01*
X116831470Y-32944430D01*
X116923880Y-33117317D01*
X116980785Y-33304910D01*
X117000000Y-33500000D01*
X116980785Y-33695090D01*
X116923880Y-33882683D01*
X116831470Y-34055570D01*
X116707107Y-34207107D01*
X116555570Y-34331470D01*
X116382683Y-34423880D01*
X116195090Y-34480785D01*
X116000000Y-34500000D01*
X115804910Y-34480785D01*
X115617317Y-34423880D01*
X115444430Y-34331470D01*
X115292893Y-34207107D01*
X115168530Y-34055570D01*
X115076120Y-33882683D01*
X115019215Y-33695090D01*
X115000000Y-33500000D01*
X115019215Y-33304910D01*
X115076120Y-33117317D01*
X115168530Y-32944430D01*
X115292893Y-32792893D01*
X115444430Y-32668530D01*
X115617317Y-32576120D01*
X115804910Y-32519215D01*
X116000000Y-32500000D01*
X116195090Y-32519215D01*
G37*
G36*
X119195090Y-32519215D02*
G01*
X119382683Y-32576120D01*
X119555570Y-32668530D01*
X119707107Y-32792893D01*
X119831470Y-32944430D01*
X119923880Y-33117317D01*
X119980785Y-33304910D01*
X120000000Y-33500000D01*
X119980785Y-33695090D01*
X119923880Y-33882683D01*
X119831470Y-34055570D01*
X119707107Y-34207107D01*
X119555570Y-34331470D01*
X119382683Y-34423880D01*
X119195090Y-34480785D01*
X119000000Y-34500000D01*
X118804910Y-34480785D01*
X118617317Y-34423880D01*
X118444430Y-34331470D01*
X118292893Y-34207107D01*
X118168530Y-34055570D01*
X118076120Y-33882683D01*
X118019215Y-33695090D01*
X118000000Y-33500000D01*
X118019215Y-33304910D01*
X118076120Y-33117317D01*
X118168530Y-32944430D01*
X118292893Y-32792893D01*
X118444430Y-32668530D01*
X118617317Y-32576120D01*
X118804910Y-32519215D01*
X119000000Y-32500000D01*
X119195090Y-32519215D01*
G37*
G36*
X122195090Y-32519215D02*
G01*
X122382683Y-32576120D01*
X122555570Y-32668530D01*
X122707107Y-32792893D01*
X122831470Y-32944430D01*
X122923880Y-33117317D01*
X122980785Y-33304910D01*
X123000000Y-33500000D01*
X122980785Y-33695090D01*
X122923880Y-33882683D01*
X122831470Y-34055570D01*
X122707107Y-34207107D01*
X122555570Y-34331470D01*
X122382683Y-34423880D01*
X122195090Y-34480785D01*
X122000000Y-34500000D01*
X121804910Y-34480785D01*
X121617317Y-34423880D01*
X121444430Y-34331470D01*
X121292893Y-34207107D01*
X121168530Y-34055570D01*
X121076120Y-33882683D01*
X121019215Y-33695090D01*
X121000000Y-33500000D01*
X121019215Y-33304910D01*
X121076120Y-33117317D01*
X121168530Y-32944430D01*
X121292893Y-32792893D01*
X121444430Y-32668530D01*
X121617317Y-32576120D01*
X121804910Y-32519215D01*
X122000000Y-32500000D01*
X122195090Y-32519215D01*
G37*
G36*
X125195090Y-32519215D02*
G01*
X125382683Y-32576120D01*
X125555570Y-32668530D01*
X125707107Y-32792893D01*
X125831470Y-32944430D01*
X125923880Y-33117317D01*
X125980785Y-33304910D01*
X126000000Y-33500000D01*
X125980785Y-33695090D01*
X125923880Y-33882683D01*
X125831470Y-34055570D01*
X125707107Y-34207107D01*
X125555570Y-34331470D01*
X125382683Y-34423880D01*
X125195090Y-34480785D01*
X125000000Y-34500000D01*
X124804910Y-34480785D01*
X124617317Y-34423880D01*
X124444430Y-34331470D01*
X124292893Y-34207107D01*
X124168530Y-34055570D01*
X124076120Y-33882683D01*
X124019215Y-33695090D01*
X124000000Y-33500000D01*
X124019215Y-33304910D01*
X124076120Y-33117317D01*
X124168530Y-32944430D01*
X124292893Y-32792893D01*
X124444430Y-32668530D01*
X124617317Y-32576120D01*
X124804910Y-32519215D01*
X125000000Y-32500000D01*
X125195090Y-32519215D01*
G37*
M02*
