%TF.GenerationSoftware,KiCad,Pcbnew,8.0.6*%
%TF.CreationDate,2025-01-16T10:56:52-08:00*%
%TF.ProjectId,DeskCleanerRobot2,4465736b-436c-4656-916e-6572526f626f,rev?*%
%TF.SameCoordinates,Original*%
%TF.FileFunction,Copper,L1,Top*%
%TF.FilePolarity,Positive*%
%FSLAX46Y46*%
G04 Gerber Fmt 4.6, Leading zero omitted, Abs format (unit mm)*
G04 Created by KiCad (PCBNEW 8.0.6) date 2025-01-16 10:56:52*
%MOMM*%
%LPD*%
G01*
G04 APERTURE LIST*
G04 Aperture macros list*
%AMRoundRect*
0 Rectangle with rounded corners*
0 $1 Rounding radius*
0 $2 $3 $4 $5 $6 $7 $8 $9 X,Y pos of 4 corners*
0 Add a 4 corners polygon primitive as box body*
4,1,4,$2,$3,$4,$5,$6,$7,$8,$9,$2,$3,0*
0 Add four circle primitives for the rounded corners*
1,1,$1+$1,$2,$3*
1,1,$1+$1,$4,$5*
1,1,$1+$1,$6,$7*
1,1,$1+$1,$8,$9*
0 Add four rect primitives between the rounded corners*
20,1,$1+$1,$2,$3,$4,$5,0*
20,1,$1+$1,$4,$5,$6,$7,0*
20,1,$1+$1,$6,$7,$8,$9,0*
20,1,$1+$1,$8,$9,$2,$3,0*%
G04 Aperture macros list end*
%TA.AperFunction,ComponentPad*%
%ADD10C,2.000000*%
%TD*%
%TA.AperFunction,SMDPad,CuDef*%
%ADD11RoundRect,0.225000X0.250000X-0.225000X0.250000X0.225000X-0.250000X0.225000X-0.250000X-0.225000X0*%
%TD*%
%TA.AperFunction,SMDPad,CuDef*%
%ADD12RoundRect,0.135000X0.135000X0.185000X-0.135000X0.185000X-0.135000X-0.185000X0.135000X-0.185000X0*%
%TD*%
%TA.AperFunction,SMDPad,CuDef*%
%ADD13RoundRect,0.135000X-0.185000X0.135000X-0.185000X-0.135000X0.185000X-0.135000X0.185000X0.135000X0*%
%TD*%
%TA.AperFunction,SMDPad,CuDef*%
%ADD14R,1.475000X0.450000*%
%TD*%
%TA.AperFunction,SMDPad,CuDef*%
%ADD15RoundRect,0.225000X-0.250000X0.225000X-0.250000X-0.225000X0.250000X-0.225000X0.250000X0.225000X0*%
%TD*%
%TA.AperFunction,SMDPad,CuDef*%
%ADD16RoundRect,0.135000X0.185000X-0.135000X0.185000X0.135000X-0.185000X0.135000X-0.185000X-0.135000X0*%
%TD*%
%TA.AperFunction,SMDPad,CuDef*%
%ADD17O,0.240000X0.600000*%
%TD*%
%TA.AperFunction,SMDPad,CuDef*%
%ADD18R,2.850000X1.580000*%
%TD*%
%TA.AperFunction,SMDPad,CuDef*%
%ADD19R,0.775000X0.200000*%
%TD*%
%TA.AperFunction,SMDPad,CuDef*%
%ADD20R,0.700000X1.500000*%
%TD*%
%TA.AperFunction,SMDPad,CuDef*%
%ADD21R,1.000000X0.800000*%
%TD*%
%TA.AperFunction,SMDPad,CuDef*%
%ADD22R,0.600000X1.300000*%
%TD*%
%TA.AperFunction,SMDPad,CuDef*%
%ADD23R,0.950000X0.900000*%
%TD*%
%TA.AperFunction,SMDPad,CuDef*%
%ADD24RoundRect,0.225000X-0.225000X-0.250000X0.225000X-0.250000X0.225000X0.250000X-0.225000X0.250000X0*%
%TD*%
%TA.AperFunction,SMDPad,CuDef*%
%ADD25R,0.900000X0.950000*%
%TD*%
%TA.AperFunction,SMDPad,CuDef*%
%ADD26R,1.000000X1.000000*%
%TD*%
%TA.AperFunction,SMDPad,CuDef*%
%ADD27R,0.500000X0.250000*%
%TD*%
%TA.AperFunction,SMDPad,CuDef*%
%ADD28R,0.900000X2.000000*%
%TD*%
%TA.AperFunction,ComponentPad*%
%ADD29C,1.500000*%
%TD*%
%TA.AperFunction,SMDPad,CuDef*%
%ADD30R,0.400000X1.400000*%
%TD*%
%TA.AperFunction,ComponentPad*%
%ADD31C,1.995000*%
%TD*%
%TA.AperFunction,SMDPad,CuDef*%
%ADD32RoundRect,0.200000X0.200000X0.275000X-0.200000X0.275000X-0.200000X-0.275000X0.200000X-0.275000X0*%
%TD*%
%TA.AperFunction,SMDPad,CuDef*%
%ADD33R,3.400000X0.980000*%
%TD*%
%TA.AperFunction,SMDPad,CuDef*%
%ADD34R,1.600000X3.200000*%
%TD*%
%TA.AperFunction,SMDPad,CuDef*%
%ADD35RoundRect,0.200000X0.275000X-0.200000X0.275000X0.200000X-0.275000X0.200000X-0.275000X-0.200000X0*%
%TD*%
%TA.AperFunction,SMDPad,CuDef*%
%ADD36R,0.800000X0.400000*%
%TD*%
%TA.AperFunction,SMDPad,CuDef*%
%ADD37R,0.400000X0.800000*%
%TD*%
%TA.AperFunction,SMDPad,CuDef*%
%ADD38R,1.200000X1.200000*%
%TD*%
%TA.AperFunction,SMDPad,CuDef*%
%ADD39R,0.800000X0.800000*%
%TD*%
%TA.AperFunction,SMDPad,CuDef*%
%ADD40RoundRect,0.135000X-0.135000X-0.185000X0.135000X-0.185000X0.135000X0.185000X-0.135000X0.185000X0*%
%TD*%
%TA.AperFunction,SMDPad,CuDef*%
%ADD41R,0.300000X0.990000*%
%TD*%
%TA.AperFunction,SMDPad,CuDef*%
%ADD42R,1.400000X0.300000*%
%TD*%
%TA.AperFunction,SMDPad,CuDef*%
%ADD43R,1.570000X1.880000*%
%TD*%
%TA.AperFunction,ViaPad*%
%ADD44C,0.685800*%
%TD*%
%TA.AperFunction,ViaPad*%
%ADD45C,0.889000*%
%TD*%
%TA.AperFunction,Conductor*%
%ADD46C,0.254000*%
%TD*%
%TA.AperFunction,Conductor*%
%ADD47C,0.508000*%
%TD*%
%TA.AperFunction,Conductor*%
%ADD48C,0.200000*%
%TD*%
G04 APERTURE END LIST*
D10*
%TO.P,SC7,1,1*%
%TO.N,SC7*%
X116000000Y-33500000D03*
%TD*%
D11*
%TO.P,C2,1*%
%TO.N,+3.3V*%
X132600000Y-58290000D03*
%TO.P,C2,2*%
%TO.N,GND*%
X132600000Y-56740000D03*
%TD*%
D12*
%TO.P,R19,1*%
%TO.N,SC3*%
X106010000Y-70000000D03*
%TO.P,R19,2*%
%TO.N,+3.3V*%
X104990000Y-70000000D03*
%TD*%
D13*
%TO.P,R26,1*%
%TO.N,+BATT*%
X131050000Y-78765000D03*
%TO.P,R26,2*%
%TO.N,Net-(BM1-G)*%
X131050000Y-79785000D03*
%TD*%
D14*
%TO.P,I2Ce1,1,A0*%
%TO.N,GND*%
X109024000Y-62425000D03*
%TO.P,I2Ce1,2,A1*%
X109024000Y-63075000D03*
%TO.P,I2Ce1,3,~{RESET}*%
%TO.N,I2CexpanderReset*%
X109024000Y-63725000D03*
%TO.P,I2Ce1,4,SD0*%
%TO.N,SD0*%
X109024000Y-64375000D03*
%TO.P,I2Ce1,5,SC0*%
%TO.N,SC0*%
X109024000Y-65025000D03*
%TO.P,I2Ce1,6,SD1*%
%TO.N,SD1*%
X109024000Y-65675000D03*
%TO.P,I2Ce1,7,SC1*%
%TO.N,SC1*%
X109024000Y-66325000D03*
%TO.P,I2Ce1,8,SD2*%
%TO.N,SD2*%
X109024000Y-66975000D03*
%TO.P,I2Ce1,9,SC2*%
%TO.N,SC2*%
X109024000Y-67625000D03*
%TO.P,I2Ce1,10,SD3*%
%TO.N,SD3*%
X109024000Y-68275000D03*
%TO.P,I2Ce1,11,SC3*%
%TO.N,SC3*%
X109024000Y-68925000D03*
%TO.P,I2Ce1,12,GND*%
%TO.N,GND*%
X109024000Y-69575000D03*
%TO.P,I2Ce1,13,SD4*%
%TO.N,unconnected-(I2Ce1-SD4-Pad13)*%
X114900000Y-69575000D03*
%TO.P,I2Ce1,14,SC4*%
%TO.N,unconnected-(I2Ce1-SC4-Pad14)*%
X114900000Y-68925000D03*
%TO.P,I2Ce1,15,SD5*%
%TO.N,unconnected-(I2Ce1-SD5-Pad15)*%
X114900000Y-68275000D03*
%TO.P,I2Ce1,16,SC5*%
%TO.N,unconnected-(I2Ce1-SC5-Pad16)*%
X114900000Y-67625000D03*
%TO.P,I2Ce1,17,SD6*%
%TO.N,Net-(I2Ce1-SD6)*%
X114900000Y-66975000D03*
%TO.P,I2Ce1,18,SC6*%
%TO.N,Net-(I2Ce1-SC6)*%
X114900000Y-66325000D03*
%TO.P,I2Ce1,19,SD7*%
%TO.N,SD7*%
X114900000Y-65675000D03*
%TO.P,I2Ce1,20,SC7*%
%TO.N,SC7*%
X114900000Y-65025000D03*
%TO.P,I2Ce1,21,A2*%
%TO.N,GND*%
X114900000Y-64375000D03*
%TO.P,I2Ce1,22,SCL*%
%TO.N,Net-(I2Ce1-SCL)*%
X114900000Y-63725000D03*
%TO.P,I2Ce1,23,SDA*%
%TO.N,Net-(I2Ce1-SDA)*%
X114900000Y-63075000D03*
%TO.P,I2Ce1,24,VCC*%
%TO.N,+3.3V*%
X114900000Y-62425000D03*
%TD*%
D12*
%TO.P,R6,1*%
%TO.N,+3.3V*%
X113710000Y-60900000D03*
%TO.P,R6,2*%
%TO.N,Net-(I2Ce1-SDA)*%
X112690000Y-60900000D03*
%TD*%
D15*
%TO.P,C12,1*%
%TO.N,Net-(IC8-IO0)*%
X109450000Y-50500000D03*
%TO.P,C12,2*%
%TO.N,GND*%
X109450000Y-52050000D03*
%TD*%
D16*
%TO.P,R22,1*%
%TO.N,Net-(BC1-ISET)*%
X115650000Y-76960000D03*
%TO.P,R22,2*%
%TO.N,GND*%
X115650000Y-75940000D03*
%TD*%
D10*
%TO.P,3V1,1,1*%
%TO.N,+3.3V*%
X100500000Y-42500000D03*
%TD*%
D16*
%TO.P,R25,1*%
%TO.N,Net-(BC1-TS)*%
X106250000Y-78460000D03*
%TO.P,R25,2*%
%TO.N,GND*%
X106250000Y-77440000D03*
%TD*%
D10*
%TO.P,-E1,1,1*%
%TO.N,GND*%
X141850000Y-71400000D03*
%TD*%
D17*
%TO.P,VR1,1,VINA*%
%TO.N,Net-(VR1-EN)*%
X134363000Y-61605000D03*
%TO.P,VR1,2,GND*%
%TO.N,GND*%
X133863000Y-61605000D03*
%TO.P,VR1,3,FB*%
%TO.N,Net-(VR1-FB)*%
X133363000Y-61605000D03*
%TO.P,VR1,4,VOUT_1*%
%TO.N,+3.3V*%
X132863000Y-61605000D03*
%TO.P,VR1,5,VOUT_2*%
X132363000Y-61605000D03*
%TO.P,VR1,6,L2_1*%
%TO.N,L1*%
X131863000Y-61605000D03*
%TO.P,VR1,7,L2_2*%
X131363000Y-61605000D03*
%TO.P,VR1,8,L1_1*%
%TO.N,L2*%
X131363000Y-64405000D03*
%TO.P,VR1,9,L1_2*%
X131863000Y-64405000D03*
%TO.P,VR1,10,VIN_1*%
%TO.N,ESC+*%
X132363000Y-64405000D03*
%TO.P,VR1,11,VIN_2*%
X132863000Y-64405000D03*
%TO.P,VR1,12,EN*%
%TO.N,Net-(VR1-EN)*%
X133363000Y-64405000D03*
%TO.P,VR1,13,PS/SYNC*%
X133863000Y-64405000D03*
%TO.P,VR1,14,PG*%
%TO.N,Net-(VR1-PG)*%
X134363000Y-64405000D03*
D18*
%TO.P,VR1,15,PGND_1*%
%TO.N,GND*%
X132863000Y-63005000D03*
D19*
%TO.P,VR1,16,PGND_2*%
X134676000Y-63695000D03*
%TO.P,VR1,17,PGND_3*%
X134676000Y-63235000D03*
%TO.P,VR1,18,PGND_4*%
X134676000Y-62775000D03*
%TO.P,VR1,19,PGND_5*%
X134676000Y-62315000D03*
%TO.P,VR1,20,PGND_6*%
X131050000Y-62315000D03*
%TO.P,VR1,21,PGND_7*%
X131050000Y-62775000D03*
%TO.P,VR1,22,PGND_8*%
X131050000Y-63235000D03*
%TO.P,VR1,23,PGND_9*%
X131050000Y-63695000D03*
%TD*%
D20*
%TO.P,S1,1,1*%
%TO.N,GND*%
X132650000Y-83225000D03*
%TO.P,S1,2,2*%
%TO.N,Net-(BM1-G)*%
X135650000Y-83225000D03*
%TO.P,S1,3,3*%
%TO.N,unconnected-(S1-Pad3)*%
X137150000Y-83225000D03*
D21*
%TO.P,S1,4,4*%
%TO.N,unconnected-(S1-Pad4)*%
X131250000Y-83875000D03*
%TO.P,S1,5,5*%
%TO.N,unconnected-(S1-Pad5)*%
X131250000Y-86075000D03*
%TO.P,S1,6,6*%
%TO.N,unconnected-(S1-Pad6)*%
X138550000Y-83875000D03*
%TO.P,S1,7,7*%
%TO.N,unconnected-(S1-Pad7)*%
X138550000Y-86075000D03*
%TD*%
D12*
%TO.P,R18,1*%
%TO.N,SD3*%
X106010000Y-69000000D03*
%TO.P,R18,2*%
%TO.N,+3.3V*%
X104990000Y-69000000D03*
%TD*%
D10*
%TO.P,SIG1,1,1*%
%TO.N,ESCsignal*%
X141850000Y-74400000D03*
%TD*%
%TO.P,SC3,1,1*%
%TO.N,SC3*%
X107000000Y-82500000D03*
%TD*%
%TO.P,GN0,1,1*%
%TO.N,GND*%
X109400000Y-33500000D03*
%TD*%
%TO.P,SD1,1,1*%
%TO.N,SD1*%
X100500000Y-45500000D03*
%TD*%
D11*
%TO.P,C8,1*%
%TO.N,+3.3V*%
X129600000Y-58290000D03*
%TO.P,C8,2*%
%TO.N,GND*%
X129600000Y-56740000D03*
%TD*%
D22*
%TO.P,BM1,1,G*%
%TO.N,Net-(BM1-G)*%
X132650000Y-79875000D03*
%TO.P,BM1,2,S*%
%TO.N,+BATT*%
X134550000Y-79875000D03*
%TO.P,BM1,3,D*%
%TO.N,ESC+*%
X133600000Y-77775000D03*
%TD*%
D23*
%TO.P,LED2,1,K*%
%TO.N,GND*%
X109800000Y-57950000D03*
%TO.P,LED2,2,A*%
%TO.N,Net-(LED2-A)*%
X109800000Y-56450000D03*
%TD*%
D10*
%TO.P,3V3,1,1*%
%TO.N,+3.3V*%
X100500000Y-82500000D03*
%TD*%
%TO.P,AO1,1,1*%
%TO.N,AOUT1*%
X141800000Y-52500000D03*
%TD*%
D13*
%TO.P,R33,1*%
%TO.N,Net-(IC8-IO8)*%
X110800000Y-54090000D03*
%TO.P,R33,2*%
%TO.N,Net-(LED2-A)*%
X110800000Y-55110000D03*
%TD*%
D11*
%TO.P,C3,1*%
%TO.N,+3.3V*%
X134100000Y-58290000D03*
%TO.P,C3,2*%
%TO.N,GND*%
X134100000Y-56740000D03*
%TD*%
D24*
%TO.P,C13,1*%
%TO.N,GND*%
X112275000Y-79850000D03*
%TO.P,C13,2*%
%TO.N,+5V*%
X113825000Y-79850000D03*
%TD*%
D12*
%TO.P,R10,1*%
%TO.N,SD0*%
X106000000Y-63000000D03*
%TO.P,R10,2*%
%TO.N,+3.3V*%
X104980000Y-63000000D03*
%TD*%
D10*
%TO.P,+E1,1,1*%
%TO.N,ESC+*%
X141850000Y-68400000D03*
%TD*%
%TO.P,BO2,1,1*%
%TO.N,BOUT2*%
X141800000Y-43500000D03*
%TD*%
D11*
%TO.P,C9,1*%
%TO.N,+3.3V*%
X105450000Y-56775000D03*
%TO.P,C9,2*%
%TO.N,GND*%
X105450000Y-55225000D03*
%TD*%
D25*
%TO.P,LED3,1,K*%
%TO.N,Net-(BC1-~{PG})*%
X110700000Y-73350000D03*
%TO.P,LED3,2,A*%
%TO.N,Net-(LED3-A)*%
X109200000Y-73350000D03*
%TD*%
D26*
%TO.P,TP2,1,1*%
%TO.N,+3.3V*%
X130800000Y-53800000D03*
%TD*%
D24*
%TO.P,C7,1*%
%TO.N,Net-(C7-Pad1)*%
X137575000Y-57015000D03*
%TO.P,C7,2*%
%TO.N,Net-(VR1-FB)*%
X139125000Y-57015000D03*
%TD*%
D26*
%TO.P,TP1,1,1*%
%TO.N,Net-(IC8-IO47)*%
X122500000Y-60800000D03*
%TD*%
D10*
%TO.P,3V7,1,1*%
%TO.N,+3.3V*%
X122000000Y-33500000D03*
%TD*%
D12*
%TO.P,R9,1*%
%TO.N,+3.3V*%
X118810000Y-64000000D03*
%TO.P,R9,2*%
%TO.N,SC7*%
X117790000Y-64000000D03*
%TD*%
%TO.P,R24,1*%
%TO.N,+BATT*%
X106710000Y-79450000D03*
%TO.P,R24,2*%
%TO.N,Net-(LED1-A)*%
X105690000Y-79450000D03*
%TD*%
D11*
%TO.P,C4,1*%
%TO.N,+3.3V*%
X131100000Y-58290000D03*
%TO.P,C4,2*%
%TO.N,GND*%
X131100000Y-56740000D03*
%TD*%
D27*
%TO.P,MD1,1,VM*%
%TO.N,ESC+*%
X132900000Y-51500000D03*
%TO.P,MD1,2,AOUT1*%
%TO.N,AOUT1*%
X132900000Y-51000000D03*
%TO.P,MD1,3,AOUT2*%
%TO.N,AOUT2*%
X132900000Y-50500000D03*
%TO.P,MD1,4,BOUT1*%
%TO.N,BOUT1*%
X132900000Y-50000000D03*
%TO.P,MD1,5,BOUT2*%
%TO.N,BOUT2*%
X132900000Y-49500000D03*
%TO.P,MD1,6,GND_1*%
%TO.N,GND*%
X132900000Y-49000000D03*
%TO.P,MD1,7,BIN2_/_BENBL*%
%TO.N,Net-(IC8-IO46)*%
X131000000Y-49000000D03*
%TO.P,MD1,8,BIN1_/_BPHASE*%
%TO.N,Net-(IC8-IO45)*%
X131000000Y-49500000D03*
%TO.P,MD1,9,AIN2_/_AENBL*%
%TO.N,Net-(IC8-IO42)*%
X131000000Y-50000000D03*
%TO.P,MD1,10,AIN1_/_APHASE*%
%TO.N,Net-(IC8-IO41)*%
X131000000Y-50500000D03*
%TO.P,MD1,11,MODE*%
%TO.N,Net-(IC8-IO40)*%
X131000000Y-51000000D03*
%TO.P,MD1,12,VCC*%
%TO.N,+3.3V*%
X131000000Y-51500000D03*
D28*
%TO.P,MD1,13,GND_2*%
%TO.N,GND*%
X131950000Y-50250000D03*
%TD*%
D26*
%TO.P,TP3,1,1*%
%TO.N,ESC+*%
X133800000Y-54400000D03*
%TD*%
D29*
%TO.P,BOOT1,1,1*%
%TO.N,unconnected-(BOOT1-Pad1)*%
X109100000Y-41900000D03*
%TO.P,BOOT1,2,2*%
%TO.N,Net-(IC8-IO0)*%
X109100000Y-48400000D03*
%TO.P,BOOT1,3,3*%
%TO.N,unconnected-(BOOT1-Pad3)*%
X104600000Y-41900000D03*
%TO.P,BOOT1,4,4*%
%TO.N,GND*%
X104600000Y-48400000D03*
%TD*%
D10*
%TO.P,-BAT1,1,1*%
%TO.N,GND*%
X142250000Y-80100000D03*
%TD*%
D12*
%TO.P,R17,1*%
%TO.N,SC2*%
X106010000Y-68000000D03*
%TO.P,R17,2*%
%TO.N,+3.3V*%
X104990000Y-68000000D03*
%TD*%
D30*
%TO.P,USB1,1,1*%
%TO.N,+5V*%
X119700000Y-80580000D03*
%TO.P,USB1,2,2*%
%TO.N,/D-*%
X120350000Y-80580000D03*
%TO.P,USB1,3,3*%
%TO.N,/D+*%
X121000000Y-80580000D03*
%TO.P,USB1,4,4*%
%TO.N,GND*%
X121650000Y-80580000D03*
%TO.P,USB1,5,5*%
X122300000Y-80580000D03*
D31*
%TO.P,USB1,MH1,MH1*%
%TO.N,unconnected-(USB1-PadMH1)*%
X117425000Y-80080000D03*
%TO.P,USB1,MH2,MH2*%
%TO.N,unconnected-(USB1-PadMH2)*%
X124575000Y-80080000D03*
%TO.P,USB1,MH3,MH3*%
%TO.N,unconnected-(USB1-PadMH3)*%
X124575000Y-83530000D03*
%TO.P,USB1,MH4,MH4*%
%TO.N,unconnected-(USB1-PadMH4)*%
X117425000Y-83530000D03*
%TD*%
D15*
%TO.P,C10,1*%
%TO.N,+3.3V*%
X105450000Y-50450000D03*
%TO.P,C10,2*%
%TO.N,GND*%
X105450000Y-52000000D03*
%TD*%
D32*
%TO.P,R1,1*%
%TO.N,Net-(VR1-FB)*%
X140675000Y-59015000D03*
%TO.P,R1,2*%
%TO.N,+3.3V*%
X139025000Y-59015000D03*
%TD*%
D10*
%TO.P,BO1,1,1*%
%TO.N,BOUT1*%
X141800000Y-46500000D03*
%TD*%
D12*
%TO.P,R14,1*%
%TO.N,SD1*%
X106000000Y-65000000D03*
%TO.P,R14,2*%
%TO.N,+3.3V*%
X104980000Y-65000000D03*
%TD*%
D33*
%TO.P,L2,1,1*%
%TO.N,L1*%
X126550000Y-61630000D03*
%TO.P,L2,2,2*%
%TO.N,L2*%
X126550000Y-64000000D03*
%TD*%
D10*
%TO.P,+BAT1,1,1*%
%TO.N,+BATT*%
X142250000Y-83100000D03*
%TD*%
D34*
%TO.P,C14,1,+*%
%TO.N,ESC+*%
X126800000Y-73600000D03*
%TO.P,C14,2,-*%
%TO.N,GND*%
X126800000Y-68600000D03*
%TD*%
D23*
%TO.P,LED1,1,K*%
%TO.N,Net-(BC1-~{CHG})*%
X105650000Y-72950000D03*
%TO.P,LED1,2,A*%
%TO.N,Net-(LED1-A)*%
X105650000Y-74450000D03*
%TD*%
D12*
%TO.P,R11,1*%
%TO.N,SC0*%
X106010000Y-64000000D03*
%TO.P,R11,2*%
%TO.N,+3.3V*%
X104990000Y-64000000D03*
%TD*%
D35*
%TO.P,R4,1*%
%TO.N,+3.3V*%
X135850000Y-58340000D03*
%TO.P,R4,2*%
%TO.N,Net-(C7-Pad1)*%
X135850000Y-56690000D03*
%TD*%
D10*
%TO.P,GN3,1,1*%
%TO.N,GND*%
X100500000Y-79000000D03*
%TD*%
D12*
%TO.P,R15,1*%
%TO.N,SC1*%
X106010000Y-66000000D03*
%TO.P,R15,2*%
%TO.N,+3.3V*%
X104990000Y-66000000D03*
%TD*%
D10*
%TO.P,AO2,1,1*%
%TO.N,AOUT2*%
X141800000Y-49500000D03*
%TD*%
D12*
%TO.P,R8,1*%
%TO.N,+3.3V*%
X118685000Y-65300000D03*
%TO.P,R8,2*%
%TO.N,SD7*%
X117665000Y-65300000D03*
%TD*%
D26*
%TO.P,TP4,1,1*%
%TO.N,Net-(I2Ce1-SD6)*%
X118100000Y-69400000D03*
%TD*%
D36*
%TO.P,IC8,1,GND_1*%
%TO.N,GND*%
X113000000Y-45050000D03*
%TO.P,IC8,2,GND_2*%
X113000000Y-45900000D03*
%TO.P,IC8,3,3V3*%
%TO.N,+3.3V*%
X113000000Y-46750000D03*
%TO.P,IC8,4,IO0*%
%TO.N,Net-(IC8-IO0)*%
X113000000Y-47600000D03*
%TO.P,IC8,5,IO1*%
%TO.N,INT0*%
X113000000Y-48450000D03*
%TO.P,IC8,6,IO2*%
%TO.N,INT1*%
X113000000Y-49300000D03*
%TO.P,IC8,7,IO3*%
%TO.N,INT2*%
X113000000Y-50150000D03*
%TO.P,IC8,8,IO4*%
%TO.N,INT3*%
X113000000Y-51000000D03*
%TO.P,IC8,9,IO5*%
%TO.N,unconnected-(IC8-IO5-Pad9)*%
X113000000Y-51850000D03*
%TO.P,IC8,10,IO6*%
%TO.N,unconnected-(IC8-IO6-Pad10)*%
X113000000Y-52700000D03*
%TO.P,IC8,11,IO7*%
%TO.N,unconnected-(IC8-IO7-Pad11)*%
X113000000Y-53550000D03*
%TO.P,IC8,12,IO8*%
%TO.N,Net-(IC8-IO8)*%
X113000000Y-54400000D03*
%TO.P,IC8,13,IO9*%
%TO.N,unconnected-(IC8-IO9-Pad13)*%
X113000000Y-55250000D03*
%TO.P,IC8,14,IO10*%
%TO.N,unconnected-(IC8-IO10-Pad14)*%
X113000000Y-56100000D03*
%TO.P,IC8,15,IO11*%
%TO.N,unconnected-(IC8-IO11-Pad15)*%
X113000000Y-56950000D03*
D37*
%TO.P,IC8,16,IO12*%
%TO.N,I2CexpanderReset*%
X114050000Y-58000000D03*
%TO.P,IC8,17,IO13*%
%TO.N,unconnected-(IC8-IO13-Pad17)*%
X114900000Y-58000000D03*
%TO.P,IC8,18,IO14*%
%TO.N,unconnected-(IC8-IO14-Pad18)*%
X115750000Y-58000000D03*
%TO.P,IC8,19,IO15*%
%TO.N,Net-(I2Ce1-SDA)*%
X116600000Y-58000000D03*
%TO.P,IC8,20,IO16*%
%TO.N,Net-(I2Ce1-SCL)*%
X117450000Y-58000000D03*
%TO.P,IC8,21,IO17*%
%TO.N,unconnected-(IC8-IO17-Pad21)*%
X118300000Y-58000000D03*
%TO.P,IC8,22,IO18*%
%TO.N,unconnected-(IC8-IO18-Pad22)*%
X119150000Y-58000000D03*
%TO.P,IC8,23,IO19*%
%TO.N,/D-*%
X120000000Y-58000000D03*
%TO.P,IC8,24,IO20*%
%TO.N,/D+*%
X120850000Y-58000000D03*
%TO.P,IC8,25,IO21*%
%TO.N,unconnected-(IC8-IO21-Pad25)*%
X121700000Y-58000000D03*
%TO.P,IC8,26,IO26*%
%TO.N,unconnected-(IC8-IO26-Pad26)*%
X122550000Y-58000000D03*
%TO.P,IC8,27,IO47*%
%TO.N,Net-(IC8-IO47)*%
X123400000Y-58000000D03*
%TO.P,IC8,28,IO33*%
%TO.N,unconnected-(IC8-IO33-Pad28)*%
X124250000Y-58000000D03*
%TO.P,IC8,29,IO34*%
%TO.N,INT4*%
X125100000Y-58000000D03*
%TO.P,IC8,30,IO48*%
%TO.N,INT5*%
X125950000Y-58000000D03*
D36*
%TO.P,IC8,31,IO35*%
%TO.N,INT6*%
X127000000Y-56950000D03*
%TO.P,IC8,32,IO36*%
%TO.N,INT7*%
X127000000Y-56100000D03*
%TO.P,IC8,33,IO37*%
%TO.N,unconnected-(IC8-IO37-Pad33)*%
X127000000Y-55250000D03*
%TO.P,IC8,34,IO38*%
%TO.N,unconnected-(IC8-IO38-Pad34)*%
X127000000Y-54400000D03*
%TO.P,IC8,35,IO39*%
%TO.N,ESCsignal*%
X127000000Y-53550000D03*
%TO.P,IC8,36,IO40*%
%TO.N,Net-(IC8-IO40)*%
X127000000Y-52700000D03*
%TO.P,IC8,37,IO41*%
%TO.N,Net-(IC8-IO41)*%
X127000000Y-51850000D03*
%TO.P,IC8,38,IO42*%
%TO.N,Net-(IC8-IO42)*%
X127000000Y-51000000D03*
%TO.P,IC8,39,TXD0*%
%TO.N,unconnected-(IC8-TXD0-Pad39)*%
X127000000Y-50150000D03*
%TO.P,IC8,40,RXD0*%
%TO.N,unconnected-(IC8-RXD0-Pad40)*%
X127000000Y-49300000D03*
%TO.P,IC8,41,IO45*%
%TO.N,Net-(IC8-IO45)*%
X127000000Y-48450000D03*
%TO.P,IC8,42,GND_3*%
%TO.N,GND*%
X127000000Y-47600000D03*
%TO.P,IC8,43,GND_4*%
X127000000Y-46750000D03*
%TO.P,IC8,44,IO46*%
%TO.N,Net-(IC8-IO46)*%
X127000000Y-45900000D03*
%TO.P,IC8,45,EN*%
%TO.N,Net-(IC8-EN)*%
X127000000Y-45050000D03*
D37*
%TO.P,IC8,46,GND_5*%
%TO.N,GND*%
X125950000Y-44000000D03*
%TO.P,IC8,47,GND_6*%
X125100000Y-44000000D03*
%TO.P,IC8,48,GND_7*%
X124250000Y-44000000D03*
%TO.P,IC8,49,GND_8*%
X123400000Y-44000000D03*
%TO.P,IC8,50,GND_9*%
X122550000Y-44000000D03*
%TO.P,IC8,51,GND_10*%
X121700000Y-44000000D03*
%TO.P,IC8,52,GND_11*%
X120850000Y-44000000D03*
%TO.P,IC8,53,GND_12*%
X120000000Y-44000000D03*
%TO.P,IC8,54,GND_13*%
X119150000Y-44000000D03*
%TO.P,IC8,55,GND_14*%
X118300000Y-44000000D03*
%TO.P,IC8,56,GND_15*%
X117450000Y-44000000D03*
%TO.P,IC8,57,GND_16*%
X116600000Y-44000000D03*
%TO.P,IC8,58,GND_17*%
X115750000Y-44000000D03*
%TO.P,IC8,59,GND_18*%
X114900000Y-44000000D03*
%TO.P,IC8,60,GND_19*%
X114050000Y-44000000D03*
D38*
%TO.P,IC8,61,GND_20*%
X120000000Y-51000000D03*
D39*
%TO.P,IC8,62,GND_21*%
X113000000Y-44000000D03*
%TO.P,IC8,63,GND_22*%
X113000000Y-58000000D03*
%TO.P,IC8,64,GND_23*%
X127000000Y-58000000D03*
%TO.P,IC8,65,GND_24*%
X127000000Y-44000000D03*
D38*
%TO.P,IC8,66,GND_25*%
X118350000Y-49350000D03*
%TO.P,IC8,67,GND_26*%
X118350000Y-51000000D03*
%TO.P,IC8,68,GND_27*%
X118350000Y-52650000D03*
%TO.P,IC8,69,GND_28*%
X120000000Y-52650000D03*
%TO.P,IC8,70,GND_29*%
X121650000Y-52650000D03*
%TO.P,IC8,71,GND_30*%
X121650000Y-51000000D03*
%TO.P,IC8,72,GND_31*%
X121650000Y-49350000D03*
%TO.P,IC8,73,GND_32*%
X120000000Y-49350000D03*
%TD*%
D10*
%TO.P,SD3,1,1*%
%TO.N,SD3*%
X104000000Y-82500000D03*
%TD*%
D16*
%TO.P,R20,1*%
%TO.N,+BATT*%
X104000000Y-76710000D03*
%TO.P,R20,2*%
%TO.N,Net-(LED3-A)*%
X104000000Y-75690000D03*
%TD*%
D24*
%TO.P,C6,1*%
%TO.N,ESC+*%
X137575000Y-77625000D03*
%TO.P,C6,2*%
%TO.N,GND*%
X139125000Y-77625000D03*
%TD*%
%TO.P,C1,1*%
%TO.N,Net-(VR1-EN)*%
X138850000Y-64015000D03*
%TO.P,C1,2*%
%TO.N,GND*%
X140400000Y-64015000D03*
%TD*%
D40*
%TO.P,R21,1*%
%TO.N,+3.3V*%
X130990000Y-37500000D03*
%TO.P,R21,2*%
%TO.N,Net-(IC8-EN)*%
X132010000Y-37500000D03*
%TD*%
D10*
%TO.P,SD2,1,1*%
%TO.N,SD2*%
X100500000Y-70000000D03*
%TD*%
D12*
%TO.P,R7,1*%
%TO.N,+3.3V*%
X119010000Y-62500000D03*
%TO.P,R7,2*%
%TO.N,Net-(I2Ce1-SCL)*%
X117990000Y-62500000D03*
%TD*%
D29*
%TO.P,RESET1,1,1*%
%TO.N,Net-(IC8-EN)*%
X130250000Y-46150000D03*
%TO.P,RESET1,2,2*%
%TO.N,unconnected-(RESET1-Pad2)*%
X130250000Y-39650000D03*
%TO.P,RESET1,3,3*%
%TO.N,GND*%
X134750000Y-46150000D03*
%TO.P,RESET1,4,4*%
%TO.N,unconnected-(RESET1-Pad4)*%
X134750000Y-39650000D03*
%TD*%
D10*
%TO.P,3V0,1,1*%
%TO.N,+3.3V*%
X106400000Y-33500000D03*
%TD*%
D24*
%TO.P,C11,1*%
%TO.N,Net-(IC8-EN)*%
X133450000Y-37500000D03*
%TO.P,C11,2*%
%TO.N,GND*%
X135000000Y-37500000D03*
%TD*%
D35*
%TO.P,R2,1*%
%TO.N,Net-(VR1-FB)*%
X140850000Y-57515000D03*
%TO.P,R2,2*%
%TO.N,GND*%
X140850000Y-55865000D03*
%TD*%
D12*
%TO.P,R5,1*%
%TO.N,I2CexpanderReset*%
X111010000Y-60600000D03*
%TO.P,R5,2*%
%TO.N,+3.3V*%
X109990000Y-60600000D03*
%TD*%
D10*
%TO.P,SD0,1,1*%
%TO.N,SD0*%
X103400000Y-33500000D03*
%TD*%
D26*
%TO.P,TP5,1,1*%
%TO.N,Net-(I2Ce1-SC6)*%
X118100000Y-67400000D03*
%TD*%
D10*
%TO.P,SC1,1,1*%
%TO.N,SC1*%
X100500000Y-48500000D03*
%TD*%
%TO.P,SC0,1,1*%
%TO.N,SC0*%
X100400000Y-33500000D03*
%TD*%
%TO.P,SC2,1,1*%
%TO.N,SC2*%
X100500000Y-73000000D03*
%TD*%
D35*
%TO.P,R3,1*%
%TO.N,Net-(VR1-PG)*%
X136850000Y-65340000D03*
%TO.P,R3,2*%
%TO.N,+3.3V*%
X136850000Y-63690000D03*
%TD*%
D41*
%TO.P,ESD1,1,I/O1_1*%
%TO.N,/D-*%
X120200000Y-76100000D03*
%TO.P,ESD1,2,GND*%
%TO.N,GND*%
X120700000Y-76100000D03*
%TO.P,ESD1,3,I/O2_1*%
%TO.N,/D+*%
X121200000Y-76100000D03*
%TO.P,ESD1,4,I/O2_2*%
X121200000Y-74490000D03*
%TO.P,ESD1,5,VBUS*%
%TO.N,+5V*%
X120700000Y-74490000D03*
%TO.P,ESD1,6,I/O1_2*%
%TO.N,/D-*%
X120200000Y-74490000D03*
%TD*%
D10*
%TO.P,3V2,1,1*%
%TO.N,+3.3V*%
X100500000Y-67000000D03*
%TD*%
D24*
%TO.P,C5,1*%
%TO.N,ESC+*%
X137575000Y-79125000D03*
%TO.P,C5,2*%
%TO.N,GND*%
X139125000Y-79125000D03*
%TD*%
D10*
%TO.P,GN1,1,1*%
%TO.N,GND*%
X100500000Y-39500000D03*
%TD*%
%TO.P,GN2,1,1*%
%TO.N,GND*%
X100500000Y-64000000D03*
%TD*%
%TO.P,GN7,1,1*%
%TO.N,GND*%
X125000000Y-33500000D03*
%TD*%
%TO.P,SD7,1,1*%
%TO.N,SD7*%
X119000000Y-33500000D03*
%TD*%
D34*
%TO.P,C15,1,+*%
%TO.N,ESC+*%
X135500000Y-73600000D03*
%TO.P,C15,2,-*%
%TO.N,GND*%
X135500000Y-68600000D03*
%TD*%
D16*
%TO.P,R23,1*%
%TO.N,Net-(BC1-PRETERM)*%
X113500000Y-73610000D03*
%TO.P,R23,2*%
%TO.N,GND*%
X113500000Y-72590000D03*
%TD*%
D42*
%TO.P,BC1,1,IN*%
%TO.N,+5V*%
X113050000Y-77950000D03*
%TO.P,BC1,2,ISET*%
%TO.N,Net-(BC1-ISET)*%
X113050000Y-77450000D03*
%TO.P,BC1,3,VSS*%
%TO.N,GND*%
X113050000Y-76950000D03*
%TO.P,BC1,4,PRETERM*%
%TO.N,Net-(BC1-PRETERM)*%
X113050000Y-76450000D03*
%TO.P,BC1,5,~{PG}*%
%TO.N,Net-(BC1-~{PG})*%
X113050000Y-75950000D03*
%TO.P,BC1,6,NC*%
%TO.N,unconnected-(BC1-NC-Pad6)*%
X108650000Y-75950000D03*
%TO.P,BC1,7,ISET2*%
%TO.N,GND*%
X108650000Y-76450000D03*
%TO.P,BC1,8,~{CHG}*%
%TO.N,Net-(BC1-~{CHG})*%
X108650000Y-76950000D03*
%TO.P,BC1,9,TS*%
%TO.N,Net-(BC1-TS)*%
X108650000Y-77450000D03*
%TO.P,BC1,10,OUT*%
%TO.N,+BATT*%
X108650000Y-77950000D03*
D43*
%TO.P,BC1,11,EP*%
%TO.N,unconnected-(BC1-EP-Pad11)*%
X110850000Y-76950000D03*
%TD*%
D12*
%TO.P,R16,1*%
%TO.N,SD2*%
X106010000Y-67000000D03*
%TO.P,R16,2*%
%TO.N,+3.3V*%
X104990000Y-67000000D03*
%TD*%
D44*
%TO.N,+5V*%
X117100000Y-76800000D03*
X120700000Y-72900000D03*
D45*
%TO.N,+BATT*%
X136100000Y-80600000D03*
X129600000Y-79000000D03*
X109700000Y-79500000D03*
%TO.N,ESC+*%
X138700000Y-69800000D03*
X134000000Y-52700000D03*
D44*
%TO.N,+3.3V*%
X137850000Y-62515000D03*
X131000000Y-52500000D03*
X116500000Y-61500000D03*
X110800000Y-46600000D03*
X137350000Y-58515000D03*
X133350000Y-59415000D03*
X107500000Y-60500000D03*
X131750000Y-60215000D03*
X130950000Y-59415000D03*
X104700000Y-45000000D03*
X103000000Y-80500000D03*
X118600000Y-66000000D03*
X132150000Y-59415000D03*
X103500000Y-64500000D03*
X119000000Y-60500000D03*
X103900000Y-65600000D03*
X114600000Y-60900000D03*
X132750000Y-60215000D03*
X106600000Y-50500000D03*
X103400000Y-61000000D03*
X103500000Y-70500000D03*
X129700000Y-37300000D03*
X106600000Y-56800000D03*
X122000000Y-36000000D03*
X106600000Y-36500000D03*
%TO.N,SC2*%
X110500000Y-67625000D03*
X103600000Y-68900000D03*
%TO.N,SD0*%
X106500000Y-61500000D03*
%TO.N,SD3*%
X107000000Y-69000000D03*
%TO.N,SD2*%
X103500000Y-67000000D03*
X107000000Y-67000000D03*
%TO.N,SD1*%
X107000000Y-65000000D03*
%TO.N,SC0*%
X109500000Y-44000000D03*
X107000000Y-64000000D03*
%TO.N,SD7*%
X113300000Y-66100000D03*
X123500000Y-39500000D03*
%TO.N,SC3*%
X110500000Y-69500000D03*
%TO.N,SC1*%
X110500000Y-66000000D03*
%TO.N,SC7*%
X116700000Y-64500000D03*
X121000000Y-40900000D03*
%TO.N,ESCsignal*%
X129500000Y-54500000D03*
%TO.N,GND*%
X117000000Y-72000000D03*
X135550000Y-63415000D03*
X105500000Y-53500000D03*
X107650000Y-74950000D03*
X133800000Y-68800000D03*
X135550000Y-62615000D03*
X122500000Y-79000000D03*
X113500000Y-64000000D03*
X139300000Y-76100000D03*
X129800000Y-68800000D03*
X140300000Y-79100000D03*
X103400000Y-39800000D03*
X135150000Y-36350000D03*
X103500000Y-62900000D03*
X125500000Y-45500000D03*
X129450000Y-63415000D03*
X140300000Y-77700000D03*
X118500000Y-55000000D03*
X107500000Y-62000000D03*
X130350000Y-62615000D03*
X136600000Y-54900000D03*
X130350000Y-63415000D03*
X129800000Y-67400000D03*
X132000000Y-54900000D03*
X129450000Y-62615000D03*
X110800000Y-80200000D03*
X116500000Y-53000000D03*
X103200000Y-77800000D03*
X133800000Y-67400000D03*
X123600000Y-68800000D03*
X113000000Y-42500000D03*
X123600000Y-67400000D03*
X108400000Y-52800000D03*
X125000000Y-36600000D03*
X123600000Y-70200000D03*
X133800000Y-70200000D03*
X124150000Y-59450000D03*
X129800000Y-70200000D03*
X118400000Y-76100000D03*
X140400000Y-62750000D03*
X110500000Y-71000000D03*
X131950000Y-48000000D03*
X116500000Y-48500000D03*
X127000000Y-59350000D03*
X116500000Y-51000000D03*
X106250000Y-76550000D03*
X127000000Y-42500000D03*
X111000000Y-57800000D03*
X134500000Y-44500000D03*
X128100000Y-79900000D03*
X118500000Y-47500000D03*
X139400000Y-54900000D03*
X109600000Y-36500000D03*
%TD*%
D46*
%TO.N,GND*%
X133863000Y-62005000D02*
X132863000Y-63005000D01*
X133863000Y-61605000D02*
X133863000Y-62005000D01*
%TO.N,+5V*%
X117100000Y-76800000D02*
X117100000Y-76900000D01*
X114550000Y-79450000D02*
X114550000Y-78350000D01*
X113050000Y-77950000D02*
X114150000Y-77950000D01*
X113825000Y-79850000D02*
X114150000Y-79850000D01*
X114150000Y-77950000D02*
X114550000Y-78350000D01*
X117100000Y-76800000D02*
X115950000Y-77950000D01*
X115950000Y-77950000D02*
X113050000Y-77950000D01*
X117100000Y-76900000D02*
X119700000Y-79500000D01*
X120700000Y-74490000D02*
X120700000Y-72900000D01*
X119700000Y-79500000D02*
X119700000Y-80580000D01*
X114150000Y-79850000D02*
X114550000Y-79450000D01*
%TO.N,Net-(BC1-TS)*%
X107450000Y-77450000D02*
X106450000Y-78450000D01*
X106450000Y-78450000D02*
X106150000Y-78450000D01*
X108650000Y-77450000D02*
X107450000Y-77450000D01*
%TO.N,Net-(BC1-ISET)*%
X115650000Y-76960000D02*
X115160000Y-77450000D01*
X115160000Y-77450000D02*
X113050000Y-77450000D01*
D47*
%TO.N,+BATT*%
X109650000Y-79450000D02*
X109700000Y-79500000D01*
D46*
X106710000Y-79190000D02*
X106710000Y-79450000D01*
X108650000Y-77950000D02*
X107950000Y-77950000D01*
X106600000Y-80400000D02*
X106710000Y-80290000D01*
X104000000Y-79000000D02*
X105400000Y-80400000D01*
D47*
X131050000Y-78765000D02*
X129835000Y-78765000D01*
X106710000Y-79450000D02*
X109650000Y-79450000D01*
X129835000Y-78765000D02*
X129600000Y-79000000D01*
D46*
X107950000Y-77950000D02*
X106710000Y-79190000D01*
X105400000Y-80400000D02*
X106600000Y-80400000D01*
X104000000Y-76710000D02*
X104000000Y-79000000D01*
X106710000Y-80290000D02*
X106710000Y-79450000D01*
%TO.N,Net-(BC1-PRETERM)*%
X114350000Y-76450000D02*
X114850000Y-75950000D01*
X114850000Y-74650000D02*
X113810000Y-73610000D01*
X114850000Y-75950000D02*
X114850000Y-74650000D01*
X113050000Y-76450000D02*
X114350000Y-76450000D01*
X113810000Y-73610000D02*
X113500000Y-73610000D01*
%TO.N,Net-(BC1-~{CHG})*%
X106150000Y-72950000D02*
X105650000Y-72950000D01*
X106650000Y-73450000D02*
X106150000Y-72950000D01*
X107650000Y-76950000D02*
X106650000Y-75950000D01*
X108650000Y-76950000D02*
X107650000Y-76950000D01*
X106650000Y-75950000D02*
X106650000Y-73450000D01*
%TO.N,ESC+*%
X133800000Y-54400000D02*
X134000000Y-54200000D01*
X134000000Y-52700000D02*
X134000000Y-51800000D01*
X134000000Y-51800000D02*
X133700000Y-51500000D01*
X134000000Y-54200000D02*
X134000000Y-52700000D01*
X133700000Y-51500000D02*
X132900000Y-51500000D01*
X134990000Y-74500000D02*
X135000000Y-74490000D01*
%TO.N,+3.3V*%
X114600000Y-60900000D02*
X113710000Y-60900000D01*
X129900000Y-37500000D02*
X129700000Y-37300000D01*
D47*
X101000000Y-67000000D02*
X103500000Y-64500000D01*
X104990000Y-69010000D02*
X103500000Y-70500000D01*
X104990000Y-66000000D02*
X104300000Y-66000000D01*
D46*
X114938000Y-62425000D02*
X115575000Y-62425000D01*
D47*
X104480000Y-64500000D02*
X104980000Y-65000000D01*
X137175000Y-58340000D02*
X137350000Y-58515000D01*
D46*
X130800000Y-53800000D02*
X130600000Y-53800000D01*
X130100000Y-51800000D02*
X130100000Y-52200000D01*
D47*
X118685000Y-65915000D02*
X118600000Y-66000000D01*
X118685000Y-64125000D02*
X118685000Y-65300000D01*
D46*
X130400000Y-51500000D02*
X130100000Y-51800000D01*
X106550000Y-50450000D02*
X106600000Y-50500000D01*
D47*
X135850000Y-58340000D02*
X137175000Y-58340000D01*
X119010000Y-60510000D02*
X119000000Y-60500000D01*
X119010000Y-62500000D02*
X119010000Y-63800000D01*
D46*
X115575000Y-62425000D02*
X116500000Y-61500000D01*
X105450000Y-56775000D02*
X106575000Y-56775000D01*
D47*
X104980000Y-63000000D02*
X104980000Y-69990000D01*
D46*
X105450000Y-50450000D02*
X106550000Y-50450000D01*
X131000000Y-51500000D02*
X130400000Y-51500000D01*
X106575000Y-56775000D02*
X106600000Y-56800000D01*
D47*
X118810000Y-64000000D02*
X118685000Y-64125000D01*
X100500000Y-67000000D02*
X101000000Y-67000000D01*
D46*
X110950000Y-46750000D02*
X110800000Y-46600000D01*
X113000000Y-46750000D02*
X110950000Y-46750000D01*
X104980000Y-69990000D02*
X104990000Y-70000000D01*
X130400000Y-52500000D02*
X131000000Y-52500000D01*
D47*
X104980000Y-63000000D02*
X104980000Y-62580000D01*
D46*
X130990000Y-37500000D02*
X129900000Y-37500000D01*
D47*
X104980000Y-62580000D02*
X103400000Y-61000000D01*
D46*
X104990000Y-69000000D02*
X104990000Y-69010000D01*
D47*
X137850000Y-59015000D02*
X137350000Y-58515000D01*
X103500000Y-64500000D02*
X104480000Y-64500000D01*
D46*
X109890000Y-60500000D02*
X107500000Y-60500000D01*
D47*
X139025000Y-59015000D02*
X137850000Y-59015000D01*
D46*
X109990000Y-60600000D02*
X109890000Y-60500000D01*
D47*
X118685000Y-65300000D02*
X118685000Y-65915000D01*
X119010000Y-62500000D02*
X119010000Y-60510000D01*
D46*
X130100000Y-52200000D02*
X130400000Y-52500000D01*
D47*
X119010000Y-63800000D02*
X118810000Y-64000000D01*
D46*
X130600000Y-53800000D02*
X130100000Y-53300000D01*
X136850000Y-63515000D02*
X137850000Y-62515000D01*
X130100000Y-53300000D02*
X130100000Y-52200000D01*
D47*
X104300000Y-66000000D02*
X103900000Y-65600000D01*
D46*
X136850000Y-63690000D02*
X136850000Y-63515000D01*
D48*
%TO.N,Net-(IC8-IO0)*%
X109450000Y-50500000D02*
X109450000Y-48750000D01*
X109450000Y-48750000D02*
X109100000Y-48400000D01*
X109900000Y-47600000D02*
X113000000Y-47600000D01*
X109100000Y-48400000D02*
X109900000Y-47600000D01*
D46*
%TO.N,Net-(IC8-EN)*%
X128550000Y-45050000D02*
X129750000Y-46250000D01*
X129750000Y-46250000D02*
X130250000Y-46250000D01*
X133450000Y-37500000D02*
X133450000Y-38705855D01*
X127000000Y-45050000D02*
X128550000Y-45050000D01*
X132010000Y-37500000D02*
X133450000Y-37500000D01*
X130250000Y-41905855D02*
X130250000Y-46250000D01*
X133450000Y-38705855D02*
X130250000Y-41905855D01*
D48*
%TO.N,/D+*%
X120850000Y-58600001D02*
X120652000Y-58798001D01*
X121600000Y-72700000D02*
X121600000Y-73300000D01*
X121200000Y-73700000D02*
X121200000Y-74490000D01*
X120652000Y-58798001D02*
X120652000Y-59330972D01*
X120652000Y-59330972D02*
X120977000Y-59655972D01*
X120902000Y-77600000D02*
X121200000Y-77302000D01*
X121200000Y-76100000D02*
X121200000Y-77302000D01*
X120977000Y-72077000D02*
X121600000Y-72700000D01*
X121000000Y-80580000D02*
X121000000Y-79529999D01*
X120850000Y-58000000D02*
X120850000Y-58600001D01*
X120977000Y-59655972D02*
X120977000Y-72077000D01*
X120902000Y-79431999D02*
X120902000Y-77600000D01*
X121000000Y-79529999D02*
X120902000Y-79431999D01*
X121600000Y-73300000D02*
X121200000Y-73700000D01*
D46*
%TO.N,Net-(BM1-G)*%
X132650000Y-79875000D02*
X131140000Y-79875000D01*
X132650000Y-80225000D02*
X132650000Y-79875000D01*
X131140000Y-79875000D02*
X131050000Y-79785000D01*
X135650000Y-83225000D02*
X132650000Y-80225000D01*
D48*
%TO.N,Net-(VR1-EN)*%
X133850000Y-65515000D02*
X133850000Y-64415000D01*
X134435000Y-66100000D02*
X133850000Y-65515000D01*
X134350000Y-61015000D02*
X134350000Y-61615000D01*
X138850000Y-64015000D02*
X138850000Y-61515000D01*
X138850000Y-64015000D02*
X138850000Y-65850000D01*
X138850000Y-65850000D02*
X138600000Y-66100000D01*
X134850000Y-60515000D02*
X134350000Y-61015000D01*
X133350000Y-64415000D02*
X133350000Y-65015000D01*
X133350000Y-65015000D02*
X133850000Y-65515000D01*
X137850000Y-60515000D02*
X134850000Y-60515000D01*
X138600000Y-66100000D02*
X134435000Y-66100000D01*
X138850000Y-61515000D02*
X137850000Y-60515000D01*
%TO.N,/D-*%
X119900000Y-72700000D02*
X119900000Y-73400000D01*
X120523000Y-59844028D02*
X120523000Y-72077000D01*
X120198000Y-58798001D02*
X120198000Y-59519028D01*
X120523000Y-72077000D02*
X119900000Y-72700000D01*
X120000000Y-58600001D02*
X120198000Y-58798001D01*
X120448000Y-79431999D02*
X120448000Y-77600000D01*
X120198000Y-59519028D02*
X120523000Y-59844028D01*
X120350000Y-79529999D02*
X120448000Y-79431999D01*
X120448000Y-77600000D02*
X120200000Y-77352000D01*
X120000000Y-58000000D02*
X120000000Y-58600001D01*
X119900000Y-73400000D02*
X120200000Y-73700000D01*
X120200000Y-77352000D02*
X120200000Y-76100000D01*
X120350000Y-80580000D02*
X120350000Y-79529999D01*
X120200000Y-73700000D02*
X120200000Y-74490000D01*
D46*
%TO.N,SC2*%
X102500000Y-71100000D02*
X100500000Y-73100000D01*
X106010000Y-68000000D02*
X107000000Y-68000000D01*
X107000000Y-68000000D02*
X107375000Y-67625000D01*
X102500000Y-69500000D02*
X102500000Y-71100000D01*
X103100000Y-68900000D02*
X102500000Y-69500000D01*
X107375000Y-67625000D02*
X109062000Y-67625000D01*
X110500000Y-67625000D02*
X109062000Y-67625000D01*
X103600000Y-68900000D02*
X103100000Y-68900000D01*
%TO.N,SD0*%
X106500000Y-62500000D02*
X106000000Y-63000000D01*
X109062000Y-64375000D02*
X108144408Y-64375000D01*
X108144408Y-64375000D02*
X107769408Y-64000000D01*
X107769408Y-64000000D02*
X107769408Y-63269408D01*
X107500000Y-63000000D02*
X106000000Y-63000000D01*
X106500000Y-61500000D02*
X106500000Y-62500000D01*
X107769408Y-63269408D02*
X107500000Y-63000000D01*
%TO.N,Net-(C7-Pad1)*%
X137575000Y-57015000D02*
X136175000Y-57015000D01*
X136175000Y-57015000D02*
X135850000Y-56690000D01*
%TO.N,SD3*%
X109062000Y-68275000D02*
X107725000Y-68275000D01*
X107000000Y-69000000D02*
X106010000Y-69000000D01*
X107725000Y-68275000D02*
X107000000Y-69000000D01*
%TO.N,SD2*%
X107025000Y-66975000D02*
X107000000Y-67000000D01*
X106010000Y-67000000D02*
X107000000Y-67000000D01*
X109037000Y-67000000D02*
X109062000Y-66975000D01*
X100500000Y-70050000D02*
X100500000Y-70000000D01*
X109062000Y-66975000D02*
X107025000Y-66975000D01*
X100500000Y-70000000D02*
X103500000Y-67000000D01*
%TO.N,SD1*%
X107000000Y-65000000D02*
X106000000Y-65000000D01*
X109062000Y-65675000D02*
X107675000Y-65675000D01*
X107675000Y-65675000D02*
X107000000Y-65000000D01*
%TO.N,SC0*%
X108025000Y-65025000D02*
X107000000Y-64000000D01*
X102500000Y-42500000D02*
X102500000Y-35600000D01*
X106010000Y-64000000D02*
X107000000Y-64000000D01*
X109062000Y-65025000D02*
X108025000Y-65025000D01*
X102500000Y-35600000D02*
X100400000Y-33500000D01*
X109500000Y-44000000D02*
X104000000Y-44000000D01*
X104000000Y-44000000D02*
X102500000Y-42500000D01*
%TO.N,SD7*%
X113725000Y-65675000D02*
X116825000Y-65675000D01*
X123500000Y-39500000D02*
X119000000Y-35000000D01*
X119000000Y-35000000D02*
X119000000Y-33500000D01*
X113300000Y-66100000D02*
X113725000Y-65675000D01*
X116825000Y-65675000D02*
X117200000Y-65300000D01*
X117200000Y-65300000D02*
X117665000Y-65300000D01*
%TO.N,SC3*%
X110500000Y-69500000D02*
X109925000Y-68925000D01*
X106010000Y-70000000D02*
X107166500Y-70000000D01*
X108241500Y-68925000D02*
X109062000Y-68925000D01*
X107166500Y-70000000D02*
X108241500Y-68925000D01*
X109925000Y-68925000D02*
X109062000Y-68925000D01*
%TO.N,SC1*%
X110175000Y-66325000D02*
X109062000Y-66325000D01*
X107500000Y-66325000D02*
X109062000Y-66325000D01*
X107175000Y-66000000D02*
X107500000Y-66325000D01*
X110500000Y-66000000D02*
X110175000Y-66325000D01*
X106010000Y-66000000D02*
X107175000Y-66000000D01*
%TO.N,SC7*%
X115758500Y-65025000D02*
X114938000Y-65025000D01*
X121000000Y-40900000D02*
X121000000Y-39500000D01*
X116700000Y-64500000D02*
X116283500Y-64500000D01*
X116283500Y-64500000D02*
X115758500Y-65025000D01*
X121000000Y-39500000D02*
X116000000Y-34500000D01*
X116000000Y-34500000D02*
X116000000Y-33500000D01*
X116700000Y-64500000D02*
X117200000Y-64000000D01*
X117200000Y-64000000D02*
X117790000Y-64000000D01*
%TO.N,AOUT2*%
X140800000Y-50500000D02*
X141800000Y-49500000D01*
X132900000Y-50500000D02*
X140800000Y-50500000D01*
%TO.N,BOUT1*%
X138600000Y-46500000D02*
X141800000Y-46500000D01*
X135100000Y-50000000D02*
X138600000Y-46500000D01*
X132900000Y-50000000D02*
X135100000Y-50000000D01*
%TO.N,BOUT2*%
X132900000Y-49500000D02*
X133900000Y-49500000D01*
X139400000Y-43500000D02*
X141800000Y-43500000D01*
X137600000Y-45300000D02*
X139400000Y-43500000D01*
X133900000Y-49500000D02*
X137600000Y-45800000D01*
X137600000Y-45800000D02*
X137600000Y-45300000D01*
%TO.N,AOUT1*%
X136600000Y-52500000D02*
X141800000Y-52500000D01*
X132900000Y-51000000D02*
X135100000Y-51000000D01*
X135100000Y-51000000D02*
X136600000Y-52500000D01*
%TO.N,ESCsignal*%
X128550000Y-53550000D02*
X129500000Y-54500000D01*
X127000000Y-53550000D02*
X128550000Y-53550000D01*
%TO.N,Net-(BC1-~{PG})*%
X114100000Y-75500000D02*
X113800000Y-75200000D01*
X113050000Y-75950000D02*
X113850000Y-75950000D01*
X113850000Y-75950000D02*
X114100000Y-75700000D01*
X111550000Y-75200000D02*
X110700000Y-74350000D01*
X114100000Y-75700000D02*
X114100000Y-75500000D01*
X113800000Y-75200000D02*
X111550000Y-75200000D01*
X110700000Y-74350000D02*
X110700000Y-73350000D01*
%TO.N,Net-(VR1-FB)*%
X133350000Y-61015000D02*
X134850000Y-59515000D01*
X139125000Y-57015000D02*
X140350000Y-57015000D01*
X140675000Y-59015000D02*
X140675000Y-57690000D01*
X136850000Y-59515000D02*
X137350000Y-60015000D01*
X133350000Y-61615000D02*
X133350000Y-61015000D01*
X134850000Y-59515000D02*
X136850000Y-59515000D01*
X140675000Y-57690000D02*
X140850000Y-57515000D01*
X139675000Y-60015000D02*
X140675000Y-59015000D01*
X140350000Y-57015000D02*
X140850000Y-57515000D01*
X137350000Y-60015000D02*
X139675000Y-60015000D01*
%TO.N,Net-(I2Ce1-SCL)*%
X117000000Y-62500000D02*
X117990000Y-62500000D01*
X118000000Y-61000000D02*
X117990000Y-61010000D01*
X117450000Y-58000000D02*
X117450000Y-59950000D01*
X117450000Y-59950000D02*
X118000000Y-60500000D01*
X118000000Y-60500000D02*
X118000000Y-61000000D01*
X117990000Y-61010000D02*
X117990000Y-62500000D01*
X114938000Y-63725000D02*
X115775000Y-63725000D01*
X115775000Y-63725000D02*
X117000000Y-62500000D01*
%TO.N,Net-(IC8-IO40)*%
X131000000Y-51000000D02*
X129800000Y-51000000D01*
X128100000Y-52700000D02*
X127000000Y-52700000D01*
X129800000Y-51000000D02*
X128100000Y-52700000D01*
%TO.N,Net-(IC8-IO41)*%
X129300000Y-50500000D02*
X127950000Y-51850000D01*
X127950000Y-51850000D02*
X127000000Y-51850000D01*
X131000000Y-50500000D02*
X129300000Y-50500000D01*
%TO.N,Net-(IC8-IO42)*%
X127600000Y-51000000D02*
X127000000Y-51000000D01*
X128600000Y-50000000D02*
X127600000Y-51000000D01*
X131000000Y-50000000D02*
X128600000Y-50000000D01*
%TO.N,Net-(IC8-IO46)*%
X130625000Y-49000000D02*
X131000000Y-49000000D01*
X129000000Y-47375000D02*
X130625000Y-49000000D01*
X129000000Y-47000000D02*
X129000000Y-47375000D01*
X127900000Y-45900000D02*
X129000000Y-47000000D01*
X127000000Y-45900000D02*
X127900000Y-45900000D01*
%TO.N,Net-(IC8-IO45)*%
X130000000Y-49500000D02*
X128950000Y-48450000D01*
X131000000Y-49500000D02*
X130000000Y-49500000D01*
X128950000Y-48450000D02*
X127000000Y-48450000D01*
%TO.N,Net-(I2Ce1-SDA)*%
X112690000Y-60900000D02*
X112690000Y-60710000D01*
X113500000Y-59900000D02*
X115100000Y-59900000D01*
X112690000Y-61818500D02*
X112690000Y-60900000D01*
X115100000Y-59900000D02*
X116600000Y-58400000D01*
X114938000Y-63075000D02*
X113946500Y-63075000D01*
X116600000Y-58400000D02*
X116600000Y-58000000D01*
X112690000Y-60710000D02*
X113500000Y-59900000D01*
X113946500Y-63075000D02*
X112690000Y-61818500D01*
%TO.N,Net-(LED1-A)*%
X105150000Y-74950000D02*
X105650000Y-74450000D01*
X105150000Y-78950000D02*
X105150000Y-74950000D01*
X105690000Y-79450000D02*
X105650000Y-79450000D01*
X105650000Y-79450000D02*
X105150000Y-78950000D01*
%TO.N,Net-(LED3-A)*%
X109200000Y-73350000D02*
X109200000Y-72600000D01*
X104000000Y-72100000D02*
X104000000Y-75690000D01*
X104400000Y-71700000D02*
X104000000Y-72100000D01*
X108300000Y-71700000D02*
X104400000Y-71700000D01*
X109200000Y-72600000D02*
X108300000Y-71700000D01*
%TO.N,I2CexpanderReset*%
X114050000Y-58000000D02*
X114050000Y-58450000D01*
X111000000Y-61400000D02*
X111010000Y-61390000D01*
X111000000Y-63000000D02*
X111000000Y-61400000D01*
X114050000Y-58450000D02*
X113500000Y-59000000D01*
X110275000Y-63725000D02*
X111000000Y-63000000D01*
X113500000Y-59000000D02*
X112500000Y-59000000D01*
X111600000Y-59500000D02*
X111010000Y-60090000D01*
X111010000Y-61390000D02*
X111010000Y-60600000D01*
X109062000Y-63725000D02*
X110275000Y-63725000D01*
X112000000Y-59500000D02*
X111600000Y-59500000D01*
X112500000Y-59000000D02*
X112000000Y-59500000D01*
X111010000Y-60090000D02*
X111010000Y-60600000D01*
D48*
%TO.N,GND*%
X122300000Y-79200000D02*
X122300000Y-80580000D01*
X107750000Y-76450000D02*
X107650000Y-76350000D01*
X131950000Y-48000000D02*
X131950000Y-48050000D01*
D46*
X129200000Y-81700000D02*
X128100000Y-80600000D01*
D48*
X122500000Y-79000000D02*
X122300000Y-79200000D01*
D46*
X140850000Y-55865000D02*
X140365000Y-55865000D01*
D47*
X132600000Y-56740000D02*
X131100000Y-56740000D01*
D46*
X106250000Y-77440000D02*
X106250000Y-76550000D01*
D48*
X121650000Y-79850000D02*
X121650000Y-80580000D01*
X114640000Y-76950000D02*
X115650000Y-75940000D01*
X119200000Y-75300000D02*
X118400000Y-76100000D01*
D47*
X131100000Y-56740000D02*
X129600000Y-56740000D01*
D46*
X140400000Y-64015000D02*
X140400000Y-62750000D01*
D48*
X120700000Y-76100000D02*
X120700000Y-75447000D01*
D46*
X132200000Y-81700000D02*
X129200000Y-81700000D01*
D47*
X111000000Y-57800000D02*
X111200000Y-58000000D01*
D48*
X135150000Y-36350000D02*
X135000000Y-36500000D01*
D47*
X111200000Y-58000000D02*
X113000000Y-58000000D01*
D48*
X113050000Y-76950000D02*
X114640000Y-76950000D01*
D46*
X113875000Y-64375000D02*
X113500000Y-64000000D01*
X140365000Y-55865000D02*
X139400000Y-54900000D01*
X114938000Y-64375000D02*
X113875000Y-64375000D01*
X110800000Y-80000000D02*
X110800000Y-80200000D01*
D48*
X110500000Y-71000000D02*
X110487000Y-71000000D01*
X122500000Y-79000000D02*
X121650000Y-79850000D01*
D46*
X132650000Y-83225000D02*
X132650000Y-82150000D01*
D48*
X109062000Y-63075000D02*
X108575000Y-63075000D01*
D46*
X128100000Y-80600000D02*
X128100000Y-79900000D01*
D48*
X131950000Y-48000000D02*
X131950000Y-50250000D01*
D46*
X110850000Y-57950000D02*
X111000000Y-57800000D01*
D48*
X120553000Y-75300000D02*
X119200000Y-75300000D01*
X135000000Y-36500000D02*
X135000000Y-37500000D01*
X107925000Y-62425000D02*
X107500000Y-62000000D01*
X110487000Y-71000000D02*
X109062000Y-69575000D01*
X108400000Y-52800000D02*
X108700000Y-52800000D01*
X109062000Y-62425000D02*
X107925000Y-62425000D01*
X107650000Y-76350000D02*
X107650000Y-74950000D01*
D46*
X132650000Y-82150000D02*
X132200000Y-81700000D01*
D48*
X120700000Y-75447000D02*
X120553000Y-75300000D01*
D46*
X109800000Y-57950000D02*
X110850000Y-57950000D01*
D48*
X108575000Y-63075000D02*
X107500000Y-62000000D01*
X108700000Y-52800000D02*
X109450000Y-52050000D01*
X131950000Y-48050000D02*
X132900000Y-49000000D01*
X108650000Y-76450000D02*
X107750000Y-76450000D01*
D47*
X134100000Y-56740000D02*
X132600000Y-56740000D01*
D48*
%TO.N,Net-(VR1-PG)*%
X134350000Y-64415000D02*
X134350000Y-65015000D01*
X134350000Y-65015000D02*
X134850000Y-65515000D01*
X136675000Y-65515000D02*
X136850000Y-65340000D01*
X134850000Y-65515000D02*
X136675000Y-65515000D01*
D46*
%TO.N,Net-(IC8-IO8)*%
X111490000Y-54090000D02*
X110800000Y-54090000D01*
X111800000Y-54400000D02*
X111490000Y-54090000D01*
X113000000Y-54400000D02*
X111800000Y-54400000D01*
%TO.N,Net-(LED2-A)*%
X109800000Y-55400000D02*
X110090000Y-55110000D01*
X110090000Y-55110000D02*
X110800000Y-55110000D01*
X109800000Y-56450000D02*
X109800000Y-55400000D01*
%TO.N,Net-(I2Ce1-SC6)*%
X118100000Y-67400000D02*
X117025000Y-66325000D01*
X117025000Y-66325000D02*
X114900000Y-66325000D01*
%TO.N,Net-(I2Ce1-SD6)*%
X116800000Y-67500000D02*
X116275000Y-66975000D01*
X116800000Y-68100000D02*
X116800000Y-67500000D01*
X116275000Y-66975000D02*
X114900000Y-66975000D01*
X118100000Y-69400000D02*
X116800000Y-68100000D01*
%TO.N,Net-(IC8-IO47)*%
X122500000Y-60800000D02*
X122500000Y-59900000D01*
X122500000Y-59900000D02*
X123400000Y-59000000D01*
X123400000Y-59000000D02*
X123400000Y-58000000D01*
%TD*%
%TA.AperFunction,Conductor*%
%TO.N,+3.3V*%
G36*
X134493039Y-57834685D02*
G01*
X134538794Y-57887489D01*
X134550000Y-57939000D01*
X134550000Y-58667855D01*
X134530315Y-58734894D01*
X134518679Y-58750236D01*
X132950000Y-60515000D01*
X132950000Y-61791000D01*
X132930315Y-61858039D01*
X132877511Y-61903794D01*
X132826000Y-61915000D01*
X132374000Y-61915000D01*
X132306961Y-61895315D01*
X132261206Y-61842511D01*
X132250000Y-61791000D01*
X132250000Y-61015000D01*
X132249999Y-61014999D01*
X129200115Y-58752182D01*
X129158005Y-58696428D01*
X129150000Y-58652598D01*
X129150000Y-57939000D01*
X129169685Y-57871961D01*
X129222489Y-57826206D01*
X129274000Y-57815000D01*
X134426000Y-57815000D01*
X134493039Y-57834685D01*
G37*
%TD.AperFunction*%
%TD*%
%TA.AperFunction,Conductor*%
%TO.N,GND*%
G36*
X143249456Y-79062835D02*
G01*
X143291806Y-79118408D01*
X143300000Y-79162736D01*
X143300000Y-80976000D01*
X143280315Y-81043039D01*
X143227511Y-81088794D01*
X143176000Y-81100000D01*
X141270208Y-81100000D01*
X141203169Y-81080315D01*
X141163879Y-81039798D01*
X141040787Y-80834645D01*
X140300000Y-79600000D01*
X138600000Y-79600000D01*
X138600000Y-76600000D01*
X139900000Y-76600000D01*
X143249456Y-79062835D01*
G37*
%TD.AperFunction*%
%TD*%
%TA.AperFunction,Conductor*%
%TO.N,GND*%
G36*
X135950000Y-63815000D02*
G01*
X129100000Y-63815000D01*
X129100000Y-62215000D01*
X135950000Y-62215000D01*
X135950000Y-63815000D01*
G37*
%TD.AperFunction*%
%TD*%
%TA.AperFunction,Conductor*%
%TO.N,GND*%
G36*
X103232405Y-71304076D02*
G01*
X103237939Y-71306540D01*
X103237940Y-71306540D01*
X103237942Y-71306541D01*
X103292590Y-71318156D01*
X103411355Y-71343400D01*
X103569819Y-71343400D01*
X103636858Y-71363085D01*
X103682613Y-71415889D01*
X103692557Y-71485047D01*
X103663532Y-71548603D01*
X103657500Y-71555081D01*
X103599992Y-71612589D01*
X103570129Y-71642452D01*
X103512586Y-71699994D01*
X103512585Y-71699996D01*
X103443233Y-71803789D01*
X103441586Y-71808393D01*
X103396614Y-71916964D01*
X103396612Y-71916972D01*
X103372500Y-72038192D01*
X103372500Y-75047404D01*
X103352815Y-75114443D01*
X103336181Y-75135085D01*
X103308869Y-75162396D01*
X103308863Y-75162404D01*
X103227131Y-75300606D01*
X103227129Y-75300611D01*
X103182335Y-75454791D01*
X103182334Y-75454797D01*
X103179500Y-75490811D01*
X103179500Y-75889169D01*
X103179501Y-75889191D01*
X103182335Y-75925205D01*
X103227129Y-76079388D01*
X103227132Y-76079395D01*
X103261128Y-76136881D01*
X103278309Y-76204605D01*
X103261128Y-76263119D01*
X103227132Y-76320604D01*
X103227129Y-76320611D01*
X103182335Y-76474791D01*
X103182334Y-76474797D01*
X103179500Y-76510811D01*
X103179500Y-76909169D01*
X103179501Y-76909191D01*
X103182335Y-76945205D01*
X103227129Y-77099388D01*
X103227131Y-77099393D01*
X103308865Y-77237598D01*
X103336181Y-77264914D01*
X103369666Y-77326235D01*
X103372500Y-77352595D01*
X103372500Y-79061807D01*
X103396612Y-79183027D01*
X103396614Y-79183035D01*
X103422950Y-79246615D01*
X103443915Y-79297229D01*
X103443920Y-79297239D01*
X103494566Y-79373035D01*
X103494566Y-79373036D01*
X103512585Y-79400003D01*
X103512591Y-79400011D01*
X104500900Y-80388319D01*
X104534385Y-80449642D01*
X104529401Y-80519333D01*
X104487529Y-80575267D01*
X104422065Y-80599684D01*
X104413219Y-80600000D01*
X103970207Y-80600000D01*
X103903168Y-80580315D01*
X103857413Y-80527511D01*
X103846886Y-80488962D01*
X103840282Y-80426135D01*
X103829514Y-80323681D01*
X103774729Y-80155069D01*
X103774728Y-80155068D01*
X103774728Y-80155066D01*
X103774727Y-80155065D01*
X103735410Y-80086966D01*
X103686084Y-80001531D01*
X103617238Y-79925070D01*
X103567456Y-79869780D01*
X103495738Y-79817675D01*
X103424023Y-79765571D01*
X103424021Y-79765570D01*
X103424022Y-79765570D01*
X103262066Y-79693461D01*
X103262058Y-79693459D01*
X103088645Y-79656600D01*
X102911355Y-79656600D01*
X102860286Y-79667454D01*
X102849779Y-79669688D01*
X102780112Y-79664370D01*
X102724379Y-79622232D01*
X102700275Y-79556652D01*
X102700000Y-79548397D01*
X102700000Y-71838781D01*
X102719685Y-71771742D01*
X102736319Y-71751100D01*
X102987409Y-71500010D01*
X102987411Y-71500008D01*
X102991091Y-71494500D01*
X103056083Y-71397233D01*
X103067403Y-71369902D01*
X103111243Y-71315498D01*
X103177536Y-71293432D01*
X103232405Y-71304076D01*
G37*
%TD.AperFunction*%
%TA.AperFunction,Conductor*%
G36*
X111938948Y-78388178D02*
G01*
X111950534Y-78401549D01*
X111992452Y-78457544D01*
X111992455Y-78457547D01*
X112107664Y-78543793D01*
X112107671Y-78543797D01*
X112242517Y-78594091D01*
X112242516Y-78594091D01*
X112249444Y-78594835D01*
X112302127Y-78600500D01*
X113797872Y-78600499D01*
X113798500Y-78600499D01*
X113865539Y-78620184D01*
X113911294Y-78672987D01*
X113922500Y-78724499D01*
X113922500Y-78750500D01*
X113902815Y-78817539D01*
X113850011Y-78863294D01*
X113798500Y-78874500D01*
X113551663Y-78874500D01*
X113551644Y-78874501D01*
X113452292Y-78884650D01*
X113452289Y-78884651D01*
X113291305Y-78937996D01*
X113291294Y-78938001D01*
X113146959Y-79027029D01*
X113146953Y-79027033D01*
X113137324Y-79036663D01*
X113076000Y-79070146D01*
X113006308Y-79065159D01*
X112961965Y-79036660D01*
X112952732Y-79027427D01*
X112952728Y-79027424D01*
X112808492Y-78938457D01*
X112808481Y-78938452D01*
X112647606Y-78885144D01*
X112548322Y-78875000D01*
X112525000Y-78875000D01*
X112525000Y-79976000D01*
X112505315Y-80043039D01*
X112452511Y-80088794D01*
X112401000Y-80100000D01*
X111325001Y-80100000D01*
X111325001Y-80148322D01*
X111335144Y-80247607D01*
X111388452Y-80408481D01*
X111388455Y-80408487D01*
X111389943Y-80410899D01*
X111390458Y-80412784D01*
X111391507Y-80415032D01*
X111391123Y-80415211D01*
X111408386Y-80478291D01*
X111387466Y-80544955D01*
X111333826Y-80589727D01*
X111284407Y-80600000D01*
X110141760Y-80600000D01*
X110074721Y-80580315D01*
X110028966Y-80527511D01*
X110019022Y-80458353D01*
X110048047Y-80394797D01*
X110083307Y-80366642D01*
X110227552Y-80289541D01*
X110227551Y-80289541D01*
X110227554Y-80289540D01*
X110371449Y-80171449D01*
X110489540Y-80027554D01*
X110577290Y-79863385D01*
X110631326Y-79685252D01*
X110644482Y-79551677D01*
X111325000Y-79551677D01*
X111325000Y-79600000D01*
X112025000Y-79600000D01*
X112025000Y-78874999D01*
X112001693Y-78875000D01*
X112001674Y-78875001D01*
X111902392Y-78885144D01*
X111741518Y-78938452D01*
X111741507Y-78938457D01*
X111597271Y-79027424D01*
X111597267Y-79027427D01*
X111477427Y-79147267D01*
X111477424Y-79147271D01*
X111388457Y-79291507D01*
X111388452Y-79291518D01*
X111335144Y-79452393D01*
X111325000Y-79551677D01*
X110644482Y-79551677D01*
X110649572Y-79500000D01*
X110631326Y-79314748D01*
X110577290Y-79136615D01*
X110577288Y-79136612D01*
X110577288Y-79136610D01*
X110489541Y-78972447D01*
X110489539Y-78972445D01*
X110371449Y-78828550D01*
X110227554Y-78710460D01*
X110227552Y-78710458D01*
X110065533Y-78623857D01*
X110015688Y-78574895D01*
X110000228Y-78506757D01*
X110024060Y-78441077D01*
X110079618Y-78398708D01*
X110123980Y-78390499D01*
X111682872Y-78390499D01*
X111742483Y-78384091D01*
X111807935Y-78359678D01*
X111877625Y-78354694D01*
X111938948Y-78388178D01*
G37*
%TD.AperFunction*%
%TA.AperFunction,Conductor*%
G36*
X105702727Y-36007964D02*
G01*
X105769712Y-36027827D01*
X105815327Y-36080752D01*
X105825087Y-36149937D01*
X105820327Y-36170281D01*
X105770488Y-36323674D01*
X105770486Y-36323679D01*
X105751954Y-36500000D01*
X105770486Y-36676320D01*
X105770487Y-36676322D01*
X105825271Y-36844933D01*
X105825272Y-36844934D01*
X105880911Y-36941303D01*
X105913916Y-36998469D01*
X105961414Y-37051221D01*
X106032543Y-37130219D01*
X106032546Y-37130221D01*
X106175977Y-37234429D01*
X106337933Y-37306538D01*
X106337936Y-37306538D01*
X106337939Y-37306540D01*
X106511355Y-37343400D01*
X106688645Y-37343400D01*
X106862061Y-37306540D01*
X106862064Y-37306538D01*
X106862066Y-37306538D01*
X106894869Y-37291932D01*
X107024023Y-37234429D01*
X107167454Y-37130221D01*
X107173345Y-37123679D01*
X107192601Y-37102292D01*
X107286084Y-36998469D01*
X107374729Y-36844931D01*
X107429514Y-36676319D01*
X107448046Y-36500000D01*
X107429514Y-36323681D01*
X107381219Y-36175046D01*
X107379225Y-36105206D01*
X107415306Y-36045373D01*
X107478007Y-36014545D01*
X107499460Y-36012730D01*
X116598415Y-36036865D01*
X116665400Y-36056728D01*
X116685765Y-36073184D01*
X120336181Y-39723600D01*
X120369666Y-39784923D01*
X120372500Y-39811281D01*
X120372500Y-40288866D01*
X120352815Y-40355905D01*
X120340652Y-40371836D01*
X120313917Y-40401529D01*
X120313913Y-40401534D01*
X120225272Y-40555065D01*
X120225271Y-40555066D01*
X120170487Y-40723677D01*
X120170486Y-40723679D01*
X120151954Y-40900000D01*
X120170486Y-41076320D01*
X120170487Y-41076322D01*
X120225271Y-41244933D01*
X120225272Y-41244934D01*
X120241108Y-41272362D01*
X120313916Y-41398469D01*
X120361414Y-41451221D01*
X120432543Y-41530219D01*
X120432546Y-41530221D01*
X120575977Y-41634429D01*
X120737933Y-41706538D01*
X120737936Y-41706538D01*
X120737939Y-41706540D01*
X120911355Y-41743400D01*
X121088645Y-41743400D01*
X121262061Y-41706540D01*
X121262064Y-41706538D01*
X121262066Y-41706538D01*
X121317133Y-41682020D01*
X121424023Y-41634429D01*
X121567454Y-41530221D01*
X121686084Y-41398469D01*
X121774729Y-41244931D01*
X121829514Y-41076319D01*
X121848046Y-40900000D01*
X121829514Y-40723681D01*
X121774729Y-40555069D01*
X121774728Y-40555068D01*
X121774728Y-40555066D01*
X121774727Y-40555065D01*
X121686086Y-40401534D01*
X121686082Y-40401529D01*
X121659348Y-40371836D01*
X121629120Y-40308843D01*
X121627500Y-40288866D01*
X121627500Y-39438197D01*
X121627499Y-39438191D01*
X121626272Y-39432019D01*
X121626272Y-39432018D01*
X121603387Y-39316972D01*
X121603386Y-39316966D01*
X121575676Y-39250070D01*
X121556083Y-39202767D01*
X121524212Y-39155069D01*
X121487414Y-39099996D01*
X121487413Y-39099994D01*
X121487411Y-39099992D01*
X121400008Y-39012589D01*
X118641618Y-36254199D01*
X118608133Y-36192876D01*
X118613117Y-36123184D01*
X118654989Y-36067251D01*
X118720453Y-36042834D01*
X118729603Y-36042518D01*
X119105064Y-36043514D01*
X119172049Y-36063377D01*
X119192414Y-36079833D01*
X122625528Y-39512947D01*
X122659013Y-39574270D01*
X122661167Y-39587661D01*
X122670486Y-39676319D01*
X122670487Y-39676321D01*
X122670487Y-39676323D01*
X122725271Y-39844932D01*
X122725272Y-39844934D01*
X122798450Y-39971682D01*
X122813916Y-39998469D01*
X122861414Y-40051221D01*
X122932543Y-40130219D01*
X122932546Y-40130221D01*
X123075977Y-40234429D01*
X123237933Y-40306538D01*
X123237936Y-40306538D01*
X123237939Y-40306540D01*
X123411355Y-40343400D01*
X123588645Y-40343400D01*
X123762061Y-40306540D01*
X123762064Y-40306538D01*
X123762066Y-40306538D01*
X123801757Y-40288866D01*
X123924023Y-40234429D01*
X124067454Y-40130221D01*
X124186084Y-39998469D01*
X124274729Y-39844931D01*
X124329514Y-39676319D01*
X124348046Y-39500000D01*
X124329514Y-39323681D01*
X124274729Y-39155069D01*
X124274728Y-39155068D01*
X124274728Y-39155066D01*
X124274727Y-39155065D01*
X124242933Y-39099996D01*
X124186084Y-39001531D01*
X124132677Y-38942217D01*
X124067456Y-38869780D01*
X123995738Y-38817675D01*
X123924023Y-38765571D01*
X123924021Y-38765570D01*
X123924022Y-38765570D01*
X123762066Y-38693461D01*
X123762058Y-38693459D01*
X123588639Y-38656598D01*
X123582434Y-38655946D01*
X123517822Y-38629356D01*
X123507727Y-38620308D01*
X121942500Y-37055081D01*
X121909015Y-36993758D01*
X121913999Y-36924066D01*
X121955871Y-36868133D01*
X122021335Y-36843716D01*
X122030181Y-36843400D01*
X122088645Y-36843400D01*
X122262061Y-36806540D01*
X122262064Y-36806538D01*
X122262066Y-36806538D01*
X122323635Y-36779125D01*
X122424023Y-36734429D01*
X122567454Y-36630221D01*
X122686084Y-36498469D01*
X122774729Y-36344931D01*
X122829514Y-36176319D01*
X122830728Y-36164764D01*
X122857308Y-36100152D01*
X122914603Y-36060165D01*
X122954370Y-36053725D01*
X140276050Y-36099671D01*
X140343037Y-36119534D01*
X140388652Y-36172459D01*
X140399721Y-36223950D01*
X140389787Y-40644723D01*
X140386002Y-42329331D01*
X140385059Y-42748779D01*
X140365224Y-42815774D01*
X140312317Y-42861410D01*
X140261059Y-42872500D01*
X139338194Y-42872500D01*
X139216970Y-42896613D01*
X139216960Y-42896616D01*
X139102773Y-42943913D01*
X139102760Y-42943920D01*
X138999992Y-43012588D01*
X138999988Y-43012591D01*
X137609766Y-44402815D01*
X137199992Y-44812589D01*
X137169182Y-44843399D01*
X137112586Y-44899994D01*
X137112585Y-44899996D01*
X137043233Y-45003789D01*
X137041586Y-45008393D01*
X136996614Y-45116964D01*
X136996612Y-45116972D01*
X136973526Y-45233032D01*
X136973527Y-45233033D01*
X136972500Y-45238196D01*
X136972500Y-45488718D01*
X136952815Y-45555757D01*
X136936181Y-45576399D01*
X136211371Y-46301208D01*
X136150048Y-46334693D01*
X136080356Y-46329709D01*
X136024423Y-46287837D01*
X136000006Y-46222373D01*
X136000162Y-46202718D01*
X136004775Y-46149999D01*
X135985712Y-45932115D01*
X135985710Y-45932105D01*
X135929105Y-45720849D01*
X135929101Y-45720840D01*
X135836667Y-45522614D01*
X135836666Y-45522612D01*
X135793124Y-45460428D01*
X135793124Y-45460427D01*
X135232962Y-46020589D01*
X135215925Y-45957007D01*
X135150099Y-45842993D01*
X135057007Y-45749901D01*
X134942993Y-45684075D01*
X134879409Y-45667037D01*
X135439571Y-45106874D01*
X135377387Y-45063333D01*
X135179159Y-44970898D01*
X135179150Y-44970894D01*
X134967894Y-44914289D01*
X134967884Y-44914287D01*
X134750001Y-44895225D01*
X134749999Y-44895225D01*
X134532115Y-44914287D01*
X134532105Y-44914289D01*
X134320849Y-44970894D01*
X134320840Y-44970898D01*
X134122613Y-45063333D01*
X134060428Y-45106874D01*
X134620591Y-45667037D01*
X134557007Y-45684075D01*
X134442993Y-45749901D01*
X134349901Y-45842993D01*
X134284075Y-45957007D01*
X134267037Y-46020591D01*
X133706874Y-45460428D01*
X133663333Y-45522613D01*
X133570898Y-45720840D01*
X133570894Y-45720849D01*
X133514289Y-45932105D01*
X133514287Y-45932115D01*
X133495225Y-46149999D01*
X133495225Y-46150000D01*
X133514287Y-46367884D01*
X133514289Y-46367894D01*
X133570894Y-46579150D01*
X133570898Y-46579159D01*
X133663333Y-46777387D01*
X133706874Y-46839571D01*
X134267037Y-46279408D01*
X134284075Y-46342993D01*
X134349901Y-46457007D01*
X134442993Y-46550099D01*
X134557007Y-46615925D01*
X134620590Y-46632962D01*
X134060427Y-47193124D01*
X134122612Y-47236666D01*
X134320840Y-47329101D01*
X134320849Y-47329105D01*
X134532105Y-47385710D01*
X134532115Y-47385712D01*
X134749999Y-47404775D01*
X134802718Y-47400162D01*
X134871218Y-47413928D01*
X134921402Y-47462542D01*
X134937336Y-47530571D01*
X134913962Y-47596415D01*
X134901208Y-47611371D01*
X133807567Y-48705012D01*
X133746244Y-48738497D01*
X133676552Y-48733513D01*
X133620619Y-48691641D01*
X133603703Y-48660662D01*
X133593353Y-48632911D01*
X133593350Y-48632906D01*
X133507190Y-48517812D01*
X133507187Y-48517809D01*
X133392093Y-48431649D01*
X133392086Y-48431645D01*
X133257379Y-48381403D01*
X133257372Y-48381401D01*
X133197844Y-48375000D01*
X133025000Y-48375000D01*
X133025000Y-48748500D01*
X133005315Y-48815539D01*
X132952511Y-48861294D01*
X132901000Y-48872500D01*
X132899000Y-48872500D01*
X132831961Y-48852815D01*
X132786206Y-48800011D01*
X132775000Y-48748500D01*
X132775000Y-48375000D01*
X132602155Y-48375000D01*
X132542627Y-48381401D01*
X132542620Y-48381403D01*
X132407913Y-48431645D01*
X132407906Y-48431649D01*
X132292812Y-48517809D01*
X132292809Y-48517812D01*
X132206649Y-48632906D01*
X132178695Y-48707853D01*
X132199921Y-48771626D01*
X132200000Y-48776053D01*
X132200000Y-49126930D01*
X132192182Y-49170263D01*
X132157499Y-49263255D01*
X132155909Y-49267517D01*
X132149500Y-49327127D01*
X132149500Y-49327134D01*
X132149500Y-49327135D01*
X132149500Y-49672869D01*
X132149501Y-49672879D01*
X132156367Y-49736751D01*
X132156367Y-49763257D01*
X132155909Y-49767516D01*
X132155909Y-49767517D01*
X132149500Y-49827127D01*
X132149500Y-49827130D01*
X132149500Y-49827133D01*
X132149500Y-50172869D01*
X132149501Y-50172879D01*
X132156367Y-50236751D01*
X132156367Y-50263257D01*
X132155909Y-50267516D01*
X132155909Y-50267517D01*
X132149500Y-50327127D01*
X132149500Y-50327130D01*
X132149500Y-50327133D01*
X132149500Y-50672869D01*
X132149501Y-50672879D01*
X132156367Y-50736751D01*
X132156367Y-50763257D01*
X132155909Y-50767516D01*
X132155909Y-50767517D01*
X132149500Y-50827127D01*
X132149500Y-50827130D01*
X132149500Y-50827133D01*
X132149500Y-51172869D01*
X132149501Y-51172879D01*
X132156367Y-51236751D01*
X132156367Y-51263257D01*
X132155909Y-51267516D01*
X132155909Y-51267517D01*
X132149500Y-51327127D01*
X132149500Y-51327130D01*
X132149500Y-51327133D01*
X132149500Y-51672869D01*
X132149501Y-51672876D01*
X132155908Y-51732483D01*
X132206202Y-51867328D01*
X132206206Y-51867335D01*
X132292452Y-51982544D01*
X132292455Y-51982547D01*
X132407664Y-52068793D01*
X132407671Y-52068797D01*
X132452618Y-52085561D01*
X132542517Y-52119091D01*
X132602127Y-52125500D01*
X132815924Y-52125499D01*
X132832116Y-52127094D01*
X132832135Y-52126903D01*
X132838194Y-52127500D01*
X132838197Y-52127500D01*
X133027603Y-52127500D01*
X133094642Y-52147185D01*
X133140397Y-52199989D01*
X133150341Y-52269147D01*
X133136961Y-52309954D01*
X133122711Y-52336612D01*
X133068673Y-52514749D01*
X133050428Y-52700000D01*
X133068673Y-52885250D01*
X133122711Y-53063389D01*
X133210458Y-53227552D01*
X133213846Y-53232622D01*
X133212032Y-53233833D01*
X133235511Y-53289089D01*
X133223731Y-53357958D01*
X133176588Y-53409527D01*
X133155681Y-53419647D01*
X133057669Y-53456203D01*
X133057664Y-53456206D01*
X132942455Y-53542452D01*
X132942452Y-53542455D01*
X132856206Y-53657664D01*
X132856202Y-53657671D01*
X132805908Y-53792517D01*
X132799501Y-53852116D01*
X132799501Y-53852123D01*
X132799500Y-53852135D01*
X132799500Y-54947870D01*
X132799501Y-54947876D01*
X132805908Y-55007483D01*
X132856202Y-55142328D01*
X132856206Y-55142335D01*
X132942452Y-55257544D01*
X132942455Y-55257547D01*
X133057664Y-55343793D01*
X133057671Y-55343797D01*
X133192517Y-55394091D01*
X133192516Y-55394091D01*
X133199444Y-55394835D01*
X133252127Y-55400500D01*
X134347872Y-55400499D01*
X134407483Y-55394091D01*
X134542331Y-55343796D01*
X134657546Y-55257546D01*
X134743796Y-55142331D01*
X134794091Y-55007483D01*
X134800500Y-54947873D01*
X134800499Y-53852128D01*
X134794091Y-53792517D01*
X134786625Y-53772500D01*
X134743797Y-53657671D01*
X134743795Y-53657668D01*
X134743792Y-53657664D01*
X134657546Y-53542454D01*
X134657544Y-53542452D01*
X134654607Y-53538529D01*
X134630189Y-53473064D01*
X134645040Y-53404791D01*
X134668210Y-53376827D01*
X134667141Y-53375758D01*
X134671446Y-53371452D01*
X134671447Y-53371450D01*
X134671449Y-53371449D01*
X134789540Y-53227554D01*
X134877290Y-53063385D01*
X134931326Y-52885252D01*
X134949572Y-52700000D01*
X134931326Y-52514748D01*
X134877290Y-52336615D01*
X134877288Y-52336612D01*
X134877288Y-52336610D01*
X134789541Y-52172447D01*
X134789539Y-52172445D01*
X134671446Y-52028547D01*
X134667142Y-52024243D01*
X134668319Y-52023065D01*
X134633495Y-51971923D01*
X134627500Y-51933834D01*
X134627500Y-51751500D01*
X134647185Y-51684461D01*
X134699989Y-51638706D01*
X134751500Y-51627500D01*
X134788719Y-51627500D01*
X134855758Y-51647185D01*
X134876400Y-51663819D01*
X136199988Y-52987408D01*
X136199992Y-52987411D01*
X136302760Y-53056079D01*
X136302773Y-53056086D01*
X136405514Y-53098642D01*
X136416965Y-53103385D01*
X136416969Y-53103385D01*
X136416970Y-53103386D01*
X136538194Y-53127500D01*
X136538197Y-53127500D01*
X136661803Y-53127500D01*
X140237457Y-53127500D01*
X140304496Y-53147185D01*
X140350251Y-53199989D01*
X140361456Y-53251776D01*
X140354688Y-56263779D01*
X140334853Y-56330774D01*
X140281946Y-56376410D01*
X140230688Y-56387500D01*
X140038771Y-56387500D01*
X139971732Y-56367815D01*
X139933233Y-56328598D01*
X139922968Y-56311956D01*
X139803044Y-56192032D01*
X139803040Y-56192029D01*
X139658705Y-56103001D01*
X139658699Y-56102998D01*
X139658697Y-56102997D01*
X139611399Y-56087324D01*
X139497709Y-56049651D01*
X139398346Y-56039500D01*
X138851662Y-56039500D01*
X138851644Y-56039501D01*
X138752292Y-56049650D01*
X138752289Y-56049651D01*
X138591305Y-56102996D01*
X138591294Y-56103001D01*
X138446959Y-56192029D01*
X138446955Y-56192032D01*
X138437681Y-56201307D01*
X138376358Y-56234792D01*
X138306666Y-56229808D01*
X138262319Y-56201307D01*
X138253044Y-56192032D01*
X138253040Y-56192029D01*
X138108705Y-56103001D01*
X138108699Y-56102998D01*
X138108697Y-56102997D01*
X138061399Y-56087324D01*
X137947709Y-56049651D01*
X137848346Y-56039500D01*
X137301662Y-56039500D01*
X137301644Y-56039501D01*
X137202292Y-56049650D01*
X137202289Y-56049651D01*
X137041305Y-56102996D01*
X137041300Y-56102998D01*
X136906177Y-56186344D01*
X136838784Y-56204784D01*
X136772121Y-56183861D01*
X136734965Y-56144957D01*
X136680472Y-56054815D01*
X136680470Y-56054813D01*
X136680469Y-56054811D01*
X136560188Y-55934530D01*
X136555058Y-55931429D01*
X136414606Y-55846522D01*
X136252196Y-55795914D01*
X136252194Y-55795913D01*
X136252192Y-55795913D01*
X136202778Y-55791423D01*
X136181616Y-55789500D01*
X135518384Y-55789500D01*
X135499145Y-55791248D01*
X135447807Y-55795913D01*
X135285393Y-55846522D01*
X135139813Y-55934529D01*
X135055004Y-56019338D01*
X134993680Y-56052822D01*
X134923989Y-56047838D01*
X134879642Y-56019337D01*
X134802732Y-55942427D01*
X134802728Y-55942424D01*
X134658492Y-55853457D01*
X134658481Y-55853452D01*
X134497606Y-55800144D01*
X134398322Y-55790000D01*
X134350000Y-55790000D01*
X134350000Y-56866000D01*
X134330315Y-56933039D01*
X134277511Y-56978794D01*
X134226000Y-56990000D01*
X128625001Y-56990000D01*
X128625001Y-57013322D01*
X128635144Y-57112607D01*
X128688452Y-57273481D01*
X128688454Y-57273486D01*
X128781103Y-57423692D01*
X128799543Y-57491084D01*
X128778621Y-57557748D01*
X128769278Y-57569991D01*
X128744433Y-57598664D01*
X128744430Y-57598668D01*
X128684664Y-57729534D01*
X128664975Y-57796583D01*
X128664973Y-57796597D01*
X128659127Y-57837251D01*
X128654097Y-57858602D01*
X128634651Y-57917291D01*
X128624500Y-58016647D01*
X128624500Y-58563337D01*
X128624501Y-58563355D01*
X128634650Y-58662707D01*
X128644967Y-58693841D01*
X128650754Y-58721656D01*
X128652723Y-58743396D01*
X128652727Y-58743428D01*
X128660730Y-58787245D01*
X128685134Y-58875101D01*
X128685136Y-58875107D01*
X128754629Y-59001088D01*
X128754633Y-59001096D01*
X128795981Y-59055841D01*
X128796677Y-59056782D01*
X128796740Y-59056844D01*
X128796741Y-59056846D01*
X128898914Y-59158148D01*
X130821138Y-60584314D01*
X130823298Y-60585916D01*
X130865408Y-60641670D01*
X130870691Y-60711339D01*
X130837469Y-60772805D01*
X130776289Y-60806552D01*
X130749413Y-60809500D01*
X128698605Y-60809500D01*
X128643149Y-60796408D01*
X128602020Y-60775843D01*
X128583165Y-60764202D01*
X128492331Y-60696204D01*
X128492328Y-60696202D01*
X128357482Y-60645908D01*
X128357483Y-60645908D01*
X128297883Y-60639501D01*
X128297881Y-60639500D01*
X128297873Y-60639500D01*
X128297865Y-60639500D01*
X126894697Y-60639500D01*
X126892874Y-60639487D01*
X126886482Y-60639393D01*
X124983254Y-60611405D01*
X124983253Y-60611405D01*
X124983247Y-60611405D01*
X124983242Y-60611405D01*
X124872004Y-60622126D01*
X124871986Y-60622128D01*
X124818663Y-60633320D01*
X124818660Y-60633321D01*
X124811196Y-60635774D01*
X124785737Y-60641262D01*
X124742516Y-60645908D01*
X124607671Y-60696202D01*
X124607664Y-60696206D01*
X124492455Y-60782452D01*
X124492452Y-60782455D01*
X124406206Y-60897664D01*
X124406202Y-60897671D01*
X124355908Y-61032517D01*
X124349501Y-61092116D01*
X124349500Y-61092135D01*
X124349500Y-61197191D01*
X124348238Y-61214836D01*
X124344500Y-61240834D01*
X124344500Y-61991001D01*
X124348790Y-62030907D01*
X124349500Y-62044160D01*
X124349500Y-62167869D01*
X124349501Y-62167876D01*
X124355908Y-62227483D01*
X124406202Y-62362328D01*
X124406206Y-62362335D01*
X124492452Y-62477544D01*
X124492455Y-62477547D01*
X124607664Y-62563793D01*
X124607671Y-62563797D01*
X124652618Y-62580561D01*
X124742517Y-62614091D01*
X124802127Y-62620500D01*
X124949331Y-62620499D01*
X124949337Y-62620500D01*
X124974000Y-62620500D01*
X128212487Y-62620500D01*
X128212983Y-62620499D01*
X128297871Y-62620499D01*
X128297872Y-62620499D01*
X128357483Y-62614091D01*
X128492331Y-62563796D01*
X128541259Y-62527166D01*
X128557875Y-62517121D01*
X128557786Y-62516964D01*
X128561636Y-62514776D01*
X128561640Y-62514775D01*
X128671813Y-62441325D01*
X128738512Y-62420518D01*
X128740596Y-62420500D01*
X129100000Y-62420500D01*
X129100000Y-63606344D01*
X129043707Y-63589815D01*
X129023065Y-63573181D01*
X128643776Y-63193892D01*
X128643761Y-63193877D01*
X128636951Y-63187760D01*
X128620550Y-63169825D01*
X128607546Y-63152454D01*
X128492331Y-63066204D01*
X128492329Y-63066203D01*
X128492328Y-63066202D01*
X128357482Y-63015908D01*
X128357483Y-63015908D01*
X128297883Y-63009501D01*
X128297881Y-63009500D01*
X128297873Y-63009500D01*
X128198638Y-63009500D01*
X124974000Y-63009500D01*
X124973991Y-63009500D01*
X124802130Y-63009500D01*
X124802123Y-63009501D01*
X124742516Y-63015908D01*
X124607671Y-63066202D01*
X124607664Y-63066206D01*
X124492455Y-63152452D01*
X124492452Y-63152455D01*
X124406206Y-63267664D01*
X124406202Y-63267671D01*
X124355908Y-63402517D01*
X124349501Y-63462116D01*
X124349500Y-63462135D01*
X124349500Y-63595354D01*
X124348238Y-63612999D01*
X124345124Y-63634662D01*
X124344500Y-63639000D01*
X124344500Y-64591000D01*
X124344501Y-64591009D01*
X124356052Y-64698450D01*
X124356054Y-64698462D01*
X124367260Y-64749972D01*
X124401383Y-64852497D01*
X124401386Y-64852503D01*
X124479171Y-64973537D01*
X124479179Y-64973548D01*
X124524923Y-65026340D01*
X124524926Y-65026343D01*
X124524930Y-65026347D01*
X124633664Y-65120567D01*
X124633667Y-65120568D01*
X124633668Y-65120569D01*
X124711194Y-65155975D01*
X124764541Y-65180338D01*
X124831580Y-65200023D01*
X124831584Y-65200024D01*
X124974000Y-65220500D01*
X130836877Y-65220500D01*
X130903916Y-65240185D01*
X130949671Y-65292989D01*
X130959615Y-65362147D01*
X130930590Y-65425703D01*
X130897669Y-65452575D01*
X130415388Y-65723857D01*
X130415380Y-65723862D01*
X130316431Y-65796644D01*
X130275166Y-65835552D01*
X130272901Y-65837688D01*
X130270415Y-65840682D01*
X130194431Y-65932186D01*
X130134663Y-66063057D01*
X130114976Y-66130102D01*
X130094500Y-66272521D01*
X130094500Y-71370500D01*
X130074815Y-71437539D01*
X130022011Y-71483294D01*
X129970500Y-71494500D01*
X126123995Y-71494500D01*
X126084089Y-71498790D01*
X126070837Y-71499500D01*
X125952130Y-71499500D01*
X125952123Y-71499501D01*
X125892516Y-71505908D01*
X125757671Y-71556202D01*
X125757664Y-71556206D01*
X125642455Y-71642452D01*
X125642452Y-71642455D01*
X125556206Y-71757664D01*
X125556202Y-71757671D01*
X125505908Y-71892517D01*
X125499501Y-71952116D01*
X125499500Y-71952135D01*
X125499500Y-72080354D01*
X125498238Y-72097999D01*
X125494500Y-72123996D01*
X125494500Y-75118986D01*
X125494513Y-75122501D01*
X125494528Y-75124688D01*
X125494572Y-75128569D01*
X125494573Y-75128579D01*
X125497955Y-75149799D01*
X125499500Y-75169312D01*
X125499500Y-75247868D01*
X125499501Y-75247877D01*
X125505908Y-75307483D01*
X125556202Y-75442328D01*
X125556206Y-75442335D01*
X125642452Y-75557544D01*
X125642455Y-75557547D01*
X125757666Y-75643794D01*
X125757664Y-75643794D01*
X125757668Y-75643795D01*
X125757669Y-75643796D01*
X125822075Y-75667817D01*
X125844165Y-75678664D01*
X125871270Y-75695505D01*
X130178911Y-77583786D01*
X130610400Y-77772932D01*
X130663897Y-77817876D01*
X130684603Y-77884607D01*
X130665944Y-77951939D01*
X130613845Y-77998495D01*
X130560617Y-78010500D01*
X129760684Y-78010500D01*
X129614924Y-78039493D01*
X129614915Y-78039496D01*
X129601936Y-78044872D01*
X129566644Y-78053712D01*
X129414749Y-78068673D01*
X129236610Y-78122711D01*
X129072447Y-78210458D01*
X129072445Y-78210460D01*
X128928550Y-78328550D01*
X128810460Y-78472445D01*
X128810458Y-78472447D01*
X128722711Y-78636610D01*
X128668673Y-78814749D01*
X128650428Y-79000000D01*
X128668673Y-79185250D01*
X128722711Y-79363389D01*
X128810458Y-79527552D01*
X128810460Y-79527554D01*
X128928550Y-79671449D01*
X129072445Y-79789539D01*
X129072447Y-79789541D01*
X129236610Y-79877288D01*
X129236612Y-79877288D01*
X129236615Y-79877290D01*
X129414748Y-79931326D01*
X129414747Y-79931326D01*
X129431357Y-79932961D01*
X129600000Y-79949572D01*
X129785252Y-79931326D01*
X129963385Y-79877290D01*
X130047047Y-79832571D01*
X130115449Y-79818330D01*
X130180693Y-79843330D01*
X130222064Y-79899635D01*
X130229500Y-79941927D01*
X130229500Y-79984168D01*
X130229501Y-79984191D01*
X130232335Y-80020205D01*
X130277129Y-80174388D01*
X130277131Y-80174393D01*
X130358863Y-80312595D01*
X130358869Y-80312603D01*
X130434585Y-80388319D01*
X130468070Y-80449642D01*
X130463086Y-80519334D01*
X130421214Y-80575267D01*
X130355750Y-80599684D01*
X130346904Y-80600000D01*
X126147919Y-80600000D01*
X126080880Y-80580315D01*
X126035125Y-80527511D01*
X126025181Y-80458353D01*
X126027713Y-80445560D01*
X126035398Y-80415211D01*
X126057633Y-80327408D01*
X126072473Y-80148322D01*
X126078134Y-80080005D01*
X126078134Y-80079994D01*
X126061337Y-79877288D01*
X126057633Y-79832592D01*
X125996690Y-79591933D01*
X125896967Y-79364587D01*
X125896184Y-79363389D01*
X125777402Y-79181580D01*
X125761184Y-79156756D01*
X125593045Y-78974108D01*
X125397136Y-78821627D01*
X125296960Y-78767414D01*
X125178803Y-78703470D01*
X125178797Y-78703468D01*
X124944000Y-78622862D01*
X124731979Y-78587482D01*
X124699128Y-78582000D01*
X124450872Y-78582000D01*
X124418021Y-78587482D01*
X124205999Y-78622862D01*
X123971202Y-78703468D01*
X123971196Y-78703470D01*
X123752862Y-78821628D01*
X123556957Y-78974106D01*
X123388817Y-79156754D01*
X123388814Y-79156758D01*
X123253033Y-79364585D01*
X123153304Y-79591945D01*
X123152565Y-79594099D01*
X123152027Y-79594857D01*
X123151250Y-79596630D01*
X123150884Y-79596469D01*
X123112167Y-79651106D01*
X123047362Y-79677223D01*
X122978725Y-79664158D01*
X122936025Y-79628123D01*
X122857186Y-79522809D01*
X122742093Y-79436649D01*
X122742086Y-79436645D01*
X122607379Y-79386403D01*
X122607372Y-79386401D01*
X122547844Y-79380000D01*
X122500000Y-79380000D01*
X122500000Y-80600000D01*
X121700500Y-80600000D01*
X121700500Y-80504000D01*
X121720185Y-80436961D01*
X121772989Y-80391206D01*
X121824500Y-80380000D01*
X122100000Y-80380000D01*
X122100000Y-79380000D01*
X122052172Y-79380000D01*
X122052153Y-79380001D01*
X121988255Y-79386871D01*
X121961745Y-79386871D01*
X121897846Y-79380001D01*
X121897828Y-79380000D01*
X121850000Y-79380000D01*
X121850000Y-79540564D01*
X121830315Y-79607603D01*
X121777511Y-79653358D01*
X121708353Y-79663302D01*
X121644797Y-79634277D01*
X121626741Y-79614885D01*
X121625242Y-79612883D01*
X121600818Y-79547421D01*
X121600501Y-79538562D01*
X121600501Y-79450944D01*
X121600501Y-79450942D01*
X121559577Y-79298214D01*
X121520482Y-79230500D01*
X121520473Y-79230484D01*
X121519104Y-79228112D01*
X121502500Y-79166128D01*
X121502500Y-77900097D01*
X121522185Y-77833058D01*
X121538814Y-77812421D01*
X121680520Y-77670716D01*
X121759577Y-77533784D01*
X121800501Y-77381057D01*
X121800501Y-77222942D01*
X121800501Y-77215347D01*
X121800500Y-77215329D01*
X121800500Y-76841728D01*
X121808318Y-76798394D01*
X121844091Y-76702483D01*
X121850500Y-76642873D01*
X121850499Y-75557128D01*
X121844091Y-75497517D01*
X121841590Y-75490811D01*
X121793797Y-75362670D01*
X121789547Y-75354888D01*
X121792757Y-75353134D01*
X121774361Y-75304001D01*
X121789127Y-75235709D01*
X121789752Y-75234736D01*
X121793797Y-75227329D01*
X121819098Y-75159492D01*
X121844091Y-75092483D01*
X121850500Y-75032873D01*
X121850499Y-73950095D01*
X121870184Y-73883057D01*
X121886813Y-73862420D01*
X121958506Y-73790728D01*
X121958511Y-73790724D01*
X121968714Y-73780520D01*
X121968716Y-73780520D01*
X122080520Y-73668716D01*
X122159577Y-73531784D01*
X122200500Y-73379057D01*
X122200500Y-72620943D01*
X122168096Y-72500008D01*
X122168096Y-72500007D01*
X122168096Y-72500006D01*
X122159577Y-72468215D01*
X122150289Y-72452128D01*
X122116681Y-72393917D01*
X122080520Y-72331284D01*
X121968716Y-72219480D01*
X121968715Y-72219479D01*
X121964385Y-72215149D01*
X121964374Y-72215139D01*
X121613819Y-71864584D01*
X121580334Y-71803261D01*
X121577500Y-71776903D01*
X121577500Y-70247844D01*
X125500000Y-70247844D01*
X125506401Y-70307372D01*
X125506403Y-70307379D01*
X125556645Y-70442086D01*
X125556649Y-70442093D01*
X125642809Y-70557187D01*
X125642812Y-70557190D01*
X125757906Y-70643350D01*
X125757913Y-70643354D01*
X125892620Y-70693596D01*
X125892627Y-70693598D01*
X125952155Y-70699999D01*
X125952172Y-70700000D01*
X126550000Y-70700000D01*
X127050000Y-70700000D01*
X127647828Y-70700000D01*
X127647844Y-70699999D01*
X127707372Y-70693598D01*
X127707379Y-70693596D01*
X127842086Y-70643354D01*
X127842093Y-70643350D01*
X127957187Y-70557190D01*
X127957190Y-70557187D01*
X128043350Y-70442093D01*
X128043354Y-70442086D01*
X128093596Y-70307379D01*
X128093598Y-70307372D01*
X128099999Y-70247844D01*
X128100000Y-70247827D01*
X128100000Y-68850000D01*
X127050000Y-68850000D01*
X127050000Y-70700000D01*
X126550000Y-70700000D01*
X126550000Y-68850000D01*
X125500000Y-68850000D01*
X125500000Y-70247844D01*
X121577500Y-70247844D01*
X121577500Y-66952155D01*
X125500000Y-66952155D01*
X125500000Y-68350000D01*
X126550000Y-68350000D01*
X127050000Y-68350000D01*
X128100000Y-68350000D01*
X128100000Y-66952172D01*
X128099999Y-66952155D01*
X128093598Y-66892627D01*
X128093596Y-66892620D01*
X128043354Y-66757913D01*
X128043350Y-66757906D01*
X127957190Y-66642812D01*
X127957187Y-66642809D01*
X127842093Y-66556649D01*
X127842086Y-66556645D01*
X127707379Y-66506403D01*
X127707372Y-66506401D01*
X127647844Y-66500000D01*
X127050000Y-66500000D01*
X127050000Y-68350000D01*
X126550000Y-68350000D01*
X126550000Y-66500000D01*
X125952155Y-66500000D01*
X125892627Y-66506401D01*
X125892620Y-66506403D01*
X125757913Y-66556645D01*
X125757906Y-66556649D01*
X125642812Y-66642809D01*
X125642809Y-66642812D01*
X125556649Y-66757906D01*
X125556645Y-66757913D01*
X125506403Y-66892620D01*
X125506401Y-66892627D01*
X125500000Y-66952155D01*
X121577500Y-66952155D01*
X121577500Y-61854407D01*
X121597185Y-61787368D01*
X121649989Y-61741613D01*
X121719147Y-61731669D01*
X121749017Y-61741612D01*
X121749359Y-61740697D01*
X121892517Y-61794091D01*
X121892516Y-61794091D01*
X121899444Y-61794835D01*
X121952127Y-61800500D01*
X123047872Y-61800499D01*
X123107483Y-61794091D01*
X123242331Y-61743796D01*
X123357546Y-61657546D01*
X123443796Y-61542331D01*
X123494091Y-61407483D01*
X123500500Y-61347873D01*
X123500499Y-60252128D01*
X123494895Y-60199992D01*
X123494091Y-60192516D01*
X123443797Y-60057671D01*
X123443795Y-60057668D01*
X123442608Y-60056083D01*
X123416550Y-60021273D01*
X123392133Y-59955809D01*
X123406985Y-59887536D01*
X123428132Y-59859285D01*
X123887411Y-59400008D01*
X123891481Y-59393917D01*
X123956083Y-59297233D01*
X124003385Y-59183035D01*
X124021723Y-59090845D01*
X124027500Y-59061805D01*
X124027500Y-59024499D01*
X124047185Y-58957460D01*
X124099989Y-58911705D01*
X124151500Y-58900499D01*
X124497871Y-58900499D01*
X124497872Y-58900499D01*
X124557483Y-58894091D01*
X124631667Y-58866421D01*
X124701358Y-58861438D01*
X124718327Y-58866420D01*
X124774961Y-58887543D01*
X124792511Y-58894089D01*
X124792517Y-58894091D01*
X124852127Y-58900500D01*
X125347872Y-58900499D01*
X125407483Y-58894091D01*
X125481667Y-58866421D01*
X125551358Y-58861438D01*
X125568327Y-58866420D01*
X125624961Y-58887543D01*
X125642511Y-58894089D01*
X125642517Y-58894091D01*
X125702127Y-58900500D01*
X126197872Y-58900499D01*
X126257483Y-58894091D01*
X126332380Y-58866155D01*
X126402071Y-58861171D01*
X126419049Y-58866156D01*
X126492621Y-58893597D01*
X126552155Y-58899999D01*
X126552172Y-58900000D01*
X126750000Y-58900000D01*
X127250000Y-58900000D01*
X127447828Y-58900000D01*
X127447844Y-58899999D01*
X127507372Y-58893598D01*
X127507379Y-58893596D01*
X127642086Y-58843354D01*
X127642093Y-58843350D01*
X127757187Y-58757190D01*
X127757190Y-58757187D01*
X127843350Y-58642093D01*
X127843354Y-58642086D01*
X127893596Y-58507379D01*
X127893598Y-58507372D01*
X127899999Y-58447844D01*
X127900000Y-58447827D01*
X127900000Y-58250000D01*
X127250000Y-58250000D01*
X127250000Y-58900000D01*
X126750000Y-58900000D01*
X126750000Y-57874000D01*
X126769685Y-57806961D01*
X126822489Y-57761206D01*
X126874000Y-57750000D01*
X127900000Y-57750000D01*
X127900000Y-57552172D01*
X127899999Y-57552155D01*
X127893598Y-57492623D01*
X127866155Y-57419047D01*
X127861171Y-57349355D01*
X127866148Y-57332399D01*
X127894091Y-57257483D01*
X127900500Y-57197873D01*
X127900499Y-56702128D01*
X127894091Y-56642517D01*
X127866421Y-56568332D01*
X127861438Y-56498642D01*
X127866422Y-56481667D01*
X127872013Y-56466677D01*
X128625000Y-56466677D01*
X128625000Y-56490000D01*
X129350000Y-56490000D01*
X129350000Y-55790000D01*
X129850000Y-55790000D01*
X129850000Y-56490000D01*
X130850000Y-56490000D01*
X130850000Y-55790000D01*
X131350000Y-55790000D01*
X131350000Y-56490000D01*
X132350000Y-56490000D01*
X132350000Y-55790000D01*
X132850000Y-55790000D01*
X132850000Y-56490000D01*
X133850000Y-56490000D01*
X133850000Y-55790000D01*
X133849999Y-55789999D01*
X133801693Y-55790000D01*
X133801675Y-55790001D01*
X133702392Y-55800144D01*
X133541518Y-55853452D01*
X133541507Y-55853457D01*
X133415097Y-55931429D01*
X133347705Y-55949870D01*
X133284903Y-55931429D01*
X133158492Y-55853457D01*
X133158481Y-55853452D01*
X132997606Y-55800144D01*
X132898322Y-55790000D01*
X132850000Y-55790000D01*
X132350000Y-55790000D01*
X132349999Y-55789999D01*
X132301693Y-55790000D01*
X132301675Y-55790001D01*
X132202392Y-55800144D01*
X132041518Y-55853452D01*
X132041507Y-55853457D01*
X131915097Y-55931429D01*
X131847705Y-55949870D01*
X131784903Y-55931429D01*
X131658492Y-55853457D01*
X131658481Y-55853452D01*
X131497606Y-55800144D01*
X131398322Y-55790000D01*
X131350000Y-55790000D01*
X130850000Y-55790000D01*
X130849999Y-55789999D01*
X130801693Y-55790000D01*
X130801675Y-55790001D01*
X130702392Y-55800144D01*
X130541518Y-55853452D01*
X130541507Y-55853457D01*
X130415097Y-55931429D01*
X130347705Y-55949870D01*
X130284903Y-55931429D01*
X130158492Y-55853457D01*
X130158481Y-55853452D01*
X129997606Y-55800144D01*
X129898322Y-55790000D01*
X129850000Y-55790000D01*
X129350000Y-55790000D01*
X129349999Y-55789999D01*
X129301693Y-55790000D01*
X129301675Y-55790001D01*
X129202392Y-55800144D01*
X129041518Y-55853452D01*
X129041507Y-55853457D01*
X128897271Y-55942424D01*
X128897267Y-55942427D01*
X128777427Y-56062267D01*
X128777424Y-56062271D01*
X128688457Y-56206507D01*
X128688452Y-56206518D01*
X128635144Y-56367393D01*
X128625000Y-56466677D01*
X127872013Y-56466677D01*
X127894091Y-56407483D01*
X127900500Y-56347873D01*
X127900499Y-55852128D01*
X127894091Y-55792517D01*
X127866421Y-55718332D01*
X127861438Y-55648642D01*
X127866422Y-55631667D01*
X127894091Y-55557483D01*
X127900500Y-55497873D01*
X127900499Y-55002128D01*
X127894091Y-54942517D01*
X127866421Y-54868332D01*
X127861438Y-54798642D01*
X127866422Y-54781667D01*
X127894091Y-54707483D01*
X127900500Y-54647873D01*
X127900499Y-54301499D01*
X127920183Y-54234461D01*
X127972987Y-54188706D01*
X128024499Y-54177500D01*
X128238719Y-54177500D01*
X128305758Y-54197185D01*
X128326400Y-54213819D01*
X128625528Y-54512947D01*
X128659013Y-54574270D01*
X128661167Y-54587661D01*
X128670486Y-54676319D01*
X128670487Y-54676321D01*
X128670487Y-54676323D01*
X128725271Y-54844932D01*
X128725272Y-54844934D01*
X128764333Y-54912589D01*
X128813916Y-54998469D01*
X128840056Y-55027500D01*
X128932543Y-55130219D01*
X128932546Y-55130221D01*
X129075977Y-55234429D01*
X129237933Y-55306538D01*
X129237936Y-55306538D01*
X129237939Y-55306540D01*
X129411355Y-55343400D01*
X129588645Y-55343400D01*
X129762061Y-55306540D01*
X129762064Y-55306538D01*
X129762066Y-55306538D01*
X129794869Y-55291932D01*
X129924023Y-55234429D01*
X130067454Y-55130221D01*
X130186084Y-54998469D01*
X130235667Y-54912589D01*
X130264587Y-54862499D01*
X130315154Y-54814283D01*
X130371974Y-54800499D01*
X131347871Y-54800499D01*
X131347872Y-54800499D01*
X131407483Y-54794091D01*
X131542331Y-54743796D01*
X131657546Y-54657546D01*
X131743796Y-54542331D01*
X131794091Y-54407483D01*
X131800500Y-54347873D01*
X131800499Y-53252128D01*
X131794091Y-53192517D01*
X131785071Y-53168334D01*
X131743797Y-53057671D01*
X131743796Y-53057669D01*
X131740931Y-53053842D01*
X131716515Y-52988377D01*
X131731367Y-52920104D01*
X131732812Y-52917532D01*
X131774729Y-52844931D01*
X131829514Y-52676319D01*
X131848046Y-52500000D01*
X131829514Y-52323681D01*
X131774729Y-52155069D01*
X131774728Y-52155068D01*
X131774728Y-52155066D01*
X131774727Y-52155065D01*
X131686594Y-52002414D01*
X131670121Y-51934514D01*
X131690497Y-51875638D01*
X131689544Y-51875118D01*
X131692641Y-51869445D01*
X131692973Y-51868487D01*
X131693732Y-51867446D01*
X131693793Y-51867335D01*
X131693792Y-51867335D01*
X131693796Y-51867331D01*
X131744091Y-51732483D01*
X131750500Y-51672873D01*
X131750499Y-51327128D01*
X131744091Y-51267517D01*
X131744089Y-51267513D01*
X131743632Y-51263255D01*
X131743632Y-51236745D01*
X131744089Y-51232486D01*
X131744091Y-51232483D01*
X131750500Y-51172873D01*
X131750499Y-50827128D01*
X131744091Y-50767517D01*
X131744089Y-50767513D01*
X131743632Y-50763255D01*
X131743632Y-50736745D01*
X131744089Y-50732486D01*
X131744091Y-50732483D01*
X131750500Y-50672873D01*
X131750499Y-50327128D01*
X131744091Y-50267517D01*
X131744089Y-50267513D01*
X131743632Y-50263255D01*
X131743632Y-50236745D01*
X131744089Y-50232486D01*
X131744091Y-50232483D01*
X131750500Y-50172873D01*
X131750499Y-49827128D01*
X131744091Y-49767517D01*
X131744089Y-49767513D01*
X131743632Y-49763255D01*
X131743632Y-49736745D01*
X131744089Y-49732486D01*
X131744091Y-49732483D01*
X131750500Y-49672873D01*
X131750499Y-49327128D01*
X131744091Y-49267517D01*
X131744089Y-49267513D01*
X131743632Y-49263255D01*
X131743632Y-49236745D01*
X131744089Y-49232486D01*
X131744091Y-49232483D01*
X131750500Y-49172873D01*
X131750499Y-48827128D01*
X131744091Y-48767517D01*
X131740349Y-48757485D01*
X131693797Y-48632671D01*
X131693793Y-48632664D01*
X131607547Y-48517455D01*
X131607544Y-48517452D01*
X131492335Y-48431206D01*
X131492328Y-48431202D01*
X131357482Y-48380908D01*
X131357483Y-48380908D01*
X131297883Y-48374501D01*
X131297881Y-48374500D01*
X131297873Y-48374500D01*
X131297865Y-48374500D01*
X131084070Y-48374500D01*
X131067881Y-48372905D01*
X131067863Y-48373097D01*
X131061804Y-48372500D01*
X131061803Y-48372500D01*
X131061801Y-48372500D01*
X130936281Y-48372500D01*
X130869242Y-48352815D01*
X130848600Y-48336181D01*
X130126737Y-47614318D01*
X130093252Y-47552995D01*
X130098236Y-47483303D01*
X130140108Y-47427370D01*
X130205572Y-47402953D01*
X130225218Y-47403108D01*
X130250000Y-47405277D01*
X130467977Y-47386207D01*
X130679330Y-47329575D01*
X130877639Y-47237102D01*
X131056877Y-47111598D01*
X131211598Y-46956877D01*
X131337102Y-46777639D01*
X131429575Y-46579330D01*
X131486207Y-46367977D01*
X131505277Y-46150000D01*
X131505088Y-46147844D01*
X131497045Y-46055908D01*
X131486207Y-45932023D01*
X131446382Y-45783393D01*
X131429577Y-45720677D01*
X131429576Y-45720676D01*
X131429575Y-45720670D01*
X131337102Y-45522362D01*
X131337100Y-45522359D01*
X131337099Y-45522357D01*
X131211599Y-45343124D01*
X131166302Y-45297827D01*
X131056877Y-45188402D01*
X131039621Y-45176319D01*
X130930376Y-45099824D01*
X130886751Y-45045247D01*
X130877500Y-44998250D01*
X130877500Y-42217135D01*
X130897185Y-42150096D01*
X130913814Y-42129459D01*
X133298530Y-39744742D01*
X133359851Y-39711259D01*
X133429543Y-39716243D01*
X133485476Y-39758115D01*
X133509737Y-39821617D01*
X133513793Y-39867976D01*
X133513793Y-39867979D01*
X133570422Y-40079322D01*
X133570424Y-40079326D01*
X133570425Y-40079330D01*
X133594155Y-40130219D01*
X133662897Y-40277638D01*
X133662898Y-40277639D01*
X133788402Y-40456877D01*
X133943123Y-40611598D01*
X134122361Y-40737102D01*
X134320670Y-40829575D01*
X134532023Y-40886207D01*
X134714926Y-40902208D01*
X134749998Y-40905277D01*
X134750000Y-40905277D01*
X134750002Y-40905277D01*
X134778254Y-40902805D01*
X134967977Y-40886207D01*
X135179330Y-40829575D01*
X135377639Y-40737102D01*
X135556877Y-40611598D01*
X135711598Y-40456877D01*
X135837102Y-40277639D01*
X135929575Y-40079330D01*
X135986207Y-39867977D01*
X136005277Y-39650000D01*
X136000859Y-39599506D01*
X135996003Y-39543997D01*
X135986207Y-39432023D01*
X135955379Y-39316972D01*
X135929577Y-39220677D01*
X135929576Y-39220676D01*
X135929575Y-39220670D01*
X135837102Y-39022362D01*
X135837100Y-39022359D01*
X135837099Y-39022357D01*
X135711599Y-38843124D01*
X135711596Y-38843121D01*
X135556877Y-38688402D01*
X135511459Y-38656600D01*
X135483231Y-38636834D01*
X135439606Y-38582257D01*
X135432414Y-38512759D01*
X135463937Y-38450404D01*
X135515356Y-38417552D01*
X135533486Y-38411545D01*
X135533492Y-38411542D01*
X135677728Y-38322575D01*
X135677732Y-38322572D01*
X135797572Y-38202732D01*
X135797575Y-38202728D01*
X135886542Y-38058492D01*
X135886547Y-38058481D01*
X135939855Y-37897606D01*
X135949999Y-37798322D01*
X135950000Y-37798309D01*
X135950000Y-37750000D01*
X134874000Y-37750000D01*
X134806961Y-37730315D01*
X134761206Y-37677511D01*
X134750000Y-37626000D01*
X134750000Y-37250000D01*
X135250000Y-37250000D01*
X135949999Y-37250000D01*
X135949999Y-37201692D01*
X135949998Y-37201677D01*
X135939855Y-37102392D01*
X135886547Y-36941518D01*
X135886542Y-36941507D01*
X135797575Y-36797271D01*
X135797572Y-36797267D01*
X135677732Y-36677427D01*
X135677728Y-36677424D01*
X135533492Y-36588457D01*
X135533481Y-36588452D01*
X135372606Y-36535144D01*
X135273322Y-36525000D01*
X135250000Y-36525000D01*
X135250000Y-37250000D01*
X134750000Y-37250000D01*
X134750000Y-36524999D01*
X134726693Y-36525000D01*
X134726674Y-36525001D01*
X134627392Y-36535144D01*
X134466518Y-36588452D01*
X134466507Y-36588457D01*
X134322271Y-36677424D01*
X134322265Y-36677428D01*
X134313031Y-36686663D01*
X134251707Y-36720146D01*
X134182015Y-36715159D01*
X134137672Y-36686660D01*
X134128044Y-36677032D01*
X134128040Y-36677029D01*
X133983705Y-36588001D01*
X133983699Y-36587998D01*
X133983697Y-36587997D01*
X133983694Y-36587996D01*
X133822709Y-36534651D01*
X133723346Y-36524500D01*
X133176662Y-36524500D01*
X133176644Y-36524501D01*
X133077292Y-36534650D01*
X133077289Y-36534651D01*
X132916305Y-36587996D01*
X132916294Y-36588001D01*
X132771959Y-36677029D01*
X132670035Y-36778953D01*
X132608712Y-36812437D01*
X132539020Y-36807453D01*
X132519234Y-36798004D01*
X132411733Y-36734429D01*
X132399393Y-36727131D01*
X132399392Y-36727130D01*
X132399391Y-36727130D01*
X132399388Y-36727129D01*
X132245208Y-36682335D01*
X132245202Y-36682334D01*
X132209181Y-36679500D01*
X131810830Y-36679500D01*
X131810808Y-36679501D01*
X131774794Y-36682335D01*
X131620611Y-36727129D01*
X131620604Y-36727132D01*
X131563119Y-36761128D01*
X131495395Y-36778309D01*
X131436881Y-36761128D01*
X131379395Y-36727132D01*
X131379388Y-36727129D01*
X131225208Y-36682335D01*
X131225202Y-36682334D01*
X131189181Y-36679500D01*
X130790830Y-36679500D01*
X130790808Y-36679501D01*
X130754794Y-36682335D01*
X130600611Y-36727129D01*
X130600608Y-36727130D01*
X130504269Y-36784104D01*
X130436545Y-36801285D01*
X130370282Y-36779125D01*
X130348999Y-36760343D01*
X130267456Y-36669780D01*
X130154890Y-36587997D01*
X130124023Y-36565571D01*
X130124021Y-36565570D01*
X130124022Y-36565570D01*
X129962066Y-36493461D01*
X129962058Y-36493459D01*
X129788645Y-36456600D01*
X129611355Y-36456600D01*
X129437941Y-36493459D01*
X129437933Y-36493461D01*
X129275978Y-36565570D01*
X129132543Y-36669780D01*
X129013915Y-36801532D01*
X128925272Y-36955065D01*
X128925271Y-36955066D01*
X128870487Y-37123677D01*
X128870486Y-37123679D01*
X128851954Y-37300000D01*
X128870486Y-37476320D01*
X128870487Y-37476322D01*
X128925271Y-37644933D01*
X128925272Y-37644934D01*
X128974567Y-37730315D01*
X129013916Y-37798469D01*
X129061414Y-37851221D01*
X129132543Y-37930219D01*
X129132546Y-37930221D01*
X129275977Y-38034429D01*
X129437933Y-38106538D01*
X129437936Y-38106538D01*
X129437939Y-38106540D01*
X129611355Y-38143400D01*
X129788645Y-38143400D01*
X129841846Y-38132091D01*
X129850701Y-38130210D01*
X129876481Y-38127500D01*
X130347404Y-38127500D01*
X130414443Y-38147185D01*
X130435085Y-38163819D01*
X130464970Y-38193704D01*
X130498455Y-38255027D01*
X130493471Y-38324719D01*
X130451599Y-38380652D01*
X130386135Y-38405069D01*
X130366482Y-38404913D01*
X130250002Y-38394723D01*
X130249998Y-38394723D01*
X130131741Y-38405069D01*
X130032023Y-38413793D01*
X130032020Y-38413793D01*
X129820677Y-38470422D01*
X129820668Y-38470426D01*
X129622361Y-38562898D01*
X129622357Y-38562900D01*
X129443121Y-38688402D01*
X129288402Y-38843121D01*
X129162900Y-39022357D01*
X129162898Y-39022361D01*
X129162898Y-39022362D01*
X129078772Y-39202771D01*
X129070426Y-39220668D01*
X129070422Y-39220677D01*
X129042823Y-39323681D01*
X129013793Y-39432023D01*
X129003997Y-39543997D01*
X128994723Y-39649997D01*
X128994723Y-39650002D01*
X129013793Y-39867975D01*
X129013793Y-39867979D01*
X129070422Y-40079322D01*
X129070424Y-40079326D01*
X129070425Y-40079330D01*
X129094155Y-40130219D01*
X129162897Y-40277638D01*
X129162898Y-40277639D01*
X129288402Y-40456877D01*
X129443123Y-40611598D01*
X129622361Y-40737102D01*
X129820670Y-40829575D01*
X130032023Y-40886207D01*
X130089147Y-40891204D01*
X130154215Y-40916656D01*
X130195194Y-40973246D01*
X130199073Y-41043008D01*
X130166021Y-41102413D01*
X129849992Y-41418444D01*
X129797768Y-41470668D01*
X129762589Y-41505847D01*
X129693916Y-41608624D01*
X129680061Y-41642069D01*
X129680062Y-41642070D01*
X129650367Y-41713760D01*
X129646614Y-41722820D01*
X129630972Y-41801459D01*
X129630972Y-41801460D01*
X129622500Y-41844050D01*
X129622500Y-44935718D01*
X129602815Y-45002757D01*
X129550011Y-45048512D01*
X129480853Y-45058456D01*
X129417297Y-45029431D01*
X129410819Y-45023399D01*
X128950011Y-44562591D01*
X128949938Y-44562542D01*
X128933864Y-44551802D01*
X128854043Y-44498467D01*
X128847238Y-44493920D01*
X128847226Y-44493913D01*
X128813785Y-44480062D01*
X128733035Y-44446614D01*
X128733027Y-44446612D01*
X128611807Y-44422500D01*
X128611803Y-44422500D01*
X128024000Y-44422500D01*
X127956961Y-44402815D01*
X127911206Y-44350011D01*
X127900000Y-44298500D01*
X127900000Y-44250000D01*
X126150000Y-44250000D01*
X126150000Y-44601930D01*
X126142182Y-44645263D01*
X126108926Y-44734429D01*
X126105909Y-44742517D01*
X126099500Y-44802127D01*
X126099500Y-44802134D01*
X126099500Y-44802135D01*
X126099500Y-45297870D01*
X126099501Y-45297876D01*
X126105908Y-45357483D01*
X126133577Y-45431667D01*
X126138561Y-45501358D01*
X126133577Y-45518331D01*
X126105910Y-45592511D01*
X126105909Y-45592515D01*
X126105909Y-45592517D01*
X126099500Y-45652127D01*
X126099500Y-45652134D01*
X126099500Y-45652135D01*
X126099500Y-46147870D01*
X126099501Y-46147876D01*
X126105909Y-46207485D01*
X126133843Y-46282382D01*
X126138827Y-46352074D01*
X126133844Y-46369046D01*
X126106402Y-46442623D01*
X126106401Y-46442627D01*
X126100000Y-46502155D01*
X126100000Y-46550000D01*
X126351931Y-46550000D01*
X126395263Y-46557817D01*
X126492517Y-46594091D01*
X126552127Y-46600500D01*
X127076001Y-46600499D01*
X127143039Y-46620183D01*
X127188794Y-46672987D01*
X127200000Y-46724499D01*
X127200000Y-47400000D01*
X127900000Y-47400000D01*
X127900000Y-47352172D01*
X127899999Y-47352155D01*
X127893598Y-47292628D01*
X127865888Y-47218334D01*
X127860904Y-47148642D01*
X127865888Y-47131666D01*
X127893597Y-47057375D01*
X127895286Y-47050229D01*
X127929859Y-46989513D01*
X127991770Y-46957127D01*
X128061362Y-46963354D01*
X128103644Y-46991063D01*
X128336181Y-47223600D01*
X128369666Y-47284923D01*
X128372500Y-47311281D01*
X128372500Y-47436807D01*
X128396612Y-47558027D01*
X128396614Y-47558035D01*
X128425388Y-47627501D01*
X128425388Y-47627502D01*
X128435141Y-47651048D01*
X128442610Y-47720517D01*
X128411335Y-47782996D01*
X128351246Y-47818648D01*
X128320580Y-47822500D01*
X127973862Y-47822500D01*
X127906823Y-47802815D01*
X127903330Y-47800000D01*
X127648069Y-47800000D01*
X127604736Y-47792182D01*
X127507482Y-47755908D01*
X127507483Y-47755908D01*
X127447883Y-47749501D01*
X127447881Y-47749500D01*
X127447873Y-47749500D01*
X127447864Y-47749500D01*
X126552129Y-47749500D01*
X126552123Y-47749501D01*
X126492516Y-47755908D01*
X126395264Y-47792182D01*
X126351931Y-47800000D01*
X126100000Y-47800000D01*
X126100000Y-47847844D01*
X126106401Y-47907372D01*
X126106403Y-47907379D01*
X126133844Y-47980952D01*
X126138828Y-48050643D01*
X126133844Y-48067618D01*
X126105909Y-48142517D01*
X126099500Y-48202127D01*
X126099500Y-48202134D01*
X126099500Y-48202135D01*
X126099500Y-48697870D01*
X126099501Y-48697876D01*
X126105908Y-48757483D01*
X126133577Y-48831667D01*
X126138561Y-48901358D01*
X126133577Y-48918331D01*
X126105910Y-48992511D01*
X126105909Y-48992515D01*
X126105909Y-48992517D01*
X126099500Y-49052127D01*
X126099500Y-49052134D01*
X126099500Y-49052135D01*
X126099500Y-49547870D01*
X126099501Y-49547876D01*
X126105908Y-49607483D01*
X126133577Y-49681667D01*
X126138561Y-49751358D01*
X126133577Y-49768331D01*
X126105910Y-49842511D01*
X126105909Y-49842515D01*
X126105909Y-49842517D01*
X126099500Y-49902127D01*
X126099500Y-49902134D01*
X126099500Y-49902135D01*
X126099500Y-50397870D01*
X126099501Y-50397876D01*
X126105908Y-50457483D01*
X126133577Y-50531667D01*
X126138561Y-50601358D01*
X126133577Y-50618331D01*
X126105910Y-50692511D01*
X126105909Y-50692515D01*
X126105909Y-50692517D01*
X126099500Y-50752127D01*
X126099500Y-50752134D01*
X126099500Y-50752135D01*
X126099500Y-51247870D01*
X126099501Y-51247876D01*
X126105908Y-51307483D01*
X126133577Y-51381667D01*
X126138561Y-51451358D01*
X126133577Y-51468331D01*
X126105910Y-51542511D01*
X126105909Y-51542515D01*
X126105909Y-51542517D01*
X126099500Y-51602127D01*
X126099500Y-51602134D01*
X126099500Y-51602135D01*
X126099500Y-52097870D01*
X126099501Y-52097876D01*
X126105908Y-52157483D01*
X126133577Y-52231667D01*
X126138561Y-52301358D01*
X126133577Y-52318331D01*
X126105910Y-52392511D01*
X126105909Y-52392515D01*
X126105909Y-52392517D01*
X126099500Y-52452127D01*
X126099500Y-52452134D01*
X126099500Y-52452135D01*
X126099500Y-52947870D01*
X126099501Y-52947876D01*
X126105908Y-53007483D01*
X126133577Y-53081667D01*
X126138561Y-53151358D01*
X126133577Y-53168331D01*
X126105910Y-53242511D01*
X126105909Y-53242515D01*
X126105909Y-53242517D01*
X126099500Y-53302127D01*
X126099500Y-53302134D01*
X126099500Y-53302135D01*
X126099500Y-53797870D01*
X126099501Y-53797876D01*
X126105908Y-53857483D01*
X126133577Y-53931667D01*
X126138561Y-54001358D01*
X126133577Y-54018331D01*
X126105910Y-54092511D01*
X126105909Y-54092515D01*
X126105909Y-54092517D01*
X126099500Y-54152127D01*
X126099500Y-54152134D01*
X126099500Y-54152135D01*
X126099500Y-54647870D01*
X126099501Y-54647876D01*
X126105908Y-54707483D01*
X126133577Y-54781667D01*
X126138561Y-54851358D01*
X126133577Y-54868331D01*
X126105910Y-54942511D01*
X126105909Y-54942515D01*
X126105909Y-54942517D01*
X126099500Y-55002127D01*
X126099500Y-55002134D01*
X126099500Y-55002135D01*
X126099500Y-55497870D01*
X126099501Y-55497876D01*
X126105908Y-55557483D01*
X126133577Y-55631667D01*
X126138561Y-55701358D01*
X126133577Y-55718331D01*
X126105910Y-55792511D01*
X126105909Y-55792515D01*
X126105909Y-55792517D01*
X126099500Y-55852127D01*
X126099500Y-55852134D01*
X126099500Y-55852135D01*
X126099500Y-56347870D01*
X126099501Y-56347876D01*
X126105908Y-56407483D01*
X126133577Y-56481667D01*
X126138561Y-56551358D01*
X126133577Y-56568331D01*
X126105909Y-56642514D01*
X126105908Y-56642516D01*
X126099501Y-56702116D01*
X126099501Y-56702123D01*
X126099500Y-56702135D01*
X126099500Y-56975500D01*
X126079815Y-57042539D01*
X126027011Y-57088294D01*
X125975500Y-57099500D01*
X125702130Y-57099500D01*
X125702123Y-57099501D01*
X125642516Y-57105908D01*
X125568332Y-57133577D01*
X125498640Y-57138561D01*
X125481668Y-57133577D01*
X125407488Y-57105910D01*
X125407484Y-57105909D01*
X125407483Y-57105909D01*
X125347873Y-57099500D01*
X125347863Y-57099500D01*
X124852129Y-57099500D01*
X124852123Y-57099501D01*
X124792516Y-57105908D01*
X124718332Y-57133577D01*
X124648640Y-57138561D01*
X124631668Y-57133577D01*
X124557488Y-57105910D01*
X124557484Y-57105909D01*
X124557483Y-57105909D01*
X124497873Y-57099500D01*
X124497863Y-57099500D01*
X124002129Y-57099500D01*
X124002123Y-57099501D01*
X123942516Y-57105908D01*
X123868332Y-57133577D01*
X123798640Y-57138561D01*
X123781668Y-57133577D01*
X123707488Y-57105910D01*
X123707484Y-57105909D01*
X123707483Y-57105909D01*
X123647873Y-57099500D01*
X123647863Y-57099500D01*
X123152129Y-57099500D01*
X123152123Y-57099501D01*
X123092516Y-57105908D01*
X123018332Y-57133577D01*
X122948640Y-57138561D01*
X122931668Y-57133577D01*
X122857488Y-57105910D01*
X122857484Y-57105909D01*
X122857483Y-57105909D01*
X122797873Y-57099500D01*
X122797863Y-57099500D01*
X122302129Y-57099500D01*
X122302123Y-57099501D01*
X122242516Y-57105908D01*
X122168332Y-57133577D01*
X122098640Y-57138561D01*
X122081668Y-57133577D01*
X122007488Y-57105910D01*
X122007484Y-57105909D01*
X122007483Y-57105909D01*
X121947873Y-57099500D01*
X121947863Y-57099500D01*
X121452129Y-57099500D01*
X121452123Y-57099501D01*
X121392516Y-57105908D01*
X121318332Y-57133577D01*
X121248640Y-57138561D01*
X121231668Y-57133577D01*
X121157488Y-57105910D01*
X121157484Y-57105909D01*
X121157483Y-57105909D01*
X121097873Y-57099500D01*
X121097863Y-57099500D01*
X120602129Y-57099500D01*
X120602123Y-57099501D01*
X120542516Y-57105908D01*
X120468332Y-57133577D01*
X120398640Y-57138561D01*
X120381668Y-57133577D01*
X120307488Y-57105910D01*
X120307484Y-57105909D01*
X120307483Y-57105909D01*
X120247873Y-57099500D01*
X120247863Y-57099500D01*
X119752129Y-57099500D01*
X119752123Y-57099501D01*
X119692516Y-57105908D01*
X119618332Y-57133577D01*
X119548640Y-57138561D01*
X119531668Y-57133577D01*
X119457488Y-57105910D01*
X119457484Y-57105909D01*
X119457483Y-57105909D01*
X119397873Y-57099500D01*
X119397863Y-57099500D01*
X118902129Y-57099500D01*
X118902123Y-57099501D01*
X118842516Y-57105908D01*
X118768332Y-57133577D01*
X118698640Y-57138561D01*
X118681668Y-57133577D01*
X118607488Y-57105910D01*
X118607484Y-57105909D01*
X118607483Y-57105909D01*
X118547873Y-57099500D01*
X118547863Y-57099500D01*
X118052129Y-57099500D01*
X118052123Y-57099501D01*
X117992516Y-57105908D01*
X117918332Y-57133577D01*
X117848640Y-57138561D01*
X117831668Y-57133577D01*
X117757488Y-57105910D01*
X117757484Y-57105909D01*
X117757483Y-57105909D01*
X117697873Y-57099500D01*
X117697863Y-57099500D01*
X117202129Y-57099500D01*
X117202123Y-57099501D01*
X117142516Y-57105908D01*
X117068332Y-57133577D01*
X116998640Y-57138561D01*
X116981668Y-57133577D01*
X116907488Y-57105910D01*
X116907484Y-57105909D01*
X116907483Y-57105909D01*
X116847873Y-57099500D01*
X116847863Y-57099500D01*
X116352129Y-57099500D01*
X116352123Y-57099501D01*
X116292516Y-57105908D01*
X116218332Y-57133577D01*
X116148640Y-57138561D01*
X116131668Y-57133577D01*
X116057488Y-57105910D01*
X116057484Y-57105909D01*
X116057483Y-57105909D01*
X115997873Y-57099500D01*
X115997863Y-57099500D01*
X115502129Y-57099500D01*
X115502123Y-57099501D01*
X115442516Y-57105908D01*
X115368332Y-57133577D01*
X115298640Y-57138561D01*
X115281668Y-57133577D01*
X115207488Y-57105910D01*
X115207484Y-57105909D01*
X115207483Y-57105909D01*
X115147873Y-57099500D01*
X115147863Y-57099500D01*
X114652129Y-57099500D01*
X114652123Y-57099501D01*
X114592516Y-57105908D01*
X114518332Y-57133577D01*
X114448640Y-57138561D01*
X114431668Y-57133577D01*
X114357485Y-57105909D01*
X114357483Y-57105908D01*
X114297883Y-57099501D01*
X114297881Y-57099500D01*
X114297873Y-57099500D01*
X114297865Y-57099500D01*
X114024499Y-57099500D01*
X113957460Y-57079815D01*
X113911705Y-57027011D01*
X113900499Y-56975500D01*
X113900499Y-56702129D01*
X113900498Y-56702123D01*
X113900497Y-56702116D01*
X113894091Y-56642517D01*
X113866421Y-56568332D01*
X113861438Y-56498642D01*
X113866422Y-56481667D01*
X113894091Y-56407483D01*
X113900500Y-56347873D01*
X113900499Y-55852128D01*
X113894091Y-55792517D01*
X113866421Y-55718332D01*
X113861438Y-55648642D01*
X113866422Y-55631667D01*
X113894091Y-55557483D01*
X113900500Y-55497873D01*
X113900499Y-55002128D01*
X113894091Y-54942517D01*
X113866421Y-54868332D01*
X113861438Y-54798642D01*
X113866422Y-54781667D01*
X113894091Y-54707483D01*
X113900500Y-54647873D01*
X113900499Y-54152128D01*
X113894091Y-54092517D01*
X113866421Y-54018332D01*
X113861438Y-53948642D01*
X113866422Y-53931667D01*
X113894091Y-53857483D01*
X113900500Y-53797873D01*
X113900499Y-53302128D01*
X113900038Y-53297844D01*
X117250000Y-53297844D01*
X117256401Y-53357372D01*
X117256403Y-53357379D01*
X117306645Y-53492086D01*
X117306649Y-53492093D01*
X117392809Y-53607187D01*
X117392812Y-53607190D01*
X117507906Y-53693350D01*
X117507913Y-53693354D01*
X117642620Y-53743596D01*
X117642627Y-53743598D01*
X117702155Y-53749999D01*
X117702172Y-53750000D01*
X118100000Y-53750000D01*
X118600000Y-53750000D01*
X118997828Y-53750000D01*
X118997844Y-53749999D01*
X119057371Y-53743598D01*
X119131666Y-53715888D01*
X119201358Y-53710904D01*
X119218334Y-53715888D01*
X119292628Y-53743598D01*
X119292627Y-53743598D01*
X119352155Y-53749999D01*
X119352172Y-53750000D01*
X119750000Y-53750000D01*
X120250000Y-53750000D01*
X120647828Y-53750000D01*
X120647844Y-53749999D01*
X120707371Y-53743598D01*
X120781666Y-53715888D01*
X120851358Y-53710904D01*
X120868334Y-53715888D01*
X120942628Y-53743598D01*
X120942627Y-53743598D01*
X121002155Y-53749999D01*
X121002172Y-53750000D01*
X121400000Y-53750000D01*
X121900000Y-53750000D01*
X122297828Y-53750000D01*
X122297844Y-53749999D01*
X122357372Y-53743598D01*
X122357379Y-53743596D01*
X122492086Y-53693354D01*
X122492093Y-53693350D01*
X122607187Y-53607190D01*
X122607190Y-53607187D01*
X122693350Y-53492093D01*
X122693354Y-53492086D01*
X122743596Y-53357379D01*
X122743598Y-53357372D01*
X122749999Y-53297844D01*
X122750000Y-53297827D01*
X122750000Y-52900000D01*
X121900000Y-52900000D01*
X121900000Y-53750000D01*
X121400000Y-53750000D01*
X121400000Y-52900000D01*
X120250000Y-52900000D01*
X120250000Y-53750000D01*
X119750000Y-53750000D01*
X119750000Y-52900000D01*
X118600000Y-52900000D01*
X118600000Y-53750000D01*
X118100000Y-53750000D01*
X118100000Y-52900000D01*
X117250000Y-52900000D01*
X117250000Y-53297844D01*
X113900038Y-53297844D01*
X113894091Y-53242517D01*
X113866421Y-53168332D01*
X113861438Y-53098642D01*
X113866422Y-53081667D01*
X113894091Y-53007483D01*
X113900500Y-52947873D01*
X113900499Y-52452128D01*
X113894091Y-52392517D01*
X113866421Y-52318332D01*
X113861438Y-52248642D01*
X113866422Y-52231667D01*
X113894091Y-52157483D01*
X113900500Y-52097873D01*
X113900499Y-51647844D01*
X117250000Y-51647844D01*
X117256401Y-51707372D01*
X117256403Y-51707382D01*
X117284110Y-51781668D01*
X117289094Y-51851359D01*
X117284110Y-51868332D01*
X117256403Y-51942617D01*
X117256401Y-51942627D01*
X117250000Y-52002155D01*
X117250000Y-52400000D01*
X118100000Y-52400000D01*
X118600000Y-52400000D01*
X119750000Y-52400000D01*
X120250000Y-52400000D01*
X121400000Y-52400000D01*
X121900000Y-52400000D01*
X122750000Y-52400000D01*
X122750000Y-52002172D01*
X122749999Y-52002155D01*
X122743598Y-51942628D01*
X122715888Y-51868334D01*
X122710904Y-51798642D01*
X122715888Y-51781666D01*
X122743598Y-51707371D01*
X122749999Y-51647844D01*
X122750000Y-51647827D01*
X122750000Y-51250000D01*
X121900000Y-51250000D01*
X121900000Y-52400000D01*
X121400000Y-52400000D01*
X121400000Y-51250000D01*
X120250000Y-51250000D01*
X120250000Y-52400000D01*
X119750000Y-52400000D01*
X119750000Y-51250000D01*
X118600000Y-51250000D01*
X118600000Y-52400000D01*
X118100000Y-52400000D01*
X118100000Y-51250000D01*
X117250000Y-51250000D01*
X117250000Y-51647844D01*
X113900499Y-51647844D01*
X113900499Y-51602128D01*
X113894091Y-51542517D01*
X113866421Y-51468332D01*
X113861438Y-51398642D01*
X113866422Y-51381667D01*
X113894091Y-51307483D01*
X113900500Y-51247873D01*
X113900499Y-50752128D01*
X113894091Y-50692517D01*
X113866421Y-50618332D01*
X113861438Y-50548642D01*
X113866422Y-50531667D01*
X113894091Y-50457483D01*
X113900500Y-50397873D01*
X113900499Y-49997844D01*
X117250000Y-49997844D01*
X117256401Y-50057372D01*
X117256403Y-50057382D01*
X117284110Y-50131668D01*
X117289094Y-50201359D01*
X117284110Y-50218332D01*
X117256403Y-50292617D01*
X117256401Y-50292627D01*
X117250000Y-50352155D01*
X117250000Y-50750000D01*
X118100000Y-50750000D01*
X118600000Y-50750000D01*
X119750000Y-50750000D01*
X120250000Y-50750000D01*
X121400000Y-50750000D01*
X121900000Y-50750000D01*
X122750000Y-50750000D01*
X122750000Y-50352172D01*
X122749999Y-50352155D01*
X122743598Y-50292628D01*
X122715888Y-50218334D01*
X122710904Y-50148642D01*
X122715888Y-50131666D01*
X122743598Y-50057371D01*
X122749999Y-49997844D01*
X122750000Y-49997827D01*
X122750000Y-49600000D01*
X121900000Y-49600000D01*
X121900000Y-50750000D01*
X121400000Y-50750000D01*
X121400000Y-49600000D01*
X120250000Y-49600000D01*
X120250000Y-50750000D01*
X119750000Y-50750000D01*
X119750000Y-49600000D01*
X118600000Y-49600000D01*
X118600000Y-50750000D01*
X118100000Y-50750000D01*
X118100000Y-49600000D01*
X117250000Y-49600000D01*
X117250000Y-49997844D01*
X113900499Y-49997844D01*
X113900499Y-49902128D01*
X113894091Y-49842517D01*
X113866421Y-49768332D01*
X113861438Y-49698642D01*
X113866422Y-49681667D01*
X113894091Y-49607483D01*
X113900500Y-49547873D01*
X113900499Y-49052128D01*
X113894091Y-48992517D01*
X113866421Y-48918332D01*
X113861438Y-48848642D01*
X113866422Y-48831667D01*
X113894091Y-48757483D01*
X113900040Y-48702155D01*
X117250000Y-48702155D01*
X117250000Y-49100000D01*
X118100000Y-49100000D01*
X118600000Y-49100000D01*
X119750000Y-49100000D01*
X120250000Y-49100000D01*
X121400000Y-49100000D01*
X121900000Y-49100000D01*
X122750000Y-49100000D01*
X122750000Y-48702172D01*
X122749999Y-48702155D01*
X122743598Y-48642627D01*
X122743596Y-48642620D01*
X122693354Y-48507913D01*
X122693350Y-48507906D01*
X122607190Y-48392812D01*
X122607187Y-48392809D01*
X122492093Y-48306649D01*
X122492086Y-48306645D01*
X122357379Y-48256403D01*
X122357372Y-48256401D01*
X122297844Y-48250000D01*
X121900000Y-48250000D01*
X121900000Y-49100000D01*
X121400000Y-49100000D01*
X121400000Y-48250000D01*
X121002155Y-48250000D01*
X120942627Y-48256401D01*
X120942617Y-48256403D01*
X120868332Y-48284110D01*
X120798641Y-48289094D01*
X120781668Y-48284110D01*
X120707382Y-48256403D01*
X120707372Y-48256401D01*
X120647844Y-48250000D01*
X120250000Y-48250000D01*
X120250000Y-49100000D01*
X119750000Y-49100000D01*
X119750000Y-48250000D01*
X119352155Y-48250000D01*
X119292627Y-48256401D01*
X119292617Y-48256403D01*
X119218332Y-48284110D01*
X119148641Y-48289094D01*
X119131668Y-48284110D01*
X119057382Y-48256403D01*
X119057372Y-48256401D01*
X118997844Y-48250000D01*
X118600000Y-48250000D01*
X118600000Y-49100000D01*
X118100000Y-49100000D01*
X118100000Y-48250000D01*
X117702155Y-48250000D01*
X117642627Y-48256401D01*
X117642620Y-48256403D01*
X117507913Y-48306645D01*
X117507906Y-48306649D01*
X117392812Y-48392809D01*
X117392809Y-48392812D01*
X117306649Y-48507906D01*
X117306645Y-48507913D01*
X117256403Y-48642620D01*
X117256401Y-48642627D01*
X117250000Y-48702155D01*
X113900040Y-48702155D01*
X113900500Y-48697873D01*
X113900499Y-48202128D01*
X113894091Y-48142517D01*
X113866421Y-48068332D01*
X113861438Y-47998642D01*
X113866420Y-47981672D01*
X113894091Y-47907483D01*
X113900500Y-47847873D01*
X113900499Y-47352128D01*
X113894091Y-47292517D01*
X113866421Y-47218332D01*
X113861438Y-47148642D01*
X113866420Y-47131672D01*
X113894091Y-47057483D01*
X113900500Y-46997873D01*
X113900500Y-46997844D01*
X126100000Y-46997844D01*
X126106401Y-47057372D01*
X126106403Y-47057382D01*
X126134110Y-47131668D01*
X126139094Y-47201359D01*
X126134110Y-47218332D01*
X126106403Y-47292617D01*
X126106401Y-47292627D01*
X126100000Y-47352155D01*
X126100000Y-47400000D01*
X126800000Y-47400000D01*
X126800000Y-46950000D01*
X126100000Y-46950000D01*
X126100000Y-46997844D01*
X113900500Y-46997844D01*
X113900499Y-46502128D01*
X113894091Y-46442517D01*
X113866154Y-46367616D01*
X113861171Y-46297927D01*
X113866156Y-46280950D01*
X113893597Y-46207379D01*
X113893597Y-46207377D01*
X113899999Y-46147844D01*
X113900000Y-46147827D01*
X113900000Y-46100000D01*
X113648069Y-46100000D01*
X113604736Y-46092182D01*
X113507482Y-46055908D01*
X113507483Y-46055908D01*
X113447883Y-46049501D01*
X113447881Y-46049500D01*
X113447873Y-46049500D01*
X113447864Y-46049500D01*
X112552129Y-46049500D01*
X112552123Y-46049501D01*
X112492516Y-46055908D01*
X112395264Y-46092182D01*
X112351931Y-46100000D01*
X112088511Y-46100000D01*
X112052496Y-46119666D01*
X112026138Y-46122500D01*
X111560173Y-46122500D01*
X111493134Y-46102815D01*
X111468023Y-46081472D01*
X111367456Y-45969780D01*
X111277022Y-45904077D01*
X111224023Y-45865571D01*
X111224021Y-45865570D01*
X111224022Y-45865570D01*
X111062066Y-45793461D01*
X111062058Y-45793459D01*
X110888645Y-45756600D01*
X110711355Y-45756600D01*
X110537941Y-45793459D01*
X110537933Y-45793461D01*
X110375978Y-45865570D01*
X110232543Y-45969780D01*
X110113915Y-46101532D01*
X110025272Y-46255065D01*
X110025271Y-46255066D01*
X109970487Y-46423677D01*
X109970486Y-46423679D01*
X109951954Y-46600000D01*
X109970486Y-46776320D01*
X109970488Y-46776325D01*
X109990261Y-46837182D01*
X109992256Y-46907023D01*
X109956175Y-46966856D01*
X109893474Y-46997683D01*
X109872330Y-46999499D01*
X109820943Y-46999499D01*
X109668215Y-47040423D01*
X109668214Y-47040423D01*
X109668212Y-47040424D01*
X109638668Y-47057482D01*
X109638667Y-47057483D01*
X109599359Y-47080177D01*
X109531281Y-47119481D01*
X109501879Y-47148883D01*
X109440555Y-47182368D01*
X109382106Y-47180976D01*
X109317977Y-47163793D01*
X109100002Y-47144723D01*
X109099998Y-47144723D01*
X108954682Y-47157436D01*
X108882023Y-47163793D01*
X108882020Y-47163793D01*
X108670677Y-47220422D01*
X108670668Y-47220426D01*
X108472361Y-47312898D01*
X108472357Y-47312900D01*
X108293121Y-47438402D01*
X108138402Y-47593121D01*
X108012900Y-47772357D01*
X108012898Y-47772361D01*
X107920426Y-47970668D01*
X107920422Y-47970677D01*
X107863793Y-48182020D01*
X107863793Y-48182023D01*
X107861607Y-48207007D01*
X107844723Y-48399997D01*
X107844723Y-48400002D01*
X107863793Y-48617975D01*
X107863793Y-48617979D01*
X107920422Y-48829322D01*
X107920424Y-48829326D01*
X107920425Y-48829330D01*
X107944477Y-48880909D01*
X108012897Y-49027638D01*
X108012898Y-49027639D01*
X108138402Y-49206877D01*
X108293123Y-49361598D01*
X108472361Y-49487102D01*
X108645712Y-49567936D01*
X108698150Y-49614108D01*
X108717302Y-49681302D01*
X108697086Y-49748183D01*
X108680989Y-49767998D01*
X108627029Y-49821959D01*
X108538001Y-49966294D01*
X108537996Y-49966305D01*
X108484651Y-50127290D01*
X108474500Y-50226647D01*
X108474500Y-50773337D01*
X108474501Y-50773355D01*
X108484650Y-50872707D01*
X108484651Y-50872710D01*
X108537996Y-51033694D01*
X108538001Y-51033705D01*
X108627029Y-51178040D01*
X108627032Y-51178044D01*
X108636660Y-51187672D01*
X108670145Y-51248995D01*
X108665161Y-51318687D01*
X108636663Y-51363031D01*
X108627428Y-51372265D01*
X108627424Y-51372271D01*
X108538457Y-51516507D01*
X108538452Y-51516518D01*
X108485144Y-51677393D01*
X108475000Y-51776677D01*
X108475000Y-51800000D01*
X110424999Y-51800000D01*
X110424999Y-51776692D01*
X110424998Y-51776677D01*
X110414855Y-51677392D01*
X110361547Y-51516518D01*
X110361542Y-51516507D01*
X110272575Y-51372271D01*
X110272572Y-51372267D01*
X110263339Y-51363034D01*
X110229854Y-51301711D01*
X110234838Y-51232019D01*
X110263343Y-51187668D01*
X110272968Y-51178044D01*
X110362003Y-51033697D01*
X110415349Y-50872708D01*
X110425500Y-50773345D01*
X110425499Y-50226656D01*
X110424472Y-50216607D01*
X110415349Y-50127292D01*
X110415348Y-50127289D01*
X110392180Y-50057372D01*
X110362003Y-49966303D01*
X110361999Y-49966297D01*
X110361998Y-49966294D01*
X110272970Y-49821959D01*
X110272969Y-49821958D01*
X110272968Y-49821956D01*
X110153044Y-49702032D01*
X110153043Y-49702031D01*
X110153042Y-49702030D01*
X110109402Y-49675112D01*
X110062678Y-49623163D01*
X110050500Y-49569574D01*
X110050500Y-49261822D01*
X110070185Y-49194783D01*
X110072910Y-49190721D01*
X110187102Y-49027639D01*
X110279575Y-48829330D01*
X110336207Y-48617977D01*
X110355277Y-48400000D01*
X110349617Y-48335307D01*
X110363383Y-48266808D01*
X110411998Y-48216625D01*
X110473145Y-48200500D01*
X111975500Y-48200500D01*
X112042539Y-48220185D01*
X112088294Y-48272989D01*
X112099500Y-48324500D01*
X112099500Y-48697869D01*
X112099501Y-48697876D01*
X112105908Y-48757483D01*
X112133577Y-48831667D01*
X112138561Y-48901358D01*
X112133577Y-48918331D01*
X112105910Y-48992511D01*
X112105909Y-48992515D01*
X112105909Y-48992517D01*
X112099500Y-49052127D01*
X112099500Y-49052134D01*
X112099500Y-49052135D01*
X112099500Y-49547870D01*
X112099501Y-49547876D01*
X112105908Y-49607483D01*
X112133577Y-49681667D01*
X112138561Y-49751358D01*
X112133577Y-49768331D01*
X112105910Y-49842511D01*
X112105909Y-49842515D01*
X112105909Y-49842517D01*
X112099500Y-49902127D01*
X112099500Y-49902134D01*
X112099500Y-49902135D01*
X112099500Y-50397870D01*
X112099501Y-50397876D01*
X112105908Y-50457483D01*
X112133577Y-50531667D01*
X112138561Y-50601358D01*
X112133577Y-50618331D01*
X112105910Y-50692511D01*
X112105909Y-50692515D01*
X112105909Y-50692517D01*
X112099500Y-50752127D01*
X112099500Y-50752134D01*
X112099500Y-50752135D01*
X112099500Y-51247870D01*
X112099501Y-51247876D01*
X112105908Y-51307483D01*
X112133577Y-51381667D01*
X112138561Y-51451358D01*
X112133577Y-51468331D01*
X112105910Y-51542511D01*
X112105909Y-51542515D01*
X112105909Y-51542517D01*
X112099500Y-51602127D01*
X112099500Y-51602134D01*
X112099500Y-51602135D01*
X112099500Y-52097870D01*
X112099501Y-52097876D01*
X112105908Y-52157483D01*
X112133577Y-52231667D01*
X112138561Y-52301358D01*
X112133577Y-52318331D01*
X112105910Y-52392511D01*
X112105909Y-52392515D01*
X112105909Y-52392517D01*
X112099500Y-52452127D01*
X112099500Y-52452134D01*
X112099500Y-52452135D01*
X112099500Y-52947870D01*
X112099501Y-52947876D01*
X112105908Y-53007483D01*
X112133577Y-53081667D01*
X112138561Y-53151358D01*
X112133577Y-53168331D01*
X112105910Y-53242511D01*
X112105909Y-53242515D01*
X112105909Y-53242517D01*
X112099500Y-53302127D01*
X112099500Y-53302134D01*
X112099500Y-53302135D01*
X112099500Y-53512718D01*
X112079815Y-53579757D01*
X112027011Y-53625512D01*
X111957853Y-53635456D01*
X111894297Y-53606431D01*
X111891379Y-53603714D01*
X111890010Y-53602590D01*
X111852144Y-53577289D01*
X111787238Y-53533920D01*
X111787226Y-53533913D01*
X111753785Y-53520062D01*
X111673035Y-53486614D01*
X111673027Y-53486612D01*
X111551807Y-53462500D01*
X111551803Y-53462500D01*
X111434576Y-53462500D01*
X111371455Y-53445232D01*
X111239393Y-53367131D01*
X111239388Y-53367129D01*
X111085208Y-53322335D01*
X111085202Y-53322334D01*
X111049181Y-53319500D01*
X110550830Y-53319500D01*
X110550808Y-53319501D01*
X110514794Y-53322335D01*
X110360611Y-53367129D01*
X110360606Y-53367131D01*
X110222404Y-53448863D01*
X110222396Y-53448869D01*
X110108869Y-53562396D01*
X110108863Y-53562404D01*
X110027131Y-53700606D01*
X110027129Y-53700611D01*
X109982335Y-53854791D01*
X109982334Y-53854797D01*
X109979500Y-53890811D01*
X109979500Y-54289169D01*
X109979501Y-54289191D01*
X109982334Y-54325202D01*
X109990477Y-54353228D01*
X109990277Y-54423097D01*
X109952334Y-54481767D01*
X109912372Y-54503749D01*
X109912593Y-54504283D01*
X109907773Y-54506279D01*
X109907414Y-54506477D01*
X109906973Y-54506610D01*
X109826215Y-54540062D01*
X109792766Y-54553917D01*
X109792764Y-54553918D01*
X109749188Y-54583035D01*
X109749188Y-54583036D01*
X109689989Y-54622590D01*
X109689988Y-54622591D01*
X109467650Y-54844931D01*
X109399992Y-54912589D01*
X109337581Y-54975000D01*
X109312589Y-54999992D01*
X109256149Y-55084461D01*
X109243917Y-55102767D01*
X109233672Y-55127500D01*
X109196614Y-55216965D01*
X109181483Y-55293035D01*
X109181483Y-55293036D01*
X109172500Y-55338195D01*
X109172500Y-55436603D01*
X109152815Y-55503642D01*
X109100011Y-55549397D01*
X109091837Y-55552784D01*
X109082670Y-55556203D01*
X109082664Y-55556206D01*
X108967455Y-55642452D01*
X108967452Y-55642455D01*
X108881206Y-55757664D01*
X108881202Y-55757671D01*
X108830908Y-55892517D01*
X108824501Y-55952116D01*
X108824500Y-55952135D01*
X108824500Y-56947870D01*
X108824501Y-56947876D01*
X108830908Y-57007483D01*
X108884303Y-57150641D01*
X108882733Y-57151226D01*
X108895383Y-57209367D01*
X108883687Y-57249206D01*
X108884746Y-57249601D01*
X108831403Y-57392620D01*
X108831401Y-57392627D01*
X108825000Y-57452155D01*
X108825000Y-57700000D01*
X110775000Y-57700000D01*
X110775000Y-57452172D01*
X110774999Y-57452155D01*
X110768598Y-57392627D01*
X110768597Y-57392623D01*
X110715253Y-57249602D01*
X110717067Y-57248925D01*
X110704616Y-57191674D01*
X110716570Y-57150966D01*
X110715696Y-57150640D01*
X110718794Y-57142333D01*
X110718796Y-57142331D01*
X110769091Y-57007483D01*
X110775500Y-56947873D01*
X110775499Y-56004498D01*
X110795183Y-55937460D01*
X110847987Y-55891705D01*
X110899499Y-55880499D01*
X111049168Y-55880499D01*
X111049180Y-55880499D01*
X111085204Y-55877665D01*
X111239393Y-55832869D01*
X111377598Y-55751135D01*
X111491135Y-55637598D01*
X111572869Y-55499393D01*
X111617665Y-55345204D01*
X111620500Y-55309181D01*
X111620499Y-55151499D01*
X111640183Y-55084461D01*
X111692987Y-55038706D01*
X111744499Y-55027500D01*
X111975500Y-55027500D01*
X112042539Y-55047185D01*
X112088294Y-55099989D01*
X112099500Y-55151500D01*
X112099500Y-55497869D01*
X112099501Y-55497876D01*
X112105908Y-55557483D01*
X112133577Y-55631667D01*
X112138561Y-55701358D01*
X112133577Y-55718331D01*
X112105910Y-55792511D01*
X112105909Y-55792515D01*
X112105909Y-55792517D01*
X112099500Y-55852127D01*
X112099500Y-55852134D01*
X112099500Y-55852135D01*
X112099500Y-56347870D01*
X112099501Y-56347876D01*
X112105908Y-56407483D01*
X112133577Y-56481667D01*
X112138561Y-56551358D01*
X112133577Y-56568331D01*
X112105910Y-56642511D01*
X112105910Y-56642514D01*
X112105909Y-56642517D01*
X112099500Y-56702127D01*
X112099500Y-56702134D01*
X112099500Y-56702135D01*
X112099500Y-57197870D01*
X112099501Y-57197876D01*
X112105909Y-57257485D01*
X112133843Y-57332382D01*
X112138827Y-57402074D01*
X112133844Y-57419046D01*
X112106402Y-57492623D01*
X112106401Y-57492627D01*
X112100000Y-57552155D01*
X112100000Y-57750000D01*
X113126000Y-57750000D01*
X113193039Y-57769685D01*
X113238794Y-57822489D01*
X113250000Y-57874000D01*
X113250000Y-58126000D01*
X113230315Y-58193039D01*
X113177511Y-58238794D01*
X113126000Y-58250000D01*
X112100000Y-58250000D01*
X112100000Y-58447827D01*
X112100178Y-58451153D01*
X112099241Y-58451203D01*
X112087536Y-58516071D01*
X112064336Y-58548244D01*
X111970495Y-58642086D01*
X111776398Y-58836182D01*
X111715078Y-58869666D01*
X111688719Y-58872500D01*
X111538192Y-58872500D01*
X111416971Y-58896612D01*
X111416965Y-58896614D01*
X111364064Y-58918527D01*
X111364063Y-58918527D01*
X111302770Y-58943915D01*
X111302760Y-58943920D01*
X111213769Y-59003382D01*
X111213770Y-59003383D01*
X111199988Y-59012591D01*
X111199986Y-59012593D01*
X110712589Y-59499992D01*
X110609992Y-59602589D01*
X110587033Y-59625548D01*
X110522589Y-59689991D01*
X110473039Y-59764148D01*
X110419426Y-59808952D01*
X110350101Y-59817659D01*
X110335343Y-59814333D01*
X110225202Y-59782334D01*
X110189181Y-59779500D01*
X109790830Y-59779500D01*
X109790808Y-59779501D01*
X109754794Y-59782335D01*
X109600611Y-59827129D01*
X109600606Y-59827131D01*
X109586371Y-59835550D01*
X109563935Y-59848819D01*
X109553091Y-59855232D01*
X109489970Y-59872500D01*
X108111490Y-59872500D01*
X108044451Y-59852815D01*
X108038605Y-59848819D01*
X107995716Y-59817659D01*
X107924023Y-59765571D01*
X107924021Y-59765570D01*
X107924022Y-59765570D01*
X107762066Y-59693461D01*
X107762058Y-59693459D01*
X107588645Y-59656600D01*
X107411355Y-59656600D01*
X107237941Y-59693459D01*
X107237933Y-59693461D01*
X107075978Y-59765570D01*
X106932543Y-59869780D01*
X106813915Y-60001532D01*
X106725272Y-60155065D01*
X106725271Y-60155066D01*
X106670487Y-60323677D01*
X106670486Y-60323679D01*
X106651954Y-60500001D01*
X106654018Y-60519640D01*
X106641448Y-60588370D01*
X106593715Y-60639393D01*
X106530697Y-60656600D01*
X106411355Y-60656600D01*
X106237941Y-60693459D01*
X106237933Y-60693461D01*
X106075978Y-60765570D01*
X105932543Y-60869780D01*
X105813915Y-61001532D01*
X105725272Y-61155065D01*
X105725271Y-61155066D01*
X105670487Y-61323677D01*
X105670486Y-61323679D01*
X105651954Y-61500000D01*
X105670486Y-61676320D01*
X105670487Y-61676322D01*
X105725271Y-61844933D01*
X105725272Y-61844934D01*
X105817165Y-62004097D01*
X105815308Y-62005168D01*
X105835432Y-62061583D01*
X105819602Y-62129636D01*
X105769492Y-62178326D01*
X105746233Y-62187727D01*
X105732212Y-62191801D01*
X105662343Y-62191604D01*
X105603671Y-62153664D01*
X105594517Y-62141626D01*
X105566059Y-62099034D01*
X105566056Y-62099031D01*
X105566054Y-62099028D01*
X105456647Y-61989621D01*
X105456624Y-61989600D01*
X104830909Y-61363885D01*
X104221110Y-60754085D01*
X104190863Y-60704727D01*
X104174729Y-60655069D01*
X104174728Y-60655067D01*
X104174727Y-60655064D01*
X104088389Y-60505524D01*
X104086084Y-60501531D01*
X104032677Y-60442217D01*
X103967456Y-60369780D01*
X103871422Y-60300008D01*
X103824023Y-60265571D01*
X103824021Y-60265570D01*
X103824022Y-60265570D01*
X103662066Y-60193461D01*
X103662058Y-60193459D01*
X103488645Y-60156600D01*
X103311355Y-60156600D01*
X103137941Y-60193459D01*
X103137933Y-60193461D01*
X102975977Y-60265570D01*
X102975973Y-60265572D01*
X102896884Y-60323034D01*
X102831078Y-60346513D01*
X102763024Y-60330687D01*
X102714330Y-60280581D01*
X102700000Y-60222715D01*
X102700000Y-58447844D01*
X108825000Y-58447844D01*
X108831401Y-58507372D01*
X108831403Y-58507379D01*
X108881645Y-58642086D01*
X108881649Y-58642093D01*
X108967809Y-58757187D01*
X108967812Y-58757190D01*
X109082906Y-58843350D01*
X109082913Y-58843354D01*
X109217620Y-58893596D01*
X109217627Y-58893598D01*
X109277155Y-58899999D01*
X109277172Y-58900000D01*
X109550000Y-58900000D01*
X110050000Y-58900000D01*
X110322828Y-58900000D01*
X110322844Y-58899999D01*
X110382372Y-58893598D01*
X110382379Y-58893596D01*
X110517086Y-58843354D01*
X110517093Y-58843350D01*
X110632187Y-58757190D01*
X110632190Y-58757187D01*
X110718350Y-58642093D01*
X110718354Y-58642086D01*
X110768596Y-58507379D01*
X110768598Y-58507372D01*
X110774999Y-58447844D01*
X110775000Y-58447827D01*
X110775000Y-58200000D01*
X110050000Y-58200000D01*
X110050000Y-58900000D01*
X109550000Y-58900000D01*
X109550000Y-58200000D01*
X108825000Y-58200000D01*
X108825000Y-58447844D01*
X102700000Y-58447844D01*
X102700000Y-56501647D01*
X104474500Y-56501647D01*
X104474500Y-57048337D01*
X104474501Y-57048355D01*
X104484650Y-57147707D01*
X104484651Y-57147710D01*
X104537996Y-57308694D01*
X104538001Y-57308705D01*
X104627029Y-57453040D01*
X104627032Y-57453044D01*
X104746955Y-57572967D01*
X104746959Y-57572970D01*
X104891294Y-57661998D01*
X104891297Y-57661999D01*
X104891303Y-57662003D01*
X105052292Y-57715349D01*
X105151655Y-57725500D01*
X105748344Y-57725499D01*
X105748352Y-57725498D01*
X105748355Y-57725498D01*
X105827365Y-57717427D01*
X105847708Y-57715349D01*
X106008697Y-57662003D01*
X106098616Y-57606540D01*
X106143223Y-57579026D01*
X106210615Y-57560585D01*
X106258756Y-57571284D01*
X106337939Y-57606540D01*
X106511355Y-57643400D01*
X106688645Y-57643400D01*
X106862061Y-57606540D01*
X106862064Y-57606538D01*
X106862066Y-57606538D01*
X106911500Y-57584528D01*
X107024023Y-57534429D01*
X107167454Y-57430221D01*
X107286084Y-57298469D01*
X107374729Y-57144931D01*
X107429514Y-56976319D01*
X107448046Y-56800000D01*
X107429514Y-56623681D01*
X107374729Y-56455069D01*
X107374728Y-56455068D01*
X107374728Y-56455066D01*
X107374727Y-56455065D01*
X107312841Y-56347876D01*
X107286084Y-56301531D01*
X107225992Y-56234792D01*
X107167456Y-56169780D01*
X107067217Y-56096953D01*
X107024023Y-56065571D01*
X107024021Y-56065570D01*
X107024022Y-56065570D01*
X106862066Y-55993461D01*
X106862058Y-55993459D01*
X106688645Y-55956600D01*
X106511355Y-55956600D01*
X106492813Y-55960541D01*
X106481747Y-55962893D01*
X106412080Y-55957575D01*
X106356347Y-55915437D01*
X106332244Y-55849856D01*
X106347422Y-55781655D01*
X106350432Y-55776502D01*
X106361545Y-55758485D01*
X106361547Y-55758481D01*
X106414855Y-55597606D01*
X106424999Y-55498322D01*
X106425000Y-55498309D01*
X106425000Y-55475000D01*
X104475001Y-55475000D01*
X104475001Y-55498322D01*
X104485144Y-55597607D01*
X104538452Y-55758481D01*
X104538457Y-55758492D01*
X104627424Y-55902728D01*
X104627427Y-55902732D01*
X104636660Y-55911965D01*
X104670145Y-55973288D01*
X104665161Y-56042980D01*
X104636663Y-56087324D01*
X104627033Y-56096953D01*
X104627029Y-56096959D01*
X104538001Y-56241294D01*
X104537996Y-56241305D01*
X104484651Y-56402290D01*
X104474500Y-56501647D01*
X102700000Y-56501647D01*
X102700000Y-54951677D01*
X104475000Y-54951677D01*
X104475000Y-54975000D01*
X105200000Y-54975000D01*
X105700000Y-54975000D01*
X106424999Y-54975000D01*
X106424999Y-54951692D01*
X106424998Y-54951677D01*
X106414855Y-54852392D01*
X106361547Y-54691518D01*
X106361542Y-54691507D01*
X106272575Y-54547271D01*
X106272572Y-54547267D01*
X106152732Y-54427427D01*
X106152728Y-54427424D01*
X106008492Y-54338457D01*
X106008481Y-54338452D01*
X105847606Y-54285144D01*
X105748322Y-54275000D01*
X105700000Y-54275000D01*
X105700000Y-54975000D01*
X105200000Y-54975000D01*
X105200000Y-54275000D01*
X105199999Y-54274999D01*
X105151693Y-54275000D01*
X105151675Y-54275001D01*
X105052392Y-54285144D01*
X104891518Y-54338452D01*
X104891507Y-54338457D01*
X104747271Y-54427424D01*
X104747267Y-54427427D01*
X104627427Y-54547267D01*
X104627424Y-54547271D01*
X104538457Y-54691507D01*
X104538452Y-54691518D01*
X104485144Y-54852393D01*
X104475000Y-54951677D01*
X102700000Y-54951677D01*
X102700000Y-52273322D01*
X104475001Y-52273322D01*
X104485144Y-52372607D01*
X104538452Y-52533481D01*
X104538457Y-52533492D01*
X104627424Y-52677728D01*
X104627427Y-52677732D01*
X104747267Y-52797572D01*
X104747271Y-52797575D01*
X104891507Y-52886542D01*
X104891518Y-52886547D01*
X105052393Y-52939855D01*
X105151683Y-52949999D01*
X105700000Y-52949999D01*
X105748308Y-52949999D01*
X105748322Y-52949998D01*
X105847607Y-52939855D01*
X106008481Y-52886547D01*
X106008492Y-52886542D01*
X106152728Y-52797575D01*
X106152732Y-52797572D01*
X106272572Y-52677732D01*
X106272575Y-52677728D01*
X106361542Y-52533492D01*
X106361547Y-52533481D01*
X106414855Y-52372606D01*
X106419890Y-52323322D01*
X108475001Y-52323322D01*
X108485144Y-52422607D01*
X108538452Y-52583481D01*
X108538457Y-52583492D01*
X108627424Y-52727728D01*
X108627427Y-52727732D01*
X108747267Y-52847572D01*
X108747271Y-52847575D01*
X108891507Y-52936542D01*
X108891518Y-52936547D01*
X109052393Y-52989855D01*
X109151683Y-52999999D01*
X109700000Y-52999999D01*
X109748308Y-52999999D01*
X109748322Y-52999998D01*
X109847607Y-52989855D01*
X110008481Y-52936547D01*
X110008492Y-52936542D01*
X110152728Y-52847575D01*
X110152732Y-52847572D01*
X110272572Y-52727732D01*
X110272575Y-52727728D01*
X110361542Y-52583492D01*
X110361547Y-52583481D01*
X110414855Y-52422606D01*
X110424999Y-52323322D01*
X110425000Y-52323309D01*
X110425000Y-52300000D01*
X109700000Y-52300000D01*
X109700000Y-52999999D01*
X109151683Y-52999999D01*
X109199999Y-52999998D01*
X109200000Y-52999998D01*
X109200000Y-52300000D01*
X108475001Y-52300000D01*
X108475001Y-52323322D01*
X106419890Y-52323322D01*
X106424999Y-52273322D01*
X106425000Y-52273309D01*
X106425000Y-52250000D01*
X105700000Y-52250000D01*
X105700000Y-52949999D01*
X105151683Y-52949999D01*
X105199999Y-52949998D01*
X105200000Y-52949998D01*
X105200000Y-52250000D01*
X104475001Y-52250000D01*
X104475001Y-52273322D01*
X102700000Y-52273322D01*
X102700000Y-48399999D01*
X103345225Y-48399999D01*
X103345225Y-48400000D01*
X103364287Y-48617884D01*
X103364289Y-48617894D01*
X103420894Y-48829150D01*
X103420898Y-48829159D01*
X103513333Y-49027387D01*
X103556874Y-49089571D01*
X104117037Y-48529408D01*
X104134075Y-48592993D01*
X104199901Y-48707007D01*
X104292993Y-48800099D01*
X104407007Y-48865925D01*
X104470590Y-48882962D01*
X103910427Y-49443124D01*
X103972612Y-49486666D01*
X104170840Y-49579101D01*
X104170849Y-49579105D01*
X104382105Y-49635710D01*
X104382116Y-49635712D01*
X104493955Y-49645497D01*
X104559024Y-49670949D01*
X104600003Y-49727540D01*
X104603881Y-49797302D01*
X104588687Y-49834122D01*
X104537998Y-49916300D01*
X104537996Y-49916305D01*
X104484651Y-50077290D01*
X104474500Y-50176647D01*
X104474500Y-50723337D01*
X104474501Y-50723355D01*
X104484650Y-50822707D01*
X104484651Y-50822710D01*
X104537996Y-50983694D01*
X104538001Y-50983705D01*
X104627029Y-51128040D01*
X104627032Y-51128044D01*
X104636660Y-51137672D01*
X104670145Y-51198995D01*
X104665161Y-51268687D01*
X104636663Y-51313031D01*
X104627428Y-51322265D01*
X104627424Y-51322271D01*
X104538457Y-51466507D01*
X104538452Y-51466518D01*
X104485144Y-51627393D01*
X104475000Y-51726677D01*
X104475000Y-51750000D01*
X106424999Y-51750000D01*
X106424999Y-51726692D01*
X106424998Y-51726677D01*
X106414856Y-51627394D01*
X106374316Y-51505055D01*
X106371914Y-51435226D01*
X106407645Y-51375184D01*
X106470166Y-51343991D01*
X106504993Y-51342730D01*
X106511347Y-51343398D01*
X106511355Y-51343400D01*
X106511363Y-51343400D01*
X106688645Y-51343400D01*
X106862061Y-51306540D01*
X106862064Y-51306538D01*
X106862066Y-51306538D01*
X106926481Y-51277858D01*
X107024023Y-51234429D01*
X107167454Y-51130221D01*
X107169620Y-51127816D01*
X107222761Y-51068796D01*
X107286084Y-50998469D01*
X107374729Y-50844931D01*
X107429514Y-50676319D01*
X107448046Y-50500000D01*
X107429514Y-50323681D01*
X107374729Y-50155069D01*
X107374728Y-50155068D01*
X107374728Y-50155066D01*
X107374727Y-50155065D01*
X107343798Y-50101495D01*
X107286084Y-50001531D01*
X107232677Y-49942217D01*
X107167456Y-49869780D01*
X107032811Y-49771956D01*
X107024023Y-49765571D01*
X107024021Y-49765570D01*
X107024022Y-49765570D01*
X106862066Y-49693461D01*
X106862058Y-49693459D01*
X106688645Y-49656600D01*
X106511355Y-49656600D01*
X106337942Y-49693459D01*
X106337939Y-49693460D01*
X106316519Y-49702996D01*
X106247268Y-49712278D01*
X106183993Y-49682646D01*
X106178407Y-49677395D01*
X106153044Y-49652032D01*
X106153040Y-49652029D01*
X106008705Y-49563001D01*
X106008699Y-49562998D01*
X106008697Y-49562997D01*
X106008694Y-49562996D01*
X105847709Y-49509651D01*
X105748352Y-49499500D01*
X105397308Y-49499500D01*
X105330269Y-49479815D01*
X105309627Y-49463181D01*
X104729410Y-48882962D01*
X104792993Y-48865925D01*
X104907007Y-48800099D01*
X105000099Y-48707007D01*
X105065925Y-48592993D01*
X105082962Y-48529409D01*
X105643124Y-49089570D01*
X105686668Y-49027385D01*
X105686669Y-49027383D01*
X105779100Y-48829164D01*
X105779105Y-48829150D01*
X105835710Y-48617894D01*
X105835712Y-48617884D01*
X105854775Y-48400000D01*
X105854775Y-48399999D01*
X105835712Y-48182115D01*
X105835710Y-48182105D01*
X105779105Y-47970849D01*
X105779101Y-47970840D01*
X105686667Y-47772614D01*
X105686666Y-47772612D01*
X105643124Y-47710428D01*
X105643124Y-47710427D01*
X105082962Y-48270589D01*
X105065925Y-48207007D01*
X105000099Y-48092993D01*
X104907007Y-47999901D01*
X104792993Y-47934075D01*
X104729409Y-47917037D01*
X105289571Y-47356874D01*
X105227387Y-47313333D01*
X105029159Y-47220898D01*
X105029150Y-47220894D01*
X104817894Y-47164289D01*
X104817884Y-47164287D01*
X104600001Y-47145225D01*
X104599999Y-47145225D01*
X104382115Y-47164287D01*
X104382105Y-47164289D01*
X104170849Y-47220894D01*
X104170840Y-47220898D01*
X103972613Y-47313333D01*
X103910428Y-47356874D01*
X104470591Y-47917037D01*
X104407007Y-47934075D01*
X104292993Y-47999901D01*
X104199901Y-48092993D01*
X104134075Y-48207007D01*
X104117037Y-48270591D01*
X103556874Y-47710428D01*
X103513333Y-47772613D01*
X103420898Y-47970840D01*
X103420894Y-47970849D01*
X103364289Y-48182105D01*
X103364287Y-48182115D01*
X103345225Y-48399999D01*
X102700000Y-48399999D01*
X102700000Y-43886781D01*
X102719685Y-43819742D01*
X102772489Y-43773987D01*
X102841647Y-43764043D01*
X102905203Y-43793068D01*
X102911681Y-43799100D01*
X103599988Y-44487408D01*
X103599992Y-44487411D01*
X103702760Y-44556079D01*
X103702773Y-44556086D01*
X103821325Y-44605191D01*
X103875729Y-44649031D01*
X103897794Y-44715325D01*
X103891804Y-44758069D01*
X103870488Y-44823674D01*
X103870486Y-44823679D01*
X103851954Y-45000000D01*
X103870486Y-45176320D01*
X103870487Y-45176322D01*
X103925271Y-45344933D01*
X103925272Y-45344934D01*
X103985148Y-45448642D01*
X104013916Y-45498469D01*
X104036544Y-45523600D01*
X104132543Y-45630219D01*
X104132546Y-45630221D01*
X104275977Y-45734429D01*
X104437933Y-45806538D01*
X104437936Y-45806538D01*
X104437939Y-45806540D01*
X104611355Y-45843400D01*
X104788645Y-45843400D01*
X104962061Y-45806540D01*
X104962064Y-45806538D01*
X104962066Y-45806538D01*
X104994869Y-45791932D01*
X105124023Y-45734429D01*
X105267454Y-45630221D01*
X105386084Y-45498469D01*
X105474729Y-45344931D01*
X105490028Y-45297844D01*
X112100000Y-45297844D01*
X112106401Y-45357372D01*
X112106403Y-45357382D01*
X112134110Y-45431668D01*
X112139094Y-45501359D01*
X112134110Y-45518332D01*
X112106403Y-45592617D01*
X112106401Y-45592627D01*
X112100000Y-45652155D01*
X112100000Y-45700000D01*
X112800000Y-45700000D01*
X113200000Y-45700000D01*
X113900000Y-45700000D01*
X113900000Y-45652172D01*
X113899999Y-45652155D01*
X113893598Y-45592628D01*
X113865888Y-45518334D01*
X113860904Y-45448642D01*
X113865888Y-45431666D01*
X113893598Y-45357371D01*
X113899999Y-45297844D01*
X113900000Y-45297827D01*
X113900000Y-45250000D01*
X113200000Y-45250000D01*
X113200000Y-45700000D01*
X112800000Y-45700000D01*
X112800000Y-45250000D01*
X112100000Y-45250000D01*
X112100000Y-45297844D01*
X105490028Y-45297844D01*
X105529514Y-45176319D01*
X105548046Y-45000000D01*
X105537536Y-44900000D01*
X114250000Y-44900000D01*
X114297828Y-44900000D01*
X114297844Y-44899999D01*
X114357371Y-44893598D01*
X114431666Y-44865888D01*
X114501358Y-44860904D01*
X114518334Y-44865888D01*
X114592628Y-44893598D01*
X114592627Y-44893598D01*
X114652155Y-44899999D01*
X114652172Y-44900000D01*
X114700000Y-44900000D01*
X115100000Y-44900000D01*
X115147828Y-44900000D01*
X115147844Y-44899999D01*
X115207371Y-44893598D01*
X115281666Y-44865888D01*
X115351358Y-44860904D01*
X115368334Y-44865888D01*
X115442628Y-44893598D01*
X115442627Y-44893598D01*
X115502155Y-44899999D01*
X115502172Y-44900000D01*
X115550000Y-44900000D01*
X115950000Y-44900000D01*
X115997828Y-44900000D01*
X115997844Y-44899999D01*
X116057371Y-44893598D01*
X116131666Y-44865888D01*
X116201358Y-44860904D01*
X116218334Y-44865888D01*
X116292628Y-44893598D01*
X116292627Y-44893598D01*
X116352155Y-44899999D01*
X116352172Y-44900000D01*
X116400000Y-44900000D01*
X116800000Y-44900000D01*
X116847828Y-44900000D01*
X116847844Y-44899999D01*
X116907371Y-44893598D01*
X116981666Y-44865888D01*
X117051358Y-44860904D01*
X117068334Y-44865888D01*
X117142628Y-44893598D01*
X117142627Y-44893598D01*
X117202155Y-44899999D01*
X117202172Y-44900000D01*
X117250000Y-44900000D01*
X117650000Y-44900000D01*
X117697828Y-44900000D01*
X117697844Y-44899999D01*
X117757371Y-44893598D01*
X117831666Y-44865888D01*
X117901358Y-44860904D01*
X117918334Y-44865888D01*
X117992628Y-44893598D01*
X117992627Y-44893598D01*
X118052155Y-44899999D01*
X118052172Y-44900000D01*
X118100000Y-44900000D01*
X118500000Y-44900000D01*
X118547828Y-44900000D01*
X118547844Y-44899999D01*
X118607371Y-44893598D01*
X118681666Y-44865888D01*
X118751358Y-44860904D01*
X118768334Y-44865888D01*
X118842628Y-44893598D01*
X118842627Y-44893598D01*
X118902155Y-44899999D01*
X118902172Y-44900000D01*
X118950000Y-44900000D01*
X119350000Y-44900000D01*
X119397828Y-44900000D01*
X119397844Y-44899999D01*
X119457371Y-44893598D01*
X119531666Y-44865888D01*
X119601358Y-44860904D01*
X119618334Y-44865888D01*
X119692628Y-44893598D01*
X119692627Y-44893598D01*
X119752155Y-44899999D01*
X119752172Y-44900000D01*
X119800000Y-44900000D01*
X120200000Y-44900000D01*
X120247828Y-44900000D01*
X120247844Y-44899999D01*
X120307371Y-44893598D01*
X120381666Y-44865888D01*
X120451358Y-44860904D01*
X120468334Y-44865888D01*
X120542628Y-44893598D01*
X120542627Y-44893598D01*
X120602155Y-44899999D01*
X120602172Y-44900000D01*
X120650000Y-44900000D01*
X121050000Y-44900000D01*
X121097828Y-44900000D01*
X121097844Y-44899999D01*
X121157371Y-44893598D01*
X121231666Y-44865888D01*
X121301358Y-44860904D01*
X121318334Y-44865888D01*
X121392628Y-44893598D01*
X121392627Y-44893598D01*
X121452155Y-44899999D01*
X121452172Y-44900000D01*
X121500000Y-44900000D01*
X121900000Y-44900000D01*
X121947828Y-44900000D01*
X121947844Y-44899999D01*
X122007371Y-44893598D01*
X122081666Y-44865888D01*
X122151358Y-44860904D01*
X122168334Y-44865888D01*
X122242628Y-44893598D01*
X122242627Y-44893598D01*
X122302155Y-44899999D01*
X122302172Y-44900000D01*
X122350000Y-44900000D01*
X122750000Y-44900000D01*
X122797828Y-44900000D01*
X122797844Y-44899999D01*
X122857371Y-44893598D01*
X122931666Y-44865888D01*
X123001358Y-44860904D01*
X123018334Y-44865888D01*
X123092628Y-44893598D01*
X123092627Y-44893598D01*
X123152155Y-44899999D01*
X123152172Y-44900000D01*
X123200000Y-44900000D01*
X123600000Y-44900000D01*
X123647828Y-44900000D01*
X123647844Y-44899999D01*
X123707371Y-44893598D01*
X123781666Y-44865888D01*
X123851358Y-44860904D01*
X123868334Y-44865888D01*
X123942628Y-44893598D01*
X123942627Y-44893598D01*
X124002155Y-44899999D01*
X124002172Y-44900000D01*
X124050000Y-44900000D01*
X124450000Y-44900000D01*
X124497828Y-44900000D01*
X124497844Y-44899999D01*
X124557371Y-44893598D01*
X124631666Y-44865888D01*
X124701358Y-44860904D01*
X124718334Y-44865888D01*
X124792628Y-44893598D01*
X124792627Y-44893598D01*
X124852155Y-44899999D01*
X124852172Y-44900000D01*
X124900000Y-44900000D01*
X125300000Y-44900000D01*
X125347828Y-44900000D01*
X125347844Y-44899999D01*
X125407371Y-44893598D01*
X125481666Y-44865888D01*
X125551358Y-44860904D01*
X125568334Y-44865888D01*
X125642628Y-44893598D01*
X125642627Y-44893598D01*
X125702155Y-44899999D01*
X125702172Y-44900000D01*
X125750000Y-44900000D01*
X125750000Y-44200000D01*
X125300000Y-44200000D01*
X125300000Y-44900000D01*
X124900000Y-44900000D01*
X124900000Y-44200000D01*
X124450000Y-44200000D01*
X124450000Y-44900000D01*
X124050000Y-44900000D01*
X124050000Y-44200000D01*
X123600000Y-44200000D01*
X123600000Y-44900000D01*
X123200000Y-44900000D01*
X123200000Y-44200000D01*
X122750000Y-44200000D01*
X122750000Y-44900000D01*
X122350000Y-44900000D01*
X122350000Y-44200000D01*
X121900000Y-44200000D01*
X121900000Y-44900000D01*
X121500000Y-44900000D01*
X121500000Y-44200000D01*
X121050000Y-44200000D01*
X121050000Y-44900000D01*
X120650000Y-44900000D01*
X120650000Y-44200000D01*
X120200000Y-44200000D01*
X120200000Y-44900000D01*
X119800000Y-44900000D01*
X119800000Y-44200000D01*
X119350000Y-44200000D01*
X119350000Y-44900000D01*
X118950000Y-44900000D01*
X118950000Y-44200000D01*
X118500000Y-44200000D01*
X118500000Y-44900000D01*
X118100000Y-44900000D01*
X118100000Y-44200000D01*
X117650000Y-44200000D01*
X117650000Y-44900000D01*
X117250000Y-44900000D01*
X117250000Y-44200000D01*
X116800000Y-44200000D01*
X116800000Y-44900000D01*
X116400000Y-44900000D01*
X116400000Y-44200000D01*
X115950000Y-44200000D01*
X115950000Y-44900000D01*
X115550000Y-44900000D01*
X115550000Y-44200000D01*
X115100000Y-44200000D01*
X115100000Y-44900000D01*
X114700000Y-44900000D01*
X114700000Y-44200000D01*
X114250000Y-44200000D01*
X114250000Y-44900000D01*
X105537536Y-44900000D01*
X105529514Y-44823681D01*
X105518510Y-44789816D01*
X105516516Y-44719977D01*
X105552596Y-44660144D01*
X105615297Y-44629316D01*
X105636442Y-44627500D01*
X108888510Y-44627500D01*
X108955549Y-44647185D01*
X108961395Y-44651181D01*
X108973732Y-44660144D01*
X109075977Y-44734429D01*
X109237933Y-44806538D01*
X109237936Y-44806538D01*
X109237939Y-44806540D01*
X109411355Y-44843400D01*
X109588645Y-44843400D01*
X109762061Y-44806540D01*
X109762064Y-44806538D01*
X109762066Y-44806538D01*
X109799619Y-44789818D01*
X109924023Y-44734429D01*
X110067454Y-44630221D01*
X110186084Y-44498469D01*
X110215312Y-44447844D01*
X112100000Y-44447844D01*
X112106401Y-44507372D01*
X112106403Y-44507382D01*
X112134110Y-44581668D01*
X112139094Y-44651359D01*
X112134110Y-44668332D01*
X112106403Y-44742617D01*
X112106401Y-44742627D01*
X112100000Y-44802155D01*
X112100000Y-44850000D01*
X112750000Y-44850000D01*
X113250000Y-44850000D01*
X113850000Y-44850000D01*
X113850000Y-44250000D01*
X113250000Y-44250000D01*
X113250000Y-44850000D01*
X112750000Y-44850000D01*
X112750000Y-44250000D01*
X112100000Y-44250000D01*
X112100000Y-44447844D01*
X110215312Y-44447844D01*
X110274729Y-44344931D01*
X110329514Y-44176319D01*
X110348046Y-44000000D01*
X110329514Y-43823681D01*
X110321820Y-43800000D01*
X114250000Y-43800000D01*
X114700000Y-43800000D01*
X115100000Y-43800000D01*
X115550000Y-43800000D01*
X115950000Y-43800000D01*
X116400000Y-43800000D01*
X116800000Y-43800000D01*
X117250000Y-43800000D01*
X117650000Y-43800000D01*
X118100000Y-43800000D01*
X118500000Y-43800000D01*
X118950000Y-43800000D01*
X119350000Y-43800000D01*
X119800000Y-43800000D01*
X120200000Y-43800000D01*
X120650000Y-43800000D01*
X121050000Y-43800000D01*
X121500000Y-43800000D01*
X121900000Y-43800000D01*
X122350000Y-43800000D01*
X122750000Y-43800000D01*
X123200000Y-43800000D01*
X123600000Y-43800000D01*
X124050000Y-43800000D01*
X124450000Y-43800000D01*
X124900000Y-43800000D01*
X125300000Y-43800000D01*
X125750000Y-43800000D01*
X125750000Y-43750000D01*
X126150000Y-43750000D01*
X126750000Y-43750000D01*
X127250000Y-43750000D01*
X127900000Y-43750000D01*
X127900000Y-43552172D01*
X127899999Y-43552155D01*
X127893598Y-43492627D01*
X127893596Y-43492620D01*
X127843354Y-43357913D01*
X127843350Y-43357906D01*
X127757190Y-43242812D01*
X127757187Y-43242809D01*
X127642093Y-43156649D01*
X127642086Y-43156645D01*
X127507379Y-43106403D01*
X127507372Y-43106401D01*
X127447844Y-43100000D01*
X127250000Y-43100000D01*
X127250000Y-43750000D01*
X126750000Y-43750000D01*
X126750000Y-43100000D01*
X126552155Y-43100000D01*
X126492627Y-43106401D01*
X126492617Y-43106403D01*
X126418332Y-43134110D01*
X126348641Y-43139094D01*
X126331668Y-43134110D01*
X126257382Y-43106403D01*
X126257372Y-43106401D01*
X126197844Y-43100000D01*
X126150000Y-43100000D01*
X126150000Y-43750000D01*
X125750000Y-43750000D01*
X125750000Y-43100000D01*
X125702155Y-43100000D01*
X125642627Y-43106401D01*
X125642617Y-43106403D01*
X125568332Y-43134110D01*
X125498641Y-43139094D01*
X125481668Y-43134110D01*
X125407382Y-43106403D01*
X125407372Y-43106401D01*
X125347844Y-43100000D01*
X125300000Y-43100000D01*
X125300000Y-43800000D01*
X124900000Y-43800000D01*
X124900000Y-43100000D01*
X124852155Y-43100000D01*
X124792627Y-43106401D01*
X124792617Y-43106403D01*
X124718332Y-43134110D01*
X124648641Y-43139094D01*
X124631668Y-43134110D01*
X124557382Y-43106403D01*
X124557372Y-43106401D01*
X124497844Y-43100000D01*
X124450000Y-43100000D01*
X124450000Y-43800000D01*
X124050000Y-43800000D01*
X124050000Y-43100000D01*
X124002155Y-43100000D01*
X123942627Y-43106401D01*
X123942617Y-43106403D01*
X123868332Y-43134110D01*
X123798641Y-43139094D01*
X123781668Y-43134110D01*
X123707382Y-43106403D01*
X123707372Y-43106401D01*
X123647844Y-43100000D01*
X123600000Y-43100000D01*
X123600000Y-43800000D01*
X123200000Y-43800000D01*
X123200000Y-43100000D01*
X123152155Y-43100000D01*
X123092627Y-43106401D01*
X123092617Y-43106403D01*
X123018332Y-43134110D01*
X122948641Y-43139094D01*
X122931668Y-43134110D01*
X122857382Y-43106403D01*
X122857372Y-43106401D01*
X122797844Y-43100000D01*
X122750000Y-43100000D01*
X122750000Y-43800000D01*
X122350000Y-43800000D01*
X122350000Y-43100000D01*
X122302155Y-43100000D01*
X122242627Y-43106401D01*
X122242617Y-43106403D01*
X122168332Y-43134110D01*
X122098641Y-43139094D01*
X122081668Y-43134110D01*
X122007382Y-43106403D01*
X122007372Y-43106401D01*
X121947844Y-43100000D01*
X121900000Y-43100000D01*
X121900000Y-43800000D01*
X121500000Y-43800000D01*
X121500000Y-43100000D01*
X121452155Y-43100000D01*
X121392627Y-43106401D01*
X121392617Y-43106403D01*
X121318332Y-43134110D01*
X121248641Y-43139094D01*
X121231668Y-43134110D01*
X121157382Y-43106403D01*
X121157372Y-43106401D01*
X121097844Y-43100000D01*
X121050000Y-43100000D01*
X121050000Y-43800000D01*
X120650000Y-43800000D01*
X120650000Y-43100000D01*
X120602155Y-43100000D01*
X120542627Y-43106401D01*
X120542617Y-43106403D01*
X120468332Y-43134110D01*
X120398641Y-43139094D01*
X120381668Y-43134110D01*
X120307382Y-43106403D01*
X120307372Y-43106401D01*
X120247844Y-43100000D01*
X120200000Y-43100000D01*
X120200000Y-43800000D01*
X119800000Y-43800000D01*
X119800000Y-43100000D01*
X119752155Y-43100000D01*
X119692627Y-43106401D01*
X119692617Y-43106403D01*
X119618332Y-43134110D01*
X119548641Y-43139094D01*
X119531668Y-43134110D01*
X119457382Y-43106403D01*
X119457372Y-43106401D01*
X119397844Y-43100000D01*
X119350000Y-43100000D01*
X119350000Y-43800000D01*
X118950000Y-43800000D01*
X118950000Y-43100000D01*
X118902155Y-43100000D01*
X118842627Y-43106401D01*
X118842617Y-43106403D01*
X118768332Y-43134110D01*
X118698641Y-43139094D01*
X118681668Y-43134110D01*
X118607382Y-43106403D01*
X118607372Y-43106401D01*
X118547844Y-43100000D01*
X118500000Y-43100000D01*
X118500000Y-43800000D01*
X118100000Y-43800000D01*
X118100000Y-43100000D01*
X118052155Y-43100000D01*
X117992627Y-43106401D01*
X117992617Y-43106403D01*
X117918332Y-43134110D01*
X117848641Y-43139094D01*
X117831668Y-43134110D01*
X117757382Y-43106403D01*
X117757372Y-43106401D01*
X117697844Y-43100000D01*
X117650000Y-43100000D01*
X117650000Y-43800000D01*
X117250000Y-43800000D01*
X117250000Y-43100000D01*
X117202155Y-43100000D01*
X117142627Y-43106401D01*
X117142617Y-43106403D01*
X117068332Y-43134110D01*
X116998641Y-43139094D01*
X116981668Y-43134110D01*
X116907382Y-43106403D01*
X116907372Y-43106401D01*
X116847844Y-43100000D01*
X116800000Y-43100000D01*
X116800000Y-43800000D01*
X116400000Y-43800000D01*
X116400000Y-43100000D01*
X116352155Y-43100000D01*
X116292627Y-43106401D01*
X116292617Y-43106403D01*
X116218332Y-43134110D01*
X116148641Y-43139094D01*
X116131668Y-43134110D01*
X116057382Y-43106403D01*
X116057372Y-43106401D01*
X115997844Y-43100000D01*
X115950000Y-43100000D01*
X115950000Y-43800000D01*
X115550000Y-43800000D01*
X115550000Y-43100000D01*
X115502155Y-43100000D01*
X115442627Y-43106401D01*
X115442617Y-43106403D01*
X115368332Y-43134110D01*
X115298641Y-43139094D01*
X115281668Y-43134110D01*
X115207382Y-43106403D01*
X115207372Y-43106401D01*
X115147844Y-43100000D01*
X115100000Y-43100000D01*
X115100000Y-43800000D01*
X114700000Y-43800000D01*
X114700000Y-43100000D01*
X114652155Y-43100000D01*
X114592627Y-43106401D01*
X114592617Y-43106403D01*
X114518332Y-43134110D01*
X114448641Y-43139094D01*
X114431668Y-43134110D01*
X114357382Y-43106403D01*
X114357372Y-43106401D01*
X114297844Y-43100000D01*
X114250000Y-43100000D01*
X114250000Y-43800000D01*
X110321820Y-43800000D01*
X110274729Y-43655069D01*
X110274728Y-43655068D01*
X110274728Y-43655066D01*
X110274727Y-43655065D01*
X110243798Y-43601495D01*
X110215312Y-43552155D01*
X112100000Y-43552155D01*
X112100000Y-43750000D01*
X112750000Y-43750000D01*
X113250000Y-43750000D01*
X113850000Y-43750000D01*
X113850000Y-43100000D01*
X113802155Y-43100000D01*
X113742627Y-43106401D01*
X113742617Y-43106403D01*
X113668332Y-43134110D01*
X113598641Y-43139094D01*
X113581668Y-43134110D01*
X113507382Y-43106403D01*
X113507372Y-43106401D01*
X113447844Y-43100000D01*
X113250000Y-43100000D01*
X113250000Y-43750000D01*
X112750000Y-43750000D01*
X112750000Y-43100000D01*
X112552155Y-43100000D01*
X112492627Y-43106401D01*
X112492620Y-43106403D01*
X112357913Y-43156645D01*
X112357906Y-43156649D01*
X112242812Y-43242809D01*
X112242809Y-43242812D01*
X112156649Y-43357906D01*
X112156645Y-43357913D01*
X112106403Y-43492620D01*
X112106401Y-43492627D01*
X112100000Y-43552155D01*
X110215312Y-43552155D01*
X110186084Y-43501531D01*
X110132677Y-43442217D01*
X110067456Y-43369780D01*
X109924023Y-43265571D01*
X109761081Y-43193023D01*
X109707845Y-43147772D01*
X109687524Y-43080923D01*
X109706570Y-43013700D01*
X109740391Y-42978172D01*
X109906877Y-42861598D01*
X110061598Y-42706877D01*
X110187102Y-42527639D01*
X110279575Y-42329330D01*
X110336207Y-42117977D01*
X110355277Y-41900000D01*
X110336207Y-41682023D01*
X110279575Y-41470670D01*
X110187102Y-41272362D01*
X110187100Y-41272359D01*
X110187099Y-41272357D01*
X110061599Y-41093124D01*
X110011483Y-41043008D01*
X109906877Y-40938402D01*
X109751456Y-40829575D01*
X109727638Y-40812897D01*
X109628484Y-40766661D01*
X109529330Y-40720425D01*
X109529326Y-40720424D01*
X109529322Y-40720422D01*
X109317977Y-40663793D01*
X109100002Y-40644723D01*
X109099998Y-40644723D01*
X108954682Y-40657436D01*
X108882023Y-40663793D01*
X108882020Y-40663793D01*
X108670677Y-40720422D01*
X108670668Y-40720426D01*
X108472361Y-40812898D01*
X108472357Y-40812900D01*
X108293121Y-40938402D01*
X108138402Y-41093121D01*
X108012900Y-41272357D01*
X108012898Y-41272361D01*
X107920426Y-41470668D01*
X107920422Y-41470677D01*
X107863793Y-41682020D01*
X107863793Y-41682024D01*
X107844723Y-41899997D01*
X107844723Y-41900002D01*
X107863793Y-42117975D01*
X107863793Y-42117979D01*
X107920422Y-42329322D01*
X107920424Y-42329326D01*
X107920425Y-42329330D01*
X107949771Y-42392262D01*
X108012897Y-42527638D01*
X108012898Y-42527639D01*
X108138402Y-42706877D01*
X108293123Y-42861598D01*
X108472361Y-42987102D01*
X108670670Y-43079575D01*
X108670676Y-43079576D01*
X108670677Y-43079577D01*
X108854100Y-43128725D01*
X108913761Y-43165090D01*
X108944290Y-43227937D01*
X108935995Y-43297312D01*
X108891510Y-43351190D01*
X108824958Y-43372465D01*
X108822007Y-43372500D01*
X104877993Y-43372500D01*
X104810954Y-43352815D01*
X104765199Y-43300011D01*
X104755255Y-43230853D01*
X104784280Y-43167297D01*
X104843058Y-43129523D01*
X104845900Y-43128725D01*
X105029330Y-43079575D01*
X105227639Y-42987102D01*
X105406877Y-42861598D01*
X105561598Y-42706877D01*
X105687102Y-42527639D01*
X105779575Y-42329330D01*
X105836207Y-42117977D01*
X105855277Y-41900000D01*
X105836207Y-41682023D01*
X105779575Y-41470670D01*
X105687102Y-41272362D01*
X105687100Y-41272359D01*
X105687099Y-41272357D01*
X105561599Y-41093124D01*
X105511483Y-41043008D01*
X105406877Y-40938402D01*
X105251456Y-40829575D01*
X105227638Y-40812897D01*
X105128484Y-40766661D01*
X105029330Y-40720425D01*
X105029326Y-40720424D01*
X105029322Y-40720422D01*
X104817977Y-40663793D01*
X104600002Y-40644723D01*
X104599998Y-40644723D01*
X104454682Y-40657436D01*
X104382023Y-40663793D01*
X104382020Y-40663793D01*
X104170677Y-40720422D01*
X104170668Y-40720426D01*
X103972361Y-40812898D01*
X103972357Y-40812900D01*
X103793121Y-40938402D01*
X103638402Y-41093121D01*
X103512900Y-41272357D01*
X103512898Y-41272361D01*
X103420426Y-41470668D01*
X103420423Y-41470674D01*
X103371275Y-41654100D01*
X103334910Y-41713760D01*
X103272063Y-41744289D01*
X103202687Y-41735994D01*
X103148809Y-41691509D01*
X103127535Y-41624957D01*
X103127500Y-41622006D01*
X103127500Y-36125462D01*
X103147185Y-36058423D01*
X103199989Y-36012668D01*
X103251821Y-36001463D01*
X105702727Y-36007964D01*
G37*
%TD.AperFunction*%
%TA.AperFunction,Conductor*%
G36*
X139375000Y-80099999D02*
G01*
X139398308Y-80099999D01*
X139398322Y-80099998D01*
X139497607Y-80089855D01*
X139658481Y-80036547D01*
X139658492Y-80036542D01*
X139802728Y-79947575D01*
X139802732Y-79947572D01*
X139922572Y-79827732D01*
X139922575Y-79827728D01*
X140011542Y-79683492D01*
X140011547Y-79683481D01*
X140039210Y-79600000D01*
X140300000Y-79600000D01*
X140302238Y-79603730D01*
X140302238Y-79603731D01*
X140302237Y-79603731D01*
X140300278Y-80476279D01*
X140280443Y-80543274D01*
X140227536Y-80588910D01*
X140176278Y-80600000D01*
X139089905Y-80600000D01*
X139037106Y-80588198D01*
X139004169Y-80572698D01*
X138826230Y-80488962D01*
X138742675Y-80449642D01*
X138566300Y-80366642D01*
X138245561Y-80215706D01*
X138235794Y-80211110D01*
X138183517Y-80164753D01*
X138164601Y-80097493D01*
X138185052Y-80030683D01*
X138221555Y-79994596D01*
X138237781Y-79984168D01*
X138258543Y-79970825D01*
X138258549Y-79970820D01*
X138285035Y-79947870D01*
X138348590Y-79918844D01*
X138417749Y-79928787D01*
X138443149Y-79944316D01*
X138447271Y-79947575D01*
X138591507Y-80036542D01*
X138591518Y-80036547D01*
X138752393Y-80089855D01*
X138851683Y-80099999D01*
X138875000Y-80099998D01*
X138875000Y-79600000D01*
X139375000Y-79600000D01*
X139375000Y-80099999D01*
G37*
%TD.AperFunction*%
%TA.AperFunction,Conductor*%
G36*
X111874768Y-61077716D02*
G01*
X111914698Y-61135051D01*
X111920718Y-61164652D01*
X111922335Y-61185205D01*
X111967129Y-61339388D01*
X111967131Y-61339393D01*
X112045232Y-61471455D01*
X112062500Y-61534576D01*
X112062500Y-61880307D01*
X112086612Y-62001528D01*
X112086615Y-62001539D01*
X112092826Y-62016532D01*
X112104270Y-62044160D01*
X112107435Y-62051799D01*
X112107436Y-62051803D01*
X112133913Y-62115726D01*
X112133920Y-62115738D01*
X112151211Y-62141616D01*
X112177223Y-62180545D01*
X112184744Y-62191801D01*
X112202590Y-62218510D01*
X113546489Y-63562409D01*
X113546492Y-63562411D01*
X113606891Y-63602768D01*
X113651695Y-63656379D01*
X113662000Y-63705870D01*
X113662000Y-63997868D01*
X113662001Y-63997880D01*
X113666431Y-64039093D01*
X113666431Y-64065596D01*
X113662500Y-64102165D01*
X113662500Y-64150000D01*
X113678111Y-64165611D01*
X113691984Y-64169685D01*
X113724211Y-64199689D01*
X113799820Y-64300689D01*
X113824238Y-64366153D01*
X113809387Y-64434426D01*
X113799820Y-64449311D01*
X113724211Y-64550311D01*
X113676392Y-64586107D01*
X113662500Y-64600000D01*
X113662500Y-64647832D01*
X113666431Y-64684399D01*
X113666431Y-64710905D01*
X113662000Y-64752122D01*
X113662000Y-64945973D01*
X113642315Y-65013012D01*
X113589511Y-65058767D01*
X113562193Y-65067590D01*
X113541970Y-65071612D01*
X113541961Y-65071615D01*
X113475069Y-65099322D01*
X113475070Y-65099323D01*
X113427768Y-65118916D01*
X113427764Y-65118918D01*
X113365594Y-65160459D01*
X113365594Y-65160460D01*
X113324989Y-65187590D01*
X113324988Y-65187591D01*
X113292271Y-65220309D01*
X113230948Y-65253794D01*
X113217556Y-65255948D01*
X113211354Y-65256600D01*
X113037941Y-65293459D01*
X113037933Y-65293461D01*
X112875978Y-65365570D01*
X112732543Y-65469780D01*
X112613915Y-65601532D01*
X112525272Y-65755065D01*
X112525271Y-65755066D01*
X112470487Y-65923677D01*
X112470486Y-65923679D01*
X112451954Y-66100000D01*
X112470486Y-66276320D01*
X112470487Y-66276322D01*
X112525271Y-66444933D01*
X112525272Y-66444934D01*
X112568054Y-66519034D01*
X112613916Y-66598469D01*
X112642504Y-66630219D01*
X112732543Y-66730219D01*
X112732546Y-66730221D01*
X112875977Y-66834429D01*
X113037933Y-66906538D01*
X113037936Y-66906538D01*
X113037939Y-66906540D01*
X113211355Y-66943400D01*
X113388645Y-66943400D01*
X113494075Y-66920990D01*
X113512220Y-66917134D01*
X113581887Y-66922450D01*
X113637620Y-66964587D01*
X113661725Y-67030167D01*
X113662000Y-67038423D01*
X113662000Y-67247868D01*
X113662001Y-67247878D01*
X113666179Y-67286745D01*
X113666179Y-67313250D01*
X113662000Y-67352122D01*
X113662000Y-67897869D01*
X113662001Y-67897878D01*
X113666179Y-67936745D01*
X113666179Y-67963250D01*
X113662000Y-68002122D01*
X113662000Y-68547869D01*
X113662001Y-68547878D01*
X113666179Y-68586745D01*
X113666179Y-68613250D01*
X113662000Y-68652122D01*
X113662000Y-69197869D01*
X113662001Y-69197878D01*
X113666179Y-69236745D01*
X113666179Y-69263250D01*
X113662000Y-69302122D01*
X113662000Y-69847870D01*
X113662001Y-69847876D01*
X113668408Y-69907483D01*
X113718702Y-70042328D01*
X113718706Y-70042335D01*
X113804952Y-70157544D01*
X113804955Y-70157547D01*
X113920164Y-70243793D01*
X113920171Y-70243797D01*
X114055017Y-70294091D01*
X114055016Y-70294091D01*
X114061944Y-70294835D01*
X114114627Y-70300500D01*
X115685372Y-70300499D01*
X115744983Y-70294091D01*
X115879831Y-70243796D01*
X115995046Y-70157546D01*
X116081296Y-70042331D01*
X116131591Y-69907483D01*
X116138000Y-69847873D01*
X116137999Y-69302128D01*
X116137999Y-69302127D01*
X116137998Y-69302111D01*
X116133820Y-69263253D01*
X116133820Y-69236745D01*
X116138000Y-69197873D01*
X116137999Y-68652128D01*
X116136216Y-68635541D01*
X116148623Y-68566781D01*
X116196233Y-68515645D01*
X116263933Y-68498366D01*
X116330227Y-68520431D01*
X116347187Y-68534606D01*
X117063181Y-69250600D01*
X117096666Y-69311923D01*
X117099500Y-69338281D01*
X117099500Y-69947870D01*
X117099501Y-69947876D01*
X117105908Y-70007483D01*
X117156202Y-70142328D01*
X117156206Y-70142335D01*
X117242452Y-70257544D01*
X117242455Y-70257547D01*
X117357664Y-70343793D01*
X117357671Y-70343797D01*
X117492517Y-70394091D01*
X117492516Y-70394091D01*
X117499444Y-70394835D01*
X117552127Y-70400500D01*
X118647872Y-70400499D01*
X118707483Y-70394091D01*
X118842331Y-70343796D01*
X118957546Y-70257546D01*
X119043796Y-70142331D01*
X119094091Y-70007483D01*
X119100500Y-69947873D01*
X119100499Y-68852128D01*
X119094091Y-68792517D01*
X119084040Y-68765570D01*
X119043797Y-68657671D01*
X119043793Y-68657664D01*
X118961606Y-68547878D01*
X118957546Y-68542454D01*
X118899854Y-68499265D01*
X118857984Y-68443333D01*
X118853000Y-68373641D01*
X118886485Y-68312318D01*
X118899850Y-68300736D01*
X118957546Y-68257546D01*
X119043796Y-68142331D01*
X119094091Y-68007483D01*
X119100500Y-67947873D01*
X119100499Y-66852128D01*
X119094091Y-66792517D01*
X119094091Y-66792516D01*
X119092307Y-66784966D01*
X119094276Y-66784500D01*
X119090046Y-66725341D01*
X119123531Y-66664018D01*
X119138320Y-66651387D01*
X119167454Y-66630221D01*
X119286084Y-66498469D01*
X119374729Y-66344931D01*
X119429514Y-66176319D01*
X119448046Y-66000000D01*
X119440590Y-65929058D01*
X119440180Y-65925159D01*
X119439501Y-65912198D01*
X119439501Y-65835578D01*
X119439500Y-65835552D01*
X119439500Y-65648165D01*
X119444424Y-65613569D01*
X119447921Y-65601532D01*
X119452665Y-65585204D01*
X119455500Y-65549181D01*
X119455499Y-65050820D01*
X119452665Y-65014796D01*
X119444423Y-64986425D01*
X119439500Y-64951833D01*
X119439500Y-64631194D01*
X119456768Y-64568073D01*
X119503743Y-64488642D01*
X119532869Y-64439393D01*
X119554147Y-64366153D01*
X119562986Y-64335730D01*
X119592460Y-64285894D01*
X119592194Y-64285676D01*
X119593611Y-64283948D01*
X119594386Y-64282638D01*
X119596059Y-64280966D01*
X119661494Y-64183035D01*
X119678630Y-64157389D01*
X119680784Y-64152190D01*
X119683939Y-64144572D01*
X119727779Y-64090168D01*
X119794073Y-64068103D01*
X119861773Y-64085382D01*
X119909383Y-64136519D01*
X119922500Y-64192024D01*
X119922500Y-71776902D01*
X119902815Y-71843941D01*
X119886181Y-71864583D01*
X119419481Y-72331282D01*
X119419479Y-72331285D01*
X119402948Y-72359919D01*
X119383319Y-72393917D01*
X119340423Y-72468215D01*
X119299499Y-72620943D01*
X119299499Y-72620945D01*
X119299499Y-72789046D01*
X119299500Y-72789059D01*
X119299500Y-73313330D01*
X119299499Y-73313348D01*
X119299499Y-73479054D01*
X119299498Y-73479054D01*
X119299499Y-73479057D01*
X119340423Y-73631785D01*
X119361746Y-73668717D01*
X119363526Y-73671799D01*
X119363527Y-73671803D01*
X119419475Y-73768709D01*
X119419481Y-73768717D01*
X119513181Y-73862417D01*
X119546666Y-73923740D01*
X119549500Y-73950098D01*
X119549500Y-75032870D01*
X119549501Y-75032876D01*
X119555908Y-75092483D01*
X119606202Y-75227328D01*
X119610454Y-75235114D01*
X119607280Y-75236846D01*
X119625659Y-75286302D01*
X119610725Y-75354557D01*
X119610117Y-75355502D01*
X119606202Y-75362671D01*
X119555908Y-75497517D01*
X119549501Y-75557116D01*
X119549501Y-75557123D01*
X119549500Y-75557135D01*
X119549500Y-76642870D01*
X119549501Y-76642876D01*
X119555908Y-76702483D01*
X119591682Y-76798395D01*
X119599500Y-76841728D01*
X119599500Y-77265330D01*
X119599499Y-77265348D01*
X119599499Y-77431054D01*
X119599498Y-77431054D01*
X119640423Y-77583786D01*
X119653559Y-77606536D01*
X119653560Y-77606541D01*
X119653562Y-77606541D01*
X119719479Y-77720714D01*
X119719481Y-77720717D01*
X119811181Y-77812417D01*
X119844666Y-77873740D01*
X119847500Y-77900098D01*
X119847500Y-78460719D01*
X119827815Y-78527758D01*
X119775011Y-78573513D01*
X119705853Y-78583457D01*
X119642297Y-78554432D01*
X119635819Y-78548400D01*
X117984101Y-76896682D01*
X117950616Y-76835359D01*
X117949041Y-76806500D01*
X117948046Y-76806500D01*
X117948046Y-76800003D01*
X117947877Y-76798394D01*
X117929514Y-76623681D01*
X117874729Y-76455069D01*
X117874728Y-76455068D01*
X117874728Y-76455066D01*
X117874727Y-76455065D01*
X117803964Y-76332500D01*
X117786084Y-76301531D01*
X117728098Y-76237131D01*
X117667456Y-76169780D01*
X117543047Y-76079393D01*
X117524023Y-76065571D01*
X117524021Y-76065570D01*
X117524022Y-76065570D01*
X117362066Y-75993461D01*
X117362058Y-75993459D01*
X117188645Y-75956600D01*
X117011355Y-75956600D01*
X116837941Y-75993459D01*
X116837933Y-75993461D01*
X116675977Y-76065570D01*
X116675972Y-76065573D01*
X116537309Y-76166318D01*
X116471503Y-76189798D01*
X116464424Y-76190000D01*
X115910409Y-76190000D01*
X115900680Y-76189618D01*
X115899186Y-76189500D01*
X115899181Y-76189500D01*
X115593248Y-76189500D01*
X115526209Y-76169815D01*
X115480454Y-76117011D01*
X115470510Y-76047853D01*
X115471631Y-76041308D01*
X115472071Y-76039098D01*
X115477500Y-76011803D01*
X115477500Y-75888197D01*
X115477500Y-75690000D01*
X115900000Y-75690000D01*
X116462844Y-75690000D01*
X116422404Y-75550805D01*
X116340738Y-75412714D01*
X116340731Y-75412705D01*
X116227294Y-75299268D01*
X116227285Y-75299261D01*
X116089191Y-75217593D01*
X116089188Y-75217592D01*
X115935130Y-75172834D01*
X115900000Y-75170068D01*
X115900000Y-75690000D01*
X115477500Y-75690000D01*
X115477500Y-74588197D01*
X115477500Y-74588194D01*
X115453386Y-74466970D01*
X115453385Y-74466969D01*
X115453385Y-74466965D01*
X115430538Y-74411807D01*
X115406086Y-74352773D01*
X115406079Y-74352760D01*
X115337412Y-74249993D01*
X115307459Y-74220040D01*
X115250008Y-74162589D01*
X114263941Y-73176522D01*
X114230456Y-73115199D01*
X114235440Y-73045507D01*
X114244890Y-73025719D01*
X114272406Y-72979192D01*
X114312844Y-72840000D01*
X113760409Y-72840000D01*
X113750682Y-72839618D01*
X113749182Y-72839500D01*
X113250831Y-72839500D01*
X113250806Y-72839501D01*
X113249332Y-72839618D01*
X113239607Y-72840000D01*
X112687156Y-72840000D01*
X112727594Y-72979193D01*
X112761419Y-73036388D01*
X112778601Y-73104112D01*
X112761419Y-73162628D01*
X112727130Y-73220607D01*
X112727129Y-73220611D01*
X112682335Y-73374791D01*
X112682334Y-73374797D01*
X112679500Y-73410811D01*
X112679500Y-73809169D01*
X112679501Y-73809191D01*
X112682335Y-73845205D01*
X112727129Y-73999388D01*
X112727131Y-73999393D01*
X112808863Y-74137595D01*
X112808869Y-74137603D01*
X112922396Y-74251130D01*
X112922400Y-74251133D01*
X112922402Y-74251135D01*
X113060607Y-74332869D01*
X113060611Y-74332870D01*
X113064835Y-74334698D01*
X113118543Y-74379388D01*
X113139564Y-74446021D01*
X113121224Y-74513441D01*
X113069345Y-74560242D01*
X113015589Y-74572500D01*
X111861281Y-74572500D01*
X111794242Y-74552815D01*
X111773600Y-74536181D01*
X111546028Y-74308609D01*
X111512543Y-74247286D01*
X111517527Y-74177594D01*
X111534443Y-74146617D01*
X111593793Y-74067335D01*
X111593792Y-74067335D01*
X111593796Y-74067331D01*
X111644091Y-73932483D01*
X111650500Y-73872873D01*
X111650499Y-72827128D01*
X111644091Y-72767517D01*
X111611036Y-72678893D01*
X111593797Y-72632671D01*
X111593793Y-72632664D01*
X111507547Y-72517455D01*
X111507544Y-72517452D01*
X111392335Y-72431206D01*
X111392328Y-72431202D01*
X111257482Y-72380908D01*
X111257483Y-72380908D01*
X111197883Y-72374501D01*
X111197881Y-72374500D01*
X111197873Y-72374500D01*
X111197864Y-72374500D01*
X110202129Y-72374500D01*
X110202123Y-72374501D01*
X110142516Y-72380908D01*
X109999359Y-72434303D01*
X109998714Y-72432575D01*
X109941147Y-72445095D01*
X109901011Y-72433310D01*
X109900641Y-72434303D01*
X109844680Y-72413431D01*
X109788746Y-72371560D01*
X109773454Y-72344705D01*
X109771505Y-72340000D01*
X112687156Y-72340000D01*
X113250000Y-72340000D01*
X113750000Y-72340000D01*
X114312844Y-72340000D01*
X114272404Y-72200805D01*
X114190738Y-72062714D01*
X114190731Y-72062705D01*
X114077294Y-71949268D01*
X114077285Y-71949261D01*
X113939191Y-71867593D01*
X113939188Y-71867592D01*
X113785130Y-71822834D01*
X113750000Y-71820068D01*
X113750000Y-72340000D01*
X113250000Y-72340000D01*
X113250000Y-71820068D01*
X113249999Y-71820068D01*
X113214869Y-71822834D01*
X113214868Y-71822834D01*
X113060811Y-71867592D01*
X113060808Y-71867593D01*
X112922714Y-71949261D01*
X112922705Y-71949268D01*
X112809268Y-72062705D01*
X112809261Y-72062714D01*
X112727595Y-72200805D01*
X112687156Y-72340000D01*
X109771505Y-72340000D01*
X109756083Y-72302767D01*
X109700432Y-72219480D01*
X109687414Y-72199996D01*
X109687413Y-72199994D01*
X109687411Y-72199992D01*
X109600008Y-72112589D01*
X109187411Y-71699992D01*
X108700011Y-71212591D01*
X108700007Y-71212588D01*
X108597239Y-71143920D01*
X108597226Y-71143913D01*
X108563785Y-71130062D01*
X108483035Y-71096614D01*
X108483027Y-71096612D01*
X108361807Y-71072500D01*
X108361803Y-71072500D01*
X104461803Y-71072500D01*
X104358117Y-71072500D01*
X104291078Y-71052815D01*
X104245323Y-71000011D01*
X104235379Y-70930853D01*
X104250730Y-70886500D01*
X104274727Y-70844935D01*
X104274727Y-70844933D01*
X104274729Y-70844931D01*
X104290863Y-70795273D01*
X104321107Y-70745916D01*
X104340026Y-70726996D01*
X104401346Y-70693512D01*
X104471037Y-70698495D01*
X104490827Y-70707945D01*
X104600607Y-70772869D01*
X104600614Y-70772871D01*
X104754791Y-70817664D01*
X104754794Y-70817664D01*
X104754796Y-70817665D01*
X104790819Y-70820500D01*
X105189180Y-70820499D01*
X105225204Y-70817665D01*
X105379393Y-70772869D01*
X105436882Y-70738869D01*
X105504602Y-70721688D01*
X105563117Y-70738869D01*
X105620607Y-70772869D01*
X105620610Y-70772869D01*
X105620612Y-70772871D01*
X105774791Y-70817664D01*
X105774794Y-70817664D01*
X105774796Y-70817665D01*
X105810819Y-70820500D01*
X106209180Y-70820499D01*
X106245204Y-70817665D01*
X106399393Y-70772869D01*
X106537598Y-70691135D01*
X106537603Y-70691130D01*
X106564915Y-70663819D01*
X106626238Y-70630334D01*
X106652596Y-70627500D01*
X107228304Y-70627500D01*
X107228305Y-70627499D01*
X107349535Y-70603386D01*
X107430284Y-70569937D01*
X107463733Y-70556083D01*
X107566508Y-70487411D01*
X107653911Y-70400008D01*
X107834702Y-70219216D01*
X107896024Y-70185732D01*
X107965715Y-70190716D01*
X107996693Y-70207632D01*
X108044406Y-70243350D01*
X108044413Y-70243354D01*
X108179120Y-70293596D01*
X108179127Y-70293598D01*
X108238655Y-70299999D01*
X108238672Y-70300000D01*
X108799000Y-70300000D01*
X108799000Y-69774499D01*
X108818685Y-69707460D01*
X108871489Y-69661705D01*
X108923000Y-69650499D01*
X109125000Y-69650499D01*
X109192039Y-69670184D01*
X109237794Y-69722988D01*
X109249000Y-69774499D01*
X109249000Y-70300000D01*
X109809328Y-70300000D01*
X109809344Y-70299999D01*
X109868872Y-70293598D01*
X109868876Y-70293597D01*
X110006406Y-70242301D01*
X110076098Y-70237317D01*
X110100176Y-70245204D01*
X110237933Y-70306538D01*
X110237936Y-70306538D01*
X110237939Y-70306540D01*
X110411355Y-70343400D01*
X110588645Y-70343400D01*
X110762061Y-70306540D01*
X110762064Y-70306538D01*
X110762066Y-70306538D01*
X110794869Y-70291932D01*
X110924023Y-70234429D01*
X111067454Y-70130221D01*
X111186084Y-69998469D01*
X111274729Y-69844931D01*
X111329514Y-69676319D01*
X111348046Y-69500000D01*
X111329514Y-69323681D01*
X111274729Y-69155069D01*
X111274728Y-69155068D01*
X111274728Y-69155066D01*
X111274727Y-69155065D01*
X111243798Y-69101495D01*
X111186084Y-69001531D01*
X111132677Y-68942217D01*
X111067456Y-68869780D01*
X110961110Y-68792516D01*
X110924023Y-68765571D01*
X110924021Y-68765570D01*
X110924022Y-68765570D01*
X110762066Y-68693461D01*
X110762058Y-68693459D01*
X110716567Y-68683790D01*
X110655085Y-68650598D01*
X110621308Y-68589435D01*
X110625960Y-68519721D01*
X110667564Y-68463588D01*
X110716567Y-68441210D01*
X110724646Y-68439492D01*
X110762061Y-68431540D01*
X110762064Y-68431538D01*
X110762066Y-68431538D01*
X110832902Y-68399999D01*
X110924023Y-68359429D01*
X111067454Y-68255221D01*
X111186084Y-68123469D01*
X111274729Y-67969931D01*
X111329514Y-67801319D01*
X111348046Y-67625000D01*
X111329514Y-67448681D01*
X111274729Y-67280069D01*
X111274728Y-67280068D01*
X111274728Y-67280066D01*
X111274727Y-67280065D01*
X111240094Y-67220079D01*
X111186084Y-67126531D01*
X111132677Y-67067217D01*
X111067456Y-66994780D01*
X111008810Y-66952172D01*
X110954642Y-66912817D01*
X110911978Y-66857489D01*
X110905999Y-66787876D01*
X110938604Y-66726080D01*
X110954639Y-66712185D01*
X111067454Y-66630221D01*
X111186084Y-66498469D01*
X111274729Y-66344931D01*
X111329514Y-66176319D01*
X111348046Y-66000000D01*
X111329514Y-65823681D01*
X111274729Y-65655069D01*
X111274728Y-65655068D01*
X111274728Y-65655066D01*
X111274727Y-65655065D01*
X111234393Y-65585205D01*
X111186084Y-65501531D01*
X111117808Y-65425703D01*
X111067456Y-65369780D01*
X110995738Y-65317675D01*
X110924023Y-65265571D01*
X110924021Y-65265570D01*
X110924022Y-65265570D01*
X110762066Y-65193461D01*
X110762058Y-65193459D01*
X110588645Y-65156600D01*
X110411355Y-65156600D01*
X110411350Y-65156600D01*
X110404887Y-65157279D01*
X110404750Y-65155975D01*
X110342096Y-65151186D01*
X110286369Y-65109041D01*
X110262273Y-65043458D01*
X110261999Y-65035218D01*
X110261999Y-64752128D01*
X110261998Y-64752111D01*
X110257820Y-64713253D01*
X110257820Y-64686747D01*
X110262000Y-64647873D01*
X110261999Y-64469142D01*
X110281683Y-64402104D01*
X110334487Y-64356349D01*
X110361800Y-64347527D01*
X110458035Y-64328386D01*
X110542533Y-64293385D01*
X110572233Y-64281083D01*
X110675008Y-64212411D01*
X110762411Y-64125008D01*
X111487411Y-63400008D01*
X111505791Y-63372500D01*
X111556083Y-63297233D01*
X111585120Y-63227131D01*
X111603386Y-63183034D01*
X111627500Y-63061803D01*
X111627500Y-62938197D01*
X111627500Y-61514287D01*
X111629883Y-61490094D01*
X111630489Y-61487051D01*
X111637500Y-61451803D01*
X111637500Y-61234576D01*
X111654768Y-61171455D01*
X111676297Y-61135051D01*
X111690368Y-61111257D01*
X111741437Y-61063575D01*
X111810178Y-61051071D01*
X111874768Y-61077716D01*
G37*
%TD.AperFunction*%
%TA.AperFunction,Conductor*%
G36*
X105982703Y-75945385D02*
G01*
X106020477Y-76004163D01*
X106023117Y-76014907D01*
X106046612Y-76133028D01*
X106046613Y-76133032D01*
X106046614Y-76133035D01*
X106070003Y-76189500D01*
X106071253Y-76192517D01*
X106071253Y-76192518D01*
X106093915Y-76247230D01*
X106150889Y-76332497D01*
X106150889Y-76332498D01*
X106162587Y-76350006D01*
X106463681Y-76651100D01*
X106497166Y-76712423D01*
X106500000Y-76738781D01*
X106500000Y-77461218D01*
X106480315Y-77528257D01*
X106463684Y-77548896D01*
X106406044Y-77606536D01*
X106359398Y-77653182D01*
X106298075Y-77686666D01*
X106271717Y-77689500D01*
X106124000Y-77689500D01*
X106056961Y-77669815D01*
X106011206Y-77617011D01*
X106000000Y-77565500D01*
X106000000Y-76670068D01*
X105999999Y-76670068D01*
X105964869Y-76672834D01*
X105964868Y-76672834D01*
X105936092Y-76681194D01*
X105866223Y-76680993D01*
X105807554Y-76643049D01*
X105778712Y-76579410D01*
X105777500Y-76562117D01*
X105777500Y-76039098D01*
X105797185Y-75972059D01*
X105849989Y-75926304D01*
X105919147Y-75916360D01*
X105982703Y-75945385D01*
G37*
%TD.AperFunction*%
%TA.AperFunction,Conductor*%
G36*
X140245184Y-70397674D02*
G01*
X140299943Y-70441071D01*
X140322547Y-70507183D01*
X140322666Y-70512897D01*
X140314275Y-74247286D01*
X140308313Y-76900230D01*
X139900000Y-76600000D01*
X138607207Y-76600000D01*
X138589667Y-76564843D01*
X138591332Y-76513303D01*
X140078273Y-70482928D01*
X140113434Y-70422554D01*
X140175656Y-70390772D01*
X140245184Y-70397674D01*
G37*
%TD.AperFunction*%
%TA.AperFunction,Conductor*%
G36*
X108055758Y-72347185D02*
G01*
X108076400Y-72363819D01*
X108260461Y-72547880D01*
X108293946Y-72609203D01*
X108288962Y-72678893D01*
X108255909Y-72767514D01*
X108255908Y-72767516D01*
X108249501Y-72827116D01*
X108249501Y-72827123D01*
X108249500Y-72827135D01*
X108249500Y-73872870D01*
X108249501Y-73872876D01*
X108255908Y-73932483D01*
X108306202Y-74067328D01*
X108306206Y-74067335D01*
X108392452Y-74182544D01*
X108392455Y-74182547D01*
X108507664Y-74268793D01*
X108507671Y-74268797D01*
X108642517Y-74319091D01*
X108642516Y-74319091D01*
X108649444Y-74319835D01*
X108702127Y-74325500D01*
X109697872Y-74325499D01*
X109757483Y-74319091D01*
X109892331Y-74268796D01*
X109892333Y-74268794D01*
X109900640Y-74265696D01*
X109901455Y-74267882D01*
X109957333Y-74255721D01*
X110022800Y-74280131D01*
X110064677Y-74336060D01*
X110072500Y-74379406D01*
X110072500Y-74411807D01*
X110096612Y-74533027D01*
X110096614Y-74533035D01*
X110122950Y-74596615D01*
X110143916Y-74647232D01*
X110210734Y-74747232D01*
X110212585Y-74750003D01*
X110212592Y-74750011D01*
X110760400Y-75297819D01*
X110793885Y-75359142D01*
X110788901Y-75428834D01*
X110747029Y-75484767D01*
X110681565Y-75509184D01*
X110672719Y-75509500D01*
X110017129Y-75509500D01*
X110017123Y-75509501D01*
X109957516Y-75515908D01*
X109892064Y-75540321D01*
X109822372Y-75545305D01*
X109761049Y-75511820D01*
X109749468Y-75498455D01*
X109707546Y-75442454D01*
X109667807Y-75412705D01*
X109592335Y-75356206D01*
X109592328Y-75356202D01*
X109457482Y-75305908D01*
X109457483Y-75305908D01*
X109397883Y-75299501D01*
X109397881Y-75299500D01*
X109397873Y-75299500D01*
X109397864Y-75299500D01*
X107902129Y-75299500D01*
X107902123Y-75299501D01*
X107842516Y-75305908D01*
X107707671Y-75356202D01*
X107707664Y-75356206D01*
X107592455Y-75442452D01*
X107592452Y-75442455D01*
X107500888Y-75564769D01*
X107497915Y-75562543D01*
X107460839Y-75599561D01*
X107392555Y-75614358D01*
X107327110Y-75589888D01*
X107285283Y-75533921D01*
X107277500Y-75490681D01*
X107277500Y-73388196D01*
X107274669Y-73373968D01*
X107266179Y-73331284D01*
X107264121Y-73320939D01*
X107253387Y-73266973D01*
X107253386Y-73266966D01*
X107217578Y-73180519D01*
X107206083Y-73152767D01*
X107137414Y-73049996D01*
X107137413Y-73049994D01*
X107108591Y-73021172D01*
X107050008Y-72962589D01*
X106661818Y-72574399D01*
X106628333Y-72513076D01*
X106625499Y-72486718D01*
X106625499Y-72451500D01*
X106645184Y-72384461D01*
X106697988Y-72338706D01*
X106749499Y-72327500D01*
X107988719Y-72327500D01*
X108055758Y-72347185D01*
G37*
%TD.AperFunction*%
%TA.AperFunction,Conductor*%
G36*
X133710703Y-66225384D02*
G01*
X133717181Y-66231416D01*
X133950139Y-66464374D01*
X133950149Y-66464385D01*
X133954479Y-66468715D01*
X133954480Y-66468716D01*
X134066284Y-66580520D01*
X134066286Y-66580521D01*
X134066290Y-66580524D01*
X134152368Y-66630221D01*
X134152369Y-66630221D01*
X134186520Y-66649938D01*
X134234735Y-66700505D01*
X134247959Y-66769112D01*
X134240702Y-66800657D01*
X134206403Y-66892616D01*
X134206401Y-66892627D01*
X134200000Y-66952155D01*
X134200000Y-68350000D01*
X136800000Y-68350000D01*
X136800000Y-66952172D01*
X136799999Y-66952155D01*
X136793598Y-66892627D01*
X136793596Y-66892617D01*
X136784352Y-66867832D01*
X136779368Y-66798141D01*
X136812854Y-66736818D01*
X136874177Y-66703334D01*
X136900534Y-66700500D01*
X138513331Y-66700500D01*
X138513347Y-66700501D01*
X138607063Y-66700501D01*
X138674102Y-66720186D01*
X138719857Y-66772990D01*
X138729801Y-66842148D01*
X138700776Y-66905704D01*
X138652633Y-66939823D01*
X138643583Y-66943400D01*
X138570960Y-66972097D01*
X138455948Y-67058549D01*
X138455944Y-67058552D01*
X138406644Y-67108048D01*
X138406637Y-67108056D01*
X138320643Y-67223404D01*
X137032949Y-69592762D01*
X136983642Y-69642265D01*
X136915398Y-69657251D01*
X136849886Y-69632964D01*
X136807904Y-69577113D01*
X136800000Y-69533550D01*
X136800000Y-68850000D01*
X135750000Y-68850000D01*
X135750000Y-70700000D01*
X136222668Y-70700000D01*
X136289707Y-70719685D01*
X136335462Y-70772489D01*
X136345406Y-70841647D01*
X136331618Y-70883212D01*
X136114324Y-71283035D01*
X136052260Y-71397233D01*
X136034608Y-71429712D01*
X135985300Y-71479214D01*
X135925658Y-71494500D01*
X133629500Y-71494500D01*
X133562461Y-71474815D01*
X133516706Y-71422011D01*
X133505500Y-71370500D01*
X133505500Y-70247844D01*
X134200000Y-70247844D01*
X134206401Y-70307372D01*
X134206403Y-70307379D01*
X134256645Y-70442086D01*
X134256649Y-70442093D01*
X134342809Y-70557187D01*
X134342812Y-70557190D01*
X134457906Y-70643350D01*
X134457913Y-70643354D01*
X134592620Y-70693596D01*
X134592627Y-70693598D01*
X134652155Y-70699999D01*
X134652172Y-70700000D01*
X135250000Y-70700000D01*
X135250000Y-68850000D01*
X134200000Y-68850000D01*
X134200000Y-70247844D01*
X133505500Y-70247844D01*
X133505500Y-66319097D01*
X133525185Y-66252058D01*
X133577989Y-66206303D01*
X133647147Y-66196359D01*
X133710703Y-66225384D01*
G37*
%TD.AperFunction*%
%TA.AperFunction,Conductor*%
G36*
X135874500Y-63946613D02*
G01*
X135880913Y-64017192D01*
X135880913Y-64017194D01*
X135880914Y-64017196D01*
X135931522Y-64179606D01*
X136012370Y-64313345D01*
X136019530Y-64325188D01*
X136121661Y-64427319D01*
X136155146Y-64488642D01*
X136150162Y-64558334D01*
X136121661Y-64602681D01*
X136019531Y-64704810D01*
X136019530Y-64704811D01*
X135990936Y-64752111D01*
X135931522Y-64850394D01*
X135931521Y-64850396D01*
X135928950Y-64854650D01*
X135877422Y-64901837D01*
X135822833Y-64914500D01*
X135150098Y-64914500D01*
X135083059Y-64894815D01*
X135062417Y-64878181D01*
X135004957Y-64820721D01*
X134971472Y-64759398D01*
X134971021Y-64708847D01*
X134974270Y-64692517D01*
X134983500Y-64646114D01*
X134983500Y-64419000D01*
X135003185Y-64351961D01*
X135055989Y-64306206D01*
X135107500Y-64295000D01*
X135111328Y-64295000D01*
X135111344Y-64294999D01*
X135170872Y-64288598D01*
X135170879Y-64288596D01*
X135305586Y-64238354D01*
X135305593Y-64238350D01*
X135420687Y-64152190D01*
X135420690Y-64152187D01*
X135506850Y-64037093D01*
X135506854Y-64037086D01*
X135557096Y-63902379D01*
X135557098Y-63902372D01*
X135563499Y-63842844D01*
X135563500Y-63842827D01*
X135563500Y-63815000D01*
X135874500Y-63815000D01*
X135874500Y-63946613D01*
G37*
%TD.AperFunction*%
%TA.AperFunction,Conductor*%
G36*
X102896885Y-61676966D02*
G01*
X102975972Y-61734426D01*
X102975977Y-61734429D01*
X103119786Y-61798458D01*
X103157031Y-61824056D01*
X103671656Y-62338681D01*
X104173181Y-62840205D01*
X104206666Y-62901528D01*
X104209500Y-62927886D01*
X104209500Y-63249169D01*
X104209501Y-63249191D01*
X104212098Y-63282202D01*
X104212335Y-63285204D01*
X104220107Y-63311956D01*
X104220576Y-63313568D01*
X104225500Y-63348164D01*
X104225500Y-63621500D01*
X104205815Y-63688539D01*
X104153011Y-63734294D01*
X104101500Y-63745500D01*
X103905300Y-63745500D01*
X103854864Y-63734779D01*
X103762066Y-63693461D01*
X103762058Y-63693459D01*
X103588645Y-63656600D01*
X103411355Y-63656600D01*
X103237941Y-63693459D01*
X103237933Y-63693461D01*
X103075978Y-63765570D01*
X102932542Y-63869781D01*
X102916149Y-63887988D01*
X102856662Y-63924636D01*
X102786805Y-63923305D01*
X102728757Y-63884418D01*
X102700948Y-63820321D01*
X102700000Y-63805015D01*
X102700000Y-61777284D01*
X102719685Y-61710245D01*
X102772489Y-61664490D01*
X102841647Y-61654546D01*
X102896885Y-61676966D01*
G37*
%TD.AperFunction*%
%TA.AperFunction,Conductor*%
G36*
X140264428Y-60415504D02*
G01*
X140320362Y-60457375D01*
X140344779Y-60522839D01*
X140345095Y-60531965D01*
X140339737Y-62916279D01*
X140319902Y-62983274D01*
X140266995Y-63028910D01*
X140215738Y-63040000D01*
X140126693Y-63040000D01*
X140126676Y-63040001D01*
X140027392Y-63050144D01*
X139866518Y-63103452D01*
X139866507Y-63103457D01*
X139722271Y-63192424D01*
X139722264Y-63192430D01*
X139713028Y-63201665D01*
X139651703Y-63235146D01*
X139582011Y-63230157D01*
X139537672Y-63201659D01*
X139528047Y-63192034D01*
X139509400Y-63180532D01*
X139462677Y-63128582D01*
X139450500Y-63074995D01*
X139450500Y-61604060D01*
X139450501Y-61604047D01*
X139450501Y-61435944D01*
X139446363Y-61420500D01*
X139409577Y-61283216D01*
X139409573Y-61283209D01*
X139330524Y-61146290D01*
X139330518Y-61146282D01*
X139038417Y-60854181D01*
X139004932Y-60792858D01*
X139009916Y-60723166D01*
X139051788Y-60667233D01*
X139117252Y-60642816D01*
X139126098Y-60642500D01*
X139736804Y-60642500D01*
X139736805Y-60642499D01*
X139858035Y-60618386D01*
X139940295Y-60584312D01*
X139972233Y-60571083D01*
X140075008Y-60502411D01*
X140133415Y-60444003D01*
X140194736Y-60410520D01*
X140264428Y-60415504D01*
G37*
%TD.AperFunction*%
%TA.AperFunction,Conductor*%
G36*
X137616942Y-61135185D02*
G01*
X137637584Y-61151819D01*
X137945684Y-61459919D01*
X137979169Y-61521242D01*
X137974185Y-61590934D01*
X137932313Y-61646867D01*
X137866849Y-61671284D01*
X137858003Y-61671600D01*
X137761355Y-61671600D01*
X137587941Y-61708459D01*
X137587933Y-61708461D01*
X137425978Y-61780570D01*
X137282543Y-61884780D01*
X137163915Y-62016532D01*
X137075272Y-62170065D01*
X137075271Y-62170067D01*
X137020487Y-62338676D01*
X137020487Y-62338677D01*
X137020486Y-62338681D01*
X137011886Y-62420500D01*
X137011168Y-62427333D01*
X136984583Y-62491947D01*
X136975528Y-62502051D01*
X136724398Y-62753182D01*
X136663078Y-62786666D01*
X136636719Y-62789500D01*
X136518384Y-62789500D01*
X136499145Y-62791248D01*
X136447807Y-62795913D01*
X136285393Y-62846522D01*
X136139811Y-62934530D01*
X136019530Y-63054811D01*
X135950000Y-63169826D01*
X135950000Y-62215000D01*
X135563500Y-62215000D01*
X135563500Y-62167172D01*
X135563499Y-62167155D01*
X135557098Y-62107627D01*
X135557096Y-62107620D01*
X135506854Y-61972913D01*
X135506850Y-61972906D01*
X135420690Y-61857812D01*
X135420687Y-61857809D01*
X135305593Y-61771649D01*
X135305586Y-61771645D01*
X135170879Y-61721403D01*
X135170872Y-61721401D01*
X135111344Y-61715000D01*
X135107500Y-61715000D01*
X135040461Y-61695315D01*
X134994706Y-61642511D01*
X134983500Y-61591000D01*
X134983500Y-61363885D01*
X134975502Y-61323678D01*
X134974339Y-61317832D01*
X134980565Y-61248243D01*
X135008276Y-61205959D01*
X135062418Y-61151818D01*
X135123741Y-61118334D01*
X135150098Y-61115500D01*
X137549903Y-61115500D01*
X137616942Y-61135185D01*
G37*
%TD.AperFunction*%
%TA.AperFunction,Conductor*%
G36*
X109316297Y-61147185D02*
G01*
X109347240Y-61175503D01*
X109348868Y-61177602D01*
X109462396Y-61291130D01*
X109462400Y-61291133D01*
X109462402Y-61291135D01*
X109600607Y-61372869D01*
X109607498Y-61374871D01*
X109754791Y-61417664D01*
X109754794Y-61417664D01*
X109754796Y-61417665D01*
X109790819Y-61420500D01*
X110189180Y-61420499D01*
X110225204Y-61417665D01*
X110225212Y-61417662D01*
X110226219Y-61417479D01*
X110226795Y-61417539D01*
X110231520Y-61417168D01*
X110231588Y-61418044D01*
X110295704Y-61424797D01*
X110350203Y-61468520D01*
X110372411Y-61534767D01*
X110372500Y-61539461D01*
X110372500Y-61809302D01*
X110352815Y-61876341D01*
X110300011Y-61922096D01*
X110230853Y-61932040D01*
X110167297Y-61903015D01*
X110149234Y-61883613D01*
X110118690Y-61842812D01*
X110118687Y-61842809D01*
X110003593Y-61756649D01*
X110003586Y-61756645D01*
X109868879Y-61706403D01*
X109868872Y-61706401D01*
X109809344Y-61700000D01*
X109249000Y-61700000D01*
X109249000Y-62875500D01*
X109229315Y-62942539D01*
X109176511Y-62988294D01*
X109125000Y-62999500D01*
X108923000Y-62999500D01*
X108855961Y-62979815D01*
X108810206Y-62927011D01*
X108799000Y-62875500D01*
X108799000Y-61700000D01*
X108238655Y-61700000D01*
X108179127Y-61706401D01*
X108179120Y-61706403D01*
X108044413Y-61756645D01*
X108044406Y-61756649D01*
X107929312Y-61842809D01*
X107929309Y-61842812D01*
X107843149Y-61957906D01*
X107843145Y-61957913D01*
X107792903Y-62092620D01*
X107792901Y-62092627D01*
X107786500Y-62152155D01*
X107786500Y-62266100D01*
X107766815Y-62333139D01*
X107714011Y-62378894D01*
X107644853Y-62388838D01*
X107638321Y-62387720D01*
X107561803Y-62372500D01*
X107561801Y-62372500D01*
X107251500Y-62372500D01*
X107184461Y-62352815D01*
X107138706Y-62300011D01*
X107127500Y-62248500D01*
X107127500Y-62111132D01*
X107147185Y-62044093D01*
X107159350Y-62028160D01*
X107180052Y-62005168D01*
X107186084Y-61998469D01*
X107274729Y-61844931D01*
X107329514Y-61676319D01*
X107348046Y-61500000D01*
X107345982Y-61480360D01*
X107358552Y-61411630D01*
X107406285Y-61360607D01*
X107469303Y-61343400D01*
X107588645Y-61343400D01*
X107762061Y-61306540D01*
X107762064Y-61306538D01*
X107762066Y-61306538D01*
X107814451Y-61283214D01*
X107924023Y-61234429D01*
X108038605Y-61151181D01*
X108104412Y-61127702D01*
X108111490Y-61127500D01*
X109249258Y-61127500D01*
X109316297Y-61147185D01*
G37*
%TD.AperFunction*%
%TD*%
%TA.AperFunction,Conductor*%
%TO.N,L2*%
G36*
X128265677Y-63534685D02*
G01*
X128286319Y-63551319D01*
X128850000Y-64115000D01*
X131820500Y-64115000D01*
X131887539Y-64134685D01*
X131933294Y-64187489D01*
X131944500Y-64239000D01*
X131944500Y-64591000D01*
X131924815Y-64658039D01*
X131872011Y-64703794D01*
X131820500Y-64715000D01*
X124974000Y-64715000D01*
X124906961Y-64695315D01*
X124861206Y-64642511D01*
X124850000Y-64591000D01*
X124850000Y-63639000D01*
X124869685Y-63571961D01*
X124922489Y-63526206D01*
X124974000Y-63515000D01*
X128198638Y-63515000D01*
X128265677Y-63534685D01*
G37*
%TD.AperFunction*%
%TD*%
%TA.AperFunction,Conductor*%
%TO.N,+BATT*%
G36*
X134925079Y-79211802D02*
G01*
X139998725Y-81599400D01*
X140001277Y-81600638D01*
X141000000Y-82100000D01*
X143176000Y-82100000D01*
X143243039Y-82119685D01*
X143288794Y-82172489D01*
X143300000Y-82224000D01*
X143300000Y-83976000D01*
X143280315Y-84043039D01*
X143227511Y-84088794D01*
X143176000Y-84100000D01*
X141054854Y-84100000D01*
X140987815Y-84080315D01*
X140963101Y-84059411D01*
X139999998Y-82999998D01*
X134274917Y-80532291D01*
X134221145Y-80487678D01*
X134200028Y-80421076D01*
X134200000Y-80418419D01*
X134200000Y-79324000D01*
X134219685Y-79256961D01*
X134272489Y-79211206D01*
X134324000Y-79200000D01*
X134872280Y-79200000D01*
X134925079Y-79211802D01*
G37*
%TD.AperFunction*%
%TD*%
%TA.AperFunction,Conductor*%
%TO.N,L1*%
G36*
X128221695Y-61164583D02*
G01*
X128275320Y-61177660D01*
X128550000Y-61315000D01*
X131868500Y-61315000D01*
X131935539Y-61334685D01*
X131981294Y-61387489D01*
X131992500Y-61439000D01*
X131992500Y-61791000D01*
X131972815Y-61858039D01*
X131920011Y-61903794D01*
X131868500Y-61915000D01*
X128550000Y-61915000D01*
X128281239Y-62094174D01*
X128214540Y-62114982D01*
X128212456Y-62115000D01*
X124974000Y-62115000D01*
X124906961Y-62095315D01*
X124861206Y-62042511D01*
X124850000Y-61991000D01*
X124850000Y-61240837D01*
X124869685Y-61173798D01*
X124922489Y-61128043D01*
X124975821Y-61116850D01*
X128221695Y-61164583D01*
G37*
%TD.AperFunction*%
%TD*%
%TA.AperFunction,Conductor*%
%TO.N,ESC+*%
G36*
X142843039Y-67419685D02*
G01*
X142888794Y-67472489D01*
X142900000Y-67524000D01*
X142900000Y-69376000D01*
X142880315Y-69443039D01*
X142827511Y-69488794D01*
X142776000Y-69500000D01*
X139800000Y-69500000D01*
X138000000Y-76799999D01*
X138000000Y-79476000D01*
X137980315Y-79543039D01*
X137927511Y-79588794D01*
X137876000Y-79600000D01*
X137166363Y-79600000D01*
X137099324Y-79580315D01*
X137063189Y-79544783D01*
X136300000Y-78400000D01*
X133325985Y-78400000D01*
X133276202Y-78389568D01*
X126074217Y-75232533D01*
X126020720Y-75187589D01*
X126000014Y-75120858D01*
X126000000Y-75118965D01*
X126000000Y-72124000D01*
X126019685Y-72056961D01*
X126072489Y-72011206D01*
X126124000Y-72000000D01*
X130600000Y-72000000D01*
X136300000Y-72000000D01*
X138764789Y-67464787D01*
X138814096Y-67415285D01*
X138873738Y-67400000D01*
X142776000Y-67400000D01*
X142843039Y-67419685D01*
G37*
%TD.AperFunction*%
%TD*%
%TA.AperFunction,Conductor*%
%TO.N,ESC+*%
G36*
X132943039Y-64119685D02*
G01*
X132988794Y-64172489D01*
X133000000Y-64224000D01*
X133000000Y-72000000D01*
X130600000Y-72000000D01*
X130600000Y-66272520D01*
X130619685Y-66205481D01*
X130663206Y-66164446D01*
X132200000Y-65300000D01*
X132200000Y-64224000D01*
X132219685Y-64156961D01*
X132272489Y-64111206D01*
X132324000Y-64100000D01*
X132876000Y-64100000D01*
X132943039Y-64119685D01*
G37*
%TD.AperFunction*%
%TD*%
M02*
