%TF.GenerationSoftware,KiCad,Pcbnew,8.0.6*%
%TF.CreationDate,2025-01-16T10:56:52-08:00*%
%TF.ProjectId,DeskCleanerRobot2,4465736b-436c-4656-916e-6572526f626f,rev?*%
%TF.SameCoordinates,Original*%
%TF.FileFunction,Paste,Top*%
%TF.FilePolarity,Positive*%
%FSLAX46Y46*%
G04 Gerber Fmt 4.6, Leading zero omitted, Abs format (unit mm)*
G04 Created by KiCad (PCBNEW 8.0.6) date 2025-01-16 10:56:52*
%MOMM*%
%LPD*%
G01*
G04 APERTURE LIST*
G04 Aperture macros list*
%AMRoundRect*
0 Rectangle with rounded corners*
0 $1 Rounding radius*
0 $2 $3 $4 $5 $6 $7 $8 $9 X,Y pos of 4 corners*
0 Add a 4 corners polygon primitive as box body*
4,1,4,$2,$3,$4,$5,$6,$7,$8,$9,$2,$3,0*
0 Add four circle primitives for the rounded corners*
1,1,$1+$1,$2,$3*
1,1,$1+$1,$4,$5*
1,1,$1+$1,$6,$7*
1,1,$1+$1,$8,$9*
0 Add four rect primitives between the rounded corners*
20,1,$1+$1,$2,$3,$4,$5,0*
20,1,$1+$1,$4,$5,$6,$7,0*
20,1,$1+$1,$6,$7,$8,$9,0*
20,1,$1+$1,$8,$9,$2,$3,0*%
G04 Aperture macros list end*
%ADD10RoundRect,0.225000X0.250000X-0.225000X0.250000X0.225000X-0.250000X0.225000X-0.250000X-0.225000X0*%
%ADD11RoundRect,0.135000X0.135000X0.185000X-0.135000X0.185000X-0.135000X-0.185000X0.135000X-0.185000X0*%
%ADD12RoundRect,0.135000X-0.185000X0.135000X-0.185000X-0.135000X0.185000X-0.135000X0.185000X0.135000X0*%
%ADD13R,1.475000X0.450000*%
%ADD14RoundRect,0.225000X-0.250000X0.225000X-0.250000X-0.225000X0.250000X-0.225000X0.250000X0.225000X0*%
%ADD15RoundRect,0.135000X0.185000X-0.135000X0.185000X0.135000X-0.185000X0.135000X-0.185000X-0.135000X0*%
%ADD16O,0.240000X0.600000*%
%ADD17R,2.850000X1.580000*%
%ADD18R,0.775000X0.200000*%
%ADD19R,0.700000X1.500000*%
%ADD20R,1.000000X0.800000*%
%ADD21R,0.600000X1.300000*%
%ADD22R,0.950000X0.900000*%
%ADD23RoundRect,0.225000X-0.225000X-0.250000X0.225000X-0.250000X0.225000X0.250000X-0.225000X0.250000X0*%
%ADD24R,0.900000X0.950000*%
%ADD25R,0.500000X0.250000*%
%ADD26R,0.900000X2.000000*%
%ADD27R,0.400000X1.400000*%
%ADD28RoundRect,0.200000X0.200000X0.275000X-0.200000X0.275000X-0.200000X-0.275000X0.200000X-0.275000X0*%
%ADD29R,3.400000X0.980000*%
%ADD30R,1.600000X3.200000*%
%ADD31RoundRect,0.200000X0.275000X-0.200000X0.275000X0.200000X-0.275000X0.200000X-0.275000X-0.200000X0*%
%ADD32R,0.800000X0.400000*%
%ADD33R,0.400000X0.800000*%
%ADD34R,1.200000X1.200000*%
%ADD35R,0.800000X0.800000*%
%ADD36RoundRect,0.135000X-0.135000X-0.185000X0.135000X-0.185000X0.135000X0.185000X-0.135000X0.185000X0*%
%ADD37R,0.300000X0.990000*%
%ADD38R,1.400000X0.300000*%
%ADD39R,1.570000X1.880000*%
G04 APERTURE END LIST*
D10*
%TO.C,C2*%
X132600000Y-58290000D03*
X132600000Y-56740000D03*
%TD*%
D11*
%TO.C,R19*%
X106010000Y-70000000D03*
X104990000Y-70000000D03*
%TD*%
D12*
%TO.C,R26*%
X131050000Y-78765000D03*
X131050000Y-79785000D03*
%TD*%
D13*
%TO.C,I2Ce1*%
X109024000Y-62425000D03*
X109024000Y-63075000D03*
X109024000Y-63725000D03*
X109024000Y-64375000D03*
X109024000Y-65025000D03*
X109024000Y-65675000D03*
X109024000Y-66325000D03*
X109024000Y-66975000D03*
X109024000Y-67625000D03*
X109024000Y-68275000D03*
X109024000Y-68925000D03*
X109024000Y-69575000D03*
X114900000Y-69575000D03*
X114900000Y-68925000D03*
X114900000Y-68275000D03*
X114900000Y-67625000D03*
X114900000Y-66975000D03*
X114900000Y-66325000D03*
X114900000Y-65675000D03*
X114900000Y-65025000D03*
X114900000Y-64375000D03*
X114900000Y-63725000D03*
X114900000Y-63075000D03*
X114900000Y-62425000D03*
%TD*%
D11*
%TO.C,R6*%
X113710000Y-60900000D03*
X112690000Y-60900000D03*
%TD*%
D14*
%TO.C,C12*%
X109450000Y-50500000D03*
X109450000Y-52050000D03*
%TD*%
D15*
%TO.C,R22*%
X115650000Y-76960000D03*
X115650000Y-75940000D03*
%TD*%
%TO.C,R25*%
X106250000Y-78460000D03*
X106250000Y-77440000D03*
%TD*%
D16*
%TO.C,VR1*%
X134363000Y-61605000D03*
X133863000Y-61605000D03*
X133363000Y-61605000D03*
X132863000Y-61605000D03*
X132363000Y-61605000D03*
X131863000Y-61605000D03*
X131363000Y-61605000D03*
X131363000Y-64405000D03*
X131863000Y-64405000D03*
X132363000Y-64405000D03*
X132863000Y-64405000D03*
X133363000Y-64405000D03*
X133863000Y-64405000D03*
X134363000Y-64405000D03*
D17*
X132863000Y-63005000D03*
D18*
X134676000Y-63695000D03*
X134676000Y-63235000D03*
X134676000Y-62775000D03*
X134676000Y-62315000D03*
X131050000Y-62315000D03*
X131050000Y-62775000D03*
X131050000Y-63235000D03*
X131050000Y-63695000D03*
%TD*%
D19*
%TO.C,S1*%
X132650000Y-83225000D03*
X135650000Y-83225000D03*
X137150000Y-83225000D03*
D20*
X131250000Y-83875000D03*
X131250000Y-86075000D03*
X138550000Y-83875000D03*
X138550000Y-86075000D03*
%TD*%
D11*
%TO.C,R18*%
X106010000Y-69000000D03*
X104990000Y-69000000D03*
%TD*%
D10*
%TO.C,C8*%
X129600000Y-58290000D03*
X129600000Y-56740000D03*
%TD*%
D21*
%TO.C,BM1*%
X132650000Y-79875000D03*
X134550000Y-79875000D03*
X133600000Y-77775000D03*
%TD*%
D22*
%TO.C,LED2*%
X109800000Y-57950000D03*
X109800000Y-56450000D03*
%TD*%
D12*
%TO.C,R33*%
X110800000Y-54090000D03*
X110800000Y-55110000D03*
%TD*%
D10*
%TO.C,C3*%
X134100000Y-58290000D03*
X134100000Y-56740000D03*
%TD*%
D23*
%TO.C,C13*%
X112275000Y-79850000D03*
X113825000Y-79850000D03*
%TD*%
D11*
%TO.C,R10*%
X106000000Y-63000000D03*
X104980000Y-63000000D03*
%TD*%
D10*
%TO.C,C9*%
X105450000Y-56775000D03*
X105450000Y-55225000D03*
%TD*%
D24*
%TO.C,LED3*%
X110700000Y-73350000D03*
X109200000Y-73350000D03*
%TD*%
D23*
%TO.C,C7*%
X137575000Y-57015000D03*
X139125000Y-57015000D03*
%TD*%
D11*
%TO.C,R9*%
X118810000Y-64000000D03*
X117790000Y-64000000D03*
%TD*%
%TO.C,R24*%
X106710000Y-79450000D03*
X105690000Y-79450000D03*
%TD*%
D10*
%TO.C,C4*%
X131100000Y-58290000D03*
X131100000Y-56740000D03*
%TD*%
D25*
%TO.C,MD1*%
X132900000Y-51500000D03*
X132900000Y-51000000D03*
X132900000Y-50500000D03*
X132900000Y-50000000D03*
X132900000Y-49500000D03*
X132900000Y-49000000D03*
X131000000Y-49000000D03*
X131000000Y-49500000D03*
X131000000Y-50000000D03*
X131000000Y-50500000D03*
X131000000Y-51000000D03*
X131000000Y-51500000D03*
D26*
X131950000Y-50250000D03*
%TD*%
D11*
%TO.C,R17*%
X106010000Y-68000000D03*
X104990000Y-68000000D03*
%TD*%
D27*
%TO.C,USB1*%
X119700000Y-80580000D03*
X120350000Y-80580000D03*
X121000000Y-80580000D03*
X121650000Y-80580000D03*
X122300000Y-80580000D03*
%TD*%
D14*
%TO.C,C10*%
X105450000Y-50450000D03*
X105450000Y-52000000D03*
%TD*%
D28*
%TO.C,R1*%
X140675000Y-59015000D03*
X139025000Y-59015000D03*
%TD*%
D11*
%TO.C,R14*%
X106000000Y-65000000D03*
X104980000Y-65000000D03*
%TD*%
D29*
%TO.C,L2*%
X126550000Y-61630000D03*
X126550000Y-64000000D03*
%TD*%
D30*
%TO.C,C14*%
X126800000Y-73600000D03*
X126800000Y-68600000D03*
%TD*%
D22*
%TO.C,LED1*%
X105650000Y-72950000D03*
X105650000Y-74450000D03*
%TD*%
D11*
%TO.C,R11*%
X106010000Y-64000000D03*
X104990000Y-64000000D03*
%TD*%
D31*
%TO.C,R4*%
X135850000Y-58340000D03*
X135850000Y-56690000D03*
%TD*%
D11*
%TO.C,R15*%
X106010000Y-66000000D03*
X104990000Y-66000000D03*
%TD*%
%TO.C,R8*%
X118685000Y-65300000D03*
X117665000Y-65300000D03*
%TD*%
D32*
%TO.C,IC8*%
X113000000Y-45050000D03*
X113000000Y-45900000D03*
X113000000Y-46750000D03*
X113000000Y-47600000D03*
X113000000Y-48450000D03*
X113000000Y-49300000D03*
X113000000Y-50150000D03*
X113000000Y-51000000D03*
X113000000Y-51850000D03*
X113000000Y-52700000D03*
X113000000Y-53550000D03*
X113000000Y-54400000D03*
X113000000Y-55250000D03*
X113000000Y-56100000D03*
X113000000Y-56950000D03*
D33*
X114050000Y-58000000D03*
X114900000Y-58000000D03*
X115750000Y-58000000D03*
X116600000Y-58000000D03*
X117450000Y-58000000D03*
X118300000Y-58000000D03*
X119150000Y-58000000D03*
X120000000Y-58000000D03*
X120850000Y-58000000D03*
X121700000Y-58000000D03*
X122550000Y-58000000D03*
X123400000Y-58000000D03*
X124250000Y-58000000D03*
X125100000Y-58000000D03*
X125950000Y-58000000D03*
D32*
X127000000Y-56950000D03*
X127000000Y-56100000D03*
X127000000Y-55250000D03*
X127000000Y-54400000D03*
X127000000Y-53550000D03*
X127000000Y-52700000D03*
X127000000Y-51850000D03*
X127000000Y-51000000D03*
X127000000Y-50150000D03*
X127000000Y-49300000D03*
X127000000Y-48450000D03*
X127000000Y-47600000D03*
X127000000Y-46750000D03*
X127000000Y-45900000D03*
X127000000Y-45050000D03*
D33*
X125950000Y-44000000D03*
X125100000Y-44000000D03*
X124250000Y-44000000D03*
X123400000Y-44000000D03*
X122550000Y-44000000D03*
X121700000Y-44000000D03*
X120850000Y-44000000D03*
X120000000Y-44000000D03*
X119150000Y-44000000D03*
X118300000Y-44000000D03*
X117450000Y-44000000D03*
X116600000Y-44000000D03*
X115750000Y-44000000D03*
X114900000Y-44000000D03*
X114050000Y-44000000D03*
D34*
X120000000Y-51000000D03*
D35*
X113000000Y-44000000D03*
X113000000Y-58000000D03*
X127000000Y-58000000D03*
X127000000Y-44000000D03*
D34*
X118350000Y-49350000D03*
X118350000Y-51000000D03*
X118350000Y-52650000D03*
X120000000Y-52650000D03*
X121650000Y-52650000D03*
X121650000Y-51000000D03*
X121650000Y-49350000D03*
X120000000Y-49350000D03*
%TD*%
D15*
%TO.C,R20*%
X104000000Y-76710000D03*
X104000000Y-75690000D03*
%TD*%
D23*
%TO.C,C6*%
X137575000Y-77625000D03*
X139125000Y-77625000D03*
%TD*%
%TO.C,C1*%
X138850000Y-64015000D03*
X140400000Y-64015000D03*
%TD*%
D36*
%TO.C,R21*%
X130990000Y-37500000D03*
X132010000Y-37500000D03*
%TD*%
D11*
%TO.C,R7*%
X119010000Y-62500000D03*
X117990000Y-62500000D03*
%TD*%
D23*
%TO.C,C11*%
X133450000Y-37500000D03*
X135000000Y-37500000D03*
%TD*%
D31*
%TO.C,R2*%
X140850000Y-57515000D03*
X140850000Y-55865000D03*
%TD*%
D11*
%TO.C,R5*%
X111010000Y-60600000D03*
X109990000Y-60600000D03*
%TD*%
D31*
%TO.C,R3*%
X136850000Y-65340000D03*
X136850000Y-63690000D03*
%TD*%
D37*
%TO.C,ESD1*%
X120200000Y-76100000D03*
X120700000Y-76100000D03*
X121200000Y-76100000D03*
X121200000Y-74490000D03*
X120700000Y-74490000D03*
X120200000Y-74490000D03*
%TD*%
D23*
%TO.C,C5*%
X137575000Y-79125000D03*
X139125000Y-79125000D03*
%TD*%
D30*
%TO.C,C15*%
X135500000Y-73600000D03*
X135500000Y-68600000D03*
%TD*%
D15*
%TO.C,R23*%
X113500000Y-73610000D03*
X113500000Y-72590000D03*
%TD*%
D38*
%TO.C,BC1*%
X113050000Y-77950000D03*
X113050000Y-77450000D03*
X113050000Y-76950000D03*
X113050000Y-76450000D03*
X113050000Y-75950000D03*
X108650000Y-75950000D03*
X108650000Y-76450000D03*
X108650000Y-76950000D03*
X108650000Y-77450000D03*
X108650000Y-77950000D03*
D39*
X110850000Y-76950000D03*
%TD*%
D11*
%TO.C,R16*%
X106010000Y-67000000D03*
X104990000Y-67000000D03*
%TD*%
M02*
