%TF.GenerationSoftware,KiCad,Pcbnew,8.0.6*%
%TF.CreationDate,2025-01-16T10:56:52-08:00*%
%TF.ProjectId,DeskCleanerRobot2,4465736b-436c-4656-916e-6572526f626f,rev?*%
%TF.SameCoordinates,Original*%
%TF.FileFunction,Copper,L2,Inr*%
%TF.FilePolarity,Positive*%
%FSLAX46Y46*%
G04 Gerber Fmt 4.6, Leading zero omitted, Abs format (unit mm)*
G04 Created by KiCad (PCBNEW 8.0.6) date 2025-01-16 10:56:52*
%MOMM*%
%LPD*%
G01*
G04 APERTURE LIST*
%TA.AperFunction,ComponentPad*%
%ADD10C,2.000000*%
%TD*%
%TA.AperFunction,ComponentPad*%
%ADD11C,1.500000*%
%TD*%
%TA.AperFunction,ComponentPad*%
%ADD12C,1.995000*%
%TD*%
%TA.AperFunction,ViaPad*%
%ADD13C,0.685800*%
%TD*%
%TA.AperFunction,ViaPad*%
%ADD14C,0.889000*%
%TD*%
G04 APERTURE END LIST*
D10*
%TO.N,SC7*%
%TO.C,SC7*%
X116000000Y-33500000D03*
%TD*%
%TO.N,+3.3V*%
%TO.C,3V1*%
X100500000Y-42500000D03*
%TD*%
%TO.N,GND*%
%TO.C,-E1*%
X141850000Y-71400000D03*
%TD*%
%TO.N,ESCsignal*%
%TO.C,SIG1*%
X141850000Y-74400000D03*
%TD*%
%TO.N,SC3*%
%TO.C,SC3*%
X107000000Y-82500000D03*
%TD*%
%TO.N,GND*%
%TO.C,GN0*%
X109400000Y-33500000D03*
%TD*%
%TO.N,SD1*%
%TO.C,SD1*%
X100500000Y-45500000D03*
%TD*%
%TO.N,+3.3V*%
%TO.C,3V3*%
X100500000Y-82500000D03*
%TD*%
%TO.N,AOUT1*%
%TO.C,AO1*%
X141800000Y-52500000D03*
%TD*%
%TO.N,ESC+*%
%TO.C,+E1*%
X141850000Y-68400000D03*
%TD*%
%TO.N,BOUT2*%
%TO.C,BO2*%
X141800000Y-43500000D03*
%TD*%
%TO.N,+3.3V*%
%TO.C,3V7*%
X122000000Y-33500000D03*
%TD*%
D11*
%TO.N,unconnected-(BOOT1-Pad1)*%
%TO.C,BOOT1*%
X109100000Y-41900000D03*
%TO.N,Net-(IC8-IO0)*%
X109100000Y-48400000D03*
%TO.N,unconnected-(BOOT1-Pad3)*%
X104600000Y-41900000D03*
%TO.N,GND*%
X104600000Y-48400000D03*
%TD*%
D10*
%TO.N,GND*%
%TO.C,-BAT1*%
X142250000Y-80100000D03*
%TD*%
D12*
%TO.N,unconnected-(USB1-PadMH1)*%
%TO.C,USB1*%
X117425000Y-80080000D03*
%TO.N,unconnected-(USB1-PadMH2)*%
X124575000Y-80080000D03*
%TO.N,unconnected-(USB1-PadMH3)*%
X124575000Y-83530000D03*
%TO.N,unconnected-(USB1-PadMH4)*%
X117425000Y-83530000D03*
%TD*%
D10*
%TO.N,BOUT1*%
%TO.C,BO1*%
X141800000Y-46500000D03*
%TD*%
%TO.N,+BATT*%
%TO.C,+BAT1*%
X142250000Y-83100000D03*
%TD*%
%TO.N,GND*%
%TO.C,GN3*%
X100500000Y-79000000D03*
%TD*%
%TO.N,AOUT2*%
%TO.C,AO2*%
X141800000Y-49500000D03*
%TD*%
%TO.N,SD3*%
%TO.C,SD3*%
X104000000Y-82500000D03*
%TD*%
%TO.N,SD2*%
%TO.C,SD2*%
X100500000Y-70000000D03*
%TD*%
D11*
%TO.N,Net-(IC8-EN)*%
%TO.C,RESET1*%
X130250000Y-46150000D03*
%TO.N,unconnected-(RESET1-Pad2)*%
X130250000Y-39650000D03*
%TO.N,GND*%
X134750000Y-46150000D03*
%TO.N,unconnected-(RESET1-Pad4)*%
X134750000Y-39650000D03*
%TD*%
D10*
%TO.N,+3.3V*%
%TO.C,3V0*%
X106400000Y-33500000D03*
%TD*%
%TO.N,SD0*%
%TO.C,SD0*%
X103400000Y-33500000D03*
%TD*%
%TO.N,SC1*%
%TO.C,SC1*%
X100500000Y-48500000D03*
%TD*%
%TO.N,SC0*%
%TO.C,SC0*%
X100400000Y-33500000D03*
%TD*%
%TO.N,SC2*%
%TO.C,SC2*%
X100500000Y-73000000D03*
%TD*%
%TO.N,+3.3V*%
%TO.C,3V2*%
X100500000Y-67000000D03*
%TD*%
%TO.N,GND*%
%TO.C,GN1*%
X100500000Y-39500000D03*
%TD*%
%TO.N,GND*%
%TO.C,GN2*%
X100500000Y-64000000D03*
%TD*%
%TO.N,GND*%
%TO.C,GN7*%
X125000000Y-33500000D03*
%TD*%
%TO.N,SD7*%
%TO.C,SD7*%
X119000000Y-33500000D03*
%TD*%
D13*
%TO.N,+5V*%
X117100000Y-76800000D03*
X120700000Y-72900000D03*
D14*
%TO.N,+BATT*%
X136100000Y-80600000D03*
X129600000Y-79000000D03*
X109700000Y-79500000D03*
%TO.N,ESC+*%
X138700000Y-69800000D03*
X134000000Y-52700000D03*
D13*
%TO.N,+3.3V*%
X137850000Y-62515000D03*
X131000000Y-52500000D03*
X116500000Y-61500000D03*
X110800000Y-46600000D03*
X137350000Y-58515000D03*
X133350000Y-59415000D03*
X107500000Y-60500000D03*
X131750000Y-60215000D03*
X130950000Y-59415000D03*
X104700000Y-45000000D03*
X103000000Y-80500000D03*
X118600000Y-66000000D03*
X132150000Y-59415000D03*
X103500000Y-64500000D03*
X119000000Y-60500000D03*
X103900000Y-65600000D03*
X114600000Y-60900000D03*
X132750000Y-60215000D03*
X106600000Y-50500000D03*
X103400000Y-61000000D03*
X103500000Y-70500000D03*
X129700000Y-37300000D03*
X106600000Y-56800000D03*
X122000000Y-36000000D03*
X106600000Y-36500000D03*
%TO.N,SC2*%
X110500000Y-67625000D03*
X103600000Y-68900000D03*
%TO.N,SD0*%
X106500000Y-61500000D03*
%TO.N,SD3*%
X107000000Y-69000000D03*
%TO.N,SD2*%
X103500000Y-67000000D03*
X107000000Y-67000000D03*
%TO.N,SD1*%
X107000000Y-65000000D03*
%TO.N,SC0*%
X109500000Y-44000000D03*
X107000000Y-64000000D03*
%TO.N,SD7*%
X113300000Y-66100000D03*
X123500000Y-39500000D03*
%TO.N,SC3*%
X110500000Y-69500000D03*
%TO.N,SC1*%
X110500000Y-66000000D03*
%TO.N,SC7*%
X116700000Y-64500000D03*
X121000000Y-40900000D03*
%TO.N,ESCsignal*%
X129500000Y-54500000D03*
%TO.N,GND*%
X117000000Y-72000000D03*
X135550000Y-63415000D03*
X105500000Y-53500000D03*
X107650000Y-74950000D03*
X133800000Y-68800000D03*
X135550000Y-62615000D03*
X122500000Y-79000000D03*
X113500000Y-64000000D03*
X139300000Y-76100000D03*
X129800000Y-68800000D03*
X140300000Y-79100000D03*
X103400000Y-39800000D03*
X135150000Y-36350000D03*
X103500000Y-62900000D03*
X125500000Y-45500000D03*
X129450000Y-63415000D03*
X140300000Y-77700000D03*
X118500000Y-55000000D03*
X107500000Y-62000000D03*
X130350000Y-62615000D03*
X136600000Y-54900000D03*
X130350000Y-63415000D03*
X129800000Y-67400000D03*
X132000000Y-54900000D03*
X129450000Y-62615000D03*
X110800000Y-80200000D03*
X116500000Y-53000000D03*
X103200000Y-77800000D03*
X133800000Y-67400000D03*
X123600000Y-68800000D03*
X113000000Y-42500000D03*
X123600000Y-67400000D03*
X108400000Y-52800000D03*
X125000000Y-36600000D03*
X123600000Y-70200000D03*
X133800000Y-70200000D03*
X124150000Y-59450000D03*
X129800000Y-70200000D03*
X118400000Y-76100000D03*
X140400000Y-62750000D03*
X110500000Y-71000000D03*
X131950000Y-48000000D03*
X116500000Y-48500000D03*
X127000000Y-59350000D03*
X116500000Y-51000000D03*
X106250000Y-76550000D03*
X127000000Y-42500000D03*
X111000000Y-57800000D03*
X134500000Y-44500000D03*
X128100000Y-79900000D03*
X118500000Y-47500000D03*
X139400000Y-54900000D03*
X109600000Y-36500000D03*
%TD*%
%TA.AperFunction,Conductor*%
%TO.N,GND*%
G36*
X143943039Y-30520185D02*
G01*
X143988794Y-30572989D01*
X144000000Y-30624500D01*
X144000000Y-80056964D01*
X143987541Y-80099391D01*
X143997456Y-80118044D01*
X144000000Y-80143035D01*
X144000000Y-83050906D01*
X143985250Y-83101137D01*
X143997456Y-83124102D01*
X144000000Y-83149093D01*
X144000000Y-86375500D01*
X143980315Y-86442539D01*
X143927511Y-86488294D01*
X143876000Y-86499500D01*
X98224500Y-86499500D01*
X98157461Y-86479815D01*
X98111706Y-86427011D01*
X98100500Y-86375500D01*
X98100500Y-85043995D01*
X132699499Y-85043995D01*
X132726418Y-85179322D01*
X132726421Y-85179332D01*
X132779221Y-85306804D01*
X132779228Y-85306817D01*
X132855885Y-85421541D01*
X132855888Y-85421545D01*
X132953454Y-85519111D01*
X132953458Y-85519114D01*
X133068182Y-85595771D01*
X133068195Y-85595778D01*
X133195667Y-85648578D01*
X133195672Y-85648580D01*
X133195676Y-85648580D01*
X133195677Y-85648581D01*
X133331004Y-85675500D01*
X133331007Y-85675500D01*
X133468995Y-85675500D01*
X133560041Y-85657389D01*
X133604328Y-85648580D01*
X133731811Y-85595775D01*
X133846542Y-85519114D01*
X133944114Y-85421542D01*
X134020775Y-85306811D01*
X134073580Y-85179328D01*
X134100500Y-85043995D01*
X135699499Y-85043995D01*
X135726418Y-85179322D01*
X135726421Y-85179332D01*
X135779221Y-85306804D01*
X135779228Y-85306817D01*
X135855885Y-85421541D01*
X135855888Y-85421545D01*
X135953454Y-85519111D01*
X135953458Y-85519114D01*
X136068182Y-85595771D01*
X136068195Y-85595778D01*
X136195667Y-85648578D01*
X136195672Y-85648580D01*
X136195676Y-85648580D01*
X136195677Y-85648581D01*
X136331004Y-85675500D01*
X136331007Y-85675500D01*
X136468995Y-85675500D01*
X136560041Y-85657389D01*
X136604328Y-85648580D01*
X136731811Y-85595775D01*
X136846542Y-85519114D01*
X136944114Y-85421542D01*
X137020775Y-85306811D01*
X137073580Y-85179328D01*
X137100500Y-85043993D01*
X137100500Y-84906007D01*
X137100500Y-84906004D01*
X137073581Y-84770677D01*
X137073580Y-84770676D01*
X137073580Y-84770672D01*
X137073578Y-84770667D01*
X137020778Y-84643195D01*
X137020771Y-84643182D01*
X136944114Y-84528458D01*
X136944111Y-84528454D01*
X136846545Y-84430888D01*
X136846541Y-84430885D01*
X136731817Y-84354228D01*
X136731804Y-84354221D01*
X136604332Y-84301421D01*
X136604322Y-84301418D01*
X136468995Y-84274500D01*
X136468993Y-84274500D01*
X136331007Y-84274500D01*
X136331005Y-84274500D01*
X136195677Y-84301418D01*
X136195667Y-84301421D01*
X136068195Y-84354221D01*
X136068182Y-84354228D01*
X135953458Y-84430885D01*
X135953454Y-84430888D01*
X135855888Y-84528454D01*
X135855885Y-84528458D01*
X135779228Y-84643182D01*
X135779221Y-84643195D01*
X135726421Y-84770667D01*
X135726418Y-84770677D01*
X135699500Y-84906004D01*
X135699500Y-84906007D01*
X135699500Y-85043993D01*
X135699500Y-85043995D01*
X135699499Y-85043995D01*
X134100500Y-85043995D01*
X134100500Y-85043993D01*
X134100500Y-84906007D01*
X134100500Y-84906004D01*
X134073581Y-84770677D01*
X134073580Y-84770676D01*
X134073580Y-84770672D01*
X134073578Y-84770667D01*
X134020778Y-84643195D01*
X134020771Y-84643182D01*
X133944114Y-84528458D01*
X133944111Y-84528454D01*
X133846545Y-84430888D01*
X133846541Y-84430885D01*
X133731817Y-84354228D01*
X133731804Y-84354221D01*
X133604332Y-84301421D01*
X133604322Y-84301418D01*
X133468995Y-84274500D01*
X133468993Y-84274500D01*
X133331007Y-84274500D01*
X133331005Y-84274500D01*
X133195677Y-84301418D01*
X133195667Y-84301421D01*
X133068195Y-84354221D01*
X133068182Y-84354228D01*
X132953458Y-84430885D01*
X132953454Y-84430888D01*
X132855888Y-84528454D01*
X132855885Y-84528458D01*
X132779228Y-84643182D01*
X132779221Y-84643195D01*
X132726421Y-84770667D01*
X132726418Y-84770677D01*
X132699500Y-84906004D01*
X132699500Y-84906007D01*
X132699500Y-85043993D01*
X132699500Y-85043995D01*
X132699499Y-85043995D01*
X98100500Y-85043995D01*
X98100500Y-82499994D01*
X98994357Y-82499994D01*
X98994357Y-82500005D01*
X99014890Y-82747812D01*
X99014892Y-82747824D01*
X99075936Y-82988881D01*
X99175826Y-83216606D01*
X99311833Y-83424782D01*
X99311836Y-83424785D01*
X99480256Y-83607738D01*
X99676491Y-83760474D01*
X99895190Y-83878828D01*
X100130386Y-83959571D01*
X100375665Y-84000500D01*
X100624335Y-84000500D01*
X100869614Y-83959571D01*
X101104810Y-83878828D01*
X101323509Y-83760474D01*
X101519744Y-83607738D01*
X101688164Y-83424785D01*
X101824173Y-83216607D01*
X101924063Y-82988881D01*
X101985108Y-82747821D01*
X101985109Y-82747812D01*
X102005643Y-82500005D01*
X102005643Y-82499994D01*
X101985109Y-82252187D01*
X101985107Y-82252175D01*
X101924063Y-82011118D01*
X101824173Y-81783393D01*
X101688166Y-81575217D01*
X101640732Y-81523690D01*
X101519744Y-81392262D01*
X101323509Y-81239526D01*
X101323507Y-81239525D01*
X101323506Y-81239524D01*
X101104811Y-81121172D01*
X101104802Y-81121169D01*
X100869616Y-81040429D01*
X100624335Y-80999500D01*
X100375665Y-80999500D01*
X100130383Y-81040429D01*
X99895197Y-81121169D01*
X99895188Y-81121172D01*
X99676493Y-81239524D01*
X99480257Y-81392261D01*
X99311833Y-81575217D01*
X99175826Y-81783393D01*
X99075936Y-82011118D01*
X99014892Y-82252175D01*
X99014890Y-82252187D01*
X98994357Y-82499994D01*
X98100500Y-82499994D01*
X98100500Y-78999994D01*
X98994859Y-78999994D01*
X98994859Y-79000005D01*
X99015385Y-79247729D01*
X99015387Y-79247738D01*
X99076412Y-79488717D01*
X99176266Y-79716364D01*
X99276564Y-79869882D01*
X100017037Y-79129409D01*
X100034075Y-79192993D01*
X100099901Y-79307007D01*
X100192993Y-79400099D01*
X100307007Y-79465925D01*
X100370590Y-79482962D01*
X99629942Y-80223609D01*
X99676768Y-80260055D01*
X99676770Y-80260056D01*
X99895385Y-80378364D01*
X99895396Y-80378369D01*
X100130506Y-80459083D01*
X100375707Y-80500000D01*
X100624293Y-80500000D01*
X102151954Y-80500000D01*
X102170486Y-80676320D01*
X102170487Y-80676322D01*
X102225271Y-80844933D01*
X102225272Y-80844934D01*
X102279863Y-80939487D01*
X102313916Y-80998469D01*
X102351697Y-81040429D01*
X102432543Y-81130219D01*
X102432546Y-81130221D01*
X102575977Y-81234429D01*
X102737939Y-81306540D01*
X102793821Y-81318418D01*
X102855300Y-81351608D01*
X102889077Y-81412771D01*
X102884425Y-81482486D01*
X102859268Y-81523690D01*
X102811833Y-81575217D01*
X102675826Y-81783393D01*
X102575936Y-82011118D01*
X102514892Y-82252175D01*
X102514890Y-82252187D01*
X102494357Y-82499994D01*
X102494357Y-82500005D01*
X102514890Y-82747812D01*
X102514892Y-82747824D01*
X102575936Y-82988881D01*
X102675826Y-83216606D01*
X102811833Y-83424782D01*
X102811836Y-83424785D01*
X102980256Y-83607738D01*
X103176491Y-83760474D01*
X103395190Y-83878828D01*
X103630386Y-83959571D01*
X103875665Y-84000500D01*
X104124335Y-84000500D01*
X104369614Y-83959571D01*
X104604810Y-83878828D01*
X104823509Y-83760474D01*
X105019744Y-83607738D01*
X105188164Y-83424785D01*
X105324173Y-83216607D01*
X105374823Y-83101137D01*
X105386444Y-83074644D01*
X105431400Y-83021158D01*
X105498136Y-83000468D01*
X105565464Y-83019143D01*
X105612007Y-83071253D01*
X105613556Y-83074644D01*
X105675826Y-83216606D01*
X105811833Y-83424782D01*
X105811836Y-83424785D01*
X105980256Y-83607738D01*
X106176491Y-83760474D01*
X106395190Y-83878828D01*
X106630386Y-83959571D01*
X106875665Y-84000500D01*
X107124335Y-84000500D01*
X107369614Y-83959571D01*
X107604810Y-83878828D01*
X107823509Y-83760474D01*
X108019744Y-83607738D01*
X108091312Y-83529994D01*
X115921866Y-83529994D01*
X115921866Y-83530005D01*
X115942366Y-83777404D01*
X116003309Y-84018065D01*
X116103033Y-84245414D01*
X116178206Y-84360474D01*
X116238816Y-84453244D01*
X116406955Y-84635892D01*
X116602864Y-84788373D01*
X116803216Y-84896798D01*
X116820231Y-84906007D01*
X116821198Y-84906530D01*
X117056002Y-84987138D01*
X117300872Y-85028000D01*
X117300873Y-85028000D01*
X117549127Y-85028000D01*
X117549128Y-85028000D01*
X117793998Y-84987138D01*
X118028802Y-84906530D01*
X118247136Y-84788373D01*
X118443045Y-84635892D01*
X118611184Y-84453244D01*
X118746967Y-84245413D01*
X118846690Y-84018067D01*
X118907633Y-83777408D01*
X118916744Y-83667448D01*
X118928134Y-83530005D01*
X118928134Y-83529994D01*
X123071866Y-83529994D01*
X123071866Y-83530005D01*
X123092366Y-83777404D01*
X123153309Y-84018065D01*
X123253033Y-84245414D01*
X123328206Y-84360474D01*
X123388816Y-84453244D01*
X123556955Y-84635892D01*
X123752864Y-84788373D01*
X123953216Y-84896798D01*
X123970231Y-84906007D01*
X123971198Y-84906530D01*
X124206002Y-84987138D01*
X124450872Y-85028000D01*
X124450873Y-85028000D01*
X124699127Y-85028000D01*
X124699128Y-85028000D01*
X124943998Y-84987138D01*
X125178802Y-84906530D01*
X125397136Y-84788373D01*
X125593045Y-84635892D01*
X125761184Y-84453244D01*
X125896967Y-84245413D01*
X125996690Y-84018067D01*
X126057633Y-83777408D01*
X126066744Y-83667448D01*
X126078134Y-83530005D01*
X126078134Y-83529994D01*
X126057633Y-83282595D01*
X126057633Y-83282592D01*
X126011393Y-83099994D01*
X140744357Y-83099994D01*
X140744357Y-83100005D01*
X140764890Y-83347812D01*
X140764892Y-83347824D01*
X140825936Y-83588881D01*
X140925826Y-83816606D01*
X141061833Y-84024782D01*
X141061836Y-84024785D01*
X141230256Y-84207738D01*
X141426491Y-84360474D01*
X141645190Y-84478828D01*
X141880386Y-84559571D01*
X142125665Y-84600500D01*
X142374335Y-84600500D01*
X142619614Y-84559571D01*
X142854810Y-84478828D01*
X143073509Y-84360474D01*
X143269744Y-84207738D01*
X143438164Y-84024785D01*
X143574173Y-83816607D01*
X143674063Y-83588881D01*
X143735108Y-83347821D01*
X143752424Y-83138853D01*
X143766930Y-83101258D01*
X143757023Y-83085841D01*
X143752424Y-83061146D01*
X143735109Y-82852187D01*
X143735107Y-82852175D01*
X143674063Y-82611118D01*
X143574173Y-82383393D01*
X143438166Y-82175217D01*
X143306325Y-82032000D01*
X143269744Y-81992262D01*
X143073509Y-81839526D01*
X143073507Y-81839525D01*
X143073506Y-81839524D01*
X142854811Y-81721172D01*
X142854802Y-81721169D01*
X142842705Y-81717016D01*
X142785690Y-81676631D01*
X142759559Y-81611831D01*
X142772610Y-81543191D01*
X142820699Y-81492504D01*
X142842707Y-81482453D01*
X142854608Y-81478367D01*
X142854614Y-81478364D01*
X143073228Y-81360057D01*
X143073231Y-81360055D01*
X143120056Y-81323609D01*
X142379409Y-80582962D01*
X142442993Y-80565925D01*
X142557007Y-80500099D01*
X142650099Y-80407007D01*
X142715925Y-80292993D01*
X142732962Y-80229410D01*
X143473434Y-80969882D01*
X143573731Y-80816369D01*
X143673587Y-80588717D01*
X143734612Y-80347738D01*
X143734614Y-80347730D01*
X143752424Y-80132795D01*
X143764009Y-80102770D01*
X143757023Y-80091899D01*
X143752424Y-80067204D01*
X143734614Y-79852270D01*
X143734612Y-79852261D01*
X143673587Y-79611282D01*
X143573731Y-79383630D01*
X143473434Y-79230116D01*
X142732962Y-79970589D01*
X142715925Y-79907007D01*
X142650099Y-79792993D01*
X142557007Y-79699901D01*
X142442993Y-79634075D01*
X142379410Y-79617037D01*
X143120057Y-78876390D01*
X143120056Y-78876389D01*
X143073229Y-78839943D01*
X142854614Y-78721635D01*
X142854603Y-78721630D01*
X142619493Y-78640916D01*
X142374293Y-78600000D01*
X142125707Y-78600000D01*
X141880506Y-78640916D01*
X141645396Y-78721630D01*
X141645390Y-78721632D01*
X141426761Y-78839949D01*
X141379942Y-78876388D01*
X141379942Y-78876390D01*
X142120590Y-79617037D01*
X142057007Y-79634075D01*
X141942993Y-79699901D01*
X141849901Y-79792993D01*
X141784075Y-79907007D01*
X141767037Y-79970589D01*
X141026564Y-79230116D01*
X140926267Y-79383632D01*
X140826412Y-79611282D01*
X140765387Y-79852261D01*
X140765385Y-79852270D01*
X140744859Y-80099994D01*
X140744859Y-80100005D01*
X140765385Y-80347729D01*
X140765387Y-80347738D01*
X140826412Y-80588717D01*
X140926266Y-80816364D01*
X141026564Y-80969882D01*
X141767037Y-80229409D01*
X141784075Y-80292993D01*
X141849901Y-80407007D01*
X141942993Y-80500099D01*
X142057007Y-80565925D01*
X142120590Y-80582962D01*
X141379942Y-81323609D01*
X141426768Y-81360055D01*
X141426770Y-81360056D01*
X141645385Y-81478364D01*
X141645396Y-81478369D01*
X141657294Y-81482454D01*
X141714309Y-81522839D01*
X141740440Y-81587639D01*
X141727389Y-81656279D01*
X141679300Y-81706967D01*
X141657296Y-81717016D01*
X141645191Y-81721171D01*
X141645188Y-81721172D01*
X141426493Y-81839524D01*
X141230257Y-81992261D01*
X141061833Y-82175217D01*
X140925826Y-82383393D01*
X140825936Y-82611118D01*
X140764892Y-82852175D01*
X140764890Y-82852187D01*
X140744357Y-83099994D01*
X126011393Y-83099994D01*
X125996690Y-83041933D01*
X125896967Y-82814587D01*
X125853348Y-82747824D01*
X125761185Y-82606758D01*
X125761184Y-82606756D01*
X125593045Y-82424108D01*
X125397136Y-82271627D01*
X125218987Y-82175217D01*
X125178803Y-82153470D01*
X125178797Y-82153468D01*
X124944000Y-82072862D01*
X124780751Y-82045620D01*
X124699128Y-82032000D01*
X124450872Y-82032000D01*
X124389654Y-82042215D01*
X124205999Y-82072862D01*
X123971202Y-82153468D01*
X123971196Y-82153470D01*
X123752862Y-82271628D01*
X123556957Y-82424106D01*
X123388817Y-82606754D01*
X123388814Y-82606758D01*
X123253033Y-82814585D01*
X123153309Y-83041934D01*
X123092366Y-83282595D01*
X123071866Y-83529994D01*
X118928134Y-83529994D01*
X118907633Y-83282595D01*
X118907633Y-83282592D01*
X118846690Y-83041933D01*
X118746967Y-82814587D01*
X118703348Y-82747824D01*
X118611185Y-82606758D01*
X118611184Y-82606756D01*
X118443045Y-82424108D01*
X118247136Y-82271627D01*
X118068987Y-82175217D01*
X118028803Y-82153470D01*
X118028797Y-82153468D01*
X117794000Y-82072862D01*
X117630751Y-82045620D01*
X117549128Y-82032000D01*
X117300872Y-82032000D01*
X117239654Y-82042215D01*
X117055999Y-82072862D01*
X116821202Y-82153468D01*
X116821196Y-82153470D01*
X116602862Y-82271628D01*
X116406957Y-82424106D01*
X116238817Y-82606754D01*
X116238814Y-82606758D01*
X116103033Y-82814585D01*
X116003309Y-83041934D01*
X115942366Y-83282595D01*
X115921866Y-83529994D01*
X108091312Y-83529994D01*
X108188164Y-83424785D01*
X108324173Y-83216607D01*
X108424063Y-82988881D01*
X108485108Y-82747821D01*
X108485109Y-82747812D01*
X108505643Y-82500005D01*
X108505643Y-82499994D01*
X108485109Y-82252187D01*
X108485107Y-82252175D01*
X108424063Y-82011118D01*
X108324173Y-81783393D01*
X108188166Y-81575217D01*
X108140732Y-81523690D01*
X108019744Y-81392262D01*
X107823509Y-81239526D01*
X107823507Y-81239525D01*
X107823506Y-81239524D01*
X107604811Y-81121172D01*
X107604802Y-81121169D01*
X107369616Y-81040429D01*
X107124335Y-80999500D01*
X106875665Y-80999500D01*
X106630383Y-81040429D01*
X106395197Y-81121169D01*
X106395188Y-81121172D01*
X106176493Y-81239524D01*
X105980257Y-81392261D01*
X105811833Y-81575217D01*
X105675826Y-81783393D01*
X105613556Y-81925355D01*
X105568600Y-81978841D01*
X105501864Y-81999531D01*
X105434536Y-81980856D01*
X105387993Y-81928746D01*
X105386444Y-81925355D01*
X105324173Y-81783393D01*
X105188166Y-81575217D01*
X105140732Y-81523690D01*
X105019744Y-81392262D01*
X104823509Y-81239526D01*
X104823507Y-81239525D01*
X104823506Y-81239524D01*
X104604811Y-81121172D01*
X104604802Y-81121169D01*
X104369616Y-81040429D01*
X104124335Y-80999500D01*
X103895178Y-80999500D01*
X103828139Y-80979815D01*
X103782384Y-80927011D01*
X103772440Y-80857853D01*
X103777247Y-80837182D01*
X103804920Y-80752011D01*
X103829514Y-80676319D01*
X103848046Y-80500000D01*
X103829514Y-80323681D01*
X103774729Y-80155069D01*
X103774728Y-80155068D01*
X103774728Y-80155066D01*
X103774727Y-80155065D01*
X103742934Y-80099999D01*
X103686084Y-80001531D01*
X103620372Y-79928550D01*
X103567456Y-79869780D01*
X103457015Y-79789541D01*
X103424023Y-79765571D01*
X103424021Y-79765570D01*
X103424022Y-79765570D01*
X103262066Y-79693461D01*
X103262058Y-79693459D01*
X103088645Y-79656600D01*
X102911355Y-79656600D01*
X102737941Y-79693459D01*
X102737933Y-79693461D01*
X102575978Y-79765570D01*
X102432543Y-79869780D01*
X102313915Y-80001532D01*
X102225272Y-80155065D01*
X102225271Y-80155066D01*
X102170487Y-80323677D01*
X102170486Y-80323679D01*
X102151954Y-80500000D01*
X100624293Y-80500000D01*
X100869493Y-80459083D01*
X101104603Y-80378369D01*
X101104614Y-80378364D01*
X101323228Y-80260057D01*
X101323231Y-80260055D01*
X101370056Y-80223609D01*
X100629409Y-79482962D01*
X100692993Y-79465925D01*
X100807007Y-79400099D01*
X100900099Y-79307007D01*
X100965925Y-79192993D01*
X100982962Y-79129409D01*
X101723434Y-79869882D01*
X101823731Y-79716369D01*
X101918638Y-79500000D01*
X108750428Y-79500000D01*
X108768673Y-79685250D01*
X108822711Y-79863389D01*
X108910458Y-80027552D01*
X108910460Y-80027554D01*
X109028550Y-80171449D01*
X109172445Y-80289539D01*
X109172447Y-80289541D01*
X109336610Y-80377288D01*
X109336612Y-80377288D01*
X109336615Y-80377290D01*
X109514748Y-80431326D01*
X109514747Y-80431326D01*
X109531357Y-80432961D01*
X109700000Y-80449572D01*
X109885252Y-80431326D01*
X110063385Y-80377290D01*
X110227554Y-80289540D01*
X110371449Y-80171449D01*
X110446504Y-80079994D01*
X115921866Y-80079994D01*
X115921866Y-80080005D01*
X115942366Y-80327404D01*
X116003309Y-80568065D01*
X116103033Y-80795414D01*
X116189010Y-80927011D01*
X116238816Y-81003244D01*
X116406955Y-81185892D01*
X116602864Y-81338373D01*
X116821198Y-81456530D01*
X117056002Y-81537138D01*
X117300872Y-81578000D01*
X117300873Y-81578000D01*
X117549127Y-81578000D01*
X117549128Y-81578000D01*
X117793998Y-81537138D01*
X118028802Y-81456530D01*
X118241484Y-81341431D01*
X118309810Y-81326837D01*
X118375183Y-81351500D01*
X118416844Y-81407590D01*
X118424500Y-81450487D01*
X118424500Y-81475766D01*
X118426292Y-81482453D01*
X118463719Y-81622136D01*
X118474281Y-81640429D01*
X118539485Y-81753365D01*
X118646635Y-81860515D01*
X118777865Y-81936281D01*
X118924234Y-81975500D01*
X118924236Y-81975500D01*
X119075764Y-81975500D01*
X119075766Y-81975500D01*
X119222135Y-81936281D01*
X119353365Y-81860515D01*
X119460515Y-81753365D01*
X119536281Y-81622135D01*
X119575500Y-81475766D01*
X119575500Y-81324234D01*
X122424500Y-81324234D01*
X122424500Y-81475766D01*
X122426292Y-81482453D01*
X122463719Y-81622136D01*
X122474281Y-81640429D01*
X122539485Y-81753365D01*
X122646635Y-81860515D01*
X122777865Y-81936281D01*
X122924234Y-81975500D01*
X122924236Y-81975500D01*
X123075764Y-81975500D01*
X123075766Y-81975500D01*
X123222135Y-81936281D01*
X123353365Y-81860515D01*
X123460515Y-81753365D01*
X123536281Y-81622135D01*
X123575500Y-81475766D01*
X123575500Y-81450487D01*
X123595185Y-81383448D01*
X123647989Y-81337693D01*
X123717147Y-81327749D01*
X123758514Y-81341430D01*
X123890339Y-81412771D01*
X123960031Y-81450487D01*
X123971198Y-81456530D01*
X124206002Y-81537138D01*
X124450872Y-81578000D01*
X124450873Y-81578000D01*
X124699127Y-81578000D01*
X124699128Y-81578000D01*
X124943998Y-81537138D01*
X125178802Y-81456530D01*
X125397136Y-81338373D01*
X125593045Y-81185892D01*
X125761184Y-81003244D01*
X125896967Y-80795413D01*
X125982683Y-80600000D01*
X135150428Y-80600000D01*
X135168673Y-80785250D01*
X135222711Y-80963389D01*
X135310458Y-81127552D01*
X135310460Y-81127554D01*
X135428550Y-81271449D01*
X135572445Y-81389539D01*
X135572447Y-81389541D01*
X135736610Y-81477288D01*
X135736612Y-81477288D01*
X135736615Y-81477290D01*
X135914748Y-81531326D01*
X135914747Y-81531326D01*
X135931357Y-81532961D01*
X136100000Y-81549572D01*
X136285252Y-81531326D01*
X136463385Y-81477290D01*
X136502223Y-81456531D01*
X136627552Y-81389541D01*
X136627551Y-81389541D01*
X136627554Y-81389540D01*
X136771449Y-81271449D01*
X136889540Y-81127554D01*
X136937990Y-81036910D01*
X136977288Y-80963389D01*
X136977288Y-80963388D01*
X136977290Y-80963385D01*
X137031326Y-80785252D01*
X137049572Y-80600000D01*
X137031326Y-80414748D01*
X136977290Y-80236615D01*
X136977288Y-80236612D01*
X136977288Y-80236610D01*
X136889541Y-80072447D01*
X136889539Y-80072445D01*
X136771449Y-79928550D01*
X136627554Y-79810460D01*
X136627552Y-79810458D01*
X136463389Y-79722711D01*
X136339896Y-79685250D01*
X136285252Y-79668674D01*
X136285250Y-79668673D01*
X136285252Y-79668673D01*
X136100000Y-79650428D01*
X135914749Y-79668673D01*
X135736610Y-79722711D01*
X135572447Y-79810458D01*
X135572445Y-79810460D01*
X135428550Y-79928550D01*
X135310460Y-80072445D01*
X135310458Y-80072447D01*
X135222711Y-80236610D01*
X135168673Y-80414749D01*
X135150428Y-80600000D01*
X125982683Y-80600000D01*
X125996690Y-80568067D01*
X126057633Y-80327408D01*
X126074982Y-80118044D01*
X126078134Y-80080005D01*
X126078134Y-80079994D01*
X126060723Y-79869882D01*
X126057633Y-79832592D01*
X125996690Y-79591933D01*
X125896967Y-79364587D01*
X125896184Y-79363389D01*
X125820620Y-79247729D01*
X125761184Y-79156756D01*
X125616880Y-79000000D01*
X128650428Y-79000000D01*
X128668673Y-79185250D01*
X128722711Y-79363389D01*
X128810458Y-79527552D01*
X128810460Y-79527554D01*
X128928550Y-79671449D01*
X129072445Y-79789539D01*
X129072447Y-79789541D01*
X129236610Y-79877288D01*
X129236612Y-79877288D01*
X129236615Y-79877290D01*
X129414748Y-79931326D01*
X129414747Y-79931326D01*
X129431357Y-79932961D01*
X129600000Y-79949572D01*
X129785252Y-79931326D01*
X129963385Y-79877290D01*
X129977245Y-79869882D01*
X130127552Y-79789541D01*
X130127551Y-79789541D01*
X130127554Y-79789540D01*
X130271449Y-79671449D01*
X130389540Y-79527554D01*
X130477290Y-79363385D01*
X130531326Y-79185252D01*
X130549572Y-79000000D01*
X130531326Y-78814748D01*
X130477290Y-78636615D01*
X130477288Y-78636612D01*
X130477288Y-78636610D01*
X130389541Y-78472447D01*
X130389539Y-78472445D01*
X130271449Y-78328550D01*
X130127554Y-78210460D01*
X130127552Y-78210458D01*
X129963389Y-78122711D01*
X129874318Y-78095692D01*
X129785252Y-78068674D01*
X129785250Y-78068673D01*
X129785252Y-78068673D01*
X129600000Y-78050428D01*
X129414749Y-78068673D01*
X129236610Y-78122711D01*
X129072447Y-78210458D01*
X129072445Y-78210460D01*
X128928550Y-78328550D01*
X128810460Y-78472445D01*
X128810458Y-78472447D01*
X128722711Y-78636610D01*
X128668673Y-78814749D01*
X128650428Y-79000000D01*
X125616880Y-79000000D01*
X125593045Y-78974108D01*
X125397136Y-78821627D01*
X125268976Y-78752270D01*
X125178803Y-78703470D01*
X125178797Y-78703468D01*
X124944000Y-78622862D01*
X124780751Y-78595620D01*
X124699128Y-78582000D01*
X124450872Y-78582000D01*
X124389654Y-78592215D01*
X124205999Y-78622862D01*
X123971202Y-78703468D01*
X123971196Y-78703470D01*
X123752862Y-78821628D01*
X123556957Y-78974106D01*
X123388817Y-79156754D01*
X123388814Y-79156758D01*
X123253033Y-79364585D01*
X123153309Y-79591934D01*
X123092366Y-79832595D01*
X123071866Y-80079994D01*
X123071866Y-80080005D01*
X123092366Y-80327404D01*
X123153309Y-80568065D01*
X123189552Y-80650690D01*
X123198455Y-80719990D01*
X123168478Y-80783102D01*
X123109138Y-80819989D01*
X123075996Y-80824500D01*
X122924234Y-80824500D01*
X122777863Y-80863719D01*
X122646635Y-80939485D01*
X122646632Y-80939487D01*
X122539487Y-81046632D01*
X122539485Y-81046635D01*
X122463719Y-81177863D01*
X122429242Y-81306537D01*
X122424500Y-81324234D01*
X119575500Y-81324234D01*
X119536281Y-81177865D01*
X119460515Y-81046635D01*
X119353365Y-80939485D01*
X119287750Y-80901602D01*
X119222136Y-80863719D01*
X119123096Y-80837182D01*
X119075766Y-80824500D01*
X118924234Y-80824500D01*
X118924004Y-80824500D01*
X118856965Y-80804815D01*
X118811210Y-80752011D01*
X118801266Y-80682853D01*
X118810448Y-80650690D01*
X118846690Y-80568067D01*
X118907633Y-80327408D01*
X118924982Y-80118044D01*
X118928134Y-80080005D01*
X118928134Y-80079994D01*
X118910723Y-79869882D01*
X118907633Y-79832592D01*
X118846690Y-79591933D01*
X118746967Y-79364587D01*
X118746184Y-79363389D01*
X118670620Y-79247729D01*
X118611184Y-79156756D01*
X118443045Y-78974108D01*
X118247136Y-78821627D01*
X118118976Y-78752270D01*
X118028803Y-78703470D01*
X118028797Y-78703468D01*
X117794000Y-78622862D01*
X117630751Y-78595620D01*
X117549128Y-78582000D01*
X117300872Y-78582000D01*
X117239654Y-78592215D01*
X117055999Y-78622862D01*
X116821202Y-78703468D01*
X116821196Y-78703470D01*
X116602862Y-78821628D01*
X116406957Y-78974106D01*
X116238817Y-79156754D01*
X116238814Y-79156758D01*
X116103033Y-79364585D01*
X116003309Y-79591934D01*
X115942366Y-79832595D01*
X115921866Y-80079994D01*
X110446504Y-80079994D01*
X110489540Y-80027554D01*
X110577290Y-79863385D01*
X110631326Y-79685252D01*
X110649572Y-79500000D01*
X110631326Y-79314748D01*
X110577290Y-79136615D01*
X110577288Y-79136612D01*
X110577288Y-79136610D01*
X110489541Y-78972447D01*
X110489539Y-78972445D01*
X110371449Y-78828550D01*
X110227554Y-78710460D01*
X110227552Y-78710458D01*
X110063389Y-78622711D01*
X109929182Y-78582000D01*
X109885252Y-78568674D01*
X109885250Y-78568673D01*
X109885252Y-78568673D01*
X109700000Y-78550428D01*
X109514749Y-78568673D01*
X109336610Y-78622711D01*
X109172447Y-78710458D01*
X109172445Y-78710460D01*
X109028550Y-78828550D01*
X108910460Y-78972445D01*
X108910458Y-78972447D01*
X108822711Y-79136610D01*
X108768673Y-79314749D01*
X108750428Y-79500000D01*
X101918638Y-79500000D01*
X101923587Y-79488717D01*
X101984612Y-79247738D01*
X101984614Y-79247729D01*
X102005141Y-79000005D01*
X102005141Y-78999994D01*
X101984614Y-78752270D01*
X101984612Y-78752261D01*
X101923587Y-78511282D01*
X101823731Y-78283630D01*
X101723434Y-78130116D01*
X100982962Y-78870589D01*
X100965925Y-78807007D01*
X100900099Y-78692993D01*
X100807007Y-78599901D01*
X100692993Y-78534075D01*
X100629410Y-78517037D01*
X101370057Y-77776390D01*
X101370056Y-77776389D01*
X101323229Y-77739943D01*
X101104614Y-77621635D01*
X101104603Y-77621630D01*
X100869493Y-77540916D01*
X100624293Y-77500000D01*
X100375707Y-77500000D01*
X100130506Y-77540916D01*
X99895396Y-77621630D01*
X99895390Y-77621632D01*
X99676761Y-77739949D01*
X99629942Y-77776388D01*
X99629942Y-77776390D01*
X100370590Y-78517037D01*
X100307007Y-78534075D01*
X100192993Y-78599901D01*
X100099901Y-78692993D01*
X100034075Y-78807007D01*
X100017037Y-78870589D01*
X99276564Y-78130116D01*
X99176267Y-78283632D01*
X99076412Y-78511282D01*
X99015387Y-78752261D01*
X99015385Y-78752270D01*
X98994859Y-78999994D01*
X98100500Y-78999994D01*
X98100500Y-76800000D01*
X116251954Y-76800000D01*
X116270486Y-76976320D01*
X116270487Y-76976322D01*
X116325271Y-77144933D01*
X116325272Y-77144934D01*
X116398450Y-77271682D01*
X116413916Y-77298469D01*
X116461414Y-77351221D01*
X116532543Y-77430219D01*
X116532546Y-77430221D01*
X116675977Y-77534429D01*
X116837933Y-77606538D01*
X116837936Y-77606538D01*
X116837939Y-77606540D01*
X117011355Y-77643400D01*
X117188645Y-77643400D01*
X117362061Y-77606540D01*
X117362064Y-77606538D01*
X117362066Y-77606538D01*
X117394869Y-77591932D01*
X117524023Y-77534429D01*
X117667454Y-77430221D01*
X117786084Y-77298469D01*
X117874729Y-77144931D01*
X117929514Y-76976319D01*
X117948046Y-76800000D01*
X117929514Y-76623681D01*
X117874729Y-76455069D01*
X117874728Y-76455068D01*
X117874728Y-76455066D01*
X117874727Y-76455065D01*
X117843798Y-76401495D01*
X117786084Y-76301531D01*
X117732677Y-76242217D01*
X117667456Y-76169780D01*
X117595738Y-76117675D01*
X117524023Y-76065571D01*
X117524021Y-76065570D01*
X117524022Y-76065570D01*
X117362066Y-75993461D01*
X117362058Y-75993459D01*
X117188645Y-75956600D01*
X117011355Y-75956600D01*
X116837941Y-75993459D01*
X116837933Y-75993461D01*
X116675978Y-76065570D01*
X116532543Y-76169780D01*
X116413915Y-76301532D01*
X116325272Y-76455065D01*
X116325271Y-76455066D01*
X116270487Y-76623677D01*
X116270486Y-76623679D01*
X116251954Y-76800000D01*
X98100500Y-76800000D01*
X98100500Y-66999994D01*
X98994357Y-66999994D01*
X98994357Y-67000005D01*
X99014890Y-67247812D01*
X99014892Y-67247824D01*
X99075936Y-67488881D01*
X99175826Y-67716606D01*
X99311833Y-67924782D01*
X99344245Y-67959991D01*
X99480256Y-68107738D01*
X99676491Y-68260474D01*
X99895190Y-68378828D01*
X99905682Y-68382430D01*
X99906524Y-68382719D01*
X99963539Y-68423106D01*
X99989668Y-68487906D01*
X99976615Y-68556546D01*
X99928526Y-68607233D01*
X99906524Y-68617281D01*
X99895191Y-68621171D01*
X99895188Y-68621172D01*
X99676493Y-68739524D01*
X99480257Y-68892261D01*
X99311833Y-69075217D01*
X99175826Y-69283393D01*
X99075936Y-69511118D01*
X99014892Y-69752175D01*
X99014890Y-69752187D01*
X98994357Y-69999994D01*
X98994357Y-70000005D01*
X99014890Y-70247812D01*
X99014892Y-70247824D01*
X99075936Y-70488881D01*
X99175826Y-70716606D01*
X99311833Y-70924782D01*
X99311836Y-70924785D01*
X99480256Y-71107738D01*
X99676491Y-71260474D01*
X99895190Y-71378828D01*
X99905682Y-71382430D01*
X99906524Y-71382719D01*
X99963539Y-71423106D01*
X99989668Y-71487906D01*
X99976615Y-71556546D01*
X99928526Y-71607233D01*
X99906524Y-71617281D01*
X99895191Y-71621171D01*
X99895188Y-71621172D01*
X99676493Y-71739524D01*
X99480257Y-71892261D01*
X99311833Y-72075217D01*
X99175826Y-72283393D01*
X99075936Y-72511118D01*
X99014892Y-72752175D01*
X99014890Y-72752187D01*
X98994357Y-72999994D01*
X98994357Y-73000005D01*
X99014890Y-73247812D01*
X99014892Y-73247824D01*
X99075936Y-73488881D01*
X99175826Y-73716606D01*
X99311833Y-73924782D01*
X99311836Y-73924785D01*
X99480256Y-74107738D01*
X99676491Y-74260474D01*
X99895190Y-74378828D01*
X100130386Y-74459571D01*
X100375665Y-74500500D01*
X100624335Y-74500500D01*
X100869614Y-74459571D01*
X101104810Y-74378828D01*
X101323509Y-74260474D01*
X101519744Y-74107738D01*
X101688164Y-73924785D01*
X101824173Y-73716607D01*
X101924063Y-73488881D01*
X101985108Y-73247821D01*
X101985347Y-73244934D01*
X102005643Y-73000005D01*
X102005643Y-72999994D01*
X101997357Y-72900000D01*
X119851954Y-72900000D01*
X119870486Y-73076320D01*
X119870487Y-73076322D01*
X119925271Y-73244933D01*
X119925272Y-73244934D01*
X119998450Y-73371682D01*
X120013916Y-73398469D01*
X120061414Y-73451221D01*
X120132543Y-73530219D01*
X120132546Y-73530221D01*
X120275977Y-73634429D01*
X120437933Y-73706538D01*
X120437936Y-73706538D01*
X120437939Y-73706540D01*
X120611355Y-73743400D01*
X120788645Y-73743400D01*
X120962061Y-73706540D01*
X120962064Y-73706538D01*
X120962066Y-73706538D01*
X121014049Y-73683393D01*
X121124023Y-73634429D01*
X121267454Y-73530221D01*
X121386084Y-73398469D01*
X121474729Y-73244931D01*
X121529514Y-73076319D01*
X121548046Y-72900000D01*
X121529514Y-72723681D01*
X121474729Y-72555069D01*
X121474728Y-72555068D01*
X121474728Y-72555066D01*
X121474727Y-72555065D01*
X121443798Y-72501495D01*
X121386084Y-72401531D01*
X121332677Y-72342217D01*
X121267456Y-72269780D01*
X121195738Y-72217675D01*
X121124023Y-72165571D01*
X121124021Y-72165570D01*
X121124022Y-72165570D01*
X120962066Y-72093461D01*
X120962058Y-72093459D01*
X120788645Y-72056600D01*
X120611355Y-72056600D01*
X120437941Y-72093459D01*
X120437933Y-72093461D01*
X120275978Y-72165570D01*
X120132543Y-72269780D01*
X120013915Y-72401532D01*
X119925272Y-72555065D01*
X119925271Y-72555066D01*
X119870487Y-72723677D01*
X119870486Y-72723679D01*
X119851954Y-72900000D01*
X101997357Y-72900000D01*
X101985109Y-72752187D01*
X101985107Y-72752175D01*
X101924063Y-72511118D01*
X101824173Y-72283393D01*
X101688166Y-72075217D01*
X101666557Y-72051744D01*
X101519744Y-71892262D01*
X101323509Y-71739526D01*
X101323507Y-71739525D01*
X101323506Y-71739524D01*
X101104811Y-71621172D01*
X101104802Y-71621169D01*
X101093477Y-71617281D01*
X101036462Y-71576896D01*
X101010331Y-71512096D01*
X101023382Y-71443456D01*
X101071471Y-71392768D01*
X101093477Y-71382719D01*
X101097235Y-71381428D01*
X101104810Y-71378828D01*
X101323509Y-71260474D01*
X101519744Y-71107738D01*
X101688164Y-70924785D01*
X101824173Y-70716607D01*
X101924063Y-70488881D01*
X101985108Y-70247821D01*
X101991027Y-70176388D01*
X102005643Y-70000005D01*
X102005643Y-69999994D01*
X101985109Y-69752187D01*
X101985107Y-69752175D01*
X101924063Y-69511118D01*
X101824173Y-69283393D01*
X101688166Y-69075217D01*
X101620333Y-69001531D01*
X101519744Y-68892262D01*
X101323509Y-68739526D01*
X101323507Y-68739525D01*
X101323506Y-68739524D01*
X101104811Y-68621172D01*
X101104802Y-68621169D01*
X101093477Y-68617281D01*
X101036462Y-68576896D01*
X101010331Y-68512096D01*
X101023382Y-68443456D01*
X101071471Y-68392768D01*
X101093477Y-68382719D01*
X101097235Y-68381428D01*
X101104810Y-68378828D01*
X101323509Y-68260474D01*
X101519744Y-68107738D01*
X101688164Y-67924785D01*
X101824173Y-67716607D01*
X101924063Y-67488881D01*
X101985108Y-67247821D01*
X101994082Y-67139524D01*
X102005643Y-67000005D01*
X102005643Y-66999994D01*
X101985109Y-66752187D01*
X101985107Y-66752175D01*
X101924063Y-66511118D01*
X101824173Y-66283393D01*
X101688166Y-66075217D01*
X101666557Y-66051744D01*
X101519744Y-65892262D01*
X101323509Y-65739526D01*
X101323507Y-65739525D01*
X101323506Y-65739524D01*
X101104811Y-65621172D01*
X101104802Y-65621169D01*
X101092705Y-65617016D01*
X101035690Y-65576631D01*
X101009559Y-65511831D01*
X101022610Y-65443191D01*
X101070699Y-65392504D01*
X101092707Y-65382453D01*
X101104608Y-65378367D01*
X101104614Y-65378364D01*
X101323228Y-65260057D01*
X101323231Y-65260055D01*
X101370056Y-65223609D01*
X100629409Y-64482962D01*
X100692993Y-64465925D01*
X100807007Y-64400099D01*
X100900099Y-64307007D01*
X100965925Y-64192993D01*
X100982962Y-64129410D01*
X101723434Y-64869882D01*
X101823731Y-64716369D01*
X101918638Y-64500000D01*
X102651954Y-64500000D01*
X102670486Y-64676320D01*
X102670487Y-64676322D01*
X102725271Y-64844933D01*
X102725272Y-64844934D01*
X102797351Y-64969777D01*
X102813916Y-64998469D01*
X102815295Y-65000000D01*
X102932543Y-65130219D01*
X102932546Y-65130221D01*
X103048396Y-65214390D01*
X103091062Y-65269720D01*
X103097041Y-65339333D01*
X103093443Y-65353025D01*
X103070486Y-65423680D01*
X103051954Y-65600000D01*
X103070486Y-65776320D01*
X103070487Y-65776322D01*
X103125271Y-65944933D01*
X103125272Y-65944934D01*
X103193598Y-66063279D01*
X103210071Y-66131180D01*
X103187218Y-66197206D01*
X103136648Y-66238558D01*
X103075976Y-66265571D01*
X102932543Y-66369780D01*
X102813915Y-66501532D01*
X102725272Y-66655065D01*
X102725271Y-66655066D01*
X102670487Y-66823677D01*
X102670486Y-66823679D01*
X102651954Y-67000000D01*
X102670486Y-67176320D01*
X102670487Y-67176322D01*
X102725271Y-67344933D01*
X102725272Y-67344934D01*
X102785169Y-67448677D01*
X102813916Y-67498469D01*
X102861414Y-67551221D01*
X102932543Y-67630219D01*
X102932546Y-67630221D01*
X103075977Y-67734429D01*
X103226212Y-67801319D01*
X103237939Y-67806540D01*
X103392246Y-67839338D01*
X103453724Y-67872529D01*
X103487501Y-67933691D01*
X103482849Y-68003406D01*
X103441245Y-68059539D01*
X103392244Y-68081917D01*
X103337937Y-68093460D01*
X103337933Y-68093461D01*
X103175978Y-68165570D01*
X103032543Y-68269780D01*
X102913915Y-68401532D01*
X102825272Y-68555065D01*
X102825271Y-68555066D01*
X102770487Y-68723677D01*
X102770486Y-68723679D01*
X102751954Y-68900000D01*
X102770486Y-69076320D01*
X102770487Y-69076322D01*
X102825271Y-69244933D01*
X102825272Y-69244934D01*
X102898450Y-69371682D01*
X102913916Y-69398469D01*
X102948263Y-69436615D01*
X103032545Y-69530221D01*
X103032546Y-69530222D01*
X103078150Y-69563355D01*
X103120816Y-69618684D01*
X103126795Y-69688298D01*
X103094190Y-69750093D01*
X103078150Y-69763991D01*
X102932547Y-69869777D01*
X102932545Y-69869778D01*
X102813915Y-70001532D01*
X102725272Y-70155065D01*
X102725271Y-70155066D01*
X102670487Y-70323677D01*
X102670486Y-70323679D01*
X102668413Y-70343400D01*
X102651954Y-70500000D01*
X102670486Y-70676319D01*
X102672535Y-70682627D01*
X102725271Y-70844933D01*
X102725272Y-70844934D01*
X102776738Y-70934075D01*
X102813916Y-70998469D01*
X102857116Y-71046447D01*
X102932543Y-71130219D01*
X102932546Y-71130221D01*
X103075977Y-71234429D01*
X103237933Y-71306538D01*
X103237936Y-71306538D01*
X103237939Y-71306540D01*
X103411355Y-71343400D01*
X103588645Y-71343400D01*
X103762061Y-71306540D01*
X103762064Y-71306538D01*
X103762066Y-71306538D01*
X103794869Y-71291932D01*
X103924023Y-71234429D01*
X104067454Y-71130221D01*
X104186084Y-70998469D01*
X104274729Y-70844931D01*
X104329514Y-70676319D01*
X104348046Y-70500000D01*
X104329514Y-70323681D01*
X104274729Y-70155069D01*
X104274728Y-70155068D01*
X104274728Y-70155066D01*
X104274727Y-70155065D01*
X104197689Y-70021632D01*
X104186084Y-70001531D01*
X104126769Y-69935655D01*
X104067454Y-69869778D01*
X104067452Y-69869777D01*
X104021849Y-69836644D01*
X103979183Y-69781314D01*
X103973204Y-69711701D01*
X104005810Y-69649906D01*
X104021850Y-69636007D01*
X104024020Y-69634430D01*
X104024023Y-69634429D01*
X104167454Y-69530221D01*
X104286084Y-69398469D01*
X104374729Y-69244931D01*
X104429514Y-69076319D01*
X104437536Y-69000000D01*
X106151954Y-69000000D01*
X106170486Y-69176320D01*
X106170487Y-69176322D01*
X106225271Y-69344933D01*
X106225272Y-69344934D01*
X106298450Y-69471682D01*
X106313916Y-69498469D01*
X106342506Y-69530221D01*
X106432543Y-69630219D01*
X106432546Y-69630221D01*
X106575977Y-69734429D01*
X106737933Y-69806538D01*
X106737936Y-69806538D01*
X106737939Y-69806540D01*
X106911355Y-69843400D01*
X107088645Y-69843400D01*
X107262061Y-69806540D01*
X107262064Y-69806538D01*
X107262066Y-69806538D01*
X107294869Y-69791932D01*
X107424023Y-69734429D01*
X107567454Y-69630221D01*
X107686084Y-69498469D01*
X107774729Y-69344931D01*
X107829514Y-69176319D01*
X107848046Y-69000000D01*
X107829514Y-68823681D01*
X107774729Y-68655069D01*
X107774728Y-68655068D01*
X107774728Y-68655066D01*
X107774727Y-68655065D01*
X107716992Y-68555065D01*
X107686084Y-68501531D01*
X107594670Y-68400005D01*
X107567456Y-68369780D01*
X107429816Y-68269780D01*
X107424023Y-68265571D01*
X107424021Y-68265570D01*
X107424022Y-68265570D01*
X107262066Y-68193461D01*
X107262058Y-68193459D01*
X107088645Y-68156600D01*
X106911355Y-68156600D01*
X106737941Y-68193459D01*
X106737933Y-68193461D01*
X106575978Y-68265570D01*
X106432543Y-68369780D01*
X106313915Y-68501532D01*
X106225272Y-68655065D01*
X106225271Y-68655066D01*
X106170487Y-68823677D01*
X106170486Y-68823679D01*
X106151954Y-69000000D01*
X104437536Y-69000000D01*
X104448046Y-68900000D01*
X104429514Y-68723681D01*
X104374729Y-68555069D01*
X104374728Y-68555068D01*
X104374728Y-68555066D01*
X104374727Y-68555065D01*
X104342935Y-68500000D01*
X104286084Y-68401531D01*
X104232677Y-68342217D01*
X104167456Y-68269780D01*
X104095738Y-68217675D01*
X104024023Y-68165571D01*
X104024021Y-68165570D01*
X104024022Y-68165570D01*
X103862066Y-68093461D01*
X103862060Y-68093459D01*
X103707756Y-68060662D01*
X103646274Y-68027470D01*
X103612498Y-67966307D01*
X103617150Y-67896592D01*
X103658755Y-67840460D01*
X103707752Y-67818083D01*
X103762061Y-67806540D01*
X103762065Y-67806538D01*
X103762066Y-67806538D01*
X103794869Y-67791932D01*
X103924023Y-67734429D01*
X104067454Y-67630221D01*
X104186084Y-67498469D01*
X104274729Y-67344931D01*
X104329514Y-67176319D01*
X104348046Y-67000000D01*
X106151954Y-67000000D01*
X106170486Y-67176320D01*
X106170487Y-67176322D01*
X106225271Y-67344933D01*
X106225272Y-67344934D01*
X106285169Y-67448677D01*
X106313916Y-67498469D01*
X106361414Y-67551221D01*
X106432543Y-67630219D01*
X106432546Y-67630221D01*
X106575977Y-67734429D01*
X106737933Y-67806538D01*
X106737936Y-67806538D01*
X106737939Y-67806540D01*
X106911355Y-67843400D01*
X107088645Y-67843400D01*
X107262061Y-67806540D01*
X107262064Y-67806538D01*
X107262066Y-67806538D01*
X107294869Y-67791932D01*
X107424023Y-67734429D01*
X107567454Y-67630221D01*
X107686084Y-67498469D01*
X107774729Y-67344931D01*
X107829514Y-67176319D01*
X107848046Y-67000000D01*
X107829514Y-66823681D01*
X107774729Y-66655069D01*
X107774728Y-66655068D01*
X107774728Y-66655066D01*
X107774727Y-66655065D01*
X107706400Y-66536720D01*
X107686084Y-66501531D01*
X107600554Y-66406540D01*
X107567456Y-66369780D01*
X107448553Y-66283393D01*
X107424023Y-66265571D01*
X107424021Y-66265570D01*
X107424022Y-66265570D01*
X107262066Y-66193461D01*
X107262058Y-66193459D01*
X107088645Y-66156600D01*
X106911355Y-66156600D01*
X106737941Y-66193459D01*
X106737933Y-66193461D01*
X106575978Y-66265570D01*
X106432543Y-66369780D01*
X106313915Y-66501532D01*
X106225272Y-66655065D01*
X106225271Y-66655066D01*
X106170487Y-66823677D01*
X106170486Y-66823679D01*
X106151954Y-67000000D01*
X104348046Y-67000000D01*
X104329514Y-66823681D01*
X104274729Y-66655069D01*
X104274728Y-66655068D01*
X104274728Y-66655066D01*
X104274727Y-66655065D01*
X104206401Y-66536720D01*
X104189928Y-66468820D01*
X104212781Y-66402793D01*
X104263349Y-66361442D01*
X104324023Y-66334429D01*
X104467454Y-66230221D01*
X104586084Y-66098469D01*
X104642935Y-66000000D01*
X109651954Y-66000000D01*
X109670486Y-66176320D01*
X109670487Y-66176322D01*
X109725271Y-66344933D01*
X109725272Y-66344934D01*
X109796798Y-66468820D01*
X109813916Y-66498469D01*
X109866669Y-66557057D01*
X109932545Y-66630221D01*
X109932547Y-66630222D01*
X110045355Y-66712182D01*
X110088021Y-66767511D01*
X110094000Y-66837125D01*
X110061395Y-66898920D01*
X110045355Y-66912818D01*
X109932547Y-66994777D01*
X109932545Y-66994778D01*
X109813915Y-67126532D01*
X109725272Y-67280065D01*
X109725271Y-67280066D01*
X109670487Y-67448677D01*
X109670486Y-67448679D01*
X109651954Y-67625000D01*
X109670486Y-67801320D01*
X109670487Y-67801322D01*
X109725271Y-67969933D01*
X109725272Y-67969934D01*
X109758491Y-68027470D01*
X109813916Y-68123469D01*
X109851824Y-68165570D01*
X109932543Y-68255219D01*
X109952585Y-68269780D01*
X110075977Y-68359429D01*
X110237933Y-68431538D01*
X110237939Y-68431540D01*
X110283433Y-68441210D01*
X110344915Y-68474402D01*
X110378691Y-68535565D01*
X110374039Y-68605280D01*
X110332434Y-68661412D01*
X110283433Y-68683790D01*
X110237939Y-68693459D01*
X110237933Y-68693461D01*
X110075978Y-68765570D01*
X109932543Y-68869780D01*
X109813915Y-69001532D01*
X109725272Y-69155065D01*
X109725271Y-69155066D01*
X109670487Y-69323677D01*
X109670486Y-69323679D01*
X109651954Y-69500000D01*
X109670486Y-69676320D01*
X109670487Y-69676322D01*
X109725271Y-69844933D01*
X109725272Y-69844934D01*
X109789861Y-69956804D01*
X109813916Y-69998469D01*
X109834775Y-70021635D01*
X109932543Y-70130219D01*
X109960973Y-70150874D01*
X110075977Y-70234429D01*
X110237933Y-70306538D01*
X110237936Y-70306538D01*
X110237939Y-70306540D01*
X110411355Y-70343400D01*
X110588645Y-70343400D01*
X110762061Y-70306540D01*
X110762064Y-70306538D01*
X110762066Y-70306538D01*
X110794869Y-70291932D01*
X110924023Y-70234429D01*
X111067454Y-70130221D01*
X111186084Y-69998469D01*
X111274729Y-69844931D01*
X111289328Y-69800000D01*
X137750428Y-69800000D01*
X137768673Y-69985250D01*
X137822711Y-70163389D01*
X137910458Y-70327552D01*
X137910460Y-70327554D01*
X138028550Y-70471449D01*
X138172445Y-70589539D01*
X138172447Y-70589541D01*
X138336610Y-70677288D01*
X138336612Y-70677288D01*
X138336615Y-70677290D01*
X138514748Y-70731326D01*
X138514747Y-70731326D01*
X138531357Y-70732961D01*
X138700000Y-70749572D01*
X138885252Y-70731326D01*
X139063385Y-70677290D01*
X139227554Y-70589540D01*
X139371449Y-70471449D01*
X139489540Y-70327554D01*
X139518790Y-70272831D01*
X139577288Y-70163389D01*
X139577288Y-70163388D01*
X139577290Y-70163385D01*
X139631326Y-69985252D01*
X139649572Y-69800000D01*
X139631326Y-69614748D01*
X139577290Y-69436615D01*
X139577288Y-69436612D01*
X139577288Y-69436610D01*
X139489541Y-69272447D01*
X139489539Y-69272445D01*
X139371449Y-69128550D01*
X139227554Y-69010460D01*
X139227552Y-69010458D01*
X139063389Y-68922711D01*
X138963008Y-68892261D01*
X138885252Y-68868674D01*
X138885250Y-68868673D01*
X138885252Y-68868673D01*
X138700000Y-68850428D01*
X138514749Y-68868673D01*
X138336610Y-68922711D01*
X138172447Y-69010458D01*
X138172445Y-69010460D01*
X138028550Y-69128550D01*
X137910460Y-69272445D01*
X137910458Y-69272447D01*
X137822711Y-69436610D01*
X137768673Y-69614749D01*
X137750428Y-69800000D01*
X111289328Y-69800000D01*
X111329514Y-69676319D01*
X111348046Y-69500000D01*
X111329514Y-69323681D01*
X111274729Y-69155069D01*
X111274728Y-69155068D01*
X111274728Y-69155066D01*
X111274727Y-69155065D01*
X111243798Y-69101495D01*
X111186084Y-69001531D01*
X111115114Y-68922711D01*
X111067456Y-68869780D01*
X110995738Y-68817675D01*
X110924023Y-68765571D01*
X110924021Y-68765570D01*
X110924022Y-68765570D01*
X110762066Y-68693461D01*
X110762058Y-68693459D01*
X110716567Y-68683790D01*
X110655085Y-68650598D01*
X110621308Y-68589435D01*
X110625960Y-68519721D01*
X110667564Y-68463588D01*
X110716567Y-68441210D01*
X110724646Y-68439492D01*
X110762061Y-68431540D01*
X110762064Y-68431538D01*
X110762066Y-68431538D01*
X110829459Y-68401532D01*
X110832913Y-68399994D01*
X140344357Y-68399994D01*
X140344357Y-68400005D01*
X140364890Y-68647812D01*
X140364892Y-68647824D01*
X140425936Y-68888881D01*
X140525826Y-69116606D01*
X140661833Y-69324782D01*
X140680384Y-69344934D01*
X140830256Y-69507738D01*
X141026491Y-69660474D01*
X141121150Y-69711701D01*
X141195939Y-69752175D01*
X141245190Y-69778828D01*
X141257292Y-69782982D01*
X141314307Y-69823365D01*
X141340439Y-69888164D01*
X141327391Y-69956804D01*
X141279304Y-70007493D01*
X141257300Y-70017543D01*
X141245398Y-70021629D01*
X141245390Y-70021632D01*
X141026761Y-70139949D01*
X140979942Y-70176388D01*
X140979942Y-70176390D01*
X141720590Y-70917037D01*
X141657007Y-70934075D01*
X141542993Y-70999901D01*
X141449901Y-71092993D01*
X141384075Y-71207007D01*
X141367037Y-71270589D01*
X140626564Y-70530116D01*
X140526267Y-70683632D01*
X140426412Y-70911282D01*
X140365387Y-71152261D01*
X140365385Y-71152270D01*
X140344859Y-71399994D01*
X140344859Y-71400005D01*
X140365385Y-71647729D01*
X140365387Y-71647738D01*
X140426412Y-71888717D01*
X140526266Y-72116364D01*
X140626564Y-72269882D01*
X141367037Y-71529409D01*
X141384075Y-71592993D01*
X141449901Y-71707007D01*
X141542993Y-71800099D01*
X141657007Y-71865925D01*
X141720590Y-71882962D01*
X140979942Y-72623609D01*
X141026768Y-72660055D01*
X141026770Y-72660056D01*
X141245385Y-72778364D01*
X141245396Y-72778369D01*
X141257294Y-72782454D01*
X141314309Y-72822839D01*
X141340440Y-72887639D01*
X141327389Y-72956279D01*
X141279300Y-73006967D01*
X141257296Y-73017016D01*
X141245191Y-73021171D01*
X141245188Y-73021172D01*
X141026493Y-73139524D01*
X140830257Y-73292261D01*
X140661833Y-73475217D01*
X140525826Y-73683393D01*
X140425936Y-73911118D01*
X140364892Y-74152175D01*
X140364890Y-74152187D01*
X140344357Y-74399994D01*
X140344357Y-74400005D01*
X140364890Y-74647812D01*
X140364892Y-74647824D01*
X140425936Y-74888881D01*
X140525826Y-75116606D01*
X140661833Y-75324782D01*
X140661836Y-75324785D01*
X140830256Y-75507738D01*
X141026491Y-75660474D01*
X141245190Y-75778828D01*
X141480386Y-75859571D01*
X141725665Y-75900500D01*
X141974335Y-75900500D01*
X142219614Y-75859571D01*
X142454810Y-75778828D01*
X142673509Y-75660474D01*
X142869744Y-75507738D01*
X143038164Y-75324785D01*
X143174173Y-75116607D01*
X143274063Y-74888881D01*
X143335108Y-74647821D01*
X143335109Y-74647812D01*
X143355643Y-74400005D01*
X143355643Y-74399994D01*
X143335109Y-74152187D01*
X143335107Y-74152175D01*
X143274063Y-73911118D01*
X143174173Y-73683393D01*
X143038166Y-73475217D01*
X142967514Y-73398469D01*
X142869744Y-73292262D01*
X142673509Y-73139526D01*
X142673507Y-73139525D01*
X142673506Y-73139524D01*
X142454811Y-73021172D01*
X142454802Y-73021169D01*
X142442705Y-73017016D01*
X142385690Y-72976631D01*
X142359559Y-72911831D01*
X142372610Y-72843191D01*
X142420699Y-72792504D01*
X142442707Y-72782453D01*
X142454608Y-72778367D01*
X142454614Y-72778364D01*
X142673228Y-72660057D01*
X142673231Y-72660055D01*
X142720056Y-72623609D01*
X141979409Y-71882962D01*
X142042993Y-71865925D01*
X142157007Y-71800099D01*
X142250099Y-71707007D01*
X142315925Y-71592993D01*
X142332962Y-71529410D01*
X143073434Y-72269882D01*
X143173731Y-72116369D01*
X143273587Y-71888717D01*
X143334612Y-71647738D01*
X143334614Y-71647729D01*
X143355141Y-71400005D01*
X143355141Y-71399994D01*
X143334614Y-71152270D01*
X143334612Y-71152261D01*
X143273587Y-70911282D01*
X143173731Y-70683630D01*
X143073434Y-70530116D01*
X142332962Y-71270589D01*
X142315925Y-71207007D01*
X142250099Y-71092993D01*
X142157007Y-70999901D01*
X142042993Y-70934075D01*
X141979410Y-70917037D01*
X142720057Y-70176390D01*
X142720056Y-70176389D01*
X142673229Y-70139943D01*
X142454614Y-70021635D01*
X142454605Y-70021631D01*
X142442701Y-70017544D01*
X142385687Y-69977156D01*
X142359559Y-69912356D01*
X142372612Y-69843716D01*
X142420703Y-69793030D01*
X142442705Y-69782983D01*
X142454810Y-69778828D01*
X142673509Y-69660474D01*
X142869744Y-69507738D01*
X143038164Y-69324785D01*
X143174173Y-69116607D01*
X143274063Y-68888881D01*
X143335108Y-68647821D01*
X143337316Y-68621172D01*
X143355643Y-68400005D01*
X143355643Y-68399994D01*
X143335109Y-68152187D01*
X143335107Y-68152175D01*
X143274063Y-67911118D01*
X143174173Y-67683393D01*
X143038166Y-67475217D01*
X143013734Y-67448677D01*
X142869744Y-67292262D01*
X142673509Y-67139526D01*
X142673507Y-67139525D01*
X142673506Y-67139524D01*
X142454811Y-67021172D01*
X142454802Y-67021169D01*
X142219616Y-66940429D01*
X141974335Y-66899500D01*
X141725665Y-66899500D01*
X141480383Y-66940429D01*
X141245197Y-67021169D01*
X141245188Y-67021172D01*
X141026493Y-67139524D01*
X140830257Y-67292261D01*
X140661833Y-67475217D01*
X140525826Y-67683393D01*
X140425936Y-67911118D01*
X140364892Y-68152175D01*
X140364890Y-68152187D01*
X140344357Y-68399994D01*
X110832913Y-68399994D01*
X110924023Y-68359429D01*
X111067454Y-68255221D01*
X111186084Y-68123469D01*
X111274729Y-67969931D01*
X111329514Y-67801319D01*
X111348046Y-67625000D01*
X111329514Y-67448681D01*
X111274729Y-67280069D01*
X111274728Y-67280068D01*
X111274728Y-67280066D01*
X111274727Y-67280065D01*
X111243798Y-67226495D01*
X111186084Y-67126531D01*
X111132677Y-67067217D01*
X111067456Y-66994780D01*
X110992647Y-66940429D01*
X110954642Y-66912817D01*
X110911978Y-66857489D01*
X110905999Y-66787876D01*
X110938604Y-66726080D01*
X110954639Y-66712185D01*
X111067454Y-66630221D01*
X111186084Y-66498469D01*
X111274729Y-66344931D01*
X111329514Y-66176319D01*
X111337536Y-66100000D01*
X112451954Y-66100000D01*
X112470486Y-66276320D01*
X112470487Y-66276322D01*
X112525271Y-66444933D01*
X112525272Y-66444934D01*
X112578265Y-66536720D01*
X112613916Y-66598469D01*
X112642504Y-66630219D01*
X112732543Y-66730219D01*
X112732546Y-66730221D01*
X112875977Y-66834429D01*
X113037933Y-66906538D01*
X113037936Y-66906538D01*
X113037939Y-66906540D01*
X113211355Y-66943400D01*
X113388645Y-66943400D01*
X113562061Y-66906540D01*
X113562064Y-66906538D01*
X113562066Y-66906538D01*
X113594869Y-66891932D01*
X113724023Y-66834429D01*
X113867454Y-66730221D01*
X113986084Y-66598469D01*
X114074729Y-66444931D01*
X114129514Y-66276319D01*
X114148046Y-66100000D01*
X114137536Y-66000000D01*
X117751954Y-66000000D01*
X117770486Y-66176320D01*
X117770487Y-66176322D01*
X117825271Y-66344933D01*
X117825272Y-66344934D01*
X117896798Y-66468820D01*
X117913916Y-66498469D01*
X117961414Y-66551221D01*
X118032543Y-66630219D01*
X118032546Y-66630221D01*
X118175977Y-66734429D01*
X118337933Y-66806538D01*
X118337936Y-66806538D01*
X118337939Y-66806540D01*
X118511355Y-66843400D01*
X118688645Y-66843400D01*
X118862061Y-66806540D01*
X118862064Y-66806538D01*
X118862066Y-66806538D01*
X118894869Y-66791932D01*
X119024023Y-66734429D01*
X119167454Y-66630221D01*
X119286084Y-66498469D01*
X119374729Y-66344931D01*
X119429514Y-66176319D01*
X119448046Y-66000000D01*
X119429514Y-65823681D01*
X119374729Y-65655069D01*
X119374728Y-65655068D01*
X119374728Y-65655066D01*
X119374727Y-65655065D01*
X119329443Y-65576631D01*
X119286084Y-65501531D01*
X119215984Y-65423677D01*
X119167456Y-65369780D01*
X119080412Y-65306540D01*
X119024023Y-65265571D01*
X119024021Y-65265570D01*
X119024022Y-65265570D01*
X118862066Y-65193461D01*
X118862058Y-65193459D01*
X118688645Y-65156600D01*
X118511355Y-65156600D01*
X118337941Y-65193459D01*
X118337933Y-65193461D01*
X118175978Y-65265570D01*
X118032543Y-65369780D01*
X117913915Y-65501532D01*
X117825272Y-65655065D01*
X117825271Y-65655066D01*
X117770487Y-65823677D01*
X117770486Y-65823679D01*
X117751954Y-66000000D01*
X114137536Y-66000000D01*
X114129514Y-65923681D01*
X114074729Y-65755069D01*
X114074728Y-65755068D01*
X114074728Y-65755066D01*
X114074727Y-65755065D01*
X114002647Y-65630219D01*
X113986084Y-65601531D01*
X113896044Y-65501531D01*
X113867456Y-65469780D01*
X113761093Y-65392504D01*
X113724023Y-65365571D01*
X113724021Y-65365570D01*
X113724022Y-65365570D01*
X113562066Y-65293461D01*
X113562058Y-65293459D01*
X113388645Y-65256600D01*
X113211355Y-65256600D01*
X113037941Y-65293459D01*
X113037933Y-65293461D01*
X112875978Y-65365570D01*
X112732543Y-65469780D01*
X112613915Y-65601532D01*
X112525272Y-65755065D01*
X112525271Y-65755066D01*
X112470487Y-65923677D01*
X112470486Y-65923679D01*
X112451954Y-66100000D01*
X111337536Y-66100000D01*
X111348046Y-66000000D01*
X111329514Y-65823681D01*
X111274729Y-65655069D01*
X111274728Y-65655068D01*
X111274728Y-65655066D01*
X111274727Y-65655065D01*
X111229443Y-65576631D01*
X111186084Y-65501531D01*
X111115984Y-65423677D01*
X111067456Y-65369780D01*
X110980412Y-65306540D01*
X110924023Y-65265571D01*
X110924021Y-65265570D01*
X110924022Y-65265570D01*
X110762066Y-65193461D01*
X110762058Y-65193459D01*
X110588645Y-65156600D01*
X110411355Y-65156600D01*
X110237941Y-65193459D01*
X110237933Y-65193461D01*
X110075978Y-65265570D01*
X109932543Y-65369780D01*
X109813915Y-65501532D01*
X109725272Y-65655065D01*
X109725271Y-65655066D01*
X109670487Y-65823677D01*
X109670486Y-65823679D01*
X109651954Y-66000000D01*
X104642935Y-66000000D01*
X104674729Y-65944931D01*
X104729514Y-65776319D01*
X104748046Y-65600000D01*
X104729514Y-65423681D01*
X104674729Y-65255069D01*
X104674728Y-65255068D01*
X104674728Y-65255066D01*
X104674727Y-65255065D01*
X104639159Y-65193460D01*
X104586084Y-65101531D01*
X104526769Y-65035655D01*
X104467454Y-64969778D01*
X104467452Y-64969777D01*
X104351603Y-64885608D01*
X104308937Y-64830279D01*
X104302958Y-64760665D01*
X104306553Y-64746983D01*
X104329514Y-64676319D01*
X104348046Y-64500000D01*
X104329514Y-64323681D01*
X104274729Y-64155069D01*
X104274728Y-64155068D01*
X104274728Y-64155066D01*
X104274727Y-64155065D01*
X104243798Y-64101495D01*
X104186084Y-64001531D01*
X104184705Y-64000000D01*
X106151954Y-64000000D01*
X106170486Y-64176320D01*
X106170487Y-64176322D01*
X106225271Y-64344933D01*
X106225274Y-64344939D01*
X106279003Y-64438001D01*
X106295476Y-64505901D01*
X106279003Y-64561999D01*
X106225274Y-64655060D01*
X106225271Y-64655066D01*
X106170487Y-64823677D01*
X106170486Y-64823679D01*
X106151954Y-65000000D01*
X106170486Y-65176320D01*
X106170487Y-65176322D01*
X106225271Y-65344933D01*
X106225272Y-65344934D01*
X106270737Y-65423681D01*
X106313916Y-65498469D01*
X106351697Y-65540429D01*
X106432543Y-65630219D01*
X106432546Y-65630221D01*
X106575977Y-65734429D01*
X106737933Y-65806538D01*
X106737936Y-65806538D01*
X106737939Y-65806540D01*
X106911355Y-65843400D01*
X107088645Y-65843400D01*
X107262061Y-65806540D01*
X107262064Y-65806538D01*
X107262066Y-65806538D01*
X107294869Y-65791932D01*
X107424023Y-65734429D01*
X107567454Y-65630221D01*
X107575605Y-65621169D01*
X107588392Y-65606967D01*
X107686084Y-65498469D01*
X107774729Y-65344931D01*
X107829514Y-65176319D01*
X107848046Y-65000000D01*
X107829514Y-64823681D01*
X107774729Y-64655069D01*
X107774728Y-64655068D01*
X107774728Y-64655066D01*
X107774727Y-64655065D01*
X107720996Y-64562000D01*
X107705954Y-64500000D01*
X115851954Y-64500000D01*
X115870486Y-64676320D01*
X115870487Y-64676322D01*
X115925271Y-64844933D01*
X115925272Y-64844934D01*
X115997351Y-64969777D01*
X116013916Y-64998469D01*
X116015295Y-65000000D01*
X116132543Y-65130219D01*
X116132546Y-65130221D01*
X116275977Y-65234429D01*
X116437933Y-65306538D01*
X116437936Y-65306538D01*
X116437939Y-65306540D01*
X116611355Y-65343400D01*
X116788645Y-65343400D01*
X116962061Y-65306540D01*
X116962064Y-65306538D01*
X116962066Y-65306538D01*
X116994869Y-65291932D01*
X117124023Y-65234429D01*
X117267454Y-65130221D01*
X117386084Y-64998469D01*
X117474729Y-64844931D01*
X117529514Y-64676319D01*
X117548046Y-64500000D01*
X117529514Y-64323681D01*
X117474729Y-64155069D01*
X117474728Y-64155068D01*
X117474728Y-64155066D01*
X117474727Y-64155065D01*
X117443798Y-64101495D01*
X117386084Y-64001531D01*
X117325436Y-63934174D01*
X117267456Y-63869780D01*
X117181055Y-63807007D01*
X117124023Y-63765571D01*
X117124021Y-63765570D01*
X117124022Y-63765570D01*
X116962066Y-63693461D01*
X116962058Y-63693459D01*
X116788645Y-63656600D01*
X116611355Y-63656600D01*
X116437941Y-63693459D01*
X116437933Y-63693461D01*
X116275978Y-63765570D01*
X116132543Y-63869780D01*
X116013915Y-64001532D01*
X115925272Y-64155065D01*
X115925271Y-64155066D01*
X115870487Y-64323677D01*
X115870486Y-64323679D01*
X115851954Y-64500000D01*
X107705954Y-64500000D01*
X107704523Y-64494100D01*
X107720996Y-64438000D01*
X107774727Y-64344934D01*
X107774728Y-64344933D01*
X107781634Y-64323679D01*
X107829514Y-64176319D01*
X107848046Y-64000000D01*
X107829514Y-63823681D01*
X107774729Y-63655069D01*
X107774728Y-63655068D01*
X107774728Y-63655066D01*
X107774727Y-63655065D01*
X107704873Y-63534075D01*
X107686084Y-63501531D01*
X107632677Y-63442217D01*
X107567456Y-63369780D01*
X107448879Y-63283630D01*
X107424023Y-63265571D01*
X107424021Y-63265570D01*
X107424022Y-63265570D01*
X107262066Y-63193461D01*
X107262058Y-63193459D01*
X107088645Y-63156600D01*
X106911355Y-63156600D01*
X106737941Y-63193459D01*
X106737933Y-63193461D01*
X106575978Y-63265570D01*
X106432543Y-63369780D01*
X106313915Y-63501532D01*
X106225272Y-63655065D01*
X106225271Y-63655066D01*
X106170487Y-63823677D01*
X106170486Y-63823679D01*
X106151954Y-64000000D01*
X104184705Y-64000000D01*
X104125436Y-63934174D01*
X104067456Y-63869780D01*
X103981055Y-63807007D01*
X103924023Y-63765571D01*
X103924021Y-63765570D01*
X103924022Y-63765570D01*
X103762066Y-63693461D01*
X103762058Y-63693459D01*
X103588645Y-63656600D01*
X103411355Y-63656600D01*
X103237941Y-63693459D01*
X103237933Y-63693461D01*
X103075978Y-63765570D01*
X102932543Y-63869780D01*
X102813915Y-64001532D01*
X102725272Y-64155065D01*
X102725271Y-64155066D01*
X102670487Y-64323677D01*
X102670486Y-64323679D01*
X102651954Y-64500000D01*
X101918638Y-64500000D01*
X101923587Y-64488717D01*
X101984612Y-64247738D01*
X101984614Y-64247729D01*
X102005141Y-64000005D01*
X102005141Y-63999994D01*
X101984614Y-63752270D01*
X101984612Y-63752261D01*
X101923587Y-63511282D01*
X101823731Y-63283630D01*
X101723434Y-63130116D01*
X100982962Y-63870589D01*
X100965925Y-63807007D01*
X100900099Y-63692993D01*
X100807007Y-63599901D01*
X100692993Y-63534075D01*
X100629410Y-63517037D01*
X101370057Y-62776390D01*
X101370056Y-62776389D01*
X101323229Y-62739943D01*
X101104614Y-62621635D01*
X101104603Y-62621630D01*
X100869493Y-62540916D01*
X100714184Y-62515000D01*
X137001954Y-62515000D01*
X137020486Y-62691320D01*
X137020487Y-62691322D01*
X137075271Y-62859933D01*
X137075272Y-62859934D01*
X137148450Y-62986682D01*
X137163916Y-63013469D01*
X137211414Y-63066221D01*
X137282543Y-63145219D01*
X137282546Y-63145221D01*
X137425977Y-63249429D01*
X137587933Y-63321538D01*
X137587936Y-63321538D01*
X137587939Y-63321540D01*
X137761355Y-63358400D01*
X137938645Y-63358400D01*
X138112061Y-63321540D01*
X138112064Y-63321538D01*
X138112066Y-63321538D01*
X138144869Y-63306932D01*
X138274023Y-63249429D01*
X138417454Y-63145221D01*
X138536084Y-63013469D01*
X138624729Y-62859931D01*
X138679514Y-62691319D01*
X138698046Y-62515000D01*
X138679514Y-62338681D01*
X138624729Y-62170069D01*
X138624728Y-62170068D01*
X138624728Y-62170066D01*
X138624727Y-62170065D01*
X138593798Y-62116495D01*
X138536084Y-62016531D01*
X138482677Y-61957217D01*
X138417456Y-61884780D01*
X138345738Y-61832675D01*
X138274023Y-61780571D01*
X138274021Y-61780570D01*
X138274022Y-61780570D01*
X138112066Y-61708461D01*
X138112058Y-61708459D01*
X137938645Y-61671600D01*
X137761355Y-61671600D01*
X137587941Y-61708459D01*
X137587933Y-61708461D01*
X137425978Y-61780570D01*
X137282543Y-61884780D01*
X137163915Y-62016532D01*
X137075272Y-62170065D01*
X137075271Y-62170066D01*
X137020487Y-62338677D01*
X137020486Y-62338679D01*
X137001954Y-62515000D01*
X100714184Y-62515000D01*
X100624293Y-62500000D01*
X100375707Y-62500000D01*
X100130506Y-62540916D01*
X99895396Y-62621630D01*
X99895390Y-62621632D01*
X99676761Y-62739949D01*
X99629942Y-62776388D01*
X99629942Y-62776390D01*
X100370590Y-63517037D01*
X100307007Y-63534075D01*
X100192993Y-63599901D01*
X100099901Y-63692993D01*
X100034075Y-63807007D01*
X100017037Y-63870589D01*
X99276564Y-63130116D01*
X99176267Y-63283632D01*
X99076412Y-63511282D01*
X99015387Y-63752261D01*
X99015385Y-63752270D01*
X98994859Y-63999994D01*
X98994859Y-64000005D01*
X99015385Y-64247729D01*
X99015387Y-64247738D01*
X99076412Y-64488717D01*
X99176266Y-64716364D01*
X99276564Y-64869882D01*
X100017037Y-64129409D01*
X100034075Y-64192993D01*
X100099901Y-64307007D01*
X100192993Y-64400099D01*
X100307007Y-64465925D01*
X100370590Y-64482962D01*
X99629942Y-65223609D01*
X99676768Y-65260055D01*
X99676770Y-65260056D01*
X99895385Y-65378364D01*
X99895396Y-65378369D01*
X99907294Y-65382454D01*
X99964309Y-65422839D01*
X99990440Y-65487639D01*
X99977389Y-65556279D01*
X99929300Y-65606967D01*
X99907296Y-65617016D01*
X99895191Y-65621171D01*
X99895188Y-65621172D01*
X99676493Y-65739524D01*
X99480257Y-65892261D01*
X99311833Y-66075217D01*
X99175826Y-66283393D01*
X99075936Y-66511118D01*
X99014892Y-66752175D01*
X99014890Y-66752187D01*
X98994357Y-66999994D01*
X98100500Y-66999994D01*
X98100500Y-61000000D01*
X102551954Y-61000000D01*
X102570486Y-61176320D01*
X102570487Y-61176322D01*
X102625271Y-61344933D01*
X102625272Y-61344934D01*
X102698450Y-61471682D01*
X102713916Y-61498469D01*
X102715293Y-61499998D01*
X102832543Y-61630219D01*
X102832546Y-61630221D01*
X102975977Y-61734429D01*
X103137933Y-61806538D01*
X103137936Y-61806538D01*
X103137939Y-61806540D01*
X103311355Y-61843400D01*
X103488645Y-61843400D01*
X103662061Y-61806540D01*
X103662064Y-61806538D01*
X103662066Y-61806538D01*
X103694869Y-61791932D01*
X103824023Y-61734429D01*
X103967454Y-61630221D01*
X104084705Y-61500000D01*
X105651954Y-61500000D01*
X105670486Y-61676320D01*
X105670487Y-61676322D01*
X105725271Y-61844933D01*
X105725272Y-61844934D01*
X105798450Y-61971682D01*
X105813916Y-61998469D01*
X105861414Y-62051221D01*
X105932543Y-62130219D01*
X105932546Y-62130221D01*
X106075977Y-62234429D01*
X106237933Y-62306538D01*
X106237936Y-62306538D01*
X106237939Y-62306540D01*
X106411355Y-62343400D01*
X106588645Y-62343400D01*
X106762061Y-62306540D01*
X106762064Y-62306538D01*
X106762066Y-62306538D01*
X106794869Y-62291932D01*
X106924023Y-62234429D01*
X107067454Y-62130221D01*
X107186084Y-61998469D01*
X107274729Y-61844931D01*
X107329514Y-61676319D01*
X107348046Y-61500000D01*
X107345982Y-61480360D01*
X107358552Y-61411630D01*
X107406285Y-61360607D01*
X107469303Y-61343400D01*
X107588645Y-61343400D01*
X107762061Y-61306540D01*
X107762064Y-61306538D01*
X107762066Y-61306538D01*
X107794869Y-61291932D01*
X107924023Y-61234429D01*
X108067454Y-61130221D01*
X108186084Y-60998469D01*
X108242935Y-60900000D01*
X113751954Y-60900000D01*
X113770486Y-61076320D01*
X113770487Y-61076322D01*
X113825271Y-61244933D01*
X113825272Y-61244934D01*
X113892056Y-61360607D01*
X113913916Y-61398469D01*
X113961414Y-61451221D01*
X114032543Y-61530219D01*
X114032546Y-61530221D01*
X114175977Y-61634429D01*
X114337933Y-61706538D01*
X114337936Y-61706538D01*
X114337939Y-61706540D01*
X114511355Y-61743400D01*
X114688645Y-61743400D01*
X114862061Y-61706540D01*
X114862064Y-61706538D01*
X114862066Y-61706538D01*
X114894869Y-61691932D01*
X115024023Y-61634429D01*
X115167454Y-61530221D01*
X115194665Y-61500000D01*
X115651954Y-61500000D01*
X115670486Y-61676320D01*
X115670487Y-61676322D01*
X115725271Y-61844933D01*
X115725272Y-61844934D01*
X115798450Y-61971682D01*
X115813916Y-61998469D01*
X115861414Y-62051221D01*
X115932543Y-62130219D01*
X115932546Y-62130221D01*
X116075977Y-62234429D01*
X116237933Y-62306538D01*
X116237936Y-62306538D01*
X116237939Y-62306540D01*
X116411355Y-62343400D01*
X116588645Y-62343400D01*
X116762061Y-62306540D01*
X116762064Y-62306538D01*
X116762066Y-62306538D01*
X116794869Y-62291932D01*
X116924023Y-62234429D01*
X117067454Y-62130221D01*
X117186084Y-61998469D01*
X117274729Y-61844931D01*
X117329514Y-61676319D01*
X117348046Y-61500000D01*
X117329514Y-61323681D01*
X117274729Y-61155069D01*
X117274728Y-61155068D01*
X117274728Y-61155066D01*
X117274727Y-61155065D01*
X117243798Y-61101495D01*
X117186084Y-61001531D01*
X117130256Y-60939528D01*
X117067456Y-60869780D01*
X116995738Y-60817675D01*
X116924023Y-60765571D01*
X116924021Y-60765570D01*
X116924022Y-60765570D01*
X116762066Y-60693461D01*
X116762058Y-60693459D01*
X116588645Y-60656600D01*
X116411355Y-60656600D01*
X116237941Y-60693459D01*
X116237933Y-60693461D01*
X116075978Y-60765570D01*
X115932543Y-60869780D01*
X115813915Y-61001532D01*
X115725272Y-61155065D01*
X115725271Y-61155066D01*
X115670487Y-61323677D01*
X115670486Y-61323679D01*
X115651954Y-61500000D01*
X115194665Y-61500000D01*
X115286084Y-61398469D01*
X115374729Y-61244931D01*
X115429514Y-61076319D01*
X115448046Y-60900000D01*
X115429514Y-60723681D01*
X115374729Y-60555069D01*
X115374728Y-60555068D01*
X115374728Y-60555066D01*
X115374727Y-60555065D01*
X115342935Y-60500000D01*
X118151954Y-60500000D01*
X118170486Y-60676320D01*
X118170487Y-60676322D01*
X118225271Y-60844933D01*
X118225272Y-60844934D01*
X118257065Y-60900000D01*
X118313916Y-60998469D01*
X118361414Y-61051221D01*
X118432543Y-61130219D01*
X118432546Y-61130221D01*
X118575977Y-61234429D01*
X118737933Y-61306538D01*
X118737936Y-61306538D01*
X118737939Y-61306540D01*
X118911355Y-61343400D01*
X119088645Y-61343400D01*
X119262061Y-61306540D01*
X119262064Y-61306538D01*
X119262066Y-61306538D01*
X119294869Y-61291932D01*
X119424023Y-61234429D01*
X119567454Y-61130221D01*
X119686084Y-60998469D01*
X119774729Y-60844931D01*
X119829514Y-60676319D01*
X119848046Y-60500000D01*
X119829514Y-60323681D01*
X119774729Y-60155069D01*
X119774728Y-60155068D01*
X119774728Y-60155066D01*
X119774727Y-60155065D01*
X119739159Y-60093460D01*
X119686084Y-60001531D01*
X119606791Y-59913467D01*
X119567456Y-59869780D01*
X119495738Y-59817675D01*
X119424023Y-59765571D01*
X119424021Y-59765570D01*
X119424022Y-59765570D01*
X119262066Y-59693461D01*
X119262058Y-59693459D01*
X119088645Y-59656600D01*
X118911355Y-59656600D01*
X118737941Y-59693459D01*
X118737933Y-59693461D01*
X118575978Y-59765570D01*
X118432543Y-59869780D01*
X118313915Y-60001532D01*
X118225272Y-60155065D01*
X118225271Y-60155066D01*
X118170487Y-60323677D01*
X118170486Y-60323679D01*
X118151954Y-60500000D01*
X115342935Y-60500000D01*
X115286084Y-60401531D01*
X115215984Y-60323677D01*
X115167456Y-60269780D01*
X115070429Y-60199287D01*
X115024023Y-60165571D01*
X115024021Y-60165570D01*
X115024022Y-60165570D01*
X114862066Y-60093461D01*
X114862058Y-60093459D01*
X114688645Y-60056600D01*
X114511355Y-60056600D01*
X114337941Y-60093459D01*
X114337933Y-60093461D01*
X114175978Y-60165570D01*
X114032543Y-60269780D01*
X113913915Y-60401532D01*
X113825272Y-60555065D01*
X113825271Y-60555066D01*
X113770487Y-60723677D01*
X113770486Y-60723679D01*
X113751954Y-60900000D01*
X108242935Y-60900000D01*
X108274729Y-60844931D01*
X108329514Y-60676319D01*
X108348046Y-60500000D01*
X108329514Y-60323681D01*
X108274729Y-60155069D01*
X108274728Y-60155068D01*
X108274728Y-60155066D01*
X108274727Y-60155065D01*
X108239159Y-60093460D01*
X108186084Y-60001531D01*
X108106791Y-59913467D01*
X108067456Y-59869780D01*
X107995738Y-59817675D01*
X107924023Y-59765571D01*
X107924021Y-59765570D01*
X107924022Y-59765570D01*
X107762066Y-59693461D01*
X107762058Y-59693459D01*
X107588645Y-59656600D01*
X107411355Y-59656600D01*
X107237941Y-59693459D01*
X107237933Y-59693461D01*
X107075978Y-59765570D01*
X106932543Y-59869780D01*
X106813915Y-60001532D01*
X106725272Y-60155065D01*
X106725271Y-60155066D01*
X106670487Y-60323677D01*
X106670486Y-60323679D01*
X106651954Y-60500001D01*
X106654018Y-60519640D01*
X106641448Y-60588370D01*
X106593715Y-60639393D01*
X106530697Y-60656600D01*
X106411355Y-60656600D01*
X106237941Y-60693459D01*
X106237933Y-60693461D01*
X106075978Y-60765570D01*
X105932543Y-60869780D01*
X105813915Y-61001532D01*
X105725272Y-61155065D01*
X105725271Y-61155066D01*
X105670487Y-61323677D01*
X105670486Y-61323679D01*
X105651954Y-61500000D01*
X104084705Y-61500000D01*
X104086084Y-61498469D01*
X104174729Y-61344931D01*
X104229514Y-61176319D01*
X104248046Y-61000000D01*
X104229514Y-60823681D01*
X104174729Y-60655069D01*
X104174728Y-60655068D01*
X104174728Y-60655066D01*
X104174727Y-60655065D01*
X104096539Y-60519640D01*
X104086084Y-60501531D01*
X103996044Y-60401531D01*
X103967456Y-60369780D01*
X103829816Y-60269780D01*
X103824023Y-60265571D01*
X103824021Y-60265570D01*
X103824022Y-60265570D01*
X103662066Y-60193461D01*
X103662058Y-60193459D01*
X103488645Y-60156600D01*
X103311355Y-60156600D01*
X103137941Y-60193459D01*
X103137933Y-60193461D01*
X102975978Y-60265570D01*
X102832543Y-60369780D01*
X102713915Y-60501532D01*
X102625272Y-60655065D01*
X102625271Y-60655066D01*
X102570487Y-60823677D01*
X102570486Y-60823679D01*
X102551954Y-61000000D01*
X98100500Y-61000000D01*
X98100500Y-59415000D01*
X130101954Y-59415000D01*
X130120486Y-59591320D01*
X130120487Y-59591322D01*
X130175271Y-59759933D01*
X130175272Y-59759934D01*
X130178527Y-59765571D01*
X130263916Y-59913469D01*
X130311414Y-59966221D01*
X130382543Y-60045219D01*
X130382546Y-60045221D01*
X130525977Y-60149429D01*
X130637958Y-60199287D01*
X130687939Y-60221540D01*
X130819428Y-60249488D01*
X130880906Y-60282679D01*
X130914683Y-60343841D01*
X130916963Y-60357806D01*
X130920486Y-60391319D01*
X130920487Y-60391322D01*
X130975271Y-60559933D01*
X130975272Y-60559934D01*
X131030197Y-60655066D01*
X131063916Y-60713469D01*
X131110828Y-60765570D01*
X131182543Y-60845219D01*
X131182546Y-60845221D01*
X131325977Y-60949429D01*
X131487933Y-61021538D01*
X131487936Y-61021538D01*
X131487939Y-61021540D01*
X131661355Y-61058400D01*
X131838645Y-61058400D01*
X132012061Y-61021540D01*
X132012064Y-61021538D01*
X132012066Y-61021538D01*
X132077257Y-60992512D01*
X132174023Y-60949429D01*
X132177114Y-60947182D01*
X132179210Y-60946435D01*
X132179652Y-60946180D01*
X132179698Y-60946260D01*
X132242920Y-60923703D01*
X132310974Y-60939528D01*
X132322883Y-60947181D01*
X132325977Y-60949429D01*
X132325978Y-60949429D01*
X132325979Y-60949430D01*
X132487933Y-61021538D01*
X132487936Y-61021538D01*
X132487939Y-61021540D01*
X132661355Y-61058400D01*
X132838645Y-61058400D01*
X133012061Y-61021540D01*
X133012064Y-61021538D01*
X133012066Y-61021538D01*
X133060440Y-61000000D01*
X133174023Y-60949429D01*
X133317454Y-60845221D01*
X133317713Y-60844934D01*
X133336852Y-60823677D01*
X133436084Y-60713469D01*
X133524729Y-60559931D01*
X133579514Y-60391319D01*
X133589153Y-60299602D01*
X133615736Y-60234992D01*
X133662033Y-60199290D01*
X133774023Y-60149429D01*
X133917454Y-60045221D01*
X134036084Y-59913469D01*
X134124729Y-59759931D01*
X134179514Y-59591319D01*
X134198046Y-59415000D01*
X134179514Y-59238681D01*
X134124729Y-59070069D01*
X134124728Y-59070068D01*
X134124728Y-59070066D01*
X134124727Y-59070065D01*
X134092050Y-59013467D01*
X134036084Y-58916531D01*
X133982677Y-58857217D01*
X133917456Y-58784780D01*
X133845738Y-58732675D01*
X133774023Y-58680571D01*
X133774021Y-58680570D01*
X133774022Y-58680570D01*
X133612066Y-58608461D01*
X133612058Y-58608459D01*
X133438645Y-58571600D01*
X133261355Y-58571600D01*
X133087941Y-58608459D01*
X133087933Y-58608461D01*
X132925978Y-58680570D01*
X132822885Y-58755471D01*
X132757078Y-58778950D01*
X132689024Y-58763124D01*
X132677115Y-58755471D01*
X132645125Y-58732229D01*
X132574023Y-58680571D01*
X132574021Y-58680570D01*
X132574022Y-58680570D01*
X132412066Y-58608461D01*
X132412058Y-58608459D01*
X132238645Y-58571600D01*
X132061355Y-58571600D01*
X131887941Y-58608459D01*
X131887933Y-58608461D01*
X131725978Y-58680570D01*
X131622885Y-58755471D01*
X131557078Y-58778950D01*
X131489024Y-58763124D01*
X131477115Y-58755471D01*
X131445125Y-58732229D01*
X131374023Y-58680571D01*
X131374021Y-58680570D01*
X131374022Y-58680570D01*
X131212066Y-58608461D01*
X131212058Y-58608459D01*
X131038645Y-58571600D01*
X130861355Y-58571600D01*
X130687941Y-58608459D01*
X130687933Y-58608461D01*
X130525978Y-58680570D01*
X130382543Y-58784780D01*
X130263915Y-58916532D01*
X130175272Y-59070065D01*
X130175271Y-59070066D01*
X130120487Y-59238677D01*
X130120486Y-59238679D01*
X130101954Y-59415000D01*
X98100500Y-59415000D01*
X98100500Y-58515000D01*
X136501954Y-58515000D01*
X136520486Y-58691320D01*
X136520487Y-58691322D01*
X136575271Y-58859933D01*
X136575272Y-58859934D01*
X136648450Y-58986682D01*
X136663916Y-59013469D01*
X136711414Y-59066221D01*
X136782543Y-59145219D01*
X136782546Y-59145221D01*
X136925977Y-59249429D01*
X137087933Y-59321538D01*
X137087936Y-59321538D01*
X137087939Y-59321540D01*
X137261355Y-59358400D01*
X137438645Y-59358400D01*
X137612061Y-59321540D01*
X137612064Y-59321538D01*
X137612066Y-59321538D01*
X137644869Y-59306932D01*
X137774023Y-59249429D01*
X137917454Y-59145221D01*
X138036084Y-59013469D01*
X138124729Y-58859931D01*
X138179514Y-58691319D01*
X138198046Y-58515000D01*
X138179514Y-58338681D01*
X138124729Y-58170069D01*
X138124728Y-58170068D01*
X138124728Y-58170066D01*
X138124727Y-58170065D01*
X138093798Y-58116495D01*
X138036084Y-58016531D01*
X137982677Y-57957217D01*
X137917456Y-57884780D01*
X137845738Y-57832675D01*
X137774023Y-57780571D01*
X137774021Y-57780570D01*
X137774022Y-57780570D01*
X137612066Y-57708461D01*
X137612058Y-57708459D01*
X137438645Y-57671600D01*
X137261355Y-57671600D01*
X137087941Y-57708459D01*
X137087933Y-57708461D01*
X136925978Y-57780570D01*
X136782543Y-57884780D01*
X136663915Y-58016532D01*
X136575272Y-58170065D01*
X136575271Y-58170066D01*
X136520487Y-58338677D01*
X136520486Y-58338679D01*
X136501954Y-58515000D01*
X98100500Y-58515000D01*
X98100500Y-56800000D01*
X105751954Y-56800000D01*
X105770486Y-56976320D01*
X105770487Y-56976322D01*
X105825271Y-57144933D01*
X105825272Y-57144934D01*
X105898450Y-57271682D01*
X105913916Y-57298469D01*
X105961414Y-57351221D01*
X106032543Y-57430219D01*
X106032546Y-57430221D01*
X106175977Y-57534429D01*
X106337933Y-57606538D01*
X106337936Y-57606538D01*
X106337939Y-57606540D01*
X106511355Y-57643400D01*
X106688645Y-57643400D01*
X106862061Y-57606540D01*
X106862064Y-57606538D01*
X106862066Y-57606538D01*
X106894869Y-57591932D01*
X107024023Y-57534429D01*
X107167454Y-57430221D01*
X107286084Y-57298469D01*
X107374729Y-57144931D01*
X107429514Y-56976319D01*
X107448046Y-56800000D01*
X107429514Y-56623681D01*
X107374729Y-56455069D01*
X107374728Y-56455068D01*
X107374728Y-56455066D01*
X107374727Y-56455065D01*
X107343798Y-56401495D01*
X107286084Y-56301531D01*
X107232677Y-56242217D01*
X107167456Y-56169780D01*
X107095738Y-56117675D01*
X107024023Y-56065571D01*
X107024021Y-56065570D01*
X107024022Y-56065570D01*
X106862066Y-55993461D01*
X106862058Y-55993459D01*
X106688645Y-55956600D01*
X106511355Y-55956600D01*
X106337941Y-55993459D01*
X106337933Y-55993461D01*
X106175978Y-56065570D01*
X106032543Y-56169780D01*
X105913915Y-56301532D01*
X105825272Y-56455065D01*
X105825271Y-56455066D01*
X105770487Y-56623677D01*
X105770486Y-56623679D01*
X105751954Y-56800000D01*
X98100500Y-56800000D01*
X98100500Y-54500000D01*
X128651954Y-54500000D01*
X128670486Y-54676320D01*
X128670487Y-54676322D01*
X128725271Y-54844933D01*
X128725272Y-54844934D01*
X128798450Y-54971682D01*
X128813916Y-54998469D01*
X128861414Y-55051221D01*
X128932543Y-55130219D01*
X128932546Y-55130221D01*
X129075977Y-55234429D01*
X129237933Y-55306538D01*
X129237936Y-55306538D01*
X129237939Y-55306540D01*
X129411355Y-55343400D01*
X129588645Y-55343400D01*
X129762061Y-55306540D01*
X129762064Y-55306538D01*
X129762066Y-55306538D01*
X129794869Y-55291932D01*
X129924023Y-55234429D01*
X130067454Y-55130221D01*
X130186084Y-54998469D01*
X130274729Y-54844931D01*
X130329514Y-54676319D01*
X130348046Y-54500000D01*
X130329514Y-54323681D01*
X130274729Y-54155069D01*
X130274728Y-54155068D01*
X130274728Y-54155066D01*
X130274727Y-54155065D01*
X130243798Y-54101495D01*
X130186084Y-54001531D01*
X130132677Y-53942217D01*
X130067456Y-53869780D01*
X129995738Y-53817675D01*
X129924023Y-53765571D01*
X129924021Y-53765570D01*
X129924022Y-53765570D01*
X129762066Y-53693461D01*
X129762058Y-53693459D01*
X129588645Y-53656600D01*
X129411355Y-53656600D01*
X129237941Y-53693459D01*
X129237933Y-53693461D01*
X129075978Y-53765570D01*
X128932543Y-53869780D01*
X128813915Y-54001532D01*
X128725272Y-54155065D01*
X128725271Y-54155066D01*
X128670487Y-54323677D01*
X128670486Y-54323679D01*
X128651954Y-54500000D01*
X98100500Y-54500000D01*
X98100500Y-52500000D01*
X130151954Y-52500000D01*
X130170486Y-52676320D01*
X130170487Y-52676322D01*
X130225271Y-52844933D01*
X130225272Y-52844934D01*
X130248549Y-52885250D01*
X130313916Y-52998469D01*
X130361414Y-53051221D01*
X130432543Y-53130219D01*
X130432546Y-53130221D01*
X130575977Y-53234429D01*
X130737933Y-53306538D01*
X130737936Y-53306538D01*
X130737939Y-53306540D01*
X130911355Y-53343400D01*
X131088645Y-53343400D01*
X131262061Y-53306540D01*
X131262064Y-53306538D01*
X131262066Y-53306538D01*
X131294869Y-53291932D01*
X131424023Y-53234429D01*
X131567454Y-53130221D01*
X131686084Y-52998469D01*
X131774729Y-52844931D01*
X131821820Y-52700000D01*
X133050428Y-52700000D01*
X133068673Y-52885250D01*
X133122711Y-53063389D01*
X133210458Y-53227552D01*
X133210460Y-53227554D01*
X133328550Y-53371449D01*
X133472445Y-53489539D01*
X133472447Y-53489541D01*
X133636610Y-53577288D01*
X133636612Y-53577288D01*
X133636615Y-53577290D01*
X133814748Y-53631326D01*
X133814747Y-53631326D01*
X133831357Y-53632961D01*
X134000000Y-53649572D01*
X134185252Y-53631326D01*
X134363385Y-53577290D01*
X134527554Y-53489540D01*
X134671449Y-53371449D01*
X134789540Y-53227554D01*
X134818790Y-53172831D01*
X134877288Y-53063389D01*
X134877288Y-53063388D01*
X134877290Y-53063385D01*
X134931326Y-52885252D01*
X134949572Y-52700000D01*
X134931326Y-52514748D01*
X134877290Y-52336615D01*
X134877288Y-52336612D01*
X134877288Y-52336610D01*
X134789541Y-52172447D01*
X134789539Y-52172445D01*
X134671449Y-52028550D01*
X134527554Y-51910460D01*
X134527552Y-51910458D01*
X134363389Y-51822711D01*
X134233774Y-51783393D01*
X134185252Y-51768674D01*
X134185250Y-51768673D01*
X134185252Y-51768673D01*
X134000000Y-51750428D01*
X133814749Y-51768673D01*
X133636610Y-51822711D01*
X133472447Y-51910458D01*
X133472445Y-51910460D01*
X133328550Y-52028550D01*
X133210460Y-52172445D01*
X133210458Y-52172447D01*
X133122711Y-52336610D01*
X133068673Y-52514749D01*
X133050428Y-52700000D01*
X131821820Y-52700000D01*
X131829514Y-52676319D01*
X131848046Y-52500000D01*
X131829514Y-52323681D01*
X131774729Y-52155069D01*
X131774728Y-52155068D01*
X131774728Y-52155066D01*
X131774727Y-52155065D01*
X131701683Y-52028550D01*
X131686084Y-52001531D01*
X131632677Y-51942217D01*
X131567456Y-51869780D01*
X131448553Y-51783393D01*
X131424023Y-51765571D01*
X131424021Y-51765570D01*
X131424022Y-51765570D01*
X131262066Y-51693461D01*
X131262058Y-51693459D01*
X131088645Y-51656600D01*
X130911355Y-51656600D01*
X130737941Y-51693459D01*
X130737933Y-51693461D01*
X130575978Y-51765570D01*
X130432543Y-51869780D01*
X130313915Y-52001532D01*
X130225272Y-52155065D01*
X130225271Y-52155066D01*
X130170487Y-52323677D01*
X130170486Y-52323679D01*
X130151954Y-52500000D01*
X98100500Y-52500000D01*
X98100500Y-50500000D01*
X105751954Y-50500000D01*
X105770486Y-50676320D01*
X105770487Y-50676322D01*
X105825271Y-50844933D01*
X105825272Y-50844934D01*
X105870405Y-50923106D01*
X105913916Y-50998469D01*
X105915295Y-51000000D01*
X106032543Y-51130219D01*
X106032546Y-51130221D01*
X106175977Y-51234429D01*
X106337933Y-51306538D01*
X106337936Y-51306538D01*
X106337939Y-51306540D01*
X106511355Y-51343400D01*
X106688645Y-51343400D01*
X106862061Y-51306540D01*
X106862064Y-51306538D01*
X106862066Y-51306538D01*
X106894869Y-51291932D01*
X107024023Y-51234429D01*
X107167454Y-51130221D01*
X107175605Y-51121169D01*
X107188152Y-51107233D01*
X107286084Y-50998469D01*
X107374729Y-50844931D01*
X107429514Y-50676319D01*
X107448046Y-50500000D01*
X107429514Y-50323681D01*
X107374729Y-50155069D01*
X107374728Y-50155068D01*
X107374728Y-50155066D01*
X107374727Y-50155065D01*
X107343798Y-50101495D01*
X107286084Y-50001531D01*
X107232677Y-49942217D01*
X107167456Y-49869780D01*
X107095738Y-49817675D01*
X107024023Y-49765571D01*
X107024021Y-49765570D01*
X107024022Y-49765570D01*
X106862066Y-49693461D01*
X106862058Y-49693459D01*
X106688645Y-49656600D01*
X106511355Y-49656600D01*
X106337941Y-49693459D01*
X106337933Y-49693461D01*
X106175978Y-49765570D01*
X106032543Y-49869780D01*
X105913915Y-50001532D01*
X105825272Y-50155065D01*
X105825271Y-50155066D01*
X105770487Y-50323677D01*
X105770486Y-50323679D01*
X105751954Y-50500000D01*
X98100500Y-50500000D01*
X98100500Y-42499994D01*
X98994357Y-42499994D01*
X98994357Y-42500005D01*
X99014890Y-42747812D01*
X99014892Y-42747824D01*
X99075936Y-42988881D01*
X99175826Y-43216606D01*
X99311833Y-43424782D01*
X99311836Y-43424785D01*
X99480256Y-43607738D01*
X99676491Y-43760474D01*
X99895190Y-43878828D01*
X99905682Y-43882430D01*
X99906524Y-43882719D01*
X99963539Y-43923106D01*
X99989668Y-43987906D01*
X99976615Y-44056546D01*
X99928526Y-44107233D01*
X99906524Y-44117281D01*
X99895191Y-44121171D01*
X99895188Y-44121172D01*
X99676493Y-44239524D01*
X99480257Y-44392261D01*
X99311833Y-44575217D01*
X99175826Y-44783393D01*
X99075936Y-45011118D01*
X99014892Y-45252175D01*
X99014890Y-45252187D01*
X98994357Y-45499994D01*
X98994357Y-45500005D01*
X99014890Y-45747812D01*
X99014892Y-45747824D01*
X99075936Y-45988881D01*
X99175826Y-46216606D01*
X99311833Y-46424782D01*
X99311836Y-46424785D01*
X99480256Y-46607738D01*
X99676491Y-46760474D01*
X99895190Y-46878828D01*
X99905682Y-46882430D01*
X99906524Y-46882719D01*
X99963539Y-46923106D01*
X99989668Y-46987906D01*
X99976615Y-47056546D01*
X99928526Y-47107233D01*
X99906524Y-47117281D01*
X99895191Y-47121171D01*
X99895188Y-47121172D01*
X99676493Y-47239524D01*
X99480257Y-47392261D01*
X99311833Y-47575217D01*
X99175826Y-47783393D01*
X99075936Y-48011118D01*
X99014892Y-48252175D01*
X99014890Y-48252187D01*
X98994357Y-48499994D01*
X98994357Y-48500005D01*
X99014890Y-48747812D01*
X99014892Y-48747824D01*
X99075936Y-48988881D01*
X99175826Y-49216606D01*
X99311833Y-49424782D01*
X99311836Y-49424785D01*
X99480256Y-49607738D01*
X99676491Y-49760474D01*
X99895190Y-49878828D01*
X100130386Y-49959571D01*
X100375665Y-50000500D01*
X100624335Y-50000500D01*
X100869614Y-49959571D01*
X101104810Y-49878828D01*
X101323509Y-49760474D01*
X101519744Y-49607738D01*
X101688164Y-49424785D01*
X101824173Y-49216607D01*
X101924063Y-48988881D01*
X101985108Y-48747821D01*
X101995867Y-48617979D01*
X102005643Y-48500005D01*
X102005643Y-48499994D01*
X101997357Y-48399999D01*
X103345225Y-48399999D01*
X103345225Y-48400000D01*
X103364287Y-48617884D01*
X103364289Y-48617894D01*
X103420894Y-48829150D01*
X103420898Y-48829159D01*
X103513333Y-49027387D01*
X103556874Y-49089571D01*
X104117037Y-48529408D01*
X104134075Y-48592993D01*
X104199901Y-48707007D01*
X104292993Y-48800099D01*
X104407007Y-48865925D01*
X104470590Y-48882962D01*
X103910427Y-49443124D01*
X103972612Y-49486666D01*
X104170840Y-49579101D01*
X104170849Y-49579105D01*
X104382105Y-49635710D01*
X104382115Y-49635712D01*
X104599999Y-49654775D01*
X104600001Y-49654775D01*
X104817884Y-49635712D01*
X104817894Y-49635710D01*
X105029150Y-49579105D01*
X105029164Y-49579100D01*
X105227383Y-49486669D01*
X105227385Y-49486668D01*
X105289571Y-49443124D01*
X104729410Y-48882962D01*
X104792993Y-48865925D01*
X104907007Y-48800099D01*
X105000099Y-48707007D01*
X105065925Y-48592993D01*
X105082962Y-48529409D01*
X105643124Y-49089570D01*
X105686668Y-49027385D01*
X105686669Y-49027383D01*
X105779100Y-48829164D01*
X105779105Y-48829150D01*
X105835710Y-48617894D01*
X105835712Y-48617884D01*
X105854775Y-48400000D01*
X105854775Y-48399999D01*
X105854775Y-48399997D01*
X107844723Y-48399997D01*
X107844723Y-48400002D01*
X107863793Y-48617975D01*
X107863793Y-48617979D01*
X107920422Y-48829322D01*
X107920424Y-48829326D01*
X107920425Y-48829330D01*
X107937490Y-48865925D01*
X108012897Y-49027638D01*
X108012898Y-49027639D01*
X108138402Y-49206877D01*
X108293123Y-49361598D01*
X108472361Y-49487102D01*
X108670670Y-49579575D01*
X108882023Y-49636207D01*
X109064926Y-49652208D01*
X109099998Y-49655277D01*
X109100000Y-49655277D01*
X109100002Y-49655277D01*
X109128254Y-49652805D01*
X109317977Y-49636207D01*
X109529330Y-49579575D01*
X109727639Y-49487102D01*
X109906877Y-49361598D01*
X110061598Y-49206877D01*
X110187102Y-49027639D01*
X110279575Y-48829330D01*
X110336207Y-48617977D01*
X110355277Y-48400000D01*
X110336207Y-48182023D01*
X110287434Y-48000000D01*
X110279577Y-47970677D01*
X110279576Y-47970676D01*
X110279575Y-47970670D01*
X110187102Y-47772362D01*
X110187100Y-47772359D01*
X110187099Y-47772357D01*
X110061599Y-47593124D01*
X110043690Y-47575215D01*
X109906877Y-47438402D01*
X109768978Y-47341844D01*
X109727638Y-47312897D01*
X109570292Y-47239526D01*
X109529330Y-47220425D01*
X109529326Y-47220424D01*
X109529322Y-47220422D01*
X109317977Y-47163793D01*
X109100002Y-47144723D01*
X109099998Y-47144723D01*
X108954682Y-47157436D01*
X108882023Y-47163793D01*
X108882020Y-47163793D01*
X108670677Y-47220422D01*
X108670668Y-47220426D01*
X108472361Y-47312898D01*
X108472357Y-47312900D01*
X108293121Y-47438402D01*
X108138402Y-47593121D01*
X108012900Y-47772357D01*
X108012898Y-47772361D01*
X107920426Y-47970668D01*
X107920422Y-47970677D01*
X107863793Y-48182020D01*
X107863793Y-48182024D01*
X107844723Y-48399997D01*
X105854775Y-48399997D01*
X105835712Y-48182115D01*
X105835710Y-48182105D01*
X105779105Y-47970849D01*
X105779101Y-47970840D01*
X105686667Y-47772614D01*
X105686666Y-47772612D01*
X105643124Y-47710428D01*
X105643124Y-47710427D01*
X105082962Y-48270589D01*
X105065925Y-48207007D01*
X105000099Y-48092993D01*
X104907007Y-47999901D01*
X104792993Y-47934075D01*
X104729409Y-47917037D01*
X105289571Y-47356874D01*
X105227387Y-47313333D01*
X105029159Y-47220898D01*
X105029150Y-47220894D01*
X104817894Y-47164289D01*
X104817884Y-47164287D01*
X104600001Y-47145225D01*
X104599999Y-47145225D01*
X104382115Y-47164287D01*
X104382105Y-47164289D01*
X104170849Y-47220894D01*
X104170840Y-47220898D01*
X103972613Y-47313333D01*
X103910428Y-47356874D01*
X104470591Y-47917037D01*
X104407007Y-47934075D01*
X104292993Y-47999901D01*
X104199901Y-48092993D01*
X104134075Y-48207007D01*
X104117037Y-48270591D01*
X103556874Y-47710428D01*
X103513333Y-47772613D01*
X103420898Y-47970840D01*
X103420894Y-47970849D01*
X103364289Y-48182105D01*
X103364287Y-48182115D01*
X103345225Y-48399999D01*
X101997357Y-48399999D01*
X101985109Y-48252187D01*
X101985107Y-48252175D01*
X101924063Y-48011118D01*
X101824173Y-47783393D01*
X101688166Y-47575217D01*
X101666557Y-47551744D01*
X101519744Y-47392262D01*
X101323509Y-47239526D01*
X101323507Y-47239525D01*
X101323506Y-47239524D01*
X101104811Y-47121172D01*
X101104802Y-47121169D01*
X101093477Y-47117281D01*
X101036462Y-47076896D01*
X101010331Y-47012096D01*
X101023382Y-46943456D01*
X101071471Y-46892768D01*
X101093477Y-46882719D01*
X101097235Y-46881428D01*
X101104810Y-46878828D01*
X101323509Y-46760474D01*
X101519744Y-46607738D01*
X101526867Y-46600000D01*
X109951954Y-46600000D01*
X109970486Y-46776320D01*
X109970487Y-46776322D01*
X110025271Y-46944933D01*
X110025272Y-46944934D01*
X110089712Y-47056546D01*
X110113916Y-47098469D01*
X110134357Y-47121171D01*
X110232543Y-47230219D01*
X110245353Y-47239526D01*
X110375977Y-47334429D01*
X110537933Y-47406538D01*
X110537936Y-47406538D01*
X110537939Y-47406540D01*
X110711355Y-47443400D01*
X110888645Y-47443400D01*
X111062061Y-47406540D01*
X111062064Y-47406538D01*
X111062066Y-47406538D01*
X111108845Y-47385710D01*
X111224023Y-47334429D01*
X111367454Y-47230221D01*
X111375849Y-47220898D01*
X111426819Y-47164289D01*
X111486084Y-47098469D01*
X111574729Y-46944931D01*
X111629514Y-46776319D01*
X111648046Y-46600000D01*
X111629514Y-46423681D01*
X111574729Y-46255069D01*
X111574728Y-46255068D01*
X111574728Y-46255066D01*
X111574727Y-46255065D01*
X111543798Y-46201495D01*
X111514066Y-46149997D01*
X128994723Y-46149997D01*
X128994723Y-46150002D01*
X129013793Y-46367975D01*
X129013793Y-46367979D01*
X129070422Y-46579322D01*
X129070424Y-46579326D01*
X129070425Y-46579330D01*
X129080064Y-46600000D01*
X129162897Y-46777638D01*
X129162898Y-46777639D01*
X129288402Y-46956877D01*
X129443123Y-47111598D01*
X129622361Y-47237102D01*
X129820670Y-47329575D01*
X130032023Y-47386207D01*
X130214926Y-47402208D01*
X130249998Y-47405277D01*
X130250000Y-47405277D01*
X130250002Y-47405277D01*
X130278254Y-47402805D01*
X130467977Y-47386207D01*
X130679330Y-47329575D01*
X130877639Y-47237102D01*
X131056877Y-47111598D01*
X131211598Y-46956877D01*
X131337102Y-46777639D01*
X131429575Y-46579330D01*
X131486207Y-46367977D01*
X131505277Y-46150000D01*
X131505277Y-46149999D01*
X133495225Y-46149999D01*
X133495225Y-46150000D01*
X133514287Y-46367884D01*
X133514289Y-46367894D01*
X133570894Y-46579150D01*
X133570898Y-46579159D01*
X133663333Y-46777387D01*
X133706874Y-46839571D01*
X134267037Y-46279408D01*
X134284075Y-46342993D01*
X134349901Y-46457007D01*
X134442993Y-46550099D01*
X134557007Y-46615925D01*
X134620590Y-46632962D01*
X134060427Y-47193124D01*
X134122612Y-47236666D01*
X134320840Y-47329101D01*
X134320849Y-47329105D01*
X134532105Y-47385710D01*
X134532115Y-47385712D01*
X134749999Y-47404775D01*
X134750001Y-47404775D01*
X134967884Y-47385712D01*
X134967894Y-47385710D01*
X135179150Y-47329105D01*
X135179164Y-47329100D01*
X135377383Y-47236669D01*
X135377385Y-47236668D01*
X135439571Y-47193124D01*
X134879410Y-46632962D01*
X134942993Y-46615925D01*
X135057007Y-46550099D01*
X135150099Y-46457007D01*
X135215925Y-46342993D01*
X135232962Y-46279409D01*
X135793124Y-46839570D01*
X135836668Y-46777385D01*
X135836669Y-46777383D01*
X135929100Y-46579164D01*
X135929105Y-46579150D01*
X135985710Y-46367894D01*
X135985712Y-46367884D01*
X136004775Y-46150000D01*
X136004775Y-46149999D01*
X135985712Y-45932115D01*
X135985710Y-45932105D01*
X135929105Y-45720849D01*
X135929101Y-45720840D01*
X135836667Y-45522614D01*
X135836666Y-45522612D01*
X135793124Y-45460428D01*
X135793124Y-45460427D01*
X135232962Y-46020589D01*
X135215925Y-45957007D01*
X135150099Y-45842993D01*
X135057007Y-45749901D01*
X134942993Y-45684075D01*
X134879409Y-45667037D01*
X135439571Y-45106874D01*
X135377387Y-45063333D01*
X135179159Y-44970898D01*
X135179150Y-44970894D01*
X134967894Y-44914289D01*
X134967884Y-44914287D01*
X134750001Y-44895225D01*
X134749999Y-44895225D01*
X134532115Y-44914287D01*
X134532105Y-44914289D01*
X134320849Y-44970894D01*
X134320840Y-44970898D01*
X134122613Y-45063333D01*
X134060428Y-45106874D01*
X134620591Y-45667037D01*
X134557007Y-45684075D01*
X134442993Y-45749901D01*
X134349901Y-45842993D01*
X134284075Y-45957007D01*
X134267037Y-46020591D01*
X133706874Y-45460428D01*
X133663333Y-45522613D01*
X133570898Y-45720840D01*
X133570894Y-45720849D01*
X133514289Y-45932105D01*
X133514287Y-45932115D01*
X133495225Y-46149999D01*
X131505277Y-46149999D01*
X131486207Y-45932023D01*
X131446382Y-45783393D01*
X131429577Y-45720677D01*
X131429576Y-45720676D01*
X131429575Y-45720670D01*
X131337102Y-45522362D01*
X131337100Y-45522359D01*
X131337099Y-45522357D01*
X131211599Y-45343124D01*
X131211596Y-45343121D01*
X131056877Y-45188402D01*
X130897630Y-45076896D01*
X130877638Y-45062897D01*
X130768694Y-45012096D01*
X130679330Y-44970425D01*
X130679326Y-44970424D01*
X130679322Y-44970422D01*
X130467977Y-44913793D01*
X130250002Y-44894723D01*
X130249998Y-44894723D01*
X130104682Y-44907436D01*
X130032023Y-44913793D01*
X130032020Y-44913793D01*
X129820677Y-44970422D01*
X129820668Y-44970426D01*
X129622361Y-45062898D01*
X129622357Y-45062900D01*
X129443121Y-45188402D01*
X129288402Y-45343121D01*
X129162900Y-45522357D01*
X129162898Y-45522361D01*
X129070426Y-45720668D01*
X129070422Y-45720677D01*
X129013793Y-45932020D01*
X129013793Y-45932024D01*
X128994723Y-46149997D01*
X111514066Y-46149997D01*
X111486084Y-46101531D01*
X111384654Y-45988881D01*
X111367456Y-45969780D01*
X111295738Y-45917675D01*
X111224023Y-45865571D01*
X111224021Y-45865570D01*
X111224022Y-45865570D01*
X111062066Y-45793461D01*
X111062058Y-45793459D01*
X110888645Y-45756600D01*
X110711355Y-45756600D01*
X110537941Y-45793459D01*
X110537933Y-45793461D01*
X110375978Y-45865570D01*
X110232543Y-45969780D01*
X110113915Y-46101532D01*
X110025272Y-46255065D01*
X110025271Y-46255066D01*
X109970487Y-46423677D01*
X109970486Y-46423679D01*
X109951954Y-46600000D01*
X101526867Y-46600000D01*
X101688164Y-46424785D01*
X101824173Y-46216607D01*
X101924063Y-45988881D01*
X101985108Y-45747821D01*
X101994853Y-45630219D01*
X102005643Y-45500005D01*
X102005643Y-45499994D01*
X101985109Y-45252187D01*
X101985107Y-45252175D01*
X101924063Y-45011118D01*
X101919186Y-45000000D01*
X103851954Y-45000000D01*
X103870486Y-45176320D01*
X103870487Y-45176322D01*
X103925271Y-45344933D01*
X103925272Y-45344934D01*
X103991952Y-45460427D01*
X104013916Y-45498469D01*
X104061414Y-45551221D01*
X104132543Y-45630219D01*
X104132546Y-45630221D01*
X104275977Y-45734429D01*
X104437933Y-45806538D01*
X104437936Y-45806538D01*
X104437939Y-45806540D01*
X104611355Y-45843400D01*
X104788645Y-45843400D01*
X104962061Y-45806540D01*
X104962064Y-45806538D01*
X104962066Y-45806538D01*
X105014049Y-45783393D01*
X105124023Y-45734429D01*
X105267454Y-45630221D01*
X105386084Y-45498469D01*
X105474729Y-45344931D01*
X105529514Y-45176319D01*
X105548046Y-45000000D01*
X105529514Y-44823681D01*
X105474729Y-44655069D01*
X105474728Y-44655068D01*
X105474728Y-44655066D01*
X105474727Y-44655065D01*
X105443798Y-44601495D01*
X105386084Y-44501531D01*
X105316979Y-44424782D01*
X105267456Y-44369780D01*
X105195738Y-44317675D01*
X105124023Y-44265571D01*
X105124021Y-44265570D01*
X105124022Y-44265570D01*
X104962066Y-44193461D01*
X104962058Y-44193459D01*
X104788645Y-44156600D01*
X104611355Y-44156600D01*
X104437941Y-44193459D01*
X104437933Y-44193461D01*
X104275978Y-44265570D01*
X104132543Y-44369780D01*
X104013915Y-44501532D01*
X103925272Y-44655065D01*
X103925271Y-44655066D01*
X103870487Y-44823677D01*
X103870486Y-44823679D01*
X103851954Y-45000000D01*
X101919186Y-45000000D01*
X101824173Y-44783393D01*
X101688166Y-44575217D01*
X101617514Y-44498469D01*
X101519744Y-44392262D01*
X101323509Y-44239526D01*
X101323507Y-44239525D01*
X101323506Y-44239524D01*
X101104811Y-44121172D01*
X101104802Y-44121169D01*
X101093477Y-44117281D01*
X101036462Y-44076896D01*
X101010331Y-44012096D01*
X101023382Y-43943456D01*
X101071471Y-43892768D01*
X101093477Y-43882719D01*
X101097235Y-43881428D01*
X101104810Y-43878828D01*
X101323509Y-43760474D01*
X101519744Y-43607738D01*
X101688164Y-43424785D01*
X101824173Y-43216607D01*
X101924063Y-42988881D01*
X101985108Y-42747821D01*
X101985109Y-42747812D01*
X102005643Y-42500005D01*
X102005643Y-42499994D01*
X101985109Y-42252187D01*
X101985107Y-42252175D01*
X101924063Y-42011118D01*
X101875321Y-41899997D01*
X103344723Y-41899997D01*
X103344723Y-41900002D01*
X103363793Y-42117975D01*
X103363793Y-42117979D01*
X103420422Y-42329322D01*
X103420424Y-42329326D01*
X103420425Y-42329330D01*
X103449770Y-42392261D01*
X103512897Y-42527638D01*
X103512898Y-42527639D01*
X103638402Y-42706877D01*
X103793123Y-42861598D01*
X103972361Y-42987102D01*
X104170670Y-43079575D01*
X104170676Y-43079576D01*
X104170677Y-43079577D01*
X104201364Y-43087799D01*
X104382023Y-43136207D01*
X104564926Y-43152208D01*
X104599998Y-43155277D01*
X104600000Y-43155277D01*
X104600002Y-43155277D01*
X104628254Y-43152805D01*
X104817977Y-43136207D01*
X105029330Y-43079575D01*
X105227639Y-42987102D01*
X105406877Y-42861598D01*
X105561598Y-42706877D01*
X105687102Y-42527639D01*
X105779575Y-42329330D01*
X105836207Y-42117977D01*
X105855277Y-41900000D01*
X105855277Y-41899997D01*
X107844723Y-41899997D01*
X107844723Y-41900002D01*
X107863793Y-42117975D01*
X107863793Y-42117979D01*
X107920422Y-42329322D01*
X107920424Y-42329326D01*
X107920425Y-42329330D01*
X107949770Y-42392261D01*
X108012897Y-42527638D01*
X108012898Y-42527639D01*
X108138402Y-42706877D01*
X108293123Y-42861598D01*
X108472361Y-42987102D01*
X108670670Y-43079575D01*
X108670676Y-43079576D01*
X108670677Y-43079577D01*
X108882019Y-43136206D01*
X108882023Y-43136207D01*
X108883646Y-43136349D01*
X108884316Y-43136611D01*
X108887351Y-43137146D01*
X108887243Y-43137755D01*
X108948715Y-43161794D01*
X108989700Y-43218381D01*
X108993585Y-43288142D01*
X108959137Y-43348930D01*
X108945739Y-43360192D01*
X108932545Y-43369778D01*
X108813915Y-43501532D01*
X108725272Y-43655065D01*
X108725271Y-43655066D01*
X108670487Y-43823677D01*
X108670486Y-43823679D01*
X108651954Y-44000000D01*
X108670486Y-44176320D01*
X108670487Y-44176322D01*
X108725271Y-44344933D01*
X108725272Y-44344934D01*
X108798450Y-44471682D01*
X108813916Y-44498469D01*
X108861414Y-44551221D01*
X108932543Y-44630219D01*
X108932546Y-44630221D01*
X109075977Y-44734429D01*
X109237933Y-44806538D01*
X109237936Y-44806538D01*
X109237939Y-44806540D01*
X109411355Y-44843400D01*
X109588645Y-44843400D01*
X109762061Y-44806540D01*
X109762064Y-44806538D01*
X109762066Y-44806538D01*
X109814049Y-44783393D01*
X109924023Y-44734429D01*
X110067454Y-44630221D01*
X110186084Y-44498469D01*
X110274729Y-44344931D01*
X110329514Y-44176319D01*
X110348046Y-44000000D01*
X110329514Y-43823681D01*
X110274729Y-43655069D01*
X110274728Y-43655068D01*
X110274728Y-43655066D01*
X110274727Y-43655065D01*
X110243798Y-43601495D01*
X110186084Y-43501531D01*
X110184700Y-43499994D01*
X140294357Y-43499994D01*
X140294357Y-43500005D01*
X140314890Y-43747812D01*
X140314892Y-43747824D01*
X140375936Y-43988881D01*
X140475826Y-44216606D01*
X140611833Y-44424782D01*
X140611836Y-44424785D01*
X140780256Y-44607738D01*
X140976491Y-44760474D01*
X141195190Y-44878828D01*
X141205682Y-44882430D01*
X141206524Y-44882719D01*
X141263539Y-44923106D01*
X141289668Y-44987906D01*
X141276615Y-45056546D01*
X141228526Y-45107233D01*
X141206524Y-45117281D01*
X141195191Y-45121171D01*
X141195188Y-45121172D01*
X140976493Y-45239524D01*
X140780257Y-45392261D01*
X140611833Y-45575217D01*
X140475826Y-45783393D01*
X140375936Y-46011118D01*
X140314892Y-46252175D01*
X140314890Y-46252187D01*
X140294357Y-46499994D01*
X140294357Y-46500005D01*
X140314890Y-46747812D01*
X140314892Y-46747824D01*
X140375936Y-46988881D01*
X140475826Y-47216606D01*
X140611833Y-47424782D01*
X140611836Y-47424785D01*
X140780256Y-47607738D01*
X140976491Y-47760474D01*
X141195190Y-47878828D01*
X141205682Y-47882430D01*
X141206524Y-47882719D01*
X141263539Y-47923106D01*
X141289668Y-47987906D01*
X141276615Y-48056546D01*
X141228526Y-48107233D01*
X141206524Y-48117281D01*
X141195191Y-48121171D01*
X141195188Y-48121172D01*
X140976493Y-48239524D01*
X140780257Y-48392261D01*
X140611833Y-48575217D01*
X140475826Y-48783393D01*
X140375936Y-49011118D01*
X140314892Y-49252175D01*
X140314890Y-49252187D01*
X140294357Y-49499994D01*
X140294357Y-49500005D01*
X140314890Y-49747812D01*
X140314892Y-49747824D01*
X140375936Y-49988881D01*
X140475826Y-50216606D01*
X140611833Y-50424782D01*
X140611836Y-50424785D01*
X140780256Y-50607738D01*
X140976491Y-50760474D01*
X140976493Y-50760475D01*
X141132557Y-50844933D01*
X141195190Y-50878828D01*
X141205682Y-50882430D01*
X141206524Y-50882719D01*
X141263539Y-50923106D01*
X141289668Y-50987906D01*
X141276615Y-51056546D01*
X141228526Y-51107233D01*
X141206524Y-51117281D01*
X141195191Y-51121171D01*
X141195188Y-51121172D01*
X140976493Y-51239524D01*
X140780257Y-51392261D01*
X140611833Y-51575217D01*
X140475826Y-51783393D01*
X140375936Y-52011118D01*
X140314892Y-52252175D01*
X140314890Y-52252187D01*
X140294357Y-52499994D01*
X140294357Y-52500005D01*
X140314890Y-52747812D01*
X140314892Y-52747824D01*
X140375936Y-52988881D01*
X140475826Y-53216606D01*
X140611833Y-53424782D01*
X140611836Y-53424785D01*
X140780256Y-53607738D01*
X140976491Y-53760474D01*
X141195190Y-53878828D01*
X141430386Y-53959571D01*
X141675665Y-54000500D01*
X141924335Y-54000500D01*
X142169614Y-53959571D01*
X142404810Y-53878828D01*
X142623509Y-53760474D01*
X142819744Y-53607738D01*
X142988164Y-53424785D01*
X143124173Y-53216607D01*
X143224063Y-52988881D01*
X143285108Y-52747821D01*
X143305643Y-52500000D01*
X143292104Y-52336610D01*
X143285109Y-52252187D01*
X143285107Y-52252175D01*
X143224063Y-52011118D01*
X143124173Y-51783393D01*
X142988166Y-51575217D01*
X142966557Y-51551744D01*
X142819744Y-51392262D01*
X142623509Y-51239526D01*
X142623507Y-51239525D01*
X142623506Y-51239524D01*
X142404811Y-51121172D01*
X142404802Y-51121169D01*
X142393477Y-51117281D01*
X142336462Y-51076896D01*
X142310331Y-51012096D01*
X142323382Y-50943456D01*
X142371471Y-50892768D01*
X142393477Y-50882719D01*
X142397235Y-50881428D01*
X142404810Y-50878828D01*
X142623509Y-50760474D01*
X142819744Y-50607738D01*
X142988164Y-50424785D01*
X143124173Y-50216607D01*
X143224063Y-49988881D01*
X143285108Y-49747821D01*
X143285109Y-49747812D01*
X143305643Y-49500005D01*
X143305643Y-49499994D01*
X143285109Y-49252187D01*
X143285107Y-49252175D01*
X143224063Y-49011118D01*
X143124173Y-48783393D01*
X142988166Y-48575217D01*
X142918928Y-48500005D01*
X142819744Y-48392262D01*
X142623509Y-48239526D01*
X142623507Y-48239525D01*
X142623506Y-48239524D01*
X142404811Y-48121172D01*
X142404802Y-48121169D01*
X142393477Y-48117281D01*
X142336462Y-48076896D01*
X142310331Y-48012096D01*
X142323382Y-47943456D01*
X142371471Y-47892768D01*
X142393477Y-47882719D01*
X142397235Y-47881428D01*
X142404810Y-47878828D01*
X142623509Y-47760474D01*
X142819744Y-47607738D01*
X142988164Y-47424785D01*
X143124173Y-47216607D01*
X143224063Y-46988881D01*
X143285108Y-46747821D01*
X143293214Y-46650000D01*
X143305643Y-46500005D01*
X143305643Y-46499994D01*
X143285109Y-46252187D01*
X143285107Y-46252175D01*
X143224063Y-46011118D01*
X143124173Y-45783393D01*
X142988166Y-45575217D01*
X142939740Y-45522613D01*
X142819744Y-45392262D01*
X142623509Y-45239526D01*
X142623507Y-45239525D01*
X142623506Y-45239524D01*
X142404811Y-45121172D01*
X142404802Y-45121169D01*
X142393477Y-45117281D01*
X142336462Y-45076896D01*
X142310331Y-45012096D01*
X142323382Y-44943456D01*
X142371471Y-44892768D01*
X142393477Y-44882719D01*
X142397235Y-44881428D01*
X142404810Y-44878828D01*
X142623509Y-44760474D01*
X142819744Y-44607738D01*
X142988164Y-44424785D01*
X143124173Y-44216607D01*
X143224063Y-43988881D01*
X143285108Y-43747821D01*
X143305516Y-43501532D01*
X143305643Y-43500005D01*
X143305643Y-43499994D01*
X143285109Y-43252187D01*
X143285107Y-43252175D01*
X143224063Y-43011118D01*
X143124173Y-42783393D01*
X142988166Y-42575217D01*
X142918928Y-42500005D01*
X142819744Y-42392262D01*
X142623509Y-42239526D01*
X142623507Y-42239525D01*
X142623506Y-42239524D01*
X142404811Y-42121172D01*
X142404802Y-42121169D01*
X142169616Y-42040429D01*
X141924335Y-41999500D01*
X141675665Y-41999500D01*
X141430383Y-42040429D01*
X141195197Y-42121169D01*
X141195188Y-42121172D01*
X140976493Y-42239524D01*
X140780257Y-42392261D01*
X140611833Y-42575217D01*
X140475826Y-42783393D01*
X140375936Y-43011118D01*
X140314892Y-43252175D01*
X140314890Y-43252187D01*
X140294357Y-43499994D01*
X110184700Y-43499994D01*
X110116979Y-43424782D01*
X110067456Y-43369780D01*
X109924023Y-43265571D01*
X109761081Y-43193023D01*
X109707845Y-43147772D01*
X109687524Y-43080923D01*
X109706570Y-43013700D01*
X109740391Y-42978172D01*
X109906877Y-42861598D01*
X110061598Y-42706877D01*
X110187102Y-42527639D01*
X110279575Y-42329330D01*
X110336207Y-42117977D01*
X110355277Y-41900000D01*
X110336207Y-41682023D01*
X110279575Y-41470670D01*
X110187102Y-41272362D01*
X110187100Y-41272359D01*
X110187099Y-41272357D01*
X110061599Y-41093124D01*
X110008904Y-41040429D01*
X109906877Y-40938402D01*
X109852033Y-40900000D01*
X120151954Y-40900000D01*
X120170486Y-41076320D01*
X120170487Y-41076322D01*
X120225271Y-41244933D01*
X120225272Y-41244934D01*
X120241108Y-41272362D01*
X120313916Y-41398469D01*
X120361414Y-41451221D01*
X120432543Y-41530219D01*
X120432546Y-41530221D01*
X120575977Y-41634429D01*
X120737933Y-41706538D01*
X120737936Y-41706538D01*
X120737939Y-41706540D01*
X120911355Y-41743400D01*
X121088645Y-41743400D01*
X121262061Y-41706540D01*
X121262064Y-41706538D01*
X121262066Y-41706538D01*
X121317133Y-41682020D01*
X121424023Y-41634429D01*
X121567454Y-41530221D01*
X121686084Y-41398469D01*
X121774729Y-41244931D01*
X121829514Y-41076319D01*
X121848046Y-40900000D01*
X121829514Y-40723681D01*
X121774729Y-40555069D01*
X121774728Y-40555068D01*
X121774728Y-40555066D01*
X121774727Y-40555065D01*
X121718038Y-40456877D01*
X121686084Y-40401531D01*
X121600552Y-40306538D01*
X121567456Y-40269780D01*
X121493934Y-40216364D01*
X121424023Y-40165571D01*
X121424021Y-40165570D01*
X121424022Y-40165570D01*
X121262066Y-40093461D01*
X121262058Y-40093459D01*
X121088645Y-40056600D01*
X120911355Y-40056600D01*
X120737941Y-40093459D01*
X120737933Y-40093461D01*
X120575978Y-40165570D01*
X120432543Y-40269780D01*
X120313915Y-40401532D01*
X120225272Y-40555065D01*
X120225271Y-40555066D01*
X120170487Y-40723677D01*
X120170486Y-40723679D01*
X120151954Y-40900000D01*
X109852033Y-40900000D01*
X109751456Y-40829575D01*
X109727638Y-40812897D01*
X109614317Y-40760055D01*
X109529330Y-40720425D01*
X109529326Y-40720424D01*
X109529322Y-40720422D01*
X109317977Y-40663793D01*
X109100002Y-40644723D01*
X109099998Y-40644723D01*
X108954682Y-40657436D01*
X108882023Y-40663793D01*
X108882020Y-40663793D01*
X108670677Y-40720422D01*
X108670668Y-40720426D01*
X108472361Y-40812898D01*
X108472357Y-40812900D01*
X108293121Y-40938402D01*
X108138402Y-41093121D01*
X108012900Y-41272357D01*
X108012898Y-41272361D01*
X107920426Y-41470668D01*
X107920422Y-41470677D01*
X107863793Y-41682020D01*
X107863793Y-41682024D01*
X107844723Y-41899997D01*
X105855277Y-41899997D01*
X105836207Y-41682023D01*
X105779575Y-41470670D01*
X105687102Y-41272362D01*
X105687100Y-41272359D01*
X105687099Y-41272357D01*
X105561599Y-41093124D01*
X105508904Y-41040429D01*
X105406877Y-40938402D01*
X105251456Y-40829575D01*
X105227638Y-40812897D01*
X105114317Y-40760055D01*
X105029330Y-40720425D01*
X105029326Y-40720424D01*
X105029322Y-40720422D01*
X104817977Y-40663793D01*
X104600002Y-40644723D01*
X104599998Y-40644723D01*
X104454682Y-40657436D01*
X104382023Y-40663793D01*
X104382020Y-40663793D01*
X104170677Y-40720422D01*
X104170668Y-40720426D01*
X103972361Y-40812898D01*
X103972357Y-40812900D01*
X103793121Y-40938402D01*
X103638402Y-41093121D01*
X103512900Y-41272357D01*
X103512898Y-41272361D01*
X103420426Y-41470668D01*
X103420422Y-41470677D01*
X103363793Y-41682020D01*
X103363793Y-41682024D01*
X103344723Y-41899997D01*
X101875321Y-41899997D01*
X101824173Y-41783393D01*
X101688166Y-41575217D01*
X101591930Y-41470677D01*
X101519744Y-41392262D01*
X101323509Y-41239526D01*
X101323507Y-41239525D01*
X101323506Y-41239524D01*
X101104811Y-41121172D01*
X101104802Y-41121169D01*
X101092705Y-41117016D01*
X101035690Y-41076631D01*
X101009559Y-41011831D01*
X101022610Y-40943191D01*
X101070699Y-40892504D01*
X101092707Y-40882453D01*
X101104608Y-40878367D01*
X101104614Y-40878364D01*
X101323228Y-40760057D01*
X101323231Y-40760055D01*
X101370056Y-40723609D01*
X100629409Y-39982962D01*
X100692993Y-39965925D01*
X100807007Y-39900099D01*
X100900099Y-39807007D01*
X100965925Y-39692993D01*
X100982962Y-39629410D01*
X101723434Y-40369882D01*
X101823731Y-40216369D01*
X101923587Y-39988717D01*
X101984612Y-39747738D01*
X101984614Y-39747729D01*
X102005141Y-39500005D01*
X102005141Y-39500000D01*
X122651954Y-39500000D01*
X122670486Y-39676320D01*
X122670487Y-39676322D01*
X122725271Y-39844933D01*
X122725272Y-39844934D01*
X122757122Y-39900099D01*
X122813916Y-39998469D01*
X122815295Y-40000000D01*
X122932543Y-40130219D01*
X122932546Y-40130221D01*
X123075977Y-40234429D01*
X123237933Y-40306538D01*
X123237936Y-40306538D01*
X123237939Y-40306540D01*
X123411355Y-40343400D01*
X123588645Y-40343400D01*
X123762061Y-40306540D01*
X123762064Y-40306538D01*
X123762066Y-40306538D01*
X123794869Y-40291932D01*
X123924023Y-40234429D01*
X124067454Y-40130221D01*
X124186084Y-39998469D01*
X124274729Y-39844931D01*
X124329514Y-39676319D01*
X124332281Y-39649997D01*
X128994723Y-39649997D01*
X128994723Y-39650002D01*
X129013793Y-39867975D01*
X129013793Y-39867979D01*
X129070422Y-40079322D01*
X129070424Y-40079326D01*
X129070425Y-40079330D01*
X129094155Y-40130219D01*
X129162897Y-40277638D01*
X129162898Y-40277639D01*
X129288402Y-40456877D01*
X129443123Y-40611598D01*
X129622361Y-40737102D01*
X129820670Y-40829575D01*
X130032023Y-40886207D01*
X130214926Y-40902208D01*
X130249998Y-40905277D01*
X130250000Y-40905277D01*
X130250002Y-40905277D01*
X130278254Y-40902805D01*
X130467977Y-40886207D01*
X130679330Y-40829575D01*
X130877639Y-40737102D01*
X131056877Y-40611598D01*
X131211598Y-40456877D01*
X131337102Y-40277639D01*
X131429575Y-40079330D01*
X131486207Y-39867977D01*
X131505277Y-39650000D01*
X131505277Y-39649997D01*
X133494723Y-39649997D01*
X133494723Y-39650002D01*
X133513793Y-39867975D01*
X133513793Y-39867979D01*
X133570422Y-40079322D01*
X133570424Y-40079326D01*
X133570425Y-40079330D01*
X133594155Y-40130219D01*
X133662897Y-40277638D01*
X133662898Y-40277639D01*
X133788402Y-40456877D01*
X133943123Y-40611598D01*
X134122361Y-40737102D01*
X134320670Y-40829575D01*
X134532023Y-40886207D01*
X134714926Y-40902208D01*
X134749998Y-40905277D01*
X134750000Y-40905277D01*
X134750002Y-40905277D01*
X134778254Y-40902805D01*
X134967977Y-40886207D01*
X135179330Y-40829575D01*
X135377639Y-40737102D01*
X135556877Y-40611598D01*
X135711598Y-40456877D01*
X135837102Y-40277639D01*
X135929575Y-40079330D01*
X135986207Y-39867977D01*
X136005277Y-39650000D01*
X135986207Y-39432023D01*
X135929575Y-39220670D01*
X135837102Y-39022362D01*
X135837100Y-39022359D01*
X135837099Y-39022357D01*
X135711599Y-38843124D01*
X135652105Y-38783630D01*
X135556877Y-38688402D01*
X135377639Y-38562898D01*
X135377640Y-38562898D01*
X135377638Y-38562897D01*
X135278484Y-38516661D01*
X135179330Y-38470425D01*
X135179326Y-38470424D01*
X135179322Y-38470422D01*
X134967977Y-38413793D01*
X134750002Y-38394723D01*
X134749998Y-38394723D01*
X134604682Y-38407436D01*
X134532023Y-38413793D01*
X134532020Y-38413793D01*
X134320677Y-38470422D01*
X134320668Y-38470426D01*
X134122361Y-38562898D01*
X134122357Y-38562900D01*
X133943121Y-38688402D01*
X133788402Y-38843121D01*
X133662900Y-39022357D01*
X133662898Y-39022361D01*
X133570426Y-39220668D01*
X133570422Y-39220677D01*
X133513793Y-39432020D01*
X133513793Y-39432024D01*
X133494723Y-39649997D01*
X131505277Y-39649997D01*
X131486207Y-39432023D01*
X131429575Y-39220670D01*
X131337102Y-39022362D01*
X131337100Y-39022359D01*
X131337099Y-39022357D01*
X131211599Y-38843124D01*
X131152105Y-38783630D01*
X131056877Y-38688402D01*
X130877639Y-38562898D01*
X130877640Y-38562898D01*
X130877638Y-38562897D01*
X130778484Y-38516661D01*
X130679330Y-38470425D01*
X130679326Y-38470424D01*
X130679322Y-38470422D01*
X130467977Y-38413793D01*
X130250002Y-38394723D01*
X130249998Y-38394723D01*
X130104682Y-38407436D01*
X130032023Y-38413793D01*
X130032020Y-38413793D01*
X129820677Y-38470422D01*
X129820668Y-38470426D01*
X129622361Y-38562898D01*
X129622357Y-38562900D01*
X129443121Y-38688402D01*
X129288402Y-38843121D01*
X129162900Y-39022357D01*
X129162898Y-39022361D01*
X129070426Y-39220668D01*
X129070422Y-39220677D01*
X129013793Y-39432020D01*
X129013793Y-39432024D01*
X128994723Y-39649997D01*
X124332281Y-39649997D01*
X124348046Y-39500000D01*
X124329514Y-39323681D01*
X124274729Y-39155069D01*
X124274728Y-39155068D01*
X124274728Y-39155066D01*
X124274727Y-39155065D01*
X124204873Y-39034075D01*
X124186084Y-39001531D01*
X124132677Y-38942217D01*
X124067456Y-38869780D01*
X123948879Y-38783630D01*
X123924023Y-38765571D01*
X123924021Y-38765570D01*
X123924022Y-38765570D01*
X123762066Y-38693461D01*
X123762058Y-38693459D01*
X123588645Y-38656600D01*
X123411355Y-38656600D01*
X123237941Y-38693459D01*
X123237933Y-38693461D01*
X123075978Y-38765570D01*
X122932543Y-38869780D01*
X122813915Y-39001532D01*
X122725272Y-39155065D01*
X122725271Y-39155066D01*
X122670487Y-39323677D01*
X122670486Y-39323679D01*
X122651954Y-39500000D01*
X102005141Y-39500000D01*
X102005141Y-39499994D01*
X101984614Y-39252270D01*
X101984612Y-39252261D01*
X101923587Y-39011282D01*
X101823731Y-38783630D01*
X101723434Y-38630116D01*
X100982962Y-39370589D01*
X100965925Y-39307007D01*
X100900099Y-39192993D01*
X100807007Y-39099901D01*
X100692993Y-39034075D01*
X100629410Y-39017037D01*
X101370057Y-38276390D01*
X101370056Y-38276389D01*
X101323229Y-38239943D01*
X101104614Y-38121635D01*
X101104603Y-38121630D01*
X100869493Y-38040916D01*
X100624293Y-38000000D01*
X100375707Y-38000000D01*
X100130506Y-38040916D01*
X99895396Y-38121630D01*
X99895390Y-38121632D01*
X99676761Y-38239949D01*
X99629942Y-38276388D01*
X99629942Y-38276390D01*
X100370590Y-39017037D01*
X100307007Y-39034075D01*
X100192993Y-39099901D01*
X100099901Y-39192993D01*
X100034075Y-39307007D01*
X100017037Y-39370589D01*
X99276564Y-38630116D01*
X99176267Y-38783632D01*
X99076412Y-39011282D01*
X99015387Y-39252261D01*
X99015385Y-39252270D01*
X98994859Y-39499994D01*
X98994859Y-39500005D01*
X99015385Y-39747729D01*
X99015387Y-39747738D01*
X99076412Y-39988717D01*
X99176266Y-40216364D01*
X99276564Y-40369882D01*
X100017037Y-39629409D01*
X100034075Y-39692993D01*
X100099901Y-39807007D01*
X100192993Y-39900099D01*
X100307007Y-39965925D01*
X100370590Y-39982962D01*
X99629942Y-40723609D01*
X99676768Y-40760055D01*
X99676770Y-40760056D01*
X99895385Y-40878364D01*
X99895396Y-40878369D01*
X99907294Y-40882454D01*
X99964309Y-40922839D01*
X99990440Y-40987639D01*
X99977389Y-41056279D01*
X99929300Y-41106967D01*
X99907296Y-41117016D01*
X99895191Y-41121171D01*
X99895188Y-41121172D01*
X99676493Y-41239524D01*
X99480257Y-41392261D01*
X99311833Y-41575217D01*
X99175826Y-41783393D01*
X99075936Y-42011118D01*
X99014892Y-42252175D01*
X99014890Y-42252187D01*
X98994357Y-42499994D01*
X98100500Y-42499994D01*
X98100500Y-36500000D01*
X105751954Y-36500000D01*
X105770486Y-36676320D01*
X105770487Y-36676322D01*
X105825271Y-36844933D01*
X105825272Y-36844934D01*
X105888857Y-36955065D01*
X105913916Y-36998469D01*
X105961414Y-37051221D01*
X106032543Y-37130219D01*
X106032546Y-37130221D01*
X106175977Y-37234429D01*
X106337933Y-37306538D01*
X106337936Y-37306538D01*
X106337939Y-37306540D01*
X106511355Y-37343400D01*
X106688645Y-37343400D01*
X106862061Y-37306540D01*
X106862064Y-37306538D01*
X106862066Y-37306538D01*
X106876749Y-37300000D01*
X128851954Y-37300000D01*
X128870486Y-37476320D01*
X128870487Y-37476322D01*
X128925271Y-37644933D01*
X128925272Y-37644934D01*
X128998450Y-37771682D01*
X129013916Y-37798469D01*
X129061414Y-37851221D01*
X129132543Y-37930219D01*
X129132546Y-37930221D01*
X129275977Y-38034429D01*
X129437933Y-38106538D01*
X129437936Y-38106538D01*
X129437939Y-38106540D01*
X129611355Y-38143400D01*
X129788645Y-38143400D01*
X129962061Y-38106540D01*
X129962064Y-38106538D01*
X129962066Y-38106538D01*
X129994869Y-38091932D01*
X130124023Y-38034429D01*
X130267454Y-37930221D01*
X130386084Y-37798469D01*
X130474729Y-37644931D01*
X130529514Y-37476319D01*
X130548046Y-37300000D01*
X130529514Y-37123681D01*
X130474729Y-36955069D01*
X130474728Y-36955068D01*
X130474728Y-36955066D01*
X130474727Y-36955065D01*
X130443798Y-36901495D01*
X130386084Y-36801531D01*
X130325665Y-36734429D01*
X130267456Y-36669780D01*
X130195738Y-36617675D01*
X130124023Y-36565571D01*
X130124021Y-36565570D01*
X130124022Y-36565570D01*
X129962066Y-36493461D01*
X129962058Y-36493459D01*
X129788645Y-36456600D01*
X129611355Y-36456600D01*
X129437941Y-36493459D01*
X129437933Y-36493461D01*
X129275978Y-36565570D01*
X129132543Y-36669780D01*
X129013915Y-36801532D01*
X128925272Y-36955065D01*
X128925271Y-36955066D01*
X128870487Y-37123677D01*
X128870486Y-37123679D01*
X128851954Y-37300000D01*
X106876749Y-37300000D01*
X106894869Y-37291932D01*
X107024023Y-37234429D01*
X107167454Y-37130221D01*
X107173345Y-37123679D01*
X107179270Y-37117097D01*
X107286084Y-36998469D01*
X107374729Y-36844931D01*
X107429514Y-36676319D01*
X107448046Y-36500000D01*
X107429514Y-36323681D01*
X107374729Y-36155069D01*
X107374728Y-36155068D01*
X107374728Y-36155066D01*
X107374727Y-36155065D01*
X107343798Y-36101495D01*
X107286084Y-36001531D01*
X107232677Y-35942217D01*
X107167456Y-35869780D01*
X107095738Y-35817675D01*
X107024023Y-35765571D01*
X107024021Y-35765570D01*
X107024022Y-35765570D01*
X106862066Y-35693461D01*
X106862058Y-35693459D01*
X106688645Y-35656600D01*
X106511355Y-35656600D01*
X106337941Y-35693459D01*
X106337933Y-35693461D01*
X106175978Y-35765570D01*
X106032543Y-35869780D01*
X105913915Y-36001532D01*
X105825272Y-36155065D01*
X105825271Y-36155066D01*
X105770487Y-36323677D01*
X105770486Y-36323679D01*
X105751954Y-36500000D01*
X98100500Y-36500000D01*
X98100500Y-33499994D01*
X98894357Y-33499994D01*
X98894357Y-33500005D01*
X98914890Y-33747812D01*
X98914892Y-33747824D01*
X98975936Y-33988881D01*
X99075826Y-34216606D01*
X99211833Y-34424782D01*
X99211836Y-34424785D01*
X99380256Y-34607738D01*
X99576491Y-34760474D01*
X99576493Y-34760475D01*
X99794332Y-34878364D01*
X99795190Y-34878828D01*
X100014141Y-34953994D01*
X100028964Y-34959083D01*
X100030386Y-34959571D01*
X100275665Y-35000500D01*
X100524335Y-35000500D01*
X100769614Y-34959571D01*
X101004810Y-34878828D01*
X101223509Y-34760474D01*
X101419744Y-34607738D01*
X101588164Y-34424785D01*
X101724173Y-34216607D01*
X101786444Y-34074644D01*
X101831400Y-34021158D01*
X101898136Y-34000468D01*
X101965464Y-34019143D01*
X102012007Y-34071253D01*
X102013556Y-34074644D01*
X102075826Y-34216606D01*
X102211833Y-34424782D01*
X102211836Y-34424785D01*
X102380256Y-34607738D01*
X102576491Y-34760474D01*
X102576493Y-34760475D01*
X102794332Y-34878364D01*
X102795190Y-34878828D01*
X103014141Y-34953994D01*
X103028964Y-34959083D01*
X103030386Y-34959571D01*
X103275665Y-35000500D01*
X103524335Y-35000500D01*
X103769614Y-34959571D01*
X104004810Y-34878828D01*
X104223509Y-34760474D01*
X104419744Y-34607738D01*
X104588164Y-34424785D01*
X104724173Y-34216607D01*
X104786444Y-34074644D01*
X104831400Y-34021158D01*
X104898136Y-34000468D01*
X104965464Y-34019143D01*
X105012007Y-34071253D01*
X105013556Y-34074644D01*
X105075826Y-34216606D01*
X105211833Y-34424782D01*
X105211836Y-34424785D01*
X105380256Y-34607738D01*
X105576491Y-34760474D01*
X105576493Y-34760475D01*
X105794332Y-34878364D01*
X105795190Y-34878828D01*
X106014141Y-34953994D01*
X106028964Y-34959083D01*
X106030386Y-34959571D01*
X106275665Y-35000500D01*
X106524335Y-35000500D01*
X106769614Y-34959571D01*
X107004810Y-34878828D01*
X107223509Y-34760474D01*
X107419744Y-34607738D01*
X107588164Y-34424785D01*
X107724173Y-34216607D01*
X107786717Y-34074020D01*
X107831673Y-34020535D01*
X107898409Y-33999845D01*
X107965737Y-34018520D01*
X108012280Y-34070630D01*
X108013829Y-34074021D01*
X108076266Y-34216364D01*
X108176564Y-34369882D01*
X108917037Y-33629409D01*
X108934075Y-33692993D01*
X108999901Y-33807007D01*
X109092993Y-33900099D01*
X109207007Y-33965925D01*
X109270590Y-33982962D01*
X108529942Y-34723609D01*
X108576768Y-34760055D01*
X108576770Y-34760056D01*
X108795385Y-34878364D01*
X108795396Y-34878369D01*
X109030506Y-34959083D01*
X109275707Y-35000000D01*
X109524293Y-35000000D01*
X109769493Y-34959083D01*
X110004603Y-34878369D01*
X110004614Y-34878364D01*
X110223228Y-34760057D01*
X110223231Y-34760055D01*
X110270056Y-34723609D01*
X109529409Y-33982962D01*
X109592993Y-33965925D01*
X109707007Y-33900099D01*
X109800099Y-33807007D01*
X109865925Y-33692993D01*
X109882962Y-33629410D01*
X110623434Y-34369882D01*
X110723731Y-34216369D01*
X110823587Y-33988717D01*
X110884612Y-33747738D01*
X110884614Y-33747729D01*
X110905141Y-33500005D01*
X110905141Y-33499994D01*
X114494357Y-33499994D01*
X114494357Y-33500005D01*
X114514890Y-33747812D01*
X114514892Y-33747824D01*
X114575936Y-33988881D01*
X114675826Y-34216606D01*
X114811833Y-34424782D01*
X114811836Y-34424785D01*
X114980256Y-34607738D01*
X115176491Y-34760474D01*
X115176493Y-34760475D01*
X115394332Y-34878364D01*
X115395190Y-34878828D01*
X115614141Y-34953994D01*
X115628964Y-34959083D01*
X115630386Y-34959571D01*
X115875665Y-35000500D01*
X116124335Y-35000500D01*
X116369614Y-34959571D01*
X116604810Y-34878828D01*
X116823509Y-34760474D01*
X117019744Y-34607738D01*
X117188164Y-34424785D01*
X117324173Y-34216607D01*
X117386444Y-34074644D01*
X117431400Y-34021158D01*
X117498136Y-34000468D01*
X117565464Y-34019143D01*
X117612007Y-34071253D01*
X117613556Y-34074644D01*
X117675826Y-34216606D01*
X117811833Y-34424782D01*
X117811836Y-34424785D01*
X117980256Y-34607738D01*
X118176491Y-34760474D01*
X118176493Y-34760475D01*
X118394332Y-34878364D01*
X118395190Y-34878828D01*
X118614141Y-34953994D01*
X118628964Y-34959083D01*
X118630386Y-34959571D01*
X118875665Y-35000500D01*
X119124335Y-35000500D01*
X119369614Y-34959571D01*
X119604810Y-34878828D01*
X119823509Y-34760474D01*
X120019744Y-34607738D01*
X120188164Y-34424785D01*
X120324173Y-34216607D01*
X120386444Y-34074644D01*
X120431400Y-34021158D01*
X120498136Y-34000468D01*
X120565464Y-34019143D01*
X120612007Y-34071253D01*
X120613556Y-34074644D01*
X120675826Y-34216606D01*
X120811833Y-34424782D01*
X120811836Y-34424785D01*
X120980256Y-34607738D01*
X121176491Y-34760474D01*
X121176493Y-34760475D01*
X121394332Y-34878364D01*
X121395190Y-34878828D01*
X121630386Y-34959571D01*
X121683999Y-34968517D01*
X121746885Y-34998967D01*
X121783325Y-35058581D01*
X121781751Y-35128433D01*
X121742662Y-35186345D01*
X121714028Y-35204105D01*
X121575976Y-35265571D01*
X121432543Y-35369780D01*
X121313915Y-35501532D01*
X121225272Y-35655065D01*
X121225271Y-35655066D01*
X121170487Y-35823677D01*
X121170486Y-35823679D01*
X121151954Y-36000000D01*
X121170486Y-36176320D01*
X121170487Y-36176322D01*
X121225271Y-36344933D01*
X121225272Y-36344934D01*
X121289743Y-36456600D01*
X121313916Y-36498469D01*
X121315295Y-36500000D01*
X121432543Y-36630219D01*
X121432546Y-36630221D01*
X121575977Y-36734429D01*
X121737933Y-36806538D01*
X121737936Y-36806538D01*
X121737939Y-36806540D01*
X121911355Y-36843400D01*
X122088645Y-36843400D01*
X122262061Y-36806540D01*
X122262064Y-36806538D01*
X122262066Y-36806538D01*
X122294869Y-36791932D01*
X122424023Y-36734429D01*
X122567454Y-36630221D01*
X122686084Y-36498469D01*
X122774729Y-36344931D01*
X122829514Y-36176319D01*
X122848046Y-36000000D01*
X122829514Y-35823681D01*
X122774729Y-35655069D01*
X122774728Y-35655068D01*
X122774728Y-35655066D01*
X122774727Y-35655065D01*
X122743798Y-35601495D01*
X122686084Y-35501531D01*
X122632677Y-35442217D01*
X122567456Y-35369780D01*
X122424023Y-35265571D01*
X122285971Y-35204105D01*
X122232735Y-35158854D01*
X122212414Y-35092005D01*
X122231460Y-35024782D01*
X122283826Y-34978527D01*
X122315997Y-34968517D01*
X122369614Y-34959571D01*
X122604810Y-34878828D01*
X122823509Y-34760474D01*
X123019744Y-34607738D01*
X123188164Y-34424785D01*
X123324173Y-34216607D01*
X123386717Y-34074020D01*
X123431673Y-34020535D01*
X123498409Y-33999845D01*
X123565737Y-34018520D01*
X123612280Y-34070630D01*
X123613829Y-34074021D01*
X123676266Y-34216364D01*
X123776564Y-34369882D01*
X124517037Y-33629409D01*
X124534075Y-33692993D01*
X124599901Y-33807007D01*
X124692993Y-33900099D01*
X124807007Y-33965925D01*
X124870590Y-33982962D01*
X124129942Y-34723609D01*
X124176768Y-34760055D01*
X124176770Y-34760056D01*
X124395385Y-34878364D01*
X124395396Y-34878369D01*
X124630506Y-34959083D01*
X124875707Y-35000000D01*
X125124293Y-35000000D01*
X125369493Y-34959083D01*
X125604603Y-34878369D01*
X125604614Y-34878364D01*
X125823228Y-34760057D01*
X125823231Y-34760055D01*
X125870056Y-34723609D01*
X125129409Y-33982962D01*
X125192993Y-33965925D01*
X125307007Y-33900099D01*
X125400099Y-33807007D01*
X125465925Y-33692993D01*
X125482962Y-33629410D01*
X126223434Y-34369882D01*
X126323731Y-34216369D01*
X126423587Y-33988717D01*
X126484612Y-33747738D01*
X126484614Y-33747729D01*
X126505141Y-33500005D01*
X126505141Y-33499994D01*
X126484614Y-33252270D01*
X126484612Y-33252261D01*
X126423587Y-33011282D01*
X126323731Y-32783630D01*
X126223434Y-32630116D01*
X125482962Y-33370589D01*
X125465925Y-33307007D01*
X125400099Y-33192993D01*
X125307007Y-33099901D01*
X125192993Y-33034075D01*
X125129410Y-33017037D01*
X125870057Y-32276390D01*
X125870056Y-32276389D01*
X125823229Y-32239943D01*
X125604614Y-32121635D01*
X125604603Y-32121630D01*
X125369493Y-32040916D01*
X125124293Y-32000000D01*
X124875707Y-32000000D01*
X124630506Y-32040916D01*
X124395396Y-32121630D01*
X124395390Y-32121632D01*
X124176761Y-32239949D01*
X124129942Y-32276388D01*
X124129942Y-32276390D01*
X124870590Y-33017037D01*
X124807007Y-33034075D01*
X124692993Y-33099901D01*
X124599901Y-33192993D01*
X124534075Y-33307007D01*
X124517037Y-33370589D01*
X123776564Y-32630116D01*
X123676267Y-32783632D01*
X123613829Y-32925978D01*
X123568873Y-32979464D01*
X123502137Y-33000154D01*
X123434809Y-32981479D01*
X123388266Y-32929369D01*
X123386717Y-32925978D01*
X123324173Y-32783393D01*
X123188166Y-32575217D01*
X123166557Y-32551744D01*
X123019744Y-32392262D01*
X122823509Y-32239526D01*
X122823507Y-32239525D01*
X122823506Y-32239524D01*
X122604811Y-32121172D01*
X122604802Y-32121169D01*
X122369616Y-32040429D01*
X122124335Y-31999500D01*
X121875665Y-31999500D01*
X121630383Y-32040429D01*
X121395197Y-32121169D01*
X121395188Y-32121172D01*
X121176493Y-32239524D01*
X120980257Y-32392261D01*
X120811833Y-32575217D01*
X120675826Y-32783393D01*
X120613556Y-32925355D01*
X120568600Y-32978841D01*
X120501864Y-32999531D01*
X120434536Y-32980856D01*
X120387993Y-32928746D01*
X120386444Y-32925355D01*
X120324173Y-32783393D01*
X120188166Y-32575217D01*
X120166557Y-32551744D01*
X120019744Y-32392262D01*
X119823509Y-32239526D01*
X119823507Y-32239525D01*
X119823506Y-32239524D01*
X119604811Y-32121172D01*
X119604802Y-32121169D01*
X119369616Y-32040429D01*
X119124335Y-31999500D01*
X118875665Y-31999500D01*
X118630383Y-32040429D01*
X118395197Y-32121169D01*
X118395188Y-32121172D01*
X118176493Y-32239524D01*
X117980257Y-32392261D01*
X117811833Y-32575217D01*
X117675826Y-32783393D01*
X117613556Y-32925355D01*
X117568600Y-32978841D01*
X117501864Y-32999531D01*
X117434536Y-32980856D01*
X117387993Y-32928746D01*
X117386444Y-32925355D01*
X117324173Y-32783393D01*
X117188166Y-32575217D01*
X117166557Y-32551744D01*
X117019744Y-32392262D01*
X116823509Y-32239526D01*
X116823507Y-32239525D01*
X116823506Y-32239524D01*
X116604811Y-32121172D01*
X116604802Y-32121169D01*
X116369616Y-32040429D01*
X116124335Y-31999500D01*
X115875665Y-31999500D01*
X115630383Y-32040429D01*
X115395197Y-32121169D01*
X115395188Y-32121172D01*
X115176493Y-32239524D01*
X114980257Y-32392261D01*
X114811833Y-32575217D01*
X114675826Y-32783393D01*
X114575936Y-33011118D01*
X114514892Y-33252175D01*
X114514890Y-33252187D01*
X114494357Y-33499994D01*
X110905141Y-33499994D01*
X110884614Y-33252270D01*
X110884612Y-33252261D01*
X110823587Y-33011282D01*
X110723731Y-32783630D01*
X110623434Y-32630116D01*
X109882962Y-33370589D01*
X109865925Y-33307007D01*
X109800099Y-33192993D01*
X109707007Y-33099901D01*
X109592993Y-33034075D01*
X109529410Y-33017037D01*
X110270057Y-32276390D01*
X110270056Y-32276389D01*
X110223229Y-32239943D01*
X110004614Y-32121635D01*
X110004603Y-32121630D01*
X109769493Y-32040916D01*
X109524293Y-32000000D01*
X109275707Y-32000000D01*
X109030506Y-32040916D01*
X108795396Y-32121630D01*
X108795390Y-32121632D01*
X108576761Y-32239949D01*
X108529942Y-32276388D01*
X108529942Y-32276390D01*
X109270590Y-33017037D01*
X109207007Y-33034075D01*
X109092993Y-33099901D01*
X108999901Y-33192993D01*
X108934075Y-33307007D01*
X108917037Y-33370589D01*
X108176564Y-32630116D01*
X108076267Y-32783632D01*
X108013829Y-32925978D01*
X107968873Y-32979464D01*
X107902137Y-33000154D01*
X107834809Y-32981479D01*
X107788266Y-32929369D01*
X107786717Y-32925978D01*
X107724173Y-32783393D01*
X107588166Y-32575217D01*
X107566557Y-32551744D01*
X107419744Y-32392262D01*
X107223509Y-32239526D01*
X107223507Y-32239525D01*
X107223506Y-32239524D01*
X107004811Y-32121172D01*
X107004802Y-32121169D01*
X106769616Y-32040429D01*
X106524335Y-31999500D01*
X106275665Y-31999500D01*
X106030383Y-32040429D01*
X105795197Y-32121169D01*
X105795188Y-32121172D01*
X105576493Y-32239524D01*
X105380257Y-32392261D01*
X105211833Y-32575217D01*
X105075826Y-32783393D01*
X105013556Y-32925355D01*
X104968600Y-32978841D01*
X104901864Y-32999531D01*
X104834536Y-32980856D01*
X104787993Y-32928746D01*
X104786444Y-32925355D01*
X104724173Y-32783393D01*
X104588166Y-32575217D01*
X104566557Y-32551744D01*
X104419744Y-32392262D01*
X104223509Y-32239526D01*
X104223507Y-32239525D01*
X104223506Y-32239524D01*
X104004811Y-32121172D01*
X104004802Y-32121169D01*
X103769616Y-32040429D01*
X103524335Y-31999500D01*
X103275665Y-31999500D01*
X103030383Y-32040429D01*
X102795197Y-32121169D01*
X102795188Y-32121172D01*
X102576493Y-32239524D01*
X102380257Y-32392261D01*
X102211833Y-32575217D01*
X102075826Y-32783393D01*
X102013556Y-32925355D01*
X101968600Y-32978841D01*
X101901864Y-32999531D01*
X101834536Y-32980856D01*
X101787993Y-32928746D01*
X101786444Y-32925355D01*
X101724173Y-32783393D01*
X101588166Y-32575217D01*
X101566557Y-32551744D01*
X101419744Y-32392262D01*
X101223509Y-32239526D01*
X101223507Y-32239525D01*
X101223506Y-32239524D01*
X101004811Y-32121172D01*
X101004802Y-32121169D01*
X100769616Y-32040429D01*
X100524335Y-31999500D01*
X100275665Y-31999500D01*
X100030383Y-32040429D01*
X99795197Y-32121169D01*
X99795188Y-32121172D01*
X99576493Y-32239524D01*
X99380257Y-32392261D01*
X99211833Y-32575217D01*
X99075826Y-32783393D01*
X98975936Y-33011118D01*
X98914892Y-33252175D01*
X98914890Y-33252187D01*
X98894357Y-33499994D01*
X98100500Y-33499994D01*
X98100500Y-30624500D01*
X98120185Y-30557461D01*
X98172989Y-30511706D01*
X98224500Y-30500500D01*
X143876000Y-30500500D01*
X143943039Y-30520185D01*
G37*
%TD.AperFunction*%
%TD*%
M02*
