M48
; DRILL file {KiCad 8.0.6} date 2025-01-16T10:56:44-0800
; FORMAT={-:-/ absolute / metric / decimal}
; #@! TF.CreationDate,2025-01-16T10:56:44-08:00
; #@! TF.GenerationSoftware,Kicad,Pcbnew,8.0.6
; #@! TF.FileFunction,Plated,1,4,PTH
FMAT,2
METRIC
; #@! TA.AperFunction,Plated,PTH,ViaDrill
T1C0.330
; #@! TA.AperFunction,Plated,PTH,ViaDrill
T2C0.381
; #@! TA.AperFunction,Plated,PTH,ComponentDrill
T3C1.000
; #@! TA.AperFunction,Plated,PTH,ComponentDrill
T4C1.330
%
G90
G05
T1
X103.0Y-80.5
X103.2Y-77.8
X103.4Y-39.8
X103.4Y-61.0
X103.5Y-62.9
X103.5Y-64.5
X103.5Y-67.0
X103.5Y-70.5
X103.6Y-68.9
X103.9Y-65.6
X104.7Y-45.0
X105.5Y-53.5
X106.25Y-76.55
X106.5Y-61.5
X106.6Y-36.5
X106.6Y-50.5
X106.6Y-56.8
X107.0Y-64.0
X107.0Y-65.0
X107.0Y-67.0
X107.0Y-69.0
X107.5Y-60.5
X107.5Y-62.0
X107.65Y-74.95
X108.4Y-52.8
X109.5Y-44.0
X109.6Y-36.5
X110.5Y-66.0
X110.5Y-67.625
X110.5Y-69.5
X110.5Y-71.0
X110.8Y-46.6
X110.8Y-80.2
X111.0Y-57.8
X113.0Y-42.5
X113.3Y-66.1
X113.5Y-64.0
X114.6Y-60.9
X116.5Y-48.5
X116.5Y-51.0
X116.5Y-53.0
X116.5Y-61.5
X116.7Y-64.5
X117.0Y-72.0
X117.1Y-76.8
X118.4Y-76.1
X118.5Y-47.5
X118.5Y-55.0
X118.6Y-66.0
X119.0Y-60.5
X120.7Y-72.9
X121.0Y-40.9
X122.0Y-36.0
X122.5Y-79.0
X123.5Y-39.5
X123.6Y-67.4
X123.6Y-68.8
X123.6Y-70.2
X124.15Y-59.45
X125.0Y-36.6
X125.5Y-45.5
X127.0Y-42.5
X127.0Y-59.35
X128.1Y-79.9
X129.45Y-62.615
X129.45Y-63.415
X129.5Y-54.5
X129.7Y-37.3
X129.8Y-67.4
X129.8Y-68.8
X129.8Y-70.2
X130.35Y-62.615
X130.35Y-63.415
X130.95Y-59.415
X131.0Y-52.5
X131.75Y-60.215
X131.95Y-48.0
X132.0Y-54.9
X132.15Y-59.415
X132.75Y-60.215
X133.35Y-59.415
X133.8Y-67.4
X133.8Y-68.8
X133.8Y-70.2
X134.5Y-44.5
X135.15Y-36.35
X135.55Y-62.615
X135.55Y-63.415
X136.6Y-54.9
X137.35Y-58.515
X137.85Y-62.515
X139.3Y-76.1
X139.4Y-54.9
X140.3Y-77.7
X140.3Y-79.1
X140.4Y-62.75
T2
X109.7Y-79.5
X129.6Y-79.0
X134.0Y-52.7
X136.1Y-80.6
X138.7Y-69.8
T3
X100.4Y-33.5
X100.5Y-39.5
X100.5Y-42.5
X100.5Y-45.5
X100.5Y-48.5
X100.5Y-64.0
X100.5Y-67.0
X100.5Y-70.0
X100.5Y-73.0
X100.5Y-79.0
X100.5Y-82.5
X103.4Y-33.5
X104.0Y-82.5
X104.6Y-41.9
X104.6Y-48.4
X106.4Y-33.5
X107.0Y-82.5
X109.1Y-41.9
X109.1Y-48.4
X109.4Y-33.5
X116.0Y-33.5
X119.0Y-33.5
X122.0Y-33.5
X125.0Y-33.5
X130.25Y-39.65
X130.25Y-46.15
X134.75Y-39.65
X134.75Y-46.15
X141.8Y-43.5
X141.8Y-46.5
X141.8Y-49.5
X141.8Y-52.5
X141.85Y-68.4
X141.85Y-71.4
X141.85Y-74.4
X142.25Y-80.1
X142.25Y-83.1
T4
X117.425Y-80.08
X117.425Y-83.53
X124.575Y-80.08
X124.575Y-83.53
M30
