%TF.GenerationSoftware,KiCad,Pcbnew,8.0.6*%
%TF.CreationDate,2025-01-16T10:56:52-08:00*%
%TF.ProjectId,DeskCleanerRobot2,4465736b-436c-4656-916e-6572526f626f,rev?*%
%TF.SameCoordinates,Original*%
%TF.FileFunction,Copper,L3,Inr*%
%TF.FilePolarity,Positive*%
%FSLAX46Y46*%
G04 Gerber Fmt 4.6, Leading zero omitted, Abs format (unit mm)*
G04 Created by KiCad (PCBNEW 8.0.6) date 2025-01-16 10:56:52*
%MOMM*%
%LPD*%
G01*
G04 APERTURE LIST*
%TA.AperFunction,ComponentPad*%
%ADD10C,2.000000*%
%TD*%
%TA.AperFunction,ComponentPad*%
%ADD11C,1.500000*%
%TD*%
%TA.AperFunction,ComponentPad*%
%ADD12C,1.995000*%
%TD*%
%TA.AperFunction,ViaPad*%
%ADD13C,0.685800*%
%TD*%
%TA.AperFunction,ViaPad*%
%ADD14C,0.889000*%
%TD*%
G04 APERTURE END LIST*
D10*
%TO.N,SC7*%
%TO.C,SC7*%
X116000000Y-33500000D03*
%TD*%
%TO.N,+3.3V*%
%TO.C,3V1*%
X100500000Y-42500000D03*
%TD*%
%TO.N,GND*%
%TO.C,-E1*%
X141850000Y-71400000D03*
%TD*%
%TO.N,ESCsignal*%
%TO.C,SIG1*%
X141850000Y-74400000D03*
%TD*%
%TO.N,SC3*%
%TO.C,SC3*%
X107000000Y-82500000D03*
%TD*%
%TO.N,GND*%
%TO.C,GN0*%
X109400000Y-33500000D03*
%TD*%
%TO.N,SD1*%
%TO.C,SD1*%
X100500000Y-45500000D03*
%TD*%
%TO.N,+3.3V*%
%TO.C,3V3*%
X100500000Y-82500000D03*
%TD*%
%TO.N,AOUT1*%
%TO.C,AO1*%
X141800000Y-52500000D03*
%TD*%
%TO.N,ESC+*%
%TO.C,+E1*%
X141850000Y-68400000D03*
%TD*%
%TO.N,BOUT2*%
%TO.C,BO2*%
X141800000Y-43500000D03*
%TD*%
%TO.N,+3.3V*%
%TO.C,3V7*%
X122000000Y-33500000D03*
%TD*%
D11*
%TO.N,unconnected-(BOOT1-Pad1)*%
%TO.C,BOOT1*%
X109100000Y-41900000D03*
%TO.N,Net-(IC8-IO0)*%
X109100000Y-48400000D03*
%TO.N,unconnected-(BOOT1-Pad3)*%
X104600000Y-41900000D03*
%TO.N,GND*%
X104600000Y-48400000D03*
%TD*%
D10*
%TO.N,GND*%
%TO.C,-BAT1*%
X142250000Y-80100000D03*
%TD*%
D12*
%TO.N,unconnected-(USB1-PadMH1)*%
%TO.C,USB1*%
X117425000Y-80080000D03*
%TO.N,unconnected-(USB1-PadMH2)*%
X124575000Y-80080000D03*
%TO.N,unconnected-(USB1-PadMH3)*%
X124575000Y-83530000D03*
%TO.N,unconnected-(USB1-PadMH4)*%
X117425000Y-83530000D03*
%TD*%
D10*
%TO.N,BOUT1*%
%TO.C,BO1*%
X141800000Y-46500000D03*
%TD*%
%TO.N,+BATT*%
%TO.C,+BAT1*%
X142250000Y-83100000D03*
%TD*%
%TO.N,GND*%
%TO.C,GN3*%
X100500000Y-79000000D03*
%TD*%
%TO.N,AOUT2*%
%TO.C,AO2*%
X141800000Y-49500000D03*
%TD*%
%TO.N,SD3*%
%TO.C,SD3*%
X104000000Y-82500000D03*
%TD*%
%TO.N,SD2*%
%TO.C,SD2*%
X100500000Y-70000000D03*
%TD*%
D11*
%TO.N,Net-(IC8-EN)*%
%TO.C,RESET1*%
X130250000Y-46150000D03*
%TO.N,unconnected-(RESET1-Pad2)*%
X130250000Y-39650000D03*
%TO.N,GND*%
X134750000Y-46150000D03*
%TO.N,unconnected-(RESET1-Pad4)*%
X134750000Y-39650000D03*
%TD*%
D10*
%TO.N,+3.3V*%
%TO.C,3V0*%
X106400000Y-33500000D03*
%TD*%
%TO.N,SD0*%
%TO.C,SD0*%
X103400000Y-33500000D03*
%TD*%
%TO.N,SC1*%
%TO.C,SC1*%
X100500000Y-48500000D03*
%TD*%
%TO.N,SC0*%
%TO.C,SC0*%
X100400000Y-33500000D03*
%TD*%
%TO.N,SC2*%
%TO.C,SC2*%
X100500000Y-73000000D03*
%TD*%
%TO.N,+3.3V*%
%TO.C,3V2*%
X100500000Y-67000000D03*
%TD*%
%TO.N,GND*%
%TO.C,GN1*%
X100500000Y-39500000D03*
%TD*%
%TO.N,GND*%
%TO.C,GN2*%
X100500000Y-64000000D03*
%TD*%
%TO.N,GND*%
%TO.C,GN7*%
X125000000Y-33500000D03*
%TD*%
%TO.N,SD7*%
%TO.C,SD7*%
X119000000Y-33500000D03*
%TD*%
D13*
%TO.N,+5V*%
X117100000Y-76800000D03*
X120700000Y-72900000D03*
D14*
%TO.N,+BATT*%
X136100000Y-80600000D03*
X129600000Y-79000000D03*
X109700000Y-79500000D03*
%TO.N,ESC+*%
X138700000Y-69800000D03*
X134000000Y-52700000D03*
D13*
%TO.N,+3.3V*%
X137850000Y-62515000D03*
X131000000Y-52500000D03*
X116500000Y-61500000D03*
X110800000Y-46600000D03*
X137350000Y-58515000D03*
X133350000Y-59415000D03*
X107500000Y-60500000D03*
X131750000Y-60215000D03*
X130950000Y-59415000D03*
X104700000Y-45000000D03*
X103000000Y-80500000D03*
X118600000Y-66000000D03*
X132150000Y-59415000D03*
X103500000Y-64500000D03*
X119000000Y-60500000D03*
X103900000Y-65600000D03*
X114600000Y-60900000D03*
X132750000Y-60215000D03*
X106600000Y-50500000D03*
X103400000Y-61000000D03*
X103500000Y-70500000D03*
X129700000Y-37300000D03*
X106600000Y-56800000D03*
X122000000Y-36000000D03*
X106600000Y-36500000D03*
%TO.N,SC2*%
X110500000Y-67625000D03*
X103600000Y-68900000D03*
%TO.N,SD0*%
X106500000Y-61500000D03*
%TO.N,SD3*%
X107000000Y-69000000D03*
%TO.N,SD2*%
X103500000Y-67000000D03*
X107000000Y-67000000D03*
%TO.N,SD1*%
X107000000Y-65000000D03*
%TO.N,SC0*%
X109500000Y-44000000D03*
X107000000Y-64000000D03*
%TO.N,SD7*%
X113300000Y-66100000D03*
X123500000Y-39500000D03*
%TO.N,SC3*%
X110500000Y-69500000D03*
%TO.N,SC1*%
X110500000Y-66000000D03*
%TO.N,SC7*%
X116700000Y-64500000D03*
X121000000Y-40900000D03*
%TO.N,ESCsignal*%
X129500000Y-54500000D03*
%TO.N,GND*%
X117000000Y-72000000D03*
X135550000Y-63415000D03*
X105500000Y-53500000D03*
X107650000Y-74950000D03*
X133800000Y-68800000D03*
X135550000Y-62615000D03*
X122500000Y-79000000D03*
X113500000Y-64000000D03*
X139300000Y-76100000D03*
X129800000Y-68800000D03*
X140300000Y-79100000D03*
X103400000Y-39800000D03*
X135150000Y-36350000D03*
X103500000Y-62900000D03*
X125500000Y-45500000D03*
X129450000Y-63415000D03*
X140300000Y-77700000D03*
X118500000Y-55000000D03*
X107500000Y-62000000D03*
X130350000Y-62615000D03*
X136600000Y-54900000D03*
X130350000Y-63415000D03*
X129800000Y-67400000D03*
X132000000Y-54900000D03*
X129450000Y-62615000D03*
X110800000Y-80200000D03*
X116500000Y-53000000D03*
X103200000Y-77800000D03*
X133800000Y-67400000D03*
X123600000Y-68800000D03*
X113000000Y-42500000D03*
X123600000Y-67400000D03*
X108400000Y-52800000D03*
X125000000Y-36600000D03*
X123600000Y-70200000D03*
X133800000Y-70200000D03*
X124150000Y-59450000D03*
X129800000Y-70200000D03*
X118400000Y-76100000D03*
X140400000Y-62750000D03*
X110500000Y-71000000D03*
X131950000Y-48000000D03*
X116500000Y-48500000D03*
X127000000Y-59350000D03*
X116500000Y-51000000D03*
X106250000Y-76550000D03*
X127000000Y-42500000D03*
X111000000Y-57800000D03*
X134500000Y-44500000D03*
X128100000Y-79900000D03*
X118500000Y-47500000D03*
X139400000Y-54900000D03*
X109600000Y-36500000D03*
%TD*%
%TA.AperFunction,Conductor*%
%TO.N,+3.3V*%
G36*
X143943039Y-30520185D02*
G01*
X143988794Y-30572989D01*
X144000000Y-30624500D01*
X144000000Y-80050906D01*
X143985250Y-80101137D01*
X143997456Y-80124102D01*
X144000000Y-80149093D01*
X144000000Y-83050906D01*
X143985250Y-83101137D01*
X143997456Y-83124102D01*
X144000000Y-83149093D01*
X144000000Y-86375500D01*
X143980315Y-86442539D01*
X143927511Y-86488294D01*
X143876000Y-86499500D01*
X98224500Y-86499500D01*
X98157461Y-86479815D01*
X98111706Y-86427011D01*
X98100500Y-86375500D01*
X98100500Y-85043995D01*
X132699499Y-85043995D01*
X132726418Y-85179322D01*
X132726421Y-85179332D01*
X132779221Y-85306804D01*
X132779228Y-85306817D01*
X132855885Y-85421541D01*
X132855888Y-85421545D01*
X132953454Y-85519111D01*
X132953458Y-85519114D01*
X133068182Y-85595771D01*
X133068195Y-85595778D01*
X133195667Y-85648578D01*
X133195672Y-85648580D01*
X133195676Y-85648580D01*
X133195677Y-85648581D01*
X133331004Y-85675500D01*
X133331007Y-85675500D01*
X133468995Y-85675500D01*
X133560041Y-85657389D01*
X133604328Y-85648580D01*
X133731811Y-85595775D01*
X133846542Y-85519114D01*
X133944114Y-85421542D01*
X134020775Y-85306811D01*
X134073580Y-85179328D01*
X134100500Y-85043995D01*
X135699499Y-85043995D01*
X135726418Y-85179322D01*
X135726421Y-85179332D01*
X135779221Y-85306804D01*
X135779228Y-85306817D01*
X135855885Y-85421541D01*
X135855888Y-85421545D01*
X135953454Y-85519111D01*
X135953458Y-85519114D01*
X136068182Y-85595771D01*
X136068195Y-85595778D01*
X136195667Y-85648578D01*
X136195672Y-85648580D01*
X136195676Y-85648580D01*
X136195677Y-85648581D01*
X136331004Y-85675500D01*
X136331007Y-85675500D01*
X136468995Y-85675500D01*
X136560041Y-85657389D01*
X136604328Y-85648580D01*
X136731811Y-85595775D01*
X136846542Y-85519114D01*
X136944114Y-85421542D01*
X137020775Y-85306811D01*
X137073580Y-85179328D01*
X137100500Y-85043993D01*
X137100500Y-84906007D01*
X137100500Y-84906004D01*
X137073581Y-84770677D01*
X137073580Y-84770676D01*
X137073580Y-84770672D01*
X137073578Y-84770667D01*
X137020778Y-84643195D01*
X137020771Y-84643182D01*
X136944114Y-84528458D01*
X136944111Y-84528454D01*
X136846545Y-84430888D01*
X136846541Y-84430885D01*
X136731817Y-84354228D01*
X136731804Y-84354221D01*
X136604332Y-84301421D01*
X136604322Y-84301418D01*
X136468995Y-84274500D01*
X136468993Y-84274500D01*
X136331007Y-84274500D01*
X136331005Y-84274500D01*
X136195677Y-84301418D01*
X136195667Y-84301421D01*
X136068195Y-84354221D01*
X136068182Y-84354228D01*
X135953458Y-84430885D01*
X135953454Y-84430888D01*
X135855888Y-84528454D01*
X135855885Y-84528458D01*
X135779228Y-84643182D01*
X135779221Y-84643195D01*
X135726421Y-84770667D01*
X135726418Y-84770677D01*
X135699500Y-84906004D01*
X135699500Y-84906007D01*
X135699500Y-85043993D01*
X135699500Y-85043995D01*
X135699499Y-85043995D01*
X134100500Y-85043995D01*
X134100500Y-85043993D01*
X134100500Y-84906007D01*
X134100500Y-84906004D01*
X134073581Y-84770677D01*
X134073580Y-84770676D01*
X134073580Y-84770672D01*
X134073578Y-84770667D01*
X134020778Y-84643195D01*
X134020771Y-84643182D01*
X133944114Y-84528458D01*
X133944111Y-84528454D01*
X133846545Y-84430888D01*
X133846541Y-84430885D01*
X133731817Y-84354228D01*
X133731804Y-84354221D01*
X133604332Y-84301421D01*
X133604322Y-84301418D01*
X133468995Y-84274500D01*
X133468993Y-84274500D01*
X133331007Y-84274500D01*
X133331005Y-84274500D01*
X133195677Y-84301418D01*
X133195667Y-84301421D01*
X133068195Y-84354221D01*
X133068182Y-84354228D01*
X132953458Y-84430885D01*
X132953454Y-84430888D01*
X132855888Y-84528454D01*
X132855885Y-84528458D01*
X132779228Y-84643182D01*
X132779221Y-84643195D01*
X132726421Y-84770667D01*
X132726418Y-84770677D01*
X132699500Y-84906004D01*
X132699500Y-84906007D01*
X132699500Y-85043993D01*
X132699500Y-85043995D01*
X132699499Y-85043995D01*
X98100500Y-85043995D01*
X98100500Y-82499994D01*
X98994859Y-82499994D01*
X98994859Y-82500005D01*
X99015385Y-82747729D01*
X99015387Y-82747738D01*
X99076412Y-82988717D01*
X99176266Y-83216364D01*
X99276564Y-83369882D01*
X100017037Y-82629409D01*
X100034075Y-82692993D01*
X100099901Y-82807007D01*
X100192993Y-82900099D01*
X100307007Y-82965925D01*
X100370590Y-82982962D01*
X99629942Y-83723609D01*
X99676768Y-83760055D01*
X99676770Y-83760056D01*
X99895385Y-83878364D01*
X99895396Y-83878369D01*
X100130506Y-83959083D01*
X100375707Y-84000000D01*
X100624293Y-84000000D01*
X100869493Y-83959083D01*
X101104603Y-83878369D01*
X101104614Y-83878364D01*
X101323228Y-83760057D01*
X101323231Y-83760055D01*
X101370056Y-83723609D01*
X100629409Y-82982962D01*
X100692993Y-82965925D01*
X100807007Y-82900099D01*
X100900099Y-82807007D01*
X100965925Y-82692993D01*
X100982962Y-82629409D01*
X101723434Y-83369882D01*
X101823731Y-83216369D01*
X101923587Y-82988717D01*
X101984612Y-82747738D01*
X101984614Y-82747729D01*
X102005141Y-82500005D01*
X102005141Y-82499994D01*
X102494357Y-82499994D01*
X102494357Y-82500005D01*
X102514890Y-82747812D01*
X102514892Y-82747824D01*
X102575936Y-82988881D01*
X102675826Y-83216606D01*
X102811833Y-83424782D01*
X102811836Y-83424785D01*
X102980256Y-83607738D01*
X103176491Y-83760474D01*
X103176493Y-83760475D01*
X103394332Y-83878364D01*
X103395190Y-83878828D01*
X103614141Y-83953994D01*
X103628964Y-83959083D01*
X103630386Y-83959571D01*
X103875665Y-84000500D01*
X104124335Y-84000500D01*
X104369614Y-83959571D01*
X104604810Y-83878828D01*
X104823509Y-83760474D01*
X105019744Y-83607738D01*
X105188164Y-83424785D01*
X105324173Y-83216607D01*
X105374823Y-83101137D01*
X105386444Y-83074644D01*
X105431400Y-83021158D01*
X105498136Y-83000468D01*
X105565464Y-83019143D01*
X105612007Y-83071253D01*
X105613556Y-83074644D01*
X105675826Y-83216606D01*
X105811833Y-83424782D01*
X105811836Y-83424785D01*
X105980256Y-83607738D01*
X106176491Y-83760474D01*
X106176493Y-83760475D01*
X106394332Y-83878364D01*
X106395190Y-83878828D01*
X106614141Y-83953994D01*
X106628964Y-83959083D01*
X106630386Y-83959571D01*
X106875665Y-84000500D01*
X107124335Y-84000500D01*
X107369614Y-83959571D01*
X107604810Y-83878828D01*
X107823509Y-83760474D01*
X108019744Y-83607738D01*
X108091312Y-83529994D01*
X115921866Y-83529994D01*
X115921866Y-83530005D01*
X115942366Y-83777404D01*
X116003309Y-84018065D01*
X116103033Y-84245414D01*
X116178206Y-84360474D01*
X116238816Y-84453244D01*
X116406955Y-84635892D01*
X116602864Y-84788373D01*
X116803216Y-84896798D01*
X116820231Y-84906007D01*
X116821198Y-84906530D01*
X117056002Y-84987138D01*
X117300872Y-85028000D01*
X117300873Y-85028000D01*
X117549127Y-85028000D01*
X117549128Y-85028000D01*
X117793998Y-84987138D01*
X118028802Y-84906530D01*
X118247136Y-84788373D01*
X118443045Y-84635892D01*
X118611184Y-84453244D01*
X118746967Y-84245413D01*
X118846690Y-84018067D01*
X118907633Y-83777408D01*
X118916744Y-83667448D01*
X118928134Y-83530005D01*
X118928134Y-83529994D01*
X123071866Y-83529994D01*
X123071866Y-83530005D01*
X123092366Y-83777404D01*
X123153309Y-84018065D01*
X123253033Y-84245414D01*
X123328206Y-84360474D01*
X123388816Y-84453244D01*
X123556955Y-84635892D01*
X123752864Y-84788373D01*
X123953216Y-84896798D01*
X123970231Y-84906007D01*
X123971198Y-84906530D01*
X124206002Y-84987138D01*
X124450872Y-85028000D01*
X124450873Y-85028000D01*
X124699127Y-85028000D01*
X124699128Y-85028000D01*
X124943998Y-84987138D01*
X125178802Y-84906530D01*
X125397136Y-84788373D01*
X125593045Y-84635892D01*
X125761184Y-84453244D01*
X125896967Y-84245413D01*
X125996690Y-84018067D01*
X126057633Y-83777408D01*
X126066744Y-83667448D01*
X126078134Y-83530005D01*
X126078134Y-83529994D01*
X126057633Y-83282595D01*
X126057633Y-83282592D01*
X125996690Y-83041933D01*
X125896967Y-82814587D01*
X125853348Y-82747824D01*
X125829075Y-82710671D01*
X125761184Y-82606756D01*
X125593045Y-82424108D01*
X125397136Y-82271627D01*
X125218987Y-82175217D01*
X125178803Y-82153470D01*
X125178797Y-82153468D01*
X124944000Y-82072862D01*
X124780751Y-82045620D01*
X124699128Y-82032000D01*
X124450872Y-82032000D01*
X124389654Y-82042215D01*
X124205999Y-82072862D01*
X123971202Y-82153468D01*
X123971196Y-82153470D01*
X123752862Y-82271628D01*
X123556957Y-82424106D01*
X123388817Y-82606754D01*
X123388814Y-82606758D01*
X123253033Y-82814585D01*
X123153309Y-83041934D01*
X123092366Y-83282595D01*
X123071866Y-83529994D01*
X118928134Y-83529994D01*
X118907633Y-83282595D01*
X118907633Y-83282592D01*
X118846690Y-83041933D01*
X118746967Y-82814587D01*
X118703348Y-82747824D01*
X118679075Y-82710671D01*
X118611184Y-82606756D01*
X118443045Y-82424108D01*
X118247136Y-82271627D01*
X118068987Y-82175217D01*
X118028803Y-82153470D01*
X118028797Y-82153468D01*
X117794000Y-82072862D01*
X117630751Y-82045620D01*
X117549128Y-82032000D01*
X117300872Y-82032000D01*
X117239654Y-82042215D01*
X117055999Y-82072862D01*
X116821202Y-82153468D01*
X116821196Y-82153470D01*
X116602862Y-82271628D01*
X116406957Y-82424106D01*
X116238817Y-82606754D01*
X116238814Y-82606758D01*
X116103033Y-82814585D01*
X116003309Y-83041934D01*
X115942366Y-83282595D01*
X115921866Y-83529994D01*
X108091312Y-83529994D01*
X108188164Y-83424785D01*
X108324173Y-83216607D01*
X108424063Y-82988881D01*
X108485108Y-82747821D01*
X108489651Y-82692993D01*
X108505643Y-82500005D01*
X108505643Y-82499994D01*
X108485109Y-82252187D01*
X108485107Y-82252175D01*
X108424063Y-82011118D01*
X108324173Y-81783393D01*
X108188166Y-81575217D01*
X108099435Y-81478830D01*
X108019744Y-81392262D01*
X107823509Y-81239526D01*
X107823507Y-81239525D01*
X107823506Y-81239524D01*
X107604811Y-81121172D01*
X107604802Y-81121169D01*
X107369616Y-81040429D01*
X107124335Y-80999500D01*
X106875665Y-80999500D01*
X106630383Y-81040429D01*
X106395197Y-81121169D01*
X106395188Y-81121172D01*
X106176493Y-81239524D01*
X105980257Y-81392261D01*
X105811833Y-81575217D01*
X105675826Y-81783393D01*
X105613556Y-81925355D01*
X105568600Y-81978841D01*
X105501864Y-81999531D01*
X105434536Y-81980856D01*
X105387993Y-81928746D01*
X105386444Y-81925355D01*
X105324173Y-81783393D01*
X105188166Y-81575217D01*
X105099435Y-81478830D01*
X105019744Y-81392262D01*
X104823509Y-81239526D01*
X104823507Y-81239525D01*
X104823506Y-81239524D01*
X104604811Y-81121172D01*
X104604802Y-81121169D01*
X104369616Y-81040429D01*
X104124335Y-80999500D01*
X103875665Y-80999500D01*
X103630383Y-81040429D01*
X103395197Y-81121169D01*
X103395188Y-81121172D01*
X103176493Y-81239524D01*
X102980257Y-81392261D01*
X102811833Y-81575217D01*
X102675826Y-81783393D01*
X102575936Y-82011118D01*
X102514892Y-82252175D01*
X102514890Y-82252187D01*
X102494357Y-82499994D01*
X102005141Y-82499994D01*
X101984614Y-82252270D01*
X101984612Y-82252261D01*
X101923587Y-82011282D01*
X101823731Y-81783630D01*
X101723434Y-81630116D01*
X100982962Y-82370589D01*
X100965925Y-82307007D01*
X100900099Y-82192993D01*
X100807007Y-82099901D01*
X100692993Y-82034075D01*
X100629410Y-82017037D01*
X101370057Y-81276390D01*
X101370056Y-81276389D01*
X101323229Y-81239943D01*
X101104614Y-81121635D01*
X101104603Y-81121630D01*
X100869493Y-81040916D01*
X100624293Y-81000000D01*
X100375707Y-81000000D01*
X100130506Y-81040916D01*
X99895396Y-81121630D01*
X99895390Y-81121632D01*
X99676761Y-81239949D01*
X99629942Y-81276388D01*
X99629942Y-81276390D01*
X100370590Y-82017037D01*
X100307007Y-82034075D01*
X100192993Y-82099901D01*
X100099901Y-82192993D01*
X100034075Y-82307007D01*
X100017037Y-82370589D01*
X99276564Y-81630116D01*
X99176267Y-81783632D01*
X99076412Y-82011282D01*
X99015387Y-82252261D01*
X99015385Y-82252270D01*
X98994859Y-82499994D01*
X98100500Y-82499994D01*
X98100500Y-78999994D01*
X98994357Y-78999994D01*
X98994357Y-79000005D01*
X99014890Y-79247812D01*
X99014892Y-79247824D01*
X99075936Y-79488881D01*
X99175826Y-79716606D01*
X99311833Y-79924782D01*
X99311836Y-79924785D01*
X99480256Y-80107738D01*
X99676491Y-80260474D01*
X99676493Y-80260475D01*
X99890555Y-80376320D01*
X99895190Y-80378828D01*
X100130386Y-80459571D01*
X100375665Y-80500500D01*
X100624335Y-80500500D01*
X100869614Y-80459571D01*
X101104810Y-80378828D01*
X101323509Y-80260474D01*
X101519744Y-80107738D01*
X101688164Y-79924785D01*
X101824173Y-79716607D01*
X101919186Y-79500000D01*
X108750428Y-79500000D01*
X108768673Y-79685250D01*
X108822711Y-79863389D01*
X108910458Y-80027552D01*
X108910460Y-80027554D01*
X109028550Y-80171449D01*
X109172445Y-80289539D01*
X109172447Y-80289541D01*
X109336610Y-80377288D01*
X109336612Y-80377288D01*
X109336615Y-80377290D01*
X109514748Y-80431326D01*
X109514747Y-80431326D01*
X109532993Y-80433123D01*
X109700000Y-80449572D01*
X109885252Y-80431326D01*
X109885254Y-80431325D01*
X109885897Y-80431262D01*
X109954544Y-80444281D01*
X110005254Y-80492345D01*
X110015982Y-80516344D01*
X110025271Y-80544931D01*
X110025272Y-80544933D01*
X110025273Y-80544935D01*
X110050645Y-80588881D01*
X110113916Y-80698469D01*
X110133294Y-80719990D01*
X110232543Y-80830219D01*
X110232546Y-80830221D01*
X110375977Y-80934429D01*
X110537933Y-81006538D01*
X110537936Y-81006538D01*
X110537939Y-81006540D01*
X110711355Y-81043400D01*
X110888645Y-81043400D01*
X111062061Y-81006540D01*
X111062064Y-81006538D01*
X111062066Y-81006538D01*
X111094869Y-80991932D01*
X111224023Y-80934429D01*
X111367454Y-80830221D01*
X111486084Y-80698469D01*
X111574729Y-80544931D01*
X111629514Y-80376319D01*
X111648046Y-80200000D01*
X111635433Y-80079994D01*
X115921866Y-80079994D01*
X115921866Y-80080005D01*
X115942366Y-80327404D01*
X116003309Y-80568065D01*
X116103033Y-80795414D01*
X116193401Y-80933732D01*
X116238816Y-81003244D01*
X116406955Y-81185892D01*
X116602864Y-81338373D01*
X116821198Y-81456530D01*
X117056002Y-81537138D01*
X117300872Y-81578000D01*
X117300873Y-81578000D01*
X117549127Y-81578000D01*
X117549128Y-81578000D01*
X117793998Y-81537138D01*
X118028802Y-81456530D01*
X118241484Y-81341431D01*
X118309810Y-81326837D01*
X118375183Y-81351500D01*
X118416844Y-81407590D01*
X118424500Y-81450487D01*
X118424500Y-81475766D01*
X118425321Y-81478830D01*
X118463719Y-81622136D01*
X118474281Y-81640429D01*
X118539485Y-81753365D01*
X118646635Y-81860515D01*
X118777865Y-81936281D01*
X118924234Y-81975500D01*
X118924236Y-81975500D01*
X119075764Y-81975500D01*
X119075766Y-81975500D01*
X119222135Y-81936281D01*
X119353365Y-81860515D01*
X119460515Y-81753365D01*
X119536281Y-81622135D01*
X119575500Y-81475766D01*
X119575500Y-81324234D01*
X119536281Y-81177865D01*
X119460515Y-81046635D01*
X119353365Y-80939485D01*
X119287750Y-80901602D01*
X119222136Y-80863719D01*
X119097117Y-80830221D01*
X119075766Y-80824500D01*
X118924234Y-80824500D01*
X118924004Y-80824500D01*
X118856965Y-80804815D01*
X118811210Y-80752011D01*
X118801266Y-80682853D01*
X118810448Y-80650690D01*
X118817581Y-80634429D01*
X118846690Y-80568067D01*
X118907633Y-80327408D01*
X118925836Y-80107738D01*
X118928134Y-80080005D01*
X118928134Y-80079994D01*
X118910185Y-79863389D01*
X118907633Y-79832592D01*
X118846690Y-79591933D01*
X118746967Y-79364587D01*
X118746184Y-79363389D01*
X118611185Y-79156758D01*
X118611184Y-79156756D01*
X118466880Y-79000000D01*
X121651954Y-79000000D01*
X121670486Y-79176320D01*
X121670487Y-79176322D01*
X121725271Y-79344933D01*
X121725272Y-79344934D01*
X121794922Y-79465570D01*
X121813916Y-79498469D01*
X121861414Y-79551221D01*
X121932543Y-79630219D01*
X121932546Y-79630221D01*
X122075977Y-79734429D01*
X122237933Y-79806538D01*
X122237936Y-79806538D01*
X122237939Y-79806540D01*
X122411355Y-79843400D01*
X122588645Y-79843400D01*
X122762061Y-79806540D01*
X122915959Y-79738019D01*
X122985204Y-79728734D01*
X123048481Y-79758362D01*
X123085695Y-79817497D01*
X123089968Y-79861538D01*
X123083185Y-79943399D01*
X123071867Y-80079994D01*
X123071866Y-80080004D01*
X123071866Y-80080005D01*
X123092366Y-80327404D01*
X123153309Y-80568065D01*
X123189552Y-80650690D01*
X123198455Y-80719990D01*
X123168478Y-80783102D01*
X123109138Y-80819989D01*
X123075996Y-80824500D01*
X122924234Y-80824500D01*
X122777863Y-80863719D01*
X122646635Y-80939485D01*
X122646632Y-80939487D01*
X122539487Y-81046632D01*
X122539485Y-81046635D01*
X122463719Y-81177863D01*
X122424500Y-81324234D01*
X122424500Y-81475766D01*
X122425321Y-81478830D01*
X122463719Y-81622136D01*
X122474281Y-81640429D01*
X122539485Y-81753365D01*
X122646635Y-81860515D01*
X122777865Y-81936281D01*
X122924234Y-81975500D01*
X122924236Y-81975500D01*
X123075764Y-81975500D01*
X123075766Y-81975500D01*
X123222135Y-81936281D01*
X123353365Y-81860515D01*
X123460515Y-81753365D01*
X123536281Y-81622135D01*
X123575500Y-81475766D01*
X123575500Y-81450487D01*
X123595185Y-81383448D01*
X123647989Y-81337693D01*
X123717147Y-81327749D01*
X123758514Y-81341430D01*
X123951480Y-81445859D01*
X123960031Y-81450487D01*
X123971198Y-81456530D01*
X124206002Y-81537138D01*
X124450872Y-81578000D01*
X124450873Y-81578000D01*
X124699127Y-81578000D01*
X124699128Y-81578000D01*
X124943998Y-81537138D01*
X125178802Y-81456530D01*
X125397136Y-81338373D01*
X125593045Y-81185892D01*
X125761184Y-81003244D01*
X125896967Y-80795413D01*
X125996690Y-80568067D01*
X126057633Y-80327408D01*
X126075836Y-80107738D01*
X126078134Y-80080005D01*
X126078134Y-80079994D01*
X126063219Y-79900000D01*
X127251954Y-79900000D01*
X127270486Y-80076320D01*
X127270487Y-80076322D01*
X127325271Y-80244933D01*
X127325272Y-80244934D01*
X127372889Y-80327408D01*
X127413916Y-80398469D01*
X127428574Y-80414748D01*
X127532543Y-80530219D01*
X127532546Y-80530221D01*
X127675977Y-80634429D01*
X127837933Y-80706538D01*
X127837936Y-80706538D01*
X127837939Y-80706540D01*
X128011355Y-80743400D01*
X128188645Y-80743400D01*
X128362061Y-80706540D01*
X128362064Y-80706538D01*
X128362066Y-80706538D01*
X128415262Y-80682853D01*
X128524023Y-80634429D01*
X128571411Y-80600000D01*
X135150428Y-80600000D01*
X135168673Y-80785250D01*
X135222711Y-80963389D01*
X135310458Y-81127552D01*
X135310460Y-81127554D01*
X135428550Y-81271449D01*
X135572445Y-81389539D01*
X135572447Y-81389541D01*
X135736610Y-81477288D01*
X135736612Y-81477288D01*
X135736615Y-81477290D01*
X135914748Y-81531326D01*
X135914747Y-81531326D01*
X135931357Y-81532961D01*
X136100000Y-81549572D01*
X136285252Y-81531326D01*
X136463385Y-81477290D01*
X136502223Y-81456531D01*
X136627552Y-81389541D01*
X136627551Y-81389541D01*
X136627554Y-81389540D01*
X136771449Y-81271449D01*
X136889540Y-81127554D01*
X136954224Y-81006538D01*
X136977288Y-80963389D01*
X136977288Y-80963388D01*
X136977290Y-80963385D01*
X137031326Y-80785252D01*
X137049572Y-80600000D01*
X137031326Y-80414748D01*
X136977290Y-80236615D01*
X136977288Y-80236612D01*
X136977288Y-80236610D01*
X136889541Y-80072447D01*
X136889539Y-80072445D01*
X136771449Y-79928550D01*
X136627554Y-79810460D01*
X136627552Y-79810458D01*
X136463389Y-79722711D01*
X136339896Y-79685250D01*
X136285252Y-79668674D01*
X136285250Y-79668673D01*
X136285252Y-79668673D01*
X136100000Y-79650428D01*
X135914749Y-79668673D01*
X135736610Y-79722711D01*
X135572447Y-79810458D01*
X135572445Y-79810460D01*
X135428550Y-79928550D01*
X135310460Y-80072445D01*
X135310458Y-80072447D01*
X135222711Y-80236610D01*
X135168673Y-80414749D01*
X135150428Y-80600000D01*
X128571411Y-80600000D01*
X128667454Y-80530221D01*
X128786084Y-80398469D01*
X128874729Y-80244931D01*
X128929514Y-80076319D01*
X128946394Y-79915717D01*
X128972978Y-79851106D01*
X129030275Y-79811121D01*
X129100094Y-79808461D01*
X129128167Y-79819324D01*
X129236610Y-79877288D01*
X129236612Y-79877288D01*
X129236615Y-79877290D01*
X129414748Y-79931326D01*
X129414747Y-79931326D01*
X129431357Y-79932961D01*
X129600000Y-79949572D01*
X129785252Y-79931326D01*
X129963385Y-79877290D01*
X129989400Y-79863385D01*
X130127552Y-79789541D01*
X130127551Y-79789541D01*
X130127554Y-79789540D01*
X130271449Y-79671449D01*
X130389540Y-79527554D01*
X130477290Y-79363385D01*
X130531326Y-79185252D01*
X130549572Y-79000000D01*
X130531326Y-78814748D01*
X130477290Y-78636615D01*
X130477288Y-78636612D01*
X130477288Y-78636610D01*
X130389541Y-78472447D01*
X130389539Y-78472445D01*
X130271449Y-78328550D01*
X130127554Y-78210460D01*
X130127552Y-78210458D01*
X129963389Y-78122711D01*
X129806821Y-78075217D01*
X129785252Y-78068674D01*
X129785250Y-78068673D01*
X129785252Y-78068673D01*
X129600000Y-78050428D01*
X129414749Y-78068673D01*
X129236610Y-78122711D01*
X129072447Y-78210458D01*
X129072445Y-78210460D01*
X128928550Y-78328550D01*
X128810460Y-78472445D01*
X128810458Y-78472447D01*
X128722711Y-78636610D01*
X128668673Y-78814749D01*
X128650428Y-79000000D01*
X128652387Y-79019890D01*
X128639368Y-79088536D01*
X128591303Y-79139246D01*
X128523452Y-79155921D01*
X128478548Y-79145324D01*
X128464897Y-79139246D01*
X128362061Y-79093460D01*
X128362059Y-79093459D01*
X128362058Y-79093459D01*
X128188645Y-79056600D01*
X128011355Y-79056600D01*
X127837941Y-79093459D01*
X127837933Y-79093461D01*
X127675978Y-79165570D01*
X127532543Y-79269780D01*
X127413915Y-79401532D01*
X127325272Y-79555065D01*
X127325271Y-79555066D01*
X127270487Y-79723677D01*
X127270486Y-79723679D01*
X127251954Y-79900000D01*
X126063219Y-79900000D01*
X126060185Y-79863389D01*
X126057633Y-79832592D01*
X125996690Y-79591933D01*
X125896967Y-79364587D01*
X125896184Y-79363389D01*
X125761185Y-79156758D01*
X125761184Y-79156756D01*
X125593045Y-78974108D01*
X125397136Y-78821627D01*
X125268801Y-78752175D01*
X125178803Y-78703470D01*
X125178797Y-78703468D01*
X124944000Y-78622862D01*
X124780751Y-78595620D01*
X124699128Y-78582000D01*
X124450872Y-78582000D01*
X124389654Y-78592215D01*
X124205999Y-78622862D01*
X123971202Y-78703468D01*
X123971196Y-78703470D01*
X123752862Y-78821628D01*
X123556955Y-78974107D01*
X123556954Y-78974108D01*
X123552872Y-78978543D01*
X123492983Y-79014531D01*
X123423145Y-79012428D01*
X123365531Y-78972901D01*
X123338433Y-78908500D01*
X123338340Y-78907658D01*
X123329514Y-78823681D01*
X123274729Y-78655069D01*
X123274728Y-78655068D01*
X123274728Y-78655066D01*
X123274727Y-78655065D01*
X123224848Y-78568673D01*
X123186084Y-78501531D01*
X123121876Y-78430221D01*
X123067456Y-78369780D01*
X122994847Y-78317027D01*
X122924023Y-78265571D01*
X122924021Y-78265570D01*
X122924022Y-78265570D01*
X122762066Y-78193461D01*
X122762058Y-78193459D01*
X122588645Y-78156600D01*
X122411355Y-78156600D01*
X122237941Y-78193459D01*
X122237933Y-78193461D01*
X122075978Y-78265570D01*
X121932543Y-78369780D01*
X121813915Y-78501532D01*
X121725272Y-78655065D01*
X121725271Y-78655066D01*
X121670487Y-78823677D01*
X121670486Y-78823679D01*
X121651954Y-79000000D01*
X118466880Y-79000000D01*
X118443045Y-78974108D01*
X118247136Y-78821627D01*
X118118801Y-78752175D01*
X118028803Y-78703470D01*
X118028797Y-78703468D01*
X117794000Y-78622862D01*
X117630751Y-78595620D01*
X117549128Y-78582000D01*
X117300872Y-78582000D01*
X117239654Y-78592215D01*
X117055999Y-78622862D01*
X116821202Y-78703468D01*
X116821196Y-78703470D01*
X116602862Y-78821628D01*
X116406957Y-78974106D01*
X116238817Y-79156754D01*
X116238814Y-79156758D01*
X116103033Y-79364585D01*
X116003309Y-79591934D01*
X115942366Y-79832595D01*
X115921866Y-80079994D01*
X111635433Y-80079994D01*
X111629514Y-80023681D01*
X111574729Y-79855069D01*
X111574728Y-79855068D01*
X111574728Y-79855066D01*
X111574727Y-79855065D01*
X111507151Y-79738020D01*
X111486084Y-79701531D01*
X111421876Y-79630221D01*
X111367456Y-79569780D01*
X111271411Y-79500000D01*
X111224023Y-79465571D01*
X111224021Y-79465570D01*
X111224022Y-79465570D01*
X111062066Y-79393461D01*
X111062058Y-79393459D01*
X110888645Y-79356600D01*
X110735986Y-79356600D01*
X110668947Y-79336915D01*
X110623192Y-79284111D01*
X110617328Y-79268603D01*
X110577290Y-79136615D01*
X110577288Y-79136612D01*
X110577288Y-79136610D01*
X110489541Y-78972447D01*
X110489539Y-78972445D01*
X110371449Y-78828550D01*
X110227554Y-78710460D01*
X110227552Y-78710458D01*
X110063389Y-78622711D01*
X109929182Y-78582000D01*
X109885252Y-78568674D01*
X109885250Y-78568673D01*
X109885252Y-78568673D01*
X109700000Y-78550428D01*
X109514749Y-78568673D01*
X109336610Y-78622711D01*
X109172447Y-78710458D01*
X109172445Y-78710460D01*
X109028550Y-78828550D01*
X108910460Y-78972445D01*
X108910458Y-78972447D01*
X108822711Y-79136610D01*
X108768673Y-79314749D01*
X108750428Y-79500000D01*
X101919186Y-79500000D01*
X101924063Y-79488881D01*
X101985108Y-79247821D01*
X101991124Y-79175217D01*
X102005643Y-79000005D01*
X102005643Y-78999994D01*
X101985109Y-78752187D01*
X101985107Y-78752175D01*
X101924063Y-78511118D01*
X101824173Y-78283393D01*
X101688166Y-78075217D01*
X101660286Y-78044931D01*
X101519744Y-77892262D01*
X101401206Y-77800000D01*
X102351954Y-77800000D01*
X102370486Y-77976320D01*
X102370487Y-77976322D01*
X102425271Y-78144933D01*
X102425272Y-78144934D01*
X102456178Y-78198464D01*
X102513916Y-78298469D01*
X102530626Y-78317027D01*
X102632543Y-78430219D01*
X102632546Y-78430221D01*
X102775977Y-78534429D01*
X102937933Y-78606538D01*
X102937936Y-78606538D01*
X102937939Y-78606540D01*
X103111355Y-78643400D01*
X103288645Y-78643400D01*
X103462061Y-78606540D01*
X103462064Y-78606538D01*
X103462066Y-78606538D01*
X103547108Y-78568674D01*
X103624023Y-78534429D01*
X103767454Y-78430221D01*
X103886084Y-78298469D01*
X103974729Y-78144931D01*
X104029514Y-77976319D01*
X104048046Y-77800000D01*
X104029514Y-77623681D01*
X103974729Y-77455069D01*
X103974728Y-77455068D01*
X103974728Y-77455066D01*
X103974727Y-77455065D01*
X103916992Y-77355065D01*
X103886084Y-77301531D01*
X103796044Y-77201531D01*
X103767456Y-77169780D01*
X103629816Y-77069780D01*
X103624023Y-77065571D01*
X103624021Y-77065570D01*
X103624022Y-77065570D01*
X103462066Y-76993461D01*
X103462058Y-76993459D01*
X103288645Y-76956600D01*
X103111355Y-76956600D01*
X102937941Y-76993459D01*
X102937933Y-76993461D01*
X102775978Y-77065570D01*
X102632543Y-77169780D01*
X102513915Y-77301532D01*
X102425272Y-77455065D01*
X102425271Y-77455066D01*
X102370487Y-77623677D01*
X102370486Y-77623679D01*
X102351954Y-77800000D01*
X101401206Y-77800000D01*
X101323509Y-77739526D01*
X101323507Y-77739525D01*
X101323506Y-77739524D01*
X101104811Y-77621172D01*
X101104802Y-77621169D01*
X100869616Y-77540429D01*
X100624335Y-77499500D01*
X100375665Y-77499500D01*
X100130383Y-77540429D01*
X99895197Y-77621169D01*
X99895188Y-77621172D01*
X99676493Y-77739524D01*
X99480257Y-77892261D01*
X99311833Y-78075217D01*
X99175826Y-78283393D01*
X99075936Y-78511118D01*
X99014892Y-78752175D01*
X99014890Y-78752187D01*
X98994357Y-78999994D01*
X98100500Y-78999994D01*
X98100500Y-76550000D01*
X105401954Y-76550000D01*
X105420486Y-76726320D01*
X105420487Y-76726322D01*
X105475271Y-76894933D01*
X105475272Y-76894934D01*
X105532157Y-76993461D01*
X105563916Y-77048469D01*
X105579314Y-77065570D01*
X105682543Y-77180219D01*
X105682546Y-77180221D01*
X105825977Y-77284429D01*
X105987933Y-77356538D01*
X105987936Y-77356538D01*
X105987939Y-77356540D01*
X106161355Y-77393400D01*
X106338645Y-77393400D01*
X106512061Y-77356540D01*
X106512064Y-77356538D01*
X106512066Y-77356538D01*
X106544869Y-77341932D01*
X106674023Y-77284429D01*
X106817454Y-77180221D01*
X106936084Y-77048469D01*
X107024729Y-76894931D01*
X107055574Y-76800000D01*
X116251954Y-76800000D01*
X116270486Y-76976320D01*
X116270487Y-76976322D01*
X116325271Y-77144933D01*
X116325272Y-77144934D01*
X116398450Y-77271682D01*
X116413916Y-77298469D01*
X116461414Y-77351221D01*
X116532543Y-77430219D01*
X116532546Y-77430221D01*
X116675977Y-77534429D01*
X116837933Y-77606538D01*
X116837936Y-77606538D01*
X116837939Y-77606540D01*
X117011355Y-77643400D01*
X117188645Y-77643400D01*
X117362061Y-77606540D01*
X117362064Y-77606538D01*
X117362066Y-77606538D01*
X117394869Y-77591932D01*
X117524023Y-77534429D01*
X117667454Y-77430221D01*
X117786084Y-77298469D01*
X117874729Y-77144931D01*
X117929514Y-76976319D01*
X117929514Y-76976317D01*
X117931522Y-76970138D01*
X117933008Y-76970620D01*
X117962418Y-76916117D01*
X118023573Y-76882327D01*
X118093289Y-76886964D01*
X118100971Y-76890081D01*
X118137933Y-76906538D01*
X118137936Y-76906538D01*
X118137939Y-76906540D01*
X118311355Y-76943400D01*
X118488645Y-76943400D01*
X118662061Y-76906540D01*
X118662064Y-76906538D01*
X118662066Y-76906538D01*
X118706029Y-76886964D01*
X118824023Y-76834429D01*
X118967454Y-76730221D01*
X118970967Y-76726320D01*
X118998401Y-76695851D01*
X119086084Y-76598469D01*
X119174729Y-76444931D01*
X119229514Y-76276319D01*
X119248046Y-76100000D01*
X138451954Y-76100000D01*
X138470486Y-76276320D01*
X138470487Y-76276322D01*
X138525271Y-76444933D01*
X138525272Y-76444934D01*
X138585932Y-76550000D01*
X138613916Y-76598469D01*
X138636617Y-76623681D01*
X138732543Y-76730219D01*
X138732546Y-76730221D01*
X138875977Y-76834429D01*
X139037933Y-76906538D01*
X139037936Y-76906538D01*
X139037939Y-76906540D01*
X139211355Y-76943400D01*
X139388645Y-76943400D01*
X139562061Y-76906540D01*
X139562069Y-76906536D01*
X139568248Y-76904530D01*
X139568913Y-76906577D01*
X139628221Y-76898605D01*
X139691508Y-76928212D01*
X139728741Y-76987335D01*
X139728099Y-77057201D01*
X139701599Y-77104147D01*
X139613914Y-77201532D01*
X139525272Y-77355065D01*
X139525271Y-77355066D01*
X139470487Y-77523677D01*
X139470486Y-77523679D01*
X139451954Y-77700000D01*
X139470486Y-77876320D01*
X139470487Y-77876322D01*
X139525271Y-78044933D01*
X139525272Y-78044934D01*
X139589743Y-78156600D01*
X139613916Y-78198469D01*
X139624713Y-78210460D01*
X139720666Y-78317028D01*
X139750896Y-78380020D01*
X139742270Y-78449355D01*
X139720666Y-78482972D01*
X139613915Y-78601532D01*
X139525272Y-78755065D01*
X139525271Y-78755066D01*
X139470487Y-78923677D01*
X139470486Y-78923679D01*
X139451954Y-79100000D01*
X139470486Y-79276320D01*
X139470487Y-79276322D01*
X139525271Y-79444933D01*
X139525272Y-79444934D01*
X139537187Y-79465571D01*
X139613916Y-79598469D01*
X139642504Y-79630219D01*
X139732543Y-79730219D01*
X139732546Y-79730221D01*
X139875977Y-79834429D01*
X140037933Y-79906538D01*
X140037936Y-79906538D01*
X140037939Y-79906540D01*
X140211355Y-79943400D01*
X140388645Y-79943400D01*
X140562061Y-79906540D01*
X140576678Y-79900031D01*
X140645928Y-79890746D01*
X140709205Y-79920374D01*
X140746419Y-79979509D01*
X140750691Y-80023548D01*
X140745531Y-80085841D01*
X140744357Y-80100004D01*
X140744357Y-80100005D01*
X140764890Y-80347812D01*
X140764892Y-80347824D01*
X140825936Y-80588881D01*
X140925826Y-80816606D01*
X141061833Y-81024782D01*
X141081950Y-81046635D01*
X141230256Y-81207738D01*
X141426491Y-81360474D01*
X141645190Y-81478828D01*
X141655682Y-81482430D01*
X141656524Y-81482719D01*
X141713539Y-81523106D01*
X141739668Y-81587906D01*
X141726615Y-81656546D01*
X141678526Y-81707233D01*
X141656524Y-81717281D01*
X141645191Y-81721171D01*
X141645188Y-81721172D01*
X141426493Y-81839524D01*
X141230257Y-81992261D01*
X141061833Y-82175217D01*
X140925826Y-82383393D01*
X140825936Y-82611118D01*
X140764892Y-82852175D01*
X140764890Y-82852187D01*
X140744357Y-83099994D01*
X140744357Y-83100005D01*
X140764890Y-83347812D01*
X140764892Y-83347824D01*
X140825936Y-83588881D01*
X140925826Y-83816606D01*
X141061833Y-84024782D01*
X141061836Y-84024785D01*
X141230256Y-84207738D01*
X141426491Y-84360474D01*
X141645190Y-84478828D01*
X141880386Y-84559571D01*
X142125665Y-84600500D01*
X142374335Y-84600500D01*
X142619614Y-84559571D01*
X142854810Y-84478828D01*
X143073509Y-84360474D01*
X143269744Y-84207738D01*
X143438164Y-84024785D01*
X143574173Y-83816607D01*
X143674063Y-83588881D01*
X143735108Y-83347821D01*
X143745981Y-83216606D01*
X143752424Y-83138853D01*
X143766930Y-83101258D01*
X143757023Y-83085841D01*
X143752424Y-83061146D01*
X143735109Y-82852187D01*
X143735107Y-82852175D01*
X143674063Y-82611118D01*
X143574173Y-82383393D01*
X143438166Y-82175217D01*
X143411681Y-82146447D01*
X143269744Y-81992262D01*
X143073509Y-81839526D01*
X143073507Y-81839525D01*
X143073506Y-81839524D01*
X142854811Y-81721172D01*
X142854802Y-81721169D01*
X142843477Y-81717281D01*
X142786462Y-81676896D01*
X142760331Y-81612096D01*
X142773382Y-81543456D01*
X142821471Y-81492768D01*
X142843477Y-81482719D01*
X142847235Y-81481428D01*
X142854810Y-81478828D01*
X143073509Y-81360474D01*
X143269744Y-81207738D01*
X143438164Y-81024785D01*
X143574173Y-80816607D01*
X143674063Y-80588881D01*
X143735108Y-80347821D01*
X143735109Y-80347812D01*
X143752424Y-80138853D01*
X143766930Y-80101258D01*
X143757023Y-80085841D01*
X143752424Y-80061146D01*
X143735109Y-79852187D01*
X143735107Y-79852175D01*
X143674063Y-79611118D01*
X143574173Y-79383393D01*
X143438166Y-79175217D01*
X143402626Y-79136610D01*
X143269744Y-78992262D01*
X143073509Y-78839526D01*
X143073507Y-78839525D01*
X143073506Y-78839524D01*
X142854811Y-78721172D01*
X142854802Y-78721169D01*
X142619616Y-78640429D01*
X142374335Y-78599500D01*
X142125665Y-78599500D01*
X141880383Y-78640429D01*
X141645197Y-78721169D01*
X141645188Y-78721172D01*
X141455777Y-78823677D01*
X141426491Y-78839526D01*
X141383603Y-78872907D01*
X141307109Y-78932444D01*
X141242114Y-78958086D01*
X141173574Y-78944519D01*
X141123250Y-78896050D01*
X141113018Y-78872912D01*
X141074729Y-78755069D01*
X141073060Y-78752179D01*
X140998312Y-78622711D01*
X140986084Y-78601531D01*
X140879329Y-78482968D01*
X140849102Y-78419981D01*
X140857727Y-78350646D01*
X140879327Y-78317034D01*
X140986084Y-78198469D01*
X141074729Y-78044931D01*
X141129514Y-77876319D01*
X141148046Y-77700000D01*
X141129514Y-77523681D01*
X141074729Y-77355069D01*
X141074728Y-77355068D01*
X141074728Y-77355066D01*
X141074727Y-77355065D01*
X141033945Y-77284429D01*
X140986084Y-77201531D01*
X140932677Y-77142217D01*
X140867456Y-77069780D01*
X140795738Y-77017675D01*
X140724023Y-76965571D01*
X140724021Y-76965570D01*
X140724022Y-76965570D01*
X140562066Y-76893461D01*
X140562058Y-76893459D01*
X140388645Y-76856600D01*
X140211355Y-76856600D01*
X140037941Y-76893459D01*
X140031752Y-76895470D01*
X140031089Y-76893431D01*
X139971727Y-76901386D01*
X139908453Y-76871752D01*
X139871244Y-76812614D01*
X139871915Y-76742748D01*
X139898401Y-76695851D01*
X139909974Y-76682997D01*
X139986084Y-76598469D01*
X140074729Y-76444931D01*
X140129514Y-76276319D01*
X140148046Y-76100000D01*
X140129514Y-75923681D01*
X140074729Y-75755069D01*
X140074728Y-75755067D01*
X140074728Y-75755066D01*
X140074727Y-75755065D01*
X140020115Y-75660475D01*
X139986084Y-75601531D01*
X139932677Y-75542217D01*
X139867456Y-75469780D01*
X139795738Y-75417675D01*
X139724023Y-75365571D01*
X139724021Y-75365570D01*
X139724022Y-75365570D01*
X139562066Y-75293461D01*
X139562058Y-75293459D01*
X139388645Y-75256600D01*
X139211355Y-75256600D01*
X139037941Y-75293459D01*
X139037933Y-75293461D01*
X138875978Y-75365570D01*
X138732543Y-75469780D01*
X138613915Y-75601532D01*
X138525272Y-75755065D01*
X138525271Y-75755066D01*
X138470487Y-75923677D01*
X138470486Y-75923679D01*
X138451954Y-76100000D01*
X119248046Y-76100000D01*
X119229514Y-75923681D01*
X119174729Y-75755069D01*
X119174728Y-75755067D01*
X119174728Y-75755066D01*
X119174727Y-75755065D01*
X119120115Y-75660475D01*
X119086084Y-75601531D01*
X119032677Y-75542217D01*
X118967456Y-75469780D01*
X118895738Y-75417675D01*
X118824023Y-75365571D01*
X118824021Y-75365570D01*
X118824022Y-75365570D01*
X118662066Y-75293461D01*
X118662058Y-75293459D01*
X118488645Y-75256600D01*
X118311355Y-75256600D01*
X118137941Y-75293459D01*
X118137933Y-75293461D01*
X117975978Y-75365570D01*
X117832543Y-75469780D01*
X117713915Y-75601532D01*
X117625272Y-75755065D01*
X117625271Y-75755067D01*
X117568478Y-75929861D01*
X117566999Y-75929380D01*
X117537547Y-75983915D01*
X117476379Y-76017682D01*
X117406665Y-76013019D01*
X117399027Y-76009918D01*
X117362066Y-75993461D01*
X117362058Y-75993459D01*
X117188645Y-75956600D01*
X117011355Y-75956600D01*
X116837941Y-75993459D01*
X116837933Y-75993461D01*
X116675978Y-76065570D01*
X116532543Y-76169780D01*
X116413915Y-76301532D01*
X116325272Y-76455065D01*
X116325271Y-76455066D01*
X116270487Y-76623677D01*
X116270486Y-76623679D01*
X116251954Y-76800000D01*
X107055574Y-76800000D01*
X107079514Y-76726319D01*
X107098046Y-76550000D01*
X107079514Y-76373681D01*
X107024729Y-76205069D01*
X107024728Y-76205068D01*
X107024728Y-76205066D01*
X107024727Y-76205065D01*
X106993798Y-76151495D01*
X106936084Y-76051531D01*
X106850608Y-75956600D01*
X106817456Y-75919780D01*
X106734583Y-75859570D01*
X106674023Y-75815571D01*
X106674021Y-75815570D01*
X106674022Y-75815570D01*
X106512066Y-75743461D01*
X106512058Y-75743459D01*
X106338645Y-75706600D01*
X106161355Y-75706600D01*
X105987941Y-75743459D01*
X105987933Y-75743461D01*
X105825978Y-75815570D01*
X105682543Y-75919780D01*
X105563915Y-76051532D01*
X105475272Y-76205065D01*
X105475271Y-76205066D01*
X105420487Y-76373677D01*
X105420486Y-76373679D01*
X105401954Y-76550000D01*
X98100500Y-76550000D01*
X98100500Y-74950000D01*
X106801954Y-74950000D01*
X106820486Y-75126320D01*
X106820487Y-75126322D01*
X106875271Y-75294933D01*
X106875272Y-75294934D01*
X106892505Y-75324782D01*
X106963916Y-75448469D01*
X106983104Y-75469779D01*
X107082543Y-75580219D01*
X107082546Y-75580221D01*
X107225977Y-75684429D01*
X107387933Y-75756538D01*
X107387936Y-75756538D01*
X107387939Y-75756540D01*
X107561355Y-75793400D01*
X107738645Y-75793400D01*
X107912061Y-75756540D01*
X107912064Y-75756538D01*
X107912066Y-75756538D01*
X107944869Y-75741932D01*
X108074023Y-75684429D01*
X108217454Y-75580221D01*
X108336084Y-75448469D01*
X108424729Y-75294931D01*
X108479514Y-75126319D01*
X108498046Y-74950000D01*
X108479514Y-74773681D01*
X108424729Y-74605069D01*
X108424728Y-74605068D01*
X108424728Y-74605066D01*
X108424727Y-74605065D01*
X108364356Y-74500500D01*
X108336084Y-74451531D01*
X108270621Y-74378827D01*
X108217456Y-74319780D01*
X108135827Y-74260474D01*
X108074023Y-74215571D01*
X108074021Y-74215570D01*
X108074022Y-74215570D01*
X107912066Y-74143461D01*
X107912058Y-74143459D01*
X107738645Y-74106600D01*
X107561355Y-74106600D01*
X107387941Y-74143459D01*
X107387933Y-74143461D01*
X107225978Y-74215570D01*
X107082543Y-74319780D01*
X106963915Y-74451532D01*
X106875272Y-74605065D01*
X106875271Y-74605066D01*
X106820487Y-74773677D01*
X106820486Y-74773679D01*
X106801954Y-74950000D01*
X98100500Y-74950000D01*
X98100500Y-63999994D01*
X98994357Y-63999994D01*
X98994357Y-64000005D01*
X99014890Y-64247812D01*
X99014892Y-64247824D01*
X99075936Y-64488881D01*
X99175826Y-64716606D01*
X99311833Y-64924782D01*
X99311836Y-64924785D01*
X99480256Y-65107738D01*
X99676491Y-65260474D01*
X99785840Y-65319651D01*
X99832557Y-65344933D01*
X99895190Y-65378828D01*
X99907292Y-65382982D01*
X99964307Y-65423365D01*
X99990439Y-65488164D01*
X99977391Y-65556804D01*
X99929304Y-65607493D01*
X99907300Y-65617543D01*
X99895398Y-65621629D01*
X99895390Y-65621632D01*
X99676761Y-65739949D01*
X99629942Y-65776388D01*
X99629942Y-65776390D01*
X100370590Y-66517037D01*
X100307007Y-66534075D01*
X100192993Y-66599901D01*
X100099901Y-66692993D01*
X100034075Y-66807007D01*
X100017037Y-66870589D01*
X99276564Y-66130116D01*
X99176267Y-66283632D01*
X99076412Y-66511282D01*
X99015387Y-66752261D01*
X99015385Y-66752270D01*
X98994859Y-66999994D01*
X98994859Y-67000005D01*
X99015385Y-67247729D01*
X99015387Y-67247738D01*
X99076412Y-67488717D01*
X99176266Y-67716364D01*
X99276564Y-67869882D01*
X100017037Y-67129409D01*
X100034075Y-67192993D01*
X100099901Y-67307007D01*
X100192993Y-67400099D01*
X100307007Y-67465925D01*
X100370590Y-67482962D01*
X99629942Y-68223609D01*
X99676768Y-68260055D01*
X99676770Y-68260056D01*
X99895385Y-68378364D01*
X99895396Y-68378369D01*
X99907294Y-68382454D01*
X99964309Y-68422839D01*
X99990440Y-68487639D01*
X99977389Y-68556279D01*
X99929300Y-68606967D01*
X99907296Y-68617016D01*
X99895191Y-68621171D01*
X99895188Y-68621172D01*
X99676493Y-68739524D01*
X99480257Y-68892261D01*
X99311833Y-69075217D01*
X99175826Y-69283393D01*
X99075936Y-69511118D01*
X99014892Y-69752175D01*
X99014890Y-69752187D01*
X98994357Y-69999994D01*
X98994357Y-70000005D01*
X99014890Y-70247812D01*
X99014892Y-70247824D01*
X99075936Y-70488881D01*
X99175826Y-70716606D01*
X99311833Y-70924782D01*
X99311836Y-70924785D01*
X99480256Y-71107738D01*
X99676491Y-71260474D01*
X99785840Y-71319651D01*
X99832557Y-71344933D01*
X99895190Y-71378828D01*
X99905682Y-71382430D01*
X99906524Y-71382719D01*
X99963539Y-71423106D01*
X99989668Y-71487906D01*
X99976615Y-71556546D01*
X99928526Y-71607233D01*
X99906524Y-71617281D01*
X99895191Y-71621171D01*
X99895188Y-71621172D01*
X99676493Y-71739524D01*
X99480257Y-71892261D01*
X99311833Y-72075217D01*
X99175826Y-72283393D01*
X99075936Y-72511118D01*
X99014892Y-72752175D01*
X99014890Y-72752187D01*
X98994357Y-72999994D01*
X98994357Y-73000005D01*
X99014890Y-73247812D01*
X99014892Y-73247824D01*
X99075936Y-73488881D01*
X99175826Y-73716606D01*
X99311833Y-73924782D01*
X99311836Y-73924785D01*
X99480256Y-74107738D01*
X99676491Y-74260474D01*
X99895190Y-74378828D01*
X100130386Y-74459571D01*
X100375665Y-74500500D01*
X100624335Y-74500500D01*
X100869614Y-74459571D01*
X101104810Y-74378828D01*
X101323509Y-74260474D01*
X101519744Y-74107738D01*
X101688164Y-73924785D01*
X101824173Y-73716607D01*
X101924063Y-73488881D01*
X101985108Y-73247821D01*
X101985347Y-73244934D01*
X102005643Y-73000005D01*
X102005643Y-72999994D01*
X101997357Y-72900000D01*
X119851954Y-72900000D01*
X119870486Y-73076320D01*
X119870487Y-73076322D01*
X119925271Y-73244933D01*
X119925272Y-73244934D01*
X119998450Y-73371682D01*
X120013916Y-73398469D01*
X120061414Y-73451221D01*
X120132543Y-73530219D01*
X120132546Y-73530221D01*
X120275977Y-73634429D01*
X120437933Y-73706538D01*
X120437936Y-73706538D01*
X120437939Y-73706540D01*
X120611355Y-73743400D01*
X120788645Y-73743400D01*
X120962061Y-73706540D01*
X120962064Y-73706538D01*
X120962066Y-73706538D01*
X121014049Y-73683393D01*
X121124023Y-73634429D01*
X121267454Y-73530221D01*
X121386084Y-73398469D01*
X121474729Y-73244931D01*
X121529514Y-73076319D01*
X121548046Y-72900000D01*
X121529514Y-72723681D01*
X121474729Y-72555069D01*
X121474728Y-72555068D01*
X121474728Y-72555066D01*
X121474727Y-72555065D01*
X121442050Y-72498467D01*
X121386084Y-72401531D01*
X121316979Y-72324782D01*
X121267456Y-72269780D01*
X121195738Y-72217675D01*
X121124023Y-72165571D01*
X121124021Y-72165570D01*
X121124022Y-72165570D01*
X120962066Y-72093461D01*
X120962058Y-72093459D01*
X120788645Y-72056600D01*
X120611355Y-72056600D01*
X120437941Y-72093459D01*
X120437933Y-72093461D01*
X120275978Y-72165570D01*
X120132543Y-72269780D01*
X120013915Y-72401532D01*
X119925272Y-72555065D01*
X119925271Y-72555066D01*
X119870487Y-72723677D01*
X119870486Y-72723679D01*
X119851954Y-72900000D01*
X101997357Y-72900000D01*
X101985109Y-72752187D01*
X101985107Y-72752175D01*
X101924063Y-72511118D01*
X101824173Y-72283393D01*
X101688166Y-72075217D01*
X101666557Y-72051744D01*
X101618923Y-72000000D01*
X116151954Y-72000000D01*
X116170486Y-72176320D01*
X116170487Y-72176322D01*
X116225271Y-72344933D01*
X116225272Y-72344934D01*
X116298450Y-72471682D01*
X116313916Y-72498469D01*
X116361414Y-72551221D01*
X116432543Y-72630219D01*
X116432546Y-72630221D01*
X116575977Y-72734429D01*
X116737933Y-72806538D01*
X116737936Y-72806538D01*
X116737939Y-72806540D01*
X116911355Y-72843400D01*
X117088645Y-72843400D01*
X117262061Y-72806540D01*
X117262064Y-72806538D01*
X117262066Y-72806538D01*
X117315563Y-72782719D01*
X117424023Y-72734429D01*
X117567454Y-72630221D01*
X117686084Y-72498469D01*
X117774729Y-72344931D01*
X117829514Y-72176319D01*
X117848046Y-72000000D01*
X117829514Y-71823681D01*
X117774729Y-71655069D01*
X117774728Y-71655068D01*
X117774728Y-71655066D01*
X117774727Y-71655065D01*
X117717847Y-71556546D01*
X117686084Y-71501531D01*
X117594670Y-71400005D01*
X117567456Y-71369780D01*
X117495738Y-71317675D01*
X117424023Y-71265571D01*
X117424021Y-71265570D01*
X117424022Y-71265570D01*
X117262066Y-71193461D01*
X117262058Y-71193459D01*
X117088645Y-71156600D01*
X116911355Y-71156600D01*
X116737941Y-71193459D01*
X116737933Y-71193461D01*
X116575978Y-71265570D01*
X116432543Y-71369780D01*
X116313915Y-71501532D01*
X116225272Y-71655065D01*
X116225271Y-71655066D01*
X116170487Y-71823677D01*
X116170486Y-71823679D01*
X116151954Y-72000000D01*
X101618923Y-72000000D01*
X101519744Y-71892262D01*
X101323509Y-71739526D01*
X101323507Y-71739525D01*
X101323506Y-71739524D01*
X101104811Y-71621172D01*
X101104802Y-71621169D01*
X101093477Y-71617281D01*
X101036462Y-71576896D01*
X101010331Y-71512096D01*
X101023382Y-71443456D01*
X101071471Y-71392768D01*
X101093477Y-71382719D01*
X101097235Y-71381428D01*
X101104810Y-71378828D01*
X101323509Y-71260474D01*
X101519744Y-71107738D01*
X101688164Y-70924785D01*
X101824173Y-70716607D01*
X101924063Y-70488881D01*
X101985108Y-70247821D01*
X101986968Y-70225376D01*
X102005643Y-70000005D01*
X102005643Y-69999994D01*
X101985109Y-69752187D01*
X101985107Y-69752175D01*
X101924063Y-69511118D01*
X101824173Y-69283393D01*
X101688166Y-69075217D01*
X101620333Y-69001531D01*
X101519744Y-68892262D01*
X101323509Y-68739526D01*
X101323507Y-68739525D01*
X101323506Y-68739524D01*
X101104811Y-68621172D01*
X101104802Y-68621169D01*
X101092705Y-68617016D01*
X101035690Y-68576631D01*
X101009559Y-68511831D01*
X101022610Y-68443191D01*
X101070699Y-68392504D01*
X101092707Y-68382453D01*
X101104608Y-68378367D01*
X101104614Y-68378364D01*
X101323228Y-68260057D01*
X101323231Y-68260055D01*
X101370056Y-68223609D01*
X100629409Y-67482962D01*
X100692993Y-67465925D01*
X100807007Y-67400099D01*
X100900099Y-67307007D01*
X100965925Y-67192993D01*
X100982962Y-67129410D01*
X101723434Y-67869882D01*
X101823731Y-67716369D01*
X101923587Y-67488717D01*
X101984612Y-67247738D01*
X101984614Y-67247729D01*
X102005141Y-67000005D01*
X102005141Y-67000000D01*
X102651954Y-67000000D01*
X102670486Y-67176320D01*
X102670487Y-67176322D01*
X102725271Y-67344933D01*
X102725272Y-67344934D01*
X102757065Y-67400000D01*
X102813916Y-67498469D01*
X102815295Y-67500000D01*
X102932543Y-67630219D01*
X102932546Y-67630221D01*
X103075977Y-67734429D01*
X103226212Y-67801319D01*
X103237939Y-67806540D01*
X103392246Y-67839338D01*
X103453724Y-67872529D01*
X103487501Y-67933691D01*
X103482849Y-68003406D01*
X103441245Y-68059539D01*
X103392244Y-68081917D01*
X103337937Y-68093460D01*
X103337933Y-68093461D01*
X103175978Y-68165570D01*
X103032543Y-68269780D01*
X102913915Y-68401532D01*
X102825272Y-68555065D01*
X102825271Y-68555066D01*
X102770487Y-68723677D01*
X102770486Y-68723679D01*
X102751954Y-68900000D01*
X102770486Y-69076320D01*
X102770487Y-69076322D01*
X102825271Y-69244933D01*
X102825272Y-69244934D01*
X102898450Y-69371682D01*
X102913916Y-69398469D01*
X102948263Y-69436615D01*
X103032543Y-69530219D01*
X103032546Y-69530221D01*
X103175977Y-69634429D01*
X103337933Y-69706538D01*
X103337936Y-69706538D01*
X103337939Y-69706540D01*
X103511355Y-69743400D01*
X103688645Y-69743400D01*
X103862061Y-69706540D01*
X103862064Y-69706538D01*
X103862066Y-69706538D01*
X103894869Y-69691932D01*
X104024023Y-69634429D01*
X104167454Y-69530221D01*
X104286084Y-69398469D01*
X104374729Y-69244931D01*
X104429514Y-69076319D01*
X104437536Y-69000000D01*
X106151954Y-69000000D01*
X106170486Y-69176320D01*
X106170487Y-69176322D01*
X106225271Y-69344933D01*
X106225272Y-69344934D01*
X106286305Y-69450646D01*
X106313916Y-69498469D01*
X106342504Y-69530219D01*
X106432543Y-69630219D01*
X106432546Y-69630221D01*
X106575977Y-69734429D01*
X106737933Y-69806538D01*
X106737936Y-69806538D01*
X106737939Y-69806540D01*
X106911355Y-69843400D01*
X107088645Y-69843400D01*
X107262061Y-69806540D01*
X107262064Y-69806538D01*
X107262066Y-69806538D01*
X107315563Y-69782719D01*
X107424023Y-69734429D01*
X107567454Y-69630221D01*
X107686084Y-69498469D01*
X107774729Y-69344931D01*
X107829514Y-69176319D01*
X107848046Y-69000000D01*
X107829514Y-68823681D01*
X107774729Y-68655069D01*
X107774728Y-68655068D01*
X107774728Y-68655066D01*
X107774727Y-68655065D01*
X107729443Y-68576631D01*
X107686084Y-68501531D01*
X107623062Y-68431538D01*
X107567456Y-68369780D01*
X107495738Y-68317675D01*
X107424023Y-68265571D01*
X107424021Y-68265570D01*
X107424022Y-68265570D01*
X107262066Y-68193461D01*
X107262058Y-68193459D01*
X107088645Y-68156600D01*
X106911355Y-68156600D01*
X106737941Y-68193459D01*
X106737933Y-68193461D01*
X106575978Y-68265570D01*
X106432543Y-68369780D01*
X106313915Y-68501532D01*
X106225272Y-68655065D01*
X106225271Y-68655066D01*
X106170487Y-68823677D01*
X106170486Y-68823679D01*
X106151954Y-69000000D01*
X104437536Y-69000000D01*
X104448046Y-68900000D01*
X104429514Y-68723681D01*
X104374729Y-68555069D01*
X104374728Y-68555068D01*
X104374728Y-68555066D01*
X104374727Y-68555065D01*
X104324691Y-68468400D01*
X104286084Y-68401531D01*
X104232677Y-68342217D01*
X104167456Y-68269780D01*
X104095738Y-68217675D01*
X104024023Y-68165571D01*
X104024021Y-68165570D01*
X104024022Y-68165570D01*
X103862066Y-68093461D01*
X103862060Y-68093459D01*
X103707756Y-68060662D01*
X103646274Y-68027470D01*
X103612498Y-67966307D01*
X103617150Y-67896592D01*
X103658755Y-67840460D01*
X103707752Y-67818083D01*
X103762061Y-67806540D01*
X103762065Y-67806538D01*
X103762066Y-67806538D01*
X103794869Y-67791932D01*
X103924023Y-67734429D01*
X104067454Y-67630221D01*
X104186084Y-67498469D01*
X104274729Y-67344931D01*
X104329514Y-67176319D01*
X104348046Y-67000000D01*
X106151954Y-67000000D01*
X106170486Y-67176320D01*
X106170487Y-67176322D01*
X106225271Y-67344933D01*
X106225272Y-67344934D01*
X106257065Y-67400000D01*
X106313916Y-67498469D01*
X106315295Y-67500000D01*
X106432543Y-67630219D01*
X106432546Y-67630221D01*
X106575977Y-67734429D01*
X106737933Y-67806538D01*
X106737936Y-67806538D01*
X106737939Y-67806540D01*
X106911355Y-67843400D01*
X107088645Y-67843400D01*
X107262061Y-67806540D01*
X107262064Y-67806538D01*
X107262066Y-67806538D01*
X107294869Y-67791932D01*
X107424023Y-67734429D01*
X107567454Y-67630221D01*
X107686084Y-67498469D01*
X107774729Y-67344931D01*
X107829514Y-67176319D01*
X107848046Y-67000000D01*
X107829514Y-66823681D01*
X107774729Y-66655069D01*
X107774728Y-66655068D01*
X107774728Y-66655066D01*
X107774727Y-66655065D01*
X107739159Y-66593460D01*
X107686084Y-66501531D01*
X107632677Y-66442217D01*
X107567456Y-66369780D01*
X107448879Y-66283630D01*
X107424023Y-66265571D01*
X107424021Y-66265570D01*
X107424022Y-66265570D01*
X107262066Y-66193461D01*
X107262058Y-66193459D01*
X107088645Y-66156600D01*
X106911355Y-66156600D01*
X106737941Y-66193459D01*
X106737933Y-66193461D01*
X106575978Y-66265570D01*
X106432543Y-66369780D01*
X106313915Y-66501532D01*
X106225272Y-66655065D01*
X106225271Y-66655066D01*
X106170487Y-66823677D01*
X106170486Y-66823679D01*
X106151954Y-67000000D01*
X104348046Y-67000000D01*
X104329514Y-66823681D01*
X104274729Y-66655069D01*
X104274728Y-66655068D01*
X104274728Y-66655066D01*
X104274727Y-66655065D01*
X104239159Y-66593460D01*
X104186084Y-66501531D01*
X104132677Y-66442217D01*
X104067456Y-66369780D01*
X103948879Y-66283630D01*
X103924023Y-66265571D01*
X103924021Y-66265570D01*
X103924022Y-66265570D01*
X103762066Y-66193461D01*
X103762058Y-66193459D01*
X103588645Y-66156600D01*
X103411355Y-66156600D01*
X103237941Y-66193459D01*
X103237933Y-66193461D01*
X103075978Y-66265570D01*
X102932543Y-66369780D01*
X102813915Y-66501532D01*
X102725272Y-66655065D01*
X102725271Y-66655066D01*
X102670487Y-66823677D01*
X102670486Y-66823679D01*
X102651954Y-67000000D01*
X102005141Y-67000000D01*
X102005141Y-66999994D01*
X101984614Y-66752270D01*
X101984612Y-66752261D01*
X101923587Y-66511282D01*
X101823731Y-66283630D01*
X101723434Y-66130116D01*
X100982962Y-66870589D01*
X100965925Y-66807007D01*
X100900099Y-66692993D01*
X100807007Y-66599901D01*
X100692993Y-66534075D01*
X100629410Y-66517037D01*
X101146447Y-66000000D01*
X109651954Y-66000000D01*
X109670486Y-66176320D01*
X109670487Y-66176322D01*
X109725271Y-66344933D01*
X109725272Y-66344934D01*
X109798450Y-66471682D01*
X109813916Y-66498469D01*
X109825453Y-66511282D01*
X109932545Y-66630221D01*
X109932547Y-66630222D01*
X110045355Y-66712182D01*
X110088021Y-66767511D01*
X110094000Y-66837125D01*
X110061395Y-66898920D01*
X110045355Y-66912818D01*
X109932547Y-66994777D01*
X109932545Y-66994778D01*
X109813915Y-67126532D01*
X109725272Y-67280065D01*
X109725271Y-67280066D01*
X109670487Y-67448677D01*
X109670486Y-67448679D01*
X109651954Y-67625000D01*
X109670486Y-67801320D01*
X109670487Y-67801322D01*
X109725271Y-67969933D01*
X109725272Y-67969934D01*
X109775309Y-68056600D01*
X109813916Y-68123469D01*
X109851824Y-68165570D01*
X109932543Y-68255219D01*
X109952585Y-68269780D01*
X110075977Y-68359429D01*
X110237933Y-68431538D01*
X110237939Y-68431540D01*
X110283433Y-68441210D01*
X110344915Y-68474402D01*
X110378691Y-68535565D01*
X110374039Y-68605280D01*
X110332434Y-68661412D01*
X110283433Y-68683790D01*
X110237939Y-68693459D01*
X110237933Y-68693461D01*
X110075978Y-68765570D01*
X109932543Y-68869780D01*
X109813915Y-69001532D01*
X109725272Y-69155065D01*
X109725271Y-69155066D01*
X109670487Y-69323677D01*
X109670486Y-69323679D01*
X109651954Y-69500000D01*
X109670486Y-69676320D01*
X109670487Y-69676322D01*
X109725271Y-69844933D01*
X109725272Y-69844934D01*
X109789712Y-69956546D01*
X109813916Y-69998469D01*
X109836617Y-70023681D01*
X109932544Y-70130220D01*
X109959331Y-70149682D01*
X110001996Y-70205012D01*
X110007975Y-70274626D01*
X109975369Y-70336420D01*
X109959331Y-70350318D01*
X109932544Y-70369779D01*
X109813915Y-70501532D01*
X109725272Y-70655065D01*
X109725271Y-70655066D01*
X109670487Y-70823677D01*
X109670486Y-70823679D01*
X109651954Y-71000000D01*
X109670486Y-71176320D01*
X109670487Y-71176322D01*
X109725271Y-71344933D01*
X109725272Y-71344934D01*
X109757065Y-71400000D01*
X109813916Y-71498469D01*
X109826186Y-71512096D01*
X109932543Y-71630219D01*
X109932546Y-71630221D01*
X110075977Y-71734429D01*
X110237933Y-71806538D01*
X110237936Y-71806538D01*
X110237939Y-71806540D01*
X110411355Y-71843400D01*
X110588645Y-71843400D01*
X110762061Y-71806540D01*
X110762064Y-71806538D01*
X110762066Y-71806538D01*
X110794869Y-71791932D01*
X110924023Y-71734429D01*
X111067454Y-71630221D01*
X111075605Y-71621169D01*
X111088152Y-71607233D01*
X111186084Y-71498469D01*
X111274729Y-71344931D01*
X111329514Y-71176319D01*
X111348046Y-71000000D01*
X111329514Y-70823681D01*
X111274729Y-70655069D01*
X111274728Y-70655068D01*
X111274728Y-70655066D01*
X111274727Y-70655065D01*
X111236895Y-70589539D01*
X111186084Y-70501531D01*
X111126769Y-70435655D01*
X111067454Y-70369778D01*
X111040670Y-70350319D01*
X110998003Y-70294990D01*
X110992023Y-70225376D01*
X111024629Y-70163581D01*
X111040670Y-70149681D01*
X111067454Y-70130221D01*
X111067455Y-70130220D01*
X111186084Y-69998469D01*
X111274729Y-69844931D01*
X111329514Y-69676319D01*
X111348046Y-69500000D01*
X111329514Y-69323681D01*
X111274729Y-69155069D01*
X111274728Y-69155068D01*
X111274728Y-69155066D01*
X111274727Y-69155065D01*
X111243798Y-69101495D01*
X111186084Y-69001531D01*
X111115114Y-68922711D01*
X111067456Y-68869780D01*
X110971411Y-68800000D01*
X110924023Y-68765571D01*
X110924021Y-68765570D01*
X110924022Y-68765570D01*
X110762066Y-68693461D01*
X110762058Y-68693459D01*
X110716567Y-68683790D01*
X110655085Y-68650598D01*
X110621308Y-68589435D01*
X110625960Y-68519721D01*
X110667564Y-68463588D01*
X110716567Y-68441210D01*
X110724646Y-68439492D01*
X110762061Y-68431540D01*
X110762064Y-68431538D01*
X110762066Y-68431538D01*
X110829459Y-68401532D01*
X110924023Y-68359429D01*
X111067454Y-68255221D01*
X111186084Y-68123469D01*
X111274729Y-67969931D01*
X111329514Y-67801319D01*
X111348046Y-67625000D01*
X111329514Y-67448681D01*
X111313697Y-67400000D01*
X122751954Y-67400000D01*
X122770486Y-67576320D01*
X122770487Y-67576322D01*
X122825271Y-67744933D01*
X122825272Y-67744934D01*
X122882121Y-67843399D01*
X122913916Y-67898469D01*
X122945630Y-67933691D01*
X123020666Y-68017028D01*
X123050896Y-68080020D01*
X123042270Y-68149355D01*
X123020666Y-68182972D01*
X122913915Y-68301532D01*
X122825272Y-68455065D01*
X122825271Y-68455066D01*
X122770487Y-68623677D01*
X122770486Y-68623679D01*
X122751954Y-68800000D01*
X122770486Y-68976320D01*
X122770487Y-68976322D01*
X122825271Y-69144933D01*
X122825272Y-69144934D01*
X122898450Y-69271682D01*
X122913916Y-69298469D01*
X122937611Y-69324785D01*
X123020666Y-69417028D01*
X123050896Y-69480020D01*
X123042270Y-69549355D01*
X123020666Y-69582972D01*
X122913915Y-69701532D01*
X122825272Y-69855065D01*
X122825271Y-69855066D01*
X122770487Y-70023677D01*
X122770486Y-70023679D01*
X122751954Y-70200000D01*
X122770486Y-70376320D01*
X122770487Y-70376322D01*
X122825271Y-70544933D01*
X122825272Y-70544934D01*
X122888857Y-70655065D01*
X122913916Y-70698469D01*
X122930247Y-70716606D01*
X123032543Y-70830219D01*
X123032546Y-70830221D01*
X123175977Y-70934429D01*
X123337933Y-71006538D01*
X123337936Y-71006538D01*
X123337939Y-71006540D01*
X123511355Y-71043400D01*
X123688645Y-71043400D01*
X123862061Y-71006540D01*
X123862064Y-71006538D01*
X123862066Y-71006538D01*
X123894869Y-70991932D01*
X124024023Y-70934429D01*
X124167454Y-70830221D01*
X124173345Y-70823679D01*
X124179270Y-70817097D01*
X124286084Y-70698469D01*
X124374729Y-70544931D01*
X124429514Y-70376319D01*
X124448046Y-70200000D01*
X124429514Y-70023681D01*
X124374729Y-69855069D01*
X124374728Y-69855068D01*
X124374728Y-69855066D01*
X124374727Y-69855065D01*
X124315330Y-69752187D01*
X124286084Y-69701531D01*
X124179329Y-69582968D01*
X124149102Y-69519981D01*
X124157727Y-69450646D01*
X124179327Y-69417034D01*
X124286084Y-69298469D01*
X124374729Y-69144931D01*
X124429514Y-68976319D01*
X124448046Y-68800000D01*
X124429514Y-68623681D01*
X124374729Y-68455069D01*
X124374728Y-68455068D01*
X124374728Y-68455066D01*
X124374727Y-68455065D01*
X124286086Y-68301535D01*
X124286084Y-68301531D01*
X124179329Y-68182968D01*
X124149102Y-68119981D01*
X124157727Y-68050646D01*
X124179327Y-68017034D01*
X124286084Y-67898469D01*
X124374729Y-67744931D01*
X124429514Y-67576319D01*
X124448046Y-67400000D01*
X128951954Y-67400000D01*
X128970486Y-67576320D01*
X128970487Y-67576322D01*
X129025271Y-67744933D01*
X129025272Y-67744934D01*
X129082121Y-67843399D01*
X129113916Y-67898469D01*
X129145630Y-67933691D01*
X129220666Y-68017028D01*
X129250896Y-68080020D01*
X129242270Y-68149355D01*
X129220666Y-68182972D01*
X129113915Y-68301532D01*
X129025272Y-68455065D01*
X129025271Y-68455066D01*
X128970487Y-68623677D01*
X128970486Y-68623679D01*
X128951954Y-68800000D01*
X128970486Y-68976320D01*
X128970487Y-68976322D01*
X129025271Y-69144933D01*
X129025272Y-69144934D01*
X129098450Y-69271682D01*
X129113916Y-69298469D01*
X129137611Y-69324785D01*
X129220666Y-69417028D01*
X129250896Y-69480020D01*
X129242270Y-69549355D01*
X129220666Y-69582972D01*
X129113915Y-69701532D01*
X129025272Y-69855065D01*
X129025271Y-69855066D01*
X128970487Y-70023677D01*
X128970486Y-70023679D01*
X128951954Y-70200000D01*
X128970486Y-70376320D01*
X128970487Y-70376322D01*
X129025271Y-70544933D01*
X129025272Y-70544934D01*
X129088857Y-70655065D01*
X129113916Y-70698469D01*
X129130247Y-70716606D01*
X129232543Y-70830219D01*
X129232546Y-70830221D01*
X129375977Y-70934429D01*
X129537933Y-71006538D01*
X129537936Y-71006538D01*
X129537939Y-71006540D01*
X129711355Y-71043400D01*
X129888645Y-71043400D01*
X130062061Y-71006540D01*
X130062064Y-71006538D01*
X130062066Y-71006538D01*
X130094869Y-70991932D01*
X130224023Y-70934429D01*
X130367454Y-70830221D01*
X130373345Y-70823679D01*
X130379270Y-70817097D01*
X130486084Y-70698469D01*
X130574729Y-70544931D01*
X130629514Y-70376319D01*
X130648046Y-70200000D01*
X130629514Y-70023681D01*
X130574729Y-69855069D01*
X130574728Y-69855068D01*
X130574728Y-69855066D01*
X130574727Y-69855065D01*
X130515330Y-69752187D01*
X130486084Y-69701531D01*
X130379329Y-69582968D01*
X130349102Y-69519981D01*
X130357727Y-69450646D01*
X130379327Y-69417034D01*
X130486084Y-69298469D01*
X130574729Y-69144931D01*
X130629514Y-68976319D01*
X130648046Y-68800000D01*
X130629514Y-68623681D01*
X130574729Y-68455069D01*
X130574728Y-68455068D01*
X130574728Y-68455066D01*
X130574727Y-68455065D01*
X130486086Y-68301535D01*
X130486084Y-68301531D01*
X130379329Y-68182968D01*
X130349102Y-68119981D01*
X130357727Y-68050646D01*
X130379327Y-68017034D01*
X130486084Y-67898469D01*
X130574729Y-67744931D01*
X130629514Y-67576319D01*
X130648046Y-67400000D01*
X132951954Y-67400000D01*
X132970486Y-67576320D01*
X132970487Y-67576322D01*
X133025271Y-67744933D01*
X133025272Y-67744934D01*
X133082121Y-67843399D01*
X133113916Y-67898469D01*
X133145630Y-67933691D01*
X133220666Y-68017028D01*
X133250896Y-68080020D01*
X133242270Y-68149355D01*
X133220666Y-68182972D01*
X133113915Y-68301532D01*
X133025272Y-68455065D01*
X133025271Y-68455066D01*
X132970487Y-68623677D01*
X132970486Y-68623679D01*
X132951954Y-68800000D01*
X132970486Y-68976320D01*
X132970487Y-68976322D01*
X133025271Y-69144933D01*
X133025272Y-69144934D01*
X133098450Y-69271682D01*
X133113916Y-69298469D01*
X133137611Y-69324785D01*
X133220666Y-69417028D01*
X133250896Y-69480020D01*
X133242270Y-69549355D01*
X133220666Y-69582972D01*
X133113915Y-69701532D01*
X133025272Y-69855065D01*
X133025271Y-69855066D01*
X132970487Y-70023677D01*
X132970486Y-70023679D01*
X132951954Y-70200000D01*
X132970486Y-70376320D01*
X132970487Y-70376322D01*
X133025271Y-70544933D01*
X133025272Y-70544934D01*
X133088857Y-70655065D01*
X133113916Y-70698469D01*
X133130247Y-70716606D01*
X133232543Y-70830219D01*
X133232546Y-70830221D01*
X133375977Y-70934429D01*
X133537933Y-71006538D01*
X133537936Y-71006538D01*
X133537939Y-71006540D01*
X133711355Y-71043400D01*
X133888645Y-71043400D01*
X134062061Y-71006540D01*
X134062064Y-71006538D01*
X134062066Y-71006538D01*
X134094869Y-70991932D01*
X134224023Y-70934429D01*
X134367454Y-70830221D01*
X134373345Y-70823679D01*
X134379270Y-70817097D01*
X134486084Y-70698469D01*
X134574729Y-70544931D01*
X134629514Y-70376319D01*
X134648046Y-70200000D01*
X134629514Y-70023681D01*
X134574729Y-69855069D01*
X134574728Y-69855068D01*
X134574728Y-69855066D01*
X134574727Y-69855065D01*
X134542935Y-69800000D01*
X137750428Y-69800000D01*
X137768673Y-69985250D01*
X137822711Y-70163389D01*
X137910458Y-70327552D01*
X137910460Y-70327554D01*
X138028550Y-70471449D01*
X138172445Y-70589539D01*
X138172447Y-70589541D01*
X138336610Y-70677288D01*
X138336612Y-70677288D01*
X138336615Y-70677290D01*
X138514748Y-70731326D01*
X138514747Y-70731326D01*
X138531357Y-70732961D01*
X138700000Y-70749572D01*
X138885252Y-70731326D01*
X139063385Y-70677290D01*
X139227554Y-70589540D01*
X139371449Y-70471449D01*
X139489540Y-70327554D01*
X139530993Y-70250000D01*
X139577288Y-70163389D01*
X139577288Y-70163388D01*
X139577290Y-70163385D01*
X139631326Y-69985252D01*
X139649572Y-69800000D01*
X139631326Y-69614748D01*
X139577290Y-69436615D01*
X139577288Y-69436612D01*
X139577288Y-69436610D01*
X139489541Y-69272447D01*
X139489539Y-69272445D01*
X139371449Y-69128550D01*
X139227554Y-69010460D01*
X139227552Y-69010458D01*
X139063389Y-68922711D01*
X138963008Y-68892261D01*
X138885252Y-68868674D01*
X138885250Y-68868673D01*
X138885252Y-68868673D01*
X138700000Y-68850428D01*
X138514749Y-68868673D01*
X138336610Y-68922711D01*
X138172447Y-69010458D01*
X138172445Y-69010460D01*
X138028550Y-69128550D01*
X137910460Y-69272445D01*
X137910458Y-69272447D01*
X137822711Y-69436610D01*
X137768673Y-69614749D01*
X137750428Y-69800000D01*
X134542935Y-69800000D01*
X134515330Y-69752187D01*
X134486084Y-69701531D01*
X134379329Y-69582968D01*
X134349102Y-69519981D01*
X134357727Y-69450646D01*
X134379327Y-69417034D01*
X134486084Y-69298469D01*
X134574729Y-69144931D01*
X134629514Y-68976319D01*
X134648046Y-68800000D01*
X134629514Y-68623681D01*
X134574729Y-68455069D01*
X134574728Y-68455068D01*
X134574728Y-68455066D01*
X134574727Y-68455065D01*
X134542932Y-68399994D01*
X140344357Y-68399994D01*
X140344357Y-68400005D01*
X140364890Y-68647812D01*
X140364892Y-68647824D01*
X140425936Y-68888881D01*
X140525826Y-69116606D01*
X140661833Y-69324782D01*
X140680384Y-69344934D01*
X140830256Y-69507738D01*
X141026491Y-69660474D01*
X141135840Y-69719651D01*
X141195939Y-69752175D01*
X141245190Y-69778828D01*
X141255682Y-69782430D01*
X141256524Y-69782719D01*
X141313539Y-69823106D01*
X141339668Y-69887906D01*
X141326615Y-69956546D01*
X141278526Y-70007233D01*
X141256524Y-70017281D01*
X141245191Y-70021171D01*
X141245188Y-70021172D01*
X141026493Y-70139524D01*
X140830257Y-70292261D01*
X140661833Y-70475217D01*
X140525826Y-70683393D01*
X140425936Y-70911118D01*
X140364892Y-71152175D01*
X140364890Y-71152187D01*
X140344357Y-71399994D01*
X140344357Y-71400005D01*
X140364890Y-71647812D01*
X140364892Y-71647824D01*
X140425936Y-71888881D01*
X140525826Y-72116606D01*
X140661833Y-72324782D01*
X140680384Y-72344934D01*
X140830256Y-72507738D01*
X141026491Y-72660474D01*
X141026493Y-72660475D01*
X141195939Y-72752175D01*
X141245190Y-72778828D01*
X141255682Y-72782430D01*
X141256524Y-72782719D01*
X141313539Y-72823106D01*
X141339668Y-72887906D01*
X141326615Y-72956546D01*
X141278526Y-73007233D01*
X141256524Y-73017281D01*
X141245191Y-73021171D01*
X141245188Y-73021172D01*
X141026493Y-73139524D01*
X140830257Y-73292261D01*
X140661833Y-73475217D01*
X140525826Y-73683393D01*
X140425936Y-73911118D01*
X140364892Y-74152175D01*
X140364890Y-74152187D01*
X140344357Y-74399994D01*
X140344357Y-74400005D01*
X140364890Y-74647812D01*
X140364892Y-74647824D01*
X140425936Y-74888881D01*
X140525826Y-75116606D01*
X140661833Y-75324782D01*
X140661836Y-75324785D01*
X140830256Y-75507738D01*
X141026491Y-75660474D01*
X141026493Y-75660475D01*
X141201283Y-75755067D01*
X141245190Y-75778828D01*
X141480386Y-75859571D01*
X141725665Y-75900500D01*
X141974335Y-75900500D01*
X142219614Y-75859571D01*
X142454810Y-75778828D01*
X142673509Y-75660474D01*
X142869744Y-75507738D01*
X143038164Y-75324785D01*
X143174173Y-75116607D01*
X143274063Y-74888881D01*
X143335108Y-74647821D01*
X143338651Y-74605065D01*
X143355643Y-74400005D01*
X143355643Y-74399994D01*
X143335109Y-74152187D01*
X143335107Y-74152175D01*
X143274063Y-73911118D01*
X143174173Y-73683393D01*
X143038166Y-73475217D01*
X142967514Y-73398469D01*
X142869744Y-73292262D01*
X142673509Y-73139526D01*
X142673507Y-73139525D01*
X142673506Y-73139524D01*
X142454811Y-73021172D01*
X142454802Y-73021169D01*
X142443477Y-73017281D01*
X142386462Y-72976896D01*
X142360331Y-72912096D01*
X142373382Y-72843456D01*
X142421471Y-72792768D01*
X142443477Y-72782719D01*
X142447235Y-72781428D01*
X142454810Y-72778828D01*
X142673509Y-72660474D01*
X142869744Y-72507738D01*
X143038164Y-72324785D01*
X143174173Y-72116607D01*
X143274063Y-71888881D01*
X143335108Y-71647821D01*
X143335109Y-71647812D01*
X143355643Y-71400005D01*
X143355643Y-71399994D01*
X143335109Y-71152187D01*
X143335107Y-71152175D01*
X143274063Y-70911118D01*
X143174173Y-70683393D01*
X143038166Y-70475217D01*
X143016557Y-70451744D01*
X142869744Y-70292262D01*
X142673509Y-70139526D01*
X142673507Y-70139525D01*
X142673506Y-70139524D01*
X142454811Y-70021172D01*
X142454802Y-70021169D01*
X142443477Y-70017281D01*
X142386462Y-69976896D01*
X142360331Y-69912096D01*
X142373382Y-69843456D01*
X142421471Y-69792768D01*
X142443477Y-69782719D01*
X142447235Y-69781428D01*
X142454810Y-69778828D01*
X142673509Y-69660474D01*
X142869744Y-69507738D01*
X143038164Y-69324785D01*
X143174173Y-69116607D01*
X143274063Y-68888881D01*
X143335108Y-68647821D01*
X143335109Y-68647812D01*
X143355643Y-68400005D01*
X143355643Y-68399994D01*
X143335109Y-68152187D01*
X143335107Y-68152175D01*
X143274063Y-67911118D01*
X143174173Y-67683393D01*
X143038166Y-67475217D01*
X142969015Y-67400099D01*
X142869744Y-67292262D01*
X142673509Y-67139526D01*
X142673507Y-67139525D01*
X142673506Y-67139524D01*
X142454811Y-67021172D01*
X142454802Y-67021169D01*
X142219616Y-66940429D01*
X141974335Y-66899500D01*
X141725665Y-66899500D01*
X141480383Y-66940429D01*
X141245197Y-67021169D01*
X141245188Y-67021172D01*
X141026493Y-67139524D01*
X140830257Y-67292261D01*
X140661833Y-67475217D01*
X140525826Y-67683393D01*
X140425936Y-67911118D01*
X140364892Y-68152175D01*
X140364890Y-68152187D01*
X140344357Y-68399994D01*
X134542932Y-68399994D01*
X134486086Y-68301535D01*
X134486084Y-68301531D01*
X134379329Y-68182968D01*
X134349102Y-68119981D01*
X134357727Y-68050646D01*
X134379327Y-68017034D01*
X134486084Y-67898469D01*
X134574729Y-67744931D01*
X134629514Y-67576319D01*
X134648046Y-67400000D01*
X134629514Y-67223681D01*
X134574729Y-67055069D01*
X134574728Y-67055068D01*
X134574728Y-67055066D01*
X134574727Y-67055065D01*
X134542934Y-66999999D01*
X134486084Y-66901531D01*
X134411287Y-66818460D01*
X134367456Y-66769780D01*
X134261766Y-66692993D01*
X134224023Y-66665571D01*
X134224021Y-66665570D01*
X134224022Y-66665570D01*
X134062066Y-66593461D01*
X134062058Y-66593459D01*
X133888645Y-66556600D01*
X133711355Y-66556600D01*
X133537941Y-66593459D01*
X133537933Y-66593461D01*
X133375978Y-66665570D01*
X133232543Y-66769780D01*
X133113915Y-66901532D01*
X133025272Y-67055065D01*
X133025271Y-67055066D01*
X132970487Y-67223677D01*
X132970486Y-67223679D01*
X132951954Y-67400000D01*
X130648046Y-67400000D01*
X130629514Y-67223681D01*
X130574729Y-67055069D01*
X130574728Y-67055068D01*
X130574728Y-67055066D01*
X130574727Y-67055065D01*
X130542934Y-66999999D01*
X130486084Y-66901531D01*
X130411287Y-66818460D01*
X130367456Y-66769780D01*
X130261766Y-66692993D01*
X130224023Y-66665571D01*
X130224021Y-66665570D01*
X130224022Y-66665570D01*
X130062066Y-66593461D01*
X130062058Y-66593459D01*
X129888645Y-66556600D01*
X129711355Y-66556600D01*
X129537941Y-66593459D01*
X129537933Y-66593461D01*
X129375978Y-66665570D01*
X129232543Y-66769780D01*
X129113915Y-66901532D01*
X129025272Y-67055065D01*
X129025271Y-67055066D01*
X128970487Y-67223677D01*
X128970486Y-67223679D01*
X128951954Y-67400000D01*
X124448046Y-67400000D01*
X124429514Y-67223681D01*
X124374729Y-67055069D01*
X124374728Y-67055068D01*
X124374728Y-67055066D01*
X124374727Y-67055065D01*
X124342934Y-66999999D01*
X124286084Y-66901531D01*
X124211287Y-66818460D01*
X124167456Y-66769780D01*
X124061766Y-66692993D01*
X124024023Y-66665571D01*
X124024021Y-66665570D01*
X124024022Y-66665570D01*
X123862066Y-66593461D01*
X123862058Y-66593459D01*
X123688645Y-66556600D01*
X123511355Y-66556600D01*
X123337941Y-66593459D01*
X123337933Y-66593461D01*
X123175978Y-66665570D01*
X123032543Y-66769780D01*
X122913915Y-66901532D01*
X122825272Y-67055065D01*
X122825271Y-67055066D01*
X122770487Y-67223677D01*
X122770486Y-67223679D01*
X122751954Y-67400000D01*
X111313697Y-67400000D01*
X111274729Y-67280069D01*
X111274728Y-67280068D01*
X111274728Y-67280066D01*
X111274727Y-67280065D01*
X111224456Y-67192993D01*
X111186084Y-67126531D01*
X111131425Y-67065826D01*
X111067456Y-66994780D01*
X110992647Y-66940429D01*
X110954642Y-66912817D01*
X110911978Y-66857489D01*
X110905999Y-66787876D01*
X110938604Y-66726080D01*
X110954639Y-66712185D01*
X111067454Y-66630221D01*
X111186084Y-66498469D01*
X111274729Y-66344931D01*
X111329514Y-66176319D01*
X111337536Y-66100000D01*
X112451954Y-66100000D01*
X112470486Y-66276320D01*
X112470487Y-66276322D01*
X112525271Y-66444933D01*
X112525272Y-66444934D01*
X112576738Y-66534075D01*
X112613916Y-66598469D01*
X112642504Y-66630219D01*
X112732543Y-66730219D01*
X112732546Y-66730221D01*
X112875977Y-66834429D01*
X113037933Y-66906538D01*
X113037936Y-66906538D01*
X113037939Y-66906540D01*
X113211355Y-66943400D01*
X113388645Y-66943400D01*
X113562061Y-66906540D01*
X113562064Y-66906538D01*
X113562066Y-66906538D01*
X113594869Y-66891932D01*
X113724023Y-66834429D01*
X113867454Y-66730221D01*
X113986084Y-66598469D01*
X114074729Y-66444931D01*
X114129514Y-66276319D01*
X114148046Y-66100000D01*
X114129514Y-65923681D01*
X114074729Y-65755069D01*
X114074728Y-65755068D01*
X114074728Y-65755066D01*
X114074727Y-65755065D01*
X113997689Y-65621632D01*
X113986084Y-65601531D01*
X113932677Y-65542217D01*
X113867456Y-65469780D01*
X113742271Y-65378829D01*
X113724023Y-65365571D01*
X113724021Y-65365570D01*
X113724022Y-65365570D01*
X113562066Y-65293461D01*
X113562058Y-65293459D01*
X113388645Y-65256600D01*
X113211355Y-65256600D01*
X113037941Y-65293459D01*
X113037933Y-65293461D01*
X112875978Y-65365570D01*
X112732543Y-65469780D01*
X112613915Y-65601532D01*
X112525272Y-65755065D01*
X112525271Y-65755066D01*
X112470487Y-65923677D01*
X112470486Y-65923679D01*
X112451954Y-66100000D01*
X111337536Y-66100000D01*
X111348046Y-66000000D01*
X111329514Y-65823681D01*
X111274729Y-65655069D01*
X111274728Y-65655068D01*
X111274728Y-65655066D01*
X111274727Y-65655065D01*
X111217996Y-65556804D01*
X111186084Y-65501531D01*
X111115703Y-65423365D01*
X111067456Y-65369780D01*
X110980412Y-65306540D01*
X110924023Y-65265571D01*
X110924021Y-65265570D01*
X110924022Y-65265570D01*
X110762066Y-65193461D01*
X110762058Y-65193459D01*
X110588645Y-65156600D01*
X110411355Y-65156600D01*
X110237941Y-65193459D01*
X110237933Y-65193461D01*
X110075978Y-65265570D01*
X109932543Y-65369780D01*
X109813915Y-65501532D01*
X109725272Y-65655065D01*
X109725271Y-65655066D01*
X109670487Y-65823677D01*
X109670486Y-65823679D01*
X109651954Y-66000000D01*
X101146447Y-66000000D01*
X101370057Y-65776390D01*
X101370056Y-65776389D01*
X101323229Y-65739943D01*
X101104614Y-65621635D01*
X101104605Y-65621631D01*
X101092701Y-65617544D01*
X101035687Y-65577156D01*
X101009559Y-65512356D01*
X101022612Y-65443716D01*
X101070703Y-65393030D01*
X101092705Y-65382983D01*
X101104810Y-65378828D01*
X101323509Y-65260474D01*
X101519744Y-65107738D01*
X101688164Y-64924785D01*
X101824173Y-64716607D01*
X101924063Y-64488881D01*
X101985108Y-64247821D01*
X102005516Y-64001532D01*
X102005643Y-64000005D01*
X102005643Y-64000000D01*
X106151954Y-64000000D01*
X106170486Y-64176320D01*
X106170487Y-64176322D01*
X106225271Y-64344933D01*
X106225274Y-64344939D01*
X106279003Y-64438001D01*
X106295476Y-64505901D01*
X106279003Y-64561999D01*
X106225274Y-64655060D01*
X106225271Y-64655066D01*
X106170487Y-64823677D01*
X106170486Y-64823679D01*
X106151954Y-65000000D01*
X106170486Y-65176320D01*
X106170487Y-65176322D01*
X106225271Y-65344933D01*
X106225272Y-65344934D01*
X106270555Y-65423365D01*
X106313916Y-65498469D01*
X106326420Y-65512356D01*
X106432543Y-65630219D01*
X106432546Y-65630221D01*
X106575977Y-65734429D01*
X106737933Y-65806538D01*
X106737936Y-65806538D01*
X106737939Y-65806540D01*
X106911355Y-65843400D01*
X107088645Y-65843400D01*
X107262061Y-65806540D01*
X107262064Y-65806538D01*
X107262066Y-65806538D01*
X107329780Y-65776389D01*
X107424023Y-65734429D01*
X107567454Y-65630221D01*
X107575189Y-65621631D01*
X107587918Y-65607493D01*
X107686084Y-65498469D01*
X107774729Y-65344931D01*
X107829514Y-65176319D01*
X107848046Y-65000000D01*
X107829514Y-64823681D01*
X107774729Y-64655069D01*
X107774728Y-64655068D01*
X107774728Y-64655066D01*
X107774727Y-64655065D01*
X107720996Y-64562000D01*
X107704523Y-64494100D01*
X107720996Y-64438000D01*
X107774727Y-64344934D01*
X107774728Y-64344933D01*
X107781634Y-64323679D01*
X107829514Y-64176319D01*
X107848046Y-64000000D01*
X112651954Y-64000000D01*
X112670486Y-64176320D01*
X112670487Y-64176322D01*
X112725271Y-64344933D01*
X112725272Y-64344934D01*
X112779004Y-64438000D01*
X112813916Y-64498469D01*
X112820608Y-64505901D01*
X112932543Y-64630219D01*
X112932546Y-64630221D01*
X113075977Y-64734429D01*
X113237933Y-64806538D01*
X113237936Y-64806538D01*
X113237939Y-64806540D01*
X113411355Y-64843400D01*
X113588645Y-64843400D01*
X113762061Y-64806540D01*
X113762064Y-64806538D01*
X113762066Y-64806538D01*
X113794869Y-64791932D01*
X113924023Y-64734429D01*
X114067454Y-64630221D01*
X114184705Y-64500000D01*
X115851954Y-64500000D01*
X115870486Y-64676320D01*
X115870487Y-64676322D01*
X115925271Y-64844933D01*
X115925272Y-64844934D01*
X115998450Y-64971682D01*
X116013916Y-64998469D01*
X116015295Y-65000000D01*
X116132543Y-65130219D01*
X116132546Y-65130221D01*
X116275977Y-65234429D01*
X116437933Y-65306538D01*
X116437936Y-65306538D01*
X116437939Y-65306540D01*
X116611355Y-65343400D01*
X116788645Y-65343400D01*
X116962061Y-65306540D01*
X116962064Y-65306538D01*
X116962066Y-65306538D01*
X116994869Y-65291932D01*
X117124023Y-65234429D01*
X117267454Y-65130221D01*
X117386084Y-64998469D01*
X117474729Y-64844931D01*
X117529514Y-64676319D01*
X117548046Y-64500000D01*
X117529514Y-64323681D01*
X117474729Y-64155069D01*
X117474728Y-64155068D01*
X117474728Y-64155066D01*
X117474727Y-64155065D01*
X117411307Y-64045219D01*
X117386084Y-64001531D01*
X117306791Y-63913467D01*
X117267456Y-63869780D01*
X117195738Y-63817675D01*
X117124023Y-63765571D01*
X117124021Y-63765570D01*
X117124022Y-63765570D01*
X116962066Y-63693461D01*
X116962058Y-63693459D01*
X116788645Y-63656600D01*
X116611355Y-63656600D01*
X116437941Y-63693459D01*
X116437933Y-63693461D01*
X116275978Y-63765570D01*
X116132543Y-63869780D01*
X116013915Y-64001532D01*
X115925272Y-64155065D01*
X115925271Y-64155066D01*
X115870487Y-64323677D01*
X115870486Y-64323679D01*
X115851954Y-64500000D01*
X114184705Y-64500000D01*
X114186084Y-64498469D01*
X114274729Y-64344931D01*
X114329514Y-64176319D01*
X114348046Y-64000000D01*
X114329514Y-63823681D01*
X114274729Y-63655069D01*
X114274728Y-63655068D01*
X114274728Y-63655066D01*
X114274727Y-63655065D01*
X114202647Y-63530219D01*
X114186084Y-63501531D01*
X114132677Y-63442217D01*
X114067456Y-63369780D01*
X113948553Y-63283393D01*
X113924023Y-63265571D01*
X113924021Y-63265570D01*
X113924022Y-63265570D01*
X113762066Y-63193461D01*
X113762058Y-63193459D01*
X113588645Y-63156600D01*
X113411355Y-63156600D01*
X113237941Y-63193459D01*
X113237933Y-63193461D01*
X113075978Y-63265570D01*
X112932543Y-63369780D01*
X112813915Y-63501532D01*
X112725272Y-63655065D01*
X112725271Y-63655066D01*
X112670487Y-63823677D01*
X112670486Y-63823679D01*
X112651954Y-64000000D01*
X107848046Y-64000000D01*
X107829514Y-63823681D01*
X107774729Y-63655069D01*
X107774728Y-63655068D01*
X107774728Y-63655066D01*
X107774727Y-63655065D01*
X107702647Y-63530219D01*
X107686084Y-63501531D01*
X107632677Y-63442217D01*
X107567456Y-63369780D01*
X107448553Y-63283393D01*
X107424023Y-63265571D01*
X107424021Y-63265570D01*
X107424022Y-63265570D01*
X107262066Y-63193461D01*
X107262058Y-63193459D01*
X107088645Y-63156600D01*
X106911355Y-63156600D01*
X106737941Y-63193459D01*
X106737933Y-63193461D01*
X106575978Y-63265570D01*
X106432543Y-63369780D01*
X106313915Y-63501532D01*
X106225272Y-63655065D01*
X106225271Y-63655066D01*
X106170487Y-63823677D01*
X106170486Y-63823679D01*
X106151954Y-64000000D01*
X102005643Y-64000000D01*
X102005643Y-63999994D01*
X101985109Y-63752187D01*
X101985107Y-63752175D01*
X101924063Y-63511118D01*
X101824173Y-63283393D01*
X101688166Y-63075217D01*
X101666557Y-63051744D01*
X101526867Y-62900000D01*
X102651954Y-62900000D01*
X102670486Y-63076320D01*
X102670487Y-63076322D01*
X102725271Y-63244933D01*
X102725272Y-63244934D01*
X102797352Y-63369779D01*
X102813916Y-63398469D01*
X102828801Y-63415000D01*
X102932543Y-63530219D01*
X102932546Y-63530221D01*
X103075977Y-63634429D01*
X103237933Y-63706538D01*
X103237936Y-63706538D01*
X103237939Y-63706540D01*
X103411355Y-63743400D01*
X103588645Y-63743400D01*
X103762061Y-63706540D01*
X103762064Y-63706538D01*
X103762066Y-63706538D01*
X103794869Y-63691932D01*
X103924023Y-63634429D01*
X104067454Y-63530221D01*
X104186084Y-63398469D01*
X104274729Y-63244931D01*
X104329514Y-63076319D01*
X104348046Y-62900000D01*
X104329514Y-62723681D01*
X104274729Y-62555069D01*
X104274728Y-62555068D01*
X104274728Y-62555066D01*
X104274727Y-62555065D01*
X104242050Y-62498467D01*
X104186084Y-62401531D01*
X104127468Y-62336431D01*
X104067456Y-62269780D01*
X103995738Y-62217675D01*
X103924023Y-62165571D01*
X103924021Y-62165570D01*
X103924022Y-62165570D01*
X103762066Y-62093461D01*
X103762058Y-62093459D01*
X103588645Y-62056600D01*
X103411355Y-62056600D01*
X103237941Y-62093459D01*
X103237933Y-62093461D01*
X103075978Y-62165570D01*
X102932543Y-62269780D01*
X102813915Y-62401532D01*
X102725272Y-62555065D01*
X102725271Y-62555066D01*
X102670487Y-62723677D01*
X102670486Y-62723679D01*
X102651954Y-62900000D01*
X101526867Y-62900000D01*
X101519744Y-62892262D01*
X101323509Y-62739526D01*
X101323507Y-62739525D01*
X101323506Y-62739524D01*
X101104811Y-62621172D01*
X101104802Y-62621169D01*
X100869616Y-62540429D01*
X100624335Y-62499500D01*
X100375665Y-62499500D01*
X100130383Y-62540429D01*
X99895197Y-62621169D01*
X99895188Y-62621172D01*
X99676493Y-62739524D01*
X99480257Y-62892261D01*
X99311833Y-63075217D01*
X99175826Y-63283393D01*
X99075936Y-63511118D01*
X99014892Y-63752175D01*
X99014890Y-63752187D01*
X98994357Y-63999994D01*
X98100500Y-63999994D01*
X98100500Y-61500000D01*
X105651954Y-61500000D01*
X105670486Y-61676320D01*
X105670487Y-61676322D01*
X105725271Y-61844933D01*
X105725272Y-61844934D01*
X105782157Y-61943461D01*
X105813916Y-61998469D01*
X105815295Y-62000000D01*
X105932543Y-62130219D01*
X105932546Y-62130221D01*
X106075977Y-62234429D01*
X106237933Y-62306538D01*
X106237936Y-62306538D01*
X106237939Y-62306540D01*
X106411355Y-62343400D01*
X106588641Y-62343400D01*
X106588645Y-62343400D01*
X106621429Y-62336431D01*
X106691091Y-62341746D01*
X106746826Y-62383882D01*
X106754588Y-62395710D01*
X106813915Y-62498467D01*
X106813916Y-62498469D01*
X106932543Y-62630219D01*
X106932546Y-62630221D01*
X107075977Y-62734429D01*
X107237933Y-62806538D01*
X107237936Y-62806538D01*
X107237939Y-62806540D01*
X107411355Y-62843400D01*
X107588645Y-62843400D01*
X107762061Y-62806540D01*
X107762064Y-62806538D01*
X107762066Y-62806538D01*
X107796245Y-62791320D01*
X107924023Y-62734429D01*
X108067454Y-62630221D01*
X108075605Y-62621169D01*
X108081159Y-62615000D01*
X128601954Y-62615000D01*
X128620486Y-62791320D01*
X128620487Y-62791322D01*
X128675271Y-62959933D01*
X128677339Y-62964578D01*
X128686615Y-63033829D01*
X128677339Y-63065422D01*
X128675271Y-63070066D01*
X128620487Y-63238677D01*
X128620486Y-63238679D01*
X128601954Y-63415000D01*
X128620486Y-63591320D01*
X128620487Y-63591322D01*
X128675271Y-63759933D01*
X128675272Y-63759934D01*
X128712077Y-63823681D01*
X128763916Y-63913469D01*
X128811414Y-63966221D01*
X128882543Y-64045219D01*
X128882546Y-64045221D01*
X129025977Y-64149429D01*
X129187933Y-64221538D01*
X129187936Y-64221538D01*
X129187939Y-64221540D01*
X129361355Y-64258400D01*
X129538645Y-64258400D01*
X129712061Y-64221540D01*
X129712064Y-64221538D01*
X129712066Y-64221538D01*
X129849564Y-64160319D01*
X129918814Y-64151034D01*
X129950436Y-64160319D01*
X130087933Y-64221538D01*
X130087936Y-64221538D01*
X130087939Y-64221540D01*
X130261355Y-64258400D01*
X130438645Y-64258400D01*
X130612061Y-64221540D01*
X130612064Y-64221538D01*
X130612066Y-64221538D01*
X130644869Y-64206932D01*
X130774023Y-64149429D01*
X130917454Y-64045221D01*
X131036084Y-63913469D01*
X131124729Y-63759931D01*
X131179514Y-63591319D01*
X131198046Y-63415000D01*
X131179514Y-63238681D01*
X131124729Y-63070069D01*
X131124727Y-63070066D01*
X131122669Y-63065444D01*
X131113379Y-62996194D01*
X131122669Y-62964556D01*
X131124726Y-62959936D01*
X131124729Y-62959931D01*
X131179514Y-62791319D01*
X131198046Y-62615000D01*
X134701954Y-62615000D01*
X134720486Y-62791320D01*
X134720487Y-62791322D01*
X134775271Y-62959933D01*
X134777339Y-62964578D01*
X134786615Y-63033829D01*
X134777339Y-63065422D01*
X134775271Y-63070066D01*
X134720487Y-63238677D01*
X134720486Y-63238679D01*
X134701954Y-63415000D01*
X134720486Y-63591320D01*
X134720487Y-63591322D01*
X134775271Y-63759933D01*
X134775272Y-63759934D01*
X134812077Y-63823681D01*
X134863916Y-63913469D01*
X134911414Y-63966221D01*
X134982543Y-64045219D01*
X134982546Y-64045221D01*
X135125977Y-64149429D01*
X135287933Y-64221538D01*
X135287936Y-64221538D01*
X135287939Y-64221540D01*
X135461355Y-64258400D01*
X135638645Y-64258400D01*
X135812061Y-64221540D01*
X135812064Y-64221538D01*
X135812066Y-64221538D01*
X135844869Y-64206932D01*
X135974023Y-64149429D01*
X136117454Y-64045221D01*
X136236084Y-63913469D01*
X136324729Y-63759931D01*
X136379514Y-63591319D01*
X136398046Y-63415000D01*
X136379514Y-63238681D01*
X136324729Y-63070069D01*
X136324727Y-63070066D01*
X136322669Y-63065444D01*
X136313379Y-62996194D01*
X136322669Y-62964556D01*
X136324726Y-62959936D01*
X136324729Y-62959931D01*
X136379514Y-62791319D01*
X136383857Y-62750000D01*
X139551954Y-62750000D01*
X139570486Y-62926320D01*
X139570487Y-62926322D01*
X139625271Y-63094933D01*
X139625272Y-63094934D01*
X139682157Y-63193461D01*
X139713916Y-63248469D01*
X139729314Y-63265570D01*
X139832543Y-63380219D01*
X139832546Y-63380221D01*
X139975977Y-63484429D01*
X140137933Y-63556538D01*
X140137936Y-63556538D01*
X140137939Y-63556540D01*
X140311355Y-63593400D01*
X140488645Y-63593400D01*
X140662061Y-63556540D01*
X140662064Y-63556538D01*
X140662066Y-63556538D01*
X140694869Y-63541932D01*
X140824023Y-63484429D01*
X140967454Y-63380221D01*
X141086084Y-63248469D01*
X141174729Y-63094931D01*
X141229514Y-62926319D01*
X141248046Y-62750000D01*
X141229514Y-62573681D01*
X141174729Y-62405069D01*
X141174728Y-62405068D01*
X141174728Y-62405066D01*
X141174727Y-62405065D01*
X141139124Y-62343399D01*
X141086084Y-62251531D01*
X141018363Y-62176319D01*
X140967456Y-62119780D01*
X140880495Y-62056600D01*
X140824023Y-62015571D01*
X140824021Y-62015570D01*
X140824022Y-62015570D01*
X140662066Y-61943461D01*
X140662058Y-61943459D01*
X140488645Y-61906600D01*
X140311355Y-61906600D01*
X140137941Y-61943459D01*
X140137933Y-61943461D01*
X139975978Y-62015570D01*
X139832543Y-62119780D01*
X139713915Y-62251532D01*
X139625272Y-62405065D01*
X139625271Y-62405066D01*
X139570487Y-62573677D01*
X139570486Y-62573679D01*
X139551954Y-62750000D01*
X136383857Y-62750000D01*
X136398046Y-62615000D01*
X136379514Y-62438681D01*
X136324729Y-62270069D01*
X136324728Y-62270068D01*
X136324728Y-62270066D01*
X136324727Y-62270065D01*
X136270603Y-62176320D01*
X136236084Y-62116531D01*
X136182122Y-62056600D01*
X136117456Y-61984780D01*
X136009849Y-61906600D01*
X135974023Y-61880571D01*
X135974021Y-61880570D01*
X135974022Y-61880570D01*
X135812066Y-61808461D01*
X135812058Y-61808459D01*
X135638645Y-61771600D01*
X135461355Y-61771600D01*
X135287941Y-61808459D01*
X135287933Y-61808461D01*
X135125978Y-61880570D01*
X134982543Y-61984780D01*
X134863915Y-62116532D01*
X134775272Y-62270065D01*
X134775271Y-62270066D01*
X134720487Y-62438677D01*
X134720486Y-62438679D01*
X134701954Y-62615000D01*
X131198046Y-62615000D01*
X131179514Y-62438681D01*
X131124729Y-62270069D01*
X131124728Y-62270068D01*
X131124728Y-62270066D01*
X131124727Y-62270065D01*
X131070603Y-62176320D01*
X131036084Y-62116531D01*
X130982122Y-62056600D01*
X130917456Y-61984780D01*
X130809849Y-61906600D01*
X130774023Y-61880571D01*
X130774021Y-61880570D01*
X130774022Y-61880570D01*
X130612066Y-61808461D01*
X130612058Y-61808459D01*
X130438645Y-61771600D01*
X130261355Y-61771600D01*
X130087941Y-61808459D01*
X129950436Y-61869681D01*
X129881186Y-61878965D01*
X129849564Y-61869681D01*
X129793982Y-61844934D01*
X129712061Y-61808460D01*
X129712059Y-61808459D01*
X129712058Y-61808459D01*
X129538645Y-61771600D01*
X129361355Y-61771600D01*
X129187941Y-61808459D01*
X129187933Y-61808461D01*
X129025978Y-61880570D01*
X128882543Y-61984780D01*
X128763915Y-62116532D01*
X128675272Y-62270065D01*
X128675271Y-62270066D01*
X128620487Y-62438677D01*
X128620486Y-62438679D01*
X128601954Y-62615000D01*
X108081159Y-62615000D01*
X108186084Y-62498469D01*
X108274729Y-62344931D01*
X108329514Y-62176319D01*
X108348046Y-62000000D01*
X108329514Y-61823681D01*
X108274729Y-61655069D01*
X108274728Y-61655068D01*
X108274728Y-61655066D01*
X108274727Y-61655065D01*
X108243798Y-61601495D01*
X108186084Y-61501531D01*
X108132677Y-61442217D01*
X108067456Y-61369780D01*
X107995738Y-61317675D01*
X107924023Y-61265571D01*
X107924021Y-61265570D01*
X107924022Y-61265570D01*
X107762066Y-61193461D01*
X107762058Y-61193459D01*
X107588645Y-61156600D01*
X107411355Y-61156600D01*
X107411350Y-61156600D01*
X107378572Y-61163567D01*
X107308905Y-61158251D01*
X107253172Y-61116113D01*
X107245405Y-61104277D01*
X107212753Y-61047724D01*
X107186084Y-61001531D01*
X107067456Y-60869780D01*
X106995738Y-60817675D01*
X106924023Y-60765571D01*
X106924021Y-60765570D01*
X106924022Y-60765570D01*
X106762066Y-60693461D01*
X106762058Y-60693459D01*
X106588645Y-60656600D01*
X106411355Y-60656600D01*
X106237941Y-60693459D01*
X106237933Y-60693461D01*
X106075978Y-60765570D01*
X105932543Y-60869780D01*
X105813915Y-61001532D01*
X105725272Y-61155065D01*
X105725271Y-61155066D01*
X105670487Y-61323677D01*
X105670486Y-61323679D01*
X105651954Y-61500000D01*
X98100500Y-61500000D01*
X98100500Y-59450000D01*
X123301954Y-59450000D01*
X123320486Y-59626320D01*
X123320487Y-59626322D01*
X123375271Y-59794933D01*
X123375272Y-59794934D01*
X123406180Y-59848467D01*
X123463916Y-59948469D01*
X123492504Y-59980219D01*
X123582543Y-60080219D01*
X123582546Y-60080221D01*
X123725977Y-60184429D01*
X123887933Y-60256538D01*
X123887936Y-60256538D01*
X123887939Y-60256540D01*
X124061355Y-60293400D01*
X124238645Y-60293400D01*
X124412061Y-60256540D01*
X124412064Y-60256538D01*
X124412066Y-60256538D01*
X124444869Y-60241932D01*
X124574023Y-60184429D01*
X124717454Y-60080221D01*
X124836084Y-59948469D01*
X124924729Y-59794931D01*
X124979514Y-59626319D01*
X124998046Y-59450000D01*
X124987536Y-59350000D01*
X126151954Y-59350000D01*
X126170486Y-59526320D01*
X126170487Y-59526322D01*
X126225271Y-59694933D01*
X126225272Y-59694934D01*
X126298450Y-59821682D01*
X126313916Y-59848469D01*
X126361414Y-59901221D01*
X126432543Y-59980219D01*
X126432546Y-59980221D01*
X126575977Y-60084429D01*
X126737933Y-60156538D01*
X126737936Y-60156538D01*
X126737939Y-60156540D01*
X126911355Y-60193400D01*
X127088645Y-60193400D01*
X127262061Y-60156540D01*
X127262064Y-60156538D01*
X127262066Y-60156538D01*
X127294869Y-60141932D01*
X127424023Y-60084429D01*
X127567454Y-59980221D01*
X127686084Y-59848469D01*
X127774729Y-59694931D01*
X127829514Y-59526319D01*
X127848046Y-59350000D01*
X127829514Y-59173681D01*
X127774729Y-59005069D01*
X127774728Y-59005068D01*
X127774728Y-59005066D01*
X127774727Y-59005065D01*
X127743798Y-58951495D01*
X127686084Y-58851531D01*
X127632677Y-58792217D01*
X127567456Y-58719780D01*
X127495738Y-58667675D01*
X127424023Y-58615571D01*
X127424021Y-58615570D01*
X127424022Y-58615570D01*
X127262066Y-58543461D01*
X127262058Y-58543459D01*
X127088645Y-58506600D01*
X126911355Y-58506600D01*
X126737941Y-58543459D01*
X126737933Y-58543461D01*
X126575978Y-58615570D01*
X126432543Y-58719780D01*
X126313915Y-58851532D01*
X126225272Y-59005065D01*
X126225271Y-59005066D01*
X126170487Y-59173677D01*
X126170486Y-59173679D01*
X126151954Y-59350000D01*
X124987536Y-59350000D01*
X124979514Y-59273681D01*
X124924729Y-59105069D01*
X124924728Y-59105068D01*
X124924728Y-59105066D01*
X124924727Y-59105065D01*
X124866992Y-59005065D01*
X124836084Y-58951531D01*
X124746044Y-58851531D01*
X124717456Y-58819780D01*
X124579816Y-58719780D01*
X124574023Y-58715571D01*
X124574021Y-58715570D01*
X124574022Y-58715570D01*
X124412066Y-58643461D01*
X124412058Y-58643459D01*
X124238645Y-58606600D01*
X124061355Y-58606600D01*
X123887941Y-58643459D01*
X123887933Y-58643461D01*
X123725978Y-58715570D01*
X123582543Y-58819780D01*
X123463915Y-58951532D01*
X123375272Y-59105065D01*
X123375271Y-59105066D01*
X123320487Y-59273677D01*
X123320486Y-59273679D01*
X123301954Y-59450000D01*
X98100500Y-59450000D01*
X98100500Y-57800000D01*
X110151954Y-57800000D01*
X110170486Y-57976320D01*
X110170487Y-57976322D01*
X110225271Y-58144933D01*
X110225272Y-58144934D01*
X110298450Y-58271682D01*
X110313916Y-58298469D01*
X110361414Y-58351221D01*
X110432543Y-58430219D01*
X110432546Y-58430221D01*
X110575977Y-58534429D01*
X110737933Y-58606538D01*
X110737936Y-58606538D01*
X110737939Y-58606540D01*
X110911355Y-58643400D01*
X111088645Y-58643400D01*
X111262061Y-58606540D01*
X111262064Y-58606538D01*
X111262066Y-58606538D01*
X111294869Y-58591932D01*
X111424023Y-58534429D01*
X111567454Y-58430221D01*
X111686084Y-58298469D01*
X111774729Y-58144931D01*
X111829514Y-57976319D01*
X111848046Y-57800000D01*
X111829514Y-57623681D01*
X111774729Y-57455069D01*
X111774728Y-57455068D01*
X111774728Y-57455066D01*
X111774727Y-57455065D01*
X111743798Y-57401495D01*
X111686084Y-57301531D01*
X111632677Y-57242217D01*
X111567456Y-57169780D01*
X111495738Y-57117675D01*
X111424023Y-57065571D01*
X111424021Y-57065570D01*
X111424022Y-57065570D01*
X111262066Y-56993461D01*
X111262058Y-56993459D01*
X111088645Y-56956600D01*
X110911355Y-56956600D01*
X110737941Y-56993459D01*
X110737933Y-56993461D01*
X110575978Y-57065570D01*
X110432543Y-57169780D01*
X110313915Y-57301532D01*
X110225272Y-57455065D01*
X110225271Y-57455066D01*
X110170487Y-57623677D01*
X110170486Y-57623679D01*
X110151954Y-57800000D01*
X98100500Y-57800000D01*
X98100500Y-55000000D01*
X117651954Y-55000000D01*
X117670486Y-55176320D01*
X117670487Y-55176322D01*
X117725271Y-55344933D01*
X117725272Y-55344934D01*
X117756180Y-55398467D01*
X117813916Y-55498469D01*
X117842504Y-55530219D01*
X117932543Y-55630219D01*
X117932546Y-55630221D01*
X118075977Y-55734429D01*
X118237933Y-55806538D01*
X118237936Y-55806538D01*
X118237939Y-55806540D01*
X118411355Y-55843400D01*
X118588645Y-55843400D01*
X118762061Y-55806540D01*
X118762064Y-55806538D01*
X118762066Y-55806538D01*
X118794869Y-55791932D01*
X118924023Y-55734429D01*
X119067454Y-55630221D01*
X119186084Y-55498469D01*
X119274729Y-55344931D01*
X119329514Y-55176319D01*
X119348046Y-55000000D01*
X119329514Y-54823681D01*
X119274729Y-54655069D01*
X119274728Y-54655068D01*
X119274728Y-54655066D01*
X119274727Y-54655065D01*
X119216992Y-54555065D01*
X119186084Y-54501531D01*
X119184705Y-54500000D01*
X128651954Y-54500000D01*
X128670486Y-54676320D01*
X128670487Y-54676322D01*
X128725271Y-54844933D01*
X128725272Y-54844934D01*
X128757065Y-54900000D01*
X128813916Y-54998469D01*
X128815295Y-55000000D01*
X128932543Y-55130219D01*
X128932546Y-55130221D01*
X129075977Y-55234429D01*
X129237933Y-55306538D01*
X129237936Y-55306538D01*
X129237939Y-55306540D01*
X129411355Y-55343400D01*
X129588645Y-55343400D01*
X129762061Y-55306540D01*
X129762064Y-55306538D01*
X129762066Y-55306538D01*
X129794869Y-55291932D01*
X129924023Y-55234429D01*
X130067454Y-55130221D01*
X130186084Y-54998469D01*
X130242935Y-54900000D01*
X131151954Y-54900000D01*
X131170486Y-55076320D01*
X131170487Y-55076322D01*
X131225271Y-55244933D01*
X131225272Y-55244934D01*
X131298450Y-55371682D01*
X131313916Y-55398469D01*
X131361414Y-55451221D01*
X131432543Y-55530219D01*
X131432546Y-55530221D01*
X131575977Y-55634429D01*
X131737933Y-55706538D01*
X131737936Y-55706538D01*
X131737939Y-55706540D01*
X131911355Y-55743400D01*
X132088645Y-55743400D01*
X132262061Y-55706540D01*
X132262064Y-55706538D01*
X132262066Y-55706538D01*
X132294869Y-55691932D01*
X132424023Y-55634429D01*
X132567454Y-55530221D01*
X132686084Y-55398469D01*
X132774729Y-55244931D01*
X132829514Y-55076319D01*
X132848046Y-54900000D01*
X135751954Y-54900000D01*
X135770486Y-55076320D01*
X135770487Y-55076322D01*
X135825271Y-55244933D01*
X135825272Y-55244934D01*
X135898450Y-55371682D01*
X135913916Y-55398469D01*
X135961414Y-55451221D01*
X136032543Y-55530219D01*
X136032546Y-55530221D01*
X136175977Y-55634429D01*
X136337933Y-55706538D01*
X136337936Y-55706538D01*
X136337939Y-55706540D01*
X136511355Y-55743400D01*
X136688645Y-55743400D01*
X136862061Y-55706540D01*
X136862064Y-55706538D01*
X136862066Y-55706538D01*
X136894869Y-55691932D01*
X137024023Y-55634429D01*
X137167454Y-55530221D01*
X137286084Y-55398469D01*
X137374729Y-55244931D01*
X137429514Y-55076319D01*
X137448046Y-54900000D01*
X138551954Y-54900000D01*
X138570486Y-55076320D01*
X138570487Y-55076322D01*
X138625271Y-55244933D01*
X138625272Y-55244934D01*
X138698450Y-55371682D01*
X138713916Y-55398469D01*
X138761414Y-55451221D01*
X138832543Y-55530219D01*
X138832546Y-55530221D01*
X138975977Y-55634429D01*
X139137933Y-55706538D01*
X139137936Y-55706538D01*
X139137939Y-55706540D01*
X139311355Y-55743400D01*
X139488645Y-55743400D01*
X139662061Y-55706540D01*
X139662064Y-55706538D01*
X139662066Y-55706538D01*
X139694869Y-55691932D01*
X139824023Y-55634429D01*
X139967454Y-55530221D01*
X140086084Y-55398469D01*
X140174729Y-55244931D01*
X140229514Y-55076319D01*
X140248046Y-54900000D01*
X140229514Y-54723681D01*
X140174729Y-54555069D01*
X140174728Y-54555068D01*
X140174728Y-54555066D01*
X140174727Y-54555065D01*
X140142935Y-54500000D01*
X140086084Y-54401531D01*
X140000552Y-54306538D01*
X139967456Y-54269780D01*
X139895738Y-54217675D01*
X139824023Y-54165571D01*
X139824021Y-54165570D01*
X139824022Y-54165570D01*
X139662066Y-54093461D01*
X139662058Y-54093459D01*
X139488645Y-54056600D01*
X139311355Y-54056600D01*
X139137941Y-54093459D01*
X139137933Y-54093461D01*
X138975978Y-54165570D01*
X138832543Y-54269780D01*
X138713915Y-54401532D01*
X138625272Y-54555065D01*
X138625271Y-54555066D01*
X138570487Y-54723677D01*
X138570486Y-54723679D01*
X138551954Y-54900000D01*
X137448046Y-54900000D01*
X137429514Y-54723681D01*
X137374729Y-54555069D01*
X137374728Y-54555068D01*
X137374728Y-54555066D01*
X137374727Y-54555065D01*
X137342935Y-54500000D01*
X137286084Y-54401531D01*
X137200552Y-54306538D01*
X137167456Y-54269780D01*
X137095738Y-54217675D01*
X137024023Y-54165571D01*
X137024021Y-54165570D01*
X137024022Y-54165570D01*
X136862066Y-54093461D01*
X136862058Y-54093459D01*
X136688645Y-54056600D01*
X136511355Y-54056600D01*
X136337941Y-54093459D01*
X136337933Y-54093461D01*
X136175978Y-54165570D01*
X136032543Y-54269780D01*
X135913915Y-54401532D01*
X135825272Y-54555065D01*
X135825271Y-54555066D01*
X135770487Y-54723677D01*
X135770486Y-54723679D01*
X135751954Y-54900000D01*
X132848046Y-54900000D01*
X132829514Y-54723681D01*
X132774729Y-54555069D01*
X132774728Y-54555068D01*
X132774728Y-54555066D01*
X132774727Y-54555065D01*
X132742935Y-54500000D01*
X132686084Y-54401531D01*
X132600552Y-54306538D01*
X132567456Y-54269780D01*
X132495738Y-54217675D01*
X132424023Y-54165571D01*
X132424021Y-54165570D01*
X132424022Y-54165570D01*
X132262066Y-54093461D01*
X132262058Y-54093459D01*
X132088645Y-54056600D01*
X131911355Y-54056600D01*
X131737941Y-54093459D01*
X131737933Y-54093461D01*
X131575978Y-54165570D01*
X131432543Y-54269780D01*
X131313915Y-54401532D01*
X131225272Y-54555065D01*
X131225271Y-54555066D01*
X131170487Y-54723677D01*
X131170486Y-54723679D01*
X131151954Y-54900000D01*
X130242935Y-54900000D01*
X130274729Y-54844931D01*
X130329514Y-54676319D01*
X130348046Y-54500000D01*
X130329514Y-54323681D01*
X130274729Y-54155069D01*
X130274728Y-54155068D01*
X130274728Y-54155066D01*
X130274727Y-54155065D01*
X130239159Y-54093460D01*
X130186084Y-54001531D01*
X130132677Y-53942217D01*
X130067456Y-53869780D01*
X129980412Y-53806540D01*
X129924023Y-53765571D01*
X129924021Y-53765570D01*
X129924022Y-53765570D01*
X129762066Y-53693461D01*
X129762058Y-53693459D01*
X129588645Y-53656600D01*
X129411355Y-53656600D01*
X129237941Y-53693459D01*
X129237933Y-53693461D01*
X129075978Y-53765570D01*
X128932543Y-53869780D01*
X128813915Y-54001532D01*
X128725272Y-54155065D01*
X128725271Y-54155066D01*
X128670487Y-54323677D01*
X128670486Y-54323679D01*
X128651954Y-54500000D01*
X119184705Y-54500000D01*
X119096044Y-54401531D01*
X119067456Y-54369780D01*
X118980412Y-54306540D01*
X118924023Y-54265571D01*
X118924021Y-54265570D01*
X118924022Y-54265570D01*
X118762066Y-54193461D01*
X118762058Y-54193459D01*
X118588645Y-54156600D01*
X118411355Y-54156600D01*
X118237941Y-54193459D01*
X118237933Y-54193461D01*
X118075978Y-54265570D01*
X117932543Y-54369780D01*
X117813915Y-54501532D01*
X117725272Y-54655065D01*
X117725271Y-54655066D01*
X117670487Y-54823677D01*
X117670486Y-54823679D01*
X117651954Y-55000000D01*
X98100500Y-55000000D01*
X98100500Y-53500000D01*
X104651954Y-53500000D01*
X104670486Y-53676320D01*
X104670487Y-53676322D01*
X104725271Y-53844933D01*
X104725272Y-53844934D01*
X104791458Y-53959570D01*
X104813916Y-53998469D01*
X104861414Y-54051221D01*
X104932543Y-54130219D01*
X104932546Y-54130221D01*
X105075977Y-54234429D01*
X105237933Y-54306538D01*
X105237936Y-54306538D01*
X105237939Y-54306540D01*
X105411355Y-54343400D01*
X105588645Y-54343400D01*
X105762061Y-54306540D01*
X105762064Y-54306538D01*
X105762066Y-54306538D01*
X105844624Y-54269780D01*
X105924023Y-54234429D01*
X106067454Y-54130221D01*
X106186084Y-53998469D01*
X106274729Y-53844931D01*
X106329514Y-53676319D01*
X106348046Y-53500000D01*
X106329514Y-53323681D01*
X106274729Y-53155069D01*
X106274728Y-53155068D01*
X106274728Y-53155066D01*
X106274727Y-53155065D01*
X106243798Y-53101495D01*
X106186084Y-53001531D01*
X106132677Y-52942217D01*
X106067456Y-52869780D01*
X105971411Y-52800000D01*
X107551954Y-52800000D01*
X107570486Y-52976320D01*
X107570487Y-52976322D01*
X107625271Y-53144933D01*
X107625272Y-53144934D01*
X107666652Y-53216606D01*
X107713916Y-53298469D01*
X107736617Y-53323681D01*
X107832543Y-53430219D01*
X107832546Y-53430221D01*
X107975977Y-53534429D01*
X108137933Y-53606538D01*
X108137936Y-53606538D01*
X108137939Y-53606540D01*
X108311355Y-53643400D01*
X108488645Y-53643400D01*
X108662061Y-53606540D01*
X108662064Y-53606538D01*
X108662066Y-53606538D01*
X108694869Y-53591932D01*
X108824023Y-53534429D01*
X108967454Y-53430221D01*
X109086084Y-53298469D01*
X109174729Y-53144931D01*
X109221820Y-53000000D01*
X115651954Y-53000000D01*
X115670486Y-53176320D01*
X115670487Y-53176322D01*
X115725271Y-53344933D01*
X115725272Y-53344934D01*
X115774512Y-53430219D01*
X115813916Y-53498469D01*
X115815295Y-53500000D01*
X115932543Y-53630219D01*
X115932546Y-53630221D01*
X116075977Y-53734429D01*
X116237933Y-53806538D01*
X116237936Y-53806538D01*
X116237939Y-53806540D01*
X116411355Y-53843400D01*
X116588645Y-53843400D01*
X116762061Y-53806540D01*
X116762064Y-53806538D01*
X116762066Y-53806538D01*
X116794869Y-53791932D01*
X116924023Y-53734429D01*
X117067454Y-53630221D01*
X117186084Y-53498469D01*
X117274729Y-53344931D01*
X117329514Y-53176319D01*
X117348046Y-53000000D01*
X117329514Y-52823681D01*
X117289328Y-52700000D01*
X133050428Y-52700000D01*
X133068673Y-52885250D01*
X133122711Y-53063389D01*
X133210458Y-53227552D01*
X133210460Y-53227554D01*
X133328550Y-53371449D01*
X133472445Y-53489539D01*
X133472447Y-53489541D01*
X133636610Y-53577288D01*
X133636612Y-53577288D01*
X133636615Y-53577290D01*
X133814748Y-53631326D01*
X133814747Y-53631326D01*
X133831357Y-53632961D01*
X134000000Y-53649572D01*
X134185252Y-53631326D01*
X134363385Y-53577290D01*
X134443573Y-53534429D01*
X134527552Y-53489541D01*
X134527551Y-53489541D01*
X134527554Y-53489540D01*
X134671449Y-53371449D01*
X134789540Y-53227554D01*
X134877290Y-53063385D01*
X134931326Y-52885252D01*
X134949572Y-52700000D01*
X134931326Y-52514748D01*
X134877290Y-52336615D01*
X134877288Y-52336612D01*
X134877288Y-52336610D01*
X134789541Y-52172447D01*
X134789539Y-52172445D01*
X134671449Y-52028550D01*
X134527554Y-51910460D01*
X134527552Y-51910458D01*
X134363389Y-51822711D01*
X134233774Y-51783393D01*
X134185252Y-51768674D01*
X134185250Y-51768673D01*
X134185252Y-51768673D01*
X134000000Y-51750428D01*
X133814749Y-51768673D01*
X133636610Y-51822711D01*
X133472447Y-51910458D01*
X133472445Y-51910460D01*
X133328550Y-52028550D01*
X133210460Y-52172445D01*
X133210458Y-52172447D01*
X133122711Y-52336610D01*
X133068673Y-52514749D01*
X133050428Y-52700000D01*
X117289328Y-52700000D01*
X117274729Y-52655069D01*
X117274728Y-52655068D01*
X117274728Y-52655066D01*
X117274727Y-52655065D01*
X117193715Y-52514749D01*
X117186084Y-52501531D01*
X117132677Y-52442217D01*
X117067456Y-52369780D01*
X116973518Y-52301531D01*
X116924023Y-52265571D01*
X116924021Y-52265570D01*
X116924022Y-52265570D01*
X116762066Y-52193461D01*
X116762058Y-52193459D01*
X116588645Y-52156600D01*
X116411355Y-52156600D01*
X116237941Y-52193459D01*
X116237933Y-52193461D01*
X116075978Y-52265570D01*
X115932543Y-52369780D01*
X115813915Y-52501532D01*
X115725272Y-52655065D01*
X115725271Y-52655066D01*
X115670487Y-52823677D01*
X115670486Y-52823679D01*
X115651954Y-53000000D01*
X109221820Y-53000000D01*
X109229514Y-52976319D01*
X109248046Y-52800000D01*
X109229514Y-52623681D01*
X109174729Y-52455069D01*
X109174728Y-52455068D01*
X109174728Y-52455066D01*
X109174727Y-52455065D01*
X109125487Y-52369779D01*
X109086084Y-52301531D01*
X109032677Y-52242217D01*
X108967456Y-52169780D01*
X108895738Y-52117675D01*
X108824023Y-52065571D01*
X108824021Y-52065570D01*
X108824022Y-52065570D01*
X108662066Y-51993461D01*
X108662058Y-51993459D01*
X108488645Y-51956600D01*
X108311355Y-51956600D01*
X108137941Y-51993459D01*
X108137933Y-51993461D01*
X107975978Y-52065570D01*
X107832543Y-52169780D01*
X107713915Y-52301532D01*
X107625272Y-52455065D01*
X107625271Y-52455066D01*
X107570487Y-52623677D01*
X107570486Y-52623679D01*
X107551954Y-52800000D01*
X105971411Y-52800000D01*
X105924023Y-52765571D01*
X105924021Y-52765570D01*
X105924022Y-52765570D01*
X105762066Y-52693461D01*
X105762058Y-52693459D01*
X105588645Y-52656600D01*
X105411355Y-52656600D01*
X105237941Y-52693459D01*
X105237933Y-52693461D01*
X105075978Y-52765570D01*
X104932543Y-52869780D01*
X104813915Y-53001532D01*
X104725272Y-53155065D01*
X104725271Y-53155066D01*
X104670487Y-53323677D01*
X104670486Y-53323679D01*
X104651954Y-53500000D01*
X98100500Y-53500000D01*
X98100500Y-51000000D01*
X115651954Y-51000000D01*
X115670486Y-51176320D01*
X115670487Y-51176322D01*
X115725271Y-51344933D01*
X115725272Y-51344934D01*
X115798450Y-51471682D01*
X115813916Y-51498469D01*
X115861414Y-51551221D01*
X115932543Y-51630219D01*
X115932546Y-51630221D01*
X116075977Y-51734429D01*
X116237933Y-51806538D01*
X116237936Y-51806538D01*
X116237939Y-51806540D01*
X116411355Y-51843400D01*
X116588645Y-51843400D01*
X116762061Y-51806540D01*
X116762064Y-51806538D01*
X116762066Y-51806538D01*
X116847108Y-51768674D01*
X116924023Y-51734429D01*
X117067454Y-51630221D01*
X117186084Y-51498469D01*
X117274729Y-51344931D01*
X117329514Y-51176319D01*
X117348046Y-51000000D01*
X117329514Y-50823681D01*
X117274729Y-50655069D01*
X117274728Y-50655068D01*
X117274728Y-50655066D01*
X117274727Y-50655065D01*
X117243798Y-50601495D01*
X117186084Y-50501531D01*
X117116979Y-50424782D01*
X117067456Y-50369780D01*
X116995738Y-50317675D01*
X116924023Y-50265571D01*
X116924021Y-50265570D01*
X116924022Y-50265570D01*
X116762066Y-50193461D01*
X116762058Y-50193459D01*
X116588645Y-50156600D01*
X116411355Y-50156600D01*
X116237941Y-50193459D01*
X116237933Y-50193461D01*
X116075978Y-50265570D01*
X115932543Y-50369780D01*
X115813915Y-50501532D01*
X115725272Y-50655065D01*
X115725271Y-50655066D01*
X115670487Y-50823677D01*
X115670486Y-50823679D01*
X115651954Y-51000000D01*
X98100500Y-51000000D01*
X98100500Y-39499994D01*
X98994357Y-39499994D01*
X98994357Y-39500005D01*
X99014890Y-39747812D01*
X99014892Y-39747824D01*
X99075936Y-39988881D01*
X99175826Y-40216606D01*
X99311833Y-40424782D01*
X99311836Y-40424785D01*
X99480256Y-40607738D01*
X99676491Y-40760474D01*
X99895190Y-40878828D01*
X99907292Y-40882982D01*
X99964307Y-40923365D01*
X99990439Y-40988164D01*
X99977391Y-41056804D01*
X99929304Y-41107493D01*
X99907300Y-41117543D01*
X99895398Y-41121629D01*
X99895390Y-41121632D01*
X99676761Y-41239949D01*
X99629942Y-41276388D01*
X99629942Y-41276390D01*
X100370590Y-42017037D01*
X100307007Y-42034075D01*
X100192993Y-42099901D01*
X100099901Y-42192993D01*
X100034075Y-42307007D01*
X100017037Y-42370589D01*
X99276564Y-41630116D01*
X99176267Y-41783632D01*
X99076412Y-42011282D01*
X99015387Y-42252261D01*
X99015385Y-42252270D01*
X98994859Y-42499994D01*
X98994859Y-42500005D01*
X99015385Y-42747729D01*
X99015387Y-42747738D01*
X99076412Y-42988717D01*
X99176266Y-43216364D01*
X99276564Y-43369882D01*
X100017037Y-42629409D01*
X100034075Y-42692993D01*
X100099901Y-42807007D01*
X100192993Y-42900099D01*
X100307007Y-42965925D01*
X100370590Y-42982962D01*
X99629942Y-43723609D01*
X99676768Y-43760055D01*
X99676770Y-43760056D01*
X99895385Y-43878364D01*
X99895396Y-43878369D01*
X99907294Y-43882454D01*
X99964309Y-43922839D01*
X99990440Y-43987639D01*
X99977389Y-44056279D01*
X99929300Y-44106967D01*
X99907296Y-44117016D01*
X99895191Y-44121171D01*
X99895188Y-44121172D01*
X99676493Y-44239524D01*
X99480257Y-44392261D01*
X99311833Y-44575217D01*
X99175826Y-44783393D01*
X99075936Y-45011118D01*
X99014892Y-45252175D01*
X99014890Y-45252187D01*
X98994357Y-45499994D01*
X98994357Y-45500005D01*
X99014890Y-45747812D01*
X99014892Y-45747824D01*
X99075936Y-45988881D01*
X99175826Y-46216606D01*
X99311833Y-46424782D01*
X99311836Y-46424785D01*
X99480256Y-46607738D01*
X99676491Y-46760474D01*
X99895190Y-46878828D01*
X99905682Y-46882430D01*
X99906524Y-46882719D01*
X99963539Y-46923106D01*
X99989668Y-46987906D01*
X99976615Y-47056546D01*
X99928526Y-47107233D01*
X99906524Y-47117281D01*
X99895191Y-47121171D01*
X99895188Y-47121172D01*
X99676493Y-47239524D01*
X99480257Y-47392261D01*
X99311833Y-47575217D01*
X99175826Y-47783393D01*
X99075936Y-48011118D01*
X99014892Y-48252175D01*
X99014890Y-48252187D01*
X98994357Y-48499994D01*
X98994357Y-48500005D01*
X99014890Y-48747812D01*
X99014892Y-48747824D01*
X99075936Y-48988881D01*
X99175826Y-49216606D01*
X99311833Y-49424782D01*
X99311836Y-49424785D01*
X99480256Y-49607738D01*
X99676491Y-49760474D01*
X99895190Y-49878828D01*
X100130386Y-49959571D01*
X100375665Y-50000500D01*
X100624335Y-50000500D01*
X100869614Y-49959571D01*
X101104810Y-49878828D01*
X101323509Y-49760474D01*
X101519744Y-49607738D01*
X101688164Y-49424785D01*
X101824173Y-49216607D01*
X101924063Y-48988881D01*
X101985108Y-48747821D01*
X101995867Y-48617979D01*
X102005643Y-48500005D01*
X102005643Y-48499994D01*
X101997357Y-48399997D01*
X103344723Y-48399997D01*
X103344723Y-48400002D01*
X103363793Y-48617975D01*
X103363793Y-48617979D01*
X103420422Y-48829322D01*
X103420424Y-48829326D01*
X103420425Y-48829330D01*
X103466661Y-48928484D01*
X103512897Y-49027638D01*
X103512898Y-49027639D01*
X103638402Y-49206877D01*
X103793123Y-49361598D01*
X103972361Y-49487102D01*
X104170670Y-49579575D01*
X104382023Y-49636207D01*
X104564926Y-49652208D01*
X104599998Y-49655277D01*
X104600000Y-49655277D01*
X104600002Y-49655277D01*
X104628254Y-49652805D01*
X104817977Y-49636207D01*
X105029330Y-49579575D01*
X105227639Y-49487102D01*
X105406877Y-49361598D01*
X105561598Y-49206877D01*
X105687102Y-49027639D01*
X105779575Y-48829330D01*
X105836207Y-48617977D01*
X105855277Y-48400000D01*
X105855277Y-48399997D01*
X107844723Y-48399997D01*
X107844723Y-48400002D01*
X107863793Y-48617975D01*
X107863793Y-48617979D01*
X107920422Y-48829322D01*
X107920424Y-48829326D01*
X107920425Y-48829330D01*
X107966661Y-48928484D01*
X108012897Y-49027638D01*
X108012898Y-49027639D01*
X108138402Y-49206877D01*
X108293123Y-49361598D01*
X108472361Y-49487102D01*
X108670670Y-49579575D01*
X108882023Y-49636207D01*
X109064926Y-49652208D01*
X109099998Y-49655277D01*
X109100000Y-49655277D01*
X109100002Y-49655277D01*
X109128254Y-49652805D01*
X109317977Y-49636207D01*
X109529330Y-49579575D01*
X109727639Y-49487102D01*
X109906877Y-49361598D01*
X110061598Y-49206877D01*
X110187102Y-49027639D01*
X110279575Y-48829330D01*
X110336207Y-48617977D01*
X110346528Y-48500000D01*
X115651954Y-48500000D01*
X115670486Y-48676320D01*
X115670487Y-48676322D01*
X115725271Y-48844933D01*
X115725272Y-48844934D01*
X115798450Y-48971682D01*
X115813916Y-48998469D01*
X115840180Y-49027638D01*
X115932543Y-49130219D01*
X115932546Y-49130221D01*
X116075977Y-49234429D01*
X116237933Y-49306538D01*
X116237936Y-49306538D01*
X116237939Y-49306540D01*
X116411355Y-49343400D01*
X116588645Y-49343400D01*
X116762061Y-49306540D01*
X116762064Y-49306538D01*
X116762066Y-49306538D01*
X116794869Y-49291932D01*
X116924023Y-49234429D01*
X117067454Y-49130221D01*
X117186084Y-48998469D01*
X117274729Y-48844931D01*
X117329514Y-48676319D01*
X117348046Y-48500000D01*
X117329514Y-48323681D01*
X117274729Y-48155069D01*
X117274728Y-48155068D01*
X117274728Y-48155066D01*
X117274727Y-48155065D01*
X117217847Y-48056546D01*
X117186084Y-48001531D01*
X117115470Y-47923106D01*
X117067456Y-47869780D01*
X116933370Y-47772362D01*
X116924023Y-47765571D01*
X116924021Y-47765570D01*
X116924022Y-47765570D01*
X116762066Y-47693461D01*
X116762058Y-47693459D01*
X116588645Y-47656600D01*
X116411355Y-47656600D01*
X116237941Y-47693459D01*
X116237933Y-47693461D01*
X116075978Y-47765570D01*
X115932543Y-47869780D01*
X115813915Y-48001532D01*
X115725272Y-48155065D01*
X115725271Y-48155066D01*
X115670487Y-48323677D01*
X115670486Y-48323679D01*
X115651954Y-48500000D01*
X110346528Y-48500000D01*
X110355277Y-48400000D01*
X110336207Y-48182023D01*
X110290413Y-48011118D01*
X110279577Y-47970677D01*
X110279576Y-47970676D01*
X110279575Y-47970670D01*
X110187102Y-47772362D01*
X110187100Y-47772359D01*
X110187099Y-47772357D01*
X110061599Y-47593124D01*
X110043690Y-47575215D01*
X109968475Y-47500000D01*
X117651954Y-47500000D01*
X117670486Y-47676320D01*
X117670487Y-47676322D01*
X117725271Y-47844933D01*
X117725272Y-47844934D01*
X117770405Y-47923106D01*
X117813916Y-47998469D01*
X117826186Y-48012096D01*
X117932543Y-48130219D01*
X117932546Y-48130221D01*
X118075977Y-48234429D01*
X118237933Y-48306538D01*
X118237936Y-48306538D01*
X118237939Y-48306540D01*
X118411355Y-48343400D01*
X118588645Y-48343400D01*
X118762061Y-48306540D01*
X118762064Y-48306538D01*
X118762066Y-48306538D01*
X118794869Y-48291932D01*
X118924023Y-48234429D01*
X119067454Y-48130221D01*
X119075605Y-48121169D01*
X119088152Y-48107233D01*
X119184705Y-48000000D01*
X131101954Y-48000000D01*
X131120486Y-48176320D01*
X131120487Y-48176322D01*
X131175271Y-48344933D01*
X131175272Y-48344934D01*
X131207063Y-48399997D01*
X131263916Y-48498469D01*
X131311414Y-48551221D01*
X131382543Y-48630219D01*
X131382546Y-48630221D01*
X131525977Y-48734429D01*
X131687933Y-48806538D01*
X131687936Y-48806538D01*
X131687939Y-48806540D01*
X131861355Y-48843400D01*
X132038645Y-48843400D01*
X132212061Y-48806540D01*
X132212064Y-48806538D01*
X132212066Y-48806538D01*
X132264049Y-48783393D01*
X132374023Y-48734429D01*
X132517454Y-48630221D01*
X132636084Y-48498469D01*
X132724729Y-48344931D01*
X132779514Y-48176319D01*
X132798046Y-48000000D01*
X132779514Y-47823681D01*
X132724729Y-47655069D01*
X132724728Y-47655068D01*
X132724728Y-47655066D01*
X132724727Y-47655065D01*
X132688965Y-47593124D01*
X132636084Y-47501531D01*
X132549417Y-47405277D01*
X132517456Y-47369780D01*
X132439162Y-47312897D01*
X132374023Y-47265571D01*
X132374021Y-47265570D01*
X132374022Y-47265570D01*
X132212066Y-47193461D01*
X132212058Y-47193459D01*
X132038645Y-47156600D01*
X131861355Y-47156600D01*
X131687941Y-47193459D01*
X131687933Y-47193461D01*
X131525978Y-47265570D01*
X131382543Y-47369780D01*
X131263915Y-47501532D01*
X131175272Y-47655065D01*
X131175271Y-47655066D01*
X131120487Y-47823677D01*
X131120486Y-47823679D01*
X131101954Y-48000000D01*
X119184705Y-48000000D01*
X119186084Y-47998469D01*
X119274729Y-47844931D01*
X119329514Y-47676319D01*
X119348046Y-47500000D01*
X119329514Y-47323681D01*
X119274729Y-47155069D01*
X119274728Y-47155068D01*
X119274728Y-47155066D01*
X119274727Y-47155065D01*
X119217847Y-47056546D01*
X119186084Y-47001531D01*
X119115470Y-46923106D01*
X119067456Y-46869780D01*
X118940633Y-46777639D01*
X118924023Y-46765571D01*
X118924021Y-46765570D01*
X118924022Y-46765570D01*
X118762066Y-46693461D01*
X118762058Y-46693459D01*
X118588645Y-46656600D01*
X118411355Y-46656600D01*
X118237941Y-46693459D01*
X118237933Y-46693461D01*
X118075978Y-46765570D01*
X117932543Y-46869780D01*
X117813915Y-47001532D01*
X117725272Y-47155065D01*
X117725271Y-47155066D01*
X117670487Y-47323677D01*
X117670486Y-47323679D01*
X117651954Y-47500000D01*
X109968475Y-47500000D01*
X109906877Y-47438402D01*
X109751456Y-47329575D01*
X109727638Y-47312897D01*
X109570292Y-47239526D01*
X109529330Y-47220425D01*
X109529326Y-47220424D01*
X109529322Y-47220422D01*
X109317977Y-47163793D01*
X109100002Y-47144723D01*
X109099998Y-47144723D01*
X108954682Y-47157436D01*
X108882023Y-47163793D01*
X108882020Y-47163793D01*
X108670677Y-47220422D01*
X108670668Y-47220426D01*
X108472361Y-47312898D01*
X108472357Y-47312900D01*
X108293121Y-47438402D01*
X108138402Y-47593121D01*
X108012900Y-47772357D01*
X108012898Y-47772361D01*
X107920426Y-47970668D01*
X107920422Y-47970677D01*
X107863793Y-48182020D01*
X107863793Y-48182024D01*
X107844723Y-48399997D01*
X105855277Y-48399997D01*
X105836207Y-48182023D01*
X105790413Y-48011118D01*
X105779577Y-47970677D01*
X105779576Y-47970676D01*
X105779575Y-47970670D01*
X105687102Y-47772362D01*
X105687100Y-47772359D01*
X105687099Y-47772357D01*
X105561599Y-47593124D01*
X105543690Y-47575215D01*
X105406877Y-47438402D01*
X105251456Y-47329575D01*
X105227638Y-47312897D01*
X105070292Y-47239526D01*
X105029330Y-47220425D01*
X105029326Y-47220424D01*
X105029322Y-47220422D01*
X104817977Y-47163793D01*
X104600002Y-47144723D01*
X104599998Y-47144723D01*
X104454682Y-47157436D01*
X104382023Y-47163793D01*
X104382020Y-47163793D01*
X104170677Y-47220422D01*
X104170668Y-47220426D01*
X103972361Y-47312898D01*
X103972357Y-47312900D01*
X103793121Y-47438402D01*
X103638402Y-47593121D01*
X103512900Y-47772357D01*
X103512898Y-47772361D01*
X103420426Y-47970668D01*
X103420422Y-47970677D01*
X103363793Y-48182020D01*
X103363793Y-48182024D01*
X103344723Y-48399997D01*
X101997357Y-48399997D01*
X101985109Y-48252187D01*
X101985107Y-48252175D01*
X101924063Y-48011118D01*
X101824173Y-47783393D01*
X101688166Y-47575217D01*
X101620333Y-47501531D01*
X101519744Y-47392262D01*
X101323509Y-47239526D01*
X101323507Y-47239525D01*
X101323506Y-47239524D01*
X101104811Y-47121172D01*
X101104802Y-47121169D01*
X101093477Y-47117281D01*
X101036462Y-47076896D01*
X101010331Y-47012096D01*
X101023382Y-46943456D01*
X101071471Y-46892768D01*
X101093477Y-46882719D01*
X101097235Y-46881428D01*
X101104810Y-46878828D01*
X101323509Y-46760474D01*
X101519744Y-46607738D01*
X101688164Y-46424785D01*
X101824173Y-46216607D01*
X101924063Y-45988881D01*
X101985108Y-45747821D01*
X101991033Y-45676319D01*
X102005643Y-45500005D01*
X102005643Y-45500000D01*
X124651954Y-45500000D01*
X124670486Y-45676320D01*
X124670487Y-45676322D01*
X124725271Y-45844933D01*
X124725272Y-45844934D01*
X124775552Y-45932020D01*
X124813916Y-45998469D01*
X124861414Y-46051221D01*
X124932543Y-46130219D01*
X124932546Y-46130221D01*
X125075977Y-46234429D01*
X125237933Y-46306538D01*
X125237936Y-46306538D01*
X125237939Y-46306540D01*
X125411355Y-46343400D01*
X125588645Y-46343400D01*
X125762061Y-46306540D01*
X125762064Y-46306538D01*
X125762066Y-46306538D01*
X125794869Y-46291932D01*
X125924023Y-46234429D01*
X126040234Y-46149997D01*
X128994723Y-46149997D01*
X128994723Y-46150002D01*
X129013793Y-46367975D01*
X129013793Y-46367979D01*
X129070422Y-46579322D01*
X129070424Y-46579326D01*
X129070425Y-46579330D01*
X129083672Y-46607738D01*
X129162897Y-46777638D01*
X129162898Y-46777639D01*
X129288402Y-46956877D01*
X129443123Y-47111598D01*
X129622361Y-47237102D01*
X129820670Y-47329575D01*
X130032023Y-47386207D01*
X130214926Y-47402208D01*
X130249998Y-47405277D01*
X130250000Y-47405277D01*
X130250002Y-47405277D01*
X130278254Y-47402805D01*
X130467977Y-47386207D01*
X130679330Y-47329575D01*
X130877639Y-47237102D01*
X131056877Y-47111598D01*
X131211598Y-46956877D01*
X131337102Y-46777639D01*
X131429575Y-46579330D01*
X131486207Y-46367977D01*
X131505277Y-46150000D01*
X131505277Y-46149997D01*
X133494723Y-46149997D01*
X133494723Y-46150002D01*
X133513793Y-46367975D01*
X133513793Y-46367979D01*
X133570422Y-46579322D01*
X133570424Y-46579326D01*
X133570425Y-46579330D01*
X133583672Y-46607738D01*
X133662897Y-46777638D01*
X133662898Y-46777639D01*
X133788402Y-46956877D01*
X133943123Y-47111598D01*
X134122361Y-47237102D01*
X134320670Y-47329575D01*
X134532023Y-47386207D01*
X134714926Y-47402208D01*
X134749998Y-47405277D01*
X134750000Y-47405277D01*
X134750002Y-47405277D01*
X134778254Y-47402805D01*
X134967977Y-47386207D01*
X135179330Y-47329575D01*
X135377639Y-47237102D01*
X135556877Y-47111598D01*
X135711598Y-46956877D01*
X135837102Y-46777639D01*
X135929575Y-46579330D01*
X135986207Y-46367977D01*
X136005277Y-46150000D01*
X136003546Y-46130219D01*
X136001569Y-46107618D01*
X135986207Y-45932023D01*
X135929575Y-45720670D01*
X135837102Y-45522362D01*
X135837100Y-45522359D01*
X135837099Y-45522357D01*
X135711599Y-45343124D01*
X135692152Y-45323677D01*
X135556877Y-45188402D01*
X135377639Y-45062898D01*
X135377636Y-45062897D01*
X135377634Y-45062895D01*
X135377633Y-45062894D01*
X135320050Y-45036042D01*
X135267611Y-44989869D01*
X135248460Y-44922675D01*
X135265069Y-44861662D01*
X135274729Y-44844931D01*
X135329514Y-44676319D01*
X135348046Y-44500000D01*
X135329514Y-44323681D01*
X135274729Y-44155069D01*
X135274728Y-44155068D01*
X135274728Y-44155066D01*
X135274727Y-44155065D01*
X135229443Y-44076631D01*
X135186084Y-44001531D01*
X135132677Y-43942217D01*
X135067456Y-43869780D01*
X134995738Y-43817675D01*
X134924023Y-43765571D01*
X134924021Y-43765570D01*
X134924022Y-43765570D01*
X134762066Y-43693461D01*
X134762058Y-43693459D01*
X134588645Y-43656600D01*
X134411355Y-43656600D01*
X134237941Y-43693459D01*
X134237933Y-43693461D01*
X134075978Y-43765570D01*
X133932543Y-43869780D01*
X133813915Y-44001532D01*
X133725272Y-44155065D01*
X133725271Y-44155066D01*
X133670487Y-44323677D01*
X133670486Y-44323679D01*
X133651954Y-44500000D01*
X133670486Y-44676320D01*
X133670487Y-44676322D01*
X133725271Y-44844933D01*
X133725272Y-44844934D01*
X133813914Y-44998467D01*
X133886385Y-45078954D01*
X133916615Y-45141945D01*
X133907990Y-45211281D01*
X133881917Y-45249607D01*
X133788400Y-45343124D01*
X133662900Y-45522357D01*
X133662898Y-45522361D01*
X133570426Y-45720668D01*
X133570422Y-45720677D01*
X133513793Y-45932020D01*
X133513793Y-45932024D01*
X133494723Y-46149997D01*
X131505277Y-46149997D01*
X131503546Y-46130219D01*
X131501569Y-46107618D01*
X131486207Y-45932023D01*
X131429575Y-45720670D01*
X131337102Y-45522362D01*
X131337100Y-45522359D01*
X131337099Y-45522357D01*
X131211599Y-45343124D01*
X131192152Y-45323677D01*
X131056877Y-45188402D01*
X130877639Y-45062898D01*
X130877640Y-45062898D01*
X130877638Y-45062897D01*
X130768694Y-45012096D01*
X130679330Y-44970425D01*
X130679326Y-44970424D01*
X130679322Y-44970422D01*
X130467977Y-44913793D01*
X130250002Y-44894723D01*
X130249998Y-44894723D01*
X130104682Y-44907436D01*
X130032023Y-44913793D01*
X130032020Y-44913793D01*
X129820677Y-44970422D01*
X129820668Y-44970426D01*
X129622361Y-45062898D01*
X129622357Y-45062900D01*
X129443121Y-45188402D01*
X129288402Y-45343121D01*
X129162900Y-45522357D01*
X129162898Y-45522361D01*
X129070426Y-45720668D01*
X129070422Y-45720677D01*
X129013793Y-45932020D01*
X129013793Y-45932024D01*
X128994723Y-46149997D01*
X126040234Y-46149997D01*
X126067454Y-46130221D01*
X126186084Y-45998469D01*
X126274729Y-45844931D01*
X126329514Y-45676319D01*
X126348046Y-45500000D01*
X126329514Y-45323681D01*
X126274729Y-45155069D01*
X126274728Y-45155068D01*
X126274728Y-45155066D01*
X126274727Y-45155065D01*
X126221514Y-45062898D01*
X126186084Y-45001531D01*
X126115082Y-44922675D01*
X126067456Y-44869780D01*
X125980412Y-44806540D01*
X125924023Y-44765571D01*
X125924021Y-44765570D01*
X125924022Y-44765570D01*
X125762066Y-44693461D01*
X125762058Y-44693459D01*
X125588645Y-44656600D01*
X125411355Y-44656600D01*
X125237941Y-44693459D01*
X125237933Y-44693461D01*
X125075978Y-44765570D01*
X124932543Y-44869780D01*
X124813915Y-45001532D01*
X124725272Y-45155065D01*
X124725271Y-45155066D01*
X124670487Y-45323677D01*
X124670486Y-45323679D01*
X124651954Y-45500000D01*
X102005643Y-45500000D01*
X102005643Y-45499994D01*
X101985109Y-45252187D01*
X101985107Y-45252175D01*
X101924063Y-45011118D01*
X101824173Y-44783393D01*
X101688166Y-44575217D01*
X101666557Y-44551744D01*
X101519744Y-44392262D01*
X101323509Y-44239526D01*
X101323507Y-44239525D01*
X101323506Y-44239524D01*
X101104811Y-44121172D01*
X101104802Y-44121169D01*
X101092705Y-44117016D01*
X101035690Y-44076631D01*
X101009559Y-44011831D01*
X101022610Y-43943191D01*
X101070699Y-43892504D01*
X101092707Y-43882453D01*
X101104608Y-43878367D01*
X101104614Y-43878364D01*
X101323228Y-43760057D01*
X101323231Y-43760055D01*
X101370056Y-43723609D01*
X100629409Y-42982962D01*
X100692993Y-42965925D01*
X100807007Y-42900099D01*
X100900099Y-42807007D01*
X100965925Y-42692993D01*
X100982962Y-42629410D01*
X101723434Y-43369882D01*
X101823731Y-43216369D01*
X101923587Y-42988717D01*
X101984612Y-42747738D01*
X101984614Y-42747729D01*
X102005141Y-42500005D01*
X102005141Y-42499994D01*
X101984614Y-42252270D01*
X101984612Y-42252261D01*
X101923587Y-42011282D01*
X101874774Y-41899997D01*
X103344723Y-41899997D01*
X103344723Y-41900002D01*
X103363793Y-42117975D01*
X103363793Y-42117979D01*
X103420422Y-42329322D01*
X103420424Y-42329326D01*
X103420425Y-42329330D01*
X103449770Y-42392261D01*
X103512897Y-42527638D01*
X103512898Y-42527639D01*
X103638402Y-42706877D01*
X103793123Y-42861598D01*
X103972361Y-42987102D01*
X104170670Y-43079575D01*
X104170676Y-43079576D01*
X104170677Y-43079577D01*
X104201364Y-43087799D01*
X104382023Y-43136207D01*
X104564926Y-43152208D01*
X104599998Y-43155277D01*
X104600000Y-43155277D01*
X104600002Y-43155277D01*
X104628254Y-43152805D01*
X104817977Y-43136207D01*
X105029330Y-43079575D01*
X105227639Y-42987102D01*
X105406877Y-42861598D01*
X105561598Y-42706877D01*
X105687102Y-42527639D01*
X105779575Y-42329330D01*
X105836207Y-42117977D01*
X105855277Y-41900000D01*
X105855277Y-41899997D01*
X107844723Y-41899997D01*
X107844723Y-41900002D01*
X107863793Y-42117975D01*
X107863793Y-42117979D01*
X107920422Y-42329322D01*
X107920424Y-42329326D01*
X107920425Y-42329330D01*
X107949770Y-42392261D01*
X108012897Y-42527638D01*
X108012898Y-42527639D01*
X108138402Y-42706877D01*
X108293123Y-42861598D01*
X108472361Y-42987102D01*
X108670670Y-43079575D01*
X108670676Y-43079576D01*
X108670677Y-43079577D01*
X108859683Y-43130221D01*
X108882023Y-43136207D01*
X108883646Y-43136349D01*
X108884316Y-43136611D01*
X108887351Y-43137146D01*
X108887243Y-43137755D01*
X108948715Y-43161794D01*
X108989700Y-43218381D01*
X108993585Y-43288142D01*
X108959137Y-43348930D01*
X108945739Y-43360192D01*
X108932545Y-43369778D01*
X108813915Y-43501532D01*
X108725272Y-43655065D01*
X108725271Y-43655066D01*
X108670487Y-43823677D01*
X108670486Y-43823679D01*
X108651954Y-44000000D01*
X108670486Y-44176320D01*
X108670487Y-44176322D01*
X108725271Y-44344933D01*
X108725272Y-44344934D01*
X108798450Y-44471682D01*
X108813916Y-44498469D01*
X108815295Y-44500000D01*
X108932543Y-44630219D01*
X108932546Y-44630221D01*
X109075977Y-44734429D01*
X109237933Y-44806538D01*
X109237936Y-44806538D01*
X109237939Y-44806540D01*
X109411355Y-44843400D01*
X109588645Y-44843400D01*
X109762061Y-44806540D01*
X109762064Y-44806538D01*
X109762066Y-44806538D01*
X109814049Y-44783393D01*
X109924023Y-44734429D01*
X110067454Y-44630221D01*
X110186084Y-44498469D01*
X110274729Y-44344931D01*
X110329514Y-44176319D01*
X110348046Y-44000000D01*
X110329514Y-43823681D01*
X110274729Y-43655069D01*
X110274728Y-43655068D01*
X110274728Y-43655066D01*
X110274727Y-43655065D01*
X110243798Y-43601495D01*
X110186084Y-43501531D01*
X110184700Y-43499994D01*
X140294357Y-43499994D01*
X140294357Y-43500005D01*
X140314890Y-43747812D01*
X140314892Y-43747824D01*
X140375936Y-43988881D01*
X140475826Y-44216606D01*
X140611833Y-44424782D01*
X140611836Y-44424785D01*
X140780256Y-44607738D01*
X140976491Y-44760474D01*
X141085840Y-44819651D01*
X141132557Y-44844933D01*
X141195190Y-44878828D01*
X141205682Y-44882430D01*
X141206524Y-44882719D01*
X141263539Y-44923106D01*
X141289668Y-44987906D01*
X141276615Y-45056546D01*
X141228526Y-45107233D01*
X141206524Y-45117281D01*
X141195191Y-45121171D01*
X141195188Y-45121172D01*
X140976493Y-45239524D01*
X140780257Y-45392261D01*
X140611833Y-45575217D01*
X140475826Y-45783393D01*
X140375936Y-46011118D01*
X140314892Y-46252175D01*
X140314890Y-46252187D01*
X140294357Y-46499994D01*
X140294357Y-46500005D01*
X140314890Y-46747812D01*
X140314892Y-46747824D01*
X140375936Y-46988881D01*
X140475826Y-47216606D01*
X140611833Y-47424782D01*
X140611836Y-47424785D01*
X140780256Y-47607738D01*
X140976491Y-47760474D01*
X140998449Y-47772357D01*
X141132557Y-47844933D01*
X141195190Y-47878828D01*
X141205682Y-47882430D01*
X141206524Y-47882719D01*
X141263539Y-47923106D01*
X141289668Y-47987906D01*
X141276615Y-48056546D01*
X141228526Y-48107233D01*
X141206524Y-48117281D01*
X141195191Y-48121171D01*
X141195188Y-48121172D01*
X140976493Y-48239524D01*
X140780257Y-48392261D01*
X140611833Y-48575217D01*
X140475826Y-48783393D01*
X140375936Y-49011118D01*
X140314892Y-49252175D01*
X140314890Y-49252187D01*
X140294357Y-49499994D01*
X140294357Y-49500005D01*
X140314890Y-49747812D01*
X140314892Y-49747824D01*
X140375936Y-49988881D01*
X140475826Y-50216606D01*
X140611833Y-50424782D01*
X140611836Y-50424785D01*
X140780256Y-50607738D01*
X140976491Y-50760474D01*
X141195190Y-50878828D01*
X141205682Y-50882430D01*
X141206524Y-50882719D01*
X141263539Y-50923106D01*
X141289668Y-50987906D01*
X141276615Y-51056546D01*
X141228526Y-51107233D01*
X141206524Y-51117281D01*
X141195191Y-51121171D01*
X141195188Y-51121172D01*
X140976493Y-51239524D01*
X140780257Y-51392261D01*
X140611833Y-51575217D01*
X140475826Y-51783393D01*
X140375936Y-52011118D01*
X140314892Y-52252175D01*
X140314890Y-52252187D01*
X140294357Y-52499994D01*
X140294357Y-52500005D01*
X140314890Y-52747812D01*
X140314892Y-52747824D01*
X140375936Y-52988881D01*
X140475826Y-53216606D01*
X140611833Y-53424782D01*
X140611836Y-53424785D01*
X140780256Y-53607738D01*
X140976491Y-53760474D01*
X141085840Y-53819651D01*
X141132557Y-53844933D01*
X141195190Y-53878828D01*
X141430386Y-53959571D01*
X141675665Y-54000500D01*
X141924335Y-54000500D01*
X142169614Y-53959571D01*
X142404810Y-53878828D01*
X142623509Y-53760474D01*
X142819744Y-53607738D01*
X142988164Y-53424785D01*
X143124173Y-53216607D01*
X143224063Y-52988881D01*
X143285108Y-52747821D01*
X143289071Y-52700000D01*
X143305643Y-52500005D01*
X143305643Y-52499994D01*
X143285109Y-52252187D01*
X143285107Y-52252175D01*
X143224063Y-52011118D01*
X143124173Y-51783393D01*
X142988166Y-51575217D01*
X142917514Y-51498469D01*
X142819744Y-51392262D01*
X142623509Y-51239526D01*
X142623507Y-51239525D01*
X142623506Y-51239524D01*
X142404811Y-51121172D01*
X142404802Y-51121169D01*
X142393477Y-51117281D01*
X142336462Y-51076896D01*
X142310331Y-51012096D01*
X142323382Y-50943456D01*
X142371471Y-50892768D01*
X142393477Y-50882719D01*
X142397235Y-50881428D01*
X142404810Y-50878828D01*
X142623509Y-50760474D01*
X142819744Y-50607738D01*
X142988164Y-50424785D01*
X143124173Y-50216607D01*
X143224063Y-49988881D01*
X143285108Y-49747821D01*
X143285109Y-49747812D01*
X143305643Y-49500005D01*
X143305643Y-49499994D01*
X143285109Y-49252187D01*
X143285107Y-49252175D01*
X143224063Y-49011118D01*
X143124173Y-48783393D01*
X142988166Y-48575217D01*
X142918928Y-48500005D01*
X142819744Y-48392262D01*
X142623509Y-48239526D01*
X142623507Y-48239525D01*
X142623506Y-48239524D01*
X142404811Y-48121172D01*
X142404802Y-48121169D01*
X142393477Y-48117281D01*
X142336462Y-48076896D01*
X142310331Y-48012096D01*
X142323382Y-47943456D01*
X142371471Y-47892768D01*
X142393477Y-47882719D01*
X142397235Y-47881428D01*
X142404810Y-47878828D01*
X142623509Y-47760474D01*
X142819744Y-47607738D01*
X142988164Y-47424785D01*
X143124173Y-47216607D01*
X143224063Y-46988881D01*
X143285108Y-46747821D01*
X143285109Y-46747812D01*
X143305643Y-46500005D01*
X143305643Y-46499994D01*
X143285109Y-46252187D01*
X143285107Y-46252175D01*
X143224063Y-46011118D01*
X143124173Y-45783393D01*
X142988166Y-45575217D01*
X142918928Y-45500005D01*
X142819744Y-45392262D01*
X142623509Y-45239526D01*
X142623507Y-45239525D01*
X142623506Y-45239524D01*
X142404811Y-45121172D01*
X142404802Y-45121169D01*
X142393477Y-45117281D01*
X142336462Y-45076896D01*
X142310331Y-45012096D01*
X142323382Y-44943456D01*
X142371471Y-44892768D01*
X142393477Y-44882719D01*
X142397235Y-44881428D01*
X142404810Y-44878828D01*
X142623509Y-44760474D01*
X142819744Y-44607738D01*
X142988164Y-44424785D01*
X143124173Y-44216607D01*
X143224063Y-43988881D01*
X143285108Y-43747821D01*
X143285109Y-43747812D01*
X143305643Y-43500005D01*
X143305643Y-43499994D01*
X143285109Y-43252187D01*
X143285107Y-43252175D01*
X143224063Y-43011118D01*
X143124173Y-42783393D01*
X142988166Y-42575217D01*
X142918928Y-42500005D01*
X142819744Y-42392262D01*
X142623509Y-42239526D01*
X142623507Y-42239525D01*
X142623506Y-42239524D01*
X142404811Y-42121172D01*
X142404802Y-42121169D01*
X142169616Y-42040429D01*
X141924335Y-41999500D01*
X141675665Y-41999500D01*
X141430383Y-42040429D01*
X141195197Y-42121169D01*
X141195188Y-42121172D01*
X140976493Y-42239524D01*
X140780257Y-42392261D01*
X140611833Y-42575217D01*
X140475826Y-42783393D01*
X140375936Y-43011118D01*
X140314892Y-43252175D01*
X140314890Y-43252187D01*
X140294357Y-43499994D01*
X110184700Y-43499994D01*
X110132677Y-43442217D01*
X110067456Y-43369780D01*
X109924023Y-43265571D01*
X109761081Y-43193023D01*
X109707845Y-43147772D01*
X109687524Y-43080923D01*
X109706570Y-43013700D01*
X109740391Y-42978172D01*
X109906877Y-42861598D01*
X110061598Y-42706877D01*
X110187102Y-42527639D01*
X110199990Y-42500000D01*
X112151954Y-42500000D01*
X112170486Y-42676320D01*
X112170487Y-42676322D01*
X112225271Y-42844933D01*
X112225272Y-42844934D01*
X112257122Y-42900099D01*
X112313916Y-42998469D01*
X112361414Y-43051221D01*
X112432543Y-43130219D01*
X112442916Y-43137755D01*
X112575977Y-43234429D01*
X112737933Y-43306538D01*
X112737936Y-43306538D01*
X112737939Y-43306540D01*
X112911355Y-43343400D01*
X113088645Y-43343400D01*
X113262061Y-43306540D01*
X113262064Y-43306538D01*
X113262066Y-43306538D01*
X113303383Y-43288142D01*
X113424023Y-43234429D01*
X113567454Y-43130221D01*
X113686084Y-42998469D01*
X113774729Y-42844931D01*
X113829514Y-42676319D01*
X113848046Y-42500000D01*
X126151954Y-42500000D01*
X126170486Y-42676320D01*
X126170487Y-42676322D01*
X126225271Y-42844933D01*
X126225272Y-42844934D01*
X126257122Y-42900099D01*
X126313916Y-42998469D01*
X126361414Y-43051221D01*
X126432543Y-43130219D01*
X126442916Y-43137755D01*
X126575977Y-43234429D01*
X126737933Y-43306538D01*
X126737936Y-43306538D01*
X126737939Y-43306540D01*
X126911355Y-43343400D01*
X127088645Y-43343400D01*
X127262061Y-43306540D01*
X127262064Y-43306538D01*
X127262066Y-43306538D01*
X127303383Y-43288142D01*
X127424023Y-43234429D01*
X127567454Y-43130221D01*
X127686084Y-42998469D01*
X127774729Y-42844931D01*
X127829514Y-42676319D01*
X127848046Y-42500000D01*
X127829514Y-42323681D01*
X127774729Y-42155069D01*
X127774728Y-42155068D01*
X127774728Y-42155066D01*
X127774727Y-42155065D01*
X127742878Y-42099901D01*
X127686084Y-42001531D01*
X127632677Y-41942217D01*
X127567456Y-41869780D01*
X127448879Y-41783630D01*
X127424023Y-41765571D01*
X127424021Y-41765570D01*
X127424022Y-41765570D01*
X127262066Y-41693461D01*
X127262058Y-41693459D01*
X127088645Y-41656600D01*
X126911355Y-41656600D01*
X126737941Y-41693459D01*
X126737933Y-41693461D01*
X126575978Y-41765570D01*
X126432543Y-41869780D01*
X126313915Y-42001532D01*
X126225272Y-42155065D01*
X126225271Y-42155066D01*
X126170487Y-42323677D01*
X126170486Y-42323679D01*
X126151954Y-42500000D01*
X113848046Y-42500000D01*
X113829514Y-42323681D01*
X113774729Y-42155069D01*
X113774728Y-42155068D01*
X113774728Y-42155066D01*
X113774727Y-42155065D01*
X113742878Y-42099901D01*
X113686084Y-42001531D01*
X113632677Y-41942217D01*
X113567456Y-41869780D01*
X113448879Y-41783630D01*
X113424023Y-41765571D01*
X113424021Y-41765570D01*
X113424022Y-41765570D01*
X113262066Y-41693461D01*
X113262058Y-41693459D01*
X113088645Y-41656600D01*
X112911355Y-41656600D01*
X112737941Y-41693459D01*
X112737933Y-41693461D01*
X112575978Y-41765570D01*
X112432543Y-41869780D01*
X112313915Y-42001532D01*
X112225272Y-42155065D01*
X112225271Y-42155066D01*
X112170487Y-42323677D01*
X112170486Y-42323679D01*
X112151954Y-42500000D01*
X110199990Y-42500000D01*
X110279575Y-42329330D01*
X110336207Y-42117977D01*
X110355277Y-41900000D01*
X110336207Y-41682023D01*
X110279575Y-41470670D01*
X110187102Y-41272362D01*
X110187100Y-41272359D01*
X110187099Y-41272357D01*
X110061599Y-41093124D01*
X110025279Y-41056804D01*
X109906877Y-40938402D01*
X109852033Y-40900000D01*
X120151954Y-40900000D01*
X120170486Y-41076320D01*
X120170487Y-41076322D01*
X120225271Y-41244933D01*
X120225272Y-41244934D01*
X120298450Y-41371682D01*
X120313916Y-41398469D01*
X120361414Y-41451221D01*
X120432543Y-41530219D01*
X120432546Y-41530221D01*
X120575977Y-41634429D01*
X120737933Y-41706538D01*
X120737936Y-41706538D01*
X120737939Y-41706540D01*
X120911355Y-41743400D01*
X121088645Y-41743400D01*
X121262061Y-41706540D01*
X121262064Y-41706538D01*
X121262066Y-41706538D01*
X121317133Y-41682020D01*
X121424023Y-41634429D01*
X121567454Y-41530221D01*
X121686084Y-41398469D01*
X121774729Y-41244931D01*
X121829514Y-41076319D01*
X121848046Y-40900000D01*
X121829514Y-40723681D01*
X121774729Y-40555069D01*
X121774728Y-40555068D01*
X121774728Y-40555066D01*
X121774727Y-40555065D01*
X121702647Y-40430219D01*
X121686084Y-40401531D01*
X121593285Y-40298467D01*
X121567456Y-40269780D01*
X121494267Y-40216606D01*
X121424023Y-40165571D01*
X121424021Y-40165570D01*
X121424022Y-40165570D01*
X121262066Y-40093461D01*
X121262058Y-40093459D01*
X121088645Y-40056600D01*
X120911355Y-40056600D01*
X120737941Y-40093459D01*
X120737933Y-40093461D01*
X120575978Y-40165570D01*
X120432543Y-40269780D01*
X120313915Y-40401532D01*
X120225272Y-40555065D01*
X120225271Y-40555066D01*
X120170487Y-40723677D01*
X120170486Y-40723679D01*
X120151954Y-40900000D01*
X109852033Y-40900000D01*
X109751456Y-40829575D01*
X109727638Y-40812897D01*
X109628484Y-40766661D01*
X109529330Y-40720425D01*
X109529326Y-40720424D01*
X109529322Y-40720422D01*
X109317977Y-40663793D01*
X109100002Y-40644723D01*
X109099998Y-40644723D01*
X108954682Y-40657436D01*
X108882023Y-40663793D01*
X108882020Y-40663793D01*
X108670677Y-40720422D01*
X108670668Y-40720426D01*
X108472361Y-40812898D01*
X108472357Y-40812900D01*
X108293121Y-40938402D01*
X108138402Y-41093121D01*
X108012900Y-41272357D01*
X108012898Y-41272361D01*
X107920426Y-41470668D01*
X107920422Y-41470677D01*
X107863793Y-41682020D01*
X107863793Y-41682024D01*
X107844723Y-41899997D01*
X105855277Y-41899997D01*
X105836207Y-41682023D01*
X105779575Y-41470670D01*
X105687102Y-41272362D01*
X105687100Y-41272359D01*
X105687099Y-41272357D01*
X105561599Y-41093124D01*
X105525279Y-41056804D01*
X105406877Y-40938402D01*
X105251456Y-40829575D01*
X105227638Y-40812897D01*
X105128484Y-40766661D01*
X105029330Y-40720425D01*
X105029326Y-40720424D01*
X105029322Y-40720422D01*
X104817977Y-40663793D01*
X104600002Y-40644723D01*
X104599998Y-40644723D01*
X104454682Y-40657436D01*
X104382023Y-40663793D01*
X104382020Y-40663793D01*
X104170677Y-40720422D01*
X104170668Y-40720426D01*
X103972361Y-40812898D01*
X103972357Y-40812900D01*
X103793121Y-40938402D01*
X103638402Y-41093121D01*
X103512900Y-41272357D01*
X103512898Y-41272361D01*
X103420426Y-41470668D01*
X103420422Y-41470677D01*
X103363793Y-41682020D01*
X103363793Y-41682024D01*
X103344723Y-41899997D01*
X101874774Y-41899997D01*
X101823731Y-41783630D01*
X101723434Y-41630116D01*
X100982962Y-42370589D01*
X100965925Y-42307007D01*
X100900099Y-42192993D01*
X100807007Y-42099901D01*
X100692993Y-42034075D01*
X100629410Y-42017037D01*
X101370057Y-41276390D01*
X101370056Y-41276389D01*
X101323229Y-41239943D01*
X101104614Y-41121635D01*
X101104605Y-41121631D01*
X101092701Y-41117544D01*
X101035687Y-41077156D01*
X101009559Y-41012356D01*
X101022612Y-40943716D01*
X101070703Y-40893030D01*
X101092705Y-40882983D01*
X101104810Y-40878828D01*
X101323509Y-40760474D01*
X101519744Y-40607738D01*
X101688164Y-40424785D01*
X101824173Y-40216607D01*
X101924063Y-39988881D01*
X101971894Y-39800000D01*
X102551954Y-39800000D01*
X102570486Y-39976320D01*
X102570487Y-39976322D01*
X102625271Y-40144933D01*
X102625272Y-40144934D01*
X102697352Y-40269779D01*
X102713916Y-40298469D01*
X102754371Y-40343399D01*
X102832543Y-40430219D01*
X102832546Y-40430221D01*
X102975977Y-40534429D01*
X103137933Y-40606538D01*
X103137936Y-40606538D01*
X103137939Y-40606540D01*
X103311355Y-40643400D01*
X103488645Y-40643400D01*
X103662061Y-40606540D01*
X103662064Y-40606538D01*
X103662066Y-40606538D01*
X103694869Y-40591932D01*
X103824023Y-40534429D01*
X103967454Y-40430221D01*
X104086084Y-40298469D01*
X104174729Y-40144931D01*
X104229514Y-39976319D01*
X104248046Y-39800000D01*
X104229514Y-39623681D01*
X104189328Y-39500000D01*
X122651954Y-39500000D01*
X122670486Y-39676320D01*
X122670487Y-39676322D01*
X122725271Y-39844933D01*
X122725272Y-39844934D01*
X122798450Y-39971682D01*
X122813916Y-39998469D01*
X122861414Y-40051221D01*
X122932543Y-40130219D01*
X122932546Y-40130221D01*
X123075977Y-40234429D01*
X123237933Y-40306538D01*
X123237936Y-40306538D01*
X123237939Y-40306540D01*
X123411355Y-40343400D01*
X123588645Y-40343400D01*
X123762061Y-40306540D01*
X123762064Y-40306538D01*
X123762066Y-40306538D01*
X123794869Y-40291932D01*
X123924023Y-40234429D01*
X124067454Y-40130221D01*
X124186084Y-39998469D01*
X124274729Y-39844931D01*
X124329514Y-39676319D01*
X124332281Y-39649997D01*
X128994723Y-39649997D01*
X128994723Y-39650002D01*
X129013793Y-39867975D01*
X129013793Y-39867979D01*
X129070422Y-40079322D01*
X129070424Y-40079326D01*
X129070425Y-40079330D01*
X129094155Y-40130219D01*
X129162897Y-40277638D01*
X129162898Y-40277639D01*
X129288402Y-40456877D01*
X129443123Y-40611598D01*
X129622361Y-40737102D01*
X129820670Y-40829575D01*
X130032023Y-40886207D01*
X130214926Y-40902208D01*
X130249998Y-40905277D01*
X130250000Y-40905277D01*
X130250002Y-40905277D01*
X130278254Y-40902805D01*
X130467977Y-40886207D01*
X130679330Y-40829575D01*
X130877639Y-40737102D01*
X131056877Y-40611598D01*
X131211598Y-40456877D01*
X131337102Y-40277639D01*
X131429575Y-40079330D01*
X131486207Y-39867977D01*
X131505277Y-39650000D01*
X131505277Y-39649997D01*
X133494723Y-39649997D01*
X133494723Y-39650002D01*
X133513793Y-39867975D01*
X133513793Y-39867979D01*
X133570422Y-40079322D01*
X133570424Y-40079326D01*
X133570425Y-40079330D01*
X133594155Y-40130219D01*
X133662897Y-40277638D01*
X133662898Y-40277639D01*
X133788402Y-40456877D01*
X133943123Y-40611598D01*
X134122361Y-40737102D01*
X134320670Y-40829575D01*
X134532023Y-40886207D01*
X134714926Y-40902208D01*
X134749998Y-40905277D01*
X134750000Y-40905277D01*
X134750002Y-40905277D01*
X134778254Y-40902805D01*
X134967977Y-40886207D01*
X135179330Y-40829575D01*
X135377639Y-40737102D01*
X135556877Y-40611598D01*
X135711598Y-40456877D01*
X135837102Y-40277639D01*
X135929575Y-40079330D01*
X135986207Y-39867977D01*
X136005277Y-39650000D01*
X136002974Y-39623681D01*
X135992154Y-39500005D01*
X135986207Y-39432023D01*
X135929575Y-39220670D01*
X135837102Y-39022362D01*
X135837100Y-39022359D01*
X135837099Y-39022357D01*
X135711599Y-38843124D01*
X135651868Y-38783393D01*
X135556877Y-38688402D01*
X135418978Y-38591844D01*
X135377638Y-38562897D01*
X135278484Y-38516661D01*
X135179330Y-38470425D01*
X135179326Y-38470424D01*
X135179322Y-38470422D01*
X134967977Y-38413793D01*
X134750002Y-38394723D01*
X134749998Y-38394723D01*
X134604682Y-38407436D01*
X134532023Y-38413793D01*
X134532020Y-38413793D01*
X134320677Y-38470422D01*
X134320668Y-38470426D01*
X134122361Y-38562898D01*
X134122357Y-38562900D01*
X133943121Y-38688402D01*
X133788402Y-38843121D01*
X133662900Y-39022357D01*
X133662898Y-39022361D01*
X133570426Y-39220668D01*
X133570422Y-39220677D01*
X133513793Y-39432020D01*
X133513793Y-39432024D01*
X133494723Y-39649997D01*
X131505277Y-39649997D01*
X131502974Y-39623681D01*
X131492154Y-39500005D01*
X131486207Y-39432023D01*
X131429575Y-39220670D01*
X131337102Y-39022362D01*
X131337100Y-39022359D01*
X131337099Y-39022357D01*
X131211599Y-38843124D01*
X131151868Y-38783393D01*
X131056877Y-38688402D01*
X130918978Y-38591844D01*
X130877638Y-38562897D01*
X130778484Y-38516661D01*
X130679330Y-38470425D01*
X130679326Y-38470424D01*
X130679322Y-38470422D01*
X130467977Y-38413793D01*
X130250002Y-38394723D01*
X130249998Y-38394723D01*
X130104682Y-38407436D01*
X130032023Y-38413793D01*
X130032020Y-38413793D01*
X129820677Y-38470422D01*
X129820668Y-38470426D01*
X129622361Y-38562898D01*
X129622357Y-38562900D01*
X129443121Y-38688402D01*
X129288402Y-38843121D01*
X129162900Y-39022357D01*
X129162898Y-39022361D01*
X129070426Y-39220668D01*
X129070422Y-39220677D01*
X129013793Y-39432020D01*
X129013793Y-39432024D01*
X128994723Y-39649997D01*
X124332281Y-39649997D01*
X124348046Y-39500000D01*
X124329514Y-39323681D01*
X124274729Y-39155069D01*
X124274728Y-39155068D01*
X124274728Y-39155066D01*
X124274727Y-39155065D01*
X124223057Y-39065570D01*
X124186084Y-39001531D01*
X124132677Y-38942217D01*
X124067456Y-38869780D01*
X123948553Y-38783393D01*
X123924023Y-38765571D01*
X123924021Y-38765570D01*
X123924022Y-38765570D01*
X123762066Y-38693461D01*
X123762058Y-38693459D01*
X123588645Y-38656600D01*
X123411355Y-38656600D01*
X123237941Y-38693459D01*
X123237933Y-38693461D01*
X123075978Y-38765570D01*
X122932543Y-38869780D01*
X122813915Y-39001532D01*
X122725272Y-39155065D01*
X122725271Y-39155066D01*
X122670487Y-39323677D01*
X122670486Y-39323679D01*
X122651954Y-39500000D01*
X104189328Y-39500000D01*
X104174729Y-39455069D01*
X104174728Y-39455068D01*
X104174728Y-39455066D01*
X104174727Y-39455065D01*
X104098870Y-39323677D01*
X104086084Y-39301531D01*
X104013283Y-39220677D01*
X103967456Y-39169780D01*
X103895738Y-39117675D01*
X103824023Y-39065571D01*
X103824021Y-39065570D01*
X103824022Y-39065570D01*
X103662066Y-38993461D01*
X103662058Y-38993459D01*
X103488645Y-38956600D01*
X103311355Y-38956600D01*
X103137941Y-38993459D01*
X103137933Y-38993461D01*
X102975978Y-39065570D01*
X102832543Y-39169780D01*
X102713915Y-39301532D01*
X102625272Y-39455065D01*
X102625271Y-39455066D01*
X102570487Y-39623677D01*
X102570486Y-39623679D01*
X102551954Y-39800000D01*
X101971894Y-39800000D01*
X101985108Y-39747821D01*
X102005643Y-39500000D01*
X102000010Y-39432024D01*
X101985109Y-39252187D01*
X101985107Y-39252175D01*
X101924063Y-39011118D01*
X101824173Y-38783393D01*
X101688166Y-38575217D01*
X101666557Y-38551744D01*
X101519744Y-38392262D01*
X101323509Y-38239526D01*
X101323507Y-38239525D01*
X101323506Y-38239524D01*
X101104811Y-38121172D01*
X101104802Y-38121169D01*
X100869616Y-38040429D01*
X100624335Y-37999500D01*
X100375665Y-37999500D01*
X100130383Y-38040429D01*
X99895197Y-38121169D01*
X99895188Y-38121172D01*
X99676493Y-38239524D01*
X99480257Y-38392261D01*
X99480256Y-38392262D01*
X99469452Y-38403997D01*
X99311833Y-38575217D01*
X99175826Y-38783393D01*
X99075936Y-39011118D01*
X99014892Y-39252175D01*
X99014890Y-39252187D01*
X98994357Y-39499994D01*
X98100500Y-39499994D01*
X98100500Y-36500000D01*
X108751954Y-36500000D01*
X108770486Y-36676320D01*
X108770487Y-36676322D01*
X108825271Y-36844933D01*
X108825272Y-36844934D01*
X108898450Y-36971682D01*
X108913916Y-36998469D01*
X108961414Y-37051221D01*
X109032543Y-37130219D01*
X109032546Y-37130221D01*
X109175977Y-37234429D01*
X109337933Y-37306538D01*
X109337936Y-37306538D01*
X109337939Y-37306540D01*
X109511355Y-37343400D01*
X109688645Y-37343400D01*
X109862061Y-37306540D01*
X109862064Y-37306538D01*
X109862066Y-37306538D01*
X109894869Y-37291932D01*
X110024023Y-37234429D01*
X110167454Y-37130221D01*
X110286084Y-36998469D01*
X110374729Y-36844931D01*
X110429514Y-36676319D01*
X110437536Y-36600000D01*
X124151954Y-36600000D01*
X124170486Y-36776320D01*
X124170487Y-36776322D01*
X124225271Y-36944933D01*
X124225272Y-36944934D01*
X124256180Y-36998467D01*
X124313916Y-37098469D01*
X124342504Y-37130219D01*
X124432543Y-37230219D01*
X124432546Y-37230221D01*
X124575977Y-37334429D01*
X124737933Y-37406538D01*
X124737936Y-37406538D01*
X124737939Y-37406540D01*
X124911355Y-37443400D01*
X125088645Y-37443400D01*
X125262061Y-37406540D01*
X125262064Y-37406538D01*
X125262066Y-37406538D01*
X125294869Y-37391932D01*
X125424023Y-37334429D01*
X125567454Y-37230221D01*
X125686084Y-37098469D01*
X125774729Y-36944931D01*
X125829514Y-36776319D01*
X125848046Y-36600000D01*
X125829514Y-36423681D01*
X125805574Y-36350000D01*
X134301954Y-36350000D01*
X134320486Y-36526320D01*
X134320487Y-36526322D01*
X134375271Y-36694933D01*
X134375272Y-36694934D01*
X134422260Y-36776319D01*
X134463916Y-36848469D01*
X134511414Y-36901221D01*
X134582543Y-36980219D01*
X134582546Y-36980221D01*
X134725977Y-37084429D01*
X134887933Y-37156538D01*
X134887936Y-37156538D01*
X134887939Y-37156540D01*
X135061355Y-37193400D01*
X135238645Y-37193400D01*
X135412061Y-37156540D01*
X135412064Y-37156538D01*
X135412066Y-37156538D01*
X135444869Y-37141932D01*
X135574023Y-37084429D01*
X135717454Y-36980221D01*
X135836084Y-36848469D01*
X135924729Y-36694931D01*
X135979514Y-36526319D01*
X135998046Y-36350000D01*
X135979514Y-36173681D01*
X135924729Y-36005069D01*
X135924728Y-36005068D01*
X135924728Y-36005066D01*
X135924727Y-36005065D01*
X135846619Y-35869779D01*
X135836084Y-35851531D01*
X135782677Y-35792217D01*
X135717456Y-35719780D01*
X135630495Y-35656600D01*
X135574023Y-35615571D01*
X135574021Y-35615570D01*
X135574022Y-35615570D01*
X135412066Y-35543461D01*
X135412058Y-35543459D01*
X135238645Y-35506600D01*
X135061355Y-35506600D01*
X134887941Y-35543459D01*
X134887933Y-35543461D01*
X134725978Y-35615570D01*
X134582543Y-35719780D01*
X134463915Y-35851532D01*
X134375272Y-36005065D01*
X134375271Y-36005066D01*
X134320487Y-36173677D01*
X134320486Y-36173679D01*
X134301954Y-36350000D01*
X125805574Y-36350000D01*
X125774729Y-36255069D01*
X125774728Y-36255068D01*
X125774728Y-36255066D01*
X125774727Y-36255065D01*
X125727740Y-36173681D01*
X125686084Y-36101531D01*
X125632677Y-36042217D01*
X125567456Y-35969780D01*
X125429816Y-35869780D01*
X125424023Y-35865571D01*
X125424021Y-35865570D01*
X125424022Y-35865570D01*
X125262066Y-35793461D01*
X125262058Y-35793459D01*
X125088645Y-35756600D01*
X124911355Y-35756600D01*
X124737941Y-35793459D01*
X124737933Y-35793461D01*
X124575978Y-35865570D01*
X124432543Y-35969780D01*
X124313915Y-36101532D01*
X124225272Y-36255065D01*
X124225271Y-36255066D01*
X124170487Y-36423677D01*
X124170486Y-36423679D01*
X124151954Y-36600000D01*
X110437536Y-36600000D01*
X110448046Y-36500000D01*
X110429514Y-36323681D01*
X110374729Y-36155069D01*
X110374728Y-36155068D01*
X110374728Y-36155066D01*
X110374727Y-36155065D01*
X110343798Y-36101495D01*
X110286084Y-36001531D01*
X110232677Y-35942217D01*
X110167456Y-35869780D01*
X110095738Y-35817675D01*
X110024023Y-35765571D01*
X110024021Y-35765570D01*
X110024022Y-35765570D01*
X109862066Y-35693461D01*
X109862058Y-35693459D01*
X109688645Y-35656600D01*
X109511355Y-35656600D01*
X109337941Y-35693459D01*
X109337933Y-35693461D01*
X109175978Y-35765570D01*
X109032543Y-35869780D01*
X108913915Y-36001532D01*
X108825272Y-36155065D01*
X108825271Y-36155066D01*
X108770487Y-36323677D01*
X108770486Y-36323679D01*
X108751954Y-36500000D01*
X98100500Y-36500000D01*
X98100500Y-33499994D01*
X98894357Y-33499994D01*
X98894357Y-33500005D01*
X98914890Y-33747812D01*
X98914892Y-33747824D01*
X98975936Y-33988881D01*
X99075826Y-34216606D01*
X99211833Y-34424782D01*
X99211836Y-34424785D01*
X99380256Y-34607738D01*
X99576491Y-34760474D01*
X99576493Y-34760475D01*
X99794332Y-34878364D01*
X99795190Y-34878828D01*
X100014141Y-34953994D01*
X100028964Y-34959083D01*
X100030386Y-34959571D01*
X100275665Y-35000500D01*
X100524335Y-35000500D01*
X100769614Y-34959571D01*
X101004810Y-34878828D01*
X101223509Y-34760474D01*
X101419744Y-34607738D01*
X101588164Y-34424785D01*
X101724173Y-34216607D01*
X101786444Y-34074644D01*
X101831400Y-34021158D01*
X101898136Y-34000468D01*
X101965464Y-34019143D01*
X102012007Y-34071253D01*
X102013556Y-34074644D01*
X102075826Y-34216606D01*
X102211833Y-34424782D01*
X102211836Y-34424785D01*
X102380256Y-34607738D01*
X102576491Y-34760474D01*
X102576493Y-34760475D01*
X102794332Y-34878364D01*
X102795190Y-34878828D01*
X103014141Y-34953994D01*
X103028964Y-34959083D01*
X103030386Y-34959571D01*
X103275665Y-35000500D01*
X103524335Y-35000500D01*
X103769614Y-34959571D01*
X104004810Y-34878828D01*
X104223509Y-34760474D01*
X104419744Y-34607738D01*
X104588164Y-34424785D01*
X104724173Y-34216607D01*
X104786717Y-34074020D01*
X104831673Y-34020535D01*
X104898409Y-33999845D01*
X104965737Y-34018520D01*
X105012280Y-34070630D01*
X105013829Y-34074021D01*
X105076266Y-34216364D01*
X105176564Y-34369882D01*
X105917037Y-33629409D01*
X105934075Y-33692993D01*
X105999901Y-33807007D01*
X106092993Y-33900099D01*
X106207007Y-33965925D01*
X106270590Y-33982962D01*
X105529942Y-34723609D01*
X105576768Y-34760055D01*
X105576770Y-34760056D01*
X105795385Y-34878364D01*
X105795396Y-34878369D01*
X106030506Y-34959083D01*
X106275707Y-35000000D01*
X106524293Y-35000000D01*
X106769493Y-34959083D01*
X107004603Y-34878369D01*
X107004614Y-34878364D01*
X107223228Y-34760057D01*
X107223231Y-34760055D01*
X107270056Y-34723609D01*
X106529409Y-33982962D01*
X106592993Y-33965925D01*
X106707007Y-33900099D01*
X106800099Y-33807007D01*
X106865925Y-33692993D01*
X106882962Y-33629410D01*
X107623434Y-34369882D01*
X107723732Y-34216367D01*
X107786170Y-34074022D01*
X107831125Y-34020536D01*
X107897861Y-33999845D01*
X107965189Y-34018519D01*
X108011733Y-34070629D01*
X108013282Y-34074020D01*
X108075827Y-34216608D01*
X108211833Y-34424782D01*
X108211836Y-34424785D01*
X108380256Y-34607738D01*
X108576491Y-34760474D01*
X108576493Y-34760475D01*
X108794332Y-34878364D01*
X108795190Y-34878828D01*
X109014141Y-34953994D01*
X109028964Y-34959083D01*
X109030386Y-34959571D01*
X109275665Y-35000500D01*
X109524335Y-35000500D01*
X109769614Y-34959571D01*
X110004810Y-34878828D01*
X110223509Y-34760474D01*
X110419744Y-34607738D01*
X110588164Y-34424785D01*
X110724173Y-34216607D01*
X110824063Y-33988881D01*
X110885108Y-33747821D01*
X110905643Y-33500000D01*
X110905643Y-33499994D01*
X114494357Y-33499994D01*
X114494357Y-33500005D01*
X114514890Y-33747812D01*
X114514892Y-33747824D01*
X114575936Y-33988881D01*
X114675826Y-34216606D01*
X114811833Y-34424782D01*
X114811836Y-34424785D01*
X114980256Y-34607738D01*
X115176491Y-34760474D01*
X115176493Y-34760475D01*
X115394332Y-34878364D01*
X115395190Y-34878828D01*
X115614141Y-34953994D01*
X115628964Y-34959083D01*
X115630386Y-34959571D01*
X115875665Y-35000500D01*
X116124335Y-35000500D01*
X116369614Y-34959571D01*
X116604810Y-34878828D01*
X116823509Y-34760474D01*
X117019744Y-34607738D01*
X117188164Y-34424785D01*
X117324173Y-34216607D01*
X117386444Y-34074644D01*
X117431400Y-34021158D01*
X117498136Y-34000468D01*
X117565464Y-34019143D01*
X117612007Y-34071253D01*
X117613556Y-34074644D01*
X117675826Y-34216606D01*
X117811833Y-34424782D01*
X117811836Y-34424785D01*
X117980256Y-34607738D01*
X118176491Y-34760474D01*
X118176493Y-34760475D01*
X118394332Y-34878364D01*
X118395190Y-34878828D01*
X118614141Y-34953994D01*
X118628964Y-34959083D01*
X118630386Y-34959571D01*
X118875665Y-35000500D01*
X119124335Y-35000500D01*
X119369614Y-34959571D01*
X119604810Y-34878828D01*
X119823509Y-34760474D01*
X120019744Y-34607738D01*
X120188164Y-34424785D01*
X120324173Y-34216607D01*
X120386717Y-34074020D01*
X120431673Y-34020535D01*
X120498409Y-33999845D01*
X120565737Y-34018520D01*
X120612280Y-34070630D01*
X120613829Y-34074021D01*
X120676266Y-34216364D01*
X120776564Y-34369882D01*
X121517037Y-33629409D01*
X121534075Y-33692993D01*
X121599901Y-33807007D01*
X121692993Y-33900099D01*
X121807007Y-33965925D01*
X121870590Y-33982962D01*
X121129942Y-34723609D01*
X121176768Y-34760055D01*
X121176770Y-34760056D01*
X121395385Y-34878364D01*
X121395396Y-34878369D01*
X121630506Y-34959083D01*
X121875707Y-35000000D01*
X122124293Y-35000000D01*
X122369493Y-34959083D01*
X122604603Y-34878369D01*
X122604614Y-34878364D01*
X122823228Y-34760057D01*
X122823231Y-34760055D01*
X122870056Y-34723609D01*
X122129409Y-33982962D01*
X122192993Y-33965925D01*
X122307007Y-33900099D01*
X122400099Y-33807007D01*
X122465925Y-33692993D01*
X122482962Y-33629410D01*
X123223434Y-34369882D01*
X123323732Y-34216367D01*
X123386170Y-34074022D01*
X123431125Y-34020536D01*
X123497861Y-33999845D01*
X123565189Y-34018519D01*
X123611733Y-34070629D01*
X123613282Y-34074020D01*
X123675827Y-34216608D01*
X123811833Y-34424782D01*
X123811836Y-34424785D01*
X123980256Y-34607738D01*
X124176491Y-34760474D01*
X124176493Y-34760475D01*
X124394332Y-34878364D01*
X124395190Y-34878828D01*
X124614141Y-34953994D01*
X124628964Y-34959083D01*
X124630386Y-34959571D01*
X124875665Y-35000500D01*
X125124335Y-35000500D01*
X125369614Y-34959571D01*
X125604810Y-34878828D01*
X125823509Y-34760474D01*
X126019744Y-34607738D01*
X126188164Y-34424785D01*
X126324173Y-34216607D01*
X126424063Y-33988881D01*
X126485108Y-33747821D01*
X126505643Y-33500000D01*
X126489651Y-33307007D01*
X126485109Y-33252187D01*
X126485107Y-33252175D01*
X126424063Y-33011118D01*
X126324173Y-32783393D01*
X126188166Y-32575217D01*
X126166557Y-32551744D01*
X126019744Y-32392262D01*
X125823509Y-32239526D01*
X125823507Y-32239525D01*
X125823506Y-32239524D01*
X125604811Y-32121172D01*
X125604802Y-32121169D01*
X125369616Y-32040429D01*
X125124335Y-31999500D01*
X124875665Y-31999500D01*
X124630383Y-32040429D01*
X124395197Y-32121169D01*
X124395188Y-32121172D01*
X124176493Y-32239524D01*
X123980257Y-32392261D01*
X123811833Y-32575217D01*
X123675827Y-32783391D01*
X123613282Y-32925979D01*
X123568325Y-32979464D01*
X123501589Y-33000154D01*
X123434261Y-32981479D01*
X123387718Y-32929368D01*
X123386170Y-32925978D01*
X123323731Y-32783630D01*
X123223434Y-32630116D01*
X122482962Y-33370589D01*
X122465925Y-33307007D01*
X122400099Y-33192993D01*
X122307007Y-33099901D01*
X122192993Y-33034075D01*
X122129410Y-33017037D01*
X122870057Y-32276390D01*
X122870056Y-32276389D01*
X122823229Y-32239943D01*
X122604614Y-32121635D01*
X122604603Y-32121630D01*
X122369493Y-32040916D01*
X122124293Y-32000000D01*
X121875707Y-32000000D01*
X121630506Y-32040916D01*
X121395396Y-32121630D01*
X121395390Y-32121632D01*
X121176761Y-32239949D01*
X121129942Y-32276388D01*
X121129942Y-32276390D01*
X121870590Y-33017037D01*
X121807007Y-33034075D01*
X121692993Y-33099901D01*
X121599901Y-33192993D01*
X121534075Y-33307007D01*
X121517037Y-33370589D01*
X120776564Y-32630116D01*
X120676267Y-32783632D01*
X120613829Y-32925978D01*
X120568873Y-32979464D01*
X120502137Y-33000154D01*
X120434809Y-32981479D01*
X120388266Y-32929369D01*
X120386717Y-32925978D01*
X120324173Y-32783393D01*
X120188166Y-32575217D01*
X120166557Y-32551744D01*
X120019744Y-32392262D01*
X119823509Y-32239526D01*
X119823507Y-32239525D01*
X119823506Y-32239524D01*
X119604811Y-32121172D01*
X119604802Y-32121169D01*
X119369616Y-32040429D01*
X119124335Y-31999500D01*
X118875665Y-31999500D01*
X118630383Y-32040429D01*
X118395197Y-32121169D01*
X118395188Y-32121172D01*
X118176493Y-32239524D01*
X117980257Y-32392261D01*
X117811833Y-32575217D01*
X117675826Y-32783393D01*
X117613556Y-32925355D01*
X117568600Y-32978841D01*
X117501864Y-32999531D01*
X117434536Y-32980856D01*
X117387993Y-32928746D01*
X117386444Y-32925355D01*
X117324173Y-32783393D01*
X117188166Y-32575217D01*
X117166557Y-32551744D01*
X117019744Y-32392262D01*
X116823509Y-32239526D01*
X116823507Y-32239525D01*
X116823506Y-32239524D01*
X116604811Y-32121172D01*
X116604802Y-32121169D01*
X116369616Y-32040429D01*
X116124335Y-31999500D01*
X115875665Y-31999500D01*
X115630383Y-32040429D01*
X115395197Y-32121169D01*
X115395188Y-32121172D01*
X115176493Y-32239524D01*
X114980257Y-32392261D01*
X114811833Y-32575217D01*
X114675826Y-32783393D01*
X114575936Y-33011118D01*
X114514892Y-33252175D01*
X114514890Y-33252187D01*
X114494357Y-33499994D01*
X110905643Y-33499994D01*
X110889651Y-33307007D01*
X110885109Y-33252187D01*
X110885107Y-33252175D01*
X110824063Y-33011118D01*
X110724173Y-32783393D01*
X110588166Y-32575217D01*
X110566557Y-32551744D01*
X110419744Y-32392262D01*
X110223509Y-32239526D01*
X110223507Y-32239525D01*
X110223506Y-32239524D01*
X110004811Y-32121172D01*
X110004802Y-32121169D01*
X109769616Y-32040429D01*
X109524335Y-31999500D01*
X109275665Y-31999500D01*
X109030383Y-32040429D01*
X108795197Y-32121169D01*
X108795188Y-32121172D01*
X108576493Y-32239524D01*
X108380257Y-32392261D01*
X108211833Y-32575217D01*
X108075827Y-32783391D01*
X108013282Y-32925979D01*
X107968325Y-32979464D01*
X107901589Y-33000154D01*
X107834261Y-32981479D01*
X107787718Y-32929368D01*
X107786170Y-32925978D01*
X107723731Y-32783630D01*
X107623434Y-32630116D01*
X106882962Y-33370589D01*
X106865925Y-33307007D01*
X106800099Y-33192993D01*
X106707007Y-33099901D01*
X106592993Y-33034075D01*
X106529410Y-33017037D01*
X107270057Y-32276390D01*
X107270056Y-32276389D01*
X107223229Y-32239943D01*
X107004614Y-32121635D01*
X107004603Y-32121630D01*
X106769493Y-32040916D01*
X106524293Y-32000000D01*
X106275707Y-32000000D01*
X106030506Y-32040916D01*
X105795396Y-32121630D01*
X105795390Y-32121632D01*
X105576761Y-32239949D01*
X105529942Y-32276388D01*
X105529942Y-32276390D01*
X106270590Y-33017037D01*
X106207007Y-33034075D01*
X106092993Y-33099901D01*
X105999901Y-33192993D01*
X105934075Y-33307007D01*
X105917037Y-33370589D01*
X105176564Y-32630116D01*
X105076267Y-32783632D01*
X105013829Y-32925978D01*
X104968873Y-32979464D01*
X104902137Y-33000154D01*
X104834809Y-32981479D01*
X104788266Y-32929369D01*
X104786717Y-32925978D01*
X104724173Y-32783393D01*
X104588166Y-32575217D01*
X104566557Y-32551744D01*
X104419744Y-32392262D01*
X104223509Y-32239526D01*
X104223507Y-32239525D01*
X104223506Y-32239524D01*
X104004811Y-32121172D01*
X104004802Y-32121169D01*
X103769616Y-32040429D01*
X103524335Y-31999500D01*
X103275665Y-31999500D01*
X103030383Y-32040429D01*
X102795197Y-32121169D01*
X102795188Y-32121172D01*
X102576493Y-32239524D01*
X102380257Y-32392261D01*
X102211833Y-32575217D01*
X102075826Y-32783393D01*
X102013556Y-32925355D01*
X101968600Y-32978841D01*
X101901864Y-32999531D01*
X101834536Y-32980856D01*
X101787993Y-32928746D01*
X101786444Y-32925355D01*
X101724173Y-32783393D01*
X101588166Y-32575217D01*
X101566557Y-32551744D01*
X101419744Y-32392262D01*
X101223509Y-32239526D01*
X101223507Y-32239525D01*
X101223506Y-32239524D01*
X101004811Y-32121172D01*
X101004802Y-32121169D01*
X100769616Y-32040429D01*
X100524335Y-31999500D01*
X100275665Y-31999500D01*
X100030383Y-32040429D01*
X99795197Y-32121169D01*
X99795188Y-32121172D01*
X99576493Y-32239524D01*
X99380257Y-32392261D01*
X99211833Y-32575217D01*
X99075826Y-32783393D01*
X98975936Y-33011118D01*
X98914892Y-33252175D01*
X98914890Y-33252187D01*
X98894357Y-33499994D01*
X98100500Y-33499994D01*
X98100500Y-30624500D01*
X98120185Y-30557461D01*
X98172989Y-30511706D01*
X98224500Y-30500500D01*
X143876000Y-30500500D01*
X143943039Y-30520185D01*
G37*
%TD.AperFunction*%
%TD*%
M02*
